<?xml version="1.0" standalone="no" ?>
<!DOCTYPE svg PUBLIC "-//W3C//DTD SVG 1.1//EN" "http://www.w3.org/Graphics/SVG/1.1/DTD/svg11.dtd">
<svg width="500px" height="500px" xmlns="http://www.w3.org/2000/svg" version="1.1" >
	<circle cx="331.57" cy="499.56" r="2.5" fill="rgb(255,255,255)" />
	<circle cx="19.1028" cy="411.446" r="2.5" fill="rgb(252,252,252)" />
	<circle cx="48.2033" cy="413.609" r="2.5" fill="rgb(246,246,246)" />
	<circle cx="55.8755" cy="415.582" r="2.5" fill="rgb(245,245,245)" />
	<circle cx="0.802445" cy="400.451" r="2.5" fill="rgb(245,245,245)" />
	<circle cx="86.6093" cy="386.111" r="2.5" fill="rgb(241,241,241)" />
	<circle cx="7.76624" cy="432.01" r="2.5" fill="rgb(239,239,239)" />
	<circle cx="8.36694" cy="441.692" r="2.5" fill="rgb(238,238,238)" />
	<circle cx="87.5836" cy="391.082" r="2.5" fill="rgb(237,237,237)" />
	<circle cx="136.217" cy="400.168" r="2.5" fill="rgb(235,235,235)" />
	<circle cx="15.6125" cy="435.362" r="2.5" fill="rgb(234,234,234)" />
	<circle cx="104.584" cy="397.873" r="2.5" fill="rgb(233,233,233)" />
	<circle cx="127.335" cy="403.209" r="2.5" fill="rgb(230,230,230)" />
	<circle cx="19.718" cy="451.797" r="2.5" fill="rgb(228,228,228)" />
	<circle cx="82.5102" cy="405.413" r="2.5" fill="rgb(224,224,224)" />
	<circle cx="107.389" cy="407.224" r="2.5" fill="rgb(224,224,224)" />
	<circle cx="1.88895" cy="430.382" r="2.5" fill="rgb(223,223,223)" />
	<circle cx="9.02115" cy="453.367" r="2.5" fill="rgb(222,222,222)" />
	<circle cx="451.18" cy="447.891" r="2.5" fill="rgb(221,221,221)" />
	<circle cx="106.736" cy="411.843" r="2.5" fill="rgb(220,220,220)" />
	<circle cx="28.4357" cy="421.076" r="2.5" fill="rgb(220,220,220)" />
	<circle cx="275.64" cy="422.209" r="2.5" fill="rgb(218,218,218)" />
	<circle cx="29.6587" cy="425.836" r="2.5" fill="rgb(217,217,217)" />
	<circle cx="8.50484" cy="462.097" r="2.5" fill="rgb(216,216,216)" />
	<circle cx="26.3388" cy="467.466" r="2.5" fill="rgb(216,216,216)" />
	<circle cx="44.1017" cy="439.282" r="2.5" fill="rgb(211,211,211)" />
	<circle cx="65.8241" cy="429.236" r="2.5" fill="rgb(207,207,207)" />
	<circle cx="65.395" cy="429.913" r="2.5" fill="rgb(207,207,207)" />
	<circle cx="75.3332" cy="427.68" r="2.5" fill="rgb(205,205,205)" />
	<circle cx="105.471" cy="431.272" r="2.5" fill="rgb(203,203,203)" />
	<circle cx="367.446" cy="471.829" r="2.5" fill="rgb(202,202,202)" />
	<circle cx="373.094" cy="473.918" r="2.5" fill="rgb(199,199,199)" />
	<circle cx="372.996" cy="472.208" r="2.5" fill="rgb(199,199,199)" />
	<circle cx="96.5677" cy="435.264" r="2.5" fill="rgb(199,199,199)" />
	<circle cx="41.4408" cy="394.467" r="2.5" fill="rgb(197,197,197)" />
	<circle cx="397.131" cy="460.908" r="2.5" fill="rgb(192,192,192)" />
	<circle cx="76.4675" cy="388.036" r="2.5" fill="rgb(191,191,191)" />
	<circle cx="356.766" cy="484.687" r="2.5" fill="rgb(190,190,190)" />
	<circle cx="115.185" cy="389.318" r="2.5" fill="rgb(189,189,189)" />
	<circle cx="267.826" cy="438.712" r="2.5" fill="rgb(188,188,188)" />
	<circle cx="81.2864" cy="447.051" r="2.5" fill="rgb(188,188,188)" />
	<circle cx="53.1236" cy="443.714" r="2.5" fill="rgb(186,186,186)" />
	<circle cx="73.269" cy="448.384" r="2.5" fill="rgb(186,186,186)" />
	<circle cx="96.4037" cy="182.178" r="2.5" fill="rgb(185,185,185)" />
	<circle cx="99.2783" cy="391.171" r="2.5" fill="rgb(185,185,185)" />
	<circle cx="428.488" cy="461.011" r="2.5" fill="rgb(184,184,184)" />
	<circle cx="26.9556" cy="451.13" r="2.5" fill="rgb(184,184,184)" />
	<circle cx="417.867" cy="386.818" r="2.5" fill="rgb(182,182,182)" />
	<circle cx="40.9384" cy="299.004" r="2.5" fill="rgb(181,181,181)" />
	<circle cx="112.606" cy="157.822" r="2.5" fill="rgb(180,180,180)" />
	<circle cx="163.354" cy="74.2691" r="2.5" fill="rgb(178,178,178)" />
	<circle cx="52.6943" cy="457.379" r="2.5" fill="rgb(177,177,177)" />
	<circle cx="3.75348" cy="477.552" r="2.5" fill="rgb(177,177,177)" />
	<circle cx="3.71428" cy="187.539" r="2.5" fill="rgb(176,176,176)" />
	<circle cx="351.945" cy="490.868" r="2.5" fill="rgb(176,176,176)" />
	<circle cx="383.49" cy="412.174" r="2.5" fill="rgb(175,175,175)" />
	<circle cx="153.837" cy="155.218" r="2.5" fill="rgb(174,174,174)" />
	<circle cx="35.45" cy="463.972" r="2.5" fill="rgb(173,173,173)" />
	<circle cx="133.004" cy="118.171" r="2.5" fill="rgb(173,173,173)" />
	<circle cx="192.309" cy="376.998" r="2.5" fill="rgb(171,171,171)" />
	<circle cx="19.1414" cy="330.548" r="2.5" fill="rgb(170,170,170)" />
	<circle cx="227.587" cy="405.254" r="2.5" fill="rgb(169,169,169)" />
	<circle cx="209.984" cy="386.256" r="2.5" fill="rgb(169,169,169)" />
	<circle cx="329.484" cy="139.943" r="2.5" fill="rgb(169,169,169)" />
	<circle cx="172.764" cy="385.708" r="2.5" fill="rgb(168,168,168)" />
	<circle cx="29.5169" cy="310.198" r="2.5" fill="rgb(168,168,168)" />
	<circle cx="325.128" cy="429.297" r="2.5" fill="rgb(166,166,166)" />
	<circle cx="123.597" cy="132.378" r="2.5" fill="rgb(166,166,166)" />
	<circle cx="177.294" cy="387.47" r="2.5" fill="rgb(166,166,166)" />
	<circle cx="158.537" cy="81.8915" r="2.5" fill="rgb(165,165,165)" />
	<circle cx="52.6123" cy="469.827" r="2.5" fill="rgb(165,165,165)" />
	<circle cx="234.383" cy="376.27" r="2.5" fill="rgb(164,164,164)" />
	<circle cx="39.2929" cy="358.092" r="2.5" fill="rgb(162,162,162)" />
	<circle cx="266.564" cy="465.454" r="2.5" fill="rgb(160,160,160)" />
	<circle cx="120.764" cy="75.3906" r="2.5" fill="rgb(160,160,160)" />
	<circle cx="7.46637" cy="195.662" r="2.5" fill="rgb(160,160,160)" />
	<circle cx="133.653" cy="221.496" r="2.5" fill="rgb(159,159,159)" />
	<circle cx="67.5209" cy="237.651" r="2.5" fill="rgb(159,159,159)" />
	<circle cx="222.156" cy="276.216" r="2.5" fill="rgb(159,159,159)" />
	<circle cx="243.648" cy="323.24" r="2.5" fill="rgb(159,159,159)" />
	<circle cx="409.495" cy="471.233" r="2.5" fill="rgb(159,159,159)" />
	<circle cx="418.063" cy="470.616" r="2.5" fill="rgb(159,159,159)" />
	<circle cx="309.805" cy="450.588" r="2.5" fill="rgb(158,158,158)" />
	<circle cx="24.1571" cy="361.336" r="2.5" fill="rgb(158,158,158)" />
	<circle cx="41.2485" cy="363.896" r="2.5" fill="rgb(158,158,158)" />
	<circle cx="206.47" cy="386.48" r="2.5" fill="rgb(158,158,158)" />
	<circle cx="472.509" cy="386.001" r="2.5" fill="rgb(157,157,157)" />
	<circle cx="105.087" cy="467.198" r="2.5" fill="rgb(156,156,156)" />
	<circle cx="382.466" cy="391.774" r="2.5" fill="rgb(156,156,156)" />
	<circle cx="364.229" cy="428.488" r="2.5" fill="rgb(155,155,155)" />
	<circle cx="33.8965" cy="213.35" r="2.5" fill="rgb(155,155,155)" />
	<circle cx="320.917" cy="451.491" r="2.5" fill="rgb(155,155,155)" />
	<circle cx="3.10174" cy="256.863" r="2.5" fill="rgb(154,154,154)" />
	<circle cx="39.6672" cy="196.029" r="2.5" fill="rgb(154,154,154)" />
	<circle cx="315.673" cy="294.228" r="2.5" fill="rgb(153,153,153)" />
	<circle cx="98.0459" cy="204.529" r="2.5" fill="rgb(153,153,153)" />
	<circle cx="64.489" cy="92.6217" r="2.5" fill="rgb(153,153,153)" />
	<circle cx="37.8114" cy="207.396" r="2.5" fill="rgb(151,151,151)" />
	<circle cx="416.5" cy="473.351" r="2.5" fill="rgb(151,151,151)" />
	<circle cx="135.636" cy="454.387" r="2.5" fill="rgb(151,151,151)" />
	<circle cx="135.865" cy="214.967" r="2.5" fill="rgb(150,150,150)" />
	<circle cx="98.0863" cy="129.552" r="2.5" fill="rgb(150,150,150)" />
	<circle cx="236.271" cy="385.154" r="2.5" fill="rgb(149,149,149)" />
	<circle cx="111.406" cy="82.8493" r="2.5" fill="rgb(149,149,149)" />
	<circle cx="142.358" cy="88.0221" r="2.5" fill="rgb(149,149,149)" />
	<circle cx="470.784" cy="388.38" r="2.5" fill="rgb(149,149,149)" />
	<circle cx="26.6187" cy="198.277" r="2.5" fill="rgb(149,149,149)" />
	<circle cx="284.5" cy="290.426" r="2.5" fill="rgb(148,148,148)" />
	<circle cx="128.771" cy="188.873" r="2.5" fill="rgb(147,147,147)" />
	<circle cx="234.635" cy="328.539" r="2.5" fill="rgb(146,146,146)" />
	<circle cx="116.67" cy="83.8698" r="2.5" fill="rgb(146,146,146)" />
	<circle cx="215.754" cy="353.368" r="2.5" fill="rgb(146,146,146)" />
	<circle cx="115.359" cy="150.182" r="2.5" fill="rgb(146,146,146)" />
	<circle cx="142.047" cy="457.548" r="2.5" fill="rgb(146,146,146)" />
	<circle cx="30.9718" cy="378.385" r="2.5" fill="rgb(146,146,146)" />
	<circle cx="209.657" cy="396.599" r="2.5" fill="rgb(145,145,145)" />
	<circle cx="443.599" cy="387.285" r="2.5" fill="rgb(145,145,145)" />
	<circle cx="468.396" cy="228.753" r="2.5" fill="rgb(144,144,144)" />
	<circle cx="129.586" cy="191.025" r="2.5" fill="rgb(144,144,144)" />
	<circle cx="12.9012" cy="390.634" r="2.5" fill="rgb(143,143,143)" />
	<circle cx="96.5856" cy="481.921" r="2.5" fill="rgb(143,143,143)" />
	<circle cx="165.358" cy="241.822" r="2.5" fill="rgb(142,142,142)" />
	<circle cx="59.5031" cy="112.78" r="2.5" fill="rgb(142,142,142)" />
	<circle cx="145.701" cy="150.295" r="2.5" fill="rgb(141,141,141)" />
	<circle cx="137.024" cy="146.722" r="2.5" fill="rgb(141,141,141)" />
	<circle cx="104.56" cy="261.858" r="2.5" fill="rgb(141,141,141)" />
	<circle cx="217.719" cy="211.252" r="2.5" fill="rgb(141,141,141)" />
	<circle cx="105.39" cy="307.477" r="2.5" fill="rgb(141,141,141)" />
	<circle cx="103.556" cy="292.342" r="2.5" fill="rgb(140,140,140)" />
	<circle cx="236.493" cy="332.31" r="2.5" fill="rgb(140,140,140)" />
	<circle cx="6.55706" cy="391.457" r="2.5" fill="rgb(139,139,139)" />
	<circle cx="22.4267" cy="268.69" r="2.5" fill="rgb(139,139,139)" />
	<circle cx="438.549" cy="213.734" r="2.5" fill="rgb(139,139,139)" />
	<circle cx="310.815" cy="459.747" r="2.5" fill="rgb(138,138,138)" />
	<circle cx="158.972" cy="495.39" r="2.5" fill="rgb(138,138,138)" />
	<circle cx="202.21" cy="208.136" r="2.5" fill="rgb(138,138,138)" />
	<circle cx="268.499" cy="490.464" r="2.5" fill="rgb(138,138,138)" />
	<circle cx="185.19" cy="175.008" r="2.5" fill="rgb(138,138,138)" />
	<circle cx="70.1759" cy="340.159" r="2.5" fill="rgb(138,138,138)" />
	<circle cx="268.87" cy="181.745" r="2.5" fill="rgb(138,138,138)" />
	<circle cx="40.9498" cy="361.585" r="2.5" fill="rgb(137,137,137)" />
	<circle cx="425.141" cy="389.305" r="2.5" fill="rgb(137,137,137)" />
	<circle cx="244.765" cy="438.459" r="2.5" fill="rgb(136,136,136)" />
	<circle cx="1.57971" cy="397.283" r="2.5" fill="rgb(136,136,136)" />
	<circle cx="4.77698" cy="397.36" r="2.5" fill="rgb(136,136,136)" />
	<circle cx="77.331" cy="119.465" r="2.5" fill="rgb(136,136,136)" />
	<circle cx="134.922" cy="149.927" r="2.5" fill="rgb(136,136,136)" />
	<circle cx="111.516" cy="90.6289" r="2.5" fill="rgb(136,136,136)" />
	<circle cx="330.596" cy="154.179" r="2.5" fill="rgb(136,136,136)" />
	<circle cx="195.274" cy="103.961" r="2.5" fill="rgb(136,136,136)" />
	<circle cx="4.70061" cy="350.979" r="2.5" fill="rgb(135,135,135)" />
	<circle cx="92.1227" cy="211.793" r="2.5" fill="rgb(134,134,134)" />
	<circle cx="405.439" cy="266.425" r="2.5" fill="rgb(134,134,134)" />
	<circle cx="250.495" cy="440.956" r="2.5" fill="rgb(133,133,133)" />
	<circle cx="64.0446" cy="116.079" r="2.5" fill="rgb(133,133,133)" />
	<circle cx="123.889" cy="174.104" r="2.5" fill="rgb(133,133,133)" />
	<circle cx="123.541" cy="197.064" r="2.5" fill="rgb(133,133,133)" />
	<circle cx="412.664" cy="480.247" r="2.5" fill="rgb(133,133,133)" />
	<circle cx="439.286" cy="390.818" r="2.5" fill="rgb(133,133,133)" />
	<circle cx="3.9368" cy="403.428" r="2.5" fill="rgb(133,133,133)" />
	<circle cx="33.6131" cy="227.275" r="2.5" fill="rgb(132,132,132)" />
	<circle cx="165.005" cy="472.407" r="2.5" fill="rgb(132,132,132)" />
	<circle cx="134.594" cy="480.734" r="2.5" fill="rgb(132,132,132)" />
	<circle cx="291.126" cy="476.312" r="2.5" fill="rgb(132,132,132)" />
	<circle cx="216.04" cy="405.767" r="2.5" fill="rgb(131,131,131)" />
	<circle cx="125.269" cy="176.301" r="2.5" fill="rgb(130,130,130)" />
	<circle cx="70.4643" cy="102.71" r="2.5" fill="rgb(130,130,130)" />
	<circle cx="91.6578" cy="220.763" r="2.5" fill="rgb(129,129,129)" />
	<circle cx="241.046" cy="397.508" r="2.5" fill="rgb(129,129,129)" />
	<circle cx="242.527" cy="433.284" r="2.5" fill="rgb(129,129,129)" />
	<circle cx="345.426" cy="227.59" r="2.5" fill="rgb(128,128,128)" />
	<circle cx="226.437" cy="170.172" r="2.5" fill="rgb(128,128,128)" />
	<circle cx="284.413" cy="300.036" r="2.5" fill="rgb(128,128,128)" />
	<circle cx="156.312" cy="131.101" r="2.5" fill="rgb(127,127,127)" />
	<circle cx="155.319" cy="472.28" r="2.5" fill="rgb(127,127,127)" />
	<circle cx="290.886" cy="386.405" r="2.5" fill="rgb(126,126,126)" />
	<circle cx="320.347" cy="328.629" r="2.5" fill="rgb(126,126,126)" />
	<circle cx="319.179" cy="307.024" r="2.5" fill="rgb(126,126,126)" />
	<circle cx="33.5636" cy="357.588" r="2.5" fill="rgb(126,126,126)" />
	<circle cx="173.701" cy="255.94" r="2.5" fill="rgb(126,126,126)" />
	<circle cx="314.391" cy="465.521" r="2.5" fill="rgb(125,125,125)" />
	<circle cx="457.853" cy="394.897" r="2.5" fill="rgb(125,125,125)" />
	<circle cx="91.7614" cy="97.9257" r="2.5" fill="rgb(125,125,125)" />
	<circle cx="171.843" cy="428.628" r="2.5" fill="rgb(125,125,125)" />
	<circle cx="69.8545" cy="210.161" r="2.5" fill="rgb(124,124,124)" />
	<circle cx="17.3499" cy="280.252" r="2.5" fill="rgb(124,124,124)" />
	<circle cx="169.717" cy="254.48" r="2.5" fill="rgb(124,124,124)" />
	<circle cx="99.8668" cy="306.854" r="2.5" fill="rgb(123,123,123)" />
	<circle cx="96.2427" cy="146.101" r="2.5" fill="rgb(122,122,122)" />
	<circle cx="94.2809" cy="99.1185" r="2.5" fill="rgb(122,122,122)" />
	<circle cx="271.912" cy="328.231" r="2.5" fill="rgb(121,121,121)" />
	<circle cx="98.0357" cy="277.153" r="2.5" fill="rgb(121,121,121)" />
	<circle cx="179.257" cy="104.886" r="2.5" fill="rgb(121,121,121)" />
	<circle cx="210.355" cy="445.979" r="2.5" fill="rgb(120,120,120)" />
	<circle cx="229.69" cy="472.395" r="2.5" fill="rgb(120,120,120)" />
	<circle cx="186.965" cy="477.156" r="2.5" fill="rgb(120,120,120)" />
	<circle cx="134.043" cy="228.166" r="2.5" fill="rgb(119,119,119)" />
	<circle cx="113.881" cy="230.445" r="2.5" fill="rgb(118,118,118)" />
	<circle cx="300.358" cy="334.98" r="2.5" fill="rgb(118,118,118)" />
	<circle cx="385.532" cy="484.929" r="2.5" fill="rgb(118,118,118)" />
	<circle cx="244.206" cy="331.958" r="2.5" fill="rgb(118,118,118)" />
	<circle cx="95.0959" cy="278.396" r="2.5" fill="rgb(118,118,118)" />
	<circle cx="316.844" cy="407.586" r="2.5" fill="rgb(118,118,118)" />
	<circle cx="476.489" cy="241.909" r="2.5" fill="rgb(117,117,117)" />
	<circle cx="324.683" cy="230.859" r="2.5" fill="rgb(117,117,117)" />
	<circle cx="223.41" cy="272.119" r="2.5" fill="rgb(116,116,116)" />
	<circle cx="418.647" cy="266.941" r="2.5" fill="rgb(115,115,115)" />
	<circle cx="423.505" cy="222.594" r="2.5" fill="rgb(115,115,115)" />
	<circle cx="256.843" cy="198.472" r="2.5" fill="rgb(115,115,115)" />
	<circle cx="207.012" cy="455.868" r="2.5" fill="rgb(114,114,114)" />
	<circle cx="128.577" cy="145.376" r="2.5" fill="rgb(114,114,114)" />
	<circle cx="189.282" cy="236.094" r="2.5" fill="rgb(113,113,113)" />
	<circle cx="305.365" cy="227.032" r="2.5" fill="rgb(113,113,113)" />
	<circle cx="95.1054" cy="246.458" r="2.5" fill="rgb(113,113,113)" />
	<circle cx="216.16" cy="218.885" r="2.5" fill="rgb(112,112,112)" />
	<circle cx="265.077" cy="332.543" r="2.5" fill="rgb(112,112,112)" />
	<circle cx="430.615" cy="149.293" r="2.5" fill="rgb(112,112,112)" />
	<circle cx="419.814" cy="223.407" r="2.5" fill="rgb(112,112,112)" />
	<circle cx="86.5641" cy="365.973" r="2.5" fill="rgb(111,111,111)" />
	<circle cx="10.6229" cy="374.619" r="2.5" fill="rgb(111,111,111)" />
	<circle cx="293.335" cy="394.4" r="2.5" fill="rgb(110,110,110)" />
	<circle cx="92.3917" cy="297.258" r="2.5" fill="rgb(110,110,110)" />
	<circle cx="232.423" cy="419.481" r="2.5" fill="rgb(109,109,109)" />
	<circle cx="240.995" cy="445.483" r="2.5" fill="rgb(109,109,109)" />
	<circle cx="179.283" cy="112.427" r="2.5" fill="rgb(109,109,109)" />
	<circle cx="255.695" cy="209.149" r="2.5" fill="rgb(109,109,109)" />
	<circle cx="373.938" cy="421.49" r="2.5" fill="rgb(108,108,108)" />
	<circle cx="80.1436" cy="222.495" r="2.5" fill="rgb(108,108,108)" />
	<circle cx="32.3997" cy="362.197" r="2.5" fill="rgb(107,107,107)" />
	<circle cx="247.378" cy="411.338" r="2.5" fill="rgb(106,106,106)" />
	<circle cx="262.473" cy="195.63" r="2.5" fill="rgb(106,106,106)" />
	<circle cx="398.026" cy="276.5" r="2.5" fill="rgb(105,105,105)" />
	<circle cx="145.638" cy="304.168" r="2.5" fill="rgb(105,105,105)" />
	<circle cx="291.639" cy="312.416" r="2.5" fill="rgb(105,105,105)" />
	<circle cx="362.008" cy="417.711" r="2.5" fill="rgb(104,104,104)" />
	<circle cx="15.8411" cy="349.491" r="2.5" fill="rgb(104,104,104)" />
	<circle cx="479.725" cy="248.805" r="2.5" fill="rgb(104,104,104)" />
	<circle cx="139.665" cy="220.577" r="2.5" fill="rgb(103,103,103)" />
	<circle cx="321.803" cy="164.947" r="2.5" fill="rgb(103,103,103)" />
	<circle cx="330.435" cy="325.136" r="2.5" fill="rgb(102,102,102)" />
	<circle cx="437.793" cy="400.878" r="2.5" fill="rgb(101,101,101)" />
	<circle cx="66.4505" cy="348.692" r="2.5" fill="rgb(101,101,101)" />
	<circle cx="185.533" cy="276.471" r="2.5" fill="rgb(101,101,101)" />
	<circle cx="111.136" cy="111.182" r="2.5" fill="rgb(100,100,100)" />
	<circle cx="141.26" cy="186.276" r="2.5" fill="rgb(100,100,100)" />
	<circle cx="198.282" cy="256.782" r="2.5" fill="rgb(100,100,100)" />
	<circle cx="147.363" cy="147.074" r="2.5" fill="rgb(100,100,100)" />
	<circle cx="74.7335" cy="328.002" r="2.5" fill="rgb(99,99,99)" />
	<circle cx="43.5543" cy="296.225" r="2.5" fill="rgb(98,98,98)" />
	<circle cx="111.161" cy="112.913" r="2.5" fill="rgb(98,98,98)" />
	<circle cx="51.7265" cy="333.63" r="2.5" fill="rgb(98,98,98)" />
	<circle cx="276.582" cy="412.133" r="2.5" fill="rgb(98,98,98)" />
	<circle cx="422.155" cy="274.507" r="2.5" fill="rgb(97,97,97)" />
	<circle cx="82.5627" cy="324.725" r="2.5" fill="rgb(95,95,95)" />
	<circle cx="61.9474" cy="323.243" r="2.5" fill="rgb(95,95,95)" />
	<circle cx="331.113" cy="232.625" r="2.5" fill="rgb(95,95,95)" />
	<circle cx="449.117" cy="52.6139" r="2.5" fill="rgb(95,95,95)" />
	<circle cx="364.093" cy="99.2068" r="2.5" fill="rgb(94,94,94)" />
	<circle cx="180.878" cy="181.164" r="2.5" fill="rgb(94,94,94)" />
	<circle cx="141.271" cy="161.338" r="2.5" fill="rgb(94,94,94)" />
	<circle cx="104.811" cy="160.233" r="2.5" fill="rgb(93,93,93)" />
	<circle cx="135.511" cy="144.936" r="2.5" fill="rgb(93,93,93)" />
	<circle cx="369.803" cy="332.021" r="2.5" fill="rgb(92,92,92)" />
	<circle cx="492.002" cy="137.256" r="2.5" fill="rgb(92,92,92)" />
	<circle cx="117.337" cy="285.008" r="2.5" fill="rgb(92,92,92)" />
	<circle cx="497.413" cy="138.993" r="2.5" fill="rgb(92,92,92)" />
	<circle cx="176.407" cy="245.074" r="2.5" fill="rgb(92,92,92)" />
	<circle cx="339.909" cy="241.121" r="2.5" fill="rgb(92,92,92)" />
	<circle cx="315.886" cy="238.935" r="2.5" fill="rgb(91,91,91)" />
	<circle cx="300.797" cy="403.849" r="2.5" fill="rgb(91,91,91)" />
	<circle cx="185.702" cy="126.482" r="2.5" fill="rgb(91,91,91)" />
	<circle cx="417.262" cy="232.107" r="2.5" fill="rgb(91,91,91)" />
	<circle cx="278.127" cy="345.332" r="2.5" fill="rgb(91,91,91)" />
	<circle cx="74.7472" cy="297.451" r="2.5" fill="rgb(91,91,91)" />
	<circle cx="477.522" cy="254.558" r="2.5" fill="rgb(90,90,90)" />
	<circle cx="461.941" cy="253.593" r="2.5" fill="rgb(90,90,90)" />
	<circle cx="466.226" cy="41.7236" r="2.5" fill="rgb(90,90,90)" />
	<circle cx="136.612" cy="147.07" r="2.5" fill="rgb(90,90,90)" />
	<circle cx="417.676" cy="360.008" r="2.5" fill="rgb(90,90,90)" />
	<circle cx="73.6223" cy="220.54" r="2.5" fill="rgb(90,90,90)" />
	<circle cx="99.5987" cy="168.947" r="2.5" fill="rgb(89,89,89)" />
	<circle cx="424.764" cy="61.9756" r="2.5" fill="rgb(88,88,88)" />
	<circle cx="162.39" cy="165.375" r="2.5" fill="rgb(88,88,88)" />
	<circle cx="329.382" cy="235.165" r="2.5" fill="rgb(88,88,88)" />
	<circle cx="488.978" cy="179.046" r="2.5" fill="rgb(88,88,88)" />
	<circle cx="209.905" cy="286.301" r="2.5" fill="rgb(87,87,87)" />
	<circle cx="200.943" cy="281.69" r="2.5" fill="rgb(87,87,87)" />
	<circle cx="84.4788" cy="140.086" r="2.5" fill="rgb(87,87,87)" />
	<circle cx="130.874" cy="132.213" r="2.5" fill="rgb(87,87,87)" />
	<circle cx="460.002" cy="255.093" r="2.5" fill="rgb(87,87,87)" />
	<circle cx="141.101" cy="317.723" r="2.5" fill="rgb(87,87,87)" />
	<circle cx="112.079" cy="119.923" r="2.5" fill="rgb(87,87,87)" />
	<circle cx="262.832" cy="135.627" r="2.5" fill="rgb(87,87,87)" />
	<circle cx="200.68" cy="229.13" r="2.5" fill="rgb(86,86,86)" />
	<circle cx="408.816" cy="359.013" r="2.5" fill="rgb(86,86,86)" />
	<circle cx="455.894" cy="85.6883" r="2.5" fill="rgb(85,85,85)" />
	<circle cx="133.853" cy="117.645" r="2.5" fill="rgb(84,84,84)" />
	<circle cx="152.8" cy="309.951" r="2.5" fill="rgb(84,84,84)" />
	<circle cx="149.317" cy="300.883" r="2.5" fill="rgb(84,84,84)" />
	<circle cx="258.158" cy="214.122" r="2.5" fill="rgb(84,84,84)" />
	<circle cx="332.731" cy="75.9541" r="2.5" fill="rgb(84,84,84)" />
	<circle cx="342.505" cy="335.173" r="2.5" fill="rgb(82,82,82)" />
	<circle cx="459.288" cy="58.3071" r="2.5" fill="rgb(80,80,80)" />
	<circle cx="460.449" cy="183.91" r="2.5" fill="rgb(80,80,80)" />
	<circle cx="133.355" cy="212.49" r="2.5" fill="rgb(80,80,80)" />
	<circle cx="174.445" cy="288.743" r="2.5" fill="rgb(79,79,79)" />
	<circle cx="329.668" cy="327.209" r="2.5" fill="rgb(78,78,78)" />
	<circle cx="424.04" cy="238.979" r="2.5" fill="rgb(77,77,77)" />
	<circle cx="226.303" cy="192.26" r="2.5" fill="rgb(77,77,77)" />
	<circle cx="482.328" cy="261.371" r="2.5" fill="rgb(77,77,77)" />
	<circle cx="187.387" cy="284.574" r="2.5" fill="rgb(76,76,76)" />
	<circle cx="121.764" cy="146.488" r="2.5" fill="rgb(76,76,76)" />
	<circle cx="499.144" cy="186.748" r="2.5" fill="rgb(74,74,74)" />
	<circle cx="416.328" cy="47.5551" r="2.5" fill="rgb(74,74,74)" />
	<circle cx="180.015" cy="133.041" r="2.5" fill="rgb(73,73,73)" />
	<circle cx="431.508" cy="73.4512" r="2.5" fill="rgb(72,72,72)" />
	<circle cx="362" cy="339.428" r="2.5" fill="rgb(71,71,71)" />
	<circle cx="407.775" cy="240.834" r="2.5" fill="rgb(70,70,70)" />
	<circle cx="298.152" cy="168.923" r="2.5" fill="rgb(70,70,70)" />
	<circle cx="390.064" cy="40.3325" r="2.5" fill="rgb(69,69,69)" />
	<circle cx="379.31" cy="314.569" r="2.5" fill="rgb(68,68,68)" />
	<circle cx="223.158" cy="157.24" r="2.5" fill="rgb(66,66,66)" />
	<circle cx="467.156" cy="66.626" r="2.5" fill="rgb(65,65,65)" />
	<circle cx="174.223" cy="138.113" r="2.5" fill="rgb(64,64,64)" />
	<circle cx="381.096" cy="316.163" r="2.5" fill="rgb(64,64,64)" />
	<circle cx="176.157" cy="192.807" r="2.5" fill="rgb(64,64,64)" />
	<circle cx="176.036" cy="193.736" r="2.5" fill="rgb(64,64,64)" />
	<circle cx="365.701" cy="214.963" r="2.5" fill="rgb(64,64,64)" />
	<circle cx="418.957" cy="244.213" r="2.5" fill="rgb(64,64,64)" />
	<circle cx="419.709" cy="244.309" r="2.5" fill="rgb(64,64,64)" />
	<circle cx="473.382" cy="266.295" r="2.5" fill="rgb(63,63,63)" />
	<circle cx="458.618" cy="194.82" r="2.5" fill="rgb(62,62,62)" />
	<circle cx="234.488" cy="146.285" r="2.5" fill="rgb(62,62,62)" />
	<circle cx="184.815" cy="142.598" r="2.5" fill="rgb(61,61,61)" />
	<circle cx="189.592" cy="191.314" r="2.5" fill="rgb(61,61,61)" />
	<circle cx="443.222" cy="156.938" r="2.5" fill="rgb(60,60,60)" />
	<circle cx="248.233" cy="140.984" r="2.5" fill="rgb(59,59,59)" />
	<circle cx="217.232" cy="198.905" r="2.5" fill="rgb(58,58,58)" />
	<circle cx="457.217" cy="85.9026" r="2.5" fill="rgb(52,52,52)" />
	<circle cx="245.287" cy="142.794" r="2.5" fill="rgb(52,52,52)" />
	<circle cx="460.637" cy="201.765" r="2.5" fill="rgb(51,51,51)" />
	<circle cx="442.283" cy="87.3522" r="2.5" fill="rgb(51,51,51)" />
	<circle cx="466.156" cy="148.374" r="2.5" fill="rgb(49,49,49)" />
	<circle cx="236.57" cy="153.598" r="2.5" fill="rgb(48,48,48)" />
	<circle cx="421.042" cy="251.819" r="2.5" fill="rgb(47,47,47)" />
	<circle cx="384.066" cy="130.445" r="2.5" fill="rgb(46,46,46)" />
	<circle cx="389.817" cy="56.9281" r="2.5" fill="rgb(45,45,45)" />
	<circle cx="250.326" cy="148.438" r="2.5" fill="rgb(45,45,45)" />
	<circle cx="379.032" cy="125.804" r="2.5" fill="rgb(44,44,44)" />
	<circle cx="426.194" cy="134.841" r="2.5" fill="rgb(44,44,44)" />
	<circle cx="481.674" cy="147.057" r="2.5" fill="rgb(41,41,41)" />
	<circle cx="482.997" cy="148.786" r="2.5" fill="rgb(39,39,39)" />
	<circle cx="492.197" cy="219.683" r="2.5" fill="rgb(39,39,39)" />
	<circle cx="496.708" cy="210.98" r="2.5" fill="rgb(38,38,38)" />
	<circle cx="361.595" cy="225.901" r="2.5" fill="rgb(37,37,37)" />
	<circle cx="464.904" cy="128.005" r="2.5" fill="rgb(34,34,34)" />
	<circle cx="463.494" cy="212.056" r="2.5" fill="rgb(34,34,34)" />
	<circle cx="480.093" cy="162.267" r="2.5" fill="rgb(32,32,32)" />
	<circle cx="344.862" cy="202.298" r="2.5" fill="rgb(30,30,30)" />
	<circle cx="447.006" cy="104.861" r="2.5" fill="rgb(30,30,30)" />
	<circle cx="479.093" cy="93.031" r="2.5" fill="rgb(29,29,29)" />
	<circle cx="430.29" cy="163.773" r="2.5" fill="rgb(25,25,25)" />
	<circle cx="426.293" cy="92.8136" r="2.5" fill="rgb(24,24,24)" />
	<circle cx="430.507" cy="148.92" r="2.5" fill="rgb(22,22,22)" />
	<circle cx="399.255" cy="73.3795" r="2.5" fill="rgb(20,20,20)" />
	<circle cx="427.335" cy="96.5199" r="2.5" fill="rgb(19,19,19)" />
	<circle cx="468.494" cy="171.354" r="2.5" fill="rgb(17,17,17)" />
	<circle cx="401.72" cy="147.528" r="2.5" fill="rgb(17,17,17)" />
	<circle cx="497.99" cy="92.6557" r="2.5" fill="rgb(14,14,14)" />
	<circle cx="390.39" cy="142.945" r="2.5" fill="rgb(14,14,14)" />
	<circle cx="408.142" cy="76.3636" r="2.5" fill="rgb(12,12,12)" />
	<circle cx="383.679" cy="129.801" r="2.5" fill="rgb(11,11,11)" />
	<circle cx="470.178" cy="91.5164" r="2.5" fill="rgb(9,9,9)" />
	<circle cx="456.387" cy="89.5289" r="2.5" fill="rgb(7,7,7)" />
	<circle cx="435.552" cy="105.734" r="2.5" fill="rgb(4,4,4)" />
	<circle cx="416.667" cy="83.3333" r="2" fill="rgb(255,0,0)" />
	<circle cx="83.3333" cy="416.667" r="2" fill="rgb(0,255,0)" />
	<circle cx="416.667" cy="83.3333" r="2" fill="rgb(0,255,0)" />
	<circle cx="369.952" cy="136.508" r="2" fill="rgb(0,255,0)" />
	<circle cx="349.591" cy="158.229" r="2" fill="rgb(0,255,0)" />
	<circle cx="313.634" cy="206.847" r="2" fill="rgb(0,255,0)" />
	<circle cx="311.51" cy="204.721" r="2" fill="rgb(0,255,0)" />
	<circle cx="195.877" cy="266.143" r="2" fill="rgb(0,255,0)" />
	<circle cx="131.296" cy="288.14" r="2" fill="rgb(0,255,0)" />
	<circle cx="79.6423" cy="406.821" r="2" fill="rgb(0,255,0)" />
	<circle cx="81.4157" cy="420.87" r="2" fill="rgb(0,255,0)" />
</svg>
