<?xml version="1.0" standalone="no" ?>
<!DOCTYPE svg PUBLIC "-//W3C//DTD SVG 1.1//EN" "http://www.w3.org/Graphics/SVG/1.1/DTD/svg11.dtd">
<svg width="500px" height="500px" xmlns="http://www.w3.org/2000/svg" version="1.1" >
	<polyline points="416.667,83.3333 408.142,76.3636 " fill="transparent" stroke-width="0.5" stroke="rgb(0,0,255)" />
	<polyline points="408.142,76.3636 399.255,73.3795 " fill="transparent" stroke-width="0.5" stroke="rgb(0,0,255)" />
	<polyline points="399.255,73.3795 389.817,56.9281 " fill="transparent" stroke-width="0.5" stroke="rgb(0,0,255)" />
	<polyline points="389.817,56.9281 390.064,40.3325 " fill="transparent" stroke-width="0.5" stroke="rgb(0,0,255)" />
	<polyline points="390.064,40.3325 332.731,75.9541 " fill="transparent" stroke-width="0.5" stroke="rgb(0,0,255)" />
	<polyline points="332.731,75.9541 364.093,99.2068 " fill="transparent" stroke-width="0.5" stroke="rgb(0,0,255)" />
	<polyline points="332.731,75.9541 430.615,149.293 " fill="transparent" stroke-width="0.5" stroke="rgb(0,0,255)" />
	<polyline points="390.064,40.3325 497.413,138.993 " fill="transparent" stroke-width="0.5" stroke="rgb(0,0,255)" />
	<polyline points="390.064,40.3325 416.328,47.5551 " fill="transparent" stroke-width="0.5" stroke="rgb(0,0,255)" />
	<polyline points="416.328,47.5551 492.002,137.256 " fill="transparent" stroke-width="0.5" stroke="rgb(0,0,255)" />
	<polyline points="399.255,73.3795 447.006,104.861 " fill="transparent" stroke-width="0.5" stroke="rgb(0,0,255)" />
	<polyline points="447.006,104.861 464.904,128.005 " fill="transparent" stroke-width="0.5" stroke="rgb(0,0,255)" />
	<polyline points="447.006,104.861 442.283,87.3522 " fill="transparent" stroke-width="0.5" stroke="rgb(0,0,255)" />
	<polyline points="442.283,87.3522 431.508,73.4512 " fill="transparent" stroke-width="0.5" stroke="rgb(0,0,255)" />
	<polyline points="431.508,73.4512 424.764,61.9756 " fill="transparent" stroke-width="0.5" stroke="rgb(0,0,255)" />
	<polyline points="416.667,83.3333 456.387,89.5289 " fill="transparent" stroke-width="0.5" stroke="rgb(0,0,255)" />
	<polyline points="456.387,89.5289 470.178,91.5164 " fill="transparent" stroke-width="0.5" stroke="rgb(0,0,255)" />
	<polyline points="416.667,83.3333 497.99,92.6557 " fill="transparent" stroke-width="0.5" stroke="rgb(0,0,255)" />
	<polyline points="497.99,92.6557 479.093,93.031 " fill="transparent" stroke-width="0.5" stroke="rgb(0,0,255)" />
	<polyline points="479.093,93.031 457.217,85.9026 " fill="transparent" stroke-width="0.5" stroke="rgb(0,0,255)" />
	<polyline points="457.217,85.9026 467.156,66.626 " fill="transparent" stroke-width="0.5" stroke="rgb(0,0,255)" />
	<polyline points="467.156,66.626 459.288,58.3071 " fill="transparent" stroke-width="0.5" stroke="rgb(0,0,255)" />
	<polyline points="459.288,58.3071 449.117,52.6139 " fill="transparent" stroke-width="0.5" stroke="rgb(0,0,255)" />
	<polyline points="459.288,58.3071 466.226,41.7236 " fill="transparent" stroke-width="0.5" stroke="rgb(0,0,255)" />
	<polyline points="459.288,58.3071 455.894,85.6883 " fill="transparent" stroke-width="0.5" stroke="rgb(0,0,255)" />
	<polyline points="416.667,83.3333 435.552,105.734 " fill="transparent" stroke-width="0.5" stroke="rgb(0,0,255)" />
	<polyline points="435.552,105.734 426.293,92.8136 " fill="transparent" stroke-width="0.5" stroke="rgb(0,0,255)" />
	<polyline points="435.552,105.734 427.335,96.5199 " fill="transparent" stroke-width="0.5" stroke="rgb(0,0,255)" />
	<polyline points="435.552,105.734 468.494,171.354 " fill="transparent" stroke-width="0.5" stroke="rgb(0,0,255)" />
	<polyline points="468.494,171.354 482.997,148.786 " fill="transparent" stroke-width="0.5" stroke="rgb(0,0,255)" />
	<polyline points="482.997,148.786 481.674,147.057 " fill="transparent" stroke-width="0.5" stroke="rgb(0,0,255)" />
	<polyline points="482.997,148.786 466.156,148.374 " fill="transparent" stroke-width="0.5" stroke="rgb(0,0,255)" />
	<polyline points="416.667,83.3333 383.679,129.801 " fill="transparent" stroke-width="0.5" stroke="rgb(0,0,255)" />
	<polyline points="383.679,129.801 430.507,148.92 " fill="transparent" stroke-width="0.5" stroke="rgb(0,0,255)" />
	<polyline points="430.507,148.92 426.194,134.841 " fill="transparent" stroke-width="0.5" stroke="rgb(0,0,255)" />
	<polyline points="430.507,148.92 430.29,163.773 " fill="transparent" stroke-width="0.5" stroke="rgb(0,0,255)" />
	<polyline points="430.507,148.92 480.093,162.267 " fill="transparent" stroke-width="0.5" stroke="rgb(0,0,255)" />
	<polyline points="383.679,129.801 496.708,210.98 " fill="transparent" stroke-width="0.5" stroke="rgb(0,0,255)" />
	<polyline points="383.679,129.801 390.39,142.945 " fill="transparent" stroke-width="0.5" stroke="rgb(0,0,255)" />
	<polyline points="390.39,142.945 344.862,202.298 " fill="transparent" stroke-width="0.5" stroke="rgb(0,0,255)" />
	<polyline points="344.862,202.298 361.595,225.901 " fill="transparent" stroke-width="0.5" stroke="rgb(0,0,255)" />
	<polyline points="361.595,225.901 365.701,214.963 " fill="transparent" stroke-width="0.5" stroke="rgb(0,0,255)" />
	<polyline points="390.39,142.945 379.032,125.804 " fill="transparent" stroke-width="0.5" stroke="rgb(0,0,255)" />
	<polyline points="390.39,142.945 401.72,147.528 " fill="transparent" stroke-width="0.5" stroke="rgb(0,0,255)" />
	<polyline points="401.72,147.528 384.066,130.445 " fill="transparent" stroke-width="0.5" stroke="rgb(0,0,255)" />
	<polyline points="384.066,130.445 443.222,156.938 " fill="transparent" stroke-width="0.5" stroke="rgb(0,0,255)" />
	<polyline points="383.679,129.801 492.197,219.683 " fill="transparent" stroke-width="0.5" stroke="rgb(0,0,255)" />
	<polyline points="383.679,129.801 250.326,148.438 " fill="transparent" stroke-width="0.5" stroke="rgb(0,0,255)" />
	<polyline points="250.326,148.438 236.57,153.598 " fill="transparent" stroke-width="0.5" stroke="rgb(0,0,255)" />
	<polyline points="250.326,148.438 184.815,142.598 " fill="transparent" stroke-width="0.5" stroke="rgb(0,0,255)" />
	<polyline points="184.815,142.598 180.015,133.041 " fill="transparent" stroke-width="0.5" stroke="rgb(0,0,255)" />
	<polyline points="250.326,148.438 245.287,142.794 " fill="transparent" stroke-width="0.5" stroke="rgb(0,0,255)" />
	<polyline points="245.287,142.794 248.233,140.984 " fill="transparent" stroke-width="0.5" stroke="rgb(0,0,255)" />
	<polyline points="248.233,140.984 262.832,135.627 " fill="transparent" stroke-width="0.5" stroke="rgb(0,0,255)" />
	<polyline points="248.233,140.984 234.488,146.285 " fill="transparent" stroke-width="0.5" stroke="rgb(0,0,255)" />
	<polyline points="248.233,140.984 223.158,157.24 " fill="transparent" stroke-width="0.5" stroke="rgb(0,0,255)" />
	<polyline points="245.287,142.794 133.355,212.49 " fill="transparent" stroke-width="0.5" stroke="rgb(0,0,255)" />
	<polyline points="250.326,148.438 174.223,138.113 " fill="transparent" stroke-width="0.5" stroke="rgb(0,0,255)" />
	<polyline points="174.223,138.113 185.702,126.482 " fill="transparent" stroke-width="0.5" stroke="rgb(0,0,255)" />
	<polyline points="185.702,126.482 179.283,112.427 " fill="transparent" stroke-width="0.5" stroke="rgb(0,0,255)" />
	<polyline points="179.283,112.427 179.257,104.886 " fill="transparent" stroke-width="0.5" stroke="rgb(0,0,255)" />
	<polyline points="179.283,112.427 92.1227,211.793 " fill="transparent" stroke-width="0.5" stroke="rgb(0,0,255)" />
	<polyline points="179.283,112.427 195.274,103.961 " fill="transparent" stroke-width="0.5" stroke="rgb(0,0,255)" />
	<polyline points="185.702,126.482 147.363,147.074 " fill="transparent" stroke-width="0.5" stroke="rgb(0,0,255)" />
	<polyline points="147.363,147.074 156.312,131.101 " fill="transparent" stroke-width="0.5" stroke="rgb(0,0,255)" />
	<polyline points="174.223,138.113 121.764,146.488 " fill="transparent" stroke-width="0.5" stroke="rgb(0,0,255)" />
	<polyline points="174.223,138.113 84.4788,140.086 " fill="transparent" stroke-width="0.5" stroke="rgb(0,0,255)" />
	<polyline points="84.4788,140.086 104.811,160.233 " fill="transparent" stroke-width="0.5" stroke="rgb(0,0,255)" />
	<polyline points="174.223,138.113 133.853,117.645 " fill="transparent" stroke-width="0.5" stroke="rgb(0,0,255)" />
	<polyline points="133.853,117.645 136.612,147.07 " fill="transparent" stroke-width="0.5" stroke="rgb(0,0,255)" />
	<polyline points="136.612,147.07 135.511,144.936 " fill="transparent" stroke-width="0.5" stroke="rgb(0,0,255)" />
	<polyline points="133.853,117.645 130.874,132.213 " fill="transparent" stroke-width="0.5" stroke="rgb(0,0,255)" />
	<polyline points="133.853,117.645 139.665,220.577 " fill="transparent" stroke-width="0.5" stroke="rgb(0,0,255)" />
	<polyline points="174.223,138.113 112.079,119.923 " fill="transparent" stroke-width="0.5" stroke="rgb(0,0,255)" />
	<polyline points="112.079,119.923 111.161,112.913 " fill="transparent" stroke-width="0.5" stroke="rgb(0,0,255)" />
	<polyline points="111.161,112.913 111.136,111.182 " fill="transparent" stroke-width="0.5" stroke="rgb(0,0,255)" />
	<polyline points="111.136,111.182 94.2809,99.1185 " fill="transparent" stroke-width="0.5" stroke="rgb(0,0,255)" />
	<polyline points="94.2809,99.1185 91.7614,97.9257 " fill="transparent" stroke-width="0.5" stroke="rgb(0,0,255)" />
	<polyline points="94.2809,99.1185 70.4643,102.71 " fill="transparent" stroke-width="0.5" stroke="rgb(0,0,255)" />
	<polyline points="70.4643,102.71 64.0446,116.079 " fill="transparent" stroke-width="0.5" stroke="rgb(0,0,255)" />
	<polyline points="64.0446,116.079 59.5031,112.78 " fill="transparent" stroke-width="0.5" stroke="rgb(0,0,255)" />
	<polyline points="59.5031,112.78 98.0863,129.552 " fill="transparent" stroke-width="0.5" stroke="rgb(0,0,255)" />
	<polyline points="64.0446,116.079 77.331,119.465 " fill="transparent" stroke-width="0.5" stroke="rgb(0,0,255)" />
	<polyline points="70.4643,102.71 64.489,92.6217 " fill="transparent" stroke-width="0.5" stroke="rgb(0,0,255)" />
	<polyline points="64.489,92.6217 123.597,132.378 " fill="transparent" stroke-width="0.5" stroke="rgb(0,0,255)" />
	<polyline points="64.489,92.6217 153.837,155.218 " fill="transparent" stroke-width="0.5" stroke="rgb(0,0,255)" />
	<polyline points="94.2809,99.1185 111.516,90.6289 " fill="transparent" stroke-width="0.5" stroke="rgb(0,0,255)" />
	<polyline points="111.516,90.6289 133.653,221.496 " fill="transparent" stroke-width="0.5" stroke="rgb(0,0,255)" />
	<polyline points="111.516,90.6289 116.67,83.8698 " fill="transparent" stroke-width="0.5" stroke="rgb(0,0,255)" />
	<polyline points="116.67,83.8698 120.764,75.3906 " fill="transparent" stroke-width="0.5" stroke="rgb(0,0,255)" />
	<polyline points="116.67,83.8698 111.406,82.8493 " fill="transparent" stroke-width="0.5" stroke="rgb(0,0,255)" />
	<polyline points="111.516,90.6289 142.358,88.0221 " fill="transparent" stroke-width="0.5" stroke="rgb(0,0,255)" />
	<polyline points="142.358,88.0221 158.537,81.8915 " fill="transparent" stroke-width="0.5" stroke="rgb(0,0,255)" />
	<polyline points="158.537,81.8915 163.354,74.2691 " fill="transparent" stroke-width="0.5" stroke="rgb(0,0,255)" />
	<polyline points="158.537,81.8915 112.606,157.822 " fill="transparent" stroke-width="0.5" stroke="rgb(0,0,255)" />
	<polyline points="158.537,81.8915 133.004,118.171 " fill="transparent" stroke-width="0.5" stroke="rgb(0,0,255)" />
	<polyline points="133.004,118.171 96.4037,182.178 " fill="transparent" stroke-width="0.5" stroke="rgb(0,0,255)" />
	<polyline points="111.516,90.6289 115.359,150.182 " fill="transparent" stroke-width="0.5" stroke="rgb(0,0,255)" />
	<polyline points="111.161,112.913 134.043,228.166 " fill="transparent" stroke-width="0.5" stroke="rgb(0,0,255)" />
	<polyline points="112.079,119.923 189.282,236.094 " fill="transparent" stroke-width="0.5" stroke="rgb(0,0,255)" />
	<polyline points="112.079,119.923 141.26,186.276 " fill="transparent" stroke-width="0.5" stroke="rgb(0,0,255)" />
	<polyline points="174.223,138.113 73.6223,220.54 " fill="transparent" stroke-width="0.5" stroke="rgb(0,0,255)" />
	<polyline points="250.326,148.438 217.232,198.905 " fill="transparent" stroke-width="0.5" stroke="rgb(0,0,255)" />
	<polyline points="217.232,198.905 226.303,192.26 " fill="transparent" stroke-width="0.5" stroke="rgb(0,0,255)" />
	<polyline points="226.303,192.26 262.473,195.63 " fill="transparent" stroke-width="0.5" stroke="rgb(0,0,255)" />
	<polyline points="262.473,195.63 255.695,209.149 " fill="transparent" stroke-width="0.5" stroke="rgb(0,0,255)" />
	<polyline points="262.473,195.63 268.87,181.745 " fill="transparent" stroke-width="0.5" stroke="rgb(0,0,255)" />
	<polyline points="268.87,181.745 222.156,276.216 " fill="transparent" stroke-width="0.5" stroke="rgb(0,0,255)" />
	<polyline points="226.303,192.26 200.68,229.13 " fill="transparent" stroke-width="0.5" stroke="rgb(0,0,255)" />
	<polyline points="200.68,229.13 216.16,218.885 " fill="transparent" stroke-width="0.5" stroke="rgb(0,0,255)" />
	<polyline points="216.16,218.885 169.717,254.48 " fill="transparent" stroke-width="0.5" stroke="rgb(0,0,255)" />
	<polyline points="200.68,229.13 92.3917,297.258 " fill="transparent" stroke-width="0.5" stroke="rgb(0,0,255)" />
	<polyline points="200.68,229.13 176.407,245.074 " fill="transparent" stroke-width="0.5" stroke="rgb(0,0,255)" />
	<polyline points="250.326,148.438 298.152,168.923 " fill="transparent" stroke-width="0.5" stroke="rgb(0,0,255)" />
	<polyline points="298.152,168.923 258.158,214.122 " fill="transparent" stroke-width="0.5" stroke="rgb(0,0,255)" />
	<polyline points="258.158,214.122 256.843,198.472 " fill="transparent" stroke-width="0.5" stroke="rgb(0,0,255)" />
	<polyline points="258.158,214.122 198.282,256.782 " fill="transparent" stroke-width="0.5" stroke="rgb(0,0,255)" />
	<polyline points="298.152,168.923 321.803,164.947 " fill="transparent" stroke-width="0.5" stroke="rgb(0,0,255)" />
	<polyline points="321.803,164.947 226.437,170.172 " fill="transparent" stroke-width="0.5" stroke="rgb(0,0,255)" />
	<polyline points="226.437,170.172 135.865,214.967 " fill="transparent" stroke-width="0.5" stroke="rgb(0,0,255)" />
	<polyline points="226.437,170.172 202.21,208.136 " fill="transparent" stroke-width="0.5" stroke="rgb(0,0,255)" />
	<polyline points="226.437,170.172 185.19,175.008 " fill="transparent" stroke-width="0.5" stroke="rgb(0,0,255)" />
	<polyline points="321.803,164.947 330.596,154.179 " fill="transparent" stroke-width="0.5" stroke="rgb(0,0,255)" />
	<polyline points="330.596,154.179 329.484,139.943 " fill="transparent" stroke-width="0.5" stroke="rgb(0,0,255)" />
	<polyline points="298.152,168.923 329.382,235.165 " fill="transparent" stroke-width="0.5" stroke="rgb(0,0,255)" />
	<polyline points="329.382,235.165 331.113,232.625 " fill="transparent" stroke-width="0.5" stroke="rgb(0,0,255)" />
	<polyline points="329.382,235.165 339.909,241.121 " fill="transparent" stroke-width="0.5" stroke="rgb(0,0,255)" />
	<polyline points="339.909,241.121 345.426,227.59 " fill="transparent" stroke-width="0.5" stroke="rgb(0,0,255)" />
	<polyline points="329.382,235.165 315.886,238.935 " fill="transparent" stroke-width="0.5" stroke="rgb(0,0,255)" />
	<polyline points="315.886,238.935 324.683,230.859 " fill="transparent" stroke-width="0.5" stroke="rgb(0,0,255)" />
	<polyline points="315.886,238.935 305.365,227.032 " fill="transparent" stroke-width="0.5" stroke="rgb(0,0,255)" />
	<polyline points="305.365,227.032 217.719,211.252 " fill="transparent" stroke-width="0.5" stroke="rgb(0,0,255)" />
	<polyline points="250.326,148.438 187.387,284.574 " fill="transparent" stroke-width="0.5" stroke="rgb(0,0,255)" />
	<polyline points="187.387,284.574 200.943,281.69 " fill="transparent" stroke-width="0.5" stroke="rgb(0,0,255)" />
	<polyline points="187.387,284.574 209.905,286.301 " fill="transparent" stroke-width="0.5" stroke="rgb(0,0,255)" />
	<polyline points="209.905,286.301 223.41,272.119 " fill="transparent" stroke-width="0.5" stroke="rgb(0,0,255)" />
	<polyline points="187.387,284.574 149.317,300.883 " fill="transparent" stroke-width="0.5" stroke="rgb(0,0,255)" />
	<polyline points="187.387,284.574 66.4505,348.692 " fill="transparent" stroke-width="0.5" stroke="rgb(0,0,255)" />
	<polyline points="187.387,284.574 117.337,285.008 " fill="transparent" stroke-width="0.5" stroke="rgb(0,0,255)" />
	<polyline points="187.387,284.574 74.7335,328.002 " fill="transparent" stroke-width="0.5" stroke="rgb(0,0,255)" />
	<polyline points="187.387,284.574 174.445,288.743 " fill="transparent" stroke-width="0.5" stroke="rgb(0,0,255)" />
	<polyline points="174.445,288.743 185.533,276.471 " fill="transparent" stroke-width="0.5" stroke="rgb(0,0,255)" />
	<polyline points="185.533,276.471 173.701,255.94 " fill="transparent" stroke-width="0.5" stroke="rgb(0,0,255)" />
	<polyline points="173.701,255.94 165.358,241.822 " fill="transparent" stroke-width="0.5" stroke="rgb(0,0,255)" />
	<polyline points="173.701,255.94 105.39,307.477 " fill="transparent" stroke-width="0.5" stroke="rgb(0,0,255)" />
	<polyline points="187.387,284.574 152.8,309.951 " fill="transparent" stroke-width="0.5" stroke="rgb(0,0,255)" />
	<polyline points="152.8,309.951 141.101,317.723 " fill="transparent" stroke-width="0.5" stroke="rgb(0,0,255)" />
	<polyline points="141.101,317.723 145.638,304.168 " fill="transparent" stroke-width="0.5" stroke="rgb(0,0,255)" />
	<polyline points="152.8,309.951 32.3997,362.197 " fill="transparent" stroke-width="0.5" stroke="rgb(0,0,255)" />
	<polyline points="250.326,148.438 189.592,191.314 " fill="transparent" stroke-width="0.5" stroke="rgb(0,0,255)" />
	<polyline points="189.592,191.314 99.5987,168.947 " fill="transparent" stroke-width="0.5" stroke="rgb(0,0,255)" />
	<polyline points="189.592,191.314 176.157,192.807 " fill="transparent" stroke-width="0.5" stroke="rgb(0,0,255)" />
	<polyline points="189.592,191.314 162.39,165.375 " fill="transparent" stroke-width="0.5" stroke="rgb(0,0,255)" />
	<polyline points="162.39,165.375 180.878,181.164 " fill="transparent" stroke-width="0.5" stroke="rgb(0,0,255)" />
	<polyline points="162.39,165.375 80.1436,222.495 " fill="transparent" stroke-width="0.5" stroke="rgb(0,0,255)" />
	<polyline points="80.1436,222.495 113.881,230.445 " fill="transparent" stroke-width="0.5" stroke="rgb(0,0,255)" />
	<polyline points="80.1436,222.495 95.1054,246.458 " fill="transparent" stroke-width="0.5" stroke="rgb(0,0,255)" />
	<polyline points="80.1436,222.495 95.0959,278.396 " fill="transparent" stroke-width="0.5" stroke="rgb(0,0,255)" />
	<polyline points="95.0959,278.396 98.0357,277.153 " fill="transparent" stroke-width="0.5" stroke="rgb(0,0,255)" />
	<polyline points="98.0357,277.153 104.56,261.858 " fill="transparent" stroke-width="0.5" stroke="rgb(0,0,255)" />
	<polyline points="80.1436,222.495 69.8545,210.161 " fill="transparent" stroke-width="0.5" stroke="rgb(0,0,255)" />
	<polyline points="69.8545,210.161 26.6187,198.277 " fill="transparent" stroke-width="0.5" stroke="rgb(0,0,255)" />
	<polyline points="26.6187,198.277 39.6672,196.029 " fill="transparent" stroke-width="0.5" stroke="rgb(0,0,255)" />
	<polyline points="26.6187,198.277 7.46637,195.662 " fill="transparent" stroke-width="0.5" stroke="rgb(0,0,255)" />
	<polyline points="7.46637,195.662 3.71428,187.539 " fill="transparent" stroke-width="0.5" stroke="rgb(0,0,255)" />
	<polyline points="26.6187,198.277 67.5209,237.651 " fill="transparent" stroke-width="0.5" stroke="rgb(0,0,255)" />
	<polyline points="26.6187,198.277 37.8114,207.396 " fill="transparent" stroke-width="0.5" stroke="rgb(0,0,255)" />
	<polyline points="37.8114,207.396 29.5169,310.198 " fill="transparent" stroke-width="0.5" stroke="rgb(0,0,255)" />
	<polyline points="29.5169,310.198 40.9384,299.004 " fill="transparent" stroke-width="0.5" stroke="rgb(0,0,255)" />
	<polyline points="26.6187,198.277 19.1414,330.548 " fill="transparent" stroke-width="0.5" stroke="rgb(0,0,255)" />
	<polyline points="69.8545,210.161 33.6131,227.275 " fill="transparent" stroke-width="0.5" stroke="rgb(0,0,255)" />
	<polyline points="33.6131,227.275 33.8965,213.35 " fill="transparent" stroke-width="0.5" stroke="rgb(0,0,255)" />
	<polyline points="69.8545,210.161 91.6578,220.763 " fill="transparent" stroke-width="0.5" stroke="rgb(0,0,255)" />
	<polyline points="91.6578,220.763 98.0459,204.529 " fill="transparent" stroke-width="0.5" stroke="rgb(0,0,255)" />
	<polyline points="80.1436,222.495 17.3499,280.252 " fill="transparent" stroke-width="0.5" stroke="rgb(0,0,255)" />
	<polyline points="17.3499,280.252 40.9498,361.585 " fill="transparent" stroke-width="0.5" stroke="rgb(0,0,255)" />
	<polyline points="40.9498,361.585 12.9012,390.634 " fill="transparent" stroke-width="0.5" stroke="rgb(0,0,255)" />
	<polyline points="17.3499,280.252 22.4267,268.69 " fill="transparent" stroke-width="0.5" stroke="rgb(0,0,255)" />
	<polyline points="22.4267,268.69 3.10174,256.863 " fill="transparent" stroke-width="0.5" stroke="rgb(0,0,255)" />
	<polyline points="17.3499,280.252 4.70061,350.979 " fill="transparent" stroke-width="0.5" stroke="rgb(0,0,255)" />
	<polyline points="17.3499,280.252 70.1759,340.159 " fill="transparent" stroke-width="0.5" stroke="rgb(0,0,255)" />
	<polyline points="70.1759,340.159 30.9718,378.385 " fill="transparent" stroke-width="0.5" stroke="rgb(0,0,255)" />
	<polyline points="30.9718,378.385 24.1571,361.336 " fill="transparent" stroke-width="0.5" stroke="rgb(0,0,255)" />
	<polyline points="30.9718,378.385 41.2485,363.896 " fill="transparent" stroke-width="0.5" stroke="rgb(0,0,255)" />
	<polyline points="30.9718,378.385 39.2929,358.092 " fill="transparent" stroke-width="0.5" stroke="rgb(0,0,255)" />
	<polyline points="80.1436,222.495 99.8668,306.854 " fill="transparent" stroke-width="0.5" stroke="rgb(0,0,255)" />
	<polyline points="99.8668,306.854 103.556,292.342 " fill="transparent" stroke-width="0.5" stroke="rgb(0,0,255)" />
	<polyline points="162.39,165.375 141.271,161.338 " fill="transparent" stroke-width="0.5" stroke="rgb(0,0,255)" />
	<polyline points="141.271,161.338 128.577,145.376 " fill="transparent" stroke-width="0.5" stroke="rgb(0,0,255)" />
	<polyline points="128.577,145.376 96.2427,146.101 " fill="transparent" stroke-width="0.5" stroke="rgb(0,0,255)" />
	<polyline points="96.2427,146.101 134.922,149.927 " fill="transparent" stroke-width="0.5" stroke="rgb(0,0,255)" />
	<polyline points="134.922,149.927 137.024,146.722 " fill="transparent" stroke-width="0.5" stroke="rgb(0,0,255)" />
	<polyline points="96.2427,146.101 123.541,197.064 " fill="transparent" stroke-width="0.5" stroke="rgb(0,0,255)" />
	<polyline points="123.541,197.064 129.586,191.025 " fill="transparent" stroke-width="0.5" stroke="rgb(0,0,255)" />
	<polyline points="129.586,191.025 128.771,188.873 " fill="transparent" stroke-width="0.5" stroke="rgb(0,0,255)" />
	<polyline points="96.2427,146.101 145.701,150.295 " fill="transparent" stroke-width="0.5" stroke="rgb(0,0,255)" />
	<polyline points="96.2427,146.101 125.269,176.301 " fill="transparent" stroke-width="0.5" stroke="rgb(0,0,255)" />
	<polyline points="125.269,176.301 123.889,174.104 " fill="transparent" stroke-width="0.5" stroke="rgb(0,0,255)" />
	<polyline points="189.592,191.314 176.036,193.736 " fill="transparent" stroke-width="0.5" stroke="rgb(0,0,255)" />
	<polyline points="176.036,193.736 74.7472,297.451 " fill="transparent" stroke-width="0.5" stroke="rgb(0,0,255)" />
	<polyline points="74.7472,297.451 51.7265,333.63 " fill="transparent" stroke-width="0.5" stroke="rgb(0,0,255)" />
	<polyline points="74.7472,297.451 82.5627,324.725 " fill="transparent" stroke-width="0.5" stroke="rgb(0,0,255)" />
	<polyline points="74.7472,297.451 61.9474,323.243 " fill="transparent" stroke-width="0.5" stroke="rgb(0,0,255)" />
	<polyline points="61.9474,323.243 15.8411,349.491 " fill="transparent" stroke-width="0.5" stroke="rgb(0,0,255)" />
	<polyline points="74.7472,297.451 43.5543,296.225 " fill="transparent" stroke-width="0.5" stroke="rgb(0,0,255)" />
	<polyline points="43.5543,296.225 86.5641,365.973 " fill="transparent" stroke-width="0.5" stroke="rgb(0,0,255)" />
	<polyline points="43.5543,296.225 10.6229,374.619 " fill="transparent" stroke-width="0.5" stroke="rgb(0,0,255)" />
	<polyline points="10.6229,374.619 33.5636,357.588 " fill="transparent" stroke-width="0.5" stroke="rgb(0,0,255)" />
	<polyline points="33.5636,357.588 3.9368,403.428 " fill="transparent" stroke-width="0.5" stroke="rgb(0,0,255)" />
	<polyline points="3.9368,403.428 4.77698,397.36 " fill="transparent" stroke-width="0.5" stroke="rgb(0,0,255)" />
	<polyline points="3.9368,403.428 6.55706,391.457 " fill="transparent" stroke-width="0.5" stroke="rgb(0,0,255)" />
	<polyline points="3.9368,403.428 1.57971,397.283 " fill="transparent" stroke-width="0.5" stroke="rgb(0,0,255)" />
	<polyline points="383.679,129.801 463.494,212.056 " fill="transparent" stroke-width="0.5" stroke="rgb(0,0,255)" />
	<polyline points="463.494,212.056 460.637,201.765 " fill="transparent" stroke-width="0.5" stroke="rgb(0,0,255)" />
	<polyline points="460.637,201.765 458.618,194.82 " fill="transparent" stroke-width="0.5" stroke="rgb(0,0,255)" />
	<polyline points="458.618,194.82 460.449,183.91 " fill="transparent" stroke-width="0.5" stroke="rgb(0,0,255)" />
	<polyline points="460.637,201.765 499.144,186.748 " fill="transparent" stroke-width="0.5" stroke="rgb(0,0,255)" />
	<polyline points="499.144,186.748 488.978,179.046 " fill="transparent" stroke-width="0.5" stroke="rgb(0,0,255)" />
	<polyline points="463.494,212.056 421.042,251.819 " fill="transparent" stroke-width="0.5" stroke="rgb(0,0,255)" />
	<polyline points="421.042,251.819 424.04,238.979 " fill="transparent" stroke-width="0.5" stroke="rgb(0,0,255)" />
	<polyline points="421.042,251.819 419.709,244.309 " fill="transparent" stroke-width="0.5" stroke="rgb(0,0,255)" />
	<polyline points="421.042,251.819 418.957,244.213 " fill="transparent" stroke-width="0.5" stroke="rgb(0,0,255)" />
	<polyline points="418.957,244.213 407.775,240.834 " fill="transparent" stroke-width="0.5" stroke="rgb(0,0,255)" />
	<polyline points="418.957,244.213 417.262,232.107 " fill="transparent" stroke-width="0.5" stroke="rgb(0,0,255)" />
	<polyline points="417.262,232.107 419.814,223.407 " fill="transparent" stroke-width="0.5" stroke="rgb(0,0,255)" />
	<polyline points="419.814,223.407 423.505,222.594 " fill="transparent" stroke-width="0.5" stroke="rgb(0,0,255)" />
	<polyline points="423.505,222.594 438.549,213.734 " fill="transparent" stroke-width="0.5" stroke="rgb(0,0,255)" />
	<polyline points="421.042,251.819 381.096,316.163 " fill="transparent" stroke-width="0.5" stroke="rgb(0,0,255)" />
	<polyline points="381.096,316.163 379.31,314.569 " fill="transparent" stroke-width="0.5" stroke="rgb(0,0,255)" />
	<polyline points="381.096,316.163 329.668,327.209 " fill="transparent" stroke-width="0.5" stroke="rgb(0,0,255)" />
	<polyline points="329.668,327.209 240.995,445.483 " fill="transparent" stroke-width="0.5" stroke="rgb(0,0,255)" />
	<polyline points="240.995,445.483 210.355,445.979 " fill="transparent" stroke-width="0.5" stroke="rgb(0,0,255)" />
	<polyline points="240.995,445.483 242.527,433.284 " fill="transparent" stroke-width="0.5" stroke="rgb(0,0,255)" />
	<polyline points="329.668,327.209 278.127,345.332 " fill="transparent" stroke-width="0.5" stroke="rgb(0,0,255)" />
	<polyline points="278.127,345.332 300.358,334.98 " fill="transparent" stroke-width="0.5" stroke="rgb(0,0,255)" />
	<polyline points="278.127,345.332 271.912,328.231 " fill="transparent" stroke-width="0.5" stroke="rgb(0,0,255)" />
	<polyline points="278.127,345.332 265.077,332.543 " fill="transparent" stroke-width="0.5" stroke="rgb(0,0,255)" />
	<polyline points="265.077,332.543 244.206,331.958 " fill="transparent" stroke-width="0.5" stroke="rgb(0,0,255)" />
	<polyline points="329.668,327.209 291.639,312.416 " fill="transparent" stroke-width="0.5" stroke="rgb(0,0,255)" />
	<polyline points="291.639,312.416 250.495,440.956 " fill="transparent" stroke-width="0.5" stroke="rgb(0,0,255)" />
	<polyline points="291.639,312.416 284.413,300.036 " fill="transparent" stroke-width="0.5" stroke="rgb(0,0,255)" />
	<polyline points="284.413,300.036 215.754,353.368 " fill="transparent" stroke-width="0.5" stroke="rgb(0,0,255)" />
	<polyline points="284.413,300.036 284.5,290.426 " fill="transparent" stroke-width="0.5" stroke="rgb(0,0,255)" />
	<polyline points="284.413,300.036 236.493,332.31 " fill="transparent" stroke-width="0.5" stroke="rgb(0,0,255)" />
	<polyline points="236.493,332.31 234.635,328.539 " fill="transparent" stroke-width="0.5" stroke="rgb(0,0,255)" />
	<polyline points="236.493,332.31 243.648,323.24 " fill="transparent" stroke-width="0.5" stroke="rgb(0,0,255)" />
	<polyline points="381.096,316.163 362,339.428 " fill="transparent" stroke-width="0.5" stroke="rgb(0,0,255)" />
	<polyline points="362,339.428 408.816,359.013 " fill="transparent" stroke-width="0.5" stroke="rgb(0,0,255)" />
	<polyline points="408.816,359.013 362.008,417.711 " fill="transparent" stroke-width="0.5" stroke="rgb(0,0,255)" />
	<polyline points="408.816,359.013 417.676,360.008 " fill="transparent" stroke-width="0.5" stroke="rgb(0,0,255)" />
	<polyline points="417.676,360.008 373.938,421.49 " fill="transparent" stroke-width="0.5" stroke="rgb(0,0,255)" />
	<polyline points="417.676,360.008 316.844,407.586 " fill="transparent" stroke-width="0.5" stroke="rgb(0,0,255)" />
	<polyline points="316.844,407.586 244.765,438.459 " fill="transparent" stroke-width="0.5" stroke="rgb(0,0,255)" />
	<polyline points="417.676,360.008 314.391,465.521 " fill="transparent" stroke-width="0.5" stroke="rgb(0,0,255)" />
	<polyline points="314.391,465.521 310.815,459.747 " fill="transparent" stroke-width="0.5" stroke="rgb(0,0,255)" />
	<polyline points="314.391,465.521 309.805,450.588 " fill="transparent" stroke-width="0.5" stroke="rgb(0,0,255)" />
	<polyline points="314.391,465.521 320.917,451.491 " fill="transparent" stroke-width="0.5" stroke="rgb(0,0,255)" />
	<polyline points="314.391,465.521 291.126,476.312 " fill="transparent" stroke-width="0.5" stroke="rgb(0,0,255)" />
	<polyline points="291.126,476.312 268.499,490.464 " fill="transparent" stroke-width="0.5" stroke="rgb(0,0,255)" />
	<polyline points="291.126,476.312 266.564,465.454 " fill="transparent" stroke-width="0.5" stroke="rgb(0,0,255)" />
	<polyline points="417.676,360.008 437.793,400.878 " fill="transparent" stroke-width="0.5" stroke="rgb(0,0,255)" />
	<polyline points="437.793,400.878 457.853,394.897 " fill="transparent" stroke-width="0.5" stroke="rgb(0,0,255)" />
	<polyline points="457.853,394.897 470.784,388.38 " fill="transparent" stroke-width="0.5" stroke="rgb(0,0,255)" />
	<polyline points="470.784,388.38 383.49,412.174 " fill="transparent" stroke-width="0.5" stroke="rgb(0,0,255)" />
	<polyline points="457.853,394.897 472.509,386.001 " fill="transparent" stroke-width="0.5" stroke="rgb(0,0,255)" />
	<polyline points="437.793,400.878 425.141,389.305 " fill="transparent" stroke-width="0.5" stroke="rgb(0,0,255)" />
	<polyline points="425.141,389.305 325.128,429.297 " fill="transparent" stroke-width="0.5" stroke="rgb(0,0,255)" />
	<polyline points="437.793,400.878 439.286,390.818 " fill="transparent" stroke-width="0.5" stroke="rgb(0,0,255)" />
	<polyline points="439.286,390.818 443.599,387.285 " fill="transparent" stroke-width="0.5" stroke="rgb(0,0,255)" />
	<polyline points="439.286,390.818 382.466,391.774 " fill="transparent" stroke-width="0.5" stroke="rgb(0,0,255)" />
	<polyline points="382.466,391.774 417.867,386.818 " fill="transparent" stroke-width="0.5" stroke="rgb(0,0,255)" />
	<polyline points="439.286,390.818 364.229,428.488 " fill="transparent" stroke-width="0.5" stroke="rgb(0,0,255)" />
	<polyline points="364.229,428.488 267.826,438.712 " fill="transparent" stroke-width="0.5" stroke="rgb(0,0,255)" />
	<polyline points="267.826,438.712 275.64,422.209 " fill="transparent" stroke-width="0.5" stroke="rgb(0,0,255)" />
	<polyline points="362,339.428 342.505,335.173 " fill="transparent" stroke-width="0.5" stroke="rgb(0,0,255)" />
	<polyline points="342.505,335.173 330.435,325.136 " fill="transparent" stroke-width="0.5" stroke="rgb(0,0,255)" />
	<polyline points="362,339.428 369.803,332.021 " fill="transparent" stroke-width="0.5" stroke="rgb(0,0,255)" />
	<polyline points="362,339.428 300.797,403.849 " fill="transparent" stroke-width="0.5" stroke="rgb(0,0,255)" />
	<polyline points="300.797,403.849 293.335,394.4 " fill="transparent" stroke-width="0.5" stroke="rgb(0,0,255)" />
	<polyline points="293.335,394.4 290.886,386.405 " fill="transparent" stroke-width="0.5" stroke="rgb(0,0,255)" />
	<polyline points="300.797,403.849 207.012,455.868 " fill="transparent" stroke-width="0.5" stroke="rgb(0,0,255)" />
	<polyline points="207.012,455.868 229.69,472.395 " fill="transparent" stroke-width="0.5" stroke="rgb(0,0,255)" />
	<polyline points="229.69,472.395 158.972,495.39 " fill="transparent" stroke-width="0.5" stroke="rgb(0,0,255)" />
	<polyline points="300.797,403.849 385.532,484.929 " fill="transparent" stroke-width="0.5" stroke="rgb(0,0,255)" />
	<polyline points="385.532,484.929 412.664,480.247 " fill="transparent" stroke-width="0.5" stroke="rgb(0,0,255)" />
	<polyline points="412.664,480.247 409.495,471.233 " fill="transparent" stroke-width="0.5" stroke="rgb(0,0,255)" />
	<polyline points="409.495,471.233 351.945,490.868 " fill="transparent" stroke-width="0.5" stroke="rgb(0,0,255)" />
	<polyline points="351.945,490.868 356.766,484.687 " fill="transparent" stroke-width="0.5" stroke="rgb(0,0,255)" />
	<polyline points="412.664,480.247 416.5,473.351 " fill="transparent" stroke-width="0.5" stroke="rgb(0,0,255)" />
	<polyline points="416.5,473.351 418.063,470.616 " fill="transparent" stroke-width="0.5" stroke="rgb(0,0,255)" />
	<polyline points="418.063,470.616 428.488,461.011 " fill="transparent" stroke-width="0.5" stroke="rgb(0,0,255)" />
	<polyline points="428.488,461.011 451.18,447.891 " fill="transparent" stroke-width="0.5" stroke="rgb(0,0,255)" />
	<polyline points="451.18,447.891 331.57,499.56 " fill="transparent" stroke-width="0.5" stroke="rgb(0,0,255)" />
	<polyline points="418.063,470.616 397.131,460.908 " fill="transparent" stroke-width="0.5" stroke="rgb(0,0,255)" />
	<polyline points="397.131,460.908 373.094,473.918 " fill="transparent" stroke-width="0.5" stroke="rgb(0,0,255)" />
	<polyline points="397.131,460.908 372.996,472.208 " fill="transparent" stroke-width="0.5" stroke="rgb(0,0,255)" />
	<polyline points="372.996,472.208 367.446,471.829 " fill="transparent" stroke-width="0.5" stroke="rgb(0,0,255)" />
	<polyline points="300.797,403.849 186.965,477.156 " fill="transparent" stroke-width="0.5" stroke="rgb(0,0,255)" />
	<polyline points="186.965,477.156 165.005,472.407 " fill="transparent" stroke-width="0.5" stroke="rgb(0,0,255)" />
	<polyline points="300.797,403.849 247.378,411.338 " fill="transparent" stroke-width="0.5" stroke="rgb(0,0,255)" />
	<polyline points="247.378,411.338 241.046,397.508 " fill="transparent" stroke-width="0.5" stroke="rgb(0,0,255)" />
	<polyline points="241.046,397.508 236.271,385.154 " fill="transparent" stroke-width="0.5" stroke="rgb(0,0,255)" />
	<polyline points="236.271,385.154 234.383,376.27 " fill="transparent" stroke-width="0.5" stroke="rgb(0,0,255)" />
	<polyline points="234.383,376.27 227.587,405.254 " fill="transparent" stroke-width="0.5" stroke="rgb(0,0,255)" />
	<polyline points="234.383,376.27 209.984,386.256 " fill="transparent" stroke-width="0.5" stroke="rgb(0,0,255)" />
	<polyline points="236.271,385.154 206.47,386.48 " fill="transparent" stroke-width="0.5" stroke="rgb(0,0,255)" />
	<polyline points="206.47,386.48 192.309,376.998 " fill="transparent" stroke-width="0.5" stroke="rgb(0,0,255)" />
	<polyline points="192.309,376.998 115.185,389.318 " fill="transparent" stroke-width="0.5" stroke="rgb(0,0,255)" />
	<polyline points="206.47,386.48 177.294,387.47 " fill="transparent" stroke-width="0.5" stroke="rgb(0,0,255)" />
	<polyline points="177.294,387.47 172.764,385.708 " fill="transparent" stroke-width="0.5" stroke="rgb(0,0,255)" />
	<polyline points="177.294,387.47 99.2783,391.171 " fill="transparent" stroke-width="0.5" stroke="rgb(0,0,255)" />
	<polyline points="99.2783,391.171 76.4675,388.036 " fill="transparent" stroke-width="0.5" stroke="rgb(0,0,255)" />
	<polyline points="99.2783,391.171 41.4408,394.467 " fill="transparent" stroke-width="0.5" stroke="rgb(0,0,255)" />
	<polyline points="300.797,403.849 232.423,419.481 " fill="transparent" stroke-width="0.5" stroke="rgb(0,0,255)" />
	<polyline points="232.423,419.481 171.843,428.628 " fill="transparent" stroke-width="0.5" stroke="rgb(0,0,255)" />
	<polyline points="232.423,419.481 216.04,405.767 " fill="transparent" stroke-width="0.5" stroke="rgb(0,0,255)" />
	<polyline points="216.04,405.767 209.657,396.599 " fill="transparent" stroke-width="0.5" stroke="rgb(0,0,255)" />
	<polyline points="232.423,419.481 155.319,472.28 " fill="transparent" stroke-width="0.5" stroke="rgb(0,0,255)" />
	<polyline points="155.319,472.28 142.047,457.548 " fill="transparent" stroke-width="0.5" stroke="rgb(0,0,255)" />
	<polyline points="142.047,457.548 135.636,454.387 " fill="transparent" stroke-width="0.5" stroke="rgb(0,0,255)" />
	<polyline points="155.319,472.28 134.594,480.734 " fill="transparent" stroke-width="0.5" stroke="rgb(0,0,255)" />
	<polyline points="155.319,472.28 96.5856,481.921 " fill="transparent" stroke-width="0.5" stroke="rgb(0,0,255)" />
	<polyline points="96.5856,481.921 105.087,467.198 " fill="transparent" stroke-width="0.5" stroke="rgb(0,0,255)" />
	<polyline points="105.087,467.198 52.6943,457.379 " fill="transparent" stroke-width="0.5" stroke="rgb(0,0,255)" />
	<polyline points="52.6943,457.379 73.269,448.384 " fill="transparent" stroke-width="0.5" stroke="rgb(0,0,255)" />
	<polyline points="52.6943,457.379 81.2864,447.051 " fill="transparent" stroke-width="0.5" stroke="rgb(0,0,255)" />
	<polyline points="81.2864,447.051 75.3332,427.68 " fill="transparent" stroke-width="0.5" stroke="rgb(0,0,255)" />
	<polyline points="75.3332,427.68 82.5102,405.413 " fill="transparent" stroke-width="0.5" stroke="rgb(0,0,255)" />
	<polyline points="82.5102,405.413 87.5836,391.082 " fill="transparent" stroke-width="0.5" stroke="rgb(0,0,255)" />
	<polyline points="82.5102,405.413 8.36694,441.692 " fill="transparent" stroke-width="0.5" stroke="rgb(0,0,255)" />
	<polyline points="82.5102,405.413 86.6093,386.111 " fill="transparent" stroke-width="0.5" stroke="rgb(0,0,255)" />
	<polyline points="82.5102,405.413 0.802445,400.451 " fill="transparent" stroke-width="0.5" stroke="rgb(0,0,255)" />
	<polyline points="75.3332,427.68 29.6587,425.836 " fill="transparent" stroke-width="0.5" stroke="rgb(0,0,255)" />
	<polyline points="29.6587,425.836 1.88895,430.382 " fill="transparent" stroke-width="0.5" stroke="rgb(0,0,255)" />
	<polyline points="75.3332,427.68 26.3388,467.466 " fill="transparent" stroke-width="0.5" stroke="rgb(0,0,255)" />
	<polyline points="26.3388,467.466 19.718,451.797 " fill="transparent" stroke-width="0.5" stroke="rgb(0,0,255)" />
	<polyline points="75.3332,427.68 65.8241,429.236 " fill="transparent" stroke-width="0.5" stroke="rgb(0,0,255)" />
	<polyline points="75.3332,427.68 28.4357,421.076 " fill="transparent" stroke-width="0.5" stroke="rgb(0,0,255)" />
	<polyline points="75.3332,427.68 44.1017,439.282 " fill="transparent" stroke-width="0.5" stroke="rgb(0,0,255)" />
	<polyline points="75.3332,427.68 65.395,429.913 " fill="transparent" stroke-width="0.5" stroke="rgb(0,0,255)" />
	<polyline points="81.2864,447.051 96.5677,435.264 " fill="transparent" stroke-width="0.5" stroke="rgb(0,0,255)" />
	<polyline points="96.5677,435.264 105.471,431.272 " fill="transparent" stroke-width="0.5" stroke="rgb(0,0,255)" />
	<polyline points="96.5677,435.264 106.736,411.843 " fill="transparent" stroke-width="0.5" stroke="rgb(0,0,255)" />
	<polyline points="106.736,411.843 107.389,407.224 " fill="transparent" stroke-width="0.5" stroke="rgb(0,0,255)" />
	<polyline points="106.736,411.843 104.584,397.873 " fill="transparent" stroke-width="0.5" stroke="rgb(0,0,255)" />
	<polyline points="106.736,411.843 127.335,403.209 " fill="transparent" stroke-width="0.5" stroke="rgb(0,0,255)" />
	<polyline points="127.335,403.209 136.217,400.168 " fill="transparent" stroke-width="0.5" stroke="rgb(0,0,255)" />
	<polyline points="127.335,403.209 48.2033,413.609 " fill="transparent" stroke-width="0.5" stroke="rgb(0,0,255)" />
	<polyline points="127.335,403.209 55.8755,415.582 " fill="transparent" stroke-width="0.5" stroke="rgb(0,0,255)" />
	<polyline points="106.736,411.843 7.76624,432.01 " fill="transparent" stroke-width="0.5" stroke="rgb(0,0,255)" />
	<polyline points="7.76624,432.01 19.1028,411.446 " fill="transparent" stroke-width="0.5" stroke="rgb(0,0,255)" />
	<polyline points="96.5677,435.264 8.50484,462.097 " fill="transparent" stroke-width="0.5" stroke="rgb(0,0,255)" />
	<polyline points="8.50484,462.097 15.6125,435.362 " fill="transparent" stroke-width="0.5" stroke="rgb(0,0,255)" />
	<polyline points="8.50484,462.097 9.02115,453.367 " fill="transparent" stroke-width="0.5" stroke="rgb(0,0,255)" />
	<polyline points="96.5856,481.921 52.6123,469.827 " fill="transparent" stroke-width="0.5" stroke="rgb(0,0,255)" />
	<polyline points="52.6123,469.827 35.45,463.972 " fill="transparent" stroke-width="0.5" stroke="rgb(0,0,255)" />
	<polyline points="52.6123,469.827 53.1236,443.714 " fill="transparent" stroke-width="0.5" stroke="rgb(0,0,255)" />
	<polyline points="52.6123,469.827 3.75348,477.552 " fill="transparent" stroke-width="0.5" stroke="rgb(0,0,255)" />
	<polyline points="52.6123,469.827 26.9556,451.13 " fill="transparent" stroke-width="0.5" stroke="rgb(0,0,255)" />
	<polyline points="300.797,403.849 276.582,412.133 " fill="transparent" stroke-width="0.5" stroke="rgb(0,0,255)" />
	<polyline points="421.042,251.819 473.382,266.295 " fill="transparent" stroke-width="0.5" stroke="rgb(0,0,255)" />
	<polyline points="473.382,266.295 460.002,255.093 " fill="transparent" stroke-width="0.5" stroke="rgb(0,0,255)" />
	<polyline points="460.002,255.093 422.155,274.507 " fill="transparent" stroke-width="0.5" stroke="rgb(0,0,255)" />
	<polyline points="422.155,274.507 320.347,328.629 " fill="transparent" stroke-width="0.5" stroke="rgb(0,0,255)" />
	<polyline points="422.155,274.507 418.647,266.941 " fill="transparent" stroke-width="0.5" stroke="rgb(0,0,255)" />
	<polyline points="422.155,274.507 398.026,276.5 " fill="transparent" stroke-width="0.5" stroke="rgb(0,0,255)" />
	<polyline points="398.026,276.5 405.439,266.425 " fill="transparent" stroke-width="0.5" stroke="rgb(0,0,255)" />
	<polyline points="398.026,276.5 319.179,307.024 " fill="transparent" stroke-width="0.5" stroke="rgb(0,0,255)" />
	<polyline points="319.179,307.024 315.673,294.228 " fill="transparent" stroke-width="0.5" stroke="rgb(0,0,255)" />
	<polyline points="473.382,266.295 482.328,261.371 " fill="transparent" stroke-width="0.5" stroke="rgb(0,0,255)" />
	<polyline points="482.328,261.371 479.725,248.805 " fill="transparent" stroke-width="0.5" stroke="rgb(0,0,255)" />
	<polyline points="473.382,266.295 461.941,253.593 " fill="transparent" stroke-width="0.5" stroke="rgb(0,0,255)" />
	<polyline points="473.382,266.295 477.522,254.558 " fill="transparent" stroke-width="0.5" stroke="rgb(0,0,255)" />
	<polyline points="477.522,254.558 476.489,241.909 " fill="transparent" stroke-width="0.5" stroke="rgb(0,0,255)" />
	<polyline points="476.489,241.909 468.396,228.753 " fill="transparent" stroke-width="0.5" stroke="rgb(0,0,255)" />
	<circle cx="416.667" cy="83.3333" r="2" fill="rgb(255,0,0)" />
	<circle cx="83.3333" cy="416.667" r="2" fill="rgb(0,255,0)" />
	<polyline points="416.667,83.3333 369.952,136.508 349.591,158.229 313.634,206.847 311.51,204.721 195.877,266.143 131.296,288.14 79.6423,406.821 81.4157,420.87 " fill="transparent" stroke-width="3" stroke="rgb(0,0,0)" />
</svg>
