<?xml version="1.0" standalone="no" ?>
<!DOCTYPE svg PUBLIC "-//W3C//DTD SVG 1.1//EN" "http://www.w3.org/Graphics/SVG/1.1/DTD/svg11.dtd">
<svg width="500px" height="500px" xmlns="http://www.w3.org/2000/svg" version="1.1" >
	<circle cx="217.324" cy="328.37" r="2.5" fill="rgb(255,255,255)" />
	<circle cx="55.451" cy="443.181" r="2.5" fill="rgb(254,254,254)" />
	<circle cx="221.796" cy="341.813" r="2.5" fill="rgb(250,250,250)" />
	<circle cx="63.6639" cy="430.629" r="2.5" fill="rgb(249,249,249)" />
	<circle cx="209.422" cy="340.041" r="2.5" fill="rgb(246,246,246)" />
	<circle cx="76.2838" cy="421.067" r="2.5" fill="rgb(244,244,244)" />
	<circle cx="102.427" cy="414.303" r="2.5" fill="rgb(242,242,242)" />
	<circle cx="194.057" cy="343.863" r="2.5" fill="rgb(240,240,240)" />
	<circle cx="80.4708" cy="411.986" r="2.5" fill="rgb(240,240,240)" />
	<circle cx="81.5063" cy="410.574" r="2.5" fill="rgb(240,240,240)" />
	<circle cx="110.136" cy="409.342" r="2.5" fill="rgb(239,239,239)" />
	<circle cx="178.842" cy="361.863" r="2.5" fill="rgb(239,239,239)" />
	<circle cx="102.652" cy="402.709" r="2.5" fill="rgb(235,235,235)" />
	<circle cx="84.9476" cy="399.426" r="2.5" fill="rgb(235,235,235)" />
	<circle cx="179.968" cy="351.088" r="2.5" fill="rgb(235,235,235)" />
	<circle cx="88.1336" cy="377.626" r="2.5" fill="rgb(235,235,235)" />
	<circle cx="159.477" cy="337.253" r="2.5" fill="rgb(233,233,233)" />
	<circle cx="96.1744" cy="388.262" r="2.5" fill="rgb(230,230,230)" />
	<circle cx="150.697" cy="334.62" r="2.5" fill="rgb(229,229,229)" />
	<circle cx="165.038" cy="345.818" r="2.5" fill="rgb(229,229,229)" />
	<circle cx="155.009" cy="341.902" r="2.5" fill="rgb(227,227,227)" />
	<circle cx="151.816" cy="342.878" r="2.5" fill="rgb(227,227,227)" />
	<circle cx="155.473" cy="345.576" r="2.5" fill="rgb(227,227,227)" />
	<circle cx="158.188" cy="351.91" r="2.5" fill="rgb(226,226,226)" />
	<circle cx="155.597" cy="349.916" r="2.5" fill="rgb(226,226,226)" />
	<circle cx="154.584" cy="349.827" r="2.5" fill="rgb(225,225,225)" />
	<circle cx="105.293" cy="378.534" r="2.5" fill="rgb(225,225,225)" />
	<circle cx="105.418" cy="296.153" r="2.5" fill="rgb(223,223,223)" />
	<circle cx="105.146" cy="313.471" r="2.5" fill="rgb(222,222,222)" />
	<circle cx="145.342" cy="355.479" r="2.5" fill="rgb(222,222,222)" />
	<circle cx="103.75" cy="308.633" r="2.5" fill="rgb(221,221,221)" />
	<circle cx="111.974" cy="364.179" r="2.5" fill="rgb(219,219,219)" />
	<circle cx="94.1029" cy="306" r="2.5" fill="rgb(217,217,217)" />
	<circle cx="140.776" cy="343.842" r="2.5" fill="rgb(217,217,217)" />
	<circle cx="111.37" cy="338.306" r="2.5" fill="rgb(216,216,216)" />
	<circle cx="134.467" cy="337.192" r="2.5" fill="rgb(214,214,214)" />
	<circle cx="98.0615" cy="315.183" r="2.5" fill="rgb(214,214,214)" />
	<circle cx="127.729" cy="330.25" r="2.5" fill="rgb(213,213,213)" />
	<circle cx="117.986" cy="348.634" r="2.5" fill="rgb(213,213,213)" />
	<circle cx="100.397" cy="325.762" r="2.5" fill="rgb(210,210,210)" />
	<circle cx="122.194" cy="339.563" r="2.5" fill="rgb(209,209,209)" />
	<circle cx="128.069" cy="330.286" r="2.5" fill="rgb(209,209,209)" />
	<circle cx="104.881" cy="328.109" r="2.5" fill="rgb(209,209,209)" />
	<circle cx="118.071" cy="330.453" r="2.5" fill="rgb(206,206,206)" />
	<circle cx="112.352" cy="314.149" r="2.5" fill="rgb(203,203,203)" />
	<circle cx="122.662" cy="323.498" r="2.5" fill="rgb(203,203,203)" />
	<circle cx="124.787" cy="312.876" r="2.5" fill="rgb(199,199,199)" />
	<circle cx="127.844" cy="302.483" r="2.5" fill="rgb(195,195,195)" />
	<circle cx="165.267" cy="290.42" r="2.5" fill="rgb(191,191,191)" />
	<circle cx="148.703" cy="283.01" r="2.5" fill="rgb(191,191,191)" />
	<circle cx="138.008" cy="292.614" r="2.5" fill="rgb(190,190,190)" />
	<circle cx="159.103" cy="283.636" r="2.5" fill="rgb(188,188,188)" />
	<circle cx="138.789" cy="284.317" r="2.5" fill="rgb(187,187,187)" />
	<circle cx="137.21" cy="269.793" r="2.5" fill="rgb(186,186,186)" />
	<circle cx="212.752" cy="259.931" r="2.5" fill="rgb(185,185,185)" />
	<circle cx="156.578" cy="272.246" r="2.5" fill="rgb(184,184,184)" />
	<circle cx="209.141" cy="252.85" r="2.5" fill="rgb(184,184,184)" />
	<circle cx="143.898" cy="274.765" r="2.5" fill="rgb(184,184,184)" />
	<circle cx="206.779" cy="250.996" r="2.5" fill="rgb(183,183,183)" />
	<circle cx="125.242" cy="204.703" r="2.5" fill="rgb(181,181,181)" />
	<circle cx="328.144" cy="403.454" r="2.5" fill="rgb(181,181,181)" />
	<circle cx="148.257" cy="266.7" r="2.5" fill="rgb(180,180,180)" />
	<circle cx="199.57" cy="257.926" r="2.5" fill="rgb(180,180,180)" />
	<circle cx="195.913" cy="249.521" r="2.5" fill="rgb(177,177,177)" />
	<circle cx="338.085" cy="393.36" r="2.5" fill="rgb(176,176,176)" />
	<circle cx="110.453" cy="202.196" r="2.5" fill="rgb(176,176,176)" />
	<circle cx="156.763" cy="254.345" r="2.5" fill="rgb(175,175,175)" />
	<circle cx="138.812" cy="192.413" r="2.5" fill="rgb(174,174,174)" />
	<circle cx="202.562" cy="238.841" r="2.5" fill="rgb(173,173,173)" />
	<circle cx="183.558" cy="247.62" r="2.5" fill="rgb(173,173,173)" />
	<circle cx="136.07" cy="114.393" r="2.5" fill="rgb(173,173,173)" />
	<circle cx="344.864" cy="388.514" r="2.5" fill="rgb(173,173,173)" />
	<circle cx="346.831" cy="362.924" r="2.5" fill="rgb(172,172,172)" />
	<circle cx="162.666" cy="246.274" r="2.5" fill="rgb(172,172,172)" />
	<circle cx="332.908" cy="351.928" r="2.5" fill="rgb(171,171,171)" />
	<circle cx="347.028" cy="366.832" r="2.5" fill="rgb(171,171,171)" />
	<circle cx="191.777" cy="237.823" r="2.5" fill="rgb(170,170,170)" />
	<circle cx="126.185" cy="196.696" r="2.5" fill="rgb(170,170,170)" />
	<circle cx="323.453" cy="333.64" r="2.5" fill="rgb(169,169,169)" />
	<circle cx="346.534" cy="351.282" r="2.5" fill="rgb(169,169,169)" />
	<circle cx="333.154" cy="359.991" r="2.5" fill="rgb(169,169,169)" />
	<circle cx="170.943" cy="238.052" r="2.5" fill="rgb(168,168,168)" />
	<circle cx="137.528" cy="98.627" r="2.5" fill="rgb(167,167,167)" />
	<circle cx="354.401" cy="375.874" r="2.5" fill="rgb(167,167,167)" />
	<circle cx="208.168" cy="81.3346" r="2.5" fill="rgb(167,167,167)" />
	<circle cx="209.375" cy="80.6492" r="2.5" fill="rgb(166,166,166)" />
	<circle cx="337.565" cy="367.061" r="2.5" fill="rgb(166,166,166)" />
	<circle cx="157.035" cy="212.096" r="2.5" fill="rgb(165,165,165)" />
	<circle cx="204.953" cy="75.9084" r="2.5" fill="rgb(165,165,165)" />
	<circle cx="180.906" cy="225.19" r="2.5" fill="rgb(165,165,165)" />
	<circle cx="162.046" cy="230.504" r="2.5" fill="rgb(164,164,164)" />
	<circle cx="140.414" cy="201.444" r="2.5" fill="rgb(164,164,164)" />
	<circle cx="211.332" cy="74.8724" r="2.5" fill="rgb(164,164,164)" />
	<circle cx="327.091" cy="347.332" r="2.5" fill="rgb(164,164,164)" />
	<circle cx="327.716" cy="346.591" r="2.5" fill="rgb(164,164,164)" />
	<circle cx="196.217" cy="78.3295" r="2.5" fill="rgb(163,163,163)" />
	<circle cx="149.03" cy="100.582" r="2.5" fill="rgb(163,163,163)" />
	<circle cx="345.852" cy="367.935" r="2.5" fill="rgb(163,163,163)" />
	<circle cx="337.64" cy="347.346" r="2.5" fill="rgb(162,162,162)" />
	<circle cx="339.909" cy="348.015" r="2.5" fill="rgb(162,162,162)" />
	<circle cx="334.27" cy="350.681" r="2.5" fill="rgb(161,161,161)" />
	<circle cx="145.833" cy="208.837" r="2.5" fill="rgb(161,161,161)" />
	<circle cx="167.975" cy="119.309" r="2.5" fill="rgb(161,161,161)" />
	<circle cx="169.065" cy="221.185" r="2.5" fill="rgb(161,161,161)" />
	<circle cx="184.47" cy="211.475" r="2.5" fill="rgb(160,160,160)" />
	<circle cx="210.845" cy="64.8843" r="2.5" fill="rgb(160,160,160)" />
	<circle cx="175.215" cy="131.433" r="2.5" fill="rgb(160,160,160)" />
	<circle cx="197.282" cy="205.802" r="2.5" fill="rgb(160,160,160)" />
	<circle cx="177.324" cy="212.387" r="2.5" fill="rgb(159,159,159)" />
	<circle cx="170.555" cy="131.509" r="2.5" fill="rgb(159,159,159)" />
	<circle cx="229.638" cy="247.389" r="2.5" fill="rgb(159,159,159)" />
	<circle cx="173.995" cy="215.859" r="2.5" fill="rgb(159,159,159)" />
	<circle cx="173.466" cy="196.123" r="2.5" fill="rgb(158,158,158)" />
	<circle cx="153.861" cy="206.601" r="2.5" fill="rgb(158,158,158)" />
	<circle cx="174.613" cy="212.774" r="2.5" fill="rgb(158,158,158)" />
	<circle cx="339.495" cy="357.172" r="2.5" fill="rgb(158,158,158)" />
	<circle cx="203.381" cy="90.5514" r="2.5" fill="rgb(158,158,158)" />
	<circle cx="218.537" cy="90.2864" r="2.5" fill="rgb(158,158,158)" />
	<circle cx="172.458" cy="213.574" r="2.5" fill="rgb(158,158,158)" />
	<circle cx="160.699" cy="111.283" r="2.5" fill="rgb(157,157,157)" />
	<circle cx="300.673" cy="303.528" r="2.5" fill="rgb(157,157,157)" />
	<circle cx="178.19" cy="216.416" r="2.5" fill="rgb(156,156,156)" />
	<circle cx="187.93" cy="200.334" r="2.5" fill="rgb(156,156,156)" />
	<circle cx="181.287" cy="213.68" r="2.5" fill="rgb(156,156,156)" />
	<circle cx="220.676" cy="242.953" r="2.5" fill="rgb(156,156,156)" />
	<circle cx="257.868" cy="257.331" r="2.5" fill="rgb(156,156,156)" />
	<circle cx="332.597" cy="352.496" r="2.5" fill="rgb(155,155,155)" />
	<circle cx="165.89" cy="190.962" r="2.5" fill="rgb(155,155,155)" />
	<circle cx="322.464" cy="328.316" r="2.5" fill="rgb(155,155,155)" />
	<circle cx="180.856" cy="209.555" r="2.5" fill="rgb(155,155,155)" />
	<circle cx="182.343" cy="207.472" r="2.5" fill="rgb(155,155,155)" />
	<circle cx="164.356" cy="209.286" r="2.5" fill="rgb(155,155,155)" />
	<circle cx="164.408" cy="118.746" r="2.5" fill="rgb(154,154,154)" />
	<circle cx="304.407" cy="310.978" r="2.5" fill="rgb(154,154,154)" />
	<circle cx="210.804" cy="81.5509" r="2.5" fill="rgb(154,154,154)" />
	<circle cx="212.043" cy="236.408" r="2.5" fill="rgb(153,153,153)" />
	<circle cx="227.361" cy="101.937" r="2.5" fill="rgb(152,152,152)" />
	<circle cx="267.942" cy="267.292" r="2.5" fill="rgb(151,151,151)" />
	<circle cx="172.162" cy="201.775" r="2.5" fill="rgb(151,151,151)" />
	<circle cx="333.241" cy="337.51" r="2.5" fill="rgb(150,150,150)" />
	<circle cx="316.049" cy="311.74" r="2.5" fill="rgb(150,150,150)" />
	<circle cx="207.634" cy="154.621" r="2.5" fill="rgb(150,150,150)" />
	<circle cx="315.676" cy="314.526" r="2.5" fill="rgb(150,150,150)" />
	<circle cx="336.642" cy="326.196" r="2.5" fill="rgb(150,150,150)" />
	<circle cx="223.555" cy="216.527" r="2.5" fill="rgb(150,150,150)" />
	<circle cx="175.434" cy="126.242" r="2.5" fill="rgb(149,149,149)" />
	<circle cx="216.138" cy="227.285" r="2.5" fill="rgb(149,149,149)" />
	<circle cx="273.757" cy="259.157" r="2.5" fill="rgb(148,148,148)" />
	<circle cx="200.955" cy="134.897" r="2.5" fill="rgb(148,148,148)" />
	<circle cx="179.706" cy="208.339" r="2.5" fill="rgb(148,148,148)" />
	<circle cx="328.114" cy="317.688" r="2.5" fill="rgb(148,148,148)" />
	<circle cx="196.92" cy="154.856" r="2.5" fill="rgb(148,148,148)" />
	<circle cx="329.242" cy="317.41" r="2.5" fill="rgb(148,148,148)" />
	<circle cx="224.833" cy="90.5477" r="2.5" fill="rgb(148,148,148)" />
	<circle cx="323.695" cy="316.796" r="2.5" fill="rgb(147,147,147)" />
	<circle cx="343.992" cy="332.978" r="2.5" fill="rgb(146,146,146)" />
	<circle cx="212.05" cy="164.804" r="2.5" fill="rgb(146,146,146)" />
	<circle cx="199.689" cy="207.361" r="2.5" fill="rgb(146,146,146)" />
	<circle cx="211.058" cy="216.782" r="2.5" fill="rgb(146,146,146)" />
	<circle cx="400.414" cy="297.269" r="2.5" fill="rgb(145,145,145)" />
	<circle cx="203.864" cy="145.081" r="2.5" fill="rgb(145,145,145)" />
	<circle cx="284.638" cy="265.31" r="2.5" fill="rgb(144,144,144)" />
	<circle cx="208.473" cy="139.247" r="2.5" fill="rgb(144,144,144)" />
	<circle cx="193.774" cy="145.363" r="2.5" fill="rgb(144,144,144)" />
	<circle cx="226.479" cy="101.255" r="2.5" fill="rgb(144,144,144)" />
	<circle cx="192.052" cy="124.971" r="2.5" fill="rgb(143,143,143)" />
	<circle cx="332.514" cy="307.211" r="2.5" fill="rgb(143,143,143)" />
	<circle cx="340.544" cy="324.484" r="2.5" fill="rgb(143,143,143)" />
	<circle cx="193.304" cy="202.006" r="2.5" fill="rgb(143,143,143)" />
	<circle cx="205.085" cy="209.829" r="2.5" fill="rgb(143,143,143)" />
	<circle cx="226.131" cy="130.42" r="2.5" fill="rgb(143,143,143)" />
	<circle cx="342.267" cy="305.44" r="2.5" fill="rgb(142,142,142)" />
	<circle cx="335.43" cy="308.86" r="2.5" fill="rgb(142,142,142)" />
	<circle cx="293.649" cy="273.973" r="2.5" fill="rgb(141,141,141)" />
	<circle cx="412.905" cy="296.804" r="2.5" fill="rgb(141,141,141)" />
	<circle cx="208.404" cy="148.541" r="2.5" fill="rgb(140,140,140)" />
	<circle cx="202.47" cy="201.916" r="2.5" fill="rgb(140,140,140)" />
	<circle cx="197.421" cy="133.407" r="2.5" fill="rgb(140,140,140)" />
	<circle cx="342.161" cy="313.772" r="2.5" fill="rgb(139,139,139)" />
	<circle cx="217.917" cy="215.878" r="2.5" fill="rgb(139,139,139)" />
	<circle cx="226.214" cy="117.086" r="2.5" fill="rgb(138,138,138)" />
	<circle cx="226.754" cy="134.571" r="2.5" fill="rgb(138,138,138)" />
	<circle cx="302.688" cy="275.497" r="2.5" fill="rgb(138,138,138)" />
	<circle cx="442.369" cy="286.88" r="2.5" fill="rgb(137,137,137)" />
	<circle cx="338.435" cy="306.319" r="2.5" fill="rgb(137,137,137)" />
	<circle cx="411.805" cy="286.026" r="2.5" fill="rgb(136,136,136)" />
	<circle cx="207.677" cy="136.897" r="2.5" fill="rgb(136,136,136)" />
	<circle cx="211.972" cy="210.038" r="2.5" fill="rgb(136,136,136)" />
	<circle cx="226.252" cy="126.253" r="2.5" fill="rgb(135,135,135)" />
	<circle cx="295.351" cy="269.202" r="2.5" fill="rgb(135,135,135)" />
	<circle cx="310.783" cy="283.197" r="2.5" fill="rgb(134,134,134)" />
	<circle cx="228.294" cy="148.646" r="2.5" fill="rgb(134,134,134)" />
	<circle cx="215.283" cy="202.391" r="2.5" fill="rgb(133,133,133)" />
	<circle cx="337.055" cy="296.414" r="2.5" fill="rgb(133,133,133)" />
	<circle cx="313.788" cy="266.694" r="2.5" fill="rgb(133,133,133)" />
	<circle cx="209.621" cy="189.635" r="2.5" fill="rgb(131,131,131)" />
	<circle cx="224.257" cy="138.593" r="2.5" fill="rgb(131,131,131)" />
	<circle cx="426.798" cy="280.937" r="2.5" fill="rgb(130,130,130)" />
	<circle cx="233.928" cy="218.2" r="2.5" fill="rgb(130,130,130)" />
	<circle cx="242.973" cy="153.057" r="2.5" fill="rgb(130,130,130)" />
	<circle cx="309.359" cy="276.58" r="2.5" fill="rgb(130,130,130)" />
	<circle cx="227.659" cy="200.629" r="2.5" fill="rgb(130,130,130)" />
	<circle cx="409.154" cy="273.937" r="2.5" fill="rgb(129,129,129)" />
	<circle cx="326.761" cy="287.94" r="2.5" fill="rgb(129,129,129)" />
	<circle cx="236.132" cy="144.657" r="2.5" fill="rgb(126,126,126)" />
	<circle cx="245.404" cy="223.156" r="2.5" fill="rgb(126,126,126)" />
	<circle cx="418.807" cy="271.325" r="2.5" fill="rgb(126,126,126)" />
	<circle cx="237.822" cy="172.951" r="2.5" fill="rgb(126,126,126)" />
	<circle cx="226.227" cy="188.212" r="2.5" fill="rgb(126,126,126)" />
	<circle cx="325.794" cy="273.807" r="2.5" fill="rgb(124,124,124)" />
	<circle cx="245.966" cy="214.006" r="2.5" fill="rgb(123,123,123)" />
	<circle cx="331.231" cy="273.837" r="2.5" fill="rgb(123,123,123)" />
	<circle cx="330.308" cy="266.066" r="2.5" fill="rgb(123,123,123)" />
	<circle cx="409.837" cy="262.618" r="2.5" fill="rgb(121,121,121)" />
	<circle cx="240.434" cy="159.027" r="2.5" fill="rgb(121,121,121)" />
	<circle cx="226.548" cy="174.049" r="2.5" fill="rgb(121,121,121)" />
	<circle cx="239.112" cy="209.265" r="2.5" fill="rgb(121,121,121)" />
	<circle cx="326.852" cy="255.92" r="2.5" fill="rgb(120,120,120)" />
	<circle cx="369.3" cy="252.894" r="2.5" fill="rgb(119,119,119)" />
	<circle cx="394.829" cy="242.32" r="2.5" fill="rgb(119,119,119)" />
	<circle cx="340.801" cy="268.76" r="2.5" fill="rgb(119,119,119)" />
	<circle cx="395.171" cy="252.245" r="2.5" fill="rgb(119,119,119)" />
	<circle cx="330.342" cy="255.071" r="2.5" fill="rgb(118,118,118)" />
	<circle cx="236.112" cy="168.961" r="2.5" fill="rgb(117,117,117)" />
	<circle cx="238.538" cy="198.447" r="2.5" fill="rgb(117,117,117)" />
	<circle cx="356.36" cy="271.785" r="2.5" fill="rgb(116,116,116)" />
	<circle cx="340.132" cy="257.113" r="2.5" fill="rgb(115,115,115)" />
	<circle cx="404.15" cy="247.842" r="2.5" fill="rgb(115,115,115)" />
	<circle cx="247.809" cy="191.975" r="2.5" fill="rgb(115,115,115)" />
	<circle cx="342.172" cy="221.99" r="2.5" fill="rgb(114,114,114)" />
	<circle cx="384.3" cy="252.936" r="2.5" fill="rgb(114,114,114)" />
	<circle cx="244.062" cy="183.609" r="2.5" fill="rgb(112,112,112)" />
	<circle cx="266.225" cy="186.595" r="2.5" fill="rgb(111,111,111)" />
	<circle cx="353.436" cy="256.224" r="2.5" fill="rgb(111,111,111)" />
	<circle cx="393.381" cy="254.189" r="2.5" fill="rgb(111,111,111)" />
	<circle cx="372.822" cy="231.826" r="2.5" fill="rgb(110,110,110)" />
	<circle cx="352.992" cy="226.353" r="2.5" fill="rgb(110,110,110)" />
	<circle cx="366.356" cy="244.425" r="2.5" fill="rgb(110,110,110)" />
	<circle cx="396.462" cy="227.274" r="2.5" fill="rgb(109,109,109)" />
	<circle cx="256.554" cy="184.05" r="2.5" fill="rgb(108,108,108)" />
	<circle cx="385.38" cy="251.859" r="2.5" fill="rgb(108,108,108)" />
	<circle cx="374.356" cy="240.039" r="2.5" fill="rgb(108,108,108)" />
	<circle cx="359.805" cy="221.958" r="2.5" fill="rgb(107,107,107)" />
	<circle cx="288.893" cy="175.263" r="2.5" fill="rgb(106,106,106)" />
	<circle cx="362.651" cy="224.47" r="2.5" fill="rgb(106,106,106)" />
	<circle cx="352.673" cy="242.961" r="2.5" fill="rgb(106,106,106)" />
	<circle cx="352.613" cy="242.081" r="2.5" fill="rgb(106,106,106)" />
	<circle cx="363.309" cy="219.295" r="2.5" fill="rgb(106,106,106)" />
	<circle cx="385.381" cy="223.624" r="2.5" fill="rgb(105,105,105)" />
	<circle cx="381.356" cy="244.562" r="2.5" fill="rgb(105,105,105)" />
	<circle cx="263.917" cy="239.579" r="2.5" fill="rgb(105,105,105)" />
	<circle cx="358.009" cy="235.952" r="2.5" fill="rgb(105,105,105)" />
	<circle cx="271.093" cy="207.017" r="2.5" fill="rgb(104,104,104)" />
	<circle cx="270.6" cy="185.898" r="2.5" fill="rgb(104,104,104)" />
	<circle cx="284" cy="186.765" r="2.5" fill="rgb(102,102,102)" />
	<circle cx="375.629" cy="221.411" r="2.5" fill="rgb(101,101,101)" />
	<circle cx="369.265" cy="241.389" r="2.5" fill="rgb(100,100,100)" />
	<circle cx="277.266" cy="229.599" r="2.5" fill="rgb(99,99,99)" />
	<circle cx="280.229" cy="195.12" r="2.5" fill="rgb(99,99,99)" />
	<circle cx="273.689" cy="224.063" r="2.5" fill="rgb(99,99,99)" />
	<circle cx="355.822" cy="232.251" r="2.5" fill="rgb(99,99,99)" />
	<circle cx="288.804" cy="211.527" r="2.5" fill="rgb(99,99,99)" />
	<circle cx="364.054" cy="230.951" r="2.5" fill="rgb(96,96,96)" />
	<circle cx="342.158" cy="222.614" r="2.5" fill="rgb(96,96,96)" />
	<circle cx="285.657" cy="218.184" r="2.5" fill="rgb(95,95,95)" />
	<circle cx="294.798" cy="198.691" r="2.5" fill="rgb(94,94,94)" />
	<circle cx="321.499" cy="45.3891" r="2.5" fill="rgb(94,94,94)" />
	<circle cx="342.041" cy="200.57" r="2.5" fill="rgb(92,92,92)" />
	<circle cx="355.94" cy="219.338" r="2.5" fill="rgb(91,91,91)" />
	<circle cx="291.678" cy="208.192" r="2.5" fill="rgb(91,91,91)" />
	<circle cx="305.952" cy="225.167" r="2.5" fill="rgb(90,90,90)" />
	<circle cx="314.893" cy="52.8962" r="2.5" fill="rgb(90,90,90)" />
	<circle cx="301.083" cy="211.59" r="2.5" fill="rgb(88,88,88)" />
	<circle cx="319.186" cy="209.209" r="2.5" fill="rgb(88,88,88)" />
	<circle cx="345.004" cy="215.275" r="2.5" fill="rgb(87,87,87)" />
	<circle cx="312.727" cy="217.812" r="2.5" fill="rgb(87,87,87)" />
	<circle cx="294.032" cy="105.788" r="2.5" fill="rgb(86,86,86)" />
	<circle cx="304.954" cy="61.7849" r="2.5" fill="rgb(85,85,85)" />
	<circle cx="309.351" cy="201.13" r="2.5" fill="rgb(84,84,84)" />
	<circle cx="333.347" cy="208.802" r="2.5" fill="rgb(83,83,83)" />
	<circle cx="312.934" cy="205.314" r="2.5" fill="rgb(83,83,83)" />
	<circle cx="307.479" cy="83.0177" r="2.5" fill="rgb(82,82,82)" />
	<circle cx="296.367" cy="64.991" r="2.5" fill="rgb(81,81,81)" />
	<circle cx="299.801" cy="93.7677" r="2.5" fill="rgb(81,81,81)" />
	<circle cx="324.32" cy="200.156" r="2.5" fill="rgb(79,79,79)" />
	<circle cx="297.295" cy="85.8201" r="2.5" fill="rgb(78,78,78)" />
	<circle cx="313.312" cy="193.945" r="2.5" fill="rgb(78,78,78)" />
	<circle cx="305.716" cy="186.165" r="2.5" fill="rgb(78,78,78)" />
	<circle cx="304.439" cy="70.893" r="2.5" fill="rgb(78,78,78)" />
	<circle cx="319.961" cy="99.9126" r="2.5" fill="rgb(76,76,76)" />
	<circle cx="320.858" cy="192.575" r="2.5" fill="rgb(76,76,76)" />
	<circle cx="303.621" cy="79.186" r="2.5" fill="rgb(75,75,75)" />
	<circle cx="316.218" cy="183.508" r="2.5" fill="rgb(74,74,74)" />
	<circle cx="322.923" cy="178.56" r="2.5" fill="rgb(71,71,71)" />
	<circle cx="328.9" cy="91.875" r="2.5" fill="rgb(71,71,71)" />
	<circle cx="314.102" cy="84.3095" r="2.5" fill="rgb(70,70,70)" />
	<circle cx="323.935" cy="90.3855" r="2.5" fill="rgb(70,70,70)" />
	<circle cx="337.938" cy="171.327" r="2.5" fill="rgb(66,66,66)" />
	<circle cx="325.818" cy="76.3445" r="2.5" fill="rgb(65,65,65)" />
	<circle cx="346.171" cy="165.649" r="2.5" fill="rgb(62,62,62)" />
	<circle cx="337.43" cy="105.918" r="2.5" fill="rgb(62,62,62)" />
	<circle cx="371.409" cy="159.326" r="2.5" fill="rgb(61,61,61)" />
	<circle cx="326.984" cy="130.941" r="2.5" fill="rgb(61,61,61)" />
	<circle cx="359.035" cy="153.101" r="2.5" fill="rgb(60,60,60)" />
	<circle cx="347.264" cy="156.548" r="2.5" fill="rgb(59,59,59)" />
	<circle cx="341.598" cy="77.6398" r="2.5" fill="rgb(59,59,59)" />
	<circle cx="340.97" cy="138.469" r="2.5" fill="rgb(58,58,58)" />
	<circle cx="339.281" cy="137.962" r="2.5" fill="rgb(58,58,58)" />
	<circle cx="350.176" cy="153.539" r="2.5" fill="rgb(58,58,58)" />
	<circle cx="340.216" cy="118.957" r="2.5" fill="rgb(57,57,57)" />
	<circle cx="367.365" cy="149.275" r="2.5" fill="rgb(57,57,57)" />
	<circle cx="354.573" cy="82.2125" r="2.5" fill="rgb(55,55,55)" />
	<circle cx="342.749" cy="129.477" r="2.5" fill="rgb(55,55,55)" />
	<circle cx="349.124" cy="85.4317" r="2.5" fill="rgb(55,55,55)" />
	<circle cx="358.571" cy="146.691" r="2.5" fill="rgb(54,54,54)" />
	<circle cx="350.815" cy="131.57" r="2.5" fill="rgb(52,52,52)" />
	<circle cx="356.729" cy="121.212" r="2.5" fill="rgb(51,51,51)" />
	<circle cx="390.491" cy="141.367" r="2.5" fill="rgb(51,51,51)" />
	<circle cx="360.191" cy="137.669" r="2.5" fill="rgb(51,51,51)" />
	<circle cx="461.8" cy="132.639" r="2.5" fill="rgb(50,50,50)" />
	<circle cx="376.518" cy="119.185" r="2.5" fill="rgb(50,50,50)" />
	<circle cx="357.71" cy="97.732" r="2.5" fill="rgb(49,49,49)" />
	<circle cx="363.203" cy="129.899" r="2.5" fill="rgb(48,48,48)" />
	<circle cx="388.146" cy="125.708" r="2.5" fill="rgb(45,45,45)" />
	<circle cx="414.083" cy="21.12" r="2.5" fill="rgb(45,45,45)" />
	<circle cx="366.794" cy="107.492" r="2.5" fill="rgb(45,45,45)" />
	<circle cx="460.884" cy="149.281" r="2.5" fill="rgb(44,44,44)" />
	<circle cx="402.486" cy="93.2557" r="2.5" fill="rgb(44,44,44)" />
	<circle cx="368.744" cy="121.574" r="2.5" fill="rgb(44,44,44)" />
	<circle cx="477.307" cy="104.632" r="2.5" fill="rgb(44,44,44)" />
	<circle cx="477.23" cy="132.481" r="2.5" fill="rgb(42,42,42)" />
	<circle cx="405.067" cy="25.0449" r="2.5" fill="rgb(42,42,42)" />
	<circle cx="396.489" cy="113.209" r="2.5" fill="rgb(40,40,40)" />
	<circle cx="394.507" cy="101.767" r="2.5" fill="rgb(40,40,40)" />
	<circle cx="412.648" cy="36.0512" r="2.5" fill="rgb(40,40,40)" />
	<circle cx="378.085" cy="114.584" r="2.5" fill="rgb(40,40,40)" />
	<circle cx="449.158" cy="139.925" r="2.5" fill="rgb(39,39,39)" />
	<circle cx="472.977" cy="120.727" r="2.5" fill="rgb(38,38,38)" />
	<circle cx="403.358" cy="41.6236" r="2.5" fill="rgb(36,36,36)" />
	<circle cx="385.89" cy="108.333" r="2.5" fill="rgb(36,36,36)" />
	<circle cx="470.168" cy="112.001" r="2.5" fill="rgb(35,35,35)" />
	<circle cx="465.857" cy="108.999" r="2.5" fill="rgb(34,34,34)" />
	<circle cx="447.833" cy="127.496" r="2.5" fill="rgb(34,34,34)" />
	<circle cx="458.32" cy="106.362" r="2.5" fill="rgb(34,34,34)" />
	<circle cx="391.907" cy="101.417" r="2.5" fill="rgb(33,33,33)" />
	<circle cx="430.723" cy="68.1092" r="2.5" fill="rgb(32,32,32)" />
	<circle cx="414.064" cy="48.0756" r="2.5" fill="rgb(32,32,32)" />
	<circle cx="456.781" cy="118.767" r="2.5" fill="rgb(29,29,29)" />
	<circle cx="436.075" cy="51.5053" r="2.5" fill="rgb(28,28,28)" />
	<circle cx="464.073" cy="107.938" r="2.5" fill="rgb(28,28,28)" />
	<circle cx="399.424" cy="90.4046" r="2.5" fill="rgb(28,28,28)" />
	<circle cx="446.068" cy="90.2755" r="2.5" fill="rgb(27,27,27)" />
	<circle cx="418.114" cy="61.6511" r="2.5" fill="rgb(27,27,27)" />
	<circle cx="455.058" cy="93.443" r="2.5" fill="rgb(27,27,27)" />
	<circle cx="448.97" cy="115.861" r="2.5" fill="rgb(26,26,26)" />
	<circle cx="416.695" cy="72.9814" r="2.5" fill="rgb(25,25,25)" />
	<circle cx="431.042" cy="64.7477" r="2.5" fill="rgb(23,23,23)" />
	<circle cx="429.86" cy="65.9262" r="2.5" fill="rgb(23,23,23)" />
	<circle cx="448.688" cy="104.198" r="2.5" fill="rgb(22,22,22)" />
	<circle cx="408.807" cy="77.6513" r="2.5" fill="rgb(22,22,22)" />
	<circle cx="471.415" cy="84.2441" r="2.5" fill="rgb(22,22,22)" />
	<circle cx="426.411" cy="67.4627" r="2.5" fill="rgb(22,22,22)" />
	<circle cx="452.782" cy="78.7286" r="2.5" fill="rgb(21,21,21)" />
	<circle cx="427.965" cy="71.2857" r="2.5" fill="rgb(21,21,21)" />
	<circle cx="465.267" cy="75.1893" r="2.5" fill="rgb(21,21,21)" />
	<circle cx="440.794" cy="60.7055" r="2.5" fill="rgb(20,20,20)" />
	<circle cx="420.416" cy="76.4856" r="2.5" fill="rgb(18,18,18)" />
	<circle cx="451.613" cy="90.3365" r="2.5" fill="rgb(18,18,18)" />
	<circle cx="456.417" cy="84.0171" r="2.5" fill="rgb(17,17,17)" />
	<circle cx="427.772" cy="69.7123" r="2.5" fill="rgb(15,15,15)" />
	<circle cx="445.747" cy="79.2985" r="2.5" fill="rgb(13,13,13)" />
	<circle cx="450.975" cy="34.8933" r="2.5" fill="rgb(13,13,13)" />
	<circle cx="451.719" cy="66.4986" r="2.5" fill="rgb(12,12,12)" />
	<circle cx="469.759" cy="29.4205" r="2.5" fill="rgb(11,11,11)" />
	<circle cx="443.496" cy="67.8511" r="2.5" fill="rgb(9,9,9)" />
	<circle cx="463.196" cy="44.9594" r="2.5" fill="rgb(8,8,8)" />
	<circle cx="463.279" cy="40.1095" r="2.5" fill="rgb(7,7,7)" />
	<circle cx="452.34" cy="22.8757" r="2.5" fill="rgb(6,6,6)" />
	<circle cx="444.689" cy="57.9225" r="2.5" fill="rgb(6,6,6)" />
	<circle cx="451.493" cy="53.1117" r="2.5" fill="rgb(4,4,4)" />
	<circle cx="450.328" cy="34.3676" r="2.5" fill="rgb(3,3,3)" />
	<circle cx="458.333" cy="41.6667" r="2" fill="rgb(255,0,0)" />
	<circle cx="41.6667" cy="458.333" r="2" fill="rgb(0,255,0)" />
	<circle cx="458.333" cy="41.6667" r="2" fill="rgb(0,255,0)" />
	<circle cx="453.96" cy="55.1413" r="2" fill="rgb(0,255,0)" />
	<circle cx="439.916" cy="57.0009" r="2" fill="rgb(0,255,0)" />
	<circle cx="428.873" cy="62.8592" r="2" fill="rgb(0,255,0)" />
	<circle cx="424.322" cy="76.2749" r="2" fill="rgb(0,255,0)" />
	<circle cx="417.712" cy="81.349" r="2" fill="rgb(0,255,0)" />
	<circle cx="405.684" cy="91.6456" r="2" fill="rgb(0,255,0)" />
	<circle cx="396.32" cy="86.1979" r="2" fill="rgb(0,255,0)" />
	<circle cx="386.711" cy="81.1952" r="2" fill="rgb(0,255,0)" />
	<circle cx="383.277" cy="88.7881" r="2" fill="rgb(0,255,0)" />
	<circle cx="368.367" cy="94.1181" r="2" fill="rgb(0,255,0)" />
	<circle cx="360.646" cy="99.0577" r="2" fill="rgb(0,255,0)" />
	<circle cx="354.434" cy="105.799" r="2" fill="rgb(0,255,0)" />
	<circle cx="347.295" cy="117.06" r="2" fill="rgb(0,255,0)" />
	<circle cx="340.275" cy="131.252" r="2" fill="rgb(0,255,0)" />
	<circle cx="338.03" cy="147.767" r="2" fill="rgb(0,255,0)" />
	<circle cx="336.095" cy="158.426" r="2" fill="rgb(0,255,0)" />
	<circle cx="329.476" cy="164.769" r="2" fill="rgb(0,255,0)" />
	<circle cx="317.835" cy="172.841" r="2" fill="rgb(0,255,0)" />
	<circle cx="307.331" cy="182.347" r="2" fill="rgb(0,255,0)" />
	<circle cx="309.208" cy="194.706" r="2" fill="rgb(0,255,0)" />
	<circle cx="301.915" cy="200.259" r="2" fill="rgb(0,255,0)" />
	<circle cx="293.134" cy="211.377" r="2" fill="rgb(0,255,0)" />
	<circle cx="288.367" cy="219.206" r="2" fill="rgb(0,255,0)" />
	<circle cx="276.722" cy="225.701" r="2" fill="rgb(0,255,0)" />
	<circle cx="271.142" cy="232.973" r="2" fill="rgb(0,255,0)" />
	<circle cx="267.017" cy="247.395" r="2" fill="rgb(0,255,0)" />
	<circle cx="252.878" cy="240.268" r="2" fill="rgb(0,255,0)" />
	<circle cx="246.949" cy="253.135" r="2" fill="rgb(0,255,0)" />
	<circle cx="243.348" cy="260.65" r="2" fill="rgb(0,255,0)" />
	<circle cx="250.205" cy="275.841" r="2" fill="rgb(0,255,0)" />
	<circle cx="243.233" cy="287.206" r="2" fill="rgb(0,255,0)" />
	<circle cx="229.442" cy="293.108" r="2" fill="rgb(0,255,0)" />
	<circle cx="213.489" cy="297.932" r="2" fill="rgb(0,255,0)" />
	<circle cx="201.861" cy="304.456" r="2" fill="rgb(0,255,0)" />
	<circle cx="190.903" cy="313.434" r="2" fill="rgb(0,255,0)" />
	<circle cx="179.555" cy="325.641" r="2" fill="rgb(0,255,0)" />
	<circle cx="170.193" cy="329.157" r="2" fill="rgb(0,255,0)" />
	<circle cx="167.83" cy="339.729" r="2" fill="rgb(0,255,0)" />
	<circle cx="160.223" cy="349.648" r="2" fill="rgb(0,255,0)" />
	<circle cx="153.436" cy="361.125" r="2" fill="rgb(0,255,0)" />
	<circle cx="143.348" cy="374.391" r="2" fill="rgb(0,255,0)" />
	<circle cx="136.872" cy="379.636" r="2" fill="rgb(0,255,0)" />
	<circle cx="129.08" cy="385.904" r="2" fill="rgb(0,255,0)" />
	<circle cx="129.891" cy="399.212" r="2" fill="rgb(0,255,0)" />
	<circle cx="115.702" cy="407.956" r="2" fill="rgb(0,255,0)" />
	<circle cx="104.713" cy="413.912" r="2" fill="rgb(0,255,0)" />
	<circle cx="92.9041" cy="423.162" r="2" fill="rgb(0,255,0)" />
	<circle cx="84.7852" cy="430.334" r="2" fill="rgb(0,255,0)" />
	<circle cx="72.3808" cy="440.174" r="2" fill="rgb(0,255,0)" />
	<circle cx="61.7063" cy="438.326" r="2" fill="rgb(0,255,0)" />
	<circle cx="49.6893" cy="441.768" r="2" fill="rgb(0,255,0)" />
	<circle cx="40.9817" cy="446.685" r="2" fill="rgb(0,255,0)" />
</svg>
