<?xml version="1.0" standalone="no" ?>
<!DOCTYPE svg PUBLIC "-//W3C//DTD SVG 1.1//EN" "http://www.w3.org/Graphics/SVG/1.1/DTD/svg11.dtd">
<svg width="500px" height="500px" xmlns="http://www.w3.org/2000/svg" version="1.1" >
	<polyline points="458.333,41.6667 451.493,53.1117 " fill="transparent" stroke-width="0.5" stroke="rgb(0,0,255)" />
	<polyline points="451.493,53.1117 444.689,57.9225 " fill="transparent" stroke-width="0.5" stroke="rgb(0,0,255)" />
	<polyline points="444.689,57.9225 443.496,67.8511 " fill="transparent" stroke-width="0.5" stroke="rgb(0,0,255)" />
	<polyline points="443.496,67.8511 451.719,66.4986 " fill="transparent" stroke-width="0.5" stroke="rgb(0,0,255)" />
	<polyline points="443.496,67.8511 427.772,69.7123 " fill="transparent" stroke-width="0.5" stroke="rgb(0,0,255)" />
	<polyline points="427.772,69.7123 420.416,76.4856 " fill="transparent" stroke-width="0.5" stroke="rgb(0,0,255)" />
	<polyline points="420.416,76.4856 426.411,67.4627 " fill="transparent" stroke-width="0.5" stroke="rgb(0,0,255)" />
	<polyline points="420.416,76.4856 408.807,77.6513 " fill="transparent" stroke-width="0.5" stroke="rgb(0,0,255)" />
	<polyline points="408.807,77.6513 399.424,90.4046 " fill="transparent" stroke-width="0.5" stroke="rgb(0,0,255)" />
	<polyline points="399.424,90.4046 391.907,101.417 " fill="transparent" stroke-width="0.5" stroke="rgb(0,0,255)" />
	<polyline points="391.907,101.417 385.89,108.333 " fill="transparent" stroke-width="0.5" stroke="rgb(0,0,255)" />
	<polyline points="385.89,108.333 396.489,113.209 " fill="transparent" stroke-width="0.5" stroke="rgb(0,0,255)" />
	<polyline points="385.89,108.333 378.085,114.584 " fill="transparent" stroke-width="0.5" stroke="rgb(0,0,255)" />
	<polyline points="378.085,114.584 388.146,125.708 " fill="transparent" stroke-width="0.5" stroke="rgb(0,0,255)" />
	<polyline points="388.146,125.708 390.491,141.367 " fill="transparent" stroke-width="0.5" stroke="rgb(0,0,255)" />
	<polyline points="388.146,125.708 376.518,119.185 " fill="transparent" stroke-width="0.5" stroke="rgb(0,0,255)" />
	<polyline points="378.085,114.584 368.744,121.574 " fill="transparent" stroke-width="0.5" stroke="rgb(0,0,255)" />
	<polyline points="368.744,121.574 363.203,129.899 " fill="transparent" stroke-width="0.5" stroke="rgb(0,0,255)" />
	<polyline points="363.203,129.899 356.729,121.212 " fill="transparent" stroke-width="0.5" stroke="rgb(0,0,255)" />
	<polyline points="356.729,121.212 340.216,118.957 " fill="transparent" stroke-width="0.5" stroke="rgb(0,0,255)" />
	<polyline points="340.216,118.957 337.43,105.918 " fill="transparent" stroke-width="0.5" stroke="rgb(0,0,255)" />
	<polyline points="363.203,129.899 360.191,137.669 " fill="transparent" stroke-width="0.5" stroke="rgb(0,0,255)" />
	<polyline points="360.191,137.669 358.571,146.691 " fill="transparent" stroke-width="0.5" stroke="rgb(0,0,255)" />
	<polyline points="358.571,146.691 367.365,149.275 " fill="transparent" stroke-width="0.5" stroke="rgb(0,0,255)" />
	<polyline points="367.365,149.275 371.409,159.326 " fill="transparent" stroke-width="0.5" stroke="rgb(0,0,255)" />
	<polyline points="367.365,149.275 359.035,153.101 " fill="transparent" stroke-width="0.5" stroke="rgb(0,0,255)" />
	<polyline points="358.571,146.691 347.264,156.548 " fill="transparent" stroke-width="0.5" stroke="rgb(0,0,255)" />
	<polyline points="347.264,156.548 346.171,165.649 " fill="transparent" stroke-width="0.5" stroke="rgb(0,0,255)" />
	<polyline points="346.171,165.649 337.938,171.327 " fill="transparent" stroke-width="0.5" stroke="rgb(0,0,255)" />
	<polyline points="337.938,171.327 322.923,178.56 " fill="transparent" stroke-width="0.5" stroke="rgb(0,0,255)" />
	<polyline points="322.923,178.56 316.218,183.508 " fill="transparent" stroke-width="0.5" stroke="rgb(0,0,255)" />
	<polyline points="316.218,183.508 305.716,186.165 " fill="transparent" stroke-width="0.5" stroke="rgb(0,0,255)" />
	<polyline points="316.218,183.508 313.312,193.945 " fill="transparent" stroke-width="0.5" stroke="rgb(0,0,255)" />
	<polyline points="322.923,178.56 320.858,192.575 " fill="transparent" stroke-width="0.5" stroke="rgb(0,0,255)" />
	<polyline points="320.858,192.575 324.32,200.156 " fill="transparent" stroke-width="0.5" stroke="rgb(0,0,255)" />
	<polyline points="324.32,200.156 312.934,205.314 " fill="transparent" stroke-width="0.5" stroke="rgb(0,0,255)" />
	<polyline points="312.934,205.314 312.727,217.812 " fill="transparent" stroke-width="0.5" stroke="rgb(0,0,255)" />
	<polyline points="312.727,217.812 305.952,225.167 " fill="transparent" stroke-width="0.5" stroke="rgb(0,0,255)" />
	<polyline points="324.32,200.156 333.347,208.802 " fill="transparent" stroke-width="0.5" stroke="rgb(0,0,255)" />
	<polyline points="333.347,208.802 319.186,209.209 " fill="transparent" stroke-width="0.5" stroke="rgb(0,0,255)" />
	<polyline points="333.347,208.802 345.004,215.275 " fill="transparent" stroke-width="0.5" stroke="rgb(0,0,255)" />
	<polyline points="345.004,215.275 342.041,200.57 " fill="transparent" stroke-width="0.5" stroke="rgb(0,0,255)" />
	<polyline points="345.004,215.275 355.94,219.338 " fill="transparent" stroke-width="0.5" stroke="rgb(0,0,255)" />
	<polyline points="355.94,219.338 342.158,222.614 " fill="transparent" stroke-width="0.5" stroke="rgb(0,0,255)" />
	<polyline points="355.94,219.338 364.054,230.951 " fill="transparent" stroke-width="0.5" stroke="rgb(0,0,255)" />
	<polyline points="364.054,230.951 369.265,241.389 " fill="transparent" stroke-width="0.5" stroke="rgb(0,0,255)" />
	<polyline points="369.265,241.389 381.356,244.562 " fill="transparent" stroke-width="0.5" stroke="rgb(0,0,255)" />
	<polyline points="381.356,244.562 385.38,251.859 " fill="transparent" stroke-width="0.5" stroke="rgb(0,0,255)" />
	<polyline points="385.38,251.859 393.381,254.189 " fill="transparent" stroke-width="0.5" stroke="rgb(0,0,255)" />
	<polyline points="393.381,254.189 404.15,247.842 " fill="transparent" stroke-width="0.5" stroke="rgb(0,0,255)" />
	<polyline points="404.15,247.842 409.837,262.618 " fill="transparent" stroke-width="0.5" stroke="rgb(0,0,255)" />
	<polyline points="409.837,262.618 418.807,271.325 " fill="transparent" stroke-width="0.5" stroke="rgb(0,0,255)" />
	<polyline points="418.807,271.325 409.154,273.937 " fill="transparent" stroke-width="0.5" stroke="rgb(0,0,255)" />
	<polyline points="418.807,271.325 426.798,280.937 " fill="transparent" stroke-width="0.5" stroke="rgb(0,0,255)" />
	<polyline points="426.798,280.937 442.369,286.88 " fill="transparent" stroke-width="0.5" stroke="rgb(0,0,255)" />
	<polyline points="426.798,280.937 411.805,286.026 " fill="transparent" stroke-width="0.5" stroke="rgb(0,0,255)" />
	<polyline points="411.805,286.026 412.905,296.804 " fill="transparent" stroke-width="0.5" stroke="rgb(0,0,255)" />
	<polyline points="412.905,296.804 400.414,297.269 " fill="transparent" stroke-width="0.5" stroke="rgb(0,0,255)" />
	<polyline points="404.15,247.842 395.171,252.245 " fill="transparent" stroke-width="0.5" stroke="rgb(0,0,255)" />
	<polyline points="404.15,247.842 394.829,242.32 " fill="transparent" stroke-width="0.5" stroke="rgb(0,0,255)" />
	<polyline points="393.381,254.189 384.3,252.936 " fill="transparent" stroke-width="0.5" stroke="rgb(0,0,255)" />
	<polyline points="384.3,252.936 369.3,252.894 " fill="transparent" stroke-width="0.5" stroke="rgb(0,0,255)" />
	<polyline points="381.356,244.562 366.356,244.425 " fill="transparent" stroke-width="0.5" stroke="rgb(0,0,255)" />
	<polyline points="381.356,244.562 374.356,240.039 " fill="transparent" stroke-width="0.5" stroke="rgb(0,0,255)" />
	<polyline points="369.265,241.389 358.009,235.952 " fill="transparent" stroke-width="0.5" stroke="rgb(0,0,255)" />
	<polyline points="369.265,241.389 352.673,242.961 " fill="transparent" stroke-width="0.5" stroke="rgb(0,0,255)" />
	<polyline points="369.265,241.389 352.613,242.081 " fill="transparent" stroke-width="0.5" stroke="rgb(0,0,255)" />
	<polyline points="352.613,242.081 353.436,256.224 " fill="transparent" stroke-width="0.5" stroke="rgb(0,0,255)" />
	<polyline points="353.436,256.224 356.36,271.785 " fill="transparent" stroke-width="0.5" stroke="rgb(0,0,255)" />
	<polyline points="353.436,256.224 340.132,257.113 " fill="transparent" stroke-width="0.5" stroke="rgb(0,0,255)" />
	<polyline points="340.132,257.113 340.801,268.76 " fill="transparent" stroke-width="0.5" stroke="rgb(0,0,255)" />
	<polyline points="340.801,268.76 331.231,273.837 " fill="transparent" stroke-width="0.5" stroke="rgb(0,0,255)" />
	<polyline points="340.801,268.76 330.308,266.066 " fill="transparent" stroke-width="0.5" stroke="rgb(0,0,255)" />
	<polyline points="340.801,268.76 325.794,273.807 " fill="transparent" stroke-width="0.5" stroke="rgb(0,0,255)" />
	<polyline points="325.794,273.807 326.761,287.94 " fill="transparent" stroke-width="0.5" stroke="rgb(0,0,255)" />
	<polyline points="326.761,287.94 337.055,296.414 " fill="transparent" stroke-width="0.5" stroke="rgb(0,0,255)" />
	<polyline points="337.055,296.414 338.435,306.319 " fill="transparent" stroke-width="0.5" stroke="rgb(0,0,255)" />
	<polyline points="338.435,306.319 342.161,313.772 " fill="transparent" stroke-width="0.5" stroke="rgb(0,0,255)" />
	<polyline points="342.161,313.772 340.544,324.484 " fill="transparent" stroke-width="0.5" stroke="rgb(0,0,255)" />
	<polyline points="340.544,324.484 343.992,332.978 " fill="transparent" stroke-width="0.5" stroke="rgb(0,0,255)" />
	<polyline points="343.992,332.978 336.642,326.196 " fill="transparent" stroke-width="0.5" stroke="rgb(0,0,255)" />
	<polyline points="343.992,332.978 333.241,337.51 " fill="transparent" stroke-width="0.5" stroke="rgb(0,0,255)" />
	<polyline points="333.241,337.51 322.464,328.316 " fill="transparent" stroke-width="0.5" stroke="rgb(0,0,255)" />
	<polyline points="333.241,337.51 332.597,352.496 " fill="transparent" stroke-width="0.5" stroke="rgb(0,0,255)" />
	<polyline points="332.597,352.496 339.495,357.172 " fill="transparent" stroke-width="0.5" stroke="rgb(0,0,255)" />
	<polyline points="339.495,357.172 345.852,367.935 " fill="transparent" stroke-width="0.5" stroke="rgb(0,0,255)" />
	<polyline points="345.852,367.935 354.401,375.874 " fill="transparent" stroke-width="0.5" stroke="rgb(0,0,255)" />
	<polyline points="354.401,375.874 346.831,362.924 " fill="transparent" stroke-width="0.5" stroke="rgb(0,0,255)" />
	<polyline points="354.401,375.874 344.864,388.514 " fill="transparent" stroke-width="0.5" stroke="rgb(0,0,255)" />
	<polyline points="344.864,388.514 338.085,393.36 " fill="transparent" stroke-width="0.5" stroke="rgb(0,0,255)" />
	<polyline points="338.085,393.36 328.144,403.454 " fill="transparent" stroke-width="0.5" stroke="rgb(0,0,255)" />
	<polyline points="354.401,375.874 347.028,366.832 " fill="transparent" stroke-width="0.5" stroke="rgb(0,0,255)" />
	<polyline points="345.852,367.935 337.565,367.061 " fill="transparent" stroke-width="0.5" stroke="rgb(0,0,255)" />
	<polyline points="337.565,367.061 333.154,359.991 " fill="transparent" stroke-width="0.5" stroke="rgb(0,0,255)" />
	<polyline points="337.565,367.061 332.908,351.928 " fill="transparent" stroke-width="0.5" stroke="rgb(0,0,255)" />
	<polyline points="345.852,367.935 346.534,351.282 " fill="transparent" stroke-width="0.5" stroke="rgb(0,0,255)" />
	<polyline points="339.495,357.172 339.909,348.015 " fill="transparent" stroke-width="0.5" stroke="rgb(0,0,255)" />
	<polyline points="339.495,357.172 327.716,346.591 " fill="transparent" stroke-width="0.5" stroke="rgb(0,0,255)" />
	<polyline points="339.495,357.172 337.64,347.346 " fill="transparent" stroke-width="0.5" stroke="rgb(0,0,255)" />
	<polyline points="339.495,357.172 334.27,350.681 " fill="transparent" stroke-width="0.5" stroke="rgb(0,0,255)" />
	<polyline points="339.495,357.172 327.091,347.332 " fill="transparent" stroke-width="0.5" stroke="rgb(0,0,255)" />
	<polyline points="327.091,347.332 323.453,333.64 " fill="transparent" stroke-width="0.5" stroke="rgb(0,0,255)" />
	<polyline points="340.544,324.484 329.242,317.41 " fill="transparent" stroke-width="0.5" stroke="rgb(0,0,255)" />
	<polyline points="340.544,324.484 328.114,317.688 " fill="transparent" stroke-width="0.5" stroke="rgb(0,0,255)" />
	<polyline points="342.161,313.772 332.514,307.211 " fill="transparent" stroke-width="0.5" stroke="rgb(0,0,255)" />
	<polyline points="342.161,313.772 335.43,308.86 " fill="transparent" stroke-width="0.5" stroke="rgb(0,0,255)" />
	<polyline points="335.43,308.86 323.695,316.796 " fill="transparent" stroke-width="0.5" stroke="rgb(0,0,255)" />
	<polyline points="323.695,316.796 315.676,314.526 " fill="transparent" stroke-width="0.5" stroke="rgb(0,0,255)" />
	<polyline points="323.695,316.796 316.049,311.74 " fill="transparent" stroke-width="0.5" stroke="rgb(0,0,255)" />
	<polyline points="316.049,311.74 304.407,310.978 " fill="transparent" stroke-width="0.5" stroke="rgb(0,0,255)" />
	<polyline points="304.407,310.978 300.673,303.528 " fill="transparent" stroke-width="0.5" stroke="rgb(0,0,255)" />
	<polyline points="342.161,313.772 342.267,305.44 " fill="transparent" stroke-width="0.5" stroke="rgb(0,0,255)" />
	<polyline points="326.761,287.94 310.783,283.197 " fill="transparent" stroke-width="0.5" stroke="rgb(0,0,255)" />
	<polyline points="325.794,273.807 309.359,276.58 " fill="transparent" stroke-width="0.5" stroke="rgb(0,0,255)" />
	<polyline points="309.359,276.58 295.351,269.202 " fill="transparent" stroke-width="0.5" stroke="rgb(0,0,255)" />
	<polyline points="309.359,276.58 313.788,266.694 " fill="transparent" stroke-width="0.5" stroke="rgb(0,0,255)" />
	<polyline points="313.788,266.694 302.688,275.497 " fill="transparent" stroke-width="0.5" stroke="rgb(0,0,255)" />
	<polyline points="302.688,275.497 293.649,273.973 " fill="transparent" stroke-width="0.5" stroke="rgb(0,0,255)" />
	<polyline points="293.649,273.973 284.638,265.31 " fill="transparent" stroke-width="0.5" stroke="rgb(0,0,255)" />
	<polyline points="284.638,265.31 273.757,259.157 " fill="transparent" stroke-width="0.5" stroke="rgb(0,0,255)" />
	<polyline points="273.757,259.157 267.942,267.292 " fill="transparent" stroke-width="0.5" stroke="rgb(0,0,255)" />
	<polyline points="267.942,267.292 257.868,257.331 " fill="transparent" stroke-width="0.5" stroke="rgb(0,0,255)" />
	<polyline points="340.132,257.113 326.852,255.92 " fill="transparent" stroke-width="0.5" stroke="rgb(0,0,255)" />
	<polyline points="340.132,257.113 330.342,255.071 " fill="transparent" stroke-width="0.5" stroke="rgb(0,0,255)" />
	<polyline points="364.054,230.951 375.629,221.411 " fill="transparent" stroke-width="0.5" stroke="rgb(0,0,255)" />
	<polyline points="375.629,221.411 385.381,223.624 " fill="transparent" stroke-width="0.5" stroke="rgb(0,0,255)" />
	<polyline points="385.381,223.624 396.462,227.274 " fill="transparent" stroke-width="0.5" stroke="rgb(0,0,255)" />
	<polyline points="385.381,223.624 372.822,231.826 " fill="transparent" stroke-width="0.5" stroke="rgb(0,0,255)" />
	<polyline points="375.629,221.411 362.651,224.47 " fill="transparent" stroke-width="0.5" stroke="rgb(0,0,255)" />
	<polyline points="375.629,221.411 359.805,221.958 " fill="transparent" stroke-width="0.5" stroke="rgb(0,0,255)" />
	<polyline points="375.629,221.411 363.309,219.295 " fill="transparent" stroke-width="0.5" stroke="rgb(0,0,255)" />
	<polyline points="363.309,219.295 352.992,226.353 " fill="transparent" stroke-width="0.5" stroke="rgb(0,0,255)" />
	<polyline points="352.992,226.353 342.172,221.99 " fill="transparent" stroke-width="0.5" stroke="rgb(0,0,255)" />
	<polyline points="364.054,230.951 355.822,232.251 " fill="transparent" stroke-width="0.5" stroke="rgb(0,0,255)" />
	<polyline points="324.32,200.156 309.351,201.13 " fill="transparent" stroke-width="0.5" stroke="rgb(0,0,255)" />
	<polyline points="309.351,201.13 301.083,211.59 " fill="transparent" stroke-width="0.5" stroke="rgb(0,0,255)" />
	<polyline points="301.083,211.59 291.678,208.192 " fill="transparent" stroke-width="0.5" stroke="rgb(0,0,255)" />
	<polyline points="291.678,208.192 285.657,218.184 " fill="transparent" stroke-width="0.5" stroke="rgb(0,0,255)" />
	<polyline points="285.657,218.184 273.689,224.063 " fill="transparent" stroke-width="0.5" stroke="rgb(0,0,255)" />
	<polyline points="285.657,218.184 277.266,229.599 " fill="transparent" stroke-width="0.5" stroke="rgb(0,0,255)" />
	<polyline points="277.266,229.599 263.917,239.579 " fill="transparent" stroke-width="0.5" stroke="rgb(0,0,255)" />
	<polyline points="291.678,208.192 294.798,198.691 " fill="transparent" stroke-width="0.5" stroke="rgb(0,0,255)" />
	<polyline points="294.798,198.691 288.804,211.527 " fill="transparent" stroke-width="0.5" stroke="rgb(0,0,255)" />
	<polyline points="294.798,198.691 280.229,195.12 " fill="transparent" stroke-width="0.5" stroke="rgb(0,0,255)" />
	<polyline points="280.229,195.12 271.093,207.017 " fill="transparent" stroke-width="0.5" stroke="rgb(0,0,255)" />
	<polyline points="280.229,195.12 284,186.765 " fill="transparent" stroke-width="0.5" stroke="rgb(0,0,255)" />
	<polyline points="284,186.765 288.893,175.263 " fill="transparent" stroke-width="0.5" stroke="rgb(0,0,255)" />
	<polyline points="280.229,195.12 270.6,185.898 " fill="transparent" stroke-width="0.5" stroke="rgb(0,0,255)" />
	<polyline points="270.6,185.898 256.554,184.05 " fill="transparent" stroke-width="0.5" stroke="rgb(0,0,255)" />
	<polyline points="256.554,184.05 266.225,186.595 " fill="transparent" stroke-width="0.5" stroke="rgb(0,0,255)" />
	<polyline points="256.554,184.05 244.062,183.609 " fill="transparent" stroke-width="0.5" stroke="rgb(0,0,255)" />
	<polyline points="244.062,183.609 236.112,168.961 " fill="transparent" stroke-width="0.5" stroke="rgb(0,0,255)" />
	<polyline points="236.112,168.961 226.548,174.049 " fill="transparent" stroke-width="0.5" stroke="rgb(0,0,255)" />
	<polyline points="226.548,174.049 226.227,188.212 " fill="transparent" stroke-width="0.5" stroke="rgb(0,0,255)" />
	<polyline points="226.227,188.212 209.621,189.635 " fill="transparent" stroke-width="0.5" stroke="rgb(0,0,255)" />
	<polyline points="226.227,188.212 227.659,200.629 " fill="transparent" stroke-width="0.5" stroke="rgb(0,0,255)" />
	<polyline points="227.659,200.629 215.283,202.391 " fill="transparent" stroke-width="0.5" stroke="rgb(0,0,255)" />
	<polyline points="215.283,202.391 211.972,210.038 " fill="transparent" stroke-width="0.5" stroke="rgb(0,0,255)" />
	<polyline points="211.972,210.038 217.917,215.878 " fill="transparent" stroke-width="0.5" stroke="rgb(0,0,255)" />
	<polyline points="211.972,210.038 202.47,201.916 " fill="transparent" stroke-width="0.5" stroke="rgb(0,0,255)" />
	<polyline points="202.47,201.916 193.304,202.006 " fill="transparent" stroke-width="0.5" stroke="rgb(0,0,255)" />
	<polyline points="193.304,202.006 199.689,207.361 " fill="transparent" stroke-width="0.5" stroke="rgb(0,0,255)" />
	<polyline points="193.304,202.006 179.706,208.339 " fill="transparent" stroke-width="0.5" stroke="rgb(0,0,255)" />
	<polyline points="179.706,208.339 172.162,201.775 " fill="transparent" stroke-width="0.5" stroke="rgb(0,0,255)" />
	<polyline points="172.162,201.775 165.89,190.962 " fill="transparent" stroke-width="0.5" stroke="rgb(0,0,255)" />
	<polyline points="165.89,190.962 173.466,196.123 " fill="transparent" stroke-width="0.5" stroke="rgb(0,0,255)" />
	<polyline points="172.162,201.775 178.19,216.416 " fill="transparent" stroke-width="0.5" stroke="rgb(0,0,255)" />
	<polyline points="172.162,201.775 164.356,209.286 " fill="transparent" stroke-width="0.5" stroke="rgb(0,0,255)" />
	<polyline points="164.356,209.286 153.861,206.601 " fill="transparent" stroke-width="0.5" stroke="rgb(0,0,255)" />
	<polyline points="153.861,206.601 145.833,208.837 " fill="transparent" stroke-width="0.5" stroke="rgb(0,0,255)" />
	<polyline points="145.833,208.837 140.414,201.444 " fill="transparent" stroke-width="0.5" stroke="rgb(0,0,255)" />
	<polyline points="140.414,201.444 126.185,196.696 " fill="transparent" stroke-width="0.5" stroke="rgb(0,0,255)" />
	<polyline points="126.185,196.696 110.453,202.196 " fill="transparent" stroke-width="0.5" stroke="rgb(0,0,255)" />
	<polyline points="110.453,202.196 125.242,204.703 " fill="transparent" stroke-width="0.5" stroke="rgb(0,0,255)" />
	<polyline points="126.185,196.696 138.812,192.413 " fill="transparent" stroke-width="0.5" stroke="rgb(0,0,255)" />
	<polyline points="145.833,208.837 157.035,212.096 " fill="transparent" stroke-width="0.5" stroke="rgb(0,0,255)" />
	<polyline points="164.356,209.286 173.995,215.859 " fill="transparent" stroke-width="0.5" stroke="rgb(0,0,255)" />
	<polyline points="164.356,209.286 174.613,212.774 " fill="transparent" stroke-width="0.5" stroke="rgb(0,0,255)" />
	<polyline points="164.356,209.286 177.324,212.387 " fill="transparent" stroke-width="0.5" stroke="rgb(0,0,255)" />
	<polyline points="164.356,209.286 172.458,213.574 " fill="transparent" stroke-width="0.5" stroke="rgb(0,0,255)" />
	<polyline points="172.458,213.574 169.065,221.185 " fill="transparent" stroke-width="0.5" stroke="rgb(0,0,255)" />
	<polyline points="169.065,221.185 162.046,230.504 " fill="transparent" stroke-width="0.5" stroke="rgb(0,0,255)" />
	<polyline points="162.046,230.504 170.943,238.052 " fill="transparent" stroke-width="0.5" stroke="rgb(0,0,255)" />
	<polyline points="170.943,238.052 162.666,246.274 " fill="transparent" stroke-width="0.5" stroke="rgb(0,0,255)" />
	<polyline points="162.666,246.274 156.763,254.345 " fill="transparent" stroke-width="0.5" stroke="rgb(0,0,255)" />
	<polyline points="156.763,254.345 148.257,266.7 " fill="transparent" stroke-width="0.5" stroke="rgb(0,0,255)" />
	<polyline points="148.257,266.7 156.578,272.246 " fill="transparent" stroke-width="0.5" stroke="rgb(0,0,255)" />
	<polyline points="156.578,272.246 159.103,283.636 " fill="transparent" stroke-width="0.5" stroke="rgb(0,0,255)" />
	<polyline points="159.103,283.636 165.267,290.42 " fill="transparent" stroke-width="0.5" stroke="rgb(0,0,255)" />
	<polyline points="148.257,266.7 143.898,274.765 " fill="transparent" stroke-width="0.5" stroke="rgb(0,0,255)" />
	<polyline points="143.898,274.765 137.21,269.793 " fill="transparent" stroke-width="0.5" stroke="rgb(0,0,255)" />
	<polyline points="143.898,274.765 138.789,284.317 " fill="transparent" stroke-width="0.5" stroke="rgb(0,0,255)" />
	<polyline points="138.789,284.317 138.008,292.614 " fill="transparent" stroke-width="0.5" stroke="rgb(0,0,255)" />
	<polyline points="138.008,292.614 127.844,302.483 " fill="transparent" stroke-width="0.5" stroke="rgb(0,0,255)" />
	<polyline points="127.844,302.483 124.787,312.876 " fill="transparent" stroke-width="0.5" stroke="rgb(0,0,255)" />
	<polyline points="124.787,312.876 112.352,314.149 " fill="transparent" stroke-width="0.5" stroke="rgb(0,0,255)" />
	<polyline points="112.352,314.149 104.881,328.109 " fill="transparent" stroke-width="0.5" stroke="rgb(0,0,255)" />
	<polyline points="112.352,314.149 100.397,325.762 " fill="transparent" stroke-width="0.5" stroke="rgb(0,0,255)" />
	<polyline points="100.397,325.762 111.37,338.306 " fill="transparent" stroke-width="0.5" stroke="rgb(0,0,255)" />
	<polyline points="100.397,325.762 98.0615,315.183 " fill="transparent" stroke-width="0.5" stroke="rgb(0,0,255)" />
	<polyline points="98.0615,315.183 94.1029,306 " fill="transparent" stroke-width="0.5" stroke="rgb(0,0,255)" />
	<polyline points="94.1029,306 103.75,308.633 " fill="transparent" stroke-width="0.5" stroke="rgb(0,0,255)" />
	<polyline points="94.1029,306 105.418,296.153 " fill="transparent" stroke-width="0.5" stroke="rgb(0,0,255)" />
	<polyline points="94.1029,306 105.146,313.471 " fill="transparent" stroke-width="0.5" stroke="rgb(0,0,255)" />
	<polyline points="124.787,312.876 122.662,323.498 " fill="transparent" stroke-width="0.5" stroke="rgb(0,0,255)" />
	<polyline points="122.662,323.498 118.071,330.453 " fill="transparent" stroke-width="0.5" stroke="rgb(0,0,255)" />
	<polyline points="118.071,330.453 122.194,339.563 " fill="transparent" stroke-width="0.5" stroke="rgb(0,0,255)" />
	<polyline points="122.194,339.563 117.986,348.634 " fill="transparent" stroke-width="0.5" stroke="rgb(0,0,255)" />
	<polyline points="117.986,348.634 111.974,364.179 " fill="transparent" stroke-width="0.5" stroke="rgb(0,0,255)" />
	<polyline points="111.974,364.179 105.293,378.534 " fill="transparent" stroke-width="0.5" stroke="rgb(0,0,255)" />
	<polyline points="105.293,378.534 96.1744,388.262 " fill="transparent" stroke-width="0.5" stroke="rgb(0,0,255)" />
	<polyline points="96.1744,388.262 102.652,402.709 " fill="transparent" stroke-width="0.5" stroke="rgb(0,0,255)" />
	<polyline points="102.652,402.709 110.136,409.342 " fill="transparent" stroke-width="0.5" stroke="rgb(0,0,255)" />
	<polyline points="110.136,409.342 102.427,414.303 " fill="transparent" stroke-width="0.5" stroke="rgb(0,0,255)" />
	<polyline points="96.1744,388.262 88.1336,377.626 " fill="transparent" stroke-width="0.5" stroke="rgb(0,0,255)" />
	<polyline points="96.1744,388.262 84.9476,399.426 " fill="transparent" stroke-width="0.5" stroke="rgb(0,0,255)" />
	<polyline points="84.9476,399.426 81.5063,410.574 " fill="transparent" stroke-width="0.5" stroke="rgb(0,0,255)" />
	<polyline points="84.9476,399.426 80.4708,411.986 " fill="transparent" stroke-width="0.5" stroke="rgb(0,0,255)" />
	<polyline points="80.4708,411.986 76.2838,421.067 " fill="transparent" stroke-width="0.5" stroke="rgb(0,0,255)" />
	<polyline points="76.2838,421.067 63.6639,430.629 " fill="transparent" stroke-width="0.5" stroke="rgb(0,0,255)" />
	<polyline points="63.6639,430.629 55.451,443.181 " fill="transparent" stroke-width="0.5" stroke="rgb(0,0,255)" />
	<polyline points="122.194,339.563 134.467,337.192 " fill="transparent" stroke-width="0.5" stroke="rgb(0,0,255)" />
	<polyline points="134.467,337.192 140.776,343.842 " fill="transparent" stroke-width="0.5" stroke="rgb(0,0,255)" />
	<polyline points="140.776,343.842 145.342,355.479 " fill="transparent" stroke-width="0.5" stroke="rgb(0,0,255)" />
	<polyline points="145.342,355.479 155.597,349.916 " fill="transparent" stroke-width="0.5" stroke="rgb(0,0,255)" />
	<polyline points="145.342,355.479 151.816,342.878 " fill="transparent" stroke-width="0.5" stroke="rgb(0,0,255)" />
	<polyline points="151.816,342.878 150.697,334.62 " fill="transparent" stroke-width="0.5" stroke="rgb(0,0,255)" />
	<polyline points="150.697,334.62 159.477,337.253 " fill="transparent" stroke-width="0.5" stroke="rgb(0,0,255)" />
	<polyline points="145.342,355.479 154.584,349.827 " fill="transparent" stroke-width="0.5" stroke="rgb(0,0,255)" />
	<polyline points="145.342,355.479 155.009,341.902 " fill="transparent" stroke-width="0.5" stroke="rgb(0,0,255)" />
	<polyline points="145.342,355.479 158.188,351.91 " fill="transparent" stroke-width="0.5" stroke="rgb(0,0,255)" />
	<polyline points="158.188,351.91 165.038,345.818 " fill="transparent" stroke-width="0.5" stroke="rgb(0,0,255)" />
	<polyline points="165.038,345.818 179.968,351.088 " fill="transparent" stroke-width="0.5" stroke="rgb(0,0,255)" />
	<polyline points="179.968,351.088 178.842,361.863 " fill="transparent" stroke-width="0.5" stroke="rgb(0,0,255)" />
	<polyline points="179.968,351.088 194.057,343.863 " fill="transparent" stroke-width="0.5" stroke="rgb(0,0,255)" />
	<polyline points="194.057,343.863 209.422,340.041 " fill="transparent" stroke-width="0.5" stroke="rgb(0,0,255)" />
	<polyline points="209.422,340.041 221.796,341.813 " fill="transparent" stroke-width="0.5" stroke="rgb(0,0,255)" />
	<polyline points="221.796,341.813 217.324,328.37 " fill="transparent" stroke-width="0.5" stroke="rgb(0,0,255)" />
	<polyline points="145.342,355.479 155.473,345.576 " fill="transparent" stroke-width="0.5" stroke="rgb(0,0,255)" />
	<polyline points="122.194,339.563 127.729,330.25 " fill="transparent" stroke-width="0.5" stroke="rgb(0,0,255)" />
	<polyline points="118.071,330.453 128.069,330.286 " fill="transparent" stroke-width="0.5" stroke="rgb(0,0,255)" />
	<polyline points="138.789,284.317 148.703,283.01 " fill="transparent" stroke-width="0.5" stroke="rgb(0,0,255)" />
	<polyline points="170.943,238.052 183.558,247.62 " fill="transparent" stroke-width="0.5" stroke="rgb(0,0,255)" />
	<polyline points="183.558,247.62 195.913,249.521 " fill="transparent" stroke-width="0.5" stroke="rgb(0,0,255)" />
	<polyline points="195.913,249.521 199.57,257.926 " fill="transparent" stroke-width="0.5" stroke="rgb(0,0,255)" />
	<polyline points="199.57,257.926 212.752,259.931 " fill="transparent" stroke-width="0.5" stroke="rgb(0,0,255)" />
	<polyline points="199.57,257.926 206.779,250.996 " fill="transparent" stroke-width="0.5" stroke="rgb(0,0,255)" />
	<polyline points="199.57,257.926 209.141,252.85 " fill="transparent" stroke-width="0.5" stroke="rgb(0,0,255)" />
	<polyline points="169.065,221.185 180.906,225.19 " fill="transparent" stroke-width="0.5" stroke="rgb(0,0,255)" />
	<polyline points="180.906,225.19 191.777,237.823 " fill="transparent" stroke-width="0.5" stroke="rgb(0,0,255)" />
	<polyline points="191.777,237.823 202.562,238.841 " fill="transparent" stroke-width="0.5" stroke="rgb(0,0,255)" />
	<polyline points="172.162,201.775 181.287,213.68 " fill="transparent" stroke-width="0.5" stroke="rgb(0,0,255)" />
	<polyline points="172.162,201.775 187.93,200.334 " fill="transparent" stroke-width="0.5" stroke="rgb(0,0,255)" />
	<polyline points="187.93,200.334 184.47,211.475 " fill="transparent" stroke-width="0.5" stroke="rgb(0,0,255)" />
	<polyline points="187.93,200.334 197.282,205.802 " fill="transparent" stroke-width="0.5" stroke="rgb(0,0,255)" />
	<polyline points="172.162,201.775 180.856,209.555 " fill="transparent" stroke-width="0.5" stroke="rgb(0,0,255)" />
	<polyline points="172.162,201.775 182.343,207.472 " fill="transparent" stroke-width="0.5" stroke="rgb(0,0,255)" />
	<polyline points="202.47,201.916 205.085,209.829 " fill="transparent" stroke-width="0.5" stroke="rgb(0,0,255)" />
	<polyline points="205.085,209.829 211.058,216.782 " fill="transparent" stroke-width="0.5" stroke="rgb(0,0,255)" />
	<polyline points="211.058,216.782 216.138,227.285 " fill="transparent" stroke-width="0.5" stroke="rgb(0,0,255)" />
	<polyline points="216.138,227.285 212.043,236.408 " fill="transparent" stroke-width="0.5" stroke="rgb(0,0,255)" />
	<polyline points="212.043,236.408 220.676,242.953 " fill="transparent" stroke-width="0.5" stroke="rgb(0,0,255)" />
	<polyline points="220.676,242.953 229.638,247.389 " fill="transparent" stroke-width="0.5" stroke="rgb(0,0,255)" />
	<polyline points="211.058,216.782 223.555,216.527 " fill="transparent" stroke-width="0.5" stroke="rgb(0,0,255)" />
	<polyline points="236.112,168.961 240.434,159.027 " fill="transparent" stroke-width="0.5" stroke="rgb(0,0,255)" />
	<polyline points="240.434,159.027 236.132,144.657 " fill="transparent" stroke-width="0.5" stroke="rgb(0,0,255)" />
	<polyline points="236.132,144.657 224.257,138.593 " fill="transparent" stroke-width="0.5" stroke="rgb(0,0,255)" />
	<polyline points="224.257,138.593 226.252,126.253 " fill="transparent" stroke-width="0.5" stroke="rgb(0,0,255)" />
	<polyline points="226.252,126.253 226.214,117.086 " fill="transparent" stroke-width="0.5" stroke="rgb(0,0,255)" />
	<polyline points="226.214,117.086 226.479,101.255 " fill="transparent" stroke-width="0.5" stroke="rgb(0,0,255)" />
	<polyline points="226.479,101.255 224.833,90.5477 " fill="transparent" stroke-width="0.5" stroke="rgb(0,0,255)" />
	<polyline points="224.833,90.5477 210.804,81.5509 " fill="transparent" stroke-width="0.5" stroke="rgb(0,0,255)" />
	<polyline points="210.804,81.5509 218.537,90.2864 " fill="transparent" stroke-width="0.5" stroke="rgb(0,0,255)" />
	<polyline points="210.804,81.5509 203.381,90.5514 " fill="transparent" stroke-width="0.5" stroke="rgb(0,0,255)" />
	<polyline points="203.381,90.5514 196.217,78.3295 " fill="transparent" stroke-width="0.5" stroke="rgb(0,0,255)" />
	<polyline points="210.804,81.5509 210.845,64.8843 " fill="transparent" stroke-width="0.5" stroke="rgb(0,0,255)" />
	<polyline points="210.845,64.8843 208.168,81.3346 " fill="transparent" stroke-width="0.5" stroke="rgb(0,0,255)" />
	<polyline points="210.845,64.8843 204.953,75.9084 " fill="transparent" stroke-width="0.5" stroke="rgb(0,0,255)" />
	<polyline points="210.845,64.8843 209.375,80.6492 " fill="transparent" stroke-width="0.5" stroke="rgb(0,0,255)" />
	<polyline points="210.845,64.8843 211.332,74.8724 " fill="transparent" stroke-width="0.5" stroke="rgb(0,0,255)" />
	<polyline points="224.833,90.5477 227.361,101.937 " fill="transparent" stroke-width="0.5" stroke="rgb(0,0,255)" />
	<polyline points="226.214,117.086 226.131,130.42 " fill="transparent" stroke-width="0.5" stroke="rgb(0,0,255)" />
	<polyline points="226.252,126.253 226.754,134.571 " fill="transparent" stroke-width="0.5" stroke="rgb(0,0,255)" />
	<polyline points="224.257,138.593 207.677,136.897 " fill="transparent" stroke-width="0.5" stroke="rgb(0,0,255)" />
	<polyline points="207.677,136.897 197.421,133.407 " fill="transparent" stroke-width="0.5" stroke="rgb(0,0,255)" />
	<polyline points="197.421,133.407 192.052,124.971 " fill="transparent" stroke-width="0.5" stroke="rgb(0,0,255)" />
	<polyline points="192.052,124.971 175.434,126.242 " fill="transparent" stroke-width="0.5" stroke="rgb(0,0,255)" />
	<polyline points="175.434,126.242 164.408,118.746 " fill="transparent" stroke-width="0.5" stroke="rgb(0,0,255)" />
	<polyline points="164.408,118.746 160.699,111.283 " fill="transparent" stroke-width="0.5" stroke="rgb(0,0,255)" />
	<polyline points="160.699,111.283 149.03,100.582 " fill="transparent" stroke-width="0.5" stroke="rgb(0,0,255)" />
	<polyline points="149.03,100.582 137.528,98.627 " fill="transparent" stroke-width="0.5" stroke="rgb(0,0,255)" />
	<polyline points="137.528,98.627 136.07,114.393 " fill="transparent" stroke-width="0.5" stroke="rgb(0,0,255)" />
	<polyline points="160.699,111.283 167.975,119.309 " fill="transparent" stroke-width="0.5" stroke="rgb(0,0,255)" />
	<polyline points="164.408,118.746 170.555,131.509 " fill="transparent" stroke-width="0.5" stroke="rgb(0,0,255)" />
	<polyline points="164.408,118.746 175.215,131.433 " fill="transparent" stroke-width="0.5" stroke="rgb(0,0,255)" />
	<polyline points="192.052,124.971 200.955,134.897 " fill="transparent" stroke-width="0.5" stroke="rgb(0,0,255)" />
	<polyline points="197.421,133.407 208.473,139.247 " fill="transparent" stroke-width="0.5" stroke="rgb(0,0,255)" />
	<polyline points="197.421,133.407 203.864,145.081 " fill="transparent" stroke-width="0.5" stroke="rgb(0,0,255)" />
	<polyline points="197.421,133.407 193.774,145.363 " fill="transparent" stroke-width="0.5" stroke="rgb(0,0,255)" />
	<polyline points="193.774,145.363 196.92,154.856 " fill="transparent" stroke-width="0.5" stroke="rgb(0,0,255)" />
	<polyline points="193.774,145.363 207.634,154.621 " fill="transparent" stroke-width="0.5" stroke="rgb(0,0,255)" />
	<polyline points="207.677,136.897 208.404,148.541 " fill="transparent" stroke-width="0.5" stroke="rgb(0,0,255)" />
	<polyline points="208.404,148.541 212.05,164.804 " fill="transparent" stroke-width="0.5" stroke="rgb(0,0,255)" />
	<polyline points="224.257,138.593 228.294,148.646 " fill="transparent" stroke-width="0.5" stroke="rgb(0,0,255)" />
	<polyline points="236.132,144.657 242.973,153.057 " fill="transparent" stroke-width="0.5" stroke="rgb(0,0,255)" />
	<polyline points="240.434,159.027 237.822,172.951 " fill="transparent" stroke-width="0.5" stroke="rgb(0,0,255)" />
	<polyline points="244.062,183.609 238.538,198.447 " fill="transparent" stroke-width="0.5" stroke="rgb(0,0,255)" />
	<polyline points="238.538,198.447 239.112,209.265 " fill="transparent" stroke-width="0.5" stroke="rgb(0,0,255)" />
	<polyline points="239.112,209.265 245.966,214.006 " fill="transparent" stroke-width="0.5" stroke="rgb(0,0,255)" />
	<polyline points="245.966,214.006 245.404,223.156 " fill="transparent" stroke-width="0.5" stroke="rgb(0,0,255)" />
	<polyline points="245.404,223.156 233.928,218.2 " fill="transparent" stroke-width="0.5" stroke="rgb(0,0,255)" />
	<polyline points="244.062,183.609 247.809,191.975 " fill="transparent" stroke-width="0.5" stroke="rgb(0,0,255)" />
	<polyline points="358.571,146.691 350.176,153.539 " fill="transparent" stroke-width="0.5" stroke="rgb(0,0,255)" />
	<polyline points="363.203,129.899 350.815,131.57 " fill="transparent" stroke-width="0.5" stroke="rgb(0,0,255)" />
	<polyline points="350.815,131.57 342.749,129.477 " fill="transparent" stroke-width="0.5" stroke="rgb(0,0,255)" />
	<polyline points="342.749,129.477 326.984,130.941 " fill="transparent" stroke-width="0.5" stroke="rgb(0,0,255)" />
	<polyline points="342.749,129.477 340.97,138.469 " fill="transparent" stroke-width="0.5" stroke="rgb(0,0,255)" />
	<polyline points="342.749,129.477 339.281,137.962 " fill="transparent" stroke-width="0.5" stroke="rgb(0,0,255)" />
	<polyline points="378.085,114.584 366.794,107.492 " fill="transparent" stroke-width="0.5" stroke="rgb(0,0,255)" />
	<polyline points="366.794,107.492 357.71,97.732 " fill="transparent" stroke-width="0.5" stroke="rgb(0,0,255)" />
	<polyline points="357.71,97.732 354.573,82.2125 " fill="transparent" stroke-width="0.5" stroke="rgb(0,0,255)" />
	<polyline points="357.71,97.732 349.124,85.4317 " fill="transparent" stroke-width="0.5" stroke="rgb(0,0,255)" />
	<polyline points="349.124,85.4317 341.598,77.6398 " fill="transparent" stroke-width="0.5" stroke="rgb(0,0,255)" />
	<polyline points="341.598,77.6398 325.818,76.3445 " fill="transparent" stroke-width="0.5" stroke="rgb(0,0,255)" />
	<polyline points="325.818,76.3445 323.935,90.3855 " fill="transparent" stroke-width="0.5" stroke="rgb(0,0,255)" />
	<polyline points="325.818,76.3445 328.9,91.875 " fill="transparent" stroke-width="0.5" stroke="rgb(0,0,255)" />
	<polyline points="325.818,76.3445 314.102,84.3095 " fill="transparent" stroke-width="0.5" stroke="rgb(0,0,255)" />
	<polyline points="314.102,84.3095 303.621,79.186 " fill="transparent" stroke-width="0.5" stroke="rgb(0,0,255)" />
	<polyline points="303.621,79.186 304.439,70.893 " fill="transparent" stroke-width="0.5" stroke="rgb(0,0,255)" />
	<polyline points="304.439,70.893 296.367,64.991 " fill="transparent" stroke-width="0.5" stroke="rgb(0,0,255)" />
	<polyline points="296.367,64.991 304.954,61.7849 " fill="transparent" stroke-width="0.5" stroke="rgb(0,0,255)" />
	<polyline points="304.954,61.7849 314.893,52.8962 " fill="transparent" stroke-width="0.5" stroke="rgb(0,0,255)" />
	<polyline points="314.893,52.8962 321.499,45.3891 " fill="transparent" stroke-width="0.5" stroke="rgb(0,0,255)" />
	<polyline points="304.439,70.893 307.479,83.0177 " fill="transparent" stroke-width="0.5" stroke="rgb(0,0,255)" />
	<polyline points="303.621,79.186 297.295,85.8201 " fill="transparent" stroke-width="0.5" stroke="rgb(0,0,255)" />
	<polyline points="297.295,85.8201 299.801,93.7677 " fill="transparent" stroke-width="0.5" stroke="rgb(0,0,255)" />
	<polyline points="299.801,93.7677 294.032,105.788 " fill="transparent" stroke-width="0.5" stroke="rgb(0,0,255)" />
	<polyline points="314.102,84.3095 319.961,99.9126 " fill="transparent" stroke-width="0.5" stroke="rgb(0,0,255)" />
	<polyline points="385.89,108.333 394.507,101.767 " fill="transparent" stroke-width="0.5" stroke="rgb(0,0,255)" />
	<polyline points="394.507,101.767 402.486,93.2557 " fill="transparent" stroke-width="0.5" stroke="rgb(0,0,255)" />
	<polyline points="408.807,77.6513 416.695,72.9814 " fill="transparent" stroke-width="0.5" stroke="rgb(0,0,255)" />
	<polyline points="420.416,76.4856 427.965,71.2857 " fill="transparent" stroke-width="0.5" stroke="rgb(0,0,255)" />
	<polyline points="420.416,76.4856 429.86,65.9262 " fill="transparent" stroke-width="0.5" stroke="rgb(0,0,255)" />
	<polyline points="429.86,65.9262 418.114,61.6511 " fill="transparent" stroke-width="0.5" stroke="rgb(0,0,255)" />
	<polyline points="418.114,61.6511 430.723,68.1092 " fill="transparent" stroke-width="0.5" stroke="rgb(0,0,255)" />
	<polyline points="418.114,61.6511 414.064,48.0756 " fill="transparent" stroke-width="0.5" stroke="rgb(0,0,255)" />
	<polyline points="414.064,48.0756 403.358,41.6236 " fill="transparent" stroke-width="0.5" stroke="rgb(0,0,255)" />
	<polyline points="403.358,41.6236 412.648,36.0512 " fill="transparent" stroke-width="0.5" stroke="rgb(0,0,255)" />
	<polyline points="412.648,36.0512 414.083,21.12 " fill="transparent" stroke-width="0.5" stroke="rgb(0,0,255)" />
	<polyline points="403.358,41.6236 405.067,25.0449 " fill="transparent" stroke-width="0.5" stroke="rgb(0,0,255)" />
	<polyline points="420.416,76.4856 431.042,64.7477 " fill="transparent" stroke-width="0.5" stroke="rgb(0,0,255)" />
	<polyline points="431.042,64.7477 436.075,51.5053 " fill="transparent" stroke-width="0.5" stroke="rgb(0,0,255)" />
	<polyline points="427.772,69.7123 440.794,60.7055 " fill="transparent" stroke-width="0.5" stroke="rgb(0,0,255)" />
	<polyline points="443.496,67.8511 445.747,79.2985 " fill="transparent" stroke-width="0.5" stroke="rgb(0,0,255)" />
	<polyline points="445.747,79.2985 456.417,84.0171 " fill="transparent" stroke-width="0.5" stroke="rgb(0,0,255)" />
	<polyline points="456.417,84.0171 465.267,75.1893 " fill="transparent" stroke-width="0.5" stroke="rgb(0,0,255)" />
	<polyline points="456.417,84.0171 471.415,84.2441 " fill="transparent" stroke-width="0.5" stroke="rgb(0,0,255)" />
	<polyline points="445.747,79.2985 451.613,90.3365 " fill="transparent" stroke-width="0.5" stroke="rgb(0,0,255)" />
	<polyline points="451.613,90.3365 452.782,78.7286 " fill="transparent" stroke-width="0.5" stroke="rgb(0,0,255)" />
	<polyline points="451.613,90.3365 448.688,104.198 " fill="transparent" stroke-width="0.5" stroke="rgb(0,0,255)" />
	<polyline points="448.688,104.198 455.058,93.443 " fill="transparent" stroke-width="0.5" stroke="rgb(0,0,255)" />
	<polyline points="448.688,104.198 464.073,107.938 " fill="transparent" stroke-width="0.5" stroke="rgb(0,0,255)" />
	<polyline points="448.688,104.198 448.97,115.861 " fill="transparent" stroke-width="0.5" stroke="rgb(0,0,255)" />
	<polyline points="448.97,115.861 456.781,118.767 " fill="transparent" stroke-width="0.5" stroke="rgb(0,0,255)" />
	<polyline points="456.781,118.767 447.833,127.496 " fill="transparent" stroke-width="0.5" stroke="rgb(0,0,255)" />
	<polyline points="447.833,127.496 449.158,139.925 " fill="transparent" stroke-width="0.5" stroke="rgb(0,0,255)" />
	<polyline points="449.158,139.925 460.884,149.281 " fill="transparent" stroke-width="0.5" stroke="rgb(0,0,255)" />
	<polyline points="460.884,149.281 461.8,132.639 " fill="transparent" stroke-width="0.5" stroke="rgb(0,0,255)" />
	<polyline points="456.781,118.767 458.32,106.362 " fill="transparent" stroke-width="0.5" stroke="rgb(0,0,255)" />
	<polyline points="456.781,118.767 465.857,108.999 " fill="transparent" stroke-width="0.5" stroke="rgb(0,0,255)" />
	<polyline points="456.781,118.767 470.168,112.001 " fill="transparent" stroke-width="0.5" stroke="rgb(0,0,255)" />
	<polyline points="470.168,112.001 472.977,120.727 " fill="transparent" stroke-width="0.5" stroke="rgb(0,0,255)" />
	<polyline points="472.977,120.727 477.23,132.481 " fill="transparent" stroke-width="0.5" stroke="rgb(0,0,255)" />
	<polyline points="472.977,120.727 477.307,104.632 " fill="transparent" stroke-width="0.5" stroke="rgb(0,0,255)" />
	<polyline points="448.688,104.198 446.068,90.2755 " fill="transparent" stroke-width="0.5" stroke="rgb(0,0,255)" />
	<polyline points="458.333,41.6667 450.328,34.3676 " fill="transparent" stroke-width="0.5" stroke="rgb(0,0,255)" />
	<polyline points="450.328,34.3676 452.34,22.8757 " fill="transparent" stroke-width="0.5" stroke="rgb(0,0,255)" />
	<polyline points="450.328,34.3676 463.279,40.1095 " fill="transparent" stroke-width="0.5" stroke="rgb(0,0,255)" />
	<polyline points="463.279,40.1095 469.759,29.4205 " fill="transparent" stroke-width="0.5" stroke="rgb(0,0,255)" />
	<polyline points="450.328,34.3676 463.196,44.9594 " fill="transparent" stroke-width="0.5" stroke="rgb(0,0,255)" />
	<polyline points="463.196,44.9594 450.975,34.8933 " fill="transparent" stroke-width="0.5" stroke="rgb(0,0,255)" />
	<circle cx="458.333" cy="41.6667" r="2" fill="rgb(255,0,0)" />
	<circle cx="41.6667" cy="458.333" r="2" fill="rgb(0,255,0)" />
	<polyline points="458.333,41.6667 453.96,55.1413 439.916,57.0009 428.873,62.8592 424.322,76.2749 417.712,81.349 405.684,91.6456 396.32,86.1979 386.711,81.1952 383.277,88.7881 368.367,94.1181 360.646,99.0577 354.434,105.799 347.295,117.06 340.275,131.252 338.03,147.767 336.095,158.426 329.476,164.769 317.835,172.841 307.331,182.347 309.208,194.706 301.915,200.259 293.134,211.377 288.367,219.206 276.722,225.701 271.142,232.973 267.017,247.395 252.878,240.268 246.949,253.135 243.348,260.65 250.205,275.841 243.233,287.206 229.442,293.108 213.489,297.932 201.861,304.456 190.903,313.434 179.555,325.641 170.193,329.157 167.83,339.729 160.223,349.648 153.436,361.125 143.348,374.391 136.872,379.636 129.08,385.904 129.891,399.212 115.702,407.956 104.713,413.912 92.9041,423.162 84.7852,430.334 72.3808,440.174 61.7063,438.326 49.6893,441.768 40.9817,446.685 " fill="transparent" stroke-width="3" stroke="rgb(0,0,0)" />
</svg>
