<?xml version="1.0" standalone="no" ?>
<!DOCTYPE svg PUBLIC "-//W3C//DTD SVG 1.1//EN" "http://www.w3.org/Graphics/SVG/1.1/DTD/svg11.dtd">
<svg width="500px" height="500px" xmlns="http://www.w3.org/2000/svg" version="1.1" >
	<circle cx="326.075" cy="86.7998" r="2.5" fill="rgb(255,255,255)" />
	<circle cx="345.334" cy="94.7673" r="2.5" fill="rgb(254,254,254)" />
	<circle cx="353.963" cy="11.5512" r="2.5" fill="rgb(253,253,253)" />
	<circle cx="331.955" cy="97.9295" r="2.5" fill="rgb(244,244,244)" />
	<circle cx="329.523" cy="97.3375" r="2.5" fill="rgb(244,244,244)" />
	<circle cx="438.059" cy="79.9391" r="2.5" fill="rgb(240,240,240)" />
	<circle cx="348.992" cy="24.4054" r="2.5" fill="rgb(234,234,234)" />
	<circle cx="428.61" cy="125.402" r="2.5" fill="rgb(231,231,231)" />
	<circle cx="331.708" cy="128.119" r="2.5" fill="rgb(225,225,225)" />
	<circle cx="407.465" cy="16.2231" r="2.5" fill="rgb(224,224,224)" />
	<circle cx="447.007" cy="97.3755" r="2.5" fill="rgb(220,220,220)" />
	<circle cx="399.183" cy="140.342" r="2.5" fill="rgb(218,218,218)" />
	<circle cx="409.757" cy="140.218" r="2.5" fill="rgb(218,218,218)" />
	<circle cx="350.944" cy="39.4942" r="2.5" fill="rgb(213,213,213)" />
	<circle cx="402.773" cy="36.7256" r="2.5" fill="rgb(209,209,209)" />
	<circle cx="474.822" cy="142.511" r="2.5" fill="rgb(209,209,209)" />
	<circle cx="325.728" cy="161.445" r="2.5" fill="rgb(205,205,205)" />
	<circle cx="340.557" cy="145.88" r="2.5" fill="rgb(202,202,202)" />
	<circle cx="452.636" cy="114.609" r="2.5" fill="rgb(201,201,201)" />
	<circle cx="393.493" cy="52.5627" r="2.5" fill="rgb(199,199,199)" />
	<circle cx="450.611" cy="58.6411" r="2.5" fill="rgb(197,197,197)" />
	<circle cx="478.617" cy="193.796" r="2.5" fill="rgb(197,197,197)" />
	<circle cx="480.2" cy="237.317" r="2.5" fill="rgb(196,196,196)" />
	<circle cx="384.865" cy="57.615" r="2.5" fill="rgb(196,196,196)" />
	<circle cx="455.117" cy="178.057" r="2.5" fill="rgb(195,195,195)" />
	<circle cx="328.036" cy="38.319" r="2.5" fill="rgb(191,191,191)" />
	<circle cx="468.073" cy="49.0997" r="2.5" fill="rgb(191,191,191)" />
	<circle cx="355.969" cy="56.543" r="2.5" fill="rgb(190,190,190)" />
	<circle cx="499.713" cy="251.807" r="2.5" fill="rgb(188,188,188)" />
	<circle cx="329.569" cy="46.8426" r="2.5" fill="rgb(187,187,187)" />
	<circle cx="247.627" cy="1.17762" r="2.5" fill="rgb(185,185,185)" />
	<circle cx="412.309" cy="65.4187" r="2.5" fill="rgb(185,185,185)" />
	<circle cx="326.041" cy="206.18" r="2.5" fill="rgb(185,185,185)" />
	<circle cx="393.768" cy="72.4239" r="2.5" fill="rgb(184,184,184)" />
	<circle cx="401.183" cy="70.5611" r="2.5" fill="rgb(184,184,184)" />
	<circle cx="404.43" cy="233.349" r="2.5" fill="rgb(184,184,184)" />
	<circle cx="414.093" cy="68.8494" r="2.5" fill="rgb(183,183,183)" />
	<circle cx="249.914" cy="8.22395" r="2.5" fill="rgb(183,183,183)" />
	<circle cx="325.214" cy="53.2298" r="2.5" fill="rgb(182,182,182)" />
	<circle cx="455.551" cy="158.675" r="2.5" fill="rgb(181,181,181)" />
	<circle cx="414.504" cy="72.736" r="2.5" fill="rgb(180,180,180)" />
	<circle cx="465.809" cy="64.7708" r="2.5" fill="rgb(180,180,180)" />
	<circle cx="278.065" cy="31.7153" r="2.5" fill="rgb(178,178,178)" />
	<circle cx="273.56" cy="28.6242" r="2.5" fill="rgb(178,178,178)" />
	<circle cx="242.892" cy="14.7098" r="2.5" fill="rgb(176,176,176)" />
	<circle cx="325.699" cy="62.8859" r="2.5" fill="rgb(176,176,176)" />
	<circle cx="243.784" cy="189.924" r="2.5" fill="rgb(176,176,176)" />
	<circle cx="274.951" cy="36.1894" r="2.5" fill="rgb(175,175,175)" />
	<circle cx="306.013" cy="403.632" r="2.5" fill="rgb(174,174,174)" />
	<circle cx="409.263" cy="83.6334" r="2.5" fill="rgb(174,174,174)" />
	<circle cx="88.2889" cy="6.06814" r="2.5" fill="rgb(173,173,173)" />
	<circle cx="189.57" cy="122.381" r="2.5" fill="rgb(171,171,171)" />
	<circle cx="197.382" cy="130.547" r="2.5" fill="rgb(171,171,171)" />
	<circle cx="241.485" cy="116.557" r="2.5" fill="rgb(171,171,171)" />
	<circle cx="268.982" cy="42.007" r="2.5" fill="rgb(171,171,171)" />
	<circle cx="221.782" cy="130.047" r="2.5" fill="rgb(170,170,170)" />
	<circle cx="88.4687" cy="17.2412" r="2.5" fill="rgb(169,169,169)" />
	<circle cx="308.943" cy="69.6051" r="2.5" fill="rgb(168,168,168)" />
	<circle cx="392.249" cy="164.286" r="2.5" fill="rgb(168,168,168)" />
	<circle cx="408.456" cy="236.659" r="2.5" fill="rgb(167,167,167)" />
	<circle cx="268.222" cy="51.4218" r="2.5" fill="rgb(166,166,166)" />
	<circle cx="428.493" cy="218.252" r="2.5" fill="rgb(166,166,166)" />
	<circle cx="373.235" cy="268.106" r="2.5" fill="rgb(165,165,165)" />
	<circle cx="252.301" cy="156.851" r="2.5" fill="rgb(165,165,165)" />
	<circle cx="406.292" cy="132.509" r="2.5" fill="rgb(165,165,165)" />
	<circle cx="425.561" cy="270.146" r="2.5" fill="rgb(165,165,165)" />
	<circle cx="256.753" cy="142.341" r="2.5" fill="rgb(164,164,164)" />
	<circle cx="238.324" cy="132.192" r="2.5" fill="rgb(164,164,164)" />
	<circle cx="64.9038" cy="41.6686" r="2.5" fill="rgb(164,164,164)" />
	<circle cx="84.7198" cy="32.9124" r="2.5" fill="rgb(164,164,164)" />
	<circle cx="441.121" cy="240.8" r="2.5" fill="rgb(163,163,163)" />
	<circle cx="435.911" cy="240.621" r="2.5" fill="rgb(163,163,163)" />
	<circle cx="271.574" cy="60.1631" r="2.5" fill="rgb(162,162,162)" />
	<circle cx="69.1603" cy="46.5408" r="2.5" fill="rgb(161,161,161)" />
	<circle cx="455.802" cy="233.814" r="2.5" fill="rgb(161,161,161)" />
	<circle cx="423.745" cy="98.77" r="2.5" fill="rgb(161,161,161)" />
	<circle cx="283.986" cy="71.2832" r="2.5" fill="rgb(161,161,161)" />
	<circle cx="178.249" cy="133.656" r="2.5" fill="rgb(161,161,161)" />
	<circle cx="79.4272" cy="44.7791" r="2.5" fill="rgb(160,160,160)" />
	<circle cx="426.916" cy="228.828" r="2.5" fill="rgb(160,160,160)" />
	<circle cx="406.788" cy="278.324" r="2.5" fill="rgb(160,160,160)" />
	<circle cx="171.791" cy="119.982" r="2.5" fill="rgb(159,159,159)" />
	<circle cx="396.735" cy="179.032" r="2.5" fill="rgb(159,159,159)" />
	<circle cx="448.188" cy="99.3651" r="2.5" fill="rgb(159,159,159)" />
	<circle cx="458.033" cy="245.573" r="2.5" fill="rgb(159,159,159)" />
	<circle cx="415.296" cy="250.799" r="2.5" fill="rgb(159,159,159)" />
	<circle cx="222.058" cy="69.7671" r="2.5" fill="rgb(158,158,158)" />
	<circle cx="449.243" cy="256.792" r="2.5" fill="rgb(158,158,158)" />
	<circle cx="273.789" cy="71.3157" r="2.5" fill="rgb(158,158,158)" />
	<circle cx="162.142" cy="129.217" r="2.5" fill="rgb(158,158,158)" />
	<circle cx="85.8723" cy="51.0248" r="2.5" fill="rgb(157,157,157)" />
	<circle cx="211.325" cy="57.3306" r="2.5" fill="rgb(157,157,157)" />
	<circle cx="450.884" cy="241.089" r="2.5" fill="rgb(157,157,157)" />
	<circle cx="216.996" cy="54.8314" r="2.5" fill="rgb(157,157,157)" />
	<circle cx="182.486" cy="34.7195" r="2.5" fill="rgb(157,157,157)" />
	<circle cx="448.528" cy="217.138" r="2.5" fill="rgb(157,157,157)" />
	<circle cx="373.748" cy="206.888" r="2.5" fill="rgb(157,157,157)" />
	<circle cx="442.391" cy="136.414" r="2.5" fill="rgb(157,157,157)" />
	<circle cx="227.341" cy="70.7" r="2.5" fill="rgb(157,157,157)" />
	<circle cx="167.427" cy="141.587" r="2.5" fill="rgb(157,157,157)" />
	<circle cx="214.126" cy="75.3678" r="2.5" fill="rgb(156,156,156)" />
	<circle cx="196.111" cy="53.7896" r="2.5" fill="rgb(156,156,156)" />
	<circle cx="100.379" cy="129.663" r="2.5" fill="rgb(156,156,156)" />
	<circle cx="476.23" cy="211.858" r="2.5" fill="rgb(156,156,156)" />
	<circle cx="369.409" cy="184.602" r="2.5" fill="rgb(156,156,156)" />
	<circle cx="195.559" cy="57.8938" r="2.5" fill="rgb(156,156,156)" />
	<circle cx="431.337" cy="238.357" r="2.5" fill="rgb(156,156,156)" />
	<circle cx="147.283" cy="167.66" r="2.5" fill="rgb(155,155,155)" />
	<circle cx="199.183" cy="55.412" r="2.5" fill="rgb(155,155,155)" />
	<circle cx="403.619" cy="187.556" r="2.5" fill="rgb(155,155,155)" />
	<circle cx="400.61" cy="186.542" r="2.5" fill="rgb(155,155,155)" />
	<circle cx="278.99" cy="82.9986" r="2.5" fill="rgb(155,155,155)" />
	<circle cx="270.074" cy="77.2676" r="2.5" fill="rgb(155,155,155)" />
	<circle cx="400.574" cy="196.272" r="2.5" fill="rgb(155,155,155)" />
	<circle cx="182.156" cy="53.5764" r="2.5" fill="rgb(154,154,154)" />
	<circle cx="274.605" cy="287.11" r="2.5" fill="rgb(154,154,154)" />
	<circle cx="149.54" cy="40.2586" r="2.5" fill="rgb(154,154,154)" />
	<circle cx="23.4841" cy="86.6091" r="2.5" fill="rgb(153,153,153)" />
	<circle cx="122.815" cy="292.8" r="2.5" fill="rgb(153,153,153)" />
	<circle cx="199.385" cy="70.2946" r="2.5" fill="rgb(153,153,153)" />
	<circle cx="192.335" cy="66.3254" r="2.5" fill="rgb(153,153,153)" />
	<circle cx="193.295" cy="64.0098" r="2.5" fill="rgb(152,152,152)" />
	<circle cx="58.1827" cy="73.4272" r="2.5" fill="rgb(152,152,152)" />
	<circle cx="406.459" cy="201.836" r="2.5" fill="rgb(152,152,152)" />
	<circle cx="50.231" cy="219.924" r="2.5" fill="rgb(152,152,152)" />
	<circle cx="449.93" cy="268.547" r="2.5" fill="rgb(152,152,152)" />
	<circle cx="157.883" cy="95.1173" r="2.5" fill="rgb(152,152,152)" />
	<circle cx="460.354" cy="139.996" r="2.5" fill="rgb(151,151,151)" />
	<circle cx="114.795" cy="205.747" r="2.5" fill="rgb(151,151,151)" />
	<circle cx="268.496" cy="84.573" r="2.5" fill="rgb(151,151,151)" />
	<circle cx="429.792" cy="247.101" r="2.5" fill="rgb(151,151,151)" />
	<circle cx="149.218" cy="148.817" r="2.5" fill="rgb(151,151,151)" />
	<circle cx="456.033" cy="253.64" r="2.5" fill="rgb(151,151,151)" />
	<circle cx="153.655" cy="55.3577" r="2.5" fill="rgb(151,151,151)" />
	<circle cx="367.862" cy="240.363" r="2.5" fill="rgb(151,151,151)" />
	<circle cx="195.59" cy="74.4845" r="2.5" fill="rgb(150,150,150)" />
	<circle cx="335.542" cy="245.175" r="2.5" fill="rgb(150,150,150)" />
	<circle cx="423.579" cy="116.115" r="2.5" fill="rgb(150,150,150)" />
	<circle cx="110.003" cy="248.362" r="2.5" fill="rgb(149,149,149)" />
	<circle cx="200.639" cy="184.889" r="2.5" fill="rgb(149,149,149)" />
	<circle cx="200.173" cy="182.672" r="2.5" fill="rgb(149,149,149)" />
	<circle cx="141.741" cy="112.625" r="2.5" fill="rgb(149,149,149)" />
	<circle cx="226.308" cy="136.383" r="2.5" fill="rgb(149,149,149)" />
	<circle cx="159.156" cy="112.204" r="2.5" fill="rgb(149,149,149)" />
	<circle cx="225.22" cy="121.286" r="2.5" fill="rgb(149,149,149)" />
	<circle cx="170.166" cy="214.309" r="2.5" fill="rgb(149,149,149)" />
	<circle cx="217.328" cy="119.371" r="2.5" fill="rgb(148,148,148)" />
	<circle cx="58.7294" cy="84.1943" r="2.5" fill="rgb(148,148,148)" />
	<circle cx="209.328" cy="90.6378" r="2.5" fill="rgb(148,148,148)" />
	<circle cx="153.066" cy="171.112" r="2.5" fill="rgb(148,148,148)" />
	<circle cx="173.278" cy="151.09" r="2.5" fill="rgb(147,147,147)" />
	<circle cx="153.713" cy="170.254" r="2.5" fill="rgb(147,147,147)" />
	<circle cx="135.531" cy="124.257" r="2.5" fill="rgb(147,147,147)" />
	<circle cx="142.21" cy="127.616" r="2.5" fill="rgb(147,147,147)" />
	<circle cx="103.289" cy="125.493" r="2.5" fill="rgb(147,147,147)" />
	<circle cx="173.873" cy="79.5624" r="2.5" fill="rgb(146,146,146)" />
	<circle cx="359.88" cy="114.317" r="2.5" fill="rgb(146,146,146)" />
	<circle cx="208.938" cy="101.403" r="2.5" fill="rgb(146,146,146)" />
	<circle cx="202.996" cy="178.542" r="2.5" fill="rgb(146,146,146)" />
	<circle cx="212.579" cy="109.953" r="2.5" fill="rgb(146,146,146)" />
	<circle cx="179.649" cy="84.4835" r="2.5" fill="rgb(146,146,146)" />
	<circle cx="286.044" cy="107.83" r="2.5" fill="rgb(145,145,145)" />
	<circle cx="399.449" cy="211.4" r="2.5" fill="rgb(145,145,145)" />
	<circle cx="37.2565" cy="102.59" r="2.5" fill="rgb(145,145,145)" />
	<circle cx="158.001" cy="77.6138" r="2.5" fill="rgb(145,145,145)" />
	<circle cx="466.29" cy="150.752" r="2.5" fill="rgb(145,145,145)" />
	<circle cx="277.304" cy="104.781" r="2.5" fill="rgb(145,145,145)" />
	<circle cx="392.804" cy="122.031" r="2.5" fill="rgb(145,145,145)" />
	<circle cx="283.494" cy="263.758" r="2.5" fill="rgb(145,145,145)" />
	<circle cx="75.3605" cy="88.6853" r="2.5" fill="rgb(144,144,144)" />
	<circle cx="126.74" cy="179.495" r="2.5" fill="rgb(144,144,144)" />
	<circle cx="209.892" cy="141.45" r="2.5" fill="rgb(144,144,144)" />
	<circle cx="217.837" cy="159.052" r="2.5" fill="rgb(144,144,144)" />
	<circle cx="155.869" cy="147.135" r="2.5" fill="rgb(144,144,144)" />
	<circle cx="294.73" cy="198.31" r="2.5" fill="rgb(144,144,144)" />
	<circle cx="141.564" cy="144.383" r="2.5" fill="rgb(144,144,144)" />
	<circle cx="190.762" cy="148.85" r="2.5" fill="rgb(144,144,144)" />
	<circle cx="451.006" cy="266.324" r="2.5" fill="rgb(144,144,144)" />
	<circle cx="374.648" cy="208.337" r="2.5" fill="rgb(143,143,143)" />
	<circle cx="71.4153" cy="92.8565" r="2.5" fill="rgb(143,143,143)" />
	<circle cx="158.403" cy="204.861" r="2.5" fill="rgb(143,143,143)" />
	<circle cx="207.234" cy="116.979" r="2.5" fill="rgb(143,143,143)" />
	<circle cx="165.243" cy="89.07" r="2.5" fill="rgb(143,143,143)" />
	<circle cx="174.063" cy="133.008" r="2.5" fill="rgb(143,143,143)" />
	<circle cx="150.097" cy="194.121" r="2.5" fill="rgb(143,143,143)" />
	<circle cx="130.273" cy="192.012" r="2.5" fill="rgb(142,142,142)" />
	<circle cx="85.1833" cy="92.4695" r="2.5" fill="rgb(142,142,142)" />
	<circle cx="145.977" cy="157.026" r="2.5" fill="rgb(142,142,142)" />
	<circle cx="356.337" cy="245.431" r="2.5" fill="rgb(142,142,142)" />
	<circle cx="278.916" cy="115.359" r="2.5" fill="rgb(141,141,141)" />
	<circle cx="178.167" cy="103.943" r="2.5" fill="rgb(140,140,140)" />
	<circle cx="178.183" cy="159.953" r="2.5" fill="rgb(140,140,140)" />
	<circle cx="84.098" cy="100.41" r="2.5" fill="rgb(140,140,140)" />
	<circle cx="147.213" cy="95.6688" r="2.5" fill="rgb(139,139,139)" />
	<circle cx="373.921" cy="130.573" r="2.5" fill="rgb(139,139,139)" />
	<circle cx="141.98" cy="109.987" r="2.5" fill="rgb(139,139,139)" />
	<circle cx="281.094" cy="276.025" r="2.5" fill="rgb(139,139,139)" />
	<circle cx="283.015" cy="283.775" r="2.5" fill="rgb(139,139,139)" />
	<circle cx="188.925" cy="117.751" r="2.5" fill="rgb(139,139,139)" />
	<circle cx="373.928" cy="217.148" r="2.5" fill="rgb(138,138,138)" />
	<circle cx="125.054" cy="97.8031" r="2.5" fill="rgb(138,138,138)" />
	<circle cx="470.671" cy="164.137" r="2.5" fill="rgb(137,137,137)" />
	<circle cx="125.873" cy="99.6651" r="2.5" fill="rgb(137,137,137)" />
	<circle cx="187.926" cy="132.475" r="2.5" fill="rgb(137,137,137)" />
	<circle cx="402.898" cy="225.139" r="2.5" fill="rgb(136,136,136)" />
	<circle cx="256.812" cy="119.012" r="2.5" fill="rgb(135,135,135)" />
	<circle cx="258.6" cy="120.067" r="2.5" fill="rgb(135,135,135)" />
	<circle cx="347.88" cy="256.702" r="2.5" fill="rgb(135,135,135)" />
	<circle cx="138.85" cy="112.03" r="2.5" fill="rgb(134,134,134)" />
	<circle cx="231.099" cy="167.704" r="2.5" fill="rgb(134,134,134)" />
	<circle cx="449.014" cy="290.098" r="2.5" fill="rgb(134,134,134)" />
	<circle cx="224.924" cy="173.247" r="2.5" fill="rgb(133,133,133)" />
	<circle cx="371.534" cy="144.441" r="2.5" fill="rgb(133,133,133)" />
	<circle cx="400.869" cy="232.234" r="2.5" fill="rgb(132,132,132)" />
	<circle cx="249.691" cy="130.299" r="2.5" fill="rgb(130,130,130)" />
	<circle cx="166.226" cy="137.637" r="2.5" fill="rgb(129,129,129)" />
	<circle cx="188.314" cy="173.409" r="2.5" fill="rgb(128,128,128)" />
	<circle cx="182.621" cy="185.2" r="2.5" fill="rgb(127,127,127)" />
	<circle cx="454.853" cy="184.764" r="2.5" fill="rgb(127,127,127)" />
	<circle cx="192.009" cy="171.656" r="2.5" fill="rgb(127,127,127)" />
	<circle cx="381.716" cy="158.437" r="2.5" fill="rgb(127,127,127)" />
	<circle cx="123.716" cy="218.257" r="2.5" fill="rgb(126,126,126)" />
	<circle cx="391.746" cy="161.486" r="2.5" fill="rgb(126,126,126)" />
	<circle cx="256.43" cy="147.182" r="2.5" fill="rgb(125,125,125)" />
	<circle cx="264.288" cy="154.467" r="2.5" fill="rgb(124,124,124)" />
	<circle cx="162.735" cy="169.795" r="2.5" fill="rgb(123,123,123)" />
	<circle cx="259.846" cy="155.584" r="2.5" fill="rgb(123,123,123)" />
	<circle cx="328.391" cy="147.816" r="2.5" fill="rgb(123,123,123)" />
	<circle cx="188.368" cy="185.002" r="2.5" fill="rgb(122,122,122)" />
	<circle cx="261.231" cy="163.857" r="2.5" fill="rgb(122,122,122)" />
	<circle cx="239.911" cy="212.714" r="2.5" fill="rgb(122,122,122)" />
	<circle cx="385.31" cy="171.5" r="2.5" fill="rgb(121,121,121)" />
	<circle cx="293.91" cy="185.606" r="2.5" fill="rgb(120,120,120)" />
	<circle cx="245.148" cy="199.595" r="2.5" fill="rgb(120,120,120)" />
	<circle cx="330.673" cy="156.236" r="2.5" fill="rgb(119,119,119)" />
	<circle cx="257.309" cy="164.453" r="2.5" fill="rgb(119,119,119)" />
	<circle cx="255.976" cy="169.729" r="2.5" fill="rgb(119,119,119)" />
	<circle cx="308.621" cy="194.82" r="2.5" fill="rgb(119,119,119)" />
	<circle cx="297.175" cy="190.04" r="2.5" fill="rgb(119,119,119)" />
	<circle cx="218.359" cy="273.15" r="2.5" fill="rgb(119,119,119)" />
	<circle cx="123.529" cy="267.178" r="2.5" fill="rgb(117,117,117)" />
	<circle cx="324.789" cy="161.858" r="2.5" fill="rgb(116,116,116)" />
	<circle cx="157.819" cy="284.37" r="2.5" fill="rgb(116,116,116)" />
	<circle cx="292.18" cy="199.249" r="2.5" fill="rgb(115,115,115)" />
	<circle cx="380.07" cy="182.916" r="2.5" fill="rgb(115,115,115)" />
	<circle cx="162.999" cy="217.625" r="2.5" fill="rgb(115,115,115)" />
	<circle cx="347.338" cy="170.254" r="2.5" fill="rgb(115,115,115)" />
	<circle cx="349.279" cy="175.307" r="2.5" fill="rgb(113,113,113)" />
	<circle cx="296.647" cy="267.371" r="2.5" fill="rgb(112,112,112)" />
	<circle cx="182.803" cy="311.057" r="2.5" fill="rgb(112,112,112)" />
	<circle cx="346.766" cy="177.716" r="2.5" fill="rgb(112,112,112)" />
	<circle cx="254.843" cy="216.627" r="2.5" fill="rgb(112,112,112)" />
	<circle cx="309.187" cy="219.085" r="2.5" fill="rgb(111,111,111)" />
	<circle cx="241.682" cy="168.936" r="2.5" fill="rgb(111,111,111)" />
	<circle cx="282.311" cy="209.909" r="2.5" fill="rgb(110,110,110)" />
	<circle cx="373.772" cy="196.814" r="2.5" fill="rgb(108,108,108)" />
	<circle cx="277.057" cy="242.525" r="2.5" fill="rgb(108,108,108)" />
	<circle cx="276.446" cy="238.642" r="2.5" fill="rgb(108,108,108)" />
	<circle cx="350.305" cy="189.23" r="2.5" fill="rgb(108,108,108)" />
	<circle cx="303.475" cy="229.719" r="2.5" fill="rgb(107,107,107)" />
	<circle cx="357.274" cy="198.873" r="2.5" fill="rgb(105,105,105)" />
	<circle cx="340.137" cy="193.878" r="2.5" fill="rgb(105,105,105)" />
	<circle cx="239.343" cy="185.246" r="2.5" fill="rgb(105,105,105)" />
	<circle cx="205.268" cy="232.049" r="2.5" fill="rgb(104,104,104)" />
	<circle cx="370.54" cy="206.643" r="2.5" fill="rgb(104,104,104)" />
	<circle cx="340.501" cy="201.542" r="2.5" fill="rgb(102,102,102)" />
	<circle cx="127.072" cy="214.49" r="2.5" fill="rgb(101,101,101)" />
	<circle cx="344.538" cy="299.008" r="2.5" fill="rgb(101,101,101)" />
	<circle cx="171.766" cy="214.112" r="2.5" fill="rgb(100,100,100)" />
	<circle cx="101.327" cy="179.882" r="2.5" fill="rgb(99,99,99)" />
	<circle cx="159.442" cy="211.218" r="2.5" fill="rgb(99,99,99)" />
	<circle cx="340.615" cy="209.118" r="2.5" fill="rgb(99,99,99)" />
	<circle cx="160.765" cy="215.632" r="2.5" fill="rgb(98,98,98)" />
	<circle cx="259.756" cy="240.134" r="2.5" fill="rgb(98,98,98)" />
	<circle cx="232.871" cy="202.929" r="2.5" fill="rgb(97,97,97)" />
	<circle cx="296.192" cy="323.265" r="2.5" fill="rgb(97,97,97)" />
	<circle cx="116.693" cy="191.255" r="2.5" fill="rgb(97,97,97)" />
	<circle cx="364.168" cy="310.844" r="2.5" fill="rgb(97,97,97)" />
	<circle cx="290.985" cy="321.405" r="2.5" fill="rgb(96,96,96)" />
	<circle cx="219.114" cy="200.8" r="2.5" fill="rgb(96,96,96)" />
	<circle cx="342.038" cy="308.851" r="2.5" fill="rgb(96,96,96)" />
	<circle cx="165.399" cy="381.318" r="2.5" fill="rgb(96,96,96)" />
	<circle cx="225.827" cy="205.237" r="2.5" fill="rgb(96,96,96)" />
	<circle cx="138.32" cy="230.638" r="2.5" fill="rgb(96,96,96)" />
	<circle cx="157.687" cy="226.414" r="2.5" fill="rgb(95,95,95)" />
	<circle cx="326.729" cy="213.689" r="2.5" fill="rgb(95,95,95)" />
	<circle cx="330.693" cy="311.404" r="2.5" fill="rgb(94,94,94)" />
	<circle cx="325.859" cy="314.253" r="2.5" fill="rgb(94,94,94)" />
	<circle cx="173.939" cy="204.735" r="2.5" fill="rgb(93,93,93)" />
	<circle cx="476.772" cy="284.649" r="2.5" fill="rgb(93,93,93)" />
	<circle cx="354.7" cy="310.106" r="2.5" fill="rgb(93,93,93)" />
	<circle cx="224.64" cy="215.494" r="2.5" fill="rgb(92,92,92)" />
	<circle cx="324.828" cy="351.889" r="2.5" fill="rgb(92,92,92)" />
	<circle cx="6.47177" cy="154.676" r="2.5" fill="rgb(92,92,92)" />
	<circle cx="110.532" cy="241.788" r="2.5" fill="rgb(92,92,92)" />
	<circle cx="351.525" cy="318.79" r="2.5" fill="rgb(92,92,92)" />
	<circle cx="354.247" cy="319.194" r="2.5" fill="rgb(92,92,92)" />
	<circle cx="250.305" cy="357.022" r="2.5" fill="rgb(91,91,91)" />
	<circle cx="26.3555" cy="153.084" r="2.5" fill="rgb(91,91,91)" />
	<circle cx="250.342" cy="232.323" r="2.5" fill="rgb(91,91,91)" />
	<circle cx="220.21" cy="219.291" r="2.5" fill="rgb(91,91,91)" />
	<circle cx="271.801" cy="334.454" r="2.5" fill="rgb(91,91,91)" />
	<circle cx="234.657" cy="226.664" r="2.5" fill="rgb(90,90,90)" />
	<circle cx="464.98" cy="288.806" r="2.5" fill="rgb(90,90,90)" />
	<circle cx="320.713" cy="322.414" r="2.5" fill="rgb(89,89,89)" />
	<circle cx="14.6651" cy="162.033" r="2.5" fill="rgb(89,89,89)" />
	<circle cx="417.606" cy="301.065" r="2.5" fill="rgb(89,89,89)" />
	<circle cx="314.238" cy="225.056" r="2.5" fill="rgb(89,89,89)" />
	<circle cx="318.219" cy="230.975" r="2.5" fill="rgb(87,87,87)" />
	<circle cx="414.947" cy="327.957" r="2.5" fill="rgb(87,87,87)" />
	<circle cx="225.164" cy="233.578" r="2.5" fill="rgb(87,87,87)" />
	<circle cx="351.844" cy="330.405" r="2.5" fill="rgb(86,86,86)" />
	<circle cx="464.822" cy="297.088" r="2.5" fill="rgb(85,85,85)" />
	<circle cx="474.458" cy="298.241" r="2.5" fill="rgb(85,85,85)" />
	<circle cx="363.127" cy="332.889" r="2.5" fill="rgb(85,85,85)" />
	<circle cx="18.1029" cy="175.447" r="2.5" fill="rgb(85,85,85)" />
	<circle cx="483.373" cy="301.064" r="2.5" fill="rgb(85,85,85)" />
	<circle cx="33.0692" cy="176.036" r="2.5" fill="rgb(84,84,84)" />
	<circle cx="163.743" cy="208.853" r="2.5" fill="rgb(84,84,84)" />
	<circle cx="122.917" cy="261.432" r="2.5" fill="rgb(83,83,83)" />
	<circle cx="480.204" cy="303.424" r="2.5" fill="rgb(83,83,83)" />
	<circle cx="309.431" cy="239.071" r="2.5" fill="rgb(83,83,83)" />
	<circle cx="149.168" cy="292.396" r="2.5" fill="rgb(82,82,82)" />
	<circle cx="304.582" cy="346.871" r="2.5" fill="rgb(82,82,82)" />
	<circle cx="29.7648" cy="184.015" r="2.5" fill="rgb(82,82,82)" />
	<circle cx="139.124" cy="209.962" r="2.5" fill="rgb(82,82,82)" />
	<circle cx="69.4259" cy="358.09" r="2.5" fill="rgb(82,82,82)" />
	<circle cx="61.8311" cy="252.011" r="2.5" fill="rgb(81,81,81)" />
	<circle cx="59.591" cy="188.108" r="2.5" fill="rgb(81,81,81)" />
	<circle cx="71.2512" cy="194.058" r="2.5" fill="rgb(81,81,81)" />
	<circle cx="109.736" cy="299.568" r="2.5" fill="rgb(80,80,80)" />
	<circle cx="50.5815" cy="259.811" r="2.5" fill="rgb(80,80,80)" />
	<circle cx="213.655" cy="267.209" r="2.5" fill="rgb(80,80,80)" />
	<circle cx="135.729" cy="258.61" r="2.5" fill="rgb(80,80,80)" />
	<circle cx="142.82" cy="234.631" r="2.5" fill="rgb(79,79,79)" />
	<circle cx="466.455" cy="308.114" r="2.5" fill="rgb(79,79,79)" />
	<circle cx="277.436" cy="237.337" r="2.5" fill="rgb(79,79,79)" />
	<circle cx="382.73" cy="278.831" r="2.5" fill="rgb(79,79,79)" />
	<circle cx="128.419" cy="226.584" r="2.5" fill="rgb(79,79,79)" />
	<circle cx="293.781" cy="244.796" r="2.5" fill="rgb(78,78,78)" />
	<circle cx="41.3912" cy="197.405" r="2.5" fill="rgb(78,78,78)" />
	<circle cx="7.75571" cy="200.952" r="2.5" fill="rgb(78,78,78)" />
	<circle cx="77.4295" cy="317.655" r="2.5" fill="rgb(78,78,78)" />
	<circle cx="447.344" cy="359.523" r="2.5" fill="rgb(78,78,78)" />
	<circle cx="90.887" cy="208.186" r="2.5" fill="rgb(78,78,78)" />
	<circle cx="121.541" cy="238.651" r="2.5" fill="rgb(77,77,77)" />
	<circle cx="147.041" cy="227.524" r="2.5" fill="rgb(77,77,77)" />
	<circle cx="184.758" cy="247.862" r="2.5" fill="rgb(77,77,77)" />
	<circle cx="158.53" cy="307.222" r="2.5" fill="rgb(76,76,76)" />
	<circle cx="74.989" cy="356.611" r="2.5" fill="rgb(76,76,76)" />
	<circle cx="88.8305" cy="278.455" r="2.5" fill="rgb(76,76,76)" />
	<circle cx="114.355" cy="238.464" r="2.5" fill="rgb(76,76,76)" />
	<circle cx="330.264" cy="363.394" r="2.5" fill="rgb(76,76,76)" />
	<circle cx="222.298" cy="283.848" r="2.5" fill="rgb(76,76,76)" />
	<circle cx="111.957" cy="220.228" r="2.5" fill="rgb(76,76,76)" />
	<circle cx="31.8081" cy="358.036" r="2.5" fill="rgb(75,75,75)" />
	<circle cx="32.1342" cy="360.769" r="2.5" fill="rgb(75,75,75)" />
	<circle cx="117.744" cy="303.277" r="2.5" fill="rgb(75,75,75)" />
	<circle cx="402.722" cy="289.331" r="2.5" fill="rgb(75,75,75)" />
	<circle cx="139.376" cy="296.632" r="2.5" fill="rgb(75,75,75)" />
	<circle cx="265.796" cy="246.507" r="2.5" fill="rgb(75,75,75)" />
	<circle cx="36.9076" cy="364.391" r="2.5" fill="rgb(75,75,75)" />
	<circle cx="130.075" cy="297.415" r="2.5" fill="rgb(74,74,74)" />
	<circle cx="130.483" cy="287.513" r="2.5" fill="rgb(74,74,74)" />
	<circle cx="35.1285" cy="214.265" r="2.5" fill="rgb(74,74,74)" />
	<circle cx="118.556" cy="308.16" r="2.5" fill="rgb(74,74,74)" />
	<circle cx="279.546" cy="253.007" r="2.5" fill="rgb(74,74,74)" />
	<circle cx="155.895" cy="286.514" r="2.5" fill="rgb(74,74,74)" />
	<circle cx="160.284" cy="245.013" r="2.5" fill="rgb(74,74,74)" />
	<circle cx="86.6134" cy="278.205" r="2.5" fill="rgb(74,74,74)" />
	<circle cx="111.086" cy="251.99" r="2.5" fill="rgb(74,74,74)" />
	<circle cx="153.498" cy="299.553" r="2.5" fill="rgb(74,74,74)" />
	<circle cx="273.609" cy="252.524" r="2.5" fill="rgb(73,73,73)" />
	<circle cx="210.914" cy="344.106" r="2.5" fill="rgb(73,73,73)" />
	<circle cx="120.836" cy="254.444" r="2.5" fill="rgb(73,73,73)" />
	<circle cx="188.514" cy="366.695" r="2.5" fill="rgb(73,73,73)" />
	<circle cx="160.132" cy="321.75" r="2.5" fill="rgb(73,73,73)" />
	<circle cx="419.046" cy="365.453" r="2.5" fill="rgb(73,73,73)" />
	<circle cx="427.739" cy="366.277" r="2.5" fill="rgb(73,73,73)" />
	<circle cx="61.332" cy="341.29" r="2.5" fill="rgb(73,73,73)" />
	<circle cx="336.086" cy="371.121" r="2.5" fill="rgb(73,73,73)" />
	<circle cx="249.925" cy="298.285" r="2.5" fill="rgb(73,73,73)" />
	<circle cx="248.931" cy="281.727" r="2.5" fill="rgb(73,73,73)" />
	<circle cx="193.034" cy="290.073" r="2.5" fill="rgb(72,72,72)" />
	<circle cx="100.548" cy="294.862" r="2.5" fill="rgb(72,72,72)" />
	<circle cx="28.2317" cy="379.383" r="2.5" fill="rgb(72,72,72)" />
	<circle cx="184.854" cy="265.205" r="2.5" fill="rgb(72,72,72)" />
	<circle cx="148.707" cy="314.322" r="2.5" fill="rgb(72,72,72)" />
	<circle cx="163.087" cy="378.063" r="2.5" fill="rgb(72,72,72)" />
	<circle cx="105.285" cy="307.504" r="2.5" fill="rgb(72,72,72)" />
	<circle cx="106.895" cy="308.442" r="2.5" fill="rgb(72,72,72)" />
	<circle cx="49.2279" cy="224.849" r="2.5" fill="rgb(72,72,72)" />
	<circle cx="212.853" cy="347.785" r="2.5" fill="rgb(71,71,71)" />
	<circle cx="150.537" cy="247.471" r="2.5" fill="rgb(71,71,71)" />
	<circle cx="211.913" cy="299.267" r="2.5" fill="rgb(71,71,71)" />
	<circle cx="343.278" cy="270.752" r="2.5" fill="rgb(71,71,71)" />
	<circle cx="327.206" cy="266.088" r="2.5" fill="rgb(71,71,71)" />
	<circle cx="123.241" cy="324.227" r="2.5" fill="rgb(71,71,71)" />
	<circle cx="52.4729" cy="228.722" r="2.5" fill="rgb(71,71,71)" />
	<circle cx="224.786" cy="296.802" r="2.5" fill="rgb(71,71,71)" />
	<circle cx="18.2022" cy="289.521" r="2.5" fill="rgb(70,70,70)" />
	<circle cx="261.188" cy="350.752" r="2.5" fill="rgb(70,70,70)" />
	<circle cx="145.225" cy="323.955" r="2.5" fill="rgb(70,70,70)" />
	<circle cx="419.094" cy="371.997" r="2.5" fill="rgb(70,70,70)" />
	<circle cx="247.131" cy="307.943" r="2.5" fill="rgb(70,70,70)" />
	<circle cx="237.853" cy="312.94" r="2.5" fill="rgb(69,69,69)" />
	<circle cx="166.389" cy="266.619" r="2.5" fill="rgb(69,69,69)" />
	<circle cx="169.781" cy="293.653" r="2.5" fill="rgb(69,69,69)" />
	<circle cx="260.486" cy="261.554" r="2.5" fill="rgb(69,69,69)" />
	<circle cx="152.462" cy="276.656" r="2.5" fill="rgb(69,69,69)" />
	<circle cx="159.372" cy="336.818" r="2.5" fill="rgb(69,69,69)" />
	<circle cx="336.841" cy="275.329" r="2.5" fill="rgb(69,69,69)" />
	<circle cx="134.539" cy="253.918" r="2.5" fill="rgb(69,69,69)" />
	<circle cx="59.6533" cy="238.869" r="2.5" fill="rgb(69,69,69)" />
	<circle cx="242.049" cy="317.505" r="2.5" fill="rgb(68,68,68)" />
	<circle cx="93.7062" cy="324.93" r="2.5" fill="rgb(68,68,68)" />
	<circle cx="131.411" cy="306.057" r="2.5" fill="rgb(68,68,68)" />
	<circle cx="330.707" cy="382.545" r="2.5" fill="rgb(68,68,68)" />
	<circle cx="195.168" cy="430.892" r="2.5" fill="rgb(68,68,68)" />
	<circle cx="322.421" cy="274.016" r="2.5" fill="rgb(68,68,68)" />
	<circle cx="32.1901" cy="306.809" r="2.5" fill="rgb(67,67,67)" />
	<circle cx="41.7094" cy="311.617" r="2.5" fill="rgb(67,67,67)" />
	<circle cx="10.2869" cy="306.911" r="2.5" fill="rgb(67,67,67)" />
	<circle cx="337.673" cy="395.975" r="2.5" fill="rgb(66,66,66)" />
	<circle cx="89.7991" cy="252.634" r="2.5" fill="rgb(66,66,66)" />
	<circle cx="154.863" cy="279.06" r="2.5" fill="rgb(66,66,66)" />
	<circle cx="339.116" cy="283.194" r="2.5" fill="rgb(66,66,66)" />
	<circle cx="261.259" cy="271.799" r="2.5" fill="rgb(66,66,66)" />
	<circle cx="232.778" cy="324.211" r="2.5" fill="rgb(66,66,66)" />
	<circle cx="111.149" cy="260.172" r="2.5" fill="rgb(65,65,65)" />
	<circle cx="243.076" cy="308.116" r="2.5" fill="rgb(65,65,65)" />
	<circle cx="33.4632" cy="385.007" r="2.5" fill="rgb(65,65,65)" />
	<circle cx="298.103" cy="275.686" r="2.5" fill="rgb(65,65,65)" />
	<circle cx="48.4964" cy="306.455" r="2.5" fill="rgb(64,64,64)" />
	<circle cx="39.8728" cy="336.825" r="2.5" fill="rgb(64,64,64)" />
	<circle cx="333.649" cy="391.534" r="2.5" fill="rgb(64,64,64)" />
	<circle cx="295.206" cy="276.708" r="2.5" fill="rgb(64,64,64)" />
	<circle cx="45.579" cy="308.254" r="2.5" fill="rgb(64,64,64)" />
	<circle cx="28.4725" cy="322.749" r="2.5" fill="rgb(64,64,64)" />
	<circle cx="201.616" cy="370.726" r="2.5" fill="rgb(64,64,64)" />
	<circle cx="65.6935" cy="317.918" r="2.5" fill="rgb(63,63,63)" />
	<circle cx="61.2449" cy="316.513" r="2.5" fill="rgb(63,63,63)" />
	<circle cx="45.3645" cy="345.491" r="2.5" fill="rgb(63,63,63)" />
	<circle cx="397.769" cy="383.572" r="2.5" fill="rgb(63,63,63)" />
	<circle cx="400.936" cy="383.704" r="2.5" fill="rgb(63,63,63)" />
	<circle cx="151.72" cy="271.957" r="2.5" fill="rgb(63,63,63)" />
	<circle cx="49.8787" cy="316.069" r="2.5" fill="rgb(63,63,63)" />
	<circle cx="308.56" cy="284.171" r="2.5" fill="rgb(62,62,62)" />
	<circle cx="238.087" cy="440.926" r="2.5" fill="rgb(62,62,62)" />
	<circle cx="367.152" cy="439.428" r="2.5" fill="rgb(62,62,62)" />
	<circle cx="317.858" cy="288.202" r="2.5" fill="rgb(62,62,62)" />
	<circle cx="24.9573" cy="230.153" r="2.5" fill="rgb(61,61,61)" />
	<circle cx="96.4783" cy="275.08" r="2.5" fill="rgb(61,61,61)" />
	<circle cx="38.9956" cy="359.843" r="2.5" fill="rgb(61,61,61)" />
	<circle cx="149.383" cy="281.49" r="2.5" fill="rgb(61,61,61)" />
	<circle cx="48.4652" cy="330.223" r="2.5" fill="rgb(60,60,60)" />
	<circle cx="400.049" cy="390.337" r="2.5" fill="rgb(60,60,60)" />
	<circle cx="279.153" cy="279.793" r="2.5" fill="rgb(59,59,59)" />
	<circle cx="305.592" cy="292.809" r="2.5" fill="rgb(59,59,59)" />
	<circle cx="119.744" cy="291.073" r="2.5" fill="rgb(59,59,59)" />
	<circle cx="248.768" cy="478.401" r="2.5" fill="rgb(58,58,58)" />
	<circle cx="236.661" cy="451.492" r="2.5" fill="rgb(58,58,58)" />
	<circle cx="240.882" cy="483.849" r="2.5" fill="rgb(58,58,58)" />
	<circle cx="323.813" cy="410.8" r="2.5" fill="rgb(58,58,58)" />
	<circle cx="405.863" cy="396.532" r="2.5" fill="rgb(58,58,58)" />
	<circle cx="25.9937" cy="248.362" r="2.5" fill="rgb(57,57,57)" />
	<circle cx="159.162" cy="301.938" r="2.5" fill="rgb(56,56,56)" />
	<circle cx="20.4224" cy="380.099" r="2.5" fill="rgb(56,56,56)" />
	<circle cx="468.664" cy="420.294" r="2.5" fill="rgb(56,56,56)" />
	<circle cx="266.294" cy="287.751" r="2.5" fill="rgb(56,56,56)" />
	<circle cx="364.446" cy="455.024" r="2.5" fill="rgb(55,55,55)" />
	<circle cx="4.2153" cy="396.19" r="2.5" fill="rgb(55,55,55)" />
	<circle cx="303.019" cy="398.673" r="2.5" fill="rgb(55,55,55)" />
	<circle cx="294.455" cy="475.133" r="2.5" fill="rgb(55,55,55)" />
	<circle cx="40.1301" cy="258.644" r="2.5" fill="rgb(55,55,55)" />
	<circle cx="390.737" cy="400.632" r="2.5" fill="rgb(54,54,54)" />
	<circle cx="426.231" cy="402.2" r="2.5" fill="rgb(54,54,54)" />
	<circle cx="9.7483" cy="257.405" r="2.5" fill="rgb(54,54,54)" />
	<circle cx="247.203" cy="290.098" r="2.5" fill="rgb(53,53,53)" />
	<circle cx="345.776" cy="444.282" r="2.5" fill="rgb(53,53,53)" />
	<circle cx="93.4221" cy="385.073" r="2.5" fill="rgb(52,52,52)" />
	<circle cx="8.52441" cy="408.402" r="2.5" fill="rgb(52,52,52)" />
	<circle cx="107.453" cy="290.624" r="2.5" fill="rgb(52,52,52)" />
	<circle cx="126.139" cy="322.592" r="2.5" fill="rgb(52,52,52)" />
	<circle cx="42.6144" cy="271.225" r="2.5" fill="rgb(52,52,52)" />
	<circle cx="22.8474" cy="269.687" r="2.5" fill="rgb(51,51,51)" />
	<circle cx="55.6653" cy="278.46" r="2.5" fill="rgb(51,51,51)" />
	<circle cx="42.1074" cy="351.63" r="2.5" fill="rgb(51,51,51)" />
	<circle cx="55.0501" cy="282.198" r="2.5" fill="rgb(50,50,50)" />
	<circle cx="124.343" cy="304.975" r="2.5" fill="rgb(50,50,50)" />
	<circle cx="256.822" cy="462.4" r="2.5" fill="rgb(49,49,49)" />
	<circle cx="385.774" cy="409.99" r="2.5" fill="rgb(49,49,49)" />
	<circle cx="467.589" cy="431.206" r="2.5" fill="rgb(49,49,49)" />
	<circle cx="31.436" cy="341.503" r="2.5" fill="rgb(49,49,49)" />
	<circle cx="305.564" cy="412.647" r="2.5" fill="rgb(49,49,49)" />
	<circle cx="241.177" cy="304.205" r="2.5" fill="rgb(48,48,48)" />
	<circle cx="26.0545" cy="282.515" r="2.5" fill="rgb(48,48,48)" />
	<circle cx="7.71448" cy="350.664" r="2.5" fill="rgb(48,48,48)" />
	<circle cx="316.514" cy="456.474" r="2.5" fill="rgb(48,48,48)" />
	<circle cx="135.267" cy="341.154" r="2.5" fill="rgb(48,48,48)" />
	<circle cx="409.876" cy="439.039" r="2.5" fill="rgb(48,48,48)" />
	<circle cx="347.509" cy="409.869" r="2.5" fill="rgb(48,48,48)" />
	<circle cx="54.3833" cy="293.072" r="2.5" fill="rgb(47,47,47)" />
	<circle cx="402.034" cy="414.084" r="2.5" fill="rgb(47,47,47)" />
	<circle cx="399.924" cy="413.98" r="2.5" fill="rgb(47,47,47)" />
	<circle cx="9.12367" cy="415.346" r="2.5" fill="rgb(47,47,47)" />
	<circle cx="147.402" cy="347.904" r="2.5" fill="rgb(47,47,47)" />
	<circle cx="33.7101" cy="292.289" r="2.5" fill="rgb(46,46,46)" />
	<circle cx="6.2113" cy="386" r="2.5" fill="rgb(46,46,46)" />
	<circle cx="26.271" cy="356.306" r="2.5" fill="rgb(46,46,46)" />
	<circle cx="302.46" cy="414.994" r="2.5" fill="rgb(46,46,46)" />
	<circle cx="215.595" cy="304.41" r="2.5" fill="rgb(46,46,46)" />
	<circle cx="306.631" cy="416.465" r="2.5" fill="rgb(46,46,46)" />
	<circle cx="86.0352" cy="340.701" r="2.5" fill="rgb(46,46,46)" />
	<circle cx="314.971" cy="418.135" r="2.5" fill="rgb(45,45,45)" />
	<circle cx="4.27238" cy="352.805" r="2.5" fill="rgb(44,44,44)" />
	<circle cx="281.872" cy="420.384" r="2.5" fill="rgb(44,44,44)" />
	<circle cx="352.421" cy="416.989" r="2.5" fill="rgb(44,44,44)" />
	<circle cx="31.8833" cy="371.744" r="2.5" fill="rgb(44,44,44)" />
	<circle cx="30.4379" cy="370.296" r="2.5" fill="rgb(44,44,44)" />
	<circle cx="380.391" cy="420.905" r="2.5" fill="rgb(44,44,44)" />
	<circle cx="393.489" cy="420.559" r="2.5" fill="rgb(44,44,44)" />
	<circle cx="306.547" cy="467.725" r="2.5" fill="rgb(44,44,44)" />
	<circle cx="133.835" cy="360.284" r="2.5" fill="rgb(44,44,44)" />
	<circle cx="32.9432" cy="305.727" r="2.5" fill="rgb(44,44,44)" />
	<circle cx="33.6289" cy="352.96" r="2.5" fill="rgb(44,44,44)" />
	<circle cx="391.164" cy="454.904" r="2.5" fill="rgb(43,43,43)" />
	<circle cx="396.276" cy="423.29" r="2.5" fill="rgb(43,43,43)" />
	<circle cx="454.535" cy="443.606" r="2.5" fill="rgb(42,42,42)" />
	<circle cx="308.027" cy="425.695" r="2.5" fill="rgb(42,42,42)" />
	<circle cx="496.17" cy="449.183" r="2.5" fill="rgb(41,41,41)" />
	<circle cx="201.019" cy="317.015" r="2.5" fill="rgb(41,41,41)" />
	<circle cx="85.4989" cy="306.989" r="2.5" fill="rgb(41,41,41)" />
	<circle cx="355.539" cy="469.732" r="2.5" fill="rgb(41,41,41)" />
	<circle cx="206.238" cy="320.711" r="2.5" fill="rgb(41,41,41)" />
	<circle cx="99.9236" cy="338.779" r="2.5" fill="rgb(40,40,40)" />
	<circle cx="121.111" cy="348.922" r="2.5" fill="rgb(40,40,40)" />
	<circle cx="390.953" cy="430.014" r="2.5" fill="rgb(39,39,39)" />
	<circle cx="86.5848" cy="351.909" r="2.5" fill="rgb(39,39,39)" />
	<circle cx="2.84943" cy="372.293" r="2.5" fill="rgb(39,39,39)" />
	<circle cx="327.547" cy="429.129" r="2.5" fill="rgb(39,39,39)" />
	<circle cx="335.744" cy="429.738" r="2.5" fill="rgb(39,39,39)" />
	<circle cx="109.054" cy="325.307" r="2.5" fill="rgb(38,38,38)" />
	<circle cx="452.561" cy="450.392" r="2.5" fill="rgb(38,38,38)" />
	<circle cx="71.0854" cy="401.224" r="2.5" fill="rgb(38,38,38)" />
	<circle cx="80.3011" cy="387.482" r="2.5" fill="rgb(37,37,37)" />
	<circle cx="181.437" cy="329.565" r="2.5" fill="rgb(37,37,37)" />
	<circle cx="357.628" cy="485.144" r="2.5" fill="rgb(37,37,37)" />
	<circle cx="91.2297" cy="364.264" r="2.5" fill="rgb(37,37,37)" />
	<circle cx="361.856" cy="466.368" r="2.5" fill="rgb(36,36,36)" />
	<circle cx="114.376" cy="365.735" r="2.5" fill="rgb(36,36,36)" />
	<circle cx="220.545" cy="407.284" r="2.5" fill="rgb(36,36,36)" />
	<circle cx="430.154" cy="455.099" r="2.5" fill="rgb(36,36,36)" />
	<circle cx="380.42" cy="477.489" r="2.5" fill="rgb(36,36,36)" />
	<circle cx="354.271" cy="435.277" r="2.5" fill="rgb(35,35,35)" />
	<circle cx="42.5203" cy="360.303" r="2.5" fill="rgb(35,35,35)" />
	<circle cx="119.022" cy="341.212" r="2.5" fill="rgb(34,34,34)" />
	<circle cx="175.155" cy="342.14" r="2.5" fill="rgb(34,34,34)" />
	<circle cx="217.328" cy="416.279" r="2.5" fill="rgb(33,33,33)" />
	<circle cx="372.708" cy="465.8" r="2.5" fill="rgb(33,33,33)" />
	<circle cx="49.7268" cy="376.668" r="2.5" fill="rgb(33,33,33)" />
	<circle cx="345.701" cy="474.016" r="2.5" fill="rgb(33,33,33)" />
	<circle cx="63.1957" cy="416.735" r="2.5" fill="rgb(33,33,33)" />
	<circle cx="437.855" cy="460.877" r="2.5" fill="rgb(32,32,32)" />
	<circle cx="403.855" cy="462.269" r="2.5" fill="rgb(32,32,32)" />
	<circle cx="346.571" cy="442.552" r="2.5" fill="rgb(32,32,32)" />
	<circle cx="80.4673" cy="358.327" r="2.5" fill="rgb(32,32,32)" />
	<circle cx="86.2408" cy="375.669" r="2.5" fill="rgb(32,32,32)" />
	<circle cx="50.9208" cy="374.093" r="2.5" fill="rgb(31,31,31)" />
	<circle cx="156.127" cy="348.134" r="2.5" fill="rgb(31,31,31)" />
	<circle cx="105.541" cy="354.19" r="2.5" fill="rgb(31,31,31)" />
	<circle cx="276.398" cy="453.074" r="2.5" fill="rgb(31,31,31)" />
	<circle cx="108.888" cy="371.942" r="2.5" fill="rgb(31,31,31)" />
	<circle cx="192.66" cy="483.046" r="2.5" fill="rgb(31,31,31)" />
	<circle cx="12.719" cy="444.705" r="2.5" fill="rgb(31,31,31)" />
	<circle cx="47.7867" cy="407.81" r="2.5" fill="rgb(30,30,30)" />
	<circle cx="291.931" cy="453.566" r="2.5" fill="rgb(30,30,30)" />
	<circle cx="36.6374" cy="438.003" r="2.5" fill="rgb(29,29,29)" />
	<circle cx="65.3241" cy="439.867" r="2.5" fill="rgb(29,29,29)" />
	<circle cx="151.538" cy="357.747" r="2.5" fill="rgb(29,29,29)" />
	<circle cx="182.304" cy="467.987" r="2.5" fill="rgb(29,29,29)" />
	<circle cx="251.049" cy="464.143" r="2.5" fill="rgb(28,28,28)" />
	<circle cx="65.877" cy="395.195" r="2.5" fill="rgb(28,28,28)" />
	<circle cx="346.174" cy="451.254" r="2.5" fill="rgb(28,28,28)" />
	<circle cx="191.004" cy="470.31" r="2.5" fill="rgb(28,28,28)" />
	<circle cx="240.789" cy="426.909" r="2.5" fill="rgb(28,28,28)" />
	<circle cx="260.819" cy="370.354" r="2.5" fill="rgb(28,28,28)" />
	<circle cx="217.35" cy="434.453" r="2.5" fill="rgb(28,28,28)" />
	<circle cx="114.1" cy="388.224" r="2.5" fill="rgb(28,28,28)" />
	<circle cx="95.561" cy="380.032" r="2.5" fill="rgb(27,27,27)" />
	<circle cx="46.5077" cy="452.936" r="2.5" fill="rgb(27,27,27)" />
	<circle cx="67.5834" cy="452.378" r="2.5" fill="rgb(27,27,27)" />
	<circle cx="293.705" cy="461.328" r="2.5" fill="rgb(27,27,27)" />
	<circle cx="42.5314" cy="429.503" r="2.5" fill="rgb(26,26,26)" />
	<circle cx="168.036" cy="368.35" r="2.5" fill="rgb(26,26,26)" />
	<circle cx="414.152" cy="473.277" r="2.5" fill="rgb(26,26,26)" />
	<circle cx="174.47" cy="411.083" r="2.5" fill="rgb(26,26,26)" />
	<circle cx="262.507" cy="432.103" r="2.5" fill="rgb(25,25,25)" />
	<circle cx="169.629" cy="483.894" r="2.5" fill="rgb(25,25,25)" />
	<circle cx="275.169" cy="467.828" r="2.5" fill="rgb(25,25,25)" />
	<circle cx="87.2863" cy="391.031" r="2.5" fill="rgb(25,25,25)" />
	<circle cx="235.624" cy="435.688" r="2.5" fill="rgb(25,25,25)" />
	<circle cx="75.909" cy="409.637" r="2.5" fill="rgb(25,25,25)" />
	<circle cx="335.483" cy="457.824" r="2.5" fill="rgb(25,25,25)" />
	<circle cx="235.47" cy="378.482" r="2.5" fill="rgb(24,24,24)" />
	<circle cx="322.567" cy="460.432" r="2.5" fill="rgb(24,24,24)" />
	<circle cx="265.946" cy="436.934" r="2.5" fill="rgb(24,24,24)" />
	<circle cx="280.858" cy="436.992" r="2.5" fill="rgb(24,24,24)" />
	<circle cx="173.052" cy="379.125" r="2.5" fill="rgb(24,24,24)" />
	<circle cx="168.579" cy="461.021" r="2.5" fill="rgb(24,24,24)" />
	<circle cx="106.633" cy="408.424" r="2.5" fill="rgb(24,24,24)" />
	<circle cx="114.166" cy="490.735" r="2.5" fill="rgb(24,24,24)" />
	<circle cx="337.328" cy="460.665" r="2.5" fill="rgb(23,23,23)" />
	<circle cx="233.978" cy="381.874" r="2.5" fill="rgb(23,23,23)" />
	<circle cx="185.528" cy="461.05" r="2.5" fill="rgb(23,23,23)" />
	<circle cx="44.6426" cy="479.339" r="2.5" fill="rgb(23,23,23)" />
	<circle cx="53.6393" cy="437.987" r="2.5" fill="rgb(23,23,23)" />
	<circle cx="354.005" cy="463.579" r="2.5" fill="rgb(22,22,22)" />
	<circle cx="130.042" cy="408.698" r="2.5" fill="rgb(22,22,22)" />
	<circle cx="157.641" cy="407.661" r="2.5" fill="rgb(22,22,22)" />
	<circle cx="323.929" cy="466.411" r="2.5" fill="rgb(21,21,21)" />
	<circle cx="333.273" cy="465.357" r="2.5" fill="rgb(21,21,21)" />
	<circle cx="298.265" cy="473.448" r="2.5" fill="rgb(21,21,21)" />
	<circle cx="247.817" cy="445.002" r="2.5" fill="rgb(21,21,21)" />
	<circle cx="164.153" cy="388.197" r="2.5" fill="rgb(21,21,21)" />
	<circle cx="6.22465" cy="436.622" r="2.5" fill="rgb(21,21,21)" />
	<circle cx="106.836" cy="418.654" r="2.5" fill="rgb(21,21,21)" />
	<circle cx="99.7234" cy="431.931" r="2.5" fill="rgb(21,21,21)" />
	<circle cx="201.545" cy="381.85" r="2.5" fill="rgb(20,20,20)" />
	<circle cx="106.532" cy="444.723" r="2.5" fill="rgb(20,20,20)" />
	<circle cx="106.935" cy="441.142" r="2.5" fill="rgb(20,20,20)" />
	<circle cx="266.676" cy="446.835" r="2.5" fill="rgb(20,20,20)" />
	<circle cx="229.007" cy="392.129" r="2.5" fill="rgb(20,20,20)" />
	<circle cx="116.09" cy="422.105" r="2.5" fill="rgb(20,20,20)" />
	<circle cx="179.762" cy="473.247" r="2.5" fill="rgb(20,20,20)" />
	<circle cx="19.0496" cy="446.58" r="2.5" fill="rgb(20,20,20)" />
	<circle cx="16.1177" cy="442.259" r="2.5" fill="rgb(19,19,19)" />
	<circle cx="244.179" cy="452.575" r="2.5" fill="rgb(19,19,19)" />
	<circle cx="263.655" cy="450.321" r="2.5" fill="rgb(19,19,19)" />
	<circle cx="150.114" cy="431.34" r="2.5" fill="rgb(19,19,19)" />
	<circle cx="151.185" cy="422.039" r="2.5" fill="rgb(19,19,19)" />
	<circle cx="257.671" cy="452.49" r="2.5" fill="rgb(19,19,19)" />
	<circle cx="13.6502" cy="458.396" r="2.5" fill="rgb(18,18,18)" />
	<circle cx="332.943" cy="472.783" r="2.5" fill="rgb(18,18,18)" />
	<circle cx="110.548" cy="433.526" r="2.5" fill="rgb(18,18,18)" />
	<circle cx="53.6721" cy="449.392" r="2.5" fill="rgb(17,17,17)" />
	<circle cx="207.961" cy="404.757" r="2.5" fill="rgb(16,16,16)" />
	<circle cx="5.59944" cy="473.208" r="2.5" fill="rgb(16,16,16)" />
	<circle cx="196.195" cy="398.484" r="2.5" fill="rgb(16,16,16)" />
	<circle cx="99.2778" cy="414.033" r="2.5" fill="rgb(16,16,16)" />
	<circle cx="56.442" cy="443.404" r="2.5" fill="rgb(16,16,16)" />
	<circle cx="106.423" cy="439.52" r="2.5" fill="rgb(15,15,15)" />
	<circle cx="90.9791" cy="449.753" r="2.5" fill="rgb(15,15,15)" />
	<circle cx="73.1566" cy="443.821" r="2.5" fill="rgb(15,15,15)" />
	<circle cx="263.572" cy="463.645" r="2.5" fill="rgb(15,15,15)" />
	<circle cx="112.672" cy="417.03" r="2.5" fill="rgb(14,14,14)" />
	<circle cx="22.1" cy="481.113" r="2.5" fill="rgb(14,14,14)" />
	<circle cx="53.5834" cy="472.702" r="2.5" fill="rgb(13,13,13)" />
	<circle cx="124.529" cy="420.752" r="2.5" fill="rgb(13,13,13)" />
	<circle cx="72.2712" cy="441.648" r="2.5" fill="rgb(13,13,13)" />
	<circle cx="64.011" cy="460.438" r="2.5" fill="rgb(13,13,13)" />
	<circle cx="74.1651" cy="456.196" r="2.5" fill="rgb(13,13,13)" />
	<circle cx="191.911" cy="413.595" r="2.5" fill="rgb(12,12,12)" />
	<circle cx="35.7764" cy="474.73" r="2.5" fill="rgb(12,12,12)" />
	<circle cx="207.636" cy="421.426" r="2.5" fill="rgb(12,12,12)" />
	<circle cx="169.852" cy="416.989" r="2.5" fill="rgb(12,12,12)" />
	<circle cx="142.511" cy="473.235" r="2.5" fill="rgb(11,11,11)" />
	<circle cx="116.722" cy="461.158" r="2.5" fill="rgb(11,11,11)" />
	<circle cx="104.241" cy="463.261" r="2.5" fill="rgb(11,11,11)" />
	<circle cx="30.2313" cy="497.603" r="2.5" fill="rgb(11,11,11)" />
	<circle cx="30.262" cy="497.554" r="2.5" fill="rgb(11,11,11)" />
	<circle cx="127.26" cy="433.916" r="2.5" fill="rgb(10,10,10)" />
	<circle cx="115.39" cy="447.586" r="2.5" fill="rgb(10,10,10)" />
	<circle cx="141.534" cy="443.511" r="2.5" fill="rgb(10,10,10)" />
	<circle cx="207.364" cy="428.401" r="2.5" fill="rgb(8,8,8)" />
	<circle cx="92.4921" cy="480.588" r="2.5" fill="rgb(8,8,8)" />
	<circle cx="167.548" cy="433.103" r="2.5" fill="rgb(8,8,8)" />
	<circle cx="202.586" cy="432.093" r="2.5" fill="rgb(8,8,8)" />
	<circle cx="195.254" cy="434.072" r="2.5" fill="rgb(7,7,7)" />
	<circle cx="43.7726" cy="396.545" r="2.5" fill="rgb(7,7,7)" />
	<circle cx="41.5491" cy="423.433" r="2.5" fill="rgb(7,7,7)" />
	<circle cx="119.906" cy="497.04" r="2.5" fill="rgb(7,7,7)" />
	<circle cx="16.8685" cy="394.361" r="2.5" fill="rgb(7,7,7)" />
	<circle cx="212.843" cy="436.462" r="2.5" fill="rgb(7,7,7)" />
	<circle cx="60.6738" cy="369.522" r="2.5" fill="rgb(6,6,6)" />
	<circle cx="64.1176" cy="372.615" r="2.5" fill="rgb(6,6,6)" />
	<circle cx="204.574" cy="437.887" r="2.5" fill="rgb(6,6,6)" />
	<circle cx="140.638" cy="483.677" r="2.5" fill="rgb(6,6,6)" />
	<circle cx="65.446" cy="376.376" r="2.5" fill="rgb(5,5,5)" />
	<circle cx="24.7983" cy="380.627" r="2.5" fill="rgb(5,5,5)" />
	<circle cx="23.7002" cy="448.622" r="2.5" fill="rgb(4,4,4)" />
	<circle cx="10.8235" cy="417.597" r="2.5" fill="rgb(4,4,4)" />
	<circle cx="57.4898" cy="387.239" r="2.5" fill="rgb(4,4,4)" />
	<circle cx="28.8244" cy="420.183" r="2.5" fill="rgb(4,4,4)" />
	<circle cx="194.384" cy="447.427" r="2.5" fill="rgb(4,4,4)" />
	<circle cx="1.253" cy="465.673" r="2.5" fill="rgb(2,2,2)" />
	<circle cx="73.0221" cy="399.494" r="2.5" fill="rgb(2,2,2)" />
	<circle cx="20.5973" cy="440.4" r="2.5" fill="rgb(2,2,2)" />
	<circle cx="83.3333" cy="416.667" r="2" fill="rgb(255,0,0)" />
	<circle cx="416.667" cy="83.3333" r="2" fill="rgb(0,255,0)" />
	<circle cx="83.3333" cy="416.667" r="2" fill="rgb(0,255,0)" />
	<circle cx="21.6339" cy="401.766" r="2" fill="rgb(0,255,0)" />
	<circle cx="37.3795" cy="378.391" r="2" fill="rgb(0,255,0)" />
	<circle cx="48.5419" cy="356.362" r="2" fill="rgb(0,255,0)" />
	<circle cx="44.6613" cy="340.578" r="2" fill="rgb(0,255,0)" />
	<circle cx="44.2267" cy="316.069" r="2" fill="rgb(0,255,0)" />
	<circle cx="26.535" cy="290.897" r="2" fill="rgb(0,255,0)" />
	<circle cx="61.4403" cy="286.552" r="2" fill="rgb(0,255,0)" />
	<circle cx="45.4055" cy="265.276" r="2" fill="rgb(0,255,0)" />
	<circle cx="66.0529" cy="255.716" r="2" fill="rgb(0,255,0)" />
	<circle cx="81.5319" cy="245.077" r="2" fill="rgb(0,255,0)" />
	<circle cx="67.9799" cy="223.614" r="2" fill="rgb(0,255,0)" />
	<circle cx="89.7571" cy="208.58" r="2" fill="rgb(0,255,0)" />
	<circle cx="111.248" cy="194.276" r="2" fill="rgb(0,255,0)" />
	<circle cx="132.159" cy="191.703" r="2" fill="rgb(0,255,0)" />
	<circle cx="164.42" cy="185.19" r="2" fill="rgb(0,255,0)" />
	<circle cx="200.19" cy="183.971" r="2" fill="rgb(0,255,0)" />
	<circle cx="201.206" cy="165.8" r="2" fill="rgb(0,255,0)" />
	<circle cx="238.151" cy="183.754" r="2" fill="rgb(0,255,0)" />
	<circle cx="257.17" cy="175.896" r="2" fill="rgb(0,255,0)" />
	<circle cx="267.362" cy="167.367" r="2" fill="rgb(0,255,0)" />
	<circle cx="312.552" cy="179.466" r="2" fill="rgb(0,255,0)" />
	<circle cx="330.001" cy="173.738" r="2" fill="rgb(0,255,0)" />
	<circle cx="340.68" cy="165.013" r="2" fill="rgb(0,255,0)" />
	<circle cx="348.201" cy="159.685" r="2" fill="rgb(0,255,0)" />
	<circle cx="327.166" cy="145.72" r="2" fill="rgb(0,255,0)" />
	<circle cx="331.412" cy="133.256" r="2" fill="rgb(0,255,0)" />
	<circle cx="366.374" cy="131.339" r="2" fill="rgb(0,255,0)" />
	<circle cx="417.132" cy="132.71" r="2" fill="rgb(0,255,0)" />
	<circle cx="439.175" cy="117.626" r="2" fill="rgb(0,255,0)" />
	<circle cx="428.089" cy="107.183" r="2" fill="rgb(0,255,0)" />
	<circle cx="419.422" cy="96.0147" r="2" fill="rgb(0,255,0)" />
	<circle cx="416.134" cy="81.3669" r="2" fill="rgb(0,255,0)" />
</svg>
