<?xml version="1.0" standalone="no" ?>
<!DOCTYPE svg PUBLIC "-//W3C//DTD SVG 1.1//EN" "http://www.w3.org/Graphics/SVG/1.1/DTD/svg11.dtd">
<svg width="500px" height="500px" xmlns="http://www.w3.org/2000/svg" version="1.1" >
	<polyline points="83.3333,416.667 109.41,400.413 " fill="transparent" stroke-width="0.5" stroke="rgb(0,0,255)" />
	<polyline points="109.41,400.413 130.597,382.715 " fill="transparent" stroke-width="0.5" stroke="rgb(0,0,255)" />
	<polyline points="130.597,382.715 132.654,367.687 " fill="transparent" stroke-width="0.5" stroke="rgb(0,0,255)" />
	<polyline points="130.597,382.715 182.521,397.601 " fill="transparent" stroke-width="0.5" stroke="rgb(0,0,255)" />
	<polyline points="182.521,397.601 197.162,379.668 " fill="transparent" stroke-width="0.5" stroke="rgb(0,0,255)" />
	<polyline points="182.521,397.601 232.157,392.31 " fill="transparent" stroke-width="0.5" stroke="rgb(0,0,255)" />
	<polyline points="232.157,392.31 245.029,379.496 " fill="transparent" stroke-width="0.5" stroke="rgb(0,0,255)" />
	<polyline points="245.029,379.496 248.206,371.184 " fill="transparent" stroke-width="0.5" stroke="rgb(0,0,255)" />
	<polyline points="248.206,371.184 170.411,371.068 " fill="transparent" stroke-width="0.5" stroke="rgb(0,0,255)" />
	<polyline points="248.206,371.184 251.776,361.31 " fill="transparent" stroke-width="0.5" stroke="rgb(0,0,255)" />
	<polyline points="251.776,361.31 259,352.123 " fill="transparent" stroke-width="0.5" stroke="rgb(0,0,255)" />
	<polyline points="251.776,361.31 233.795,352.029 " fill="transparent" stroke-width="0.5" stroke="rgb(0,0,255)" />
	<polyline points="233.795,352.029 210.402,335.869 " fill="transparent" stroke-width="0.5" stroke="rgb(0,0,255)" />
	<polyline points="210.402,335.869 100.804,371.582 " fill="transparent" stroke-width="0.5" stroke="rgb(0,0,255)" />
	<polyline points="210.402,335.869 205.724,324.059 " fill="transparent" stroke-width="0.5" stroke="rgb(0,0,255)" />
	<polyline points="205.724,324.059 207.216,309.514 " fill="transparent" stroke-width="0.5" stroke="rgb(0,0,255)" />
	<polyline points="207.216,309.514 203.198,293.786 " fill="transparent" stroke-width="0.5" stroke="rgb(0,0,255)" />
	<polyline points="203.198,293.786 184.216,278.978 " fill="transparent" stroke-width="0.5" stroke="rgb(0,0,255)" />
	<polyline points="203.198,293.786 207.336,281.873 " fill="transparent" stroke-width="0.5" stroke="rgb(0,0,255)" />
	<polyline points="207.336,281.873 203.239,265.93 " fill="transparent" stroke-width="0.5" stroke="rgb(0,0,255)" />
	<polyline points="203.239,265.93 174.199,251.831 " fill="transparent" stroke-width="0.5" stroke="rgb(0,0,255)" />
	<polyline points="174.199,251.831 55.6723,325.702 " fill="transparent" stroke-width="0.5" stroke="rgb(0,0,255)" />
	<polyline points="174.199,251.831 71.9372,282.832 " fill="transparent" stroke-width="0.5" stroke="rgb(0,0,255)" />
	<polyline points="174.199,251.831 172.192,239.476 " fill="transparent" stroke-width="0.5" stroke="rgb(0,0,255)" />
	<polyline points="172.192,239.476 172.444,221.998 " fill="transparent" stroke-width="0.5" stroke="rgb(0,0,255)" />
	<polyline points="172.192,239.476 177.234,225.689 " fill="transparent" stroke-width="0.5" stroke="rgb(0,0,255)" />
	<polyline points="177.234,225.689 192.331,218.552 " fill="transparent" stroke-width="0.5" stroke="rgb(0,0,255)" />
	<polyline points="192.331,218.552 205.356,207.159 " fill="transparent" stroke-width="0.5" stroke="rgb(0,0,255)" />
	<polyline points="205.356,207.159 237.727,211.459 " fill="transparent" stroke-width="0.5" stroke="rgb(0,0,255)" />
	<polyline points="237.727,211.459 242.541,204.762 " fill="transparent" stroke-width="0.5" stroke="rgb(0,0,255)" />
	<polyline points="242.541,204.762 136.047,217.336 " fill="transparent" stroke-width="0.5" stroke="rgb(0,0,255)" />
	<polyline points="242.541,204.762 175.988,208.901 " fill="transparent" stroke-width="0.5" stroke="rgb(0,0,255)" />
	<polyline points="242.541,204.762 156.922,196.619 " fill="transparent" stroke-width="0.5" stroke="rgb(0,0,255)" />
	<polyline points="237.727,211.459 157.042,225.055 " fill="transparent" stroke-width="0.5" stroke="rgb(0,0,255)" />
	<polyline points="205.356,207.159 156.665,184.095 " fill="transparent" stroke-width="0.5" stroke="rgb(0,0,255)" />
	<polyline points="156.665,184.095 220.967,203.768 " fill="transparent" stroke-width="0.5" stroke="rgb(0,0,255)" />
	<polyline points="220.967,203.768 151.848,178.418 " fill="transparent" stroke-width="0.5" stroke="rgb(0,0,255)" />
	<polyline points="151.848,178.418 131.503,164.658 " fill="transparent" stroke-width="0.5" stroke="rgb(0,0,255)" />
	<polyline points="131.503,164.658 109.97,144.999 " fill="transparent" stroke-width="0.5" stroke="rgb(0,0,255)" />
	<polyline points="131.503,164.658 197.206,206.874 " fill="transparent" stroke-width="0.5" stroke="rgb(0,0,255)" />
	<polyline points="131.503,164.658 149.779,294.562 " fill="transparent" stroke-width="0.5" stroke="rgb(0,0,255)" />
	<polyline points="131.503,164.658 185.481,184.026 " fill="transparent" stroke-width="0.5" stroke="rgb(0,0,255)" />
	<polyline points="185.481,184.026 200.315,179.962 " fill="transparent" stroke-width="0.5" stroke="rgb(0,0,255)" />
	<polyline points="200.315,179.962 211.733,174.517 " fill="transparent" stroke-width="0.5" stroke="rgb(0,0,255)" />
	<polyline points="211.733,174.517 221.156,162.818 " fill="transparent" stroke-width="0.5" stroke="rgb(0,0,255)" />
	<polyline points="221.156,162.818 142.905,146.347 " fill="transparent" stroke-width="0.5" stroke="rgb(0,0,255)" />
	<polyline points="221.156,162.818 141.388,133.338 " fill="transparent" stroke-width="0.5" stroke="rgb(0,0,255)" />
	<polyline points="141.388,133.338 169.584,137.363 " fill="transparent" stroke-width="0.5" stroke="rgb(0,0,255)" />
	<polyline points="169.584,137.363 185.547,133.909 " fill="transparent" stroke-width="0.5" stroke="rgb(0,0,255)" />
	<polyline points="211.733,174.517 256.342,187.71 " fill="transparent" stroke-width="0.5" stroke="rgb(0,0,255)" />
	<polyline points="256.342,187.71 260.843,177.935 " fill="transparent" stroke-width="0.5" stroke="rgb(0,0,255)" />
	<polyline points="256.342,187.71 128.982,183.829 " fill="transparent" stroke-width="0.5" stroke="rgb(0,0,255)" />
	<polyline points="128.982,183.829 150.386,171.777 " fill="transparent" stroke-width="0.5" stroke="rgb(0,0,255)" />
	<polyline points="256.342,187.71 164.027,228.91 " fill="transparent" stroke-width="0.5" stroke="rgb(0,0,255)" />
	<polyline points="200.315,179.962 193.707,167.928 " fill="transparent" stroke-width="0.5" stroke="rgb(0,0,255)" />
	<polyline points="172.192,239.476 85.4479,284.728 " fill="transparent" stroke-width="0.5" stroke="rgb(0,0,255)" />
	<polyline points="85.4479,284.728 21.6396,377.955 " fill="transparent" stroke-width="0.5" stroke="rgb(0,0,255)" />
	<polyline points="85.4479,284.728 107.66,269.661 " fill="transparent" stroke-width="0.5" stroke="rgb(0,0,255)" />
	<polyline points="251.776,361.31 305.506,377.075 " fill="transparent" stroke-width="0.5" stroke="rgb(0,0,255)" />
	<polyline points="305.506,377.075 290.94,363.923 " fill="transparent" stroke-width="0.5" stroke="rgb(0,0,255)" />
	<polyline points="305.506,377.075 331.436,365.059 " fill="transparent" stroke-width="0.5" stroke="rgb(0,0,255)" />
	<polyline points="331.436,365.059 347.833,352.351 " fill="transparent" stroke-width="0.5" stroke="rgb(0,0,255)" />
	<polyline points="347.833,352.351 257.737,359.462 " fill="transparent" stroke-width="0.5" stroke="rgb(0,0,255)" />
	<polyline points="347.833,352.351 345.369,340.487 " fill="transparent" stroke-width="0.5" stroke="rgb(0,0,255)" />
	<polyline points="345.369,340.487 269.567,326.824 " fill="transparent" stroke-width="0.5" stroke="rgb(0,0,255)" />
	<polyline points="345.369,340.487 287.789,336.961 " fill="transparent" stroke-width="0.5" stroke="rgb(0,0,255)" />
	<polyline points="345.369,340.487 234.649,362.219 " fill="transparent" stroke-width="0.5" stroke="rgb(0,0,255)" />
	<polyline points="345.369,340.487 219.67,381.801 " fill="transparent" stroke-width="0.5" stroke="rgb(0,0,255)" />
	<polyline points="219.67,381.801 222.883,371.259 " fill="transparent" stroke-width="0.5" stroke="rgb(0,0,255)" />
	<polyline points="222.883,371.259 142.314,421.171 " fill="transparent" stroke-width="0.5" stroke="rgb(0,0,255)" />
	<polyline points="219.67,381.801 145.985,445.286 " fill="transparent" stroke-width="0.5" stroke="rgb(0,0,255)" />
	<polyline points="145.985,445.286 93.1211,467.654 " fill="transparent" stroke-width="0.5" stroke="rgb(0,0,255)" />
	<polyline points="145.985,445.286 152.388,426.22 " fill="transparent" stroke-width="0.5" stroke="rgb(0,0,255)" />
	<polyline points="347.833,352.351 286.809,340.023 " fill="transparent" stroke-width="0.5" stroke="rgb(0,0,255)" />
	<polyline points="286.809,340.023 277.307,324.335 " fill="transparent" stroke-width="0.5" stroke="rgb(0,0,255)" />
	<polyline points="286.809,340.023 205.049,337.499 " fill="transparent" stroke-width="0.5" stroke="rgb(0,0,255)" />
	<polyline points="205.049,337.499 163.187,322.854 " fill="transparent" stroke-width="0.5" stroke="rgb(0,0,255)" />
	<polyline points="286.809,340.023 272.488,330.722 " fill="transparent" stroke-width="0.5" stroke="rgb(0,0,255)" />
	<polyline points="272.488,330.722 288.736,319.347 " fill="transparent" stroke-width="0.5" stroke="rgb(0,0,255)" />
	<polyline points="288.736,319.347 312.859,315.915 " fill="transparent" stroke-width="0.5" stroke="rgb(0,0,255)" />
	<polyline points="312.859,315.915 315.457,305.674 " fill="transparent" stroke-width="0.5" stroke="rgb(0,0,255)" />
	<polyline points="312.859,315.915 199.52,366.811 " fill="transparent" stroke-width="0.5" stroke="rgb(0,0,255)" />
	<polyline points="312.859,315.915 323.973,310.623 " fill="transparent" stroke-width="0.5" stroke="rgb(0,0,255)" />
	<polyline points="323.973,310.623 325.4,300.337 " fill="transparent" stroke-width="0.5" stroke="rgb(0,0,255)" />
	<polyline points="323.973,310.623 334.498,299.203 " fill="transparent" stroke-width="0.5" stroke="rgb(0,0,255)" />
	<polyline points="334.498,299.203 339.509,288.321 " fill="transparent" stroke-width="0.5" stroke="rgb(0,0,255)" />
	<polyline points="339.509,288.321 232.479,289.992 " fill="transparent" stroke-width="0.5" stroke="rgb(0,0,255)" />
	<polyline points="339.509,288.321 333.976,278.405 " fill="transparent" stroke-width="0.5" stroke="rgb(0,0,255)" />
	<polyline points="333.976,278.405 339.359,270.688 " fill="transparent" stroke-width="0.5" stroke="rgb(0,0,255)" />
	<polyline points="339.509,288.321 235.194,313.082 " fill="transparent" stroke-width="0.5" stroke="rgb(0,0,255)" />
	<polyline points="235.194,313.082 229.461,297.848 " fill="transparent" stroke-width="0.5" stroke="rgb(0,0,255)" />
	<polyline points="229.461,297.848 228.917,288.844 " fill="transparent" stroke-width="0.5" stroke="rgb(0,0,255)" />
	<polyline points="339.509,288.321 386.989,293.232 " fill="transparent" stroke-width="0.5" stroke="rgb(0,0,255)" />
	<polyline points="386.989,293.232 388.87,279.398 " fill="transparent" stroke-width="0.5" stroke="rgb(0,0,255)" />
	<polyline points="386.989,293.232 400.69,281.619 " fill="transparent" stroke-width="0.5" stroke="rgb(0,0,255)" />
	<polyline points="400.69,281.619 412.008,273.786 " fill="transparent" stroke-width="0.5" stroke="rgb(0,0,255)" />
	<polyline points="412.008,273.786 482.695,278.252 " fill="transparent" stroke-width="0.5" stroke="rgb(0,0,255)" />
	<polyline points="482.695,278.252 487.973,266.909 " fill="transparent" stroke-width="0.5" stroke="rgb(0,0,255)" />
	<polyline points="482.695,278.252 471.54,265.788 " fill="transparent" stroke-width="0.5" stroke="rgb(0,0,255)" />
	<polyline points="412.008,273.786 280.662,307.361 " fill="transparent" stroke-width="0.5" stroke="rgb(0,0,255)" />
	<polyline points="400.69,281.619 269.516,317.686 " fill="transparent" stroke-width="0.5" stroke="rgb(0,0,255)" />
	<polyline points="400.69,281.619 377.33,272.585 " fill="transparent" stroke-width="0.5" stroke="rgb(0,0,255)" />
	<polyline points="377.33,272.585 381.641,263.346 " fill="transparent" stroke-width="0.5" stroke="rgb(0,0,255)" />
	<polyline points="381.641,263.346 279.057,347.802 " fill="transparent" stroke-width="0.5" stroke="rgb(0,0,255)" />
	<polyline points="381.641,263.346 375.817,255.152 " fill="transparent" stroke-width="0.5" stroke="rgb(0,0,255)" />
	<polyline points="375.817,255.152 375.915,243.518 " fill="transparent" stroke-width="0.5" stroke="rgb(0,0,255)" />
	<polyline points="375.915,243.518 370.652,235.223 " fill="transparent" stroke-width="0.5" stroke="rgb(0,0,255)" />
	<polyline points="370.652,235.223 374.49,224.238 " fill="transparent" stroke-width="0.5" stroke="rgb(0,0,255)" />
	<polyline points="374.49,224.238 378.335,217.643 " fill="transparent" stroke-width="0.5" stroke="rgb(0,0,255)" />
	<polyline points="378.335,217.643 380.93,210.708 " fill="transparent" stroke-width="0.5" stroke="rgb(0,0,255)" />
	<polyline points="380.93,210.708 365.99,196.137 " fill="transparent" stroke-width="0.5" stroke="rgb(0,0,255)" />
	<polyline points="365.99,196.137 270.983,291.562 " fill="transparent" stroke-width="0.5" stroke="rgb(0,0,255)" />
	<polyline points="380.93,210.708 397.476,198.95 " fill="transparent" stroke-width="0.5" stroke="rgb(0,0,255)" />
	<polyline points="397.476,198.95 419.01,190.095 " fill="transparent" stroke-width="0.5" stroke="rgb(0,0,255)" />
	<polyline points="397.476,198.95 402.106,191.957 " fill="transparent" stroke-width="0.5" stroke="rgb(0,0,255)" />
	<polyline points="402.106,191.957 271.434,251.55 " fill="transparent" stroke-width="0.5" stroke="rgb(0,0,255)" />
	<polyline points="397.476,198.95 318.863,232.986 " fill="transparent" stroke-width="0.5" stroke="rgb(0,0,255)" />
	<polyline points="397.476,198.95 325.258,249.717 " fill="transparent" stroke-width="0.5" stroke="rgb(0,0,255)" />
	<polyline points="380.93,210.708 273.626,232.737 " fill="transparent" stroke-width="0.5" stroke="rgb(0,0,255)" />
	<polyline points="380.93,210.708 317.307,274.09 " fill="transparent" stroke-width="0.5" stroke="rgb(0,0,255)" />
	<polyline points="374.49,224.238 306.555,219.183 " fill="transparent" stroke-width="0.5" stroke="rgb(0,0,255)" />
	<polyline points="375.817,255.152 269.384,283.557 " fill="transparent" stroke-width="0.5" stroke="rgb(0,0,255)" />
	<polyline points="375.817,255.152 267.312,329.982 " fill="transparent" stroke-width="0.5" stroke="rgb(0,0,255)" />
	<polyline points="377.33,272.585 258.618,309.82 " fill="transparent" stroke-width="0.5" stroke="rgb(0,0,255)" />
	<polyline points="400.69,281.619 286.446,374.452 " fill="transparent" stroke-width="0.5" stroke="rgb(0,0,255)" />
	<polyline points="323.973,310.623 234.003,345.503 " fill="transparent" stroke-width="0.5" stroke="rgb(0,0,255)" />
	<polyline points="323.973,310.623 248.271,323.085 " fill="transparent" stroke-width="0.5" stroke="rgb(0,0,255)" />
	<polyline points="347.833,352.351 415.38,359.281 " fill="transparent" stroke-width="0.5" stroke="rgb(0,0,255)" />
	<polyline points="415.38,359.281 314.293,389.186 " fill="transparent" stroke-width="0.5" stroke="rgb(0,0,255)" />
	<polyline points="415.38,359.281 301.384,403.405 " fill="transparent" stroke-width="0.5" stroke="rgb(0,0,255)" />
	<polyline points="415.38,359.281 483.373,459.508 " fill="transparent" stroke-width="0.5" stroke="rgb(0,0,255)" />
	<polyline points="483.373,459.508 489.576,453.286 " fill="transparent" stroke-width="0.5" stroke="rgb(0,0,255)" />
	<polyline points="483.373,459.508 418.488,459.981 " fill="transparent" stroke-width="0.5" stroke="rgb(0,0,255)" />
	<polyline points="418.488,459.981 420.787,446.842 " fill="transparent" stroke-width="0.5" stroke="rgb(0,0,255)" />
	<polyline points="483.373,459.508 403.952,466.463 " fill="transparent" stroke-width="0.5" stroke="rgb(0,0,255)" />
	<polyline points="403.952,466.463 321.759,477.373 " fill="transparent" stroke-width="0.5" stroke="rgb(0,0,255)" />
	<polyline points="483.373,459.508 465.185,452.607 " fill="transparent" stroke-width="0.5" stroke="rgb(0,0,255)" />
	<polyline points="415.38,359.281 351.298,384.501 " fill="transparent" stroke-width="0.5" stroke="rgb(0,0,255)" />
	<polyline points="351.298,384.501 363.644,372.682 " fill="transparent" stroke-width="0.5" stroke="rgb(0,0,255)" />
	<polyline points="351.298,384.501 269.739,400.056 " fill="transparent" stroke-width="0.5" stroke="rgb(0,0,255)" />
	<polyline points="415.38,359.281 301.9,393.645 " fill="transparent" stroke-width="0.5" stroke="rgb(0,0,255)" />
	<polyline points="301.9,393.645 293.056,380.858 " fill="transparent" stroke-width="0.5" stroke="rgb(0,0,255)" />
	<polyline points="301.9,393.645 324.304,381.95 " fill="transparent" stroke-width="0.5" stroke="rgb(0,0,255)" />
	<polyline points="324.304,381.95 326.187,373.094 " fill="transparent" stroke-width="0.5" stroke="rgb(0,0,255)" />
	<polyline points="301.9,393.645 229.603,428.333 " fill="transparent" stroke-width="0.5" stroke="rgb(0,0,255)" />
	<polyline points="229.603,428.333 162.397,453.009 " fill="transparent" stroke-width="0.5" stroke="rgb(0,0,255)" />
	<polyline points="301.9,393.645 324.856,380.425 " fill="transparent" stroke-width="0.5" stroke="rgb(0,0,255)" />
	<polyline points="324.856,380.425 251.572,416.917 " fill="transparent" stroke-width="0.5" stroke="rgb(0,0,255)" />
	<polyline points="251.572,416.917 258.151,408.656 " fill="transparent" stroke-width="0.5" stroke="rgb(0,0,255)" />
	<polyline points="251.572,416.917 244.617,406.758 " fill="transparent" stroke-width="0.5" stroke="rgb(0,0,255)" />
	<polyline points="324.856,380.425 324.38,366.903 " fill="transparent" stroke-width="0.5" stroke="rgb(0,0,255)" />
	<polyline points="301.9,393.645 184.05,453.25 " fill="transparent" stroke-width="0.5" stroke="rgb(0,0,255)" />
	<polyline points="184.05,453.25 119.357,453.207 " fill="transparent" stroke-width="0.5" stroke="rgb(0,0,255)" />
	<polyline points="184.05,453.25 190.836,443.33 " fill="transparent" stroke-width="0.5" stroke="rgb(0,0,255)" />
	<polyline points="190.836,443.33 227.299,438.817 " fill="transparent" stroke-width="0.5" stroke="rgb(0,0,255)" />
	<polyline points="227.299,438.817 131.636,469.756 " fill="transparent" stroke-width="0.5" stroke="rgb(0,0,255)" />
	<polyline points="131.636,469.756 81.744,489.33 " fill="transparent" stroke-width="0.5" stroke="rgb(0,0,255)" />
	<polyline points="81.744,489.33 101.915,468.957 " fill="transparent" stroke-width="0.5" stroke="rgb(0,0,255)" />
	<polyline points="101.915,468.957 109.603,447.597 " fill="transparent" stroke-width="0.5" stroke="rgb(0,0,255)" />
	<polyline points="184.05,453.25 156.773,436.764 " fill="transparent" stroke-width="0.5" stroke="rgb(0,0,255)" />
	<polyline points="156.773,436.764 73.2407,467.614 " fill="transparent" stroke-width="0.5" stroke="rgb(0,0,255)" />
	<polyline points="73.2407,467.614 23.4359,496.812 " fill="transparent" stroke-width="0.5" stroke="rgb(0,0,255)" />
	<polyline points="73.2407,467.614 67.7571,445.788 " fill="transparent" stroke-width="0.5" stroke="rgb(0,0,255)" />
	<polyline points="156.773,436.764 97.023,435.53 " fill="transparent" stroke-width="0.5" stroke="rgb(0,0,255)" />
	<polyline points="415.38,359.281 429.772,347.676 " fill="transparent" stroke-width="0.5" stroke="rgb(0,0,255)" />
	<polyline points="429.772,347.676 448.544,339.681 " fill="transparent" stroke-width="0.5" stroke="rgb(0,0,255)" />
	<polyline points="448.544,339.681 386.473,350.053 " fill="transparent" stroke-width="0.5" stroke="rgb(0,0,255)" />
	<polyline points="448.544,339.681 455.392,330.051 " fill="transparent" stroke-width="0.5" stroke="rgb(0,0,255)" />
	<polyline points="455.392,330.051 377.662,351.767 " fill="transparent" stroke-width="0.5" stroke="rgb(0,0,255)" />
	<polyline points="429.772,347.676 341.037,369.461 " fill="transparent" stroke-width="0.5" stroke="rgb(0,0,255)" />
	<polyline points="305.506,377.075 309.979,362.043 " fill="transparent" stroke-width="0.5" stroke="rgb(0,0,255)" />
	<polyline points="309.979,362.043 195.36,378.005 " fill="transparent" stroke-width="0.5" stroke="rgb(0,0,255)" />
	<polyline points="305.506,377.075 224.842,391.218 " fill="transparent" stroke-width="0.5" stroke="rgb(0,0,255)" />
	<polyline points="305.506,377.075 188.863,402.909 " fill="transparent" stroke-width="0.5" stroke="rgb(0,0,255)" />
	<polyline points="305.506,377.075 203.161,394.023 " fill="transparent" stroke-width="0.5" stroke="rgb(0,0,255)" />
	<polyline points="251.776,361.31 166.729,365.8 " fill="transparent" stroke-width="0.5" stroke="rgb(0,0,255)" />
	<polyline points="251.776,361.31 178.563,392.117 " fill="transparent" stroke-width="0.5" stroke="rgb(0,0,255)" />
	<polyline points="248.206,371.184 177.833,413.38 " fill="transparent" stroke-width="0.5" stroke="rgb(0,0,255)" />
	<polyline points="177.833,413.38 79.7443,448.753 " fill="transparent" stroke-width="0.5" stroke="rgb(0,0,255)" />
	<polyline points="130.597,382.715 70.1858,364.061 " fill="transparent" stroke-width="0.5" stroke="rgb(0,0,255)" />
	<polyline points="70.1858,364.061 78.1812,343.51 " fill="transparent" stroke-width="0.5" stroke="rgb(0,0,255)" />
	<polyline points="78.1812,343.51 16.0333,394.459 " fill="transparent" stroke-width="0.5" stroke="rgb(0,0,255)" />
	<polyline points="70.1858,364.061 91.182,349.287 " fill="transparent" stroke-width="0.5" stroke="rgb(0,0,255)" />
	<polyline points="91.182,349.287 67.8645,330.992 " fill="transparent" stroke-width="0.5" stroke="rgb(0,0,255)" />
	<polyline points="67.8645,330.992 62.8489,318.354 " fill="transparent" stroke-width="0.5" stroke="rgb(0,0,255)" />
	<polyline points="62.8489,318.354 78.117,301.444 " fill="transparent" stroke-width="0.5" stroke="rgb(0,0,255)" />
	<polyline points="78.117,301.444 74.8877,289.681 " fill="transparent" stroke-width="0.5" stroke="rgb(0,0,255)" />
	<polyline points="74.8877,289.681 8.30771,379.973 " fill="transparent" stroke-width="0.5" stroke="rgb(0,0,255)" />
	<polyline points="78.117,301.444 49.6691,280.812 " fill="transparent" stroke-width="0.5" stroke="rgb(0,0,255)" />
	<polyline points="49.6691,280.812 0.914318,382.968 " fill="transparent" stroke-width="0.5" stroke="rgb(0,0,255)" />
	<polyline points="49.6691,280.812 30.6802,258.245 " fill="transparent" stroke-width="0.5" stroke="rgb(0,0,255)" />
	<polyline points="30.6802,258.245 22.0437,248.23 " fill="transparent" stroke-width="0.5" stroke="rgb(0,0,255)" />
	<polyline points="22.0437,248.23 41.8032,233.845 " fill="transparent" stroke-width="0.5" stroke="rgb(0,0,255)" />
	<polyline points="41.8032,233.845 87.9065,337.521 " fill="transparent" stroke-width="0.5" stroke="rgb(0,0,255)" />
	<polyline points="87.9065,337.521 102.17,320.216 " fill="transparent" stroke-width="0.5" stroke="rgb(0,0,255)" />
	<polyline points="41.8032,233.845 87.1164,243.317 " fill="transparent" stroke-width="0.5" stroke="rgb(0,0,255)" />
	<polyline points="87.1164,243.317 109.976,385.235 " fill="transparent" stroke-width="0.5" stroke="rgb(0,0,255)" />
	<polyline points="87.1164,243.317 17.8273,352.04 " fill="transparent" stroke-width="0.5" stroke="rgb(0,0,255)" />
	<polyline points="17.8273,352.04 13.2281,325.426 " fill="transparent" stroke-width="0.5" stroke="rgb(0,0,255)" />
	<polyline points="13.2281,325.426 28.9674,307.327 " fill="transparent" stroke-width="0.5" stroke="rgb(0,0,255)" />
	<polyline points="13.2281,325.426 7.28223,300.885 " fill="transparent" stroke-width="0.5" stroke="rgb(0,0,255)" />
	<polyline points="87.1164,243.317 12.9127,365.452 " fill="transparent" stroke-width="0.5" stroke="rgb(0,0,255)" />
	<polyline points="49.6691,280.812 2.89773,413.629 " fill="transparent" stroke-width="0.5" stroke="rgb(0,0,255)" />
	<polyline points="78.117,301.444 31.7715,434.654 " fill="transparent" stroke-width="0.5" stroke="rgb(0,0,255)" />
	<polyline points="91.182,349.287 34.5425,381.998 " fill="transparent" stroke-width="0.5" stroke="rgb(0,0,255)" />
	<polyline points="34.5425,381.998 52.1014,361.101 " fill="transparent" stroke-width="0.5" stroke="rgb(0,0,255)" />
	<polyline points="70.1858,364.061 7.60549,433.654 " fill="transparent" stroke-width="0.5" stroke="rgb(0,0,255)" />
	<polyline points="7.60549,433.654 22.3929,407.418 " fill="transparent" stroke-width="0.5" stroke="rgb(0,0,255)" />
	<polyline points="7.60549,433.654 19.2483,410.052 " fill="transparent" stroke-width="0.5" stroke="rgb(0,0,255)" />
	<polyline points="130.597,382.715 70.4606,386.762 " fill="transparent" stroke-width="0.5" stroke="rgb(0,0,255)" />
	<polyline points="70.4606,386.762 95.849,369.247 " fill="transparent" stroke-width="0.5" stroke="rgb(0,0,255)" />
	<polyline points="130.597,382.715 32.3009,406.724 " fill="transparent" stroke-width="0.5" stroke="rgb(0,0,255)" />
	<polyline points="32.3009,406.724 33.7727,384.406 " fill="transparent" stroke-width="0.5" stroke="rgb(0,0,255)" />
	<polyline points="109.41,400.413 109.678,386.64 " fill="transparent" stroke-width="0.5" stroke="rgb(0,0,255)" />
	<polyline points="109.678,386.64 42.8181,418.306 " fill="transparent" stroke-width="0.5" stroke="rgb(0,0,255)" />
	<polyline points="109.678,386.64 94.0931,367.432 " fill="transparent" stroke-width="0.5" stroke="rgb(0,0,255)" />
	<polyline points="83.3333,416.667 31.95,431.067 " fill="transparent" stroke-width="0.5" stroke="rgb(0,0,255)" />
	<polyline points="31.95,431.067 28.5687,402.711 " fill="transparent" stroke-width="0.5" stroke="rgb(0,0,255)" />
	<polyline points="31.95,431.067 28.7326,402.712 " fill="transparent" stroke-width="0.5" stroke="rgb(0,0,255)" />
	<polyline points="31.95,431.067 85.2976,467.504 " fill="transparent" stroke-width="0.5" stroke="rgb(0,0,255)" />
	<polyline points="85.2976,467.504 73.2568,449.759 " fill="transparent" stroke-width="0.5" stroke="rgb(0,0,255)" />
	<polyline points="85.2976,467.504 93.6436,445.32 " fill="transparent" stroke-width="0.5" stroke="rgb(0,0,255)" />
	<polyline points="93.6436,445.32 96.4113,433.294 " fill="transparent" stroke-width="0.5" stroke="rgb(0,0,255)" />
	<circle cx="83.3333" cy="416.667" r="2" fill="rgb(255,0,0)" />
	<circle cx="416.667" cy="83.3333" r="2" fill="rgb(0,255,0)" />
	<polyline points="83.3333,416.667 152.197,412.966 176.735,394.706 196.423,377.431 90.5012,389.442 107.068,372.942 41.275,353.678 44.8057,329.084 43.2502,312.017 35.5283,288.105 22.7066,276.339 57.851,266.357 44.451,250.758 95.363,288.109 143.486,288.053 144.319,277.965 176.546,269.494 185.014,256.714 134.603,233.702 125.837,211.372 104.763,190.122 133.968,191.508 178.183,205.475 179.288,192.44 201.121,192.112 218.367,189.728 217.535,171.249 232.603,161.086 263.866,170.225 323.114,189.632 327.443,180.326 331.489,167.846 347.332,164.181 363.549,159.862 360.753,149.995 379.099,145.199 403.53,133.916 446.39,126.154 440.943,109.38 427.152,98.2405 419.672,86.8009 " fill="transparent" stroke-width="3" stroke="rgb(0,0,0)" />
</svg>
