<?xml version="1.0" standalone="no" ?>
<!DOCTYPE svg PUBLIC "-//W3C//DTD SVG 1.1//EN" "http://www.w3.org/Graphics/SVG/1.1/DTD/svg11.dtd">
<svg width="500px" height="500px" xmlns="http://www.w3.org/2000/svg" version="1.1" >
	<circle cx="271.434" cy="251.55" r="2.5" fill="rgb(255,255,255)" />
	<circle cx="419.01" cy="190.095" r="2.5" fill="rgb(247,247,247)" />
	<circle cx="270.983" cy="291.562" r="2.5" fill="rgb(244,244,244)" />
	<circle cx="325.258" cy="249.717" r="2.5" fill="rgb(243,243,243)" />
	<circle cx="318.863" cy="232.986" r="2.5" fill="rgb(243,243,243)" />
	<circle cx="402.106" cy="191.957" r="2.5" fill="rgb(242,242,242)" />
	<circle cx="397.476" cy="198.95" r="2.5" fill="rgb(236,236,236)" />
	<circle cx="365.99" cy="196.137" r="2.5" fill="rgb(233,233,233)" />
	<circle cx="273.626" cy="232.737" r="2.5" fill="rgb(232,232,232)" />
	<circle cx="317.307" cy="274.09" r="2.5" fill="rgb(230,230,230)" />
	<circle cx="380.93" cy="210.708" r="2.5" fill="rgb(222,222,222)" />
	<circle cx="306.555" cy="219.183" r="2.5" fill="rgb(217,217,217)" />
	<circle cx="378.335" cy="217.643" r="2.5" fill="rgb(216,216,216)" />
	<circle cx="150.386" cy="171.777" r="2.5" fill="rgb(215,215,215)" />
	<circle cx="185.547" cy="133.909" r="2.5" fill="rgb(214,214,214)" />
	<circle cx="374.49" cy="224.238" r="2.5" fill="rgb(209,209,209)" />
	<circle cx="169.584" cy="137.363" r="2.5" fill="rgb(209,209,209)" />
	<circle cx="128.982" cy="183.829" r="2.5" fill="rgb(205,205,205)" />
	<circle cx="141.388" cy="133.338" r="2.5" fill="rgb(204,204,204)" />
	<circle cx="142.905" cy="146.347" r="2.5" fill="rgb(203,203,203)" />
	<circle cx="260.843" cy="177.935" r="2.5" fill="rgb(203,203,203)" />
	<circle cx="164.027" cy="228.91" r="2.5" fill="rgb(202,202,202)" />
	<circle cx="370.652" cy="235.223" r="2.5" fill="rgb(199,199,199)" />
	<circle cx="221.156" cy="162.818" r="2.5" fill="rgb(196,196,196)" />
	<circle cx="256.342" cy="187.71" r="2.5" fill="rgb(196,196,196)" />
	<circle cx="471.54" cy="265.788" r="2.5" fill="rgb(193,193,193)" />
	<circle cx="487.973" cy="266.909" r="2.5" fill="rgb(193,193,193)" />
	<circle cx="267.312" cy="329.982" r="2.5" fill="rgb(193,193,193)" />
	<circle cx="375.915" cy="243.518" r="2.5" fill="rgb(192,192,192)" />
	<circle cx="269.384" cy="283.557" r="2.5" fill="rgb(191,191,191)" />
	<circle cx="211.733" cy="174.517" r="2.5" fill="rgb(188,188,188)" />
	<circle cx="193.707" cy="167.928" r="2.5" fill="rgb(188,188,188)" />
	<circle cx="279.057" cy="347.802" r="2.5" fill="rgb(187,187,187)" />
	<circle cx="200.315" cy="179.962" r="2.5" fill="rgb(183,183,183)" />
	<circle cx="482.695" cy="278.252" r="2.5" fill="rgb(182,182,182)" />
	<circle cx="375.817" cy="255.152" r="2.5" fill="rgb(181,181,181)" />
	<circle cx="280.662" cy="307.361" r="2.5" fill="rgb(181,181,181)" />
	<circle cx="109.97" cy="144.999" r="2.5" fill="rgb(180,180,180)" />
	<circle cx="149.779" cy="294.562" r="2.5" fill="rgb(180,180,180)" />
	<circle cx="185.481" cy="184.026" r="2.5" fill="rgb(178,178,178)" />
	<circle cx="197.206" cy="206.874" r="2.5" fill="rgb(178,178,178)" />
	<circle cx="258.618" cy="309.82" r="2.5" fill="rgb(177,177,177)" />
	<circle cx="381.641" cy="263.346" r="2.5" fill="rgb(175,175,175)" />
	<circle cx="286.446" cy="374.452" r="2.5" fill="rgb(172,172,172)" />
	<circle cx="269.516" cy="317.686" r="2.5" fill="rgb(171,171,171)" />
	<circle cx="131.503" cy="164.658" r="2.5" fill="rgb(171,171,171)" />
	<circle cx="412.008" cy="273.786" r="2.5" fill="rgb(168,168,168)" />
	<circle cx="151.848" cy="178.418" r="2.5" fill="rgb(166,166,166)" />
	<circle cx="377.33" cy="272.585" r="2.5" fill="rgb(166,166,166)" />
	<circle cx="136.047" cy="217.336" r="2.5" fill="rgb(161,161,161)" />
	<circle cx="156.922" cy="196.619" r="2.5" fill="rgb(160,160,160)" />
	<circle cx="228.917" cy="288.844" r="2.5" fill="rgb(160,160,160)" />
	<circle cx="388.87" cy="279.398" r="2.5" fill="rgb(159,159,159)" />
	<circle cx="400.69" cy="281.619" r="2.5" fill="rgb(159,159,159)" />
	<circle cx="175.988" cy="208.901" r="2.5" fill="rgb(158,158,158)" />
	<circle cx="220.967" cy="203.768" r="2.5" fill="rgb(157,157,157)" />
	<circle cx="109.603" cy="447.597" r="2.5" fill="rgb(157,157,157)" />
	<circle cx="229.461" cy="297.848" r="2.5" fill="rgb(155,155,155)" />
	<circle cx="157.042" cy="225.055" r="2.5" fill="rgb(154,154,154)" />
	<circle cx="242.541" cy="204.762" r="2.5" fill="rgb(153,153,153)" />
	<circle cx="339.359" cy="270.688" r="2.5" fill="rgb(152,152,152)" />
	<circle cx="232.479" cy="289.992" r="2.5" fill="rgb(147,147,147)" />
	<circle cx="237.727" cy="211.459" r="2.5" fill="rgb(147,147,147)" />
	<circle cx="156.665" cy="184.095" r="2.5" fill="rgb(147,147,147)" />
	<circle cx="101.915" cy="468.957" r="2.5" fill="rgb(147,147,147)" />
	<circle cx="235.194" cy="313.082" r="2.5" fill="rgb(146,146,146)" />
	<circle cx="386.989" cy="293.232" r="2.5" fill="rgb(146,146,146)" />
	<circle cx="333.976" cy="278.405" r="2.5" fill="rgb(145,145,145)" />
	<circle cx="67.7571" cy="445.788" r="2.5" fill="rgb(141,141,141)" />
	<circle cx="205.356" cy="207.159" r="2.5" fill="rgb(140,140,140)" />
	<circle cx="81.744" cy="489.33" r="2.5" fill="rgb(138,138,138)" />
	<circle cx="339.509" cy="288.321" r="2.5" fill="rgb(138,138,138)" />
	<circle cx="23.4359" cy="496.812" r="2.5" fill="rgb(137,137,137)" />
	<circle cx="131.636" cy="469.756" r="2.5" fill="rgb(133,133,133)" />
	<circle cx="107.66" cy="269.661" r="2.5" fill="rgb(132,132,132)" />
	<circle cx="97.023" cy="435.53" r="2.5" fill="rgb(132,132,132)" />
	<circle cx="420.787" cy="446.842" r="2.5" fill="rgb(132,132,132)" />
	<circle cx="73.2407" cy="467.614" r="2.5" fill="rgb(131,131,131)" />
	<circle cx="377.662" cy="351.767" r="2.5" fill="rgb(131,131,131)" />
	<circle cx="192.331" cy="218.552" r="2.5" fill="rgb(130,130,130)" />
	<circle cx="21.6396" cy="377.955" r="2.5" fill="rgb(129,129,129)" />
	<circle cx="321.759" cy="477.373" r="2.5" fill="rgb(129,129,129)" />
	<circle cx="334.498" cy="299.203" r="2.5" fill="rgb(128,128,128)" />
	<circle cx="244.617" cy="406.758" r="2.5" fill="rgb(126,126,126)" />
	<circle cx="325.4" cy="300.337" r="2.5" fill="rgb(126,126,126)" />
	<circle cx="234.003" cy="345.503" r="2.5" fill="rgb(125,125,125)" />
	<circle cx="258.151" cy="408.656" r="2.5" fill="rgb(125,125,125)" />
	<circle cx="248.271" cy="323.085" r="2.5" fill="rgb(124,124,124)" />
	<circle cx="172.444" cy="221.998" r="2.5" fill="rgb(123,123,123)" />
	<circle cx="455.392" cy="330.051" r="2.5" fill="rgb(123,123,123)" />
	<circle cx="227.299" cy="438.817" r="2.5" fill="rgb(123,123,123)" />
	<circle cx="156.773" cy="436.764" r="2.5" fill="rgb(123,123,123)" />
	<circle cx="324.38" cy="366.903" r="2.5" fill="rgb(123,123,123)" />
	<circle cx="177.234" cy="225.689" r="2.5" fill="rgb(122,122,122)" />
	<circle cx="199.52" cy="366.811" r="2.5" fill="rgb(122,122,122)" />
	<circle cx="119.357" cy="453.207" r="2.5" fill="rgb(121,121,121)" />
	<circle cx="85.4479" cy="284.728" r="2.5" fill="rgb(121,121,121)" />
	<circle cx="315.457" cy="305.674" r="2.5" fill="rgb(120,120,120)" />
	<circle cx="251.572" cy="416.917" r="2.5" fill="rgb(119,119,119)" />
	<circle cx="386.473" cy="350.053" r="2.5" fill="rgb(119,119,119)" />
	<circle cx="326.187" cy="373.094" r="2.5" fill="rgb(118,118,118)" />
	<circle cx="55.6723" cy="325.702" r="2.5" fill="rgb(118,118,118)" />
	<circle cx="323.973" cy="310.623" r="2.5" fill="rgb(117,117,117)" />
	<circle cx="190.836" cy="443.33" r="2.5" fill="rgb(117,117,117)" />
	<circle cx="71.9372" cy="282.832" r="2.5" fill="rgb(115,115,115)" />
	<circle cx="418.488" cy="459.981" r="2.5" fill="rgb(115,115,115)" />
	<circle cx="403.952" cy="466.463" r="2.5" fill="rgb(115,115,115)" />
	<circle cx="152.388" cy="426.22" r="2.5" fill="rgb(115,115,115)" />
	<circle cx="172.192" cy="239.476" r="2.5" fill="rgb(113,113,113)" />
	<circle cx="162.397" cy="453.009" r="2.5" fill="rgb(113,113,113)" />
	<circle cx="448.544" cy="339.681" r="2.5" fill="rgb(112,112,112)" />
	<circle cx="465.185" cy="452.607" r="2.5" fill="rgb(112,112,112)" />
	<circle cx="142.314" cy="421.171" r="2.5" fill="rgb(112,112,112)" />
	<circle cx="324.856" cy="380.425" r="2.5" fill="rgb(112,112,112)" />
	<circle cx="312.859" cy="315.915" r="2.5" fill="rgb(111,111,111)" />
	<circle cx="184.05" cy="453.25" r="2.5" fill="rgb(111,111,111)" />
	<circle cx="93.1211" cy="467.654" r="2.5" fill="rgb(111,111,111)" />
	<circle cx="341.037" cy="369.461" r="2.5" fill="rgb(110,110,110)" />
	<circle cx="324.304" cy="381.95" r="2.5" fill="rgb(110,110,110)" />
	<circle cx="293.056" cy="380.858" r="2.5" fill="rgb(109,109,109)" />
	<circle cx="489.576" cy="453.286" r="2.5" fill="rgb(109,109,109)" />
	<circle cx="174.199" cy="251.831" r="2.5" fill="rgb(107,107,107)" />
	<circle cx="229.603" cy="428.333" r="2.5" fill="rgb(107,107,107)" />
	<circle cx="363.644" cy="372.682" r="2.5" fill="rgb(106,106,106)" />
	<circle cx="145.985" cy="445.286" r="2.5" fill="rgb(106,106,106)" />
	<circle cx="222.883" cy="371.259" r="2.5" fill="rgb(105,105,105)" />
	<circle cx="288.736" cy="319.347" r="2.5" fill="rgb(104,104,104)" />
	<circle cx="163.187" cy="322.854" r="2.5" fill="rgb(104,104,104)" />
	<circle cx="269.739" cy="400.056" r="2.5" fill="rgb(103,103,103)" />
	<circle cx="203.239" cy="265.93" r="2.5" fill="rgb(101,101,101)" />
	<circle cx="429.772" cy="347.676" r="2.5" fill="rgb(101,101,101)" />
	<circle cx="483.373" cy="459.508" r="2.5" fill="rgb(100,100,100)" />
	<circle cx="301.384" cy="403.405" r="2.5" fill="rgb(99,99,99)" />
	<circle cx="301.9" cy="393.645" r="2.5" fill="rgb(99,99,99)" />
	<circle cx="269.567" cy="326.824" r="2.5" fill="rgb(99,99,99)" />
	<circle cx="277.307" cy="324.335" r="2.5" fill="rgb(99,99,99)" />
	<circle cx="219.67" cy="381.801" r="2.5" fill="rgb(98,98,98)" />
	<circle cx="314.293" cy="389.186" r="2.5" fill="rgb(98,98,98)" />
	<circle cx="7.28223" cy="300.885" r="2.5" fill="rgb(97,97,97)" />
	<circle cx="234.649" cy="362.219" r="2.5" fill="rgb(97,97,97)" />
	<circle cx="205.049" cy="337.499" r="2.5" fill="rgb(97,97,97)" />
	<circle cx="28.9674" cy="307.327" r="2.5" fill="rgb(97,97,97)" />
	<circle cx="351.298" cy="384.501" r="2.5" fill="rgb(94,94,94)" />
	<circle cx="287.789" cy="336.961" r="2.5" fill="rgb(94,94,94)" />
	<circle cx="272.488" cy="330.722" r="2.5" fill="rgb(94,94,94)" />
	<circle cx="207.336" cy="281.873" r="2.5" fill="rgb(93,93,93)" />
	<circle cx="184.216" cy="278.978" r="2.5" fill="rgb(92,92,92)" />
	<circle cx="13.2281" cy="325.426" r="2.5" fill="rgb(92,92,92)" />
	<circle cx="286.809" cy="340.023" r="2.5" fill="rgb(88,88,88)" />
	<circle cx="102.17" cy="320.216" r="2.5" fill="rgb(88,88,88)" />
	<circle cx="415.38" cy="359.281" r="2.5" fill="rgb(88,88,88)" />
	<circle cx="345.369" cy="340.487" r="2.5" fill="rgb(87,87,87)" />
	<circle cx="257.737" cy="359.462" r="2.5" fill="rgb(87,87,87)" />
	<circle cx="109.976" cy="385.235" r="2.5" fill="rgb(87,87,87)" />
	<circle cx="12.9127" cy="365.452" r="2.5" fill="rgb(86,86,86)" />
	<circle cx="17.8273" cy="352.04" r="2.5" fill="rgb(86,86,86)" />
	<circle cx="203.198" cy="293.786" r="2.5" fill="rgb(85,85,85)" />
	<circle cx="87.9065" cy="337.521" r="2.5" fill="rgb(82,82,82)" />
	<circle cx="87.1164" cy="243.317" r="2.5" fill="rgb(80,80,80)" />
	<circle cx="347.833" cy="352.351" r="2.5" fill="rgb(78,78,78)" />
	<circle cx="207.216" cy="309.514" r="2.5" fill="rgb(77,77,77)" />
	<circle cx="195.36" cy="378.005" r="2.5" fill="rgb(77,77,77)" />
	<circle cx="41.8032" cy="233.845" r="2.5" fill="rgb(76,76,76)" />
	<circle cx="100.804" cy="371.582" r="2.5" fill="rgb(70,70,70)" />
	<circle cx="22.0437" cy="248.23" r="2.5" fill="rgb(68,68,68)" />
	<circle cx="205.724" cy="324.059" r="2.5" fill="rgb(68,68,68)" />
	<circle cx="331.436" cy="365.059" r="2.5" fill="rgb(65,65,65)" />
	<circle cx="309.979" cy="362.043" r="2.5" fill="rgb(65,65,65)" />
	<circle cx="188.863" cy="402.909" r="2.5" fill="rgb(64,64,64)" />
	<circle cx="30.6802" cy="258.245" r="2.5" fill="rgb(64,64,64)" />
	<circle cx="203.161" cy="394.023" r="2.5" fill="rgb(63,63,63)" />
	<circle cx="2.89773" cy="413.629" r="2.5" fill="rgb(63,63,63)" />
	<circle cx="290.94" cy="363.923" r="2.5" fill="rgb(63,63,63)" />
	<circle cx="0.914318" cy="382.968" r="2.5" fill="rgb(62,62,62)" />
	<circle cx="210.402" cy="335.869" r="2.5" fill="rgb(62,62,62)" />
	<circle cx="224.842" cy="391.218" r="2.5" fill="rgb(61,61,61)" />
	<circle cx="8.30771" cy="379.973" r="2.5" fill="rgb(60,60,60)" />
	<circle cx="31.7715" cy="434.654" r="2.5" fill="rgb(57,57,57)" />
	<circle cx="79.7443" cy="448.753" r="2.5" fill="rgb(56,56,56)" />
	<circle cx="166.729" cy="365.8" r="2.5" fill="rgb(56,56,56)" />
	<circle cx="49.6691" cy="280.812" r="2.5" fill="rgb(56,56,56)" />
	<circle cx="259" cy="352.123" r="2.5" fill="rgb(54,54,54)" />
	<circle cx="178.563" cy="392.117" r="2.5" fill="rgb(54,54,54)" />
	<circle cx="305.506" cy="377.075" r="2.5" fill="rgb(53,53,53)" />
	<circle cx="74.8877" cy="289.681" r="2.5" fill="rgb(53,53,53)" />
	<circle cx="233.795" cy="352.029" r="2.5" fill="rgb(53,53,53)" />
	<circle cx="170.411" cy="371.068" r="2.5" fill="rgb(49,49,49)" />
	<circle cx="78.117" cy="301.444" r="2.5" fill="rgb(49,49,49)" />
	<circle cx="251.776" cy="361.31" r="2.5" fill="rgb(48,48,48)" />
	<circle cx="177.833" cy="413.38" r="2.5" fill="rgb(47,47,47)" />
	<circle cx="52.1014" cy="361.101" r="2.5" fill="rgb(41,41,41)" />
	<circle cx="248.206" cy="371.184" r="2.5" fill="rgb(41,41,41)" />
	<circle cx="62.8489" cy="318.354" r="2.5" fill="rgb(41,41,41)" />
	<circle cx="67.8645" cy="330.992" r="2.5" fill="rgb(36,36,36)" />
	<circle cx="22.3929" cy="407.418" r="2.5" fill="rgb(36,36,36)" />
	<circle cx="245.029" cy="379.496" r="2.5" fill="rgb(36,36,36)" />
	<circle cx="16.0333" cy="394.459" r="2.5" fill="rgb(36,36,36)" />
	<circle cx="19.2483" cy="410.052" r="2.5" fill="rgb(35,35,35)" />
	<circle cx="34.5425" cy="381.998" r="2.5" fill="rgb(34,34,34)" />
	<circle cx="78.1812" cy="343.51" r="2.5" fill="rgb(31,31,31)" />
	<circle cx="91.182" cy="349.287" r="2.5" fill="rgb(30,30,30)" />
	<circle cx="197.162" cy="379.668" r="2.5" fill="rgb(29,29,29)" />
	<circle cx="7.60549" cy="433.654" r="2.5" fill="rgb(29,29,29)" />
	<circle cx="33.7727" cy="384.406" r="2.5" fill="rgb(28,28,28)" />
	<circle cx="232.157" cy="392.31" r="2.5" fill="rgb(28,28,28)" />
	<circle cx="95.849" cy="369.247" r="2.5" fill="rgb(27,27,27)" />
	<circle cx="70.1858" cy="364.061" r="2.5" fill="rgb(23,23,23)" />
	<circle cx="32.3009" cy="406.724" r="2.5" fill="rgb(22,22,22)" />
	<circle cx="96.4113" cy="433.294" r="2.5" fill="rgb(21,21,21)" />
	<circle cx="132.654" cy="367.687" r="2.5" fill="rgb(21,21,21)" />
	<circle cx="70.4606" cy="386.762" r="2.5" fill="rgb(20,20,20)" />
	<circle cx="182.521" cy="397.601" r="2.5" fill="rgb(19,19,19)" />
	<circle cx="94.0931" cy="367.432" r="2.5" fill="rgb(19,19,19)" />
	<circle cx="42.8181" cy="418.306" r="2.5" fill="rgb(17,17,17)" />
	<circle cx="93.6436" cy="445.32" r="2.5" fill="rgb(17,17,17)" />
	<circle cx="73.2568" cy="449.759" r="2.5" fill="rgb(16,16,16)" />
	<circle cx="130.597" cy="382.715" r="2.5" fill="rgb(15,15,15)" />
	<circle cx="109.678" cy="386.64" r="2.5" fill="rgb(12,12,12)" />
	<circle cx="28.5687" cy="402.711" r="2.5" fill="rgb(12,12,12)" />
	<circle cx="28.7326" cy="402.712" r="2.5" fill="rgb(12,12,12)" />
	<circle cx="85.2976" cy="467.504" r="2.5" fill="rgb(8,8,8)" />
	<circle cx="109.41" cy="400.413" r="2.5" fill="rgb(7,7,7)" />
	<circle cx="31.95" cy="431.067" r="2.5" fill="rgb(4,4,4)" />
	<circle cx="83.3333" cy="416.667" r="2" fill="rgb(255,0,0)" />
	<circle cx="416.667" cy="83.3333" r="2" fill="rgb(0,255,0)" />
	<circle cx="83.3333" cy="416.667" r="2" fill="rgb(0,255,0)" />
	<circle cx="152.197" cy="412.966" r="2" fill="rgb(0,255,0)" />
	<circle cx="176.735" cy="394.706" r="2" fill="rgb(0,255,0)" />
	<circle cx="196.423" cy="377.431" r="2" fill="rgb(0,255,0)" />
	<circle cx="90.5012" cy="389.442" r="2" fill="rgb(0,255,0)" />
	<circle cx="107.068" cy="372.942" r="2" fill="rgb(0,255,0)" />
	<circle cx="41.275" cy="353.678" r="2" fill="rgb(0,255,0)" />
	<circle cx="44.8057" cy="329.084" r="2" fill="rgb(0,255,0)" />
	<circle cx="43.2502" cy="312.017" r="2" fill="rgb(0,255,0)" />
	<circle cx="35.5283" cy="288.105" r="2" fill="rgb(0,255,0)" />
	<circle cx="22.7066" cy="276.339" r="2" fill="rgb(0,255,0)" />
	<circle cx="57.851" cy="266.357" r="2" fill="rgb(0,255,0)" />
	<circle cx="44.451" cy="250.758" r="2" fill="rgb(0,255,0)" />
	<circle cx="95.363" cy="288.109" r="2" fill="rgb(0,255,0)" />
	<circle cx="143.486" cy="288.053" r="2" fill="rgb(0,255,0)" />
	<circle cx="144.319" cy="277.965" r="2" fill="rgb(0,255,0)" />
	<circle cx="176.546" cy="269.494" r="2" fill="rgb(0,255,0)" />
	<circle cx="185.014" cy="256.714" r="2" fill="rgb(0,255,0)" />
	<circle cx="134.603" cy="233.702" r="2" fill="rgb(0,255,0)" />
	<circle cx="125.837" cy="211.372" r="2" fill="rgb(0,255,0)" />
	<circle cx="104.763" cy="190.122" r="2" fill="rgb(0,255,0)" />
	<circle cx="133.968" cy="191.508" r="2" fill="rgb(0,255,0)" />
	<circle cx="178.183" cy="205.475" r="2" fill="rgb(0,255,0)" />
	<circle cx="179.288" cy="192.44" r="2" fill="rgb(0,255,0)" />
	<circle cx="201.121" cy="192.112" r="2" fill="rgb(0,255,0)" />
	<circle cx="218.367" cy="189.728" r="2" fill="rgb(0,255,0)" />
	<circle cx="217.535" cy="171.249" r="2" fill="rgb(0,255,0)" />
	<circle cx="232.603" cy="161.086" r="2" fill="rgb(0,255,0)" />
	<circle cx="263.866" cy="170.225" r="2" fill="rgb(0,255,0)" />
	<circle cx="323.114" cy="189.632" r="2" fill="rgb(0,255,0)" />
	<circle cx="327.443" cy="180.326" r="2" fill="rgb(0,255,0)" />
	<circle cx="331.489" cy="167.846" r="2" fill="rgb(0,255,0)" />
	<circle cx="347.332" cy="164.181" r="2" fill="rgb(0,255,0)" />
	<circle cx="363.549" cy="159.862" r="2" fill="rgb(0,255,0)" />
	<circle cx="360.753" cy="149.995" r="2" fill="rgb(0,255,0)" />
	<circle cx="379.099" cy="145.199" r="2" fill="rgb(0,255,0)" />
	<circle cx="403.53" cy="133.916" r="2" fill="rgb(0,255,0)" />
	<circle cx="446.39" cy="126.154" r="2" fill="rgb(0,255,0)" />
	<circle cx="440.943" cy="109.38" r="2" fill="rgb(0,255,0)" />
	<circle cx="427.152" cy="98.2405" r="2" fill="rgb(0,255,0)" />
	<circle cx="419.672" cy="86.8009" r="2" fill="rgb(0,255,0)" />
</svg>
