<?xml version="1.0" standalone="no" ?>
<!DOCTYPE svg PUBLIC "-//W3C//DTD SVG 1.1//EN" "http://www.w3.org/Graphics/SVG/1.1/DTD/svg11.dtd">
<svg width="500px" height="500px" xmlns="http://www.w3.org/2000/svg" version="1.1" >
	<polyline points="83.3333,416.667 87.9838,402.16 " fill="transparent" stroke-width="0.5" stroke="rgb(0,0,255)" />
	<polyline points="83.3333,416.667 115.699,411.381 " fill="transparent" stroke-width="0.5" stroke="rgb(0,0,255)" />
	<polyline points="115.699,411.381 52.6726,454.174 " fill="transparent" stroke-width="0.5" stroke="rgb(0,0,255)" />
	<polyline points="83.3333,416.667 97.974,395.917 " fill="transparent" stroke-width="0.5" stroke="rgb(0,0,255)" />
	<polyline points="97.974,395.917 29.5786,392.756 " fill="transparent" stroke-width="0.5" stroke="rgb(0,0,255)" />
	<polyline points="97.974,395.917 112.32,374.319 " fill="transparent" stroke-width="0.5" stroke="rgb(0,0,255)" />
	<polyline points="112.32,374.319 17.736,385.974 " fill="transparent" stroke-width="0.5" stroke="rgb(0,0,255)" />
	<polyline points="112.32,374.319 134.466,358.33 " fill="transparent" stroke-width="0.5" stroke="rgb(0,0,255)" />
	<polyline points="134.466,358.33 147.313,348.045 " fill="transparent" stroke-width="0.5" stroke="rgb(0,0,255)" />
	<polyline points="112.32,374.319 76.7681,355.771 " fill="transparent" stroke-width="0.5" stroke="rgb(0,0,255)" />
	<polyline points="76.7681,355.771 81.149,342.136 " fill="transparent" stroke-width="0.5" stroke="rgb(0,0,255)" />
	<polyline points="81.149,342.136 10.9619,367.384 " fill="transparent" stroke-width="0.5" stroke="rgb(0,0,255)" />
	<polyline points="81.149,342.136 89.4032,320.549 " fill="transparent" stroke-width="0.5" stroke="rgb(0,0,255)" />
	<polyline points="89.4032,320.549 94.3558,303.621 " fill="transparent" stroke-width="0.5" stroke="rgb(0,0,255)" />
	<polyline points="89.4032,320.549 58.7183,299.393 " fill="transparent" stroke-width="0.5" stroke="rgb(0,0,255)" />
	<polyline points="58.7183,299.393 45.689,284.366 " fill="transparent" stroke-width="0.5" stroke="rgb(0,0,255)" />
	<polyline points="45.689,284.366 38.094,272.757 " fill="transparent" stroke-width="0.5" stroke="rgb(0,0,255)" />
	<polyline points="38.094,272.757 50.0195,262.728 " fill="transparent" stroke-width="0.5" stroke="rgb(0,0,255)" />
	<polyline points="38.094,272.757 12.0002,260.417 " fill="transparent" stroke-width="0.5" stroke="rgb(0,0,255)" />
	<polyline points="38.094,272.757 95.0512,367.037 " fill="transparent" stroke-width="0.5" stroke="rgb(0,0,255)" />
	<polyline points="38.094,272.757 74.8443,261.586 " fill="transparent" stroke-width="0.5" stroke="rgb(0,0,255)" />
	<polyline points="74.8443,261.586 76.157,251.506 " fill="transparent" stroke-width="0.5" stroke="rgb(0,0,255)" />
	<polyline points="74.8443,261.586 68.3304,242.167 " fill="transparent" stroke-width="0.5" stroke="rgb(0,0,255)" />
	<polyline points="68.3304,242.167 107.76,245.208 " fill="transparent" stroke-width="0.5" stroke="rgb(0,0,255)" />
	<polyline points="107.76,245.208 81.1414,313.066 " fill="transparent" stroke-width="0.5" stroke="rgb(0,0,255)" />
	<polyline points="81.1414,313.066 70.6357,300.164 " fill="transparent" stroke-width="0.5" stroke="rgb(0,0,255)" />
	<polyline points="70.6357,300.164 81.6306,289.634 " fill="transparent" stroke-width="0.5" stroke="rgb(0,0,255)" />
	<polyline points="68.3304,242.167 62.5204,371.924 " fill="transparent" stroke-width="0.5" stroke="rgb(0,0,255)" />
	<polyline points="68.3304,242.167 39.4637,226.143 " fill="transparent" stroke-width="0.5" stroke="rgb(0,0,255)" />
	<polyline points="39.4637,226.143 43.3225,213.905 " fill="transparent" stroke-width="0.5" stroke="rgb(0,0,255)" />
	<polyline points="43.3225,213.905 131.765,293.5 " fill="transparent" stroke-width="0.5" stroke="rgb(0,0,255)" />
	<polyline points="43.3225,213.905 65.651,198.095 " fill="transparent" stroke-width="0.5" stroke="rgb(0,0,255)" />
	<polyline points="65.651,198.095 67.1807,180.637 " fill="transparent" stroke-width="0.5" stroke="rgb(0,0,255)" />
	<polyline points="67.1807,180.637 75.3211,168.872 " fill="transparent" stroke-width="0.5" stroke="rgb(0,0,255)" />
	<polyline points="75.3211,168.872 40.5899,167.882 " fill="transparent" stroke-width="0.5" stroke="rgb(0,0,255)" />
	<polyline points="40.5899,167.882 38.1149,153.298 " fill="transparent" stroke-width="0.5" stroke="rgb(0,0,255)" />
	<polyline points="38.1149,153.298 51.8565,136.409 " fill="transparent" stroke-width="0.5" stroke="rgb(0,0,255)" />
	<polyline points="51.8565,136.409 104.717,139.118 " fill="transparent" stroke-width="0.5" stroke="rgb(0,0,255)" />
	<polyline points="104.717,139.118 89.0556,122.471 " fill="transparent" stroke-width="0.5" stroke="rgb(0,0,255)" />
	<polyline points="89.0556,122.471 70.5941,269.766 " fill="transparent" stroke-width="0.5" stroke="rgb(0,0,255)" />
	<polyline points="51.8565,136.409 26.5005,130.925 " fill="transparent" stroke-width="0.5" stroke="rgb(0,0,255)" />
	<polyline points="38.1149,153.298 114.765,237.172 " fill="transparent" stroke-width="0.5" stroke="rgb(0,0,255)" />
	<polyline points="38.1149,153.298 85.6195,208.719 " fill="transparent" stroke-width="0.5" stroke="rgb(0,0,255)" />
	<polyline points="67.1807,180.637 69.7724,327.121 " fill="transparent" stroke-width="0.5" stroke="rgb(0,0,255)" />
	<polyline points="67.1807,180.637 100.601,176.156 " fill="transparent" stroke-width="0.5" stroke="rgb(0,0,255)" />
	<polyline points="100.601,176.156 87.3008,166.515 " fill="transparent" stroke-width="0.5" stroke="rgb(0,0,255)" />
	<polyline points="87.3008,166.515 76.281,298.574 " fill="transparent" stroke-width="0.5" stroke="rgb(0,0,255)" />
	<polyline points="100.601,176.156 126.968,172.332 " fill="transparent" stroke-width="0.5" stroke="rgb(0,0,255)" />
	<polyline points="126.968,172.332 119.151,151.988 " fill="transparent" stroke-width="0.5" stroke="rgb(0,0,255)" />
	<polyline points="119.151,151.988 176.196,162.255 " fill="transparent" stroke-width="0.5" stroke="rgb(0,0,255)" />
	<polyline points="126.968,172.332 84.9116,249.834 " fill="transparent" stroke-width="0.5" stroke="rgb(0,0,255)" />
	<polyline points="100.601,176.156 151.416,206.68 " fill="transparent" stroke-width="0.5" stroke="rgb(0,0,255)" />
	<polyline points="151.416,206.68 156.36,196.643 " fill="transparent" stroke-width="0.5" stroke="rgb(0,0,255)" />
	<polyline points="156.36,196.643 173.845,186.381 " fill="transparent" stroke-width="0.5" stroke="rgb(0,0,255)" />
	<polyline points="173.845,186.381 177.443,170.56 " fill="transparent" stroke-width="0.5" stroke="rgb(0,0,255)" />
	<polyline points="177.443,170.56 196.786,162.947 " fill="transparent" stroke-width="0.5" stroke="rgb(0,0,255)" />
	<polyline points="196.786,162.947 191.084,147.328 " fill="transparent" stroke-width="0.5" stroke="rgb(0,0,255)" />
	<polyline points="191.084,147.328 194.763,134.106 " fill="transparent" stroke-width="0.5" stroke="rgb(0,0,255)" />
	<polyline points="194.763,134.106 153.342,116.983 " fill="transparent" stroke-width="0.5" stroke="rgb(0,0,255)" />
	<polyline points="153.342,116.983 126.865,186.31 " fill="transparent" stroke-width="0.5" stroke="rgb(0,0,255)" />
	<polyline points="153.342,116.983 145.301,249.573 " fill="transparent" stroke-width="0.5" stroke="rgb(0,0,255)" />
	<polyline points="153.342,116.983 105.587,256.988 " fill="transparent" stroke-width="0.5" stroke="rgb(0,0,255)" />
	<polyline points="196.786,162.947 224.736,164.143 " fill="transparent" stroke-width="0.5" stroke="rgb(0,0,255)" />
	<polyline points="224.736,164.143 162.168,145.649 " fill="transparent" stroke-width="0.5" stroke="rgb(0,0,255)" />
	<polyline points="224.736,164.143 243.585,164.193 " fill="transparent" stroke-width="0.5" stroke="rgb(0,0,255)" />
	<polyline points="243.585,164.193 260.233,164.935 " fill="transparent" stroke-width="0.5" stroke="rgb(0,0,255)" />
	<polyline points="260.233,164.935 249.217,144.75 " fill="transparent" stroke-width="0.5" stroke="rgb(0,0,255)" />
	<polyline points="249.217,144.75 260.423,137.3 " fill="transparent" stroke-width="0.5" stroke="rgb(0,0,255)" />
	<polyline points="260.233,164.935 282.795,165.256 " fill="transparent" stroke-width="0.5" stroke="rgb(0,0,255)" />
	<polyline points="282.795,165.256 315.522,168.646 " fill="transparent" stroke-width="0.5" stroke="rgb(0,0,255)" />
	<polyline points="315.522,168.646 328.357,165.987 " fill="transparent" stroke-width="0.5" stroke="rgb(0,0,255)" />
	<polyline points="328.357,165.987 324.445,157.073 " fill="transparent" stroke-width="0.5" stroke="rgb(0,0,255)" />
	<polyline points="328.357,165.987 259.513,175.564 " fill="transparent" stroke-width="0.5" stroke="rgb(0,0,255)" />
	<polyline points="260.233,164.935 205.029,215.345 " fill="transparent" stroke-width="0.5" stroke="rgb(0,0,255)" />
	<polyline points="243.585,164.193 125.961,218.649 " fill="transparent" stroke-width="0.5" stroke="rgb(0,0,255)" />
	<polyline points="177.443,170.56 129.001,244.843 " fill="transparent" stroke-width="0.5" stroke="rgb(0,0,255)" />
	<polyline points="129.001,244.843 62.509,339.079 " fill="transparent" stroke-width="0.5" stroke="rgb(0,0,255)" />
	<polyline points="129.001,244.843 148.449,235.531 " fill="transparent" stroke-width="0.5" stroke="rgb(0,0,255)" />
	<polyline points="177.443,170.56 105.157,242.96 " fill="transparent" stroke-width="0.5" stroke="rgb(0,0,255)" />
	<polyline points="156.36,196.643 241.825,268.626 " fill="transparent" stroke-width="0.5" stroke="rgb(0,0,255)" />
	<polyline points="241.825,268.626 193.302,324.056 " fill="transparent" stroke-width="0.5" stroke="rgb(0,0,255)" />
	<polyline points="156.36,196.643 97.1476,260.888 " fill="transparent" stroke-width="0.5" stroke="rgb(0,0,255)" />
	<polyline points="156.36,196.643 149.734,284.678 " fill="transparent" stroke-width="0.5" stroke="rgb(0,0,255)" />
	<polyline points="149.734,284.678 50.1755,319.606 " fill="transparent" stroke-width="0.5" stroke="rgb(0,0,255)" />
	<polyline points="67.1807,180.637 95.428,278.756 " fill="transparent" stroke-width="0.5" stroke="rgb(0,0,255)" />
	<polyline points="95.428,278.756 98.4065,268.807 " fill="transparent" stroke-width="0.5" stroke="rgb(0,0,255)" />
	<polyline points="67.1807,180.637 141.166,220.874 " fill="transparent" stroke-width="0.5" stroke="rgb(0,0,255)" />
	<polyline points="141.166,220.874 84.2332,286.63 " fill="transparent" stroke-width="0.5" stroke="rgb(0,0,255)" />
	<polyline points="141.166,220.874 117.198,350.387 " fill="transparent" stroke-width="0.5" stroke="rgb(0,0,255)" />
	<polyline points="65.651,198.095 34.759,185.477 " fill="transparent" stroke-width="0.5" stroke="rgb(0,0,255)" />
	<polyline points="34.759,185.477 105.057,252.235 " fill="transparent" stroke-width="0.5" stroke="rgb(0,0,255)" />
	<polyline points="34.759,185.477 6.21436,330.096 " fill="transparent" stroke-width="0.5" stroke="rgb(0,0,255)" />
	<polyline points="65.651,198.095 81.2799,299.15 " fill="transparent" stroke-width="0.5" stroke="rgb(0,0,255)" />
	<polyline points="39.4637,226.143 15.3573,368.843 " fill="transparent" stroke-width="0.5" stroke="rgb(0,0,255)" />
	<polyline points="74.8443,261.586 19.9173,393.044 " fill="transparent" stroke-width="0.5" stroke="rgb(0,0,255)" />
	<polyline points="19.9173,393.044 5.39831,363.408 " fill="transparent" stroke-width="0.5" stroke="rgb(0,0,255)" />
	<polyline points="74.8443,261.586 10.4937,355.495 " fill="transparent" stroke-width="0.5" stroke="rgb(0,0,255)" />
	<polyline points="74.8443,261.586 111.805,353.215 " fill="transparent" stroke-width="0.5" stroke="rgb(0,0,255)" />
	<polyline points="38.094,272.757 66.8798,336.744 " fill="transparent" stroke-width="0.5" stroke="rgb(0,0,255)" />
	<polyline points="45.689,284.366 105.073,328.153 " fill="transparent" stroke-width="0.5" stroke="rgb(0,0,255)" />
	<polyline points="105.073,328.153 118.12,313.621 " fill="transparent" stroke-width="0.5" stroke="rgb(0,0,255)" />
	<polyline points="118.12,313.621 13.9472,372.085 " fill="transparent" stroke-width="0.5" stroke="rgb(0,0,255)" />
	<polyline points="105.073,328.153 132.339,323.754 " fill="transparent" stroke-width="0.5" stroke="rgb(0,0,255)" />
	<polyline points="132.339,323.754 135.286,303.176 " fill="transparent" stroke-width="0.5" stroke="rgb(0,0,255)" />
	<polyline points="132.339,323.754 72.7698,354.216 " fill="transparent" stroke-width="0.5" stroke="rgb(0,0,255)" />
	<polyline points="45.689,284.366 35.7613,369.627 " fill="transparent" stroke-width="0.5" stroke="rgb(0,0,255)" />
	<polyline points="58.7183,299.393 47.1762,384.173 " fill="transparent" stroke-width="0.5" stroke="rgb(0,0,255)" />
	<polyline points="47.1762,384.173 59.5677,362.581 " fill="transparent" stroke-width="0.5" stroke="rgb(0,0,255)" />
	<polyline points="59.5677,362.581 49.934,336.299 " fill="transparent" stroke-width="0.5" stroke="rgb(0,0,255)" />
	<polyline points="81.149,342.136 1.48329,433.77 " fill="transparent" stroke-width="0.5" stroke="rgb(0,0,255)" />
	<polyline points="1.48329,433.77 34.3483,407.332 " fill="transparent" stroke-width="0.5" stroke="rgb(0,0,255)" />
	<polyline points="112.32,374.319 205.873,391.124 " fill="transparent" stroke-width="0.5" stroke="rgb(0,0,255)" />
	<polyline points="205.873,391.124 222.867,378.302 " fill="transparent" stroke-width="0.5" stroke="rgb(0,0,255)" />
	<polyline points="222.867,378.302 278.795,381.299 " fill="transparent" stroke-width="0.5" stroke="rgb(0,0,255)" />
	<polyline points="278.795,381.299 297.197,368.955 " fill="transparent" stroke-width="0.5" stroke="rgb(0,0,255)" />
	<polyline points="278.795,381.299 305.742,370.443 " fill="transparent" stroke-width="0.5" stroke="rgb(0,0,255)" />
	<polyline points="305.742,370.443 313.862,360.54 " fill="transparent" stroke-width="0.5" stroke="rgb(0,0,255)" />
	<polyline points="313.862,360.54 336.492,353.546 " fill="transparent" stroke-width="0.5" stroke="rgb(0,0,255)" />
	<polyline points="336.492,353.546 230.633,424.042 " fill="transparent" stroke-width="0.5" stroke="rgb(0,0,255)" />
	<polyline points="336.492,353.546 331.047,344.179 " fill="transparent" stroke-width="0.5" stroke="rgb(0,0,255)" />
	<polyline points="331.047,344.179 354.815,333.409 " fill="transparent" stroke-width="0.5" stroke="rgb(0,0,255)" />
	<polyline points="354.815,333.409 268.253,348.266 " fill="transparent" stroke-width="0.5" stroke="rgb(0,0,255)" />
	<polyline points="354.815,333.409 392.298,328.132 " fill="transparent" stroke-width="0.5" stroke="rgb(0,0,255)" />
	<polyline points="392.298,328.132 330.3,337.498 " fill="transparent" stroke-width="0.5" stroke="rgb(0,0,255)" />
	<polyline points="392.298,328.132 399.028,320.839 " fill="transparent" stroke-width="0.5" stroke="rgb(0,0,255)" />
	<polyline points="399.028,320.839 392.158,313.203 " fill="transparent" stroke-width="0.5" stroke="rgb(0,0,255)" />
	<polyline points="392.158,313.203 398.454,307.273 " fill="transparent" stroke-width="0.5" stroke="rgb(0,0,255)" />
	<polyline points="398.454,307.273 393.516,299.697 " fill="transparent" stroke-width="0.5" stroke="rgb(0,0,255)" />
	<polyline points="393.516,299.697 399.583,290.906 " fill="transparent" stroke-width="0.5" stroke="rgb(0,0,255)" />
	<polyline points="399.583,290.906 375.71,278.541 " fill="transparent" stroke-width="0.5" stroke="rgb(0,0,255)" />
	<polyline points="399.583,290.906 406.959,278.072 " fill="transparent" stroke-width="0.5" stroke="rgb(0,0,255)" />
	<polyline points="406.959,278.072 307.15,337.371 " fill="transparent" stroke-width="0.5" stroke="rgb(0,0,255)" />
	<polyline points="406.959,278.072 342.305,289.751 " fill="transparent" stroke-width="0.5" stroke="rgb(0,0,255)" />
	<polyline points="406.959,278.072 292.957,276.275 " fill="transparent" stroke-width="0.5" stroke="rgb(0,0,255)" />
	<polyline points="292.957,276.275 227.985,303.835 " fill="transparent" stroke-width="0.5" stroke="rgb(0,0,255)" />
	<polyline points="292.957,276.275 314.902,270.174 " fill="transparent" stroke-width="0.5" stroke="rgb(0,0,255)" />
	<polyline points="406.959,278.072 337.843,266.571 " fill="transparent" stroke-width="0.5" stroke="rgb(0,0,255)" />
	<polyline points="392.158,313.203 360.271,297.655 " fill="transparent" stroke-width="0.5" stroke="rgb(0,0,255)" />
	<polyline points="360.271,297.655 296.634,307.101 " fill="transparent" stroke-width="0.5" stroke="rgb(0,0,255)" />
	<polyline points="360.271,297.655 319.381,282.131 " fill="transparent" stroke-width="0.5" stroke="rgb(0,0,255)" />
	<polyline points="319.381,282.131 332.544,274.831 " fill="transparent" stroke-width="0.5" stroke="rgb(0,0,255)" />
	<polyline points="319.381,282.131 325.155,269.815 " fill="transparent" stroke-width="0.5" stroke="rgb(0,0,255)" />
	<polyline points="325.155,269.815 333.144,261.262 " fill="transparent" stroke-width="0.5" stroke="rgb(0,0,255)" />
	<polyline points="333.144,261.262 327.163,250.935 " fill="transparent" stroke-width="0.5" stroke="rgb(0,0,255)" />
	<polyline points="327.163,250.935 208.498,269.037 " fill="transparent" stroke-width="0.5" stroke="rgb(0,0,255)" />
	<polyline points="208.498,269.037 199.033,247.748 " fill="transparent" stroke-width="0.5" stroke="rgb(0,0,255)" />
	<polyline points="325.155,269.815 236.106,262.049 " fill="transparent" stroke-width="0.5" stroke="rgb(0,0,255)" />
	<polyline points="236.106,262.049 106.667,297.353 " fill="transparent" stroke-width="0.5" stroke="rgb(0,0,255)" />
	<polyline points="360.271,297.655 295.193,324.528 " fill="transparent" stroke-width="0.5" stroke="rgb(0,0,255)" />
	<polyline points="295.193,324.528 300.237,309.726 " fill="transparent" stroke-width="0.5" stroke="rgb(0,0,255)" />
	<polyline points="392.158,313.203 264.701,340.055 " fill="transparent" stroke-width="0.5" stroke="rgb(0,0,255)" />
	<polyline points="399.028,320.839 308.24,352.768 " fill="transparent" stroke-width="0.5" stroke="rgb(0,0,255)" />
	<polyline points="308.24,352.768 223.871,354.551 " fill="transparent" stroke-width="0.5" stroke="rgb(0,0,255)" />
	<polyline points="399.028,320.839 296.882,368.483 " fill="transparent" stroke-width="0.5" stroke="rgb(0,0,255)" />
	<polyline points="399.028,320.839 321.028,346.88 " fill="transparent" stroke-width="0.5" stroke="rgb(0,0,255)" />
	<polyline points="392.298,328.132 308.952,320.424 " fill="transparent" stroke-width="0.5" stroke="rgb(0,0,255)" />
	<polyline points="308.952,320.424 316.988,306.57 " fill="transparent" stroke-width="0.5" stroke="rgb(0,0,255)" />
	<polyline points="308.952,320.424 314.677,309.173 " fill="transparent" stroke-width="0.5" stroke="rgb(0,0,255)" />
	<polyline points="308.952,320.424 194.687,356.764 " fill="transparent" stroke-width="0.5" stroke="rgb(0,0,255)" />
	<polyline points="354.815,333.409 233.36,351.422 " fill="transparent" stroke-width="0.5" stroke="rgb(0,0,255)" />
	<polyline points="331.047,344.179 254.67,346.623 " fill="transparent" stroke-width="0.5" stroke="rgb(0,0,255)" />
	<polyline points="331.047,344.179 272.204,350.666 " fill="transparent" stroke-width="0.5" stroke="rgb(0,0,255)" />
	<polyline points="331.047,344.179 288.919,330.729 " fill="transparent" stroke-width="0.5" stroke="rgb(0,0,255)" />
	<polyline points="331.047,344.179 239.423,413.291 " fill="transparent" stroke-width="0.5" stroke="rgb(0,0,255)" />
	<polyline points="239.423,413.291 174.59,417.287 " fill="transparent" stroke-width="0.5" stroke="rgb(0,0,255)" />
	<polyline points="239.423,413.291 184.769,425.456 " fill="transparent" stroke-width="0.5" stroke="rgb(0,0,255)" />
	<polyline points="331.047,344.179 225.541,443.338 " fill="transparent" stroke-width="0.5" stroke="rgb(0,0,255)" />
	<polyline points="225.541,443.338 173.118,439.554 " fill="transparent" stroke-width="0.5" stroke="rgb(0,0,255)" />
	<polyline points="225.541,443.338 203.178,437.556 " fill="transparent" stroke-width="0.5" stroke="rgb(0,0,255)" />
	<polyline points="331.047,344.179 278.686,331.933 " fill="transparent" stroke-width="0.5" stroke="rgb(0,0,255)" />
	<polyline points="278.686,331.933 174.217,340.653 " fill="transparent" stroke-width="0.5" stroke="rgb(0,0,255)" />
	<polyline points="174.217,340.653 191.213,324.766 " fill="transparent" stroke-width="0.5" stroke="rgb(0,0,255)" />
	<polyline points="278.686,331.933 233.084,313.918 " fill="transparent" stroke-width="0.5" stroke="rgb(0,0,255)" />
	<polyline points="233.084,313.918 149.226,308.3 " fill="transparent" stroke-width="0.5" stroke="rgb(0,0,255)" />
	<polyline points="233.084,313.918 241.812,307.247 " fill="transparent" stroke-width="0.5" stroke="rgb(0,0,255)" />
	<polyline points="241.812,307.247 255.899,293.582 " fill="transparent" stroke-width="0.5" stroke="rgb(0,0,255)" />
	<polyline points="255.899,293.582 192.36,303.531 " fill="transparent" stroke-width="0.5" stroke="rgb(0,0,255)" />
	<polyline points="255.899,293.582 140.959,291.866 " fill="transparent" stroke-width="0.5" stroke="rgb(0,0,255)" />
	<polyline points="255.899,293.582 191.236,315.479 " fill="transparent" stroke-width="0.5" stroke="rgb(0,0,255)" />
	<polyline points="255.899,293.582 203.85,287.871 " fill="transparent" stroke-width="0.5" stroke="rgb(0,0,255)" />
	<polyline points="241.812,307.247 155.577,318.869 " fill="transparent" stroke-width="0.5" stroke="rgb(0,0,255)" />
	<polyline points="155.577,318.869 71.7931,360.939 " fill="transparent" stroke-width="0.5" stroke="rgb(0,0,255)" />
	<polyline points="241.812,307.247 178.374,333.148 " fill="transparent" stroke-width="0.5" stroke="rgb(0,0,255)" />
	<polyline points="178.374,333.148 62.538,348.641 " fill="transparent" stroke-width="0.5" stroke="rgb(0,0,255)" />
	<polyline points="241.812,307.247 179.847,301.568 " fill="transparent" stroke-width="0.5" stroke="rgb(0,0,255)" />
	<polyline points="179.847,301.568 177.298,289.261 " fill="transparent" stroke-width="0.5" stroke="rgb(0,0,255)" />
	<polyline points="177.298,289.261 181.098,280.57 " fill="transparent" stroke-width="0.5" stroke="rgb(0,0,255)" />
	<polyline points="181.098,280.57 184.109,269.826 " fill="transparent" stroke-width="0.5" stroke="rgb(0,0,255)" />
	<polyline points="233.084,313.918 149.948,365.783 " fill="transparent" stroke-width="0.5" stroke="rgb(0,0,255)" />
	<polyline points="149.948,365.783 90.101,366.415 " fill="transparent" stroke-width="0.5" stroke="rgb(0,0,255)" />
	<polyline points="149.948,365.783 49.3855,385.111 " fill="transparent" stroke-width="0.5" stroke="rgb(0,0,255)" />
	<polyline points="149.948,365.783 159.881,350.799 " fill="transparent" stroke-width="0.5" stroke="rgb(0,0,255)" />
	<polyline points="159.881,350.799 89.4859,366.319 " fill="transparent" stroke-width="0.5" stroke="rgb(0,0,255)" />
	<polyline points="331.047,344.179 257.171,358.564 " fill="transparent" stroke-width="0.5" stroke="rgb(0,0,255)" />
	<polyline points="313.862,360.54 408.787,417.437 " fill="transparent" stroke-width="0.5" stroke="rgb(0,0,255)" />
	<polyline points="408.787,417.437 403.91,405.576 " fill="transparent" stroke-width="0.5" stroke="rgb(0,0,255)" />
	<polyline points="408.787,417.437 415.388,407.083 " fill="transparent" stroke-width="0.5" stroke="rgb(0,0,255)" />
	<polyline points="408.787,417.437 350.344,431.069 " fill="transparent" stroke-width="0.5" stroke="rgb(0,0,255)" />
	<polyline points="350.344,431.069 351.374,421.004 " fill="transparent" stroke-width="0.5" stroke="rgb(0,0,255)" />
	<polyline points="408.787,417.437 402.689,404.248 " fill="transparent" stroke-width="0.5" stroke="rgb(0,0,255)" />
	<polyline points="408.787,417.437 389.21,408.907 " fill="transparent" stroke-width="0.5" stroke="rgb(0,0,255)" />
	<polyline points="389.21,408.907 385.181,400.74 " fill="transparent" stroke-width="0.5" stroke="rgb(0,0,255)" />
	<polyline points="385.181,400.74 333.613,394.064 " fill="transparent" stroke-width="0.5" stroke="rgb(0,0,255)" />
	<polyline points="333.613,394.064 337.826,385.46 " fill="transparent" stroke-width="0.5" stroke="rgb(0,0,255)" />
	<polyline points="337.826,385.46 342.249,374.058 " fill="transparent" stroke-width="0.5" stroke="rgb(0,0,255)" />
	<polyline points="385.181,400.74 323.453,422.265 " fill="transparent" stroke-width="0.5" stroke="rgb(0,0,255)" />
	<polyline points="408.787,417.437 342.478,473.936 " fill="transparent" stroke-width="0.5" stroke="rgb(0,0,255)" />
	<polyline points="342.478,473.936 347.749,461.94 " fill="transparent" stroke-width="0.5" stroke="rgb(0,0,255)" />
	<polyline points="347.749,461.94 353.058,447.271 " fill="transparent" stroke-width="0.5" stroke="rgb(0,0,255)" />
	<polyline points="342.478,473.936 341.881,466.694 " fill="transparent" stroke-width="0.5" stroke="rgb(0,0,255)" />
	<polyline points="342.478,473.936 351.245,460.331 " fill="transparent" stroke-width="0.5" stroke="rgb(0,0,255)" />
	<polyline points="342.478,473.936 327.249,468.745 " fill="transparent" stroke-width="0.5" stroke="rgb(0,0,255)" />
	<polyline points="342.478,473.936 329.287,468.358 " fill="transparent" stroke-width="0.5" stroke="rgb(0,0,255)" />
	<polyline points="408.787,417.437 331.993,430.269 " fill="transparent" stroke-width="0.5" stroke="rgb(0,0,255)" />
	<polyline points="331.993,430.269 341.271,415.614 " fill="transparent" stroke-width="0.5" stroke="rgb(0,0,255)" />
	<polyline points="331.993,430.269 265.422,446.228 " fill="transparent" stroke-width="0.5" stroke="rgb(0,0,255)" />
	<polyline points="265.422,446.228 270.353,431.203 " fill="transparent" stroke-width="0.5" stroke="rgb(0,0,255)" />
	<polyline points="331.993,430.269 338.514,421.446 " fill="transparent" stroke-width="0.5" stroke="rgb(0,0,255)" />
	<polyline points="338.514,421.446 317.948,413.851 " fill="transparent" stroke-width="0.5" stroke="rgb(0,0,255)" />
	<polyline points="317.948,413.851 237.029,423.352 " fill="transparent" stroke-width="0.5" stroke="rgb(0,0,255)" />
	<polyline points="408.787,417.437 435.651,407.193 " fill="transparent" stroke-width="0.5" stroke="rgb(0,0,255)" />
	<polyline points="435.651,407.193 351.047,458.747 " fill="transparent" stroke-width="0.5" stroke="rgb(0,0,255)" />
	<polyline points="351.047,458.747 429.243,465.836 " fill="transparent" stroke-width="0.5" stroke="rgb(0,0,255)" />
	<polyline points="429.243,465.836 414.354,458.163 " fill="transparent" stroke-width="0.5" stroke="rgb(0,0,255)" />
	<polyline points="429.243,465.836 432.61,455.351 " fill="transparent" stroke-width="0.5" stroke="rgb(0,0,255)" />
	<polyline points="429.243,465.836 430.315,459.319 " fill="transparent" stroke-width="0.5" stroke="rgb(0,0,255)" />
	<polyline points="435.651,407.193 362.924,426.549 " fill="transparent" stroke-width="0.5" stroke="rgb(0,0,255)" />
	<polyline points="362.924,426.549 272.353,438.461 " fill="transparent" stroke-width="0.5" stroke="rgb(0,0,255)" />
	<polyline points="272.353,438.461 265.235,425.608 " fill="transparent" stroke-width="0.5" stroke="rgb(0,0,255)" />
	<polyline points="435.651,407.193 437.688,395.856 " fill="transparent" stroke-width="0.5" stroke="rgb(0,0,255)" />
	<polyline points="437.688,395.856 441.507,384.642 " fill="transparent" stroke-width="0.5" stroke="rgb(0,0,255)" />
	<polyline points="441.507,384.642 424.844,372.754 " fill="transparent" stroke-width="0.5" stroke="rgb(0,0,255)" />
	<polyline points="441.507,384.642 451.021,379.064 " fill="transparent" stroke-width="0.5" stroke="rgb(0,0,255)" />
	<polyline points="451.021,379.064 455.326,370.582 " fill="transparent" stroke-width="0.5" stroke="rgb(0,0,255)" />
	<polyline points="455.326,370.582 464.108,358.765 " fill="transparent" stroke-width="0.5" stroke="rgb(0,0,255)" />
	<polyline points="464.108,358.765 460.535,349.707 " fill="transparent" stroke-width="0.5" stroke="rgb(0,0,255)" />
	<polyline points="460.535,349.707 471.519,340.717 " fill="transparent" stroke-width="0.5" stroke="rgb(0,0,255)" />
	<polyline points="460.535,349.707 353.184,353.16 " fill="transparent" stroke-width="0.5" stroke="rgb(0,0,255)" />
	<polyline points="437.688,395.856 351.534,404.961 " fill="transparent" stroke-width="0.5" stroke="rgb(0,0,255)" />
	<polyline points="351.534,404.961 274.277,417.877 " fill="transparent" stroke-width="0.5" stroke="rgb(0,0,255)" />
	<polyline points="435.651,407.193 485.033,401.182 " fill="transparent" stroke-width="0.5" stroke="rgb(0,0,255)" />
	<polyline points="485.033,401.182 411.999,402.255 " fill="transparent" stroke-width="0.5" stroke="rgb(0,0,255)" />
	<polyline points="485.033,401.182 378.776,422.424 " fill="transparent" stroke-width="0.5" stroke="rgb(0,0,255)" />
	<polyline points="485.033,401.182 389.8,410.279 " fill="transparent" stroke-width="0.5" stroke="rgb(0,0,255)" />
	<polyline points="389.8,410.279 395.173,396.946 " fill="transparent" stroke-width="0.5" stroke="rgb(0,0,255)" />
	<polyline points="485.033,401.182 436.913,402.999 " fill="transparent" stroke-width="0.5" stroke="rgb(0,0,255)" />
	<polyline points="436.913,402.999 440.587,396.81 " fill="transparent" stroke-width="0.5" stroke="rgb(0,0,255)" />
	<polyline points="408.787,417.437 301.563,434.207 " fill="transparent" stroke-width="0.5" stroke="rgb(0,0,255)" />
	<polyline points="301.563,434.207 245.42,450.185 " fill="transparent" stroke-width="0.5" stroke="rgb(0,0,255)" />
	<polyline points="245.42,450.185 305.743,443.872 " fill="transparent" stroke-width="0.5" stroke="rgb(0,0,255)" />
	<polyline points="301.563,434.207 236.488,428.72 " fill="transparent" stroke-width="0.5" stroke="rgb(0,0,255)" />
	<polyline points="305.742,370.443 200.833,438.04 " fill="transparent" stroke-width="0.5" stroke="rgb(0,0,255)" />
	<polyline points="200.833,438.04 165.78,430.026 " fill="transparent" stroke-width="0.5" stroke="rgb(0,0,255)" />
	<polyline points="200.833,438.04 189.769,427.5 " fill="transparent" stroke-width="0.5" stroke="rgb(0,0,255)" />
	<polyline points="305.742,370.443 263.287,360.797 " fill="transparent" stroke-width="0.5" stroke="rgb(0,0,255)" />
	<polyline points="263.287,360.797 255.49,350.081 " fill="transparent" stroke-width="0.5" stroke="rgb(0,0,255)" />
	<polyline points="255.49,350.081 318.858,350.131 " fill="transparent" stroke-width="0.5" stroke="rgb(0,0,255)" />
	<polyline points="255.49,350.081 194.351,364.892 " fill="transparent" stroke-width="0.5" stroke="rgb(0,0,255)" />
	<polyline points="263.287,360.797 200.928,362.49 " fill="transparent" stroke-width="0.5" stroke="rgb(0,0,255)" />
	<polyline points="263.287,360.797 201.99,379.245 " fill="transparent" stroke-width="0.5" stroke="rgb(0,0,255)" />
	<polyline points="305.742,370.443 224.621,383.935 " fill="transparent" stroke-width="0.5" stroke="rgb(0,0,255)" />
	<polyline points="224.621,383.935 136.043,446.892 " fill="transparent" stroke-width="0.5" stroke="rgb(0,0,255)" />
	<polyline points="136.043,446.892 49.7927,458.299 " fill="transparent" stroke-width="0.5" stroke="rgb(0,0,255)" />
	<polyline points="305.742,370.443 245.202,385.124 " fill="transparent" stroke-width="0.5" stroke="rgb(0,0,255)" />
	<polyline points="245.202,385.124 246.489,369.736 " fill="transparent" stroke-width="0.5" stroke="rgb(0,0,255)" />
	<polyline points="112.32,374.319 44.4938,407.317 " fill="transparent" stroke-width="0.5" stroke="rgb(0,0,255)" />
	<polyline points="44.4938,407.317 33.4683,388.044 " fill="transparent" stroke-width="0.5" stroke="rgb(0,0,255)" />
	<polyline points="44.4938,407.317 63.8071,388.425 " fill="transparent" stroke-width="0.5" stroke="rgb(0,0,255)" />
	<polyline points="112.32,374.319 38.465,490.516 " fill="transparent" stroke-width="0.5" stroke="rgb(0,0,255)" />
	<polyline points="38.465,490.516 43.3687,474.456 " fill="transparent" stroke-width="0.5" stroke="rgb(0,0,255)" />
	<polyline points="38.465,490.516 61.1003,477.371 " fill="transparent" stroke-width="0.5" stroke="rgb(0,0,255)" />
	<polyline points="38.465,490.516 66.8709,463.337 " fill="transparent" stroke-width="0.5" stroke="rgb(0,0,255)" />
	<polyline points="112.32,374.319 33.649,412.138 " fill="transparent" stroke-width="0.5" stroke="rgb(0,0,255)" />
	<polyline points="33.649,412.138 36.98,395.511 " fill="transparent" stroke-width="0.5" stroke="rgb(0,0,255)" />
	<polyline points="33.649,412.138 34.4343,389.752 " fill="transparent" stroke-width="0.5" stroke="rgb(0,0,255)" />
	<polyline points="97.974,395.917 177.848,493.782 " fill="transparent" stroke-width="0.5" stroke="rgb(0,0,255)" />
	<polyline points="177.848,493.782 128.24,498.266 " fill="transparent" stroke-width="0.5" stroke="rgb(0,0,255)" />
	<polyline points="177.848,493.782 143.126,484.321 " fill="transparent" stroke-width="0.5" stroke="rgb(0,0,255)" />
	<polyline points="177.848,493.782 155.441,487.378 " fill="transparent" stroke-width="0.5" stroke="rgb(0,0,255)" />
	<polyline points="155.441,487.378 118.573,486.895 " fill="transparent" stroke-width="0.5" stroke="rgb(0,0,255)" />
	<polyline points="155.441,487.378 153.834,473.18 " fill="transparent" stroke-width="0.5" stroke="rgb(0,0,255)" />
	<polyline points="177.848,493.782 129.676,490.076 " fill="transparent" stroke-width="0.5" stroke="rgb(0,0,255)" />
	<polyline points="129.676,490.076 106.038,475.35 " fill="transparent" stroke-width="0.5" stroke="rgb(0,0,255)" />
	<polyline points="129.676,490.076 132.492,476.708 " fill="transparent" stroke-width="0.5" stroke="rgb(0,0,255)" />
	<polyline points="132.492,476.708 87.6665,475.946 " fill="transparent" stroke-width="0.5" stroke="rgb(0,0,255)" />
	<polyline points="87.6665,475.946 82.1236,455.086 " fill="transparent" stroke-width="0.5" stroke="rgb(0,0,255)" />
	<polyline points="177.848,493.782 161.419,481.115 " fill="transparent" stroke-width="0.5" stroke="rgb(0,0,255)" />
	<polyline points="161.419,481.115 97.5258,480.773 " fill="transparent" stroke-width="0.5" stroke="rgb(0,0,255)" />
	<polyline points="97.974,395.917 1.93679,443.375 " fill="transparent" stroke-width="0.5" stroke="rgb(0,0,255)" />
	<polyline points="1.93679,443.375 7.1833,428.036 " fill="transparent" stroke-width="0.5" stroke="rgb(0,0,255)" />
	<polyline points="1.93679,443.375 10.6119,412.88 " fill="transparent" stroke-width="0.5" stroke="rgb(0,0,255)" />
	<polyline points="10.6119,412.88 43.1978,392.189 " fill="transparent" stroke-width="0.5" stroke="rgb(0,0,255)" />
	<polyline points="1.93679,443.375 14.2893,422.32 " fill="transparent" stroke-width="0.5" stroke="rgb(0,0,255)" />
	<circle cx="83.3333" cy="416.667" r="2" fill="rgb(255,0,0)" />
	<circle cx="416.667" cy="83.3333" r="2" fill="rgb(0,255,0)" />
	<polyline points="83.3333,416.667 25.624,404.542 50.0397,380.354 46.5118,356.44 47.5926,343.865 67.2651,329.125 50.2392,308.078 40.2222,284.08 55.7936,277.274 61.8829,263.714 97.1084,253.151 90.3719,235.486 91.6966,221.831 111.093,213.291 117.19,203.045 172.553,230.515 196.998,221.558 202.045,210.458 215.344,207.401 228.238,198.759 242.002,189.27 257.669,186.7 275.219,181.664 284.675,174.477 294.793,169.35 321.285,165.116 358.931,163.827 379.094,160.026 388.418,152.16 404.4,139.139 450.956,119.653 444.405,107.357 437.587,91.0778 418.034,85.5678 " fill="transparent" stroke-width="3" stroke="rgb(0,0,0)" />
</svg>
