<?xml version="1.0" standalone="no" ?>
<!DOCTYPE svg PUBLIC "-//W3C//DTD SVG 1.1//EN" "http://www.w3.org/Graphics/SVG/1.1/DTD/svg11.dtd">
<svg width="500px" height="500px" xmlns="http://www.w3.org/2000/svg" version="1.1" >
	<circle cx="199.033" cy="247.748" r="2.5" fill="rgb(255,255,255)" />
	<circle cx="208.498" cy="269.037" r="2.5" fill="rgb(240,240,240)" />
	<circle cx="353.184" cy="353.16" r="2.5" fill="rgb(238,238,238)" />
	<circle cx="471.519" cy="340.717" r="2.5" fill="rgb(235,235,235)" />
	<circle cx="314.902" cy="270.174" r="2.5" fill="rgb(232,232,232)" />
	<circle cx="324.445" cy="157.073" r="2.5" fill="rgb(232,232,232)" />
	<circle cx="259.513" cy="175.564" r="2.5" fill="rgb(231,231,231)" />
	<circle cx="106.667" cy="297.353" r="2.5" fill="rgb(231,231,231)" />
	<circle cx="227.985" cy="303.835" r="2.5" fill="rgb(228,228,228)" />
	<circle cx="328.357" cy="165.987" r="2.5" fill="rgb(226,226,226)" />
	<circle cx="327.163" cy="250.935" r="2.5" fill="rgb(225,225,225)" />
	<circle cx="260.423" cy="137.3" r="2.5" fill="rgb(222,222,222)" />
	<circle cx="315.522" cy="168.646" r="2.5" fill="rgb(220,220,220)" />
	<circle cx="292.957" cy="276.275" r="2.5" fill="rgb(220,220,220)" />
	<circle cx="460.535" cy="349.707" r="2.5" fill="rgb(218,218,218)" />
	<circle cx="337.843" cy="266.571" r="2.5" fill="rgb(218,218,218)" />
	<circle cx="307.15" cy="337.371" r="2.5" fill="rgb(218,218,218)" />
	<circle cx="236.106" cy="262.049" r="2.5" fill="rgb(216,216,216)" />
	<circle cx="333.144" cy="261.262" r="2.5" fill="rgb(215,215,215)" />
	<circle cx="105.587" cy="256.988" r="2.5" fill="rgb(214,214,214)" />
	<circle cx="249.217" cy="144.75" r="2.5" fill="rgb(214,214,214)" />
	<circle cx="145.301" cy="249.573" r="2.5" fill="rgb(214,214,214)" />
	<circle cx="342.305" cy="289.751" r="2.5" fill="rgb(213,213,213)" />
	<circle cx="282.795" cy="165.256" r="2.5" fill="rgb(212,212,212)" />
	<circle cx="126.865" cy="186.31" r="2.5" fill="rgb(210,210,210)" />
	<circle cx="205.029" cy="215.345" r="2.5" fill="rgb(209,209,209)" />
	<circle cx="125.961" cy="218.649" r="2.5" fill="rgb(208,208,208)" />
	<circle cx="153.342" cy="116.983" r="2.5" fill="rgb(205,205,205)" />
	<circle cx="260.233" cy="164.935" r="2.5" fill="rgb(204,204,204)" />
	<circle cx="406.959" cy="278.072" r="2.5" fill="rgb(204,204,204)" />
	<circle cx="464.108" cy="358.765" r="2.5" fill="rgb(203,203,203)" />
	<circle cx="325.155" cy="269.815" r="2.5" fill="rgb(203,203,203)" />
	<circle cx="70.5941" cy="269.766" r="2.5" fill="rgb(202,202,202)" />
	<circle cx="194.763" cy="134.106" r="2.5" fill="rgb(200,200,200)" />
	<circle cx="332.544" cy="274.831" r="2.5" fill="rgb(199,199,199)" />
	<circle cx="375.71" cy="278.541" r="2.5" fill="rgb(199,199,199)" />
	<circle cx="243.585" cy="164.193" r="2.5" fill="rgb(199,199,199)" />
	<circle cx="162.168" cy="145.649" r="2.5" fill="rgb(199,199,199)" />
	<circle cx="300.237" cy="309.726" r="2.5" fill="rgb(198,198,198)" />
	<circle cx="224.736" cy="164.143" r="2.5" fill="rgb(193,193,193)" />
	<circle cx="89.0556" cy="122.471" r="2.5" fill="rgb(192,192,192)" />
	<circle cx="191.084" cy="147.328" r="2.5" fill="rgb(192,192,192)" />
	<circle cx="148.449" cy="235.531" r="2.5" fill="rgb(189,189,189)" />
	<circle cx="62.509" cy="339.079" r="2.5" fill="rgb(188,188,188)" />
	<circle cx="319.381" cy="282.131" r="2.5" fill="rgb(187,187,187)" />
	<circle cx="399.583" cy="290.906" r="2.5" fill="rgb(187,187,187)" />
	<circle cx="26.5005" cy="130.925" r="2.5" fill="rgb(187,187,187)" />
	<circle cx="196.786" cy="162.947" r="2.5" fill="rgb(184,184,184)" />
	<circle cx="455.326" cy="370.582" r="2.5" fill="rgb(182,182,182)" />
	<circle cx="105.157" cy="242.96" r="2.5" fill="rgb(182,182,182)" />
	<circle cx="295.193" cy="324.528" r="2.5" fill="rgb(182,182,182)" />
	<circle cx="296.634" cy="307.101" r="2.5" fill="rgb(182,182,182)" />
	<circle cx="104.717" cy="139.118" r="2.5" fill="rgb(181,181,181)" />
	<circle cx="129.001" cy="244.843" r="2.5" fill="rgb(181,181,181)" />
	<circle cx="184.109" cy="269.826" r="2.5" fill="rgb(179,179,179)" />
	<circle cx="395.173" cy="396.946" r="2.5" fill="rgb(177,177,177)" />
	<circle cx="424.844" cy="372.754" r="2.5" fill="rgb(176,176,176)" />
	<circle cx="51.8565" cy="136.409" r="2.5" fill="rgb(176,176,176)" />
	<circle cx="393.516" cy="299.697" r="2.5" fill="rgb(175,175,175)" />
	<circle cx="177.443" cy="170.56" r="2.5" fill="rgb(175,175,175)" />
	<circle cx="140.959" cy="291.866" r="2.5" fill="rgb(175,175,175)" />
	<circle cx="264.701" cy="340.055" r="2.5" fill="rgb(174,174,174)" />
	<circle cx="360.271" cy="297.655" r="2.5" fill="rgb(173,173,173)" />
	<circle cx="223.871" cy="354.551" r="2.5" fill="rgb(173,173,173)" />
	<circle cx="342.249" cy="374.058" r="2.5" fill="rgb(173,173,173)" />
	<circle cx="114.765" cy="237.172" r="2.5" fill="rgb(172,172,172)" />
	<circle cx="193.302" cy="324.056" r="2.5" fill="rgb(172,172,172)" />
	<circle cx="176.196" cy="162.255" r="2.5" fill="rgb(171,171,171)" />
	<circle cx="316.988" cy="306.57" r="2.5" fill="rgb(170,170,170)" />
	<circle cx="50.1755" cy="319.606" r="2.5" fill="rgb(170,170,170)" />
	<circle cx="85.6195" cy="208.719" r="2.5" fill="rgb(169,169,169)" />
	<circle cx="181.098" cy="280.57" r="2.5" fill="rgb(169,169,169)" />
	<circle cx="89.4859" cy="366.319" r="2.5" fill="rgb(168,168,168)" />
	<circle cx="451.021" cy="379.064" r="2.5" fill="rgb(168,168,168)" />
	<circle cx="194.687" cy="356.764" r="2.5" fill="rgb(167,167,167)" />
	<circle cx="203.85" cy="287.871" r="2.5" fill="rgb(167,167,167)" />
	<circle cx="191.236" cy="315.479" r="2.5" fill="rgb(167,167,167)" />
	<circle cx="192.36" cy="303.531" r="2.5" fill="rgb(167,167,167)" />
	<circle cx="274.277" cy="417.877" r="2.5" fill="rgb(167,167,167)" />
	<circle cx="432.61" cy="455.351" r="2.5" fill="rgb(167,167,167)" />
	<circle cx="398.454" cy="307.273" r="2.5" fill="rgb(167,167,167)" />
	<circle cx="314.677" cy="309.173" r="2.5" fill="rgb(166,166,166)" />
	<circle cx="241.825" cy="268.626" r="2.5" fill="rgb(166,166,166)" />
	<circle cx="173.845" cy="186.381" r="2.5" fill="rgb(166,166,166)" />
	<circle cx="62.538" cy="348.641" r="2.5" fill="rgb(166,166,166)" />
	<circle cx="414.354" cy="458.163" r="2.5" fill="rgb(164,164,164)" />
	<circle cx="38.1149" cy="153.298" r="2.5" fill="rgb(164,164,164)" />
	<circle cx="71.7931" cy="360.939" r="2.5" fill="rgb(164,164,164)" />
	<circle cx="296.882" cy="368.483" r="2.5" fill="rgb(163,163,163)" />
	<circle cx="149.734" cy="284.678" r="2.5" fill="rgb(162,162,162)" />
	<circle cx="97.1476" cy="260.888" r="2.5" fill="rgb(162,162,162)" />
	<circle cx="265.235" cy="425.608" r="2.5" fill="rgb(162,162,162)" />
	<circle cx="177.298" cy="289.261" r="2.5" fill="rgb(162,162,162)" />
	<circle cx="119.151" cy="151.988" r="2.5" fill="rgb(162,162,162)" />
	<circle cx="308.24" cy="352.768" r="2.5" fill="rgb(161,161,161)" />
	<circle cx="430.315" cy="459.319" r="2.5" fill="rgb(160,160,160)" />
	<circle cx="440.587" cy="396.81" r="2.5" fill="rgb(159,159,159)" />
	<circle cx="49.3855" cy="385.111" r="2.5" fill="rgb(159,159,159)" />
	<circle cx="255.899" cy="293.582" r="2.5" fill="rgb(159,159,159)" />
	<circle cx="321.028" cy="346.88" r="2.5" fill="rgb(159,159,159)" />
	<circle cx="76.281" cy="298.574" r="2.5" fill="rgb(159,159,159)" />
	<circle cx="159.881" cy="350.799" r="2.5" fill="rgb(159,159,159)" />
	<circle cx="392.158" cy="313.203" r="2.5" fill="rgb(158,158,158)" />
	<circle cx="84.9116" cy="249.834" r="2.5" fill="rgb(157,157,157)" />
	<circle cx="389.8" cy="410.279" r="2.5" fill="rgb(157,157,157)" />
	<circle cx="378.776" cy="422.424" r="2.5" fill="rgb(157,157,157)" />
	<circle cx="441.507" cy="384.642" r="2.5" fill="rgb(157,157,157)" />
	<circle cx="337.826" cy="385.46" r="2.5" fill="rgb(156,156,156)" />
	<circle cx="156.36" cy="196.643" r="2.5" fill="rgb(156,156,156)" />
	<circle cx="411.999" cy="402.255" r="2.5" fill="rgb(155,155,155)" />
	<circle cx="90.101" cy="366.415" r="2.5" fill="rgb(155,155,155)" />
	<circle cx="351.534" cy="404.961" r="2.5" fill="rgb(154,154,154)" />
	<circle cx="117.198" cy="350.387" r="2.5" fill="rgb(154,154,154)" />
	<circle cx="308.952" cy="320.424" r="2.5" fill="rgb(154,154,154)" />
	<circle cx="155.577" cy="318.869" r="2.5" fill="rgb(154,154,154)" />
	<circle cx="179.847" cy="301.568" r="2.5" fill="rgb(153,153,153)" />
	<circle cx="40.5899" cy="167.882" r="2.5" fill="rgb(152,152,152)" />
	<circle cx="237.029" cy="423.352" r="2.5" fill="rgb(152,152,152)" />
	<circle cx="84.2332" cy="286.63" r="2.5" fill="rgb(151,151,151)" />
	<circle cx="126.968" cy="172.332" r="2.5" fill="rgb(151,151,151)" />
	<circle cx="178.374" cy="333.148" r="2.5" fill="rgb(151,151,151)" />
	<circle cx="98.4065" cy="268.807" r="2.5" fill="rgb(150,150,150)" />
	<circle cx="87.3008" cy="166.515" r="2.5" fill="rgb(150,150,150)" />
	<circle cx="151.416" cy="206.68" r="2.5" fill="rgb(150,150,150)" />
	<circle cx="353.058" cy="447.271" r="2.5" fill="rgb(150,150,150)" />
	<circle cx="399.028" cy="320.839" r="2.5" fill="rgb(149,149,149)" />
	<circle cx="436.913" cy="402.999" r="2.5" fill="rgb(149,149,149)" />
	<circle cx="429.243" cy="465.836" r="2.5" fill="rgb(149,149,149)" />
	<circle cx="69.7724" cy="327.121" r="2.5" fill="rgb(148,148,148)" />
	<circle cx="272.353" cy="438.461" r="2.5" fill="rgb(148,148,148)" />
	<circle cx="191.213" cy="324.766" r="2.5" fill="rgb(148,148,148)" />
	<circle cx="330.3" cy="337.498" r="2.5" fill="rgb(147,147,147)" />
	<circle cx="149.226" cy="308.3" r="2.5" fill="rgb(147,147,147)" />
	<circle cx="6.21436" cy="330.096" r="2.5" fill="rgb(147,147,147)" />
	<circle cx="149.948" cy="365.783" r="2.5" fill="rgb(146,146,146)" />
	<circle cx="75.3211" cy="168.872" r="2.5" fill="rgb(146,146,146)" />
	<circle cx="141.166" cy="220.874" r="2.5" fill="rgb(145,145,145)" />
	<circle cx="95.428" cy="278.756" r="2.5" fill="rgb(145,145,145)" />
	<circle cx="100.601" cy="176.156" r="2.5" fill="rgb(145,145,145)" />
	<circle cx="333.613" cy="394.064" r="2.5" fill="rgb(144,144,144)" />
	<circle cx="105.057" cy="252.235" r="2.5" fill="rgb(144,144,144)" />
	<circle cx="305.743" cy="443.872" r="2.5" fill="rgb(143,143,143)" />
	<circle cx="241.812" cy="307.247" r="2.5" fill="rgb(143,143,143)" />
	<circle cx="270.353" cy="431.203" r="2.5" fill="rgb(141,141,141)" />
	<circle cx="233.36" cy="351.422" r="2.5" fill="rgb(139,139,139)" />
	<circle cx="392.298" cy="328.132" r="2.5" fill="rgb(139,139,139)" />
	<circle cx="485.033" cy="401.182" r="2.5" fill="rgb(139,139,139)" />
	<circle cx="437.688" cy="395.856" r="2.5" fill="rgb(138,138,138)" />
	<circle cx="236.488" cy="428.72" r="2.5" fill="rgb(138,138,138)" />
	<circle cx="67.1807" cy="180.637" r="2.5" fill="rgb(138,138,138)" />
	<circle cx="323.453" cy="422.265" r="2.5" fill="rgb(138,138,138)" />
	<circle cx="317.948" cy="413.851" r="2.5" fill="rgb(137,137,137)" />
	<circle cx="34.759" cy="185.477" r="2.5" fill="rgb(137,137,137)" />
	<circle cx="173.118" cy="439.554" r="2.5" fill="rgb(137,137,137)" />
	<circle cx="268.253" cy="348.266" r="2.5" fill="rgb(135,135,135)" />
	<circle cx="233.084" cy="313.918" r="2.5" fill="rgb(135,135,135)" />
	<circle cx="174.217" cy="340.653" r="2.5" fill="rgb(134,134,134)" />
	<circle cx="81.2799" cy="299.15" r="2.5" fill="rgb(134,134,134)" />
	<circle cx="351.047" cy="458.747" r="2.5" fill="rgb(134,134,134)" />
	<circle cx="341.271" cy="415.614" r="2.5" fill="rgb(134,134,134)" />
	<circle cx="203.178" cy="437.556" r="2.5" fill="rgb(132,132,132)" />
	<circle cx="362.924" cy="426.549" r="2.5" fill="rgb(132,132,132)" />
	<circle cx="351.245" cy="460.331" r="2.5" fill="rgb(131,131,131)" />
	<circle cx="174.59" cy="417.287" r="2.5" fill="rgb(131,131,131)" />
	<circle cx="347.749" cy="461.94" r="2.5" fill="rgb(129,129,129)" />
	<circle cx="245.42" cy="450.185" r="2.5" fill="rgb(129,129,129)" />
	<circle cx="184.769" cy="425.456" r="2.5" fill="rgb(128,128,128)" />
	<circle cx="385.181" cy="400.74" r="2.5" fill="rgb(128,128,128)" />
	<circle cx="65.651" cy="198.095" r="2.5" fill="rgb(127,127,127)" />
	<circle cx="338.514" cy="421.446" r="2.5" fill="rgb(126,126,126)" />
	<circle cx="265.422" cy="446.228" r="2.5" fill="rgb(126,126,126)" />
	<circle cx="351.374" cy="421.004" r="2.5" fill="rgb(124,124,124)" />
	<circle cx="131.765" cy="293.5" r="2.5" fill="rgb(124,124,124)" />
	<circle cx="354.815" cy="333.409" r="2.5" fill="rgb(124,124,124)" />
	<circle cx="225.541" cy="443.338" r="2.5" fill="rgb(124,124,124)" />
	<circle cx="329.287" cy="468.358" r="2.5" fill="rgb(123,123,123)" />
	<circle cx="341.881" cy="466.694" r="2.5" fill="rgb(123,123,123)" />
	<circle cx="327.249" cy="468.745" r="2.5" fill="rgb(123,123,123)" />
	<circle cx="402.689" cy="404.248" r="2.5" fill="rgb(121,121,121)" />
	<circle cx="81.6306" cy="289.634" r="2.5" fill="rgb(121,121,121)" />
	<circle cx="288.919" cy="330.729" r="2.5" fill="rgb(121,121,121)" />
	<circle cx="278.686" cy="331.933" r="2.5" fill="rgb(120,120,120)" />
	<circle cx="239.423" cy="413.291" r="2.5" fill="rgb(120,120,120)" />
	<circle cx="301.563" cy="434.207" r="2.5" fill="rgb(120,120,120)" />
	<circle cx="435.651" cy="407.193" r="2.5" fill="rgb(119,119,119)" />
	<circle cx="403.91" cy="405.576" r="2.5" fill="rgb(119,119,119)" />
	<circle cx="254.67" cy="346.623" r="2.5" fill="rgb(118,118,118)" />
	<circle cx="415.388" cy="407.083" r="2.5" fill="rgb(117,117,117)" />
	<circle cx="257.171" cy="358.564" r="2.5" fill="rgb(117,117,117)" />
	<circle cx="15.3573" cy="368.843" r="2.5" fill="rgb(117,117,117)" />
	<circle cx="272.204" cy="350.666" r="2.5" fill="rgb(115,115,115)" />
	<circle cx="389.21" cy="408.907" r="2.5" fill="rgb(115,115,115)" />
	<circle cx="43.3225" cy="213.905" r="2.5" fill="rgb(115,115,115)" />
	<circle cx="70.6357" cy="300.164" r="2.5" fill="rgb(115,115,115)" />
	<circle cx="331.993" cy="430.269" r="2.5" fill="rgb(115,115,115)" />
	<circle cx="342.478" cy="473.936" r="2.5" fill="rgb(113,113,113)" />
	<circle cx="318.858" cy="350.131" r="2.5" fill="rgb(112,112,112)" />
	<circle cx="230.633" cy="424.042" r="2.5" fill="rgb(112,112,112)" />
	<circle cx="350.344" cy="431.069" r="2.5" fill="rgb(111,111,111)" />
	<circle cx="49.7927" cy="458.299" r="2.5" fill="rgb(110,110,110)" />
	<circle cx="81.1414" cy="313.066" r="2.5" fill="rgb(110,110,110)" />
	<circle cx="331.047" cy="344.179" r="2.5" fill="rgb(107,107,107)" />
	<circle cx="62.5204" cy="371.924" r="2.5" fill="rgb(107,107,107)" />
	<circle cx="5.39831" cy="363.408" r="2.5" fill="rgb(107,107,107)" />
	<circle cx="39.4637" cy="226.143" r="2.5" fill="rgb(107,107,107)" />
	<circle cx="107.76" cy="245.208" r="2.5" fill="rgb(104,104,104)" />
	<circle cx="194.351" cy="364.892" r="2.5" fill="rgb(103,103,103)" />
	<circle cx="408.787" cy="417.437" r="2.5" fill="rgb(101,101,101)" />
	<circle cx="165.78" cy="430.026" r="2.5" fill="rgb(99,99,99)" />
	<circle cx="68.3304" cy="242.167" r="2.5" fill="rgb(98,98,98)" />
	<circle cx="189.769" cy="427.5" r="2.5" fill="rgb(98,98,98)" />
	<circle cx="19.9173" cy="393.044" r="2.5" fill="rgb(97,97,97)" />
	<circle cx="336.492" cy="353.546" r="2.5" fill="rgb(97,97,97)" />
	<circle cx="136.043" cy="446.892" r="2.5" fill="rgb(97,97,97)" />
	<circle cx="246.489" cy="369.736" r="2.5" fill="rgb(96,96,96)" />
	<circle cx="10.4937" cy="355.495" r="2.5" fill="rgb(96,96,96)" />
	<circle cx="255.49" cy="350.081" r="2.5" fill="rgb(95,95,95)" />
	<circle cx="200.928" cy="362.49" r="2.5" fill="rgb(95,95,95)" />
	<circle cx="13.9472" cy="372.085" r="2.5" fill="rgb(95,95,95)" />
	<circle cx="135.286" cy="303.176" r="2.5" fill="rgb(95,95,95)" />
	<circle cx="111.805" cy="353.215" r="2.5" fill="rgb(95,95,95)" />
	<circle cx="201.99" cy="379.245" r="2.5" fill="rgb(93,93,93)" />
	<circle cx="76.157" cy="251.506" r="2.5" fill="rgb(93,93,93)" />
	<circle cx="49.934" cy="336.299" r="2.5" fill="rgb(89,89,89)" />
	<circle cx="72.7698" cy="354.216" r="2.5" fill="rgb(89,89,89)" />
	<circle cx="200.833" cy="438.04" r="2.5" fill="rgb(88,88,88)" />
	<circle cx="74.8443" cy="261.586" r="2.5" fill="rgb(87,87,87)" />
	<circle cx="313.862" cy="360.54" r="2.5" fill="rgb(86,86,86)" />
	<circle cx="263.287" cy="360.797" r="2.5" fill="rgb(86,86,86)" />
	<circle cx="118.12" cy="313.621" r="2.5" fill="rgb(85,85,85)" />
	<circle cx="224.621" cy="383.935" r="2.5" fill="rgb(85,85,85)" />
	<circle cx="95.0512" cy="367.037" r="2.5" fill="rgb(84,84,84)" />
	<circle cx="132.339" cy="323.754" r="2.5" fill="rgb(83,83,83)" />
	<circle cx="50.0195" cy="262.728" r="2.5" fill="rgb(82,82,82)" />
	<circle cx="12.0002" cy="260.417" r="2.5" fill="rgb(82,82,82)" />
	<circle cx="245.202" cy="385.124" r="2.5" fill="rgb(82,82,82)" />
	<circle cx="66.8798" cy="336.744" r="2.5" fill="rgb(81,81,81)" />
	<circle cx="59.5677" cy="362.581" r="2.5" fill="rgb(78,78,78)" />
	<circle cx="105.073" cy="328.153" r="2.5" fill="rgb(76,76,76)" />
	<circle cx="35.7613" cy="369.627" r="2.5" fill="rgb(76,76,76)" />
	<circle cx="38.094" cy="272.757" r="2.5" fill="rgb(75,75,75)" />
	<circle cx="305.742" cy="370.443" r="2.5" fill="rgb(74,74,74)" />
	<circle cx="297.197" cy="368.955" r="2.5" fill="rgb(74,74,74)" />
	<circle cx="45.689" cy="284.366" r="2.5" fill="rgb(69,69,69)" />
	<circle cx="47.1762" cy="384.173" r="2.5" fill="rgb(68,68,68)" />
	<circle cx="82.1236" cy="455.086" r="2.5" fill="rgb(68,68,68)" />
	<circle cx="58.7183" cy="299.393" r="2.5" fill="rgb(62,62,62)" />
	<circle cx="94.3558" cy="303.621" r="2.5" fill="rgb(62,62,62)" />
	<circle cx="34.3483" cy="407.332" r="2.5" fill="rgb(60,60,60)" />
	<circle cx="278.795" cy="381.299" r="2.5" fill="rgb(59,59,59)" />
	<circle cx="87.6665" cy="475.946" r="2.5" fill="rgb(55,55,55)" />
	<circle cx="89.4032" cy="320.549" r="2.5" fill="rgb(52,52,52)" />
	<circle cx="97.5258" cy="480.773" r="2.5" fill="rgb(50,50,50)" />
	<circle cx="1.48329" cy="433.77" r="2.5" fill="rgb(50,50,50)" />
	<circle cx="106.038" cy="475.35" r="2.5" fill="rgb(50,50,50)" />
	<circle cx="222.867" cy="378.302" r="2.5" fill="rgb(48,48,48)" />
	<circle cx="10.9619" cy="367.384" r="2.5" fill="rgb(47,47,47)" />
	<circle cx="66.8709" cy="463.337" r="2.5" fill="rgb(46,46,46)" />
	<circle cx="132.492" cy="476.708" r="2.5" fill="rgb(45,45,45)" />
	<circle cx="153.834" cy="473.18" r="2.5" fill="rgb(43,43,43)" />
	<circle cx="43.3687" cy="474.456" r="2.5" fill="rgb(41,41,41)" />
	<circle cx="118.573" cy="486.895" r="2.5" fill="rgb(41,41,41)" />
	<circle cx="147.313" cy="348.045" r="2.5" fill="rgb(41,41,41)" />
	<circle cx="61.1003" cy="477.371" r="2.5" fill="rgb(40,40,40)" />
	<circle cx="81.149" cy="342.136" r="2.5" fill="rgb(40,40,40)" />
	<circle cx="43.1978" cy="392.189" r="2.5" fill="rgb(39,39,39)" />
	<circle cx="34.4343" cy="389.752" r="2.5" fill="rgb(39,39,39)" />
	<circle cx="63.8071" cy="388.425" r="2.5" fill="rgb(38,38,38)" />
	<circle cx="33.4683" cy="388.044" r="2.5" fill="rgb(37,37,37)" />
	<circle cx="36.98" cy="395.511" r="2.5" fill="rgb(37,37,37)" />
	<circle cx="143.126" cy="484.321" r="2.5" fill="rgb(37,37,37)" />
	<circle cx="129.676" cy="490.076" r="2.5" fill="rgb(36,36,36)" />
	<circle cx="205.873" cy="391.124" r="2.5" fill="rgb(36,36,36)" />
	<circle cx="161.419" cy="481.115" r="2.5" fill="rgb(35,35,35)" />
	<circle cx="38.465" cy="490.516" r="2.5" fill="rgb(34,34,34)" />
	<circle cx="134.466" cy="358.33" r="2.5" fill="rgb(34,34,34)" />
	<circle cx="128.24" cy="498.266" r="2.5" fill="rgb(33,33,33)" />
	<circle cx="17.736" cy="385.974" r="2.5" fill="rgb(33,33,33)" />
	<circle cx="76.7681" cy="355.771" r="2.5" fill="rgb(32,32,32)" />
	<circle cx="155.441" cy="487.378" r="2.5" fill="rgb(32,32,32)" />
	<circle cx="33.649" cy="412.138" r="2.5" fill="rgb(31,31,31)" />
	<circle cx="10.6119" cy="412.88" r="2.5" fill="rgb(30,30,30)" />
	<circle cx="44.4938" cy="407.317" r="2.5" fill="rgb(29,29,29)" />
	<circle cx="14.2893" cy="422.32" r="2.5" fill="rgb(27,27,27)" />
	<circle cx="7.1833" cy="428.036" r="2.5" fill="rgb(25,25,25)" />
	<circle cx="177.848" cy="493.782" r="2.5" fill="rgb(23,23,23)" />
	<circle cx="112.32" cy="374.319" r="2.5" fill="rgb(23,23,23)" />
	<circle cx="1.93679" cy="443.375" r="2.5" fill="rgb(20,20,20)" />
	<circle cx="29.5786" cy="392.756" r="2.5" fill="rgb(20,20,20)" />
	<circle cx="52.6726" cy="454.174" r="2.5" fill="rgb(13,13,13)" />
	<circle cx="97.974" cy="395.917" r="2.5" fill="rgb(11,11,11)" />
	<circle cx="87.9838" cy="402.16" r="2.5" fill="rgb(7,7,7)" />
	<circle cx="115.699" cy="411.381" r="2.5" fill="rgb(6,6,6)" />
	<circle cx="83.3333" cy="416.667" r="2" fill="rgb(255,0,0)" />
	<circle cx="416.667" cy="83.3333" r="2" fill="rgb(0,255,0)" />
	<circle cx="83.3333" cy="416.667" r="2" fill="rgb(0,255,0)" />
	<circle cx="25.624" cy="404.542" r="2" fill="rgb(0,255,0)" />
	<circle cx="50.0397" cy="380.354" r="2" fill="rgb(0,255,0)" />
	<circle cx="46.5118" cy="356.44" r="2" fill="rgb(0,255,0)" />
	<circle cx="47.5926" cy="343.865" r="2" fill="rgb(0,255,0)" />
	<circle cx="67.2651" cy="329.125" r="2" fill="rgb(0,255,0)" />
	<circle cx="50.2392" cy="308.078" r="2" fill="rgb(0,255,0)" />
	<circle cx="40.2222" cy="284.08" r="2" fill="rgb(0,255,0)" />
	<circle cx="55.7936" cy="277.274" r="2" fill="rgb(0,255,0)" />
	<circle cx="61.8829" cy="263.714" r="2" fill="rgb(0,255,0)" />
	<circle cx="97.1084" cy="253.151" r="2" fill="rgb(0,255,0)" />
	<circle cx="90.3719" cy="235.486" r="2" fill="rgb(0,255,0)" />
	<circle cx="91.6966" cy="221.831" r="2" fill="rgb(0,255,0)" />
	<circle cx="111.093" cy="213.291" r="2" fill="rgb(0,255,0)" />
	<circle cx="117.19" cy="203.045" r="2" fill="rgb(0,255,0)" />
	<circle cx="172.553" cy="230.515" r="2" fill="rgb(0,255,0)" />
	<circle cx="196.998" cy="221.558" r="2" fill="rgb(0,255,0)" />
	<circle cx="202.045" cy="210.458" r="2" fill="rgb(0,255,0)" />
	<circle cx="215.344" cy="207.401" r="2" fill="rgb(0,255,0)" />
	<circle cx="228.238" cy="198.759" r="2" fill="rgb(0,255,0)" />
	<circle cx="242.002" cy="189.27" r="2" fill="rgb(0,255,0)" />
	<circle cx="257.669" cy="186.7" r="2" fill="rgb(0,255,0)" />
	<circle cx="275.219" cy="181.664" r="2" fill="rgb(0,255,0)" />
	<circle cx="284.675" cy="174.477" r="2" fill="rgb(0,255,0)" />
	<circle cx="294.793" cy="169.35" r="2" fill="rgb(0,255,0)" />
	<circle cx="321.285" cy="165.116" r="2" fill="rgb(0,255,0)" />
	<circle cx="358.931" cy="163.827" r="2" fill="rgb(0,255,0)" />
	<circle cx="379.094" cy="160.026" r="2" fill="rgb(0,255,0)" />
	<circle cx="388.418" cy="152.16" r="2" fill="rgb(0,255,0)" />
	<circle cx="404.4" cy="139.139" r="2" fill="rgb(0,255,0)" />
	<circle cx="450.956" cy="119.653" r="2" fill="rgb(0,255,0)" />
	<circle cx="444.405" cy="107.357" r="2" fill="rgb(0,255,0)" />
	<circle cx="437.587" cy="91.0778" r="2" fill="rgb(0,255,0)" />
	<circle cx="418.034" cy="85.5678" r="2" fill="rgb(0,255,0)" />
</svg>
