<?xml version="1.0" standalone="no" ?>
<!DOCTYPE svg PUBLIC "-//W3C//DTD SVG 1.1//EN" "http://www.w3.org/Graphics/SVG/1.1/DTD/svg11.dtd">
<svg width="500px" height="500px" xmlns="http://www.w3.org/2000/svg" version="1.1" >
	<polyline points="83.3333,416.667 103.298,399.209 " fill="transparent" stroke-width="0.5" stroke="rgb(0,0,255)" />
	<polyline points="103.298,399.209 96.9644,382.556 " fill="transparent" stroke-width="0.5" stroke="rgb(0,0,255)" />
	<polyline points="96.9644,382.556 12.0682,485.839 " fill="transparent" stroke-width="0.5" stroke="rgb(0,0,255)" />
	<polyline points="12.0682,485.839 8.28637,472.912 " fill="transparent" stroke-width="0.5" stroke="rgb(0,0,255)" />
	<polyline points="12.0682,485.839 38.0796,469.462 " fill="transparent" stroke-width="0.5" stroke="rgb(0,0,255)" />
	<polyline points="96.9644,382.556 124.619,366.989 " fill="transparent" stroke-width="0.5" stroke="rgb(0,0,255)" />
	<polyline points="124.619,366.989 141.539,357.274 " fill="transparent" stroke-width="0.5" stroke="rgb(0,0,255)" />
	<polyline points="141.539,357.274 144.099,338.664 " fill="transparent" stroke-width="0.5" stroke="rgb(0,0,255)" />
	<polyline points="144.099,338.664 160.637,323.79 " fill="transparent" stroke-width="0.5" stroke="rgb(0,0,255)" />
	<polyline points="144.099,338.664 131.922,319.963 " fill="transparent" stroke-width="0.5" stroke="rgb(0,0,255)" />
	<polyline points="131.922,319.963 36.8502,337.907 " fill="transparent" stroke-width="0.5" stroke="rgb(0,0,255)" />
	<polyline points="131.922,319.963 83.2604,314.843 " fill="transparent" stroke-width="0.5" stroke="rgb(0,0,255)" />
	<polyline points="83.2604,314.843 83.0973,294.547 " fill="transparent" stroke-width="0.5" stroke="rgb(0,0,255)" />
	<polyline points="83.0973,294.547 80.1279,274.305 " fill="transparent" stroke-width="0.5" stroke="rgb(0,0,255)" />
	<polyline points="83.2604,314.843 98.1588,298.471 " fill="transparent" stroke-width="0.5" stroke="rgb(0,0,255)" />
	<polyline points="98.1588,298.471 63.6273,392.559 " fill="transparent" stroke-width="0.5" stroke="rgb(0,0,255)" />
	<polyline points="98.1588,298.471 120.658,288.051 " fill="transparent" stroke-width="0.5" stroke="rgb(0,0,255)" />
	<polyline points="120.658,288.051 61.0241,348.374 " fill="transparent" stroke-width="0.5" stroke="rgb(0,0,255)" />
	<polyline points="120.658,288.051 139.663,279.475 " fill="transparent" stroke-width="0.5" stroke="rgb(0,0,255)" />
	<polyline points="139.663,279.475 43.8391,361.113 " fill="transparent" stroke-width="0.5" stroke="rgb(0,0,255)" />
	<polyline points="98.1588,298.471 82.1356,280.587 " fill="transparent" stroke-width="0.5" stroke="rgb(0,0,255)" />
	<polyline points="82.1356,280.587 58.0601,363.527 " fill="transparent" stroke-width="0.5" stroke="rgb(0,0,255)" />
	<polyline points="82.1356,280.587 62.6807,265.487 " fill="transparent" stroke-width="0.5" stroke="rgb(0,0,255)" />
	<polyline points="62.6807,265.487 61.6913,246.939 " fill="transparent" stroke-width="0.5" stroke="rgb(0,0,255)" />
	<polyline points="61.6913,246.939 90.0044,387.07 " fill="transparent" stroke-width="0.5" stroke="rgb(0,0,255)" />
	<polyline points="61.6913,246.939 69.7518,238.543 " fill="transparent" stroke-width="0.5" stroke="rgb(0,0,255)" />
	<polyline points="69.7518,238.543 78.9264,220.61 " fill="transparent" stroke-width="0.5" stroke="rgb(0,0,255)" />
	<polyline points="78.9264,220.61 59.9666,350.088 " fill="transparent" stroke-width="0.5" stroke="rgb(0,0,255)" />
	<polyline points="61.6913,246.939 25.422,356.541 " fill="transparent" stroke-width="0.5" stroke="rgb(0,0,255)" />
	<polyline points="62.6807,265.487 21.5307,401.794 " fill="transparent" stroke-width="0.5" stroke="rgb(0,0,255)" />
	<polyline points="62.6807,265.487 38.9745,348.755 " fill="transparent" stroke-width="0.5" stroke="rgb(0,0,255)" />
	<polyline points="62.6807,265.487 30.2654,360.742 " fill="transparent" stroke-width="0.5" stroke="rgb(0,0,255)" />
	<polyline points="83.2604,314.843 11.949,303.999 " fill="transparent" stroke-width="0.5" stroke="rgb(0,0,255)" />
	<polyline points="11.949,303.999 19.8388,443.056 " fill="transparent" stroke-width="0.5" stroke="rgb(0,0,255)" />
	<polyline points="11.949,303.999 0.947555,442.519 " fill="transparent" stroke-width="0.5" stroke="rgb(0,0,255)" />
	<polyline points="144.099,338.664 73.0268,354.029 " fill="transparent" stroke-width="0.5" stroke="rgb(0,0,255)" />
	<polyline points="144.099,338.664 206.969,347.536 " fill="transparent" stroke-width="0.5" stroke="rgb(0,0,255)" />
	<polyline points="206.969,347.536 229.755,341.791 " fill="transparent" stroke-width="0.5" stroke="rgb(0,0,255)" />
	<polyline points="229.755,341.791 241.107,328.042 " fill="transparent" stroke-width="0.5" stroke="rgb(0,0,255)" />
	<polyline points="241.107,328.042 238.53,318.923 " fill="transparent" stroke-width="0.5" stroke="rgb(0,0,255)" />
	<polyline points="238.53,318.923 251.823,306.398 " fill="transparent" stroke-width="0.5" stroke="rgb(0,0,255)" />
	<polyline points="241.107,328.042 282.961,326.322 " fill="transparent" stroke-width="0.5" stroke="rgb(0,0,255)" />
	<polyline points="282.961,326.322 293.27,320.412 " fill="transparent" stroke-width="0.5" stroke="rgb(0,0,255)" />
	<polyline points="293.27,320.412 287.916,303.638 " fill="transparent" stroke-width="0.5" stroke="rgb(0,0,255)" />
	<polyline points="293.27,320.412 320.125,314.193 " fill="transparent" stroke-width="0.5" stroke="rgb(0,0,255)" />
	<polyline points="320.125,314.193 334.762,305.137 " fill="transparent" stroke-width="0.5" stroke="rgb(0,0,255)" />
	<polyline points="334.762,305.137 343.167,294.947 " fill="transparent" stroke-width="0.5" stroke="rgb(0,0,255)" />
	<polyline points="343.167,294.947 330.43,279.459 " fill="transparent" stroke-width="0.5" stroke="rgb(0,0,255)" />
	<polyline points="330.43,279.459 333.401,265.139 " fill="transparent" stroke-width="0.5" stroke="rgb(0,0,255)" />
	<polyline points="333.401,265.139 242.841,275.771 " fill="transparent" stroke-width="0.5" stroke="rgb(0,0,255)" />
	<polyline points="330.43,279.459 342.918,275.181 " fill="transparent" stroke-width="0.5" stroke="rgb(0,0,255)" />
	<polyline points="342.918,275.181 340.824,265.87 " fill="transparent" stroke-width="0.5" stroke="rgb(0,0,255)" />
	<polyline points="340.824,265.87 361.566,259.479 " fill="transparent" stroke-width="0.5" stroke="rgb(0,0,255)" />
	<polyline points="361.566,259.479 364.646,252.84 " fill="transparent" stroke-width="0.5" stroke="rgb(0,0,255)" />
	<polyline points="364.646,252.84 277.83,355.833 " fill="transparent" stroke-width="0.5" stroke="rgb(0,0,255)" />
	<polyline points="364.646,252.84 365.081,245.612 " fill="transparent" stroke-width="0.5" stroke="rgb(0,0,255)" />
	<polyline points="365.081,245.612 372.981,240.142 " fill="transparent" stroke-width="0.5" stroke="rgb(0,0,255)" />
	<polyline points="372.981,240.142 409.112,236.173 " fill="transparent" stroke-width="0.5" stroke="rgb(0,0,255)" />
	<polyline points="409.112,236.173 382.789,219.798 " fill="transparent" stroke-width="0.5" stroke="rgb(0,0,255)" />
	<polyline points="382.789,219.798 384.604,209.683 " fill="transparent" stroke-width="0.5" stroke="rgb(0,0,255)" />
	<polyline points="384.604,209.683 382.187,195.653 " fill="transparent" stroke-width="0.5" stroke="rgb(0,0,255)" />
	<polyline points="382.187,195.653 349.2,183.007 " fill="transparent" stroke-width="0.5" stroke="rgb(0,0,255)" />
	<polyline points="409.112,236.173 289.523,270.3 " fill="transparent" stroke-width="0.5" stroke="rgb(0,0,255)" />
	<polyline points="365.081,245.612 290.805,319.109 " fill="transparent" stroke-width="0.5" stroke="rgb(0,0,255)" />
	<polyline points="340.824,265.87 279.371,252.231 " fill="transparent" stroke-width="0.5" stroke="rgb(0,0,255)" />
	<polyline points="279.371,252.231 278.643,242.296 " fill="transparent" stroke-width="0.5" stroke="rgb(0,0,255)" />
	<polyline points="279.371,252.231 291.027,244.757 " fill="transparent" stroke-width="0.5" stroke="rgb(0,0,255)" />
	<polyline points="291.027,244.757 295.525,236.639 " fill="transparent" stroke-width="0.5" stroke="rgb(0,0,255)" />
	<polyline points="295.525,236.639 204.32,215.763 " fill="transparent" stroke-width="0.5" stroke="rgb(0,0,255)" />
	<polyline points="204.32,215.763 218.649,207.328 " fill="transparent" stroke-width="0.5" stroke="rgb(0,0,255)" />
	<polyline points="218.649,207.328 213.932,189.089 " fill="transparent" stroke-width="0.5" stroke="rgb(0,0,255)" />
	<polyline points="213.932,189.089 155.727,171.07 " fill="transparent" stroke-width="0.5" stroke="rgb(0,0,255)" />
	<polyline points="213.932,189.089 233.297,180.624 " fill="transparent" stroke-width="0.5" stroke="rgb(0,0,255)" />
	<polyline points="233.297,180.624 213.107,164.456 " fill="transparent" stroke-width="0.5" stroke="rgb(0,0,255)" />
	<polyline points="213.932,189.089 134.322,176.356 " fill="transparent" stroke-width="0.5" stroke="rgb(0,0,255)" />
	<polyline points="134.322,176.356 139.279,166.262 " fill="transparent" stroke-width="0.5" stroke="rgb(0,0,255)" />
	<polyline points="134.322,176.356 138.84,164.191 " fill="transparent" stroke-width="0.5" stroke="rgb(0,0,255)" />
	<polyline points="138.84,164.191 103.54,141.859 " fill="transparent" stroke-width="0.5" stroke="rgb(0,0,255)" />
	<polyline points="103.54,141.859 152.115,245.689 " fill="transparent" stroke-width="0.5" stroke="rgb(0,0,255)" />
	<polyline points="103.54,141.859 165.942,151.342 " fill="transparent" stroke-width="0.5" stroke="rgb(0,0,255)" />
	<polyline points="165.942,151.342 139.648,125.51 " fill="transparent" stroke-width="0.5" stroke="rgb(0,0,255)" />
	<polyline points="139.648,125.51 134.49,107.919 " fill="transparent" stroke-width="0.5" stroke="rgb(0,0,255)" />
	<polyline points="134.49,107.919 146.957,102.001 " fill="transparent" stroke-width="0.5" stroke="rgb(0,0,255)" />
	<polyline points="134.49,107.919 73.7998,242.541 " fill="transparent" stroke-width="0.5" stroke="rgb(0,0,255)" />
	<polyline points="134.49,107.919 196.256,139.726 " fill="transparent" stroke-width="0.5" stroke="rgb(0,0,255)" />
	<polyline points="196.256,139.726 205.725,133.673 " fill="transparent" stroke-width="0.5" stroke="rgb(0,0,255)" />
	<polyline points="103.54,141.859 163.766,190.577 " fill="transparent" stroke-width="0.5" stroke="rgb(0,0,255)" />
	<polyline points="103.54,141.859 182.576,204.692 " fill="transparent" stroke-width="0.5" stroke="rgb(0,0,255)" />
	<polyline points="182.576,204.692 184.477,192.063 " fill="transparent" stroke-width="0.5" stroke="rgb(0,0,255)" />
	<polyline points="103.54,141.859 192.125,198.687 " fill="transparent" stroke-width="0.5" stroke="rgb(0,0,255)" />
	<polyline points="138.84,164.191 196.632,179.957 " fill="transparent" stroke-width="0.5" stroke="rgb(0,0,255)" />
	<polyline points="196.632,179.957 209.386,177.147 " fill="transparent" stroke-width="0.5" stroke="rgb(0,0,255)" />
	<polyline points="342.918,275.181 226.627,292.363 " fill="transparent" stroke-width="0.5" stroke="rgb(0,0,255)" />
	<polyline points="330.43,279.459 201.758,299.234 " fill="transparent" stroke-width="0.5" stroke="rgb(0,0,255)" />
	<polyline points="201.758,299.234 212.011,289.062 " fill="transparent" stroke-width="0.5" stroke="rgb(0,0,255)" />
	<polyline points="201.758,299.234 176.492,277.334 " fill="transparent" stroke-width="0.5" stroke="rgb(0,0,255)" />
	<polyline points="343.167,294.947 253.612,337.457 " fill="transparent" stroke-width="0.5" stroke="rgb(0,0,255)" />
	<polyline points="343.167,294.947 276.016,352.409 " fill="transparent" stroke-width="0.5" stroke="rgb(0,0,255)" />
	<polyline points="276.016,352.409 177.61,391.044 " fill="transparent" stroke-width="0.5" stroke="rgb(0,0,255)" />
	<polyline points="177.61,391.044 157.514,374.754 " fill="transparent" stroke-width="0.5" stroke="rgb(0,0,255)" />
	<polyline points="276.016,352.409 271.087,337.126 " fill="transparent" stroke-width="0.5" stroke="rgb(0,0,255)" />
	<polyline points="320.125,314.193 385.207,337.202 " fill="transparent" stroke-width="0.5" stroke="rgb(0,0,255)" />
	<polyline points="385.207,337.202 436.841,333.915 " fill="transparent" stroke-width="0.5" stroke="rgb(0,0,255)" />
	<polyline points="436.841,333.915 360.901,349.368 " fill="transparent" stroke-width="0.5" stroke="rgb(0,0,255)" />
	<polyline points="360.901,349.368 266.189,344.082 " fill="transparent" stroke-width="0.5" stroke="rgb(0,0,255)" />
	<polyline points="436.841,333.915 445.475,321.758 " fill="transparent" stroke-width="0.5" stroke="rgb(0,0,255)" />
	<polyline points="436.841,333.915 324.216,355.12 " fill="transparent" stroke-width="0.5" stroke="rgb(0,0,255)" />
	<polyline points="324.216,355.12 313.017,342.057 " fill="transparent" stroke-width="0.5" stroke="rgb(0,0,255)" />
	<polyline points="324.216,355.12 332.325,342.689 " fill="transparent" stroke-width="0.5" stroke="rgb(0,0,255)" />
	<polyline points="324.216,355.12 259,358.363 " fill="transparent" stroke-width="0.5" stroke="rgb(0,0,255)" />
	<polyline points="324.216,355.12 254.258,404.683 " fill="transparent" stroke-width="0.5" stroke="rgb(0,0,255)" />
	<polyline points="254.258,404.683 161.772,452.635 " fill="transparent" stroke-width="0.5" stroke="rgb(0,0,255)" />
	<polyline points="254.258,404.683 264.445,390.139 " fill="transparent" stroke-width="0.5" stroke="rgb(0,0,255)" />
	<polyline points="436.841,333.915 353.756,327.752 " fill="transparent" stroke-width="0.5" stroke="rgb(0,0,255)" />
	<polyline points="353.756,327.752 317.423,317.843 " fill="transparent" stroke-width="0.5" stroke="rgb(0,0,255)" />
	<polyline points="353.756,327.752 349.508,314.157 " fill="transparent" stroke-width="0.5" stroke="rgb(0,0,255)" />
	<polyline points="353.756,327.752 342.344,316.285 " fill="transparent" stroke-width="0.5" stroke="rgb(0,0,255)" />
	<polyline points="436.841,333.915 457.415,324.97 " fill="transparent" stroke-width="0.5" stroke="rgb(0,0,255)" />
	<polyline points="457.415,324.97 479.094,319.062 " fill="transparent" stroke-width="0.5" stroke="rgb(0,0,255)" />
	<polyline points="457.415,324.97 482.952,318.359 " fill="transparent" stroke-width="0.5" stroke="rgb(0,0,255)" />
	<polyline points="482.952,318.359 494.037,311.807 " fill="transparent" stroke-width="0.5" stroke="rgb(0,0,255)" />
	<polyline points="482.952,318.359 487.72,306.889 " fill="transparent" stroke-width="0.5" stroke="rgb(0,0,255)" />
	<polyline points="487.72,306.889 410.038,327.175 " fill="transparent" stroke-width="0.5" stroke="rgb(0,0,255)" />
	<polyline points="410.038,327.175 351.118,331.87 " fill="transparent" stroke-width="0.5" stroke="rgb(0,0,255)" />
	<polyline points="457.415,324.97 380.873,341.071 " fill="transparent" stroke-width="0.5" stroke="rgb(0,0,255)" />
	<polyline points="380.873,341.071 379.083,328.345 " fill="transparent" stroke-width="0.5" stroke="rgb(0,0,255)" />
	<polyline points="380.873,341.071 302.895,344.56 " fill="transparent" stroke-width="0.5" stroke="rgb(0,0,255)" />
	<polyline points="436.841,333.915 384.896,325.718 " fill="transparent" stroke-width="0.5" stroke="rgb(0,0,255)" />
	<polyline points="384.896,325.718 300.266,335.028 " fill="transparent" stroke-width="0.5" stroke="rgb(0,0,255)" />
	<polyline points="385.207,337.202 273.589,341.809 " fill="transparent" stroke-width="0.5" stroke="rgb(0,0,255)" />
	<polyline points="273.589,341.809 206.22,337.116 " fill="transparent" stroke-width="0.5" stroke="rgb(0,0,255)" />
	<polyline points="206.22,337.116 210.841,323.168 " fill="transparent" stroke-width="0.5" stroke="rgb(0,0,255)" />
	<polyline points="241.107,328.042 133.593,343.132 " fill="transparent" stroke-width="0.5" stroke="rgb(0,0,255)" />
	<polyline points="241.107,328.042 134.412,391.17 " fill="transparent" stroke-width="0.5" stroke="rgb(0,0,255)" />
	<polyline points="134.412,391.17 131.949,373.642 " fill="transparent" stroke-width="0.5" stroke="rgb(0,0,255)" />
	<polyline points="134.412,391.17 111.552,368.478 " fill="transparent" stroke-width="0.5" stroke="rgb(0,0,255)" />
	<polyline points="241.107,328.042 178.824,355.845 " fill="transparent" stroke-width="0.5" stroke="rgb(0,0,255)" />
	<polyline points="96.9644,382.556 8.8316,387.148 " fill="transparent" stroke-width="0.5" stroke="rgb(0,0,255)" />
	<polyline points="8.8316,387.148 25.6992,361.523 " fill="transparent" stroke-width="0.5" stroke="rgb(0,0,255)" />
	<polyline points="25.6992,361.523 32.7827,346.898 " fill="transparent" stroke-width="0.5" stroke="rgb(0,0,255)" />
	<polyline points="32.7827,346.898 36.4357,334.832 " fill="transparent" stroke-width="0.5" stroke="rgb(0,0,255)" />
	<polyline points="32.7827,346.898 2.36969,319.273 " fill="transparent" stroke-width="0.5" stroke="rgb(0,0,255)" />
	<polyline points="83.3333,416.667 151.009,446.237 " fill="transparent" stroke-width="0.5" stroke="rgb(0,0,255)" />
	<polyline points="151.009,446.237 163.59,427.503 " fill="transparent" stroke-width="0.5" stroke="rgb(0,0,255)" />
	<polyline points="163.59,427.503 283.591,489.247 " fill="transparent" stroke-width="0.5" stroke="rgb(0,0,255)" />
	<polyline points="283.591,489.247 278.336,478.663 " fill="transparent" stroke-width="0.5" stroke="rgb(0,0,255)" />
	<polyline points="283.591,489.247 292.378,477.25 " fill="transparent" stroke-width="0.5" stroke="rgb(0,0,255)" />
	<polyline points="283.591,489.247 298.827,476.974 " fill="transparent" stroke-width="0.5" stroke="rgb(0,0,255)" />
	<polyline points="298.827,476.974 301.868,462.663 " fill="transparent" stroke-width="0.5" stroke="rgb(0,0,255)" />
	<polyline points="298.827,476.974 338.211,466.925 " fill="transparent" stroke-width="0.5" stroke="rgb(0,0,255)" />
	<polyline points="338.211,466.925 391.142,469.166 " fill="transparent" stroke-width="0.5" stroke="rgb(0,0,255)" />
	<polyline points="391.142,469.166 383.471,461.693 " fill="transparent" stroke-width="0.5" stroke="rgb(0,0,255)" />
	<polyline points="391.142,469.166 403.072,455.124 " fill="transparent" stroke-width="0.5" stroke="rgb(0,0,255)" />
	<polyline points="403.072,455.124 414.4,442.916 " fill="transparent" stroke-width="0.5" stroke="rgb(0,0,255)" />
	<polyline points="391.142,469.166 358.766,459.394 " fill="transparent" stroke-width="0.5" stroke="rgb(0,0,255)" />
	<polyline points="391.142,469.166 376.959,464.034 " fill="transparent" stroke-width="0.5" stroke="rgb(0,0,255)" />
	<polyline points="338.211,466.925 339.92,458.013 " fill="transparent" stroke-width="0.5" stroke="rgb(0,0,255)" />
	<polyline points="339.92,458.013 301.507,449.916 " fill="transparent" stroke-width="0.5" stroke="rgb(0,0,255)" />
	<polyline points="301.507,449.916 306.809,441.989 " fill="transparent" stroke-width="0.5" stroke="rgb(0,0,255)" />
	<polyline points="338.211,466.925 288.462,467.9 " fill="transparent" stroke-width="0.5" stroke="rgb(0,0,255)" />
	<polyline points="298.827,476.974 237.965,493.584 " fill="transparent" stroke-width="0.5" stroke="rgb(0,0,255)" />
	<polyline points="237.965,493.584 248.062,483.945 " fill="transparent" stroke-width="0.5" stroke="rgb(0,0,255)" />
	<polyline points="237.965,493.584 226.401,477.78 " fill="transparent" stroke-width="0.5" stroke="rgb(0,0,255)" />
	<polyline points="226.401,477.78 229.693,468.555 " fill="transparent" stroke-width="0.5" stroke="rgb(0,0,255)" />
	<polyline points="229.693,468.555 230.759,456.056 " fill="transparent" stroke-width="0.5" stroke="rgb(0,0,255)" />
	<polyline points="237.965,493.584 218.001,489.39 " fill="transparent" stroke-width="0.5" stroke="rgb(0,0,255)" />
	<polyline points="298.827,476.974 277.578,471.041 " fill="transparent" stroke-width="0.5" stroke="rgb(0,0,255)" />
	<polyline points="277.578,471.041 268.691,455.597 " fill="transparent" stroke-width="0.5" stroke="rgb(0,0,255)" />
	<polyline points="268.691,455.597 204.043,476.489 " fill="transparent" stroke-width="0.5" stroke="rgb(0,0,255)" />
	<polyline points="163.59,427.503 77.5134,474.504 " fill="transparent" stroke-width="0.5" stroke="rgb(0,0,255)" />
	<polyline points="77.5134,474.504 63.2506,465.261 " fill="transparent" stroke-width="0.5" stroke="rgb(0,0,255)" />
	<polyline points="77.5134,474.504 92.4484,451.759 " fill="transparent" stroke-width="0.5" stroke="rgb(0,0,255)" />
	<polyline points="92.4484,451.759 54.1145,453.378 " fill="transparent" stroke-width="0.5" stroke="rgb(0,0,255)" />
	<polyline points="92.4484,451.759 109.235,428.021 " fill="transparent" stroke-width="0.5" stroke="rgb(0,0,255)" />
	<polyline points="92.4484,451.759 126.595,429.788 " fill="transparent" stroke-width="0.5" stroke="rgb(0,0,255)" />
	<polyline points="126.595,429.788 132.44,412.247 " fill="transparent" stroke-width="0.5" stroke="rgb(0,0,255)" />
	<polyline points="83.3333,416.667 11.6827,438.984 " fill="transparent" stroke-width="0.5" stroke="rgb(0,0,255)" />
	<circle cx="83.3333" cy="416.667" r="2" fill="rgb(255,0,0)" />
	<circle cx="416.667" cy="83.3333" r="2" fill="rgb(0,255,0)" />
	<polyline points="83.3333,416.667 110.846,403.428 130.803,390.111 135.944,379.741 79.0189,396.391 65.311,381.304 78.0636,365.843 75.894,348.567 58.7164,335.302 61.5725,314.394 51.2828,294.456 103.961,303.461 120.452,295.388 142.387,290.199 142.335,271.616 149.671,257.525 118.185,230.836 125.383,220.865 152.951,217.988 185.205,214.834 184.69,195.536 185.176,186.201 160.186,163.014 140.952,148.932 113.767,132.895 136.917,121.289 159.509,111.953 208.368,125.111 226.068,125.274 232.917,120.445 232.035,105.838 247.506,107.578 240.01,87.7387 254.942,89.6595 287.194,103.435 312.659,104.529 335.664,98.4117 378.216,105.388 394.488,90.8764 403.939,79.1688 455.502,49.9928 449.345,43.0908 413.307,87.1074 " fill="transparent" stroke-width="3" stroke="rgb(0,0,0)" />
</svg>
