<?xml version="1.0" standalone="no" ?>
<!DOCTYPE svg PUBLIC "-//W3C//DTD SVG 1.1//EN" "http://www.w3.org/Graphics/SVG/1.1/DTD/svg11.dtd">
<svg width="500px" height="500px" xmlns="http://www.w3.org/2000/svg" version="1.1" >
	<circle cx="310.36" cy="10.132" r="2.5" fill="rgb(255,255,255)" />
	<circle cx="367.066" cy="79.4929" r="2.5" fill="rgb(244,244,244)" />
	<circle cx="350.28" cy="31.2266" r="2.5" fill="rgb(235,235,235)" />
	<circle cx="351.055" cy="15.5562" r="2.5" fill="rgb(230,230,230)" />
	<circle cx="308.248" cy="25.0591" r="2.5" fill="rgb(230,230,230)" />
	<circle cx="382.47" cy="9.59692" r="2.5" fill="rgb(229,229,229)" />
	<circle cx="471.73" cy="109.454" r="2.5" fill="rgb(226,226,226)" />
	<circle cx="457.803" cy="156.28" r="2.5" fill="rgb(223,223,223)" />
	<circle cx="470.534" cy="91.2394" r="2.5" fill="rgb(221,221,221)" />
	<circle cx="384.261" cy="27.7089" r="2.5" fill="rgb(219,219,219)" />
	<circle cx="424.12" cy="43.1896" r="2.5" fill="rgb(218,218,218)" />
	<circle cx="435.815" cy="168.706" r="2.5" fill="rgb(217,217,217)" />
	<circle cx="332.88" cy="41.3198" r="2.5" fill="rgb(217,217,217)" />
	<circle cx="461.834" cy="136.696" r="2.5" fill="rgb(215,215,215)" />
	<circle cx="460.957" cy="20.6235" r="2.5" fill="rgb(214,214,214)" />
	<circle cx="383.205" cy="40.696" r="2.5" fill="rgb(212,212,212)" />
	<circle cx="464.974" cy="170.595" r="2.5" fill="rgb(211,211,211)" />
	<circle cx="435.656" cy="48.2307" r="2.5" fill="rgb(210,210,210)" />
	<circle cx="377.916" cy="48.8994" r="2.5" fill="rgb(208,208,208)" />
	<circle cx="384.057" cy="49.5712" r="2.5" fill="rgb(207,207,207)" />
	<circle cx="437.909" cy="60.7246" r="2.5" fill="rgb(202,202,202)" />
	<circle cx="447.503" cy="55.5612" r="2.5" fill="rgb(201,201,201)" />
	<circle cx="392.709" cy="60.6206" r="2.5" fill="rgb(200,200,200)" />
	<circle cx="446.864" cy="63.3718" r="2.5" fill="rgb(197,197,197)" />
	<circle cx="414.811" cy="60.6631" r="2.5" fill="rgb(197,197,197)" />
	<circle cx="455.826" cy="59.903" r="2.5" fill="rgb(197,197,197)" />
	<circle cx="400.641" cy="64.8508" r="2.5" fill="rgb(196,196,196)" />
	<circle cx="413.021" cy="63.2654" r="2.5" fill="rgb(196,196,196)" />
	<circle cx="410.87" cy="63.9182" r="2.5" fill="rgb(196,196,196)" />
	<circle cx="403.436" cy="66.0124" r="2.5" fill="rgb(195,195,195)" />
	<circle cx="399.731" cy="66.9625" r="2.5" fill="rgb(195,195,195)" />
	<circle cx="440.379" cy="180.242" r="2.5" fill="rgb(195,195,195)" />
	<circle cx="475.105" cy="194.85" r="2.5" fill="rgb(195,195,195)" />
	<circle cx="410.596" cy="65.9734" r="2.5" fill="rgb(195,195,195)" />
	<circle cx="403.001" cy="69.9106" r="2.5" fill="rgb(194,194,194)" />
	<circle cx="435.315" cy="166.281" r="2.5" fill="rgb(193,193,193)" />
	<circle cx="409.302" cy="72.1775" r="2.5" fill="rgb(192,192,192)" />
	<circle cx="427.573" cy="188.652" r="2.5" fill="rgb(191,191,191)" />
	<circle cx="450.664" cy="72.6384" r="2.5" fill="rgb(190,190,190)" />
	<circle cx="433.868" cy="191.891" r="2.5" fill="rgb(189,189,189)" />
	<circle cx="467.086" cy="64.5533" r="2.5" fill="rgb(188,188,188)" />
	<circle cx="453.586" cy="75.2853" r="2.5" fill="rgb(187,187,187)" />
	<circle cx="405.827" cy="82.4045" r="2.5" fill="rgb(187,187,187)" />
	<circle cx="439.002" cy="195.319" r="2.5" fill="rgb(187,187,187)" />
	<circle cx="459.378" cy="193.896" r="2.5" fill="rgb(186,186,186)" />
	<circle cx="453.385" cy="77.9297" r="2.5" fill="rgb(186,186,186)" />
	<circle cx="443.303" cy="197.157" r="2.5" fill="rgb(186,186,186)" />
	<circle cx="481.352" cy="171.937" r="2.5" fill="rgb(186,186,186)" />
	<circle cx="429.63" cy="198.537" r="2.5" fill="rgb(185,185,185)" />
	<circle cx="463.828" cy="198.964" r="2.5" fill="rgb(184,184,184)" />
	<circle cx="469.931" cy="200.382" r="2.5" fill="rgb(183,183,183)" />
	<circle cx="455.706" cy="200.761" r="2.5" fill="rgb(183,183,183)" />
	<circle cx="484.074" cy="184.304" r="2.5" fill="rgb(182,182,182)" />
	<circle cx="449.715" cy="202.707" r="2.5" fill="rgb(182,182,182)" />
	<circle cx="410.088" cy="94.5896" r="2.5" fill="rgb(181,181,181)" />
	<circle cx="439.318" cy="206.842" r="2.5" fill="rgb(180,180,180)" />
	<circle cx="458.924" cy="205.844" r="2.5" fill="rgb(180,180,180)" />
	<circle cx="453.943" cy="205.984" r="2.5" fill="rgb(180,180,180)" />
	<circle cx="460.66" cy="87.2757" r="2.5" fill="rgb(178,178,178)" />
	<circle cx="385.431" cy="99.3144" r="2.5" fill="rgb(178,178,178)" />
	<circle cx="457.739" cy="209.29" r="2.5" fill="rgb(178,178,178)" />
	<circle cx="397.535" cy="104.068" r="2.5" fill="rgb(178,178,178)" />
	<circle cx="370.389" cy="100.344" r="2.5" fill="rgb(177,177,177)" />
	<circle cx="493.174" cy="198.666" r="2.5" fill="rgb(175,175,175)" />
	<circle cx="417.024" cy="106.255" r="2.5" fill="rgb(175,175,175)" />
	<circle cx="418.261" cy="107.884" r="2.5" fill="rgb(174,174,174)" />
	<circle cx="462.157" cy="217.685" r="2.5" fill="rgb(173,173,173)" />
	<circle cx="378.614" cy="110.754" r="2.5" fill="rgb(172,172,172)" />
	<circle cx="491.503" cy="175.815" r="2.5" fill="rgb(172,172,172)" />
	<circle cx="391.022" cy="114.178" r="2.5" fill="rgb(170,170,170)" />
	<circle cx="383.118" cy="115.924" r="2.5" fill="rgb(170,170,170)" />
	<circle cx="433.486" cy="115.953" r="2.5" fill="rgb(169,169,169)" />
	<circle cx="415.996" cy="119.553" r="2.5" fill="rgb(169,169,169)" />
	<circle cx="422.325" cy="122.108" r="2.5" fill="rgb(167,167,167)" />
	<circle cx="494.545" cy="192.111" r="2.5" fill="rgb(165,165,165)" />
	<circle cx="394.854" cy="126.036" r="2.5" fill="rgb(164,164,164)" />
	<circle cx="460.259" cy="179.117" r="2.5" fill="rgb(164,164,164)" />
	<circle cx="399.766" cy="129.346" r="2.5" fill="rgb(163,163,163)" />
	<circle cx="396.005" cy="131.168" r="2.5" fill="rgb(162,162,162)" />
	<circle cx="429.967" cy="135.717" r="2.5" fill="rgb(160,160,160)" />
	<circle cx="407.248" cy="142.863" r="2.5" fill="rgb(156,156,156)" />
	<circle cx="463.703" cy="195.309" r="2.5" fill="rgb(156,156,156)" />
	<circle cx="423.277" cy="144.439" r="2.5" fill="rgb(155,155,155)" />
	<circle cx="137.348" cy="4.94074" r="2.5" fill="rgb(155,155,155)" />
	<circle cx="224.643" cy="32.7527" r="2.5" fill="rgb(155,155,155)" />
	<circle cx="154.511" cy="170.552" r="2.5" fill="rgb(153,153,153)" />
	<circle cx="132.368" cy="12.5696" r="2.5" fill="rgb(153,153,153)" />
	<circle cx="408.751" cy="151.317" r="2.5" fill="rgb(152,152,152)" />
	<circle cx="403.08" cy="236.792" r="2.5" fill="rgb(151,151,151)" />
	<circle cx="213.16" cy="38.8913" r="2.5" fill="rgb(150,150,150)" />
	<circle cx="416.794" cy="240.892" r="2.5" fill="rgb(150,150,150)" />
	<circle cx="156.17" cy="6.3019" r="2.5" fill="rgb(149,149,149)" />
	<circle cx="102.889" cy="25.9029" r="2.5" fill="rgb(149,149,149)" />
	<circle cx="425.326" cy="160.133" r="2.5" fill="rgb(148,148,148)" />
	<circle cx="399.318" cy="158.803" r="2.5" fill="rgb(148,148,148)" />
	<circle cx="145.642" cy="186.899" r="2.5" fill="rgb(148,148,148)" />
	<circle cx="152.113" cy="60.3718" r="2.5" fill="rgb(148,148,148)" />
	<circle cx="249.854" cy="83.7375" r="2.5" fill="rgb(147,147,147)" />
	<circle cx="488.356" cy="358.68" r="2.5" fill="rgb(147,147,147)" />
	<circle cx="145.391" cy="163.193" r="2.5" fill="rgb(147,147,147)" />
	<circle cx="166.008" cy="17.0558" r="2.5" fill="rgb(147,147,147)" />
	<circle cx="198.444" cy="83.8008" r="2.5" fill="rgb(146,146,146)" />
	<circle cx="404.565" cy="245.824" r="2.5" fill="rgb(146,146,146)" />
	<circle cx="121.48" cy="31.88" r="2.5" fill="rgb(145,145,145)" />
	<circle cx="120.557" cy="32.0441" r="2.5" fill="rgb(145,145,145)" />
	<circle cx="122.86" cy="194.038" r="2.5" fill="rgb(145,145,145)" />
	<circle cx="405.183" cy="163.89" r="2.5" fill="rgb(145,145,145)" />
	<circle cx="154.092" cy="204.618" r="2.5" fill="rgb(145,145,145)" />
	<circle cx="332.191" cy="106.127" r="2.5" fill="rgb(144,144,144)" />
	<circle cx="114.432" cy="95.1293" r="2.5" fill="rgb(144,144,144)" />
	<circle cx="314.095" cy="99.9283" r="2.5" fill="rgb(144,144,144)" />
	<circle cx="399.31" cy="166.867" r="2.5" fill="rgb(144,144,144)" />
	<circle cx="66.0455" cy="43.3001" r="2.5" fill="rgb(144,144,144)" />
	<circle cx="160.501" cy="26.3645" r="2.5" fill="rgb(143,143,143)" />
	<circle cx="438.76" cy="253.419" r="2.5" fill="rgb(143,143,143)" />
	<circle cx="239.929" cy="91.0593" r="2.5" fill="rgb(143,143,143)" />
	<circle cx="55.3431" cy="379.626" r="2.5" fill="rgb(143,143,143)" />
	<circle cx="497.513" cy="273.172" r="2.5" fill="rgb(142,142,142)" />
	<circle cx="305.803" cy="98.5348" r="2.5" fill="rgb(142,142,142)" />
	<circle cx="101.338" cy="90.5174" r="2.5" fill="rgb(142,142,142)" />
	<circle cx="129.525" cy="42.6708" r="2.5" fill="rgb(142,142,142)" />
	<circle cx="217.598" cy="226.83" r="2.5" fill="rgb(141,141,141)" />
	<circle cx="124.975" cy="91.2109" r="2.5" fill="rgb(141,141,141)" />
	<circle cx="119.131" cy="109.161" r="2.5" fill="rgb(140,140,140)" />
	<circle cx="168.716" cy="39.4587" r="2.5" fill="rgb(140,140,140)" />
	<circle cx="233.923" cy="95.9535" r="2.5" fill="rgb(140,140,140)" />
	<circle cx="407.53" cy="175.405" r="2.5" fill="rgb(140,140,140)" />
	<circle cx="32.5032" cy="66.2424" r="2.5" fill="rgb(139,139,139)" />
	<circle cx="354.659" cy="164.199" r="2.5" fill="rgb(139,139,139)" />
	<circle cx="441.338" cy="261.024" r="2.5" fill="rgb(139,139,139)" />
	<circle cx="149.575" cy="149.956" r="2.5" fill="rgb(139,139,139)" />
	<circle cx="52.7581" cy="59.3672" r="2.5" fill="rgb(138,138,138)" />
	<circle cx="391.019" cy="256.23" r="2.5" fill="rgb(138,138,138)" />
	<circle cx="72.5226" cy="52.8952" r="2.5" fill="rgb(138,138,138)" />
	<circle cx="448.256" cy="263.462" r="2.5" fill="rgb(138,138,138)" />
	<circle cx="312.64" cy="113.426" r="2.5" fill="rgb(138,138,138)" />
	<circle cx="302.008" cy="107.836" r="2.5" fill="rgb(138,138,138)" />
	<circle cx="133.318" cy="102.642" r="2.5" fill="rgb(138,138,138)" />
	<circle cx="396.686" cy="178.049" r="2.5" fill="rgb(137,137,137)" />
	<circle cx="384.288" cy="175.903" r="2.5" fill="rgb(137,137,137)" />
	<circle cx="484.174" cy="370.562" r="2.5" fill="rgb(137,137,137)" />
	<circle cx="223.03" cy="94.6009" r="2.5" fill="rgb(136,136,136)" />
	<circle cx="216.502" cy="86.3903" r="2.5" fill="rgb(136,136,136)" />
	<circle cx="25.758" cy="75.4354" r="2.5" fill="rgb(136,136,136)" />
	<circle cx="157.202" cy="373.498" r="2.5" fill="rgb(136,136,136)" />
	<circle cx="172.452" cy="55.5198" r="2.5" fill="rgb(136,136,136)" />
	<circle cx="185.764" cy="175.697" r="2.5" fill="rgb(135,135,135)" />
	<circle cx="272.254" cy="97.5469" r="2.5" fill="rgb(135,135,135)" />
	<circle cx="168.613" cy="58.3137" r="2.5" fill="rgb(135,135,135)" />
	<circle cx="49.6427" cy="68.4826" r="2.5" fill="rgb(134,134,134)" />
	<circle cx="386.974" cy="182.559" r="2.5" fill="rgb(134,134,134)" />
	<circle cx="352.07" cy="174.221" r="2.5" fill="rgb(134,134,134)" />
	<circle cx="30.6825" cy="79.4763" r="2.5" fill="rgb(133,133,133)" />
	<circle cx="195.915" cy="76.5414" r="2.5" fill="rgb(132,132,132)" />
	<circle cx="172.52" cy="65.7117" r="2.5" fill="rgb(132,132,132)" />
	<circle cx="303.901" cy="244.005" r="2.5" fill="rgb(131,131,131)" />
	<circle cx="197.791" cy="381.52" r="2.5" fill="rgb(131,131,131)" />
	<circle cx="375.945" cy="264.526" r="2.5" fill="rgb(131,131,131)" />
	<circle cx="171.111" cy="437.624" r="2.5" fill="rgb(131,131,131)" />
	<circle cx="287.353" cy="116.362" r="2.5" fill="rgb(131,131,131)" />
	<circle cx="283.501" cy="287.243" r="2.5" fill="rgb(131,131,131)" />
	<circle cx="154.815" cy="63.8305" r="2.5" fill="rgb(131,131,131)" />
	<circle cx="101.966" cy="194.38" r="2.5" fill="rgb(131,131,131)" />
	<circle cx="298.851" cy="243.963" r="2.5" fill="rgb(131,131,131)" />
	<circle cx="438.561" cy="275.024" r="2.5" fill="rgb(130,130,130)" />
	<circle cx="426.293" cy="272.821" r="2.5" fill="rgb(130,130,130)" />
	<circle cx="229.237" cy="376.67" r="2.5" fill="rgb(130,130,130)" />
	<circle cx="384.492" cy="189.805" r="2.5" fill="rgb(130,130,130)" />
	<circle cx="262.796" cy="105.043" r="2.5" fill="rgb(130,130,130)" />
	<circle cx="54.1295" cy="77.3285" r="2.5" fill="rgb(130,130,130)" />
	<circle cx="345.135" cy="309.392" r="2.5" fill="rgb(129,129,129)" />
	<circle cx="273.728" cy="113.084" r="2.5" fill="rgb(129,129,129)" />
	<circle cx="215.687" cy="102.238" r="2.5" fill="rgb(129,129,129)" />
	<circle cx="65.1099" cy="386.9" r="2.5" fill="rgb(129,129,129)" />
	<circle cx="265.742" cy="110.06" r="2.5" fill="rgb(129,129,129)" />
	<circle cx="368.113" cy="188.42" r="2.5" fill="rgb(128,128,128)" />
	<circle cx="363.644" cy="187.259" r="2.5" fill="rgb(128,128,128)" />
	<circle cx="123.524" cy="196.048" r="2.5" fill="rgb(128,128,128)" />
	<circle cx="287.749" cy="294.827" r="2.5" fill="rgb(128,128,128)" />
	<circle cx="49.0976" cy="84.6574" r="2.5" fill="rgb(127,127,127)" />
	<circle cx="267.608" cy="116.187" r="2.5" fill="rgb(127,127,127)" />
	<circle cx="59.0077" cy="82.3493" r="2.5" fill="rgb(127,127,127)" />
	<circle cx="376.778" cy="273.312" r="2.5" fill="rgb(126,126,126)" />
	<circle cx="425.049" cy="279.703" r="2.5" fill="rgb(126,126,126)" />
	<circle cx="147.053" cy="163.848" r="2.5" fill="rgb(126,126,126)" />
	<circle cx="186.825" cy="90.2896" r="2.5" fill="rgb(126,126,126)" />
	<circle cx="168.09" cy="156.923" r="2.5" fill="rgb(126,126,126)" />
	<circle cx="37.5222" cy="326.167" r="2.5" fill="rgb(125,125,125)" />
	<circle cx="292.422" cy="254.699" r="2.5" fill="rgb(125,125,125)" />
	<circle cx="282.767" cy="317.383" r="2.5" fill="rgb(125,125,125)" />
	<circle cx="116.834" cy="338.774" r="2.5" fill="rgb(124,124,124)" />
	<circle cx="277.545" cy="384.241" r="2.5" fill="rgb(124,124,124)" />
	<circle cx="123.435" cy="120.179" r="2.5" fill="rgb(124,124,124)" />
	<circle cx="424.052" cy="282.425" r="2.5" fill="rgb(124,124,124)" />
	<circle cx="306.902" cy="304.97" r="2.5" fill="rgb(124,124,124)" />
	<circle cx="395.82" cy="279.149" r="2.5" fill="rgb(123,123,123)" />
	<circle cx="323.964" cy="349.314" r="2.5" fill="rgb(123,123,123)" />
	<circle cx="261.167" cy="120.844" r="2.5" fill="rgb(123,123,123)" />
	<circle cx="172.081" cy="341.915" r="2.5" fill="rgb(123,123,123)" />
	<circle cx="167.49" cy="145.634" r="2.5" fill="rgb(123,123,123)" />
	<circle cx="359.073" cy="196.714" r="2.5" fill="rgb(123,123,123)" />
	<circle cx="246.368" cy="115.336" r="2.5" fill="rgb(122,122,122)" />
	<circle cx="98.7081" cy="246.554" r="2.5" fill="rgb(122,122,122)" />
	<circle cx="127.789" cy="238.399" r="2.5" fill="rgb(122,122,122)" />
	<circle cx="343.687" cy="307.437" r="2.5" fill="rgb(122,122,122)" />
	<circle cx="56.4424" cy="269.788" r="2.5" fill="rgb(122,122,122)" />
	<circle cx="366.894" cy="284.012" r="2.5" fill="rgb(122,122,122)" />
	<circle cx="1.20816" cy="325.2" r="2.5" fill="rgb(122,122,122)" />
	<circle cx="60.2081" cy="93.1211" r="2.5" fill="rgb(122,122,122)" />
	<circle cx="211.138" cy="392.702" r="2.5" fill="rgb(121,121,121)" />
	<circle cx="207.887" cy="339.925" r="2.5" fill="rgb(121,121,121)" />
	<circle cx="282.016" cy="261.105" r="2.5" fill="rgb(121,121,121)" />
	<circle cx="230.421" cy="330.54" r="2.5" fill="rgb(121,121,121)" />
	<circle cx="143.983" cy="145.227" r="2.5" fill="rgb(120,120,120)" />
	<circle cx="165.519" cy="154.428" r="2.5" fill="rgb(120,120,120)" />
	<circle cx="333.286" cy="397.143" r="2.5" fill="rgb(120,120,120)" />
	<circle cx="75.7124" cy="289.567" r="2.5" fill="rgb(120,120,120)" />
	<circle cx="221.913" cy="379.234" r="2.5" fill="rgb(120,120,120)" />
	<circle cx="212.985" cy="324.003" r="2.5" fill="rgb(120,120,120)" />
	<circle cx="127.777" cy="245.379" r="2.5" fill="rgb(119,119,119)" />
	<circle cx="157.928" cy="380.678" r="2.5" fill="rgb(119,119,119)" />
	<circle cx="129.79" cy="230.807" r="2.5" fill="rgb(119,119,119)" />
	<circle cx="53.3013" cy="468.391" r="2.5" fill="rgb(119,119,119)" />
	<circle cx="247.212" cy="124.385" r="2.5" fill="rgb(119,119,119)" />
	<circle cx="283.687" cy="395.714" r="2.5" fill="rgb(119,119,119)" />
	<circle cx="430.641" cy="355.301" r="2.5" fill="rgb(118,118,118)" />
	<circle cx="271.574" cy="320.952" r="2.5" fill="rgb(118,118,118)" />
	<circle cx="357.203" cy="399.023" r="2.5" fill="rgb(118,118,118)" />
	<circle cx="404.699" cy="290.169" r="2.5" fill="rgb(117,117,117)" />
	<circle cx="408.206" cy="290.798" r="2.5" fill="rgb(117,117,117)" />
	<circle cx="72.3678" cy="216.47" r="2.5" fill="rgb(117,117,117)" />
	<circle cx="219.996" cy="206.219" r="2.5" fill="rgb(117,117,117)" />
	<circle cx="280.832" cy="333.187" r="2.5" fill="rgb(117,117,117)" />
	<circle cx="282.857" cy="322.614" r="2.5" fill="rgb(117,117,117)" />
	<circle cx="233.939" cy="427.443" r="2.5" fill="rgb(117,117,117)" />
	<circle cx="38.487" cy="374.544" r="2.5" fill="rgb(117,117,117)" />
	<circle cx="81.103" cy="98.8629" r="2.5" fill="rgb(117,117,117)" />
	<circle cx="343.095" cy="204.086" r="2.5" fill="rgb(117,117,117)" />
	<circle cx="141.555" cy="157.854" r="2.5" fill="rgb(116,116,116)" />
	<circle cx="255.789" cy="263.215" r="2.5" fill="rgb(116,116,116)" />
	<circle cx="246.101" cy="131.4" r="2.5" fill="rgb(116,116,116)" />
	<circle cx="349.235" cy="345.859" r="2.5" fill="rgb(115,115,115)" />
	<circle cx="353.482" cy="347.743" r="2.5" fill="rgb(115,115,115)" />
	<circle cx="159.611" cy="234.246" r="2.5" fill="rgb(114,114,114)" />
	<circle cx="352.993" cy="295.947" r="2.5" fill="rgb(114,114,114)" />
	<circle cx="332.384" cy="320.2" r="2.5" fill="rgb(114,114,114)" />
	<circle cx="334.159" cy="312.172" r="2.5" fill="rgb(114,114,114)" />
	<circle cx="94.9931" cy="104.19" r="2.5" fill="rgb(114,114,114)" />
	<circle cx="364.109" cy="215.41" r="2.5" fill="rgb(113,113,113)" />
	<circle cx="258.53" cy="389.813" r="2.5" fill="rgb(113,113,113)" />
	<circle cx="146.909" cy="398.467" r="2.5" fill="rgb(113,113,113)" />
	<circle cx="272.626" cy="249.899" r="2.5" fill="rgb(113,113,113)" />
	<circle cx="317.349" cy="408.221" r="2.5" fill="rgb(113,113,113)" />
	<circle cx="433.434" cy="363.256" r="2.5" fill="rgb(113,113,113)" />
	<circle cx="229.932" cy="131.633" r="2.5" fill="rgb(113,113,113)" />
	<circle cx="305.073" cy="384.747" r="2.5" fill="rgb(112,112,112)" />
	<circle cx="234.313" cy="385.458" r="2.5" fill="rgb(112,112,112)" />
	<circle cx="82.728" cy="237.317" r="2.5" fill="rgb(112,112,112)" />
	<circle cx="266.506" cy="440.824" r="2.5" fill="rgb(112,112,112)" />
	<circle cx="153.314" cy="407.902" r="2.5" fill="rgb(112,112,112)" />
	<circle cx="319.92" cy="390.731" r="2.5" fill="rgb(112,112,112)" />
	<circle cx="144.621" cy="112.557" r="2.5" fill="rgb(112,112,112)" />
	<circle cx="329.018" cy="422.662" r="2.5" fill="rgb(112,112,112)" />
	<circle cx="364.96" cy="408.583" r="2.5" fill="rgb(111,111,111)" />
	<circle cx="284.89" cy="488.625" r="2.5" fill="rgb(111,111,111)" />
	<circle cx="144.355" cy="114.351" r="2.5" fill="rgb(111,111,111)" />
	<circle cx="128.646" cy="259.61" r="2.5" fill="rgb(111,111,111)" />
	<circle cx="243.938" cy="273.24" r="2.5" fill="rgb(111,111,111)" />
	<circle cx="242.23" cy="233.336" r="2.5" fill="rgb(111,111,111)" />
	<circle cx="120.379" cy="192.375" r="2.5" fill="rgb(110,110,110)" />
	<circle cx="258.416" cy="272.481" r="2.5" fill="rgb(110,110,110)" />
	<circle cx="146.888" cy="468.648" r="2.5" fill="rgb(110,110,110)" />
	<circle cx="342.975" cy="385.525" r="2.5" fill="rgb(110,110,110)" />
	<circle cx="397.874" cy="301.623" r="2.5" fill="rgb(110,110,110)" />
	<circle cx="272.472" cy="269.363" r="2.5" fill="rgb(109,109,109)" />
	<circle cx="237.946" cy="144.289" r="2.5" fill="rgb(109,109,109)" />
	<circle cx="123.558" cy="206.934" r="2.5" fill="rgb(109,109,109)" />
	<circle cx="353.159" cy="221.423" r="2.5" fill="rgb(109,109,109)" />
	<circle cx="124.064" cy="117.149" r="2.5" fill="rgb(109,109,109)" />
	<circle cx="372.004" cy="460.479" r="2.5" fill="rgb(108,108,108)" />
	<circle cx="351.725" cy="359.071" r="2.5" fill="rgb(108,108,108)" />
	<circle cx="359.98" cy="388.805" r="2.5" fill="rgb(108,108,108)" />
	<circle cx="103.919" cy="120.422" r="2.5" fill="rgb(107,107,107)" />
	<circle cx="138.274" cy="125.785" r="2.5" fill="rgb(107,107,107)" />
	<circle cx="234.123" cy="399.519" r="2.5" fill="rgb(107,107,107)" />
	<circle cx="14.9747" cy="392.613" r="2.5" fill="rgb(106,106,106)" />
	<circle cx="189.022" cy="122.152" r="2.5" fill="rgb(106,106,106)" />
	<circle cx="214.191" cy="138.699" r="2.5" fill="rgb(106,106,106)" />
	<circle cx="406.343" cy="354.623" r="2.5" fill="rgb(106,106,106)" />
	<circle cx="389.646" cy="352.363" r="2.5" fill="rgb(106,106,106)" />
	<circle cx="188.342" cy="123.695" r="2.5" fill="rgb(106,106,106)" />
	<circle cx="357.623" cy="418.32" r="2.5" fill="rgb(106,106,106)" />
	<circle cx="405.34" cy="371.963" r="2.5" fill="rgb(105,105,105)" />
	<circle cx="309.756" cy="402.362" r="2.5" fill="rgb(105,105,105)" />
	<circle cx="128.112" cy="112.211" r="2.5" fill="rgb(105,105,105)" />
	<circle cx="227.726" cy="241.854" r="2.5" fill="rgb(105,105,105)" />
	<circle cx="349.46" cy="227.933" r="2.5" fill="rgb(105,105,105)" />
	<circle cx="412.437" cy="374.236" r="2.5" fill="rgb(105,105,105)" />
	<circle cx="239.382" cy="245.89" r="2.5" fill="rgb(105,105,105)" />
	<circle cx="123.591" cy="222.879" r="2.5" fill="rgb(104,104,104)" />
	<circle cx="120.279" cy="492.249" r="2.5" fill="rgb(103,103,103)" />
	<circle cx="208.654" cy="144.885" r="2.5" fill="rgb(103,103,103)" />
	<circle cx="124.83" cy="133.598" r="2.5" fill="rgb(103,103,103)" />
	<circle cx="227.657" cy="211.968" r="2.5" fill="rgb(102,102,102)" />
	<circle cx="188.564" cy="247.074" r="2.5" fill="rgb(101,101,101)" />
	<circle cx="72.727" cy="262.631" r="2.5" fill="rgb(101,101,101)" />
	<circle cx="332.064" cy="370.364" r="2.5" fill="rgb(101,101,101)" />
	<circle cx="469.109" cy="368.836" r="2.5" fill="rgb(100,100,100)" />
	<circle cx="427.33" cy="364.91" r="2.5" fill="rgb(100,100,100)" />
	<circle cx="389.297" cy="360.525" r="2.5" fill="rgb(100,100,100)" />
	<circle cx="183.486" cy="138.357" r="2.5" fill="rgb(100,100,100)" />
	<circle cx="233.736" cy="227.686" r="2.5" fill="rgb(100,100,100)" />
	<circle cx="328.346" cy="388.983" r="2.5" fill="rgb(100,100,100)" />
	<circle cx="332.566" cy="233.379" r="2.5" fill="rgb(100,100,100)" />
	<circle cx="233.311" cy="230.908" r="2.5" fill="rgb(99,99,99)" />
	<circle cx="182.543" cy="139.856" r="2.5" fill="rgb(99,99,99)" />
	<circle cx="147.318" cy="308.788" r="2.5" fill="rgb(99,99,99)" />
	<circle cx="345.518" cy="447.966" r="2.5" fill="rgb(98,98,98)" />
	<circle cx="356.551" cy="381.654" r="2.5" fill="rgb(98,98,98)" />
	<circle cx="216.441" cy="219.828" r="2.5" fill="rgb(98,98,98)" />
	<circle cx="390.837" cy="364.725" r="2.5" fill="rgb(98,98,98)" />
	<circle cx="303.549" cy="417.672" r="2.5" fill="rgb(97,97,97)" />
	<circle cx="306.884" cy="388.124" r="2.5" fill="rgb(97,97,97)" />
	<circle cx="192.031" cy="486.355" r="2.5" fill="rgb(97,97,97)" />
	<circle cx="324.37" cy="377.085" r="2.5" fill="rgb(97,97,97)" />
	<circle cx="213.156" cy="250.091" r="2.5" fill="rgb(96,96,96)" />
	<circle cx="84.7145" cy="342.961" r="2.5" fill="rgb(96,96,96)" />
	<circle cx="206.929" cy="221.832" r="2.5" fill="rgb(96,96,96)" />
	<circle cx="152.603" cy="436.336" r="2.5" fill="rgb(95,95,95)" />
	<circle cx="166.459" cy="435.505" r="2.5" fill="rgb(95,95,95)" />
	<circle cx="224.148" cy="236.441" r="2.5" fill="rgb(95,95,95)" />
	<circle cx="219.384" cy="264.348" r="2.5" fill="rgb(95,95,95)" />
	<circle cx="162.122" cy="281.4" r="2.5" fill="rgb(95,95,95)" />
	<circle cx="307.705" cy="233.522" r="2.5" fill="rgb(95,95,95)" />
	<circle cx="186.469" cy="154.787" r="2.5" fill="rgb(95,95,95)" />
	<circle cx="254.075" cy="289.195" r="2.5" fill="rgb(94,94,94)" />
	<circle cx="216.422" cy="477.103" r="2.5" fill="rgb(94,94,94)" />
	<circle cx="73.1461" cy="297.076" r="2.5" fill="rgb(94,94,94)" />
	<circle cx="205.739" cy="232.259" r="2.5" fill="rgb(94,94,94)" />
	<circle cx="136.357" cy="325.071" r="2.5" fill="rgb(94,94,94)" />
	<circle cx="257.609" cy="190.944" r="2.5" fill="rgb(93,93,93)" />
	<circle cx="132.255" cy="356.214" r="2.5" fill="rgb(93,93,93)" />
	<circle cx="117.462" cy="261.133" r="2.5" fill="rgb(93,93,93)" />
	<circle cx="376.365" cy="470.591" r="2.5" fill="rgb(93,93,93)" />
	<circle cx="99.3434" cy="245.798" r="2.5" fill="rgb(92,92,92)" />
	<circle cx="286.527" cy="493.787" r="2.5" fill="rgb(92,92,92)" />
	<circle cx="192.738" cy="441.591" r="2.5" fill="rgb(92,92,92)" />
	<circle cx="60.9878" cy="336.9" r="2.5" fill="rgb(92,92,92)" />
	<circle cx="329.933" cy="467.148" r="2.5" fill="rgb(92,92,92)" />
	<circle cx="187.211" cy="164.572" r="2.5" fill="rgb(92,92,92)" />
	<circle cx="438.53" cy="378.229" r="2.5" fill="rgb(92,92,92)" />
	<circle cx="390.526" cy="374.211" r="2.5" fill="rgb(91,91,91)" />
	<circle cx="66.2747" cy="340.138" r="2.5" fill="rgb(91,91,91)" />
	<circle cx="272.82" cy="233.395" r="2.5" fill="rgb(91,91,91)" />
	<circle cx="305.313" cy="240.586" r="2.5" fill="rgb(91,91,91)" />
	<circle cx="161.197" cy="447.887" r="2.5" fill="rgb(91,91,91)" />
	<circle cx="205.553" cy="274.507" r="2.5" fill="rgb(90,90,90)" />
	<circle cx="241.923" cy="296.235" r="2.5" fill="rgb(90,90,90)" />
	<circle cx="159.353" cy="252.662" r="2.5" fill="rgb(90,90,90)" />
	<circle cx="294.551" cy="426.495" r="2.5" fill="rgb(90,90,90)" />
	<circle cx="274.775" cy="398.979" r="2.5" fill="rgb(90,90,90)" />
	<circle cx="255.788" cy="301.405" r="2.5" fill="rgb(90,90,90)" />
	<circle cx="238.717" cy="191.783" r="2.5" fill="rgb(90,90,90)" />
	<circle cx="200.978" cy="243.581" r="2.5" fill="rgb(89,89,89)" />
	<circle cx="204.513" cy="489.263" r="2.5" fill="rgb(89,89,89)" />
	<circle cx="103.086" cy="271.561" r="2.5" fill="rgb(89,89,89)" />
	<circle cx="482.067" cy="415.285" r="2.5" fill="rgb(89,89,89)" />
	<circle cx="78.969" cy="258.165" r="2.5" fill="rgb(89,89,89)" />
	<circle cx="334.008" cy="392.275" r="2.5" fill="rgb(89,89,89)" />
	<circle cx="181.678" cy="171.566" r="2.5" fill="rgb(88,88,88)" />
	<circle cx="101.104" cy="260.568" r="2.5" fill="rgb(88,88,88)" />
	<circle cx="294.868" cy="243.596" r="2.5" fill="rgb(88,88,88)" />
	<circle cx="75.0088" cy="390.144" r="2.5" fill="rgb(88,88,88)" />
	<circle cx="267.464" cy="239.788" r="2.5" fill="rgb(88,88,88)" />
	<circle cx="251.864" cy="315.274" r="2.5" fill="rgb(87,87,87)" />
	<circle cx="213.56" cy="187.579" r="2.5" fill="rgb(87,87,87)" />
	<circle cx="241.961" cy="304.907" r="2.5" fill="rgb(87,87,87)" />
	<circle cx="345.741" cy="400.623" r="2.5" fill="rgb(87,87,87)" />
	<circle cx="165.008" cy="266.148" r="2.5" fill="rgb(87,87,87)" />
	<circle cx="17.1657" cy="393.092" r="2.5" fill="rgb(87,87,87)" />
	<circle cx="250.556" cy="308.707" r="2.5" fill="rgb(86,86,86)" />
	<circle cx="128.548" cy="233.657" r="2.5" fill="rgb(86,86,86)" />
	<circle cx="187.749" cy="457.235" r="2.5" fill="rgb(86,86,86)" />
	<circle cx="92.4573" cy="305.813" r="2.5" fill="rgb(85,85,85)" />
	<circle cx="369.734" cy="469.02" r="2.5" fill="rgb(85,85,85)" />
	<circle cx="66.5315" cy="318.625" r="2.5" fill="rgb(85,85,85)" />
	<circle cx="36.1392" cy="315.794" r="2.5" fill="rgb(85,85,85)" />
	<circle cx="233.736" cy="492.513" r="2.5" fill="rgb(84,84,84)" />
	<circle cx="46.7547" cy="414.735" r="2.5" fill="rgb(84,84,84)" />
	<circle cx="14.0613" cy="410.676" r="2.5" fill="rgb(84,84,84)" />
	<circle cx="281.808" cy="410.324" r="2.5" fill="rgb(84,84,84)" />
	<circle cx="487.981" cy="421.082" r="2.5" fill="rgb(84,84,84)" />
	<circle cx="15.1246" cy="282.443" r="2.5" fill="rgb(84,84,84)" />
	<circle cx="293.042" cy="252.563" r="2.5" fill="rgb(84,84,84)" />
	<circle cx="28.1089" cy="168.955" r="2.5" fill="rgb(84,84,84)" />
	<circle cx="391.802" cy="466.922" r="2.5" fill="rgb(84,84,84)" />
	<circle cx="229.168" cy="205.216" r="2.5" fill="rgb(83,83,83)" />
	<circle cx="489.845" cy="422.235" r="2.5" fill="rgb(83,83,83)" />
	<circle cx="445.111" cy="427.408" r="2.5" fill="rgb(83,83,83)" />
	<circle cx="84.6268" cy="196.093" r="2.5" fill="rgb(83,83,83)" />
	<circle cx="103.857" cy="282.442" r="2.5" fill="rgb(83,83,83)" />
	<circle cx="405.752" cy="388.007" r="2.5" fill="rgb(83,83,83)" />
	<circle cx="205.844" cy="196.971" r="2.5" fill="rgb(83,83,83)" />
	<circle cx="230.337" cy="453.087" r="2.5" fill="rgb(83,83,83)" />
	<circle cx="149.824" cy="347.32" r="2.5" fill="rgb(82,82,82)" />
	<circle cx="488.549" cy="423.431" r="2.5" fill="rgb(82,82,82)" />
	<circle cx="239.882" cy="318.38" r="2.5" fill="rgb(82,82,82)" />
	<circle cx="39.6454" cy="330.932" r="2.5" fill="rgb(82,82,82)" />
	<circle cx="162.006" cy="344.136" r="2.5" fill="rgb(82,82,82)" />
	<circle cx="220.994" cy="206.855" r="2.5" fill="rgb(81,81,81)" />
	<circle cx="82.8445" cy="310.258" r="2.5" fill="rgb(81,81,81)" />
	<circle cx="56.5404" cy="364.674" r="2.5" fill="rgb(81,81,81)" />
	<circle cx="46.181" cy="287.827" r="2.5" fill="rgb(80,80,80)" />
	<circle cx="422.952" cy="393.129" r="2.5" fill="rgb(80,80,80)" />
	<circle cx="24.9645" cy="178.249" r="2.5" fill="rgb(80,80,80)" />
	<circle cx="53.0004" cy="371.08" r="2.5" fill="rgb(79,79,79)" />
	<circle cx="288.958" cy="421.385" r="2.5" fill="rgb(79,79,79)" />
	<circle cx="335.125" cy="425.807" r="2.5" fill="rgb(78,78,78)" />
	<circle cx="310.796" cy="406.58" r="2.5" fill="rgb(78,78,78)" />
	<circle cx="253.799" cy="499.074" r="2.5" fill="rgb(78,78,78)" />
	<circle cx="130.891" cy="260.775" r="2.5" fill="rgb(78,78,78)" />
	<circle cx="236.084" cy="328.142" r="2.5" fill="rgb(78,78,78)" />
	<circle cx="213.242" cy="214.458" r="2.5" fill="rgb(78,78,78)" />
	<circle cx="341.846" cy="433.249" r="2.5" fill="rgb(77,77,77)" />
	<circle cx="435.061" cy="400.247" r="2.5" fill="rgb(77,77,77)" />
	<circle cx="50.9122" cy="264.884" r="2.5" fill="rgb(77,77,77)" />
	<circle cx="46.5651" cy="397.728" r="2.5" fill="rgb(77,77,77)" />
	<circle cx="66.4009" cy="293.987" r="2.5" fill="rgb(77,77,77)" />
	<circle cx="46.9139" cy="184.122" r="2.5" fill="rgb(76,76,76)" />
	<circle cx="490.322" cy="430.464" r="2.5" fill="rgb(76,76,76)" />
	<circle cx="148.879" cy="306.33" r="2.5" fill="rgb(76,76,76)" />
	<circle cx="89.7844" cy="277.863" r="2.5" fill="rgb(75,75,75)" />
	<circle cx="58.7495" cy="389.678" r="2.5" fill="rgb(75,75,75)" />
	<circle cx="67.1869" cy="331.994" r="2.5" fill="rgb(75,75,75)" />
	<circle cx="129.629" cy="272.887" r="2.5" fill="rgb(74,74,74)" />
	<circle cx="25.0346" cy="332.187" r="2.5" fill="rgb(74,74,74)" />
	<circle cx="406.701" cy="401.252" r="2.5" fill="rgb(74,74,74)" />
	<circle cx="359.684" cy="403.648" r="2.5" fill="rgb(74,74,74)" />
	<circle cx="263.276" cy="470.457" r="2.5" fill="rgb(74,74,74)" />
	<circle cx="341.486" cy="407.021" r="2.5" fill="rgb(73,73,73)" />
	<circle cx="152.621" cy="317.353" r="2.5" fill="rgb(73,73,73)" />
	<circle cx="181.772" cy="323.266" r="2.5" fill="rgb(73,73,73)" />
	<circle cx="214.661" cy="472.484" r="2.5" fill="rgb(73,73,73)" />
	<circle cx="427.174" cy="407.609" r="2.5" fill="rgb(71,71,71)" />
	<circle cx="161.966" cy="206.61" r="2.5" fill="rgb(71,71,71)" />
	<circle cx="13.9119" cy="342.323" r="2.5" fill="rgb(70,70,70)" />
	<circle cx="35.2549" cy="342.921" r="2.5" fill="rgb(70,70,70)" />
	<circle cx="122.541" cy="319.52" r="2.5" fill="rgb(70,70,70)" />
	<circle cx="162.007" cy="326.204" r="2.5" fill="rgb(70,70,70)" />
	<circle cx="61.5987" cy="200.764" r="2.5" fill="rgb(70,70,70)" />
	<circle cx="30.8833" cy="256.369" r="2.5" fill="rgb(70,70,70)" />
	<circle cx="364.084" cy="410.695" r="2.5" fill="rgb(70,70,70)" />
	<circle cx="22.7003" cy="357.957" r="2.5" fill="rgb(69,69,69)" />
	<circle cx="264.954" cy="481.904" r="2.5" fill="rgb(69,69,69)" />
	<circle cx="140.524" cy="329.061" r="2.5" fill="rgb(69,69,69)" />
	<circle cx="34.3203" cy="262.694" r="2.5" fill="rgb(68,68,68)" />
	<circle cx="295.726" cy="429.675" r="2.5" fill="rgb(67,67,67)" />
	<circle cx="176.133" cy="342.131" r="2.5" fill="rgb(67,67,67)" />
	<circle cx="159.671" cy="335.916" r="2.5" fill="rgb(67,67,67)" />
	<circle cx="55.5937" cy="282.41" r="2.5" fill="rgb(67,67,67)" />
	<circle cx="70.2424" cy="363.264" r="2.5" fill="rgb(66,66,66)" />
	<circle cx="30.2247" cy="211.643" r="2.5" fill="rgb(66,66,66)" />
	<circle cx="134.895" cy="338.538" r="2.5" fill="rgb(65,65,65)" />
	<circle cx="395.406" cy="414.225" r="2.5" fill="rgb(65,65,65)" />
	<circle cx="130.155" cy="213.783" r="2.5" fill="rgb(65,65,65)" />
	<circle cx="44.8164" cy="213.558" r="2.5" fill="rgb(65,65,65)" />
	<circle cx="26.0016" cy="341.598" r="2.5" fill="rgb(65,65,65)" />
	<circle cx="79.114" cy="372.467" r="2.5" fill="rgb(65,65,65)" />
	<circle cx="22.9517" cy="326.97" r="2.5" fill="rgb(64,64,64)" />
	<circle cx="33.3173" cy="274.834" r="2.5" fill="rgb(64,64,64)" />
	<circle cx="176.271" cy="352.012" r="2.5" fill="rgb(64,64,64)" />
	<circle cx="335.126" cy="446.618" r="2.5" fill="rgb(64,64,64)" />
	<circle cx="51.377" cy="297.036" r="2.5" fill="rgb(63,63,63)" />
	<circle cx="77.2526" cy="286.735" r="2.5" fill="rgb(63,63,63)" />
	<circle cx="458.281" cy="452.805" r="2.5" fill="rgb(63,63,63)" />
	<circle cx="149.415" cy="354.732" r="2.5" fill="rgb(61,61,61)" />
	<circle cx="47.7871" cy="353.753" r="2.5" fill="rgb(61,61,61)" />
	<circle cx="36.7587" cy="225.475" r="2.5" fill="rgb(61,61,61)" />
	<circle cx="117.031" cy="225.785" r="2.5" fill="rgb(60,60,60)" />
	<circle cx="388.17" cy="423.581" r="2.5" fill="rgb(59,59,59)" />
	<circle cx="417.882" cy="423.535" r="2.5" fill="rgb(58,58,58)" />
	<circle cx="151.544" cy="471.457" r="2.5" fill="rgb(57,57,57)" />
	<circle cx="280.46" cy="464.734" r="2.5" fill="rgb(56,56,56)" />
	<circle cx="102.451" cy="235.687" r="2.5" fill="rgb(56,56,56)" />
	<circle cx="176.092" cy="469.491" r="2.5" fill="rgb(55,55,55)" />
	<circle cx="409.655" cy="429.99" r="2.5" fill="rgb(54,54,54)" />
	<circle cx="451.43" cy="465.629" r="2.5" fill="rgb(53,53,53)" />
	<circle cx="455.312" cy="465.428" r="2.5" fill="rgb(53,53,53)" />
	<circle cx="415.894" cy="469.999" r="2.5" fill="rgb(53,53,53)" />
	<circle cx="103.425" cy="246.115" r="2.5" fill="rgb(52,52,52)" />
	<circle cx="415.592" cy="472.156" r="2.5" fill="rgb(52,52,52)" />
	<circle cx="191.033" cy="484.963" r="2.5" fill="rgb(51,51,51)" />
	<circle cx="416.786" cy="472.497" r="2.5" fill="rgb(51,51,51)" />
	<circle cx="235.459" cy="455.828" r="2.5" fill="rgb(50,50,50)" />
	<circle cx="39.164" cy="454.561" r="2.5" fill="rgb(50,50,50)" />
	<circle cx="407.449" cy="436.615" r="2.5" fill="rgb(49,49,49)" />
	<circle cx="406.686" cy="436.597" r="2.5" fill="rgb(49,49,49)" />
	<circle cx="278.926" cy="481.061" r="2.5" fill="rgb(49,49,49)" />
	<circle cx="356.716" cy="486.799" r="2.5" fill="rgb(48,48,48)" />
	<circle cx="107.603" cy="261.595" r="2.5" fill="rgb(48,48,48)" />
	<circle cx="397.218" cy="439.219" r="2.5" fill="rgb(48,48,48)" />
	<circle cx="86.6241" cy="409.223" r="2.5" fill="rgb(47,47,47)" />
	<circle cx="255.883" cy="461.023" r="2.5" fill="rgb(46,46,46)" />
	<circle cx="449.709" cy="475.875" r="2.5" fill="rgb(45,45,45)" />
	<circle cx="191.876" cy="492.711" r="2.5" fill="rgb(44,44,44)" />
	<circle cx="134.339" cy="406.828" r="2.5" fill="rgb(44,44,44)" />
	<circle cx="101.835" cy="272.743" r="2.5" fill="rgb(44,44,44)" />
	<circle cx="402.927" cy="482.789" r="2.5" fill="rgb(44,44,44)" />
	<circle cx="359.744" cy="498.766" r="2.5" fill="rgb(43,43,43)" />
	<circle cx="17.5591" cy="266.369" r="2.5" fill="rgb(43,43,43)" />
	<circle cx="36.4981" cy="271.459" r="2.5" fill="rgb(43,43,43)" />
	<circle cx="289.276" cy="482.327" r="2.5" fill="rgb(42,42,42)" />
	<circle cx="172.728" cy="415.744" r="2.5" fill="rgb(41,41,41)" />
	<circle cx="73.7318" cy="274.043" r="2.5" fill="rgb(41,41,41)" />
	<circle cx="408.482" cy="486.404" r="2.5" fill="rgb(41,41,41)" />
	<circle cx="389.362" cy="450.222" r="2.5" fill="rgb(41,41,41)" />
	<circle cx="50.8341" cy="492.443" r="2.5" fill="rgb(40,40,40)" />
	<circle cx="156.276" cy="417.641" r="2.5" fill="rgb(40,40,40)" />
	<circle cx="99.1206" cy="458.301" r="2.5" fill="rgb(40,40,40)" />
	<circle cx="103.833" cy="462.882" r="2.5" fill="rgb(40,40,40)" />
	<circle cx="315.75" cy="453.23" r="2.5" fill="rgb(40,40,40)" />
	<circle cx="210.236" cy="412.79" r="2.5" fill="rgb(40,40,40)" />
	<circle cx="400.409" cy="491.1" r="2.5" fill="rgb(40,40,40)" />
	<circle cx="90.6949" cy="284.79" r="2.5" fill="rgb(39,39,39)" />
	<circle cx="106.001" cy="459.855" r="2.5" fill="rgb(39,39,39)" />
	<circle cx="259.389" cy="475.798" r="2.5" fill="rgb(39,39,39)" />
	<circle cx="2.99001" cy="278.159" r="2.5" fill="rgb(39,39,39)" />
	<circle cx="62.9309" cy="279.434" r="2.5" fill="rgb(38,38,38)" />
	<circle cx="36.2043" cy="275.198" r="2.5" fill="rgb(38,38,38)" />
	<circle cx="27.8275" cy="283.966" r="2.5" fill="rgb(38,38,38)" />
	<circle cx="58.7067" cy="482.643" r="2.5" fill="rgb(38,38,38)" />
	<circle cx="35.4979" cy="286.152" r="2.5" fill="rgb(38,38,38)" />
	<circle cx="330.439" cy="454.264" r="2.5" fill="rgb(38,38,38)" />
	<circle cx="173.344" cy="425.335" r="2.5" fill="rgb(37,37,37)" />
	<circle cx="8.00716" cy="404.784" r="2.5" fill="rgb(37,37,37)" />
	<circle cx="67.8152" cy="287.919" r="2.5" fill="rgb(36,36,36)" />
	<circle cx="162.461" cy="429.674" r="2.5" fill="rgb(36,36,36)" />
	<circle cx="284.032" cy="494.109" r="2.5" fill="rgb(36,36,36)" />
	<circle cx="83.0958" cy="491.773" r="2.5" fill="rgb(36,36,36)" />
	<circle cx="376.828" cy="483.322" r="2.5" fill="rgb(35,35,35)" />
	<circle cx="30.6442" cy="355.375" r="2.5" fill="rgb(35,35,35)" />
	<circle cx="47.9358" cy="382.406" r="2.5" fill="rgb(35,35,35)" />
	<circle cx="6.85313" cy="481.187" r="2.5" fill="rgb(35,35,35)" />
	<circle cx="435.867" cy="489.663" r="2.5" fill="rgb(35,35,35)" />
	<circle cx="144.465" cy="432.933" r="2.5" fill="rgb(35,35,35)" />
	<circle cx="191.671" cy="425" r="2.5" fill="rgb(34,34,34)" />
	<circle cx="103.382" cy="478.549" r="2.5" fill="rgb(34,34,34)" />
	<circle cx="43.9628" cy="344.652" r="2.5" fill="rgb(34,34,34)" />
	<circle cx="65.7881" cy="294.495" r="2.5" fill="rgb(34,34,34)" />
	<circle cx="331.538" cy="497.307" r="2.5" fill="rgb(33,33,33)" />
	<circle cx="51.7251" cy="294.482" r="2.5" fill="rgb(33,33,33)" />
	<circle cx="11.9509" cy="298.247" r="2.5" fill="rgb(33,33,33)" />
	<circle cx="144.879" cy="465.119" r="2.5" fill="rgb(33,33,33)" />
	<circle cx="45.9457" cy="395.669" r="2.5" fill="rgb(32,32,32)" />
	<circle cx="342.133" cy="463.406" r="2.5" fill="rgb(32,32,32)" />
	<circle cx="105.525" cy="308.676" r="2.5" fill="rgb(32,32,32)" />
	<circle cx="20.8187" cy="375.65" r="2.5" fill="rgb(31,31,31)" />
	<circle cx="171.309" cy="448.756" r="2.5" fill="rgb(31,31,31)" />
	<circle cx="167.771" cy="445.524" r="2.5" fill="rgb(31,31,31)" />
	<circle cx="230.013" cy="432.776" r="2.5" fill="rgb(30,30,30)" />
	<circle cx="149.144" cy="449.445" r="2.5" fill="rgb(29,29,29)" />
	<circle cx="210.957" cy="438.332" r="2.5" fill="rgb(29,29,29)" />
	<circle cx="126.161" cy="453.507" r="2.5" fill="rgb(29,29,29)" />
	<circle cx="94.2246" cy="462.237" r="2.5" fill="rgb(28,28,28)" />
	<circle cx="63.2178" cy="312.177" r="2.5" fill="rgb(28,28,28)" />
	<circle cx="172.473" cy="466.434" r="2.5" fill="rgb(28,28,28)" />
	<circle cx="9.04263" cy="388.119" r="2.5" fill="rgb(28,28,28)" />
	<circle cx="30.2719" cy="368.406" r="2.5" fill="rgb(28,28,28)" />
	<circle cx="374.027" cy="494.776" r="2.5" fill="rgb(28,28,28)" />
	<circle cx="307.807" cy="471.83" r="2.5" fill="rgb(28,28,28)" />
	<circle cx="147.277" cy="465.401" r="2.5" fill="rgb(26,26,26)" />
	<circle cx="169.265" cy="462.927" r="2.5" fill="rgb(26,26,26)" />
	<circle cx="0.450654" cy="326.867" r="2.5" fill="rgb(26,26,26)" />
	<circle cx="98.6834" cy="321.722" r="2.5" fill="rgb(26,26,26)" />
	<circle cx="83.2368" cy="325.42" r="2.5" fill="rgb(25,25,25)" />
	<circle cx="227.598" cy="445.311" r="2.5" fill="rgb(25,25,25)" />
	<circle cx="304.427" cy="476.752" r="2.5" fill="rgb(25,25,25)" />
	<circle cx="32.015" cy="482.835" r="2.5" fill="rgb(25,25,25)" />
	<circle cx="23.6355" cy="496.902" r="2.5" fill="rgb(25,25,25)" />
	<circle cx="8.4844" cy="440.432" r="2.5" fill="rgb(24,24,24)" />
	<circle cx="12.6704" cy="415.169" r="2.5" fill="rgb(24,24,24)" />
	<circle cx="310.794" cy="479.475" r="2.5" fill="rgb(23,23,23)" />
	<circle cx="198.777" cy="450.548" r="2.5" fill="rgb(23,23,23)" />
	<circle cx="137.215" cy="471.51" r="2.5" fill="rgb(22,22,22)" />
	<circle cx="22.6484" cy="383.762" r="2.5" fill="rgb(22,22,22)" />
	<circle cx="13.0542" cy="470.486" r="2.5" fill="rgb(22,22,22)" />
	<circle cx="111.661" cy="418.424" r="2.5" fill="rgb(21,21,21)" />
	<circle cx="81.9232" cy="334.619" r="2.5" fill="rgb(21,21,21)" />
	<circle cx="87.3527" cy="434.536" r="2.5" fill="rgb(21,21,21)" />
	<circle cx="62.3365" cy="464.621" r="2.5" fill="rgb(20,20,20)" />
	<circle cx="113.03" cy="423.512" r="2.5" fill="rgb(20,20,20)" />
	<circle cx="76.9018" cy="345.406" r="2.5" fill="rgb(19,19,19)" />
	<circle cx="95.1954" cy="343.924" r="2.5" fill="rgb(19,19,19)" />
	<circle cx="301.086" cy="487.987" r="2.5" fill="rgb(19,19,19)" />
	<circle cx="48.3751" cy="455.909" r="2.5" fill="rgb(19,19,19)" />
	<circle cx="106.893" cy="350.483" r="2.5" fill="rgb(19,19,19)" />
	<circle cx="95.0335" cy="490.764" r="2.5" fill="rgb(18,18,18)" />
	<circle cx="78.769" cy="345.885" r="2.5" fill="rgb(18,18,18)" />
	<circle cx="52.9003" cy="475.45" r="2.5" fill="rgb(18,18,18)" />
	<circle cx="32.4432" cy="386.18" r="2.5" fill="rgb(18,18,18)" />
	<circle cx="195.921" cy="464.01" r="2.5" fill="rgb(18,18,18)" />
	<circle cx="145.243" cy="375.546" r="2.5" fill="rgb(17,17,17)" />
	<circle cx="75.4354" cy="419.841" r="2.5" fill="rgb(17,17,17)" />
	<circle cx="19.1592" cy="406.363" r="2.5" fill="rgb(17,17,17)" />
	<circle cx="94.949" cy="436.718" r="2.5" fill="rgb(16,16,16)" />
	<circle cx="171.502" cy="477.203" r="2.5" fill="rgb(16,16,16)" />
	<circle cx="34.9455" cy="492.007" r="2.5" fill="rgb(14,14,14)" />
	<circle cx="100.885" cy="365.635" r="2.5" fill="rgb(14,14,14)" />
	<circle cx="20.6217" cy="421.017" r="2.5" fill="rgb(14,14,14)" />
	<circle cx="2.68332" cy="408.737" r="2.5" fill="rgb(14,14,14)" />
	<circle cx="4.41975" cy="430.402" r="2.5" fill="rgb(14,14,14)" />
	<circle cx="143.448" cy="388.104" r="2.5" fill="rgb(13,13,13)" />
	<circle cx="85.1517" cy="365.828" r="2.5" fill="rgb(13,13,13)" />
	<circle cx="27.9823" cy="427.608" r="2.5" fill="rgb(13,13,13)" />
	<circle cx="207.255" cy="475.471" r="2.5" fill="rgb(12,12,12)" />
	<circle cx="89.5206" cy="368.599" r="2.5" fill="rgb(12,12,12)" />
	<circle cx="37.1606" cy="462.431" r="2.5" fill="rgb(12,12,12)" />
	<circle cx="46.2512" cy="388.691" r="2.5" fill="rgb(11,11,11)" />
	<circle cx="106.499" cy="499.982" r="2.5" fill="rgb(11,11,11)" />
	<circle cx="12.5824" cy="444.703" r="2.5" fill="rgb(9,9,9)" />
	<circle cx="24.7973" cy="443.944" r="2.5" fill="rgb(9,9,9)" />
	<circle cx="90.4289" cy="380.638" r="2.5" fill="rgb(9,9,9)" />
	<circle cx="21.3359" cy="446.934" r="2.5" fill="rgb(9,9,9)" />
	<circle cx="28.3577" cy="481.971" r="2.5" fill="rgb(8,8,8)" />
	<circle cx="72.1896" cy="384.573" r="2.5" fill="rgb(8,8,8)" />
	<circle cx="26.4476" cy="452.79" r="2.5" fill="rgb(8,8,8)" />
	<circle cx="20.7355" cy="415.726" r="2.5" fill="rgb(8,8,8)" />
	<circle cx="25.5581" cy="405.17" r="2.5" fill="rgb(7,7,7)" />
	<circle cx="41.4276" cy="414.004" r="2.5" fill="rgb(5,5,5)" />
	<circle cx="160.319" cy="496.542" r="2.5" fill="rgb(5,5,5)" />
	<circle cx="83.9026" cy="399.482" r="2.5" fill="rgb(4,4,4)" />
	<circle cx="46.1285" cy="404.401" r="2.5" fill="rgb(4,4,4)" />
	<circle cx="14.867" cy="472.876" r="2.5" fill="rgb(4,4,4)" />
	<circle cx="33.2915" cy="427.679" r="2.5" fill="rgb(3,3,3)" />
	<circle cx="83.3333" cy="416.667" r="2" fill="rgb(255,0,0)" />
	<circle cx="416.667" cy="83.3333" r="2" fill="rgb(0,255,0)" />
	<circle cx="83.3333" cy="416.667" r="2" fill="rgb(0,255,0)" />
	<circle cx="67.7397" cy="391.897" r="2" fill="rgb(0,255,0)" />
	<circle cx="86.8343" cy="377.526" r="2" fill="rgb(0,255,0)" />
	<circle cx="4.64812" cy="373.979" r="2" fill="rgb(0,255,0)" />
	<circle cx="27.8489" cy="356.858" r="2" fill="rgb(0,255,0)" />
	<circle cx="41.4814" cy="336.378" r="2" fill="rgb(0,255,0)" />
	<circle cx="55.9149" cy="327.906" r="2" fill="rgb(0,255,0)" />
	<circle cx="60.5579" cy="314.638" r="2" fill="rgb(0,255,0)" />
	<circle cx="78.6983" cy="306.01" r="2" fill="rgb(0,255,0)" />
	<circle cx="77.6106" cy="283.548" r="2" fill="rgb(0,255,0)" />
	<circle cx="72.3592" cy="269.673" r="2" fill="rgb(0,255,0)" />
	<circle cx="68.5815" cy="258.547" r="2" fill="rgb(0,255,0)" />
	<circle cx="80.0719" cy="242.63" r="2" fill="rgb(0,255,0)" />
	<circle cx="78.8417" cy="228.499" r="2" fill="rgb(0,255,0)" />
	<circle cx="117.909" cy="222.892" r="2" fill="rgb(0,255,0)" />
	<circle cx="125.824" cy="215.265" r="2" fill="rgb(0,255,0)" />
	<circle cx="199.384" cy="237.648" r="2" fill="rgb(0,255,0)" />
	<circle cx="217.481" cy="226.409" r="2" fill="rgb(0,255,0)" />
	<circle cx="263.67" cy="230.849" r="2" fill="rgb(0,255,0)" />
	<circle cx="340.954" cy="253.318" r="2" fill="rgb(0,255,0)" />
	<circle cx="357.537" cy="244.306" r="2" fill="rgb(0,255,0)" />
	<circle cx="364.808" cy="231.245" r="2" fill="rgb(0,255,0)" />
	<circle cx="381.257" cy="228.299" r="2" fill="rgb(0,255,0)" />
	<circle cx="383.834" cy="216.931" r="2" fill="rgb(0,255,0)" />
	<circle cx="390.157" cy="209.205" r="2" fill="rgb(0,255,0)" />
	<circle cx="389.66" cy="201.555" r="2" fill="rgb(0,255,0)" />
	<circle cx="396.682" cy="190.515" r="2" fill="rgb(0,255,0)" />
	<circle cx="386.762" cy="175.272" r="2" fill="rgb(0,255,0)" />
	<circle cx="387.12" cy="164.36" r="2" fill="rgb(0,255,0)" />
	<circle cx="411.489" cy="157.063" r="2" fill="rgb(0,255,0)" />
	<circle cx="413.78" cy="141.781" r="2" fill="rgb(0,255,0)" />
	<circle cx="427.916" cy="132.752" r="2" fill="rgb(0,255,0)" />
	<circle cx="423.397" cy="120.449" r="2" fill="rgb(0,255,0)" />
	<circle cx="418.116" cy="102.639" r="2" fill="rgb(0,255,0)" />
	<circle cx="411.607" cy="85.1578" r="2" fill="rgb(0,255,0)" />
</svg>
