<?xml version="1.0" standalone="no" ?>
<!DOCTYPE svg PUBLIC "-//W3C//DTD SVG 1.1//EN" "http://www.w3.org/Graphics/SVG/1.1/DTD/svg11.dtd">
<svg width="500px" height="500px" xmlns="http://www.w3.org/2000/svg" version="1.1" >
	<circle cx="389.401" cy="104.613" r="2.5" fill="rgb(255,255,255)" />
	<circle cx="446.814" cy="89.1776" r="2.5" fill="rgb(254,254,254)" />
	<circle cx="418.041" cy="101.113" r="2.5" fill="rgb(251,251,251)" />
	<circle cx="385.301" cy="263.059" r="2.5" fill="rgb(248,248,248)" />
	<circle cx="423.433" cy="109.368" r="2.5" fill="rgb(245,245,245)" />
	<circle cx="438.797" cy="107.401" r="2.5" fill="rgb(244,244,244)" />
	<circle cx="447.574" cy="227.941" r="2.5" fill="rgb(242,242,242)" />
	<circle cx="429.303" cy="125.289" r="2.5" fill="rgb(234,234,234)" />
	<circle cx="430.463" cy="138.221" r="2.5" fill="rgb(225,225,225)" />
	<circle cx="427.332" cy="149.51" r="2.5" fill="rgb(217,217,217)" />
	<circle cx="430.355" cy="150.99" r="2.5" fill="rgb(216,216,216)" />
	<circle cx="203.587" cy="100.429" r="2.5" fill="rgb(210,210,210)" />
	<circle cx="199.05" cy="109.019" r="2.5" fill="rgb(204,204,204)" />
	<circle cx="436.877" cy="166.546" r="2.5" fill="rgb(204,204,204)" />
	<circle cx="180.297" cy="101.272" r="2.5" fill="rgb(203,203,203)" />
	<circle cx="430.217" cy="269.29" r="2.5" fill="rgb(201,201,201)" />
	<circle cx="477.404" cy="180.302" r="2.5" fill="rgb(200,200,200)" />
	<circle cx="422.766" cy="177.912" r="2.5" fill="rgb(195,195,195)" />
	<circle cx="165.623" cy="109.634" r="2.5" fill="rgb(195,195,195)" />
	<circle cx="376.414" cy="174.817" r="2.5" fill="rgb(194,194,194)" />
	<circle cx="471.847" cy="190.587" r="2.5" fill="rgb(194,194,194)" />
	<circle cx="279.837" cy="153.238" r="2.5" fill="rgb(191,191,191)" />
	<circle cx="400.435" cy="183.911" r="2.5" fill="rgb(188,188,188)" />
	<circle cx="341.753" cy="210.798" r="2.5" fill="rgb(188,188,188)" />
	<circle cx="244.451" cy="144.645" r="2.5" fill="rgb(186,186,186)" />
	<circle cx="269.82" cy="158.098" r="2.5" fill="rgb(185,185,185)" />
	<circle cx="164.065" cy="233.935" r="2.5" fill="rgb(183,183,183)" />
	<circle cx="407.213" cy="192.394" r="2.5" fill="rgb(182,182,182)" />
	<circle cx="170.116" cy="162.712" r="2.5" fill="rgb(182,182,182)" />
	<circle cx="480.312" cy="206.44" r="2.5" fill="rgb(182,182,182)" />
	<circle cx="315.814" cy="243.289" r="2.5" fill="rgb(181,181,181)" />
	<circle cx="145.325" cy="133.236" r="2.5" fill="rgb(178,178,178)" />
	<circle cx="260.913" cy="167.087" r="2.5" fill="rgb(178,178,178)" />
	<circle cx="98.2553" cy="124.555" r="2.5" fill="rgb(177,177,177)" />
	<circle cx="314.2" cy="192.724" r="2.5" fill="rgb(176,176,176)" />
	<circle cx="179.341" cy="170.114" r="2.5" fill="rgb(174,174,174)" />
	<circle cx="149.02" cy="160.51" r="2.5" fill="rgb(173,173,173)" />
	<circle cx="256.207" cy="239.598" r="2.5" fill="rgb(173,173,173)" />
	<circle cx="19.821" cy="319.128" r="2.5" fill="rgb(173,173,173)" />
	<circle cx="421.154" cy="207.594" r="2.5" fill="rgb(172,172,172)" />
	<circle cx="260.025" cy="178.412" r="2.5" fill="rgb(171,171,171)" />
	<circle cx="99.3114" cy="138.311" r="2.5" fill="rgb(171,171,171)" />
	<circle cx="212.386" cy="298.59" r="2.5" fill="rgb(170,170,170)" />
	<circle cx="206.857" cy="164.025" r="2.5" fill="rgb(169,169,169)" />
	<circle cx="54.2206" cy="143.57" r="2.5" fill="rgb(169,169,169)" />
	<circle cx="317.849" cy="204.64" r="2.5" fill="rgb(169,169,169)" />
	<circle cx="127.225" cy="232.607" r="2.5" fill="rgb(169,169,169)" />
	<circle cx="114.573" cy="219.584" r="2.5" fill="rgb(167,167,167)" />
	<circle cx="162.359" cy="180.049" r="2.5" fill="rgb(165,165,165)" />
	<circle cx="286.816" cy="263.171" r="2.5" fill="rgb(165,165,165)" />
	<circle cx="70.4366" cy="150.456" r="2.5" fill="rgb(164,164,164)" />
	<circle cx="142.626" cy="288.715" r="2.5" fill="rgb(164,164,164)" />
	<circle cx="377.636" cy="205.72" r="2.5" fill="rgb(164,164,164)" />
	<circle cx="274.25" cy="196.862" r="2.5" fill="rgb(163,163,163)" />
	<circle cx="317.711" cy="259.748" r="2.5" fill="rgb(163,163,163)" />
	<circle cx="39.7895" cy="157.395" r="2.5" fill="rgb(163,163,163)" />
	<circle cx="289.295" cy="356.251" r="2.5" fill="rgb(161,161,161)" />
	<circle cx="223.466" cy="187.117" r="2.5" fill="rgb(161,161,161)" />
	<circle cx="152.396" cy="258.545" r="2.5" fill="rgb(159,159,159)" />
	<circle cx="162.533" cy="264.383" r="2.5" fill="rgb(158,158,158)" />
	<circle cx="376.426" cy="214.457" r="2.5" fill="rgb(158,158,158)" />
	<circle cx="64.2361" cy="163.808" r="2.5" fill="rgb(158,158,158)" />
	<circle cx="387.656" cy="328.481" r="2.5" fill="rgb(157,157,157)" />
	<circle cx="32.4489" cy="171.809" r="2.5" fill="rgb(156,156,156)" />
	<circle cx="43.4363" cy="169.027" r="2.5" fill="rgb(156,156,156)" />
	<circle cx="128.171" cy="241.221" r="2.5" fill="rgb(155,155,155)" />
	<circle cx="262.91" cy="207.062" r="2.5" fill="rgb(155,155,155)" />
	<circle cx="477.925" cy="332.221" r="2.5" fill="rgb(155,155,155)" />
	<circle cx="257.968" cy="268.718" r="2.5" fill="rgb(154,154,154)" />
	<circle cx="144.121" cy="274.362" r="2.5" fill="rgb(154,154,154)" />
	<circle cx="490.506" cy="334.825" r="2.5" fill="rgb(154,154,154)" />
	<circle cx="281.494" cy="281.078" r="2.5" fill="rgb(153,153,153)" />
	<circle cx="370.87" cy="347.8" r="2.5" fill="rgb(153,153,153)" />
	<circle cx="377.246" cy="378.437" r="2.5" fill="rgb(152,152,152)" />
	<circle cx="280.56" cy="238.379" r="2.5" fill="rgb(152,152,152)" />
	<circle cx="55.777" cy="175.521" r="2.5" fill="rgb(152,152,152)" />
	<circle cx="139.211" cy="179.589" r="2.5" fill="rgb(150,150,150)" />
	<circle cx="234.045" cy="223.328" r="2.5" fill="rgb(149,149,149)" />
	<circle cx="172.534" cy="240.791" r="2.5" fill="rgb(149,149,149)" />
	<circle cx="146.803" cy="195.818" r="2.5" fill="rgb(149,149,149)" />
	<circle cx="61.2773" cy="183.65" r="2.5" fill="rgb(148,148,148)" />
	<circle cx="348.199" cy="221.417" r="2.5" fill="rgb(147,147,147)" />
	<circle cx="102.199" cy="247.88" r="2.5" fill="rgb(147,147,147)" />
	<circle cx="103.313" cy="242.133" r="2.5" fill="rgb(147,147,147)" />
	<circle cx="481.645" cy="340.15" r="2.5" fill="rgb(147,147,147)" />
	<circle cx="276.969" cy="374.04" r="2.5" fill="rgb(146,146,146)" />
	<circle cx="389.322" cy="341.064" r="2.5" fill="rgb(145,145,145)" />
	<circle cx="129.127" cy="190.073" r="2.5" fill="rgb(145,145,145)" />
	<circle cx="147.135" cy="224.574" r="2.5" fill="rgb(145,145,145)" />
	<circle cx="453.626" cy="339.352" r="2.5" fill="rgb(144,144,144)" />
	<circle cx="200.087" cy="224.087" r="2.5" fill="rgb(141,141,141)" />
	<circle cx="206.351" cy="229.39" r="2.5" fill="rgb(140,140,140)" />
	<circle cx="118.635" cy="198.73" r="2.5" fill="rgb(140,140,140)" />
	<circle cx="230.175" cy="467.729" r="2.5" fill="rgb(140,140,140)" />
	<circle cx="342.999" cy="230.517" r="2.5" fill="rgb(140,140,140)" />
	<circle cx="271.2" cy="231.627" r="2.5" fill="rgb(140,140,140)" />
	<circle cx="344.571" cy="366.795" r="2.5" fill="rgb(139,139,139)" />
	<circle cx="286.99" cy="384.024" r="2.5" fill="rgb(139,139,139)" />
	<circle cx="273.487" cy="271.433" r="2.5" fill="rgb(138,138,138)" />
	<circle cx="201.876" cy="285.579" r="2.5" fill="rgb(137,137,137)" />
	<circle cx="145.97" cy="215.285" r="2.5" fill="rgb(136,136,136)" />
	<circle cx="457.6" cy="349.904" r="2.5" fill="rgb(134,134,134)" />
	<circle cx="179.232" cy="232.593" r="2.5" fill="rgb(134,134,134)" />
	<circle cx="353.674" cy="244.645" r="2.5" fill="rgb(132,132,132)" />
	<circle cx="316.572" cy="393.881" r="2.5" fill="rgb(131,131,131)" />
	<circle cx="322.411" cy="372.122" r="2.5" fill="rgb(131,131,131)" />
	<circle cx="114.441" cy="216.711" r="2.5" fill="rgb(130,130,130)" />
	<circle cx="342.021" cy="379.708" r="2.5" fill="rgb(128,128,128)" />
	<circle cx="191.557" cy="307.529" r="2.5" fill="rgb(128,128,128)" />
	<circle cx="47.4455" cy="326.913" r="2.5" fill="rgb(127,127,127)" />
	<circle cx="144.524" cy="232.959" r="2.5" fill="rgb(127,127,127)" />
	<circle cx="40.5172" cy="327.246" r="2.5" fill="rgb(127,127,127)" />
	<circle cx="232.366" cy="365.263" r="2.5" fill="rgb(123,123,123)" />
	<circle cx="124.274" cy="235.054" r="2.5" fill="rgb(123,123,123)" />
	<circle cx="259.698" cy="252.263" r="2.5" fill="rgb(122,122,122)" />
	<circle cx="344.889" cy="257.331" r="2.5" fill="rgb(121,121,121)" />
	<circle cx="418.442" cy="357.185" r="2.5" fill="rgb(121,121,121)" />
	<circle cx="19.8124" cy="345.098" r="2.5" fill="rgb(119,119,119)" />
	<circle cx="128.466" cy="246.309" r="2.5" fill="rgb(119,119,119)" />
	<circle cx="397.498" cy="470.721" r="2.5" fill="rgb(116,116,116)" />
	<circle cx="209.408" cy="281.415" r="2.5" fill="rgb(113,113,113)" />
	<circle cx="343.219" cy="268.806" r="2.5" fill="rgb(113,113,113)" />
	<circle cx="420.83" cy="365.219" r="2.5" fill="rgb(113,113,113)" />
	<circle cx="111.379" cy="257.423" r="2.5" fill="rgb(112,112,112)" />
	<circle cx="55.8227" cy="355.387" r="2.5" fill="rgb(110,110,110)" />
	<circle cx="124.496" cy="267.028" r="2.5" fill="rgb(109,109,109)" />
	<circle cx="331.038" cy="387.73" r="2.5" fill="rgb(109,109,109)" />
	<circle cx="58.4752" cy="310.698" r="2.5" fill="rgb(108,108,108)" />
	<circle cx="378.922" cy="484.268" r="2.5" fill="rgb(108,108,108)" />
	<circle cx="330.355" cy="279.166" r="2.5" fill="rgb(104,104,104)" />
	<circle cx="118.658" cy="278.005" r="2.5" fill="rgb(104,104,104)" />
	<circle cx="403.958" cy="482.208" r="2.5" fill="rgb(103,103,103)" />
	<circle cx="386.295" cy="496.237" r="2.5" fill="rgb(102,102,102)" />
	<circle cx="463.455" cy="381.981" r="2.5" fill="rgb(100,100,100)" />
	<circle cx="410.817" cy="377.57" r="2.5" fill="rgb(100,100,100)" />
	<circle cx="375.977" cy="380.289" r="2.5" fill="rgb(100,100,100)" />
	<circle cx="224.323" cy="279.926" r="2.5" fill="rgb(99,99,99)" />
	<circle cx="324.025" cy="285.236" r="2.5" fill="rgb(99,99,99)" />
	<circle cx="315.15" cy="284.524" r="2.5" fill="rgb(98,98,98)" />
	<circle cx="201.275" cy="277.606" r="2.5" fill="rgb(98,98,98)" />
	<circle cx="239.373" cy="285.585" r="2.5" fill="rgb(97,97,97)" />
	<circle cx="83.8296" cy="304.394" r="2.5" fill="rgb(97,97,97)" />
	<circle cx="246.609" cy="332.151" r="2.5" fill="rgb(95,95,95)" />
	<circle cx="439.593" cy="483.299" r="2.5" fill="rgb(95,95,95)" />
	<circle cx="398.345" cy="385.149" r="2.5" fill="rgb(94,94,94)" />
	<circle cx="213.267" cy="293.146" r="2.5" fill="rgb(91,91,91)" />
	<circle cx="309.997" cy="294.143" r="2.5" fill="rgb(91,91,91)" />
	<circle cx="184.275" cy="283.644" r="2.5" fill="rgb(89,89,89)" />
	<circle cx="118.326" cy="419.508" r="2.5" fill="rgb(89,89,89)" />
	<circle cx="427.247" cy="389.905" r="2.5" fill="rgb(89,89,89)" />
	<circle cx="235.739" cy="342.344" r="2.5" fill="rgb(88,88,88)" />
	<circle cx="433.397" cy="490.255" r="2.5" fill="rgb(88,88,88)" />
	<circle cx="421.3" cy="390.929" r="2.5" fill="rgb(87,87,87)" />
	<circle cx="428.458" cy="391.275" r="2.5" fill="rgb(87,87,87)" />
	<circle cx="241.266" cy="286.127" r="2.5" fill="rgb(84,84,84)" />
	<circle cx="170.747" cy="409.379" r="2.5" fill="rgb(84,84,84)" />
	<circle cx="295.357" cy="301.577" r="2.5" fill="rgb(83,83,83)" />
	<circle cx="10.1763" cy="228.104" r="2.5" fill="rgb(83,83,83)" />
	<circle cx="57.6309" cy="367.009" r="2.5" fill="rgb(83,83,83)" />
	<circle cx="37.6686" cy="301.641" r="2.5" fill="rgb(83,83,83)" />
	<circle cx="178.291" cy="464.272" r="2.5" fill="rgb(82,82,82)" />
	<circle cx="422.104" cy="398.709" r="2.5" fill="rgb(80,80,80)" />
	<circle cx="395.356" cy="396.595" r="2.5" fill="rgb(79,79,79)" />
	<circle cx="6.53801" cy="236.516" r="2.5" fill="rgb(79,79,79)" />
	<circle cx="203.062" cy="470.692" r="2.5" fill="rgb(75,75,75)" />
	<circle cx="276.317" cy="309.76" r="2.5" fill="rgb(75,75,75)" />
	<circle cx="178.826" cy="316.281" r="2.5" fill="rgb(75,75,75)" />
	<circle cx="276.429" cy="311.613" r="2.5" fill="rgb(74,74,74)" />
	<circle cx="244.693" cy="304.172" r="2.5" fill="rgb(74,74,74)" />
	<circle cx="21.3944" cy="255.259" r="2.5" fill="rgb(70,70,70)" />
	<circle cx="6.53695" cy="254.202" r="2.5" fill="rgb(70,70,70)" />
	<circle cx="180.491" cy="281.554" r="2.5" fill="rgb(68,68,68)" />
	<circle cx="22.3273" cy="250.595" r="2.5" fill="rgb(68,68,68)" />
	<circle cx="393.635" cy="408.646" r="2.5" fill="rgb(68,68,68)" />
	<circle cx="160.123" cy="327.542" r="2.5" fill="rgb(68,68,68)" />
	<circle cx="238.701" cy="314.846" r="2.5" fill="rgb(67,67,67)" />
	<circle cx="254.319" cy="317.724" r="2.5" fill="rgb(67,67,67)" />
	<circle cx="302.649" cy="422.765" r="2.5" fill="rgb(66,66,66)" />
	<circle cx="13.59" cy="263.936" r="2.5" fill="rgb(66,66,66)" />
	<circle cx="307.233" cy="425.696" r="2.5" fill="rgb(65,65,65)" />
	<circle cx="30.3354" cy="262.76" r="2.5" fill="rgb(63,63,63)" />
	<circle cx="70.5203" cy="331.402" r="2.5" fill="rgb(60,60,60)" />
	<circle cx="20.2625" cy="394.779" r="2.5" fill="rgb(60,60,60)" />
	<circle cx="246.672" cy="328.176" r="2.5" fill="rgb(60,60,60)" />
	<circle cx="189.342" cy="302.841" r="2.5" fill="rgb(59,59,59)" />
	<circle cx="33.1767" cy="272.909" r="2.5" fill="rgb(58,58,58)" />
	<circle cx="368.836" cy="418.266" r="2.5" fill="rgb(58,58,58)" />
	<circle cx="205.703" cy="311.169" r="2.5" fill="rgb(57,57,57)" />
	<circle cx="61.8599" cy="370.341" r="2.5" fill="rgb(57,57,57)" />
	<circle cx="3.07156" cy="282.609" r="2.5" fill="rgb(57,57,57)" />
	<circle cx="16.0887" cy="278.777" r="2.5" fill="rgb(56,56,56)" />
	<circle cx="150.193" cy="337.606" r="2.5" fill="rgb(55,55,55)" />
	<circle cx="18.1622" cy="415.222" r="2.5" fill="rgb(55,55,55)" />
	<circle cx="91.6193" cy="352.252" r="2.5" fill="rgb(54,54,54)" />
	<circle cx="195.916" cy="353.105" r="2.5" fill="rgb(54,54,54)" />
	<circle cx="260.596" cy="341.546" r="2.5" fill="rgb(53,53,53)" />
	<circle cx="358.116" cy="425.12" r="2.5" fill="rgb(51,51,51)" />
	<circle cx="28.8828" cy="422.011" r="2.5" fill="rgb(51,51,51)" />
	<circle cx="188.338" cy="319.9" r="2.5" fill="rgb(51,51,51)" />
	<circle cx="40.3525" cy="295.532" r="2.5" fill="rgb(50,50,50)" />
	<circle cx="102.485" cy="364.692" r="2.5" fill="rgb(49,49,49)" />
	<circle cx="53.7013" cy="395.443" r="2.5" fill="rgb(49,49,49)" />
	<circle cx="4.89779" cy="304.548" r="2.5" fill="rgb(49,49,49)" />
	<circle cx="349.07" cy="438.701" r="2.5" fill="rgb(49,49,49)" />
	<circle cx="119.271" cy="406.371" r="2.5" fill="rgb(48,48,48)" />
	<circle cx="261.326" cy="350" r="2.5" fill="rgb(48,48,48)" />
	<circle cx="363.397" cy="429.492" r="2.5" fill="rgb(47,47,47)" />
	<circle cx="163.372" cy="320.887" r="2.5" fill="rgb(47,47,47)" />
	<circle cx="135.618" cy="413.771" r="2.5" fill="rgb(46,46,46)" />
	<circle cx="143.3" cy="357.423" r="2.5" fill="rgb(46,46,46)" />
	<circle cx="94.0015" cy="392.132" r="2.5" fill="rgb(46,46,46)" />
	<circle cx="194.182" cy="471.401" r="2.5" fill="rgb(46,46,46)" />
	<circle cx="228.718" cy="347.776" r="2.5" fill="rgb(45,45,45)" />
	<circle cx="151.51" cy="377.999" r="2.5" fill="rgb(44,44,44)" />
	<circle cx="153.958" cy="369.866" r="2.5" fill="rgb(44,44,44)" />
	<circle cx="49.7211" cy="310.608" r="2.5" fill="rgb(44,44,44)" />
	<circle cx="193.976" cy="440.256" r="2.5" fill="rgb(44,44,44)" />
	<circle cx="36.1356" cy="449.419" r="2.5" fill="rgb(43,43,43)" />
	<circle cx="127.068" cy="365.796" r="2.5" fill="rgb(43,43,43)" />
	<circle cx="161.013" cy="330.534" r="2.5" fill="rgb(43,43,43)" />
	<circle cx="304.169" cy="465.448" r="2.5" fill="rgb(42,42,42)" />
	<circle cx="354.647" cy="436.568" r="2.5" fill="rgb(41,41,41)" />
	<circle cx="31.5978" cy="375.446" r="2.5" fill="rgb(40,40,40)" />
	<circle cx="93.4693" cy="318.331" r="2.5" fill="rgb(40,40,40)" />
	<circle cx="208.583" cy="480.111" r="2.5" fill="rgb(39,39,39)" />
	<circle cx="223.799" cy="357.811" r="2.5" fill="rgb(39,39,39)" />
	<circle cx="119.549" cy="433.222" r="2.5" fill="rgb(38,38,38)" />
	<circle cx="200.899" cy="356.517" r="2.5" fill="rgb(38,38,38)" />
	<circle cx="132.484" cy="430.955" r="2.5" fill="rgb(37,37,37)" />
	<circle cx="149.88" cy="383.358" r="2.5" fill="rgb(36,36,36)" />
	<circle cx="358.306" cy="452.425" r="2.5" fill="rgb(35,35,35)" />
	<circle cx="113.072" cy="333.789" r="2.5" fill="rgb(35,35,35)" />
	<circle cx="24.9496" cy="403.929" r="2.5" fill="rgb(34,34,34)" />
	<circle cx="262.104" cy="440.331" r="2.5" fill="rgb(33,33,33)" />
	<circle cx="274.501" cy="439.581" r="2.5" fill="rgb(33,33,33)" />
	<circle cx="85.4519" cy="445.513" r="2.5" fill="rgb(31,31,31)" />
	<circle cx="208.213" cy="370.155" r="2.5" fill="rgb(31,31,31)" />
	<circle cx="208.148" cy="422.122" r="2.5" fill="rgb(30,30,30)" />
	<circle cx="139.946" cy="449.784" r="2.5" fill="rgb(29,29,29)" />
	<circle cx="306.416" cy="449.302" r="2.5" fill="rgb(28,28,28)" />
	<circle cx="285.831" cy="446.213" r="2.5" fill="rgb(28,28,28)" />
	<circle cx="114.618" cy="351.886" r="2.5" fill="rgb(28,28,28)" />
	<circle cx="52.0016" cy="470.977" r="2.5" fill="rgb(23,23,23)" />
	<circle cx="194.47" cy="435.517" r="2.5" fill="rgb(23,23,23)" />
	<circle cx="139.107" cy="365.488" r="2.5" fill="rgb(23,23,23)" />
	<circle cx="271.924" cy="454.439" r="2.5" fill="rgb(22,22,22)" />
	<circle cx="199.624" cy="437.094" r="2.5" fill="rgb(22,22,22)" />
	<circle cx="208.645" cy="436.907" r="2.5" fill="rgb(22,22,22)" />
	<circle cx="61.5059" cy="438.778" r="2.5" fill="rgb(19,19,19)" />
	<circle cx="42.4118" cy="384.84" r="2.5" fill="rgb(19,19,19)" />
	<circle cx="103.428" cy="447.564" r="2.5" fill="rgb(19,19,19)" />
	<circle cx="25.1702" cy="390.507" r="2.5" fill="rgb(17,17,17)" />
	<circle cx="170.353" cy="444.05" r="2.5" fill="rgb(16,16,16)" />
	<circle cx="138.723" cy="384.719" r="2.5" fill="rgb(15,15,15)" />
	<circle cx="200.208" cy="450.231" r="2.5" fill="rgb(14,14,14)" />
	<circle cx="12.2223" cy="450.943" r="2.5" fill="rgb(14,14,14)" />
	<circle cx="104.563" cy="465.983" r="2.5" fill="rgb(14,14,14)" />
	<circle cx="152.427" cy="451.537" r="2.5" fill="rgb(13,13,13)" />
	<circle cx="57.4549" cy="459.755" r="2.5" fill="rgb(13,13,13)" />
	<circle cx="20.9273" cy="410.497" r="2.5" fill="rgb(12,12,12)" />
	<circle cx="41.0443" cy="426.713" r="2.5" fill="rgb(12,12,12)" />
	<circle cx="16.1295" cy="419.159" r="2.5" fill="rgb(10,10,10)" />
	<circle cx="94.8545" cy="393.1" r="2.5" fill="rgb(8,8,8)" />
	<circle cx="161.267" cy="464.836" r="2.5" fill="rgb(6,6,6)" />
	<circle cx="11.4242" cy="440.071" r="2.5" fill="rgb(5,5,5)" />
	<circle cx="41.266" cy="486.962" r="2.5" fill="rgb(4,4,4)" />
	<circle cx="83.3333" cy="416.667" r="2" fill="rgb(255,0,0)" />
	<circle cx="416.667" cy="83.3333" r="2" fill="rgb(0,255,0)" />
	<circle cx="83.3333" cy="416.667" r="2" fill="rgb(0,255,0)" />
	<circle cx="100.919" cy="396.34" r="2" fill="rgb(0,255,0)" />
	<circle cx="115.653" cy="374.941" r="2" fill="rgb(0,255,0)" />
	<circle cx="122.49" cy="360.233" r="2" fill="rgb(0,255,0)" />
	<circle cx="105.834" cy="345.67" r="2" fill="rgb(0,255,0)" />
	<circle cx="65.9121" cy="337.43" r="2" fill="rgb(0,255,0)" />
	<circle cx="35.063" cy="313.237" r="2" fill="rgb(0,255,0)" />
	<circle cx="42.7688" cy="303.327" r="2" fill="rgb(0,255,0)" />
	<circle cx="26.9363" cy="281.474" r="2" fill="rgb(0,255,0)" />
	<circle cx="46.4528" cy="273.398" r="2" fill="rgb(0,255,0)" />
	<circle cx="41.6164" cy="258.377" r="2" fill="rgb(0,255,0)" />
	<circle cx="66.67" cy="245.611" r="2" fill="rgb(0,255,0)" />
	<circle cx="64.8362" cy="233.527" r="2" fill="rgb(0,255,0)" />
	<circle cx="101.363" cy="223.274" r="2" fill="rgb(0,255,0)" />
	<circle cx="121.326" cy="220.003" r="2" fill="rgb(0,255,0)" />
	<circle cx="118.975" cy="205.526" r="2" fill="rgb(0,255,0)" />
	<circle cx="113.271" cy="184.9" r="2" fill="rgb(0,255,0)" />
	<circle cx="77.9644" cy="171.7" r="2" fill="rgb(0,255,0)" />
	<circle cx="89.1253" cy="163.869" r="2" fill="rgb(0,255,0)" />
	<circle cx="138.702" cy="161.558" r="2" fill="rgb(0,255,0)" />
	<circle cx="150.763" cy="154.225" r="2" fill="rgb(0,255,0)" />
	<circle cx="149.192" cy="144.186" r="2" fill="rgb(0,255,0)" />
	<circle cx="158.321" cy="128.358" r="2" fill="rgb(0,255,0)" />
	<circle cx="184.065" cy="123.539" r="2" fill="rgb(0,255,0)" />
	<circle cx="216.182" cy="128.633" r="2" fill="rgb(0,255,0)" />
	<circle cx="267.99" cy="146.613" r="2" fill="rgb(0,255,0)" />
	<circle cx="309.659" cy="153.161" r="2" fill="rgb(0,255,0)" />
	<circle cx="318.723" cy="144.318" r="2" fill="rgb(0,255,0)" />
	<circle cx="363.499" cy="151.066" r="2" fill="rgb(0,255,0)" />
	<circle cx="367.654" cy="141.026" r="2" fill="rgb(0,255,0)" />
	<circle cx="408.468" cy="132.195" r="2" fill="rgb(0,255,0)" />
	<circle cx="437.18" cy="113.762" r="2" fill="rgb(0,255,0)" />
	<circle cx="427.185" cy="100.971" r="2" fill="rgb(0,255,0)" />
	<circle cx="420.709" cy="93.1514" r="2" fill="rgb(0,255,0)" />
	<circle cx="415.827" cy="78.9463" r="2" fill="rgb(0,255,0)" />
</svg>
