<?xml version="1.0" standalone="no" ?>
<!DOCTYPE svg PUBLIC "-//W3C//DTD SVG 1.1//EN" "http://www.w3.org/Graphics/SVG/1.1/DTD/svg11.dtd">
<svg width="500px" height="500px" xmlns="http://www.w3.org/2000/svg" version="1.1" >
	<circle cx="469.495" cy="277.576" r="2.5" fill="rgb(255,255,255)" />
	<circle cx="441.398" cy="254.835" r="2.5" fill="rgb(252,252,252)" />
	<circle cx="420.043" cy="136.902" r="2.5" fill="rgb(242,242,242)" />
	<circle cx="419.071" cy="149.257" r="2.5" fill="rgb(233,233,233)" />
	<circle cx="365.792" cy="289.635" r="2.5" fill="rgb(231,231,231)" />
	<circle cx="370.397" cy="238.862" r="2.5" fill="rgb(227,227,227)" />
	<circle cx="422.742" cy="166.365" r="2.5" fill="rgb(220,220,220)" />
	<circle cx="420.223" cy="176.313" r="2.5" fill="rgb(212,212,212)" />
	<circle cx="241.138" cy="135.751" r="2.5" fill="rgb(205,205,205)" />
	<circle cx="245.447" cy="85.557" r="2.5" fill="rgb(205,205,205)" />
	<circle cx="233.841" cy="142.243" r="2.5" fill="rgb(205,205,205)" />
	<circle cx="425.48" cy="188.014" r="2.5" fill="rgb(203,203,203)" />
	<circle cx="111.604" cy="66.0884" r="2.5" fill="rgb(201,201,201)" />
	<circle cx="153.953" cy="68.5115" r="2.5" fill="rgb(200,200,200)" />
	<circle cx="233.158" cy="95.0118" r="2.5" fill="rgb(199,199,199)" />
	<circle cx="188.894" cy="76.3295" r="2.5" fill="rgb(199,199,199)" />
	<circle cx="144.09" cy="78.8165" r="2.5" fill="rgb(196,196,196)" />
	<circle cx="224.55" cy="98.3088" r="2.5" fill="rgb(196,196,196)" />
	<circle cx="178.571" cy="162.154" r="2.5" fill="rgb(194,194,194)" />
	<circle cx="244.032" cy="166.58" r="2.5" fill="rgb(193,193,193)" />
	<circle cx="208.634" cy="100.752" r="2.5" fill="rgb(192,192,192)" />
	<circle cx="150.275" cy="96.6084" r="2.5" fill="rgb(191,191,191)" />
	<circle cx="436.609" cy="204.687" r="2.5" fill="rgb(190,190,190)" />
	<circle cx="384.805" cy="192.981" r="2.5" fill="rgb(189,189,189)" />
	<circle cx="206.808" cy="114.428" r="2.5" fill="rgb(188,188,188)" />
	<circle cx="159.375" cy="109.904" r="2.5" fill="rgb(187,187,187)" />
	<circle cx="162.306" cy="116.904" r="2.5" fill="rgb(186,186,186)" />
	<circle cx="231.684" cy="177.976" r="2.5" fill="rgb(185,185,185)" />
	<circle cx="217.639" cy="143.326" r="2.5" fill="rgb(182,182,182)" />
	<circle cx="184.586" cy="120.569" r="2.5" fill="rgb(182,182,182)" />
	<circle cx="351.637" cy="187.646" r="2.5" fill="rgb(181,181,181)" />
	<circle cx="390.839" cy="206.096" r="2.5" fill="rgb(180,180,180)" />
	<circle cx="113.612" cy="107.09" r="2.5" fill="rgb(179,179,179)" />
	<circle cx="210.989" cy="181.696" r="2.5" fill="rgb(178,178,178)" />
	<circle cx="210.277" cy="154.067" r="2.5" fill="rgb(178,178,178)" />
	<circle cx="185.022" cy="139.627" r="2.5" fill="rgb(176,176,176)" />
	<circle cx="236.954" cy="267.029" r="2.5" fill="rgb(175,175,175)" />
	<circle cx="203.807" cy="187.539" r="2.5" fill="rgb(174,174,174)" />
	<circle cx="348.325" cy="198.85" r="2.5" fill="rgb(174,174,174)" />
	<circle cx="140.813" cy="125.668" r="2.5" fill="rgb(173,173,173)" />
	<circle cx="146.522" cy="129.217" r="2.5" fill="rgb(173,173,173)" />
	<circle cx="140.199" cy="136.746" r="2.5" fill="rgb(169,169,169)" />
	<circle cx="194.324" cy="194.416" r="2.5" fill="rgb(169,169,169)" />
	<circle cx="192.498" cy="228.73" r="2.5" fill="rgb(168,168,168)" />
	<circle cx="70.351" cy="239.62" r="2.5" fill="rgb(168,168,168)" />
	<circle cx="335.239" cy="203.792" r="2.5" fill="rgb(168,168,168)" />
	<circle cx="218.386" cy="277.049" r="2.5" fill="rgb(168,168,168)" />
	<circle cx="168.013" cy="211.418" r="2.5" fill="rgb(167,167,167)" />
	<circle cx="147.82" cy="196.889" r="2.5" fill="rgb(166,166,166)" />
	<circle cx="252.047" cy="301.124" r="2.5" fill="rgb(165,165,165)" />
	<circle cx="194.513" cy="216.573" r="2.5" fill="rgb(164,164,164)" />
	<circle cx="172.413" cy="159.932" r="2.5" fill="rgb(164,164,164)" />
	<circle cx="9.81686" cy="177.617" r="2.5" fill="rgb(163,163,163)" />
	<circle cx="101.112" cy="146.949" r="2.5" fill="rgb(162,162,162)" />
	<circle cx="56.217" cy="151.076" r="2.5" fill="rgb(162,162,162)" />
	<circle cx="314.579" cy="208.76" r="2.5" fill="rgb(160,160,160)" />
	<circle cx="229.782" cy="302.713" r="2.5" fill="rgb(160,160,160)" />
	<circle cx="178.076" cy="211.391" r="2.5" fill="rgb(160,160,160)" />
	<circle cx="186.038" cy="178.732" r="2.5" fill="rgb(159,159,159)" />
	<circle cx="316.18" cy="212.321" r="2.5" fill="rgb(159,159,159)" />
	<circle cx="106.432" cy="156.318" r="2.5" fill="rgb(159,159,159)" />
	<circle cx="342.48" cy="244.128" r="2.5" fill="rgb(158,158,158)" />
	<circle cx="149.908" cy="210.777" r="2.5" fill="rgb(158,158,158)" />
	<circle cx="182.734" cy="179.103" r="2.5" fill="rgb(158,158,158)" />
	<circle cx="378.653" cy="235.353" r="2.5" fill="rgb(157,157,157)" />
	<circle cx="362.543" cy="258.633" r="2.5" fill="rgb(157,157,157)" />
	<circle cx="249.532" cy="244.708" r="2.5" fill="rgb(156,156,156)" />
	<circle cx="477.219" cy="236.828" r="2.5" fill="rgb(156,156,156)" />
	<circle cx="372.025" cy="264.537" r="2.5" fill="rgb(156,156,156)" />
	<circle cx="88.715" cy="162.577" r="2.5" fill="rgb(155,155,155)" />
	<circle cx="137.699" cy="168.119" r="2.5" fill="rgb(154,154,154)" />
	<circle cx="316.789" cy="221.723" r="2.5" fill="rgb(153,153,153)" />
	<circle cx="310.983" cy="219.721" r="2.5" fill="rgb(153,153,153)" />
	<circle cx="196.766" cy="244.46" r="2.5" fill="rgb(153,153,153)" />
	<circle cx="256.633" cy="233.822" r="2.5" fill="rgb(152,152,152)" />
	<circle cx="172.822" cy="192.194" r="2.5" fill="rgb(152,152,152)" />
	<circle cx="437.094" cy="239.564" r="2.5" fill="rgb(151,151,151)" />
	<circle cx="451.033" cy="242.758" r="2.5" fill="rgb(150,150,150)" />
	<circle cx="338.596" cy="254.002" r="2.5" fill="rgb(150,150,150)" />
	<circle cx="466.031" cy="246.968" r="2.5" fill="rgb(149,149,149)" />
	<circle cx="254.465" cy="290.173" r="2.5" fill="rgb(148,148,148)" />
	<circle cx="132.165" cy="181.967" r="2.5" fill="rgb(147,147,147)" />
	<circle cx="237.06" cy="239.888" r="2.5" fill="rgb(146,146,146)" />
	<circle cx="152.757" cy="309.231" r="2.5" fill="rgb(145,145,145)" />
	<circle cx="198.078" cy="309.365" r="2.5" fill="rgb(145,145,145)" />
	<circle cx="251.987" cy="252.694" r="2.5" fill="rgb(144,144,144)" />
	<circle cx="174.094" cy="214.382" r="2.5" fill="rgb(144,144,144)" />
	<circle cx="302.348" cy="232.529" r="2.5" fill="rgb(144,144,144)" />
	<circle cx="343.787" cy="295.197" r="2.5" fill="rgb(143,143,143)" />
	<circle cx="439.427" cy="254.718" r="2.5" fill="rgb(141,141,141)" />
	<circle cx="321.618" cy="245.141" r="2.5" fill="rgb(141,141,141)" />
	<circle cx="284.963" cy="251.905" r="2.5" fill="rgb(140,140,140)" />
	<circle cx="289.417" cy="276.37" r="2.5" fill="rgb(140,140,140)" />
	<circle cx="121.327" cy="198.389" r="2.5" fill="rgb(139,139,139)" />
	<circle cx="314.537" cy="259.06" r="2.5" fill="rgb(139,139,139)" />
	<circle cx="403.392" cy="251.768" r="2.5" fill="rgb(138,138,138)" />
	<circle cx="353.231" cy="248.228" r="2.5" fill="rgb(137,137,137)" />
	<circle cx="277.171" cy="257.544" r="2.5" fill="rgb(136,136,136)" />
	<circle cx="133.472" cy="210.838" r="2.5" fill="rgb(135,135,135)" />
	<circle cx="277.023" cy="280.089" r="2.5" fill="rgb(132,132,132)" />
	<circle cx="404.606" cy="262.055" r="2.5" fill="rgb(131,131,131)" />
	<circle cx="358.312" cy="261.002" r="2.5" fill="rgb(130,130,130)" />
	<circle cx="196.389" cy="232.296" r="2.5" fill="rgb(129,129,129)" />
	<circle cx="320.651" cy="290.578" r="2.5" fill="rgb(128,128,128)" />
	<circle cx="194.765" cy="237.656" r="2.5" fill="rgb(127,127,127)" />
	<circle cx="56.3531" cy="329.853" r="2.5" fill="rgb(126,126,126)" />
	<circle cx="365.509" cy="458.517" r="2.5" fill="rgb(123,123,123)" />
	<circle cx="399.184" cy="273.968" r="2.5" fill="rgb(123,123,123)" />
	<circle cx="175.315" cy="243.213" r="2.5" fill="rgb(121,121,121)" />
	<circle cx="136.508" cy="274.278" r="2.5" fill="rgb(121,121,121)" />
	<circle cx="283.795" cy="357.486" r="2.5" fill="rgb(117,117,117)" />
	<circle cx="297.084" cy="318.201" r="2.5" fill="rgb(116,116,116)" />
	<circle cx="422.52" cy="288.491" r="2.5" fill="rgb(115,115,115)" />
	<circle cx="242.154" cy="261.972" r="2.5" fill="rgb(114,114,114)" />
	<circle cx="400.007" cy="288.205" r="2.5" fill="rgb(113,113,113)" />
	<circle cx="249.293" cy="266.365" r="2.5" fill="rgb(113,113,113)" />
	<circle cx="472.117" cy="429.029" r="2.5" fill="rgb(112,112,112)" />
	<circle cx="346.615" cy="322.939" r="2.5" fill="rgb(112,112,112)" />
	<circle cx="412.098" cy="297.904" r="2.5" fill="rgb(107,107,107)" />
	<circle cx="232.632" cy="273.027" r="2.5" fill="rgb(107,107,107)" />
	<circle cx="288.687" cy="336.886" r="2.5" fill="rgb(105,105,105)" />
	<circle cx="340.374" cy="299.699" r="2.5" fill="rgb(105,105,105)" />
	<circle cx="461.396" cy="437.556" r="2.5" fill="rgb(104,104,104)" />
	<circle cx="451.005" cy="335.497" r="2.5" fill="rgb(102,102,102)" />
	<circle cx="450.99" cy="440.517" r="2.5" fill="rgb(101,101,101)" />
	<circle cx="309.221" cy="345.911" r="2.5" fill="rgb(100,100,100)" />
	<circle cx="297.752" cy="327.805" r="2.5" fill="rgb(99,99,99)" />
	<circle cx="227.583" cy="287.609" r="2.5" fill="rgb(99,99,99)" />
	<circle cx="392.548" cy="308.366" r="2.5" fill="rgb(98,98,98)" />
	<circle cx="340.531" cy="311.511" r="2.5" fill="rgb(98,98,98)" />
	<circle cx="293.619" cy="303.104" r="2.5" fill="rgb(97,97,97)" />
	<circle cx="361.787" cy="314.61" r="2.5" fill="rgb(95,95,95)" />
	<circle cx="445.06" cy="343.928" r="2.5" fill="rgb(94,94,94)" />
	<circle cx="286.031" cy="407.102" r="2.5" fill="rgb(94,94,94)" />
	<circle cx="444.277" cy="448.176" r="2.5" fill="rgb(94,94,94)" />
	<circle cx="464.229" cy="447.308" r="2.5" fill="rgb(94,94,94)" />
	<circle cx="462.53" cy="447.33" r="2.5" fill="rgb(94,94,94)" />
	<circle cx="462.54" cy="448.573" r="2.5" fill="rgb(93,93,93)" />
	<circle cx="304.014" cy="370.777" r="2.5" fill="rgb(92,92,92)" />
	<circle cx="261.876" cy="305.816" r="2.5" fill="rgb(92,92,92)" />
	<circle cx="285.721" cy="310.969" r="2.5" fill="rgb(92,92,92)" />
	<circle cx="420.035" cy="454.442" r="2.5" fill="rgb(91,91,91)" />
	<circle cx="369.924" cy="499.278" r="2.5" fill="rgb(91,91,91)" />
	<circle cx="316.386" cy="361.839" r="2.5" fill="rgb(91,91,91)" />
	<circle cx="316.622" cy="355.289" r="2.5" fill="rgb(91,91,91)" />
	<circle cx="358.443" cy="440.844" r="2.5" fill="rgb(91,91,91)" />
	<circle cx="402.617" cy="320.518" r="2.5" fill="rgb(90,90,90)" />
	<circle cx="299.466" cy="316.648" r="2.5" fill="rgb(89,89,89)" />
	<circle cx="336.92" cy="379.831" r="2.5" fill="rgb(87,87,87)" />
	<circle cx="449.022" cy="354.5" r="2.5" fill="rgb(85,85,85)" />
	<circle cx="351.264" cy="448.139" r="2.5" fill="rgb(85,85,85)" />
	<circle cx="406.899" cy="329.146" r="2.5" fill="rgb(85,85,85)" />
	<circle cx="267.412" cy="323.379" r="2.5" fill="rgb(83,83,83)" />
	<circle cx="293.34" cy="326.574" r="2.5" fill="rgb(83,83,83)" />
	<circle cx="454.317" cy="458.784" r="2.5" fill="rgb(83,83,83)" />
	<circle cx="451.71" cy="358.486" r="2.5" fill="rgb(82,82,82)" />
	<circle cx="380.176" cy="381.61" r="2.5" fill="rgb(82,82,82)" />
	<circle cx="198.047" cy="419.159" r="2.5" fill="rgb(80,80,80)" />
	<circle cx="296.804" cy="337.742" r="2.5" fill="rgb(77,77,77)" />
	<circle cx="138.142" cy="337.807" r="2.5" fill="rgb(76,76,76)" />
	<circle cx="454.481" cy="366.226" r="2.5" fill="rgb(76,76,76)" />
	<circle cx="406.017" cy="342.551" r="2.5" fill="rgb(75,75,75)" />
	<circle cx="288.566" cy="340.129" r="2.5" fill="rgb(75,75,75)" />
	<circle cx="276.246" cy="420.022" r="2.5" fill="rgb(74,74,74)" />
	<circle cx="316.379" cy="359.667" r="2.5" fill="rgb(73,73,73)" />
	<circle cx="68.9318" cy="390.034" r="2.5" fill="rgb(72,72,72)" />
	<circle cx="296.998" cy="347.187" r="2.5" fill="rgb(72,72,72)" />
	<circle cx="318.072" cy="350.224" r="2.5" fill="rgb(72,72,72)" />
	<circle cx="115.528" cy="349.968" r="2.5" fill="rgb(71,71,71)" />
	<circle cx="378.449" cy="347.511" r="2.5" fill="rgb(68,68,68)" />
	<circle cx="279.445" cy="429.669" r="2.5" fill="rgb(68,68,68)" />
	<circle cx="303.288" cy="355.531" r="2.5" fill="rgb(67,67,67)" />
	<circle cx="60.4139" cy="243.432" r="2.5" fill="rgb(65,65,65)" />
	<circle cx="70.9446" cy="246.165" r="2.5" fill="rgb(65,65,65)" />
	<circle cx="106.285" cy="332.364" r="2.5" fill="rgb(64,64,64)" />
	<circle cx="20.7633" cy="248.148" r="2.5" fill="rgb(63,63,63)" />
	<circle cx="372.201" cy="355.065" r="2.5" fill="rgb(63,63,63)" />
	<circle cx="370.13" cy="357.753" r="2.5" fill="rgb(61,61,61)" />
	<circle cx="130.1" cy="428.384" r="2.5" fill="rgb(60,60,60)" />
	<circle cx="147.537" cy="428.503" r="2.5" fill="rgb(60,60,60)" />
	<circle cx="48.0765" cy="257.191" r="2.5" fill="rgb(59,59,59)" />
	<circle cx="127.843" cy="430.686" r="2.5" fill="rgb(59,59,59)" />
	<circle cx="9.7146" cy="333.202" r="2.5" fill="rgb(59,59,59)" />
	<circle cx="151.693" cy="388.398" r="2.5" fill="rgb(56,56,56)" />
	<circle cx="159.477" cy="455.621" r="2.5" fill="rgb(54,54,54)" />
	<circle cx="324.982" cy="413.791" r="2.5" fill="rgb(54,54,54)" />
	<circle cx="346.456" cy="365.984" r="2.5" fill="rgb(53,53,53)" />
	<circle cx="119.493" cy="273.674" r="2.5" fill="rgb(53,53,53)" />
	<circle cx="139.284" cy="477.083" r="2.5" fill="rgb(53,53,53)" />
	<circle cx="211.929" cy="366.434" r="2.5" fill="rgb(53,53,53)" />
	<circle cx="100.27" cy="408.703" r="2.5" fill="rgb(52,52,52)" />
	<circle cx="116.883" cy="275.509" r="2.5" fill="rgb(52,52,52)" />
	<circle cx="10.6037" cy="443.033" r="2.5" fill="rgb(52,52,52)" />
	<circle cx="130.999" cy="450.196" r="2.5" fill="rgb(52,52,52)" />
	<circle cx="122.049" cy="464.391" r="2.5" fill="rgb(51,51,51)" />
	<circle cx="185.704" cy="444.459" r="2.5" fill="rgb(50,50,50)" />
	<circle cx="238.765" cy="463.874" r="2.5" fill="rgb(49,49,49)" />
	<circle cx="69.7477" cy="339.989" r="2.5" fill="rgb(49,49,49)" />
	<circle cx="132.812" cy="390.699" r="2.5" fill="rgb(48,48,48)" />
	<circle cx="269.602" cy="423.077" r="2.5" fill="rgb(48,48,48)" />
	<circle cx="123.893" cy="475.186" r="2.5" fill="rgb(47,47,47)" />
	<circle cx="99.4267" cy="321.406" r="2.5" fill="rgb(47,47,47)" />
	<circle cx="323.526" cy="373.266" r="2.5" fill="rgb(47,47,47)" />
	<circle cx="221.53" cy="404.03" r="2.5" fill="rgb(47,47,47)" />
	<circle cx="135.356" cy="295.812" r="2.5" fill="rgb(46,46,46)" />
	<circle cx="92.8776" cy="430.028" r="2.5" fill="rgb(46,46,46)" />
	<circle cx="203.915" cy="380.404" r="2.5" fill="rgb(46,46,46)" />
	<circle cx="46.9374" cy="354.416" r="2.5" fill="rgb(46,46,46)" />
	<circle cx="319.579" cy="425.796" r="2.5" fill="rgb(46,46,46)" />
	<circle cx="198.083" cy="498.534" r="2.5" fill="rgb(45,45,45)" />
	<circle cx="58.773" cy="352.402" r="2.5" fill="rgb(45,45,45)" />
	<circle cx="186.502" cy="457.947" r="2.5" fill="rgb(44,44,44)" />
	<circle cx="94.7748" cy="334.088" r="2.5" fill="rgb(43,43,43)" />
	<circle cx="198.961" cy="420.965" r="2.5" fill="rgb(42,42,42)" />
	<circle cx="341.91" cy="436.737" r="2.5" fill="rgb(42,42,42)" />
	<circle cx="294.761" cy="377.879" r="2.5" fill="rgb(41,41,41)" />
	<circle cx="213.487" cy="391.719" r="2.5" fill="rgb(41,41,41)" />
	<circle cx="241.759" cy="479.179" r="2.5" fill="rgb(40,40,40)" />
	<circle cx="156.329" cy="317.857" r="2.5" fill="rgb(40,40,40)" />
	<circle cx="242.808" cy="473.329" r="2.5" fill="rgb(39,39,39)" />
	<circle cx="286.893" cy="438.245" r="2.5" fill="rgb(37,37,37)" />
	<circle cx="32.4059" cy="374.324" r="2.5" fill="rgb(37,37,37)" />
	<circle cx="270.288" cy="381.956" r="2.5" fill="rgb(37,37,37)" />
	<circle cx="298.303" cy="441.007" r="2.5" fill="rgb(35,35,35)" />
	<circle cx="44.3193" cy="386.722" r="2.5" fill="rgb(35,35,35)" />
	<circle cx="40.5171" cy="433.943" r="2.5" fill="rgb(33,33,33)" />
	<circle cx="175.821" cy="338.432" r="2.5" fill="rgb(33,33,33)" />
	<circle cx="48.8165" cy="413.548" r="2.5" fill="rgb(33,33,33)" />
	<circle cx="34.9323" cy="399.447" r="2.5" fill="rgb(32,32,32)" />
	<circle cx="270.987" cy="391.851" r="2.5" fill="rgb(32,32,32)" />
	<circle cx="61.4679" cy="408.943" r="2.5" fill="rgb(31,31,31)" />
	<circle cx="10.3109" cy="407.204" r="2.5" fill="rgb(31,31,31)" />
	<circle cx="102.426" cy="387.592" r="2.5" fill="rgb(30,30,30)" />
	<circle cx="346.628" cy="435.466" r="2.5" fill="rgb(30,30,30)" />
	<circle cx="27.63" cy="317.868" r="2.5" fill="rgb(29,29,29)" />
	<circle cx="30.9954" cy="413.358" r="2.5" fill="rgb(29,29,29)" />
	<circle cx="5.0428" cy="410.022" r="2.5" fill="rgb(29,29,29)" />
	<circle cx="117.242" cy="394.638" r="2.5" fill="rgb(29,29,29)" />
	<circle cx="41.7742" cy="448.49" r="2.5" fill="rgb(28,28,28)" />
	<circle cx="84.0606" cy="355.546" r="2.5" fill="rgb(28,28,28)" />
	<circle cx="42.888" cy="435.319" r="2.5" fill="rgb(28,28,28)" />
	<circle cx="2.25696" cy="438.024" r="2.5" fill="rgb(27,27,27)" />
	<circle cx="11.6721" cy="424.836" r="2.5" fill="rgb(26,26,26)" />
	<circle cx="75.1533" cy="378.503" r="2.5" fill="rgb(26,26,26)" />
	<circle cx="151.711" cy="353.693" r="2.5" fill="rgb(25,25,25)" />
	<circle cx="246.799" cy="401.078" r="2.5" fill="rgb(25,25,25)" />
	<circle cx="75.2826" cy="366.227" r="2.5" fill="rgb(25,25,25)" />
	<circle cx="184.125" cy="433.519" r="2.5" fill="rgb(25,25,25)" />
	<circle cx="97.9999" cy="406.149" r="2.5" fill="rgb(25,25,25)" />
	<circle cx="23.1746" cy="336.871" r="2.5" fill="rgb(25,25,25)" />
	<circle cx="22.0766" cy="465.119" r="2.5" fill="rgb(24,24,24)" />
	<circle cx="10.4121" cy="342.019" r="2.5" fill="rgb(23,23,23)" />
	<circle cx="82.9238" cy="381.426" r="2.5" fill="rgb(21,21,21)" />
	<circle cx="152.821" cy="366.271" r="2.5" fill="rgb(21,21,21)" />
	<circle cx="242.556" cy="409.549" r="2.5" fill="rgb(21,21,21)" />
	<circle cx="11.0734" cy="355.605" r="2.5" fill="rgb(20,20,20)" />
	<circle cx="96.7223" cy="402.802" r="2.5" fill="rgb(19,19,19)" />
	<circle cx="27.4715" cy="448.532" r="2.5" fill="rgb(19,19,19)" />
	<circle cx="88.787" cy="352.831" r="2.5" fill="rgb(17,17,17)" />
	<circle cx="51.6428" cy="392.693" r="2.5" fill="rgb(16,16,16)" />
	<circle cx="53.4117" cy="392.946" r="2.5" fill="rgb(16,16,16)" />
	<circle cx="165.069" cy="383.283" r="2.5" fill="rgb(15,15,15)" />
	<circle cx="7.05462" cy="383.711" r="2.5" fill="rgb(14,14,14)" />
	<circle cx="96.9733" cy="365.298" r="2.5" fill="rgb(14,14,14)" />
	<circle cx="41.3759" cy="413.651" r="2.5" fill="rgb(11,11,11)" />
	<circle cx="26.6153" cy="385.042" r="2.5" fill="rgb(9,9,9)" />
	<circle cx="97.006" cy="386.483" r="2.5" fill="rgb(8,8,8)" />
	<circle cx="82.4925" cy="404.354" r="2.5" fill="rgb(3,3,3)" />
	<circle cx="83.3333" cy="416.667" r="2" fill="rgb(255,0,0)" />
	<circle cx="416.667" cy="83.3333" r="2" fill="rgb(0,255,0)" />
	<circle cx="83.3333" cy="416.667" r="2" fill="rgb(0,255,0)" />
	<circle cx="26.3377" cy="409.246" r="2" fill="rgb(0,255,0)" />
	<circle cx="49.7318" cy="387.333" r="2" fill="rgb(0,255,0)" />
	<circle cx="57.6683" cy="367.447" r="2" fill="rgb(0,255,0)" />
	<circle cx="55.4571" cy="349.415" r="2" fill="rgb(0,255,0)" />
	<circle cx="58.4456" cy="327.844" r="2" fill="rgb(0,255,0)" />
	<circle cx="88.5695" cy="312.968" r="2" fill="rgb(0,255,0)" />
	<circle cx="102.382" cy="294.227" r="2" fill="rgb(0,255,0)" />
	<circle cx="98.2917" cy="280.354" r="2" fill="rgb(0,255,0)" />
	<circle cx="93.4352" cy="260.18" r="2" fill="rgb(0,255,0)" />
	<circle cx="94.1956" cy="243.796" r="2" fill="rgb(0,255,0)" />
	<circle cx="87.2556" cy="226.473" r="2" fill="rgb(0,255,0)" />
	<circle cx="54.385" cy="215.088" r="2" fill="rgb(0,255,0)" />
	<circle cx="57.1878" cy="199.226" r="2" fill="rgb(0,255,0)" />
	<circle cx="48.2834" cy="182.554" r="2" fill="rgb(0,255,0)" />
	<circle cx="63.4724" cy="174.575" r="2" fill="rgb(0,255,0)" />
	<circle cx="74.712" cy="162.932" r="2" fill="rgb(0,255,0)" />
	<circle cx="86.828" cy="147.871" r="2" fill="rgb(0,255,0)" />
	<circle cx="86.6488" cy="139.413" r="2" fill="rgb(0,255,0)" />
	<circle cx="84.1707" cy="131.241" r="2" fill="rgb(0,255,0)" />
	<circle cx="113.602" cy="121.558" r="2" fill="rgb(0,255,0)" />
	<circle cx="160.337" cy="117.748" r="2" fill="rgb(0,255,0)" />
	<circle cx="248.686" cy="182.144" r="2" fill="rgb(0,255,0)" />
	<circle cx="258.878" cy="173.383" r="2" fill="rgb(0,255,0)" />
	<circle cx="293.701" cy="181.03" r="2" fill="rgb(0,255,0)" />
	<circle cx="318.973" cy="181.24" r="2" fill="rgb(0,255,0)" />
	<circle cx="320.822" cy="167.995" r="2" fill="rgb(0,255,0)" />
	<circle cx="381.16" cy="177.059" r="2" fill="rgb(0,255,0)" />
	<circle cx="389.648" cy="167.682" r="2" fill="rgb(0,255,0)" />
	<circle cx="401.83" cy="159.931" r="2" fill="rgb(0,255,0)" />
	<circle cx="413.515" cy="147.443" r="2" fill="rgb(0,255,0)" />
	<circle cx="411.904" cy="130.147" r="2" fill="rgb(0,255,0)" />
	<circle cx="424.899" cy="118.514" r="2" fill="rgb(0,255,0)" />
	<circle cx="429.54" cy="101.969" r="2" fill="rgb(0,255,0)" />
	<circle cx="413.811" cy="87.334" r="2" fill="rgb(0,255,0)" />
</svg>
