<?xml version="1.0" standalone="no" ?>
<!DOCTYPE svg PUBLIC "-//W3C//DTD SVG 1.1//EN" "http://www.w3.org/Graphics/SVG/1.1/DTD/svg11.dtd">
<svg width="500px" height="500px" xmlns="http://www.w3.org/2000/svg" version="1.1" >
	<polyline points="83.3333,416.667 11.4242,440.071 " fill="transparent" stroke-width="0.5" stroke="rgb(0,0,255)" />
	<polyline points="11.4242,440.071 16.1295,419.159 " fill="transparent" stroke-width="0.5" stroke="rgb(0,0,255)" />
	<polyline points="11.4242,440.071 20.9273,410.497 " fill="transparent" stroke-width="0.5" stroke="rgb(0,0,255)" />
	<polyline points="20.9273,410.497 25.1702,390.507 " fill="transparent" stroke-width="0.5" stroke="rgb(0,0,255)" />
	<polyline points="20.9273,410.497 42.4118,384.84 " fill="transparent" stroke-width="0.5" stroke="rgb(0,0,255)" />
	<polyline points="83.3333,416.667 94.8545,393.1 " fill="transparent" stroke-width="0.5" stroke="rgb(0,0,255)" />
	<polyline points="94.8545,393.1 12.2223,450.943 " fill="transparent" stroke-width="0.5" stroke="rgb(0,0,255)" />
	<polyline points="94.8545,393.1 41.0443,426.713 " fill="transparent" stroke-width="0.5" stroke="rgb(0,0,255)" />
	<polyline points="94.8545,393.1 138.723,384.719 " fill="transparent" stroke-width="0.5" stroke="rgb(0,0,255)" />
	<polyline points="138.723,384.719 139.107,365.488 " fill="transparent" stroke-width="0.5" stroke="rgb(0,0,255)" />
	<polyline points="139.107,365.488 208.213,370.155 " fill="transparent" stroke-width="0.5" stroke="rgb(0,0,255)" />
	<polyline points="208.213,370.155 200.899,356.517 " fill="transparent" stroke-width="0.5" stroke="rgb(0,0,255)" />
	<polyline points="200.899,356.517 94.0015,392.132 " fill="transparent" stroke-width="0.5" stroke="rgb(0,0,255)" />
	<polyline points="208.213,370.155 223.799,357.811 " fill="transparent" stroke-width="0.5" stroke="rgb(0,0,255)" />
	<polyline points="223.799,357.811 228.718,347.776 " fill="transparent" stroke-width="0.5" stroke="rgb(0,0,255)" />
	<polyline points="223.799,357.811 261.326,350 " fill="transparent" stroke-width="0.5" stroke="rgb(0,0,255)" />
	<polyline points="261.326,350 195.916,353.105 " fill="transparent" stroke-width="0.5" stroke="rgb(0,0,255)" />
	<polyline points="261.326,350 260.596,341.546 " fill="transparent" stroke-width="0.5" stroke="rgb(0,0,255)" />
	<polyline points="260.596,341.546 246.672,328.176 " fill="transparent" stroke-width="0.5" stroke="rgb(0,0,255)" />
	<polyline points="246.672,328.176 238.701,314.846 " fill="transparent" stroke-width="0.5" stroke="rgb(0,0,255)" />
	<polyline points="246.672,328.176 254.319,317.724 " fill="transparent" stroke-width="0.5" stroke="rgb(0,0,255)" />
	<polyline points="254.319,317.724 276.317,309.76 " fill="transparent" stroke-width="0.5" stroke="rgb(0,0,255)" />
	<polyline points="254.319,317.724 244.693,304.172 " fill="transparent" stroke-width="0.5" stroke="rgb(0,0,255)" />
	<polyline points="244.693,304.172 241.266,286.127 " fill="transparent" stroke-width="0.5" stroke="rgb(0,0,255)" />
	<polyline points="241.266,286.127 184.275,283.644 " fill="transparent" stroke-width="0.5" stroke="rgb(0,0,255)" />
	<polyline points="184.275,283.644 83.8296,304.394 " fill="transparent" stroke-width="0.5" stroke="rgb(0,0,255)" />
	<polyline points="254.319,317.724 276.429,311.613 " fill="transparent" stroke-width="0.5" stroke="rgb(0,0,255)" />
	<polyline points="276.429,311.613 295.357,301.577 " fill="transparent" stroke-width="0.5" stroke="rgb(0,0,255)" />
	<polyline points="295.357,301.577 309.997,294.143 " fill="transparent" stroke-width="0.5" stroke="rgb(0,0,255)" />
	<polyline points="309.997,294.143 239.373,285.585 " fill="transparent" stroke-width="0.5" stroke="rgb(0,0,255)" />
	<polyline points="309.997,294.143 315.15,284.524 " fill="transparent" stroke-width="0.5" stroke="rgb(0,0,255)" />
	<polyline points="309.997,294.143 324.025,285.236 " fill="transparent" stroke-width="0.5" stroke="rgb(0,0,255)" />
	<polyline points="324.025,285.236 330.355,279.166 " fill="transparent" stroke-width="0.5" stroke="rgb(0,0,255)" />
	<polyline points="330.355,279.166 343.219,268.806 " fill="transparent" stroke-width="0.5" stroke="rgb(0,0,255)" />
	<polyline points="343.219,268.806 232.366,365.263 " fill="transparent" stroke-width="0.5" stroke="rgb(0,0,255)" />
	<polyline points="343.219,268.806 259.698,252.263 " fill="transparent" stroke-width="0.5" stroke="rgb(0,0,255)" />
	<polyline points="259.698,252.263 191.557,307.529 " fill="transparent" stroke-width="0.5" stroke="rgb(0,0,255)" />
	<polyline points="343.219,268.806 344.889,257.331 " fill="transparent" stroke-width="0.5" stroke="rgb(0,0,255)" />
	<polyline points="344.889,257.331 353.674,244.645 " fill="transparent" stroke-width="0.5" stroke="rgb(0,0,255)" />
	<polyline points="353.674,244.645 273.487,271.433 " fill="transparent" stroke-width="0.5" stroke="rgb(0,0,255)" />
	<polyline points="353.674,244.645 342.999,230.517 " fill="transparent" stroke-width="0.5" stroke="rgb(0,0,255)" />
	<polyline points="342.999,230.517 348.199,221.417 " fill="transparent" stroke-width="0.5" stroke="rgb(0,0,255)" />
	<polyline points="348.199,221.417 280.56,238.379 " fill="transparent" stroke-width="0.5" stroke="rgb(0,0,255)" />
	<polyline points="348.199,221.417 376.426,214.457 " fill="transparent" stroke-width="0.5" stroke="rgb(0,0,255)" />
	<polyline points="376.426,214.457 377.636,205.72 " fill="transparent" stroke-width="0.5" stroke="rgb(0,0,255)" />
	<polyline points="377.636,205.72 317.849,204.64 " fill="transparent" stroke-width="0.5" stroke="rgb(0,0,255)" />
	<polyline points="317.849,204.64 314.2,192.724 " fill="transparent" stroke-width="0.5" stroke="rgb(0,0,255)" />
	<polyline points="377.636,205.72 421.154,207.594 " fill="transparent" stroke-width="0.5" stroke="rgb(0,0,255)" />
	<polyline points="421.154,207.594 315.814,243.289 " fill="transparent" stroke-width="0.5" stroke="rgb(0,0,255)" />
	<polyline points="421.154,207.594 407.213,192.394 " fill="transparent" stroke-width="0.5" stroke="rgb(0,0,255)" />
	<polyline points="407.213,192.394 400.435,183.911 " fill="transparent" stroke-width="0.5" stroke="rgb(0,0,255)" />
	<polyline points="400.435,183.911 376.414,174.817 " fill="transparent" stroke-width="0.5" stroke="rgb(0,0,255)" />
	<polyline points="400.435,183.911 422.766,177.912 " fill="transparent" stroke-width="0.5" stroke="rgb(0,0,255)" />
	<polyline points="422.766,177.912 436.877,166.546 " fill="transparent" stroke-width="0.5" stroke="rgb(0,0,255)" />
	<polyline points="436.877,166.546 427.332,149.51 " fill="transparent" stroke-width="0.5" stroke="rgb(0,0,255)" />
	<polyline points="436.877,166.546 430.355,150.99 " fill="transparent" stroke-width="0.5" stroke="rgb(0,0,255)" />
	<polyline points="430.355,150.99 430.463,138.221 " fill="transparent" stroke-width="0.5" stroke="rgb(0,0,255)" />
	<polyline points="430.463,138.221 429.303,125.289 " fill="transparent" stroke-width="0.5" stroke="rgb(0,0,255)" />
	<polyline points="429.303,125.289 438.797,107.401 " fill="transparent" stroke-width="0.5" stroke="rgb(0,0,255)" />
	<polyline points="438.797,107.401 446.814,89.1776 " fill="transparent" stroke-width="0.5" stroke="rgb(0,0,255)" />
	<polyline points="429.303,125.289 423.433,109.368 " fill="transparent" stroke-width="0.5" stroke="rgb(0,0,255)" />
	<polyline points="423.433,109.368 418.041,101.113 " fill="transparent" stroke-width="0.5" stroke="rgb(0,0,255)" />
	<polyline points="423.433,109.368 389.401,104.613 " fill="transparent" stroke-width="0.5" stroke="rgb(0,0,255)" />
	<polyline points="429.303,125.289 447.574,227.941 " fill="transparent" stroke-width="0.5" stroke="rgb(0,0,255)" />
	<polyline points="447.574,227.941 385.301,263.059 " fill="transparent" stroke-width="0.5" stroke="rgb(0,0,255)" />
	<polyline points="407.213,192.394 341.753,210.798 " fill="transparent" stroke-width="0.5" stroke="rgb(0,0,255)" />
	<polyline points="421.154,207.594 480.312,206.44 " fill="transparent" stroke-width="0.5" stroke="rgb(0,0,255)" />
	<polyline points="480.312,206.44 471.847,190.587 " fill="transparent" stroke-width="0.5" stroke="rgb(0,0,255)" />
	<polyline points="471.847,190.587 430.217,269.29 " fill="transparent" stroke-width="0.5" stroke="rgb(0,0,255)" />
	<polyline points="471.847,190.587 477.404,180.302 " fill="transparent" stroke-width="0.5" stroke="rgb(0,0,255)" />
	<polyline points="377.636,205.72 256.207,239.598 " fill="transparent" stroke-width="0.5" stroke="rgb(0,0,255)" />
	<polyline points="376.426,214.457 317.711,259.748 " fill="transparent" stroke-width="0.5" stroke="rgb(0,0,255)" />
	<polyline points="317.711,259.748 212.386,298.59 " fill="transparent" stroke-width="0.5" stroke="rgb(0,0,255)" />
	<polyline points="376.426,214.457 286.816,263.171 " fill="transparent" stroke-width="0.5" stroke="rgb(0,0,255)" />
	<polyline points="348.199,221.417 262.91,207.062 " fill="transparent" stroke-width="0.5" stroke="rgb(0,0,255)" />
	<polyline points="262.91,207.062 274.25,196.862 " fill="transparent" stroke-width="0.5" stroke="rgb(0,0,255)" />
	<polyline points="274.25,196.862 260.025,178.412 " fill="transparent" stroke-width="0.5" stroke="rgb(0,0,255)" />
	<polyline points="260.025,178.412 260.913,167.087 " fill="transparent" stroke-width="0.5" stroke="rgb(0,0,255)" />
	<polyline points="260.913,167.087 269.82,158.098 " fill="transparent" stroke-width="0.5" stroke="rgb(0,0,255)" />
	<polyline points="269.82,158.098 279.837,153.238 " fill="transparent" stroke-width="0.5" stroke="rgb(0,0,255)" />
	<polyline points="260.913,167.087 244.451,144.645 " fill="transparent" stroke-width="0.5" stroke="rgb(0,0,255)" />
	<polyline points="244.451,144.645 165.623,109.634 " fill="transparent" stroke-width="0.5" stroke="rgb(0,0,255)" />
	<polyline points="165.623,109.634 199.05,109.019 " fill="transparent" stroke-width="0.5" stroke="rgb(0,0,255)" />
	<polyline points="199.05,109.019 203.587,100.429 " fill="transparent" stroke-width="0.5" stroke="rgb(0,0,255)" />
	<polyline points="165.623,109.634 180.297,101.272 " fill="transparent" stroke-width="0.5" stroke="rgb(0,0,255)" />
	<polyline points="262.91,207.062 223.466,187.117 " fill="transparent" stroke-width="0.5" stroke="rgb(0,0,255)" />
	<polyline points="223.466,187.117 206.857,164.025 " fill="transparent" stroke-width="0.5" stroke="rgb(0,0,255)" />
	<polyline points="206.857,164.025 145.325,133.236 " fill="transparent" stroke-width="0.5" stroke="rgb(0,0,255)" />
	<polyline points="223.466,187.117 162.359,180.049 " fill="transparent" stroke-width="0.5" stroke="rgb(0,0,255)" />
	<polyline points="162.359,180.049 179.341,170.114 " fill="transparent" stroke-width="0.5" stroke="rgb(0,0,255)" />
	<polyline points="162.359,180.049 149.02,160.51 " fill="transparent" stroke-width="0.5" stroke="rgb(0,0,255)" />
	<polyline points="262.91,207.062 142.626,288.715 " fill="transparent" stroke-width="0.5" stroke="rgb(0,0,255)" />
	<polyline points="142.626,288.715 19.821,319.128 " fill="transparent" stroke-width="0.5" stroke="rgb(0,0,255)" />
	<polyline points="348.199,221.417 281.494,281.078 " fill="transparent" stroke-width="0.5" stroke="rgb(0,0,255)" />
	<polyline points="348.199,221.417 257.968,268.718 " fill="transparent" stroke-width="0.5" stroke="rgb(0,0,255)" />
	<polyline points="353.674,244.645 271.2,231.627 " fill="transparent" stroke-width="0.5" stroke="rgb(0,0,255)" />
	<polyline points="330.355,279.166 209.408,281.415 " fill="transparent" stroke-width="0.5" stroke="rgb(0,0,255)" />
	<polyline points="295.357,301.577 213.267,293.146 " fill="transparent" stroke-width="0.5" stroke="rgb(0,0,255)" />
	<polyline points="213.267,293.146 224.323,279.926 " fill="transparent" stroke-width="0.5" stroke="rgb(0,0,255)" />
	<polyline points="213.267,293.146 201.275,277.606 " fill="transparent" stroke-width="0.5" stroke="rgb(0,0,255)" />
	<polyline points="201.275,277.606 118.658,278.005 " fill="transparent" stroke-width="0.5" stroke="rgb(0,0,255)" />
	<polyline points="118.658,278.005 58.4752,310.698 " fill="transparent" stroke-width="0.5" stroke="rgb(0,0,255)" />
	<polyline points="118.658,278.005 55.8227,355.387 " fill="transparent" stroke-width="0.5" stroke="rgb(0,0,255)" />
	<polyline points="118.658,278.005 124.496,267.028 " fill="transparent" stroke-width="0.5" stroke="rgb(0,0,255)" />
	<polyline points="118.658,278.005 111.379,257.423 " fill="transparent" stroke-width="0.5" stroke="rgb(0,0,255)" />
	<polyline points="111.379,257.423 128.466,246.309 " fill="transparent" stroke-width="0.5" stroke="rgb(0,0,255)" />
	<polyline points="128.466,246.309 124.274,235.054 " fill="transparent" stroke-width="0.5" stroke="rgb(0,0,255)" />
	<polyline points="124.274,235.054 114.441,216.711 " fill="transparent" stroke-width="0.5" stroke="rgb(0,0,255)" />
	<polyline points="114.441,216.711 145.97,215.285 " fill="transparent" stroke-width="0.5" stroke="rgb(0,0,255)" />
	<polyline points="145.97,215.285 118.635,198.73 " fill="transparent" stroke-width="0.5" stroke="rgb(0,0,255)" />
	<polyline points="118.635,198.73 129.127,190.073 " fill="transparent" stroke-width="0.5" stroke="rgb(0,0,255)" />
	<polyline points="129.127,190.073 139.211,179.589 " fill="transparent" stroke-width="0.5" stroke="rgb(0,0,255)" />
	<polyline points="129.127,190.073 172.534,240.791 " fill="transparent" stroke-width="0.5" stroke="rgb(0,0,255)" />
	<polyline points="118.635,198.73 61.2773,183.65 " fill="transparent" stroke-width="0.5" stroke="rgb(0,0,255)" />
	<polyline points="61.2773,183.65 55.777,175.521 " fill="transparent" stroke-width="0.5" stroke="rgb(0,0,255)" />
	<polyline points="55.777,175.521 32.4489,171.809 " fill="transparent" stroke-width="0.5" stroke="rgb(0,0,255)" />
	<polyline points="55.777,175.521 64.2361,163.808 " fill="transparent" stroke-width="0.5" stroke="rgb(0,0,255)" />
	<polyline points="64.2361,163.808 70.4366,150.456 " fill="transparent" stroke-width="0.5" stroke="rgb(0,0,255)" />
	<polyline points="70.4366,150.456 99.3114,138.311 " fill="transparent" stroke-width="0.5" stroke="rgb(0,0,255)" />
	<polyline points="99.3114,138.311 98.2553,124.555 " fill="transparent" stroke-width="0.5" stroke="rgb(0,0,255)" />
	<polyline points="98.2553,124.555 170.116,162.712 " fill="transparent" stroke-width="0.5" stroke="rgb(0,0,255)" />
	<polyline points="98.2553,124.555 164.065,233.935 " fill="transparent" stroke-width="0.5" stroke="rgb(0,0,255)" />
	<polyline points="70.4366,150.456 127.225,232.607 " fill="transparent" stroke-width="0.5" stroke="rgb(0,0,255)" />
	<polyline points="55.777,175.521 43.4363,169.027 " fill="transparent" stroke-width="0.5" stroke="rgb(0,0,255)" />
	<polyline points="43.4363,169.027 39.7895,157.395 " fill="transparent" stroke-width="0.5" stroke="rgb(0,0,255)" />
	<polyline points="39.7895,157.395 54.2206,143.57 " fill="transparent" stroke-width="0.5" stroke="rgb(0,0,255)" />
	<polyline points="39.7895,157.395 114.573,219.584 " fill="transparent" stroke-width="0.5" stroke="rgb(0,0,255)" />
	<polyline points="61.2773,183.65 144.121,274.362 " fill="transparent" stroke-width="0.5" stroke="rgb(0,0,255)" />
	<polyline points="144.121,274.362 162.533,264.383 " fill="transparent" stroke-width="0.5" stroke="rgb(0,0,255)" />
	<polyline points="144.121,274.362 152.396,258.545 " fill="transparent" stroke-width="0.5" stroke="rgb(0,0,255)" />
	<polyline points="114.441,216.711 201.876,285.579 " fill="transparent" stroke-width="0.5" stroke="rgb(0,0,255)" />
	<polyline points="124.274,235.054 144.524,232.959 " fill="transparent" stroke-width="0.5" stroke="rgb(0,0,255)" />
	<polyline points="144.524,232.959 179.232,232.593 " fill="transparent" stroke-width="0.5" stroke="rgb(0,0,255)" />
	<polyline points="179.232,232.593 200.087,224.087 " fill="transparent" stroke-width="0.5" stroke="rgb(0,0,255)" />
	<polyline points="200.087,224.087 146.803,195.818 " fill="transparent" stroke-width="0.5" stroke="rgb(0,0,255)" />
	<polyline points="179.232,232.593 206.351,229.39 " fill="transparent" stroke-width="0.5" stroke="rgb(0,0,255)" />
	<polyline points="206.351,229.39 234.045,223.328 " fill="transparent" stroke-width="0.5" stroke="rgb(0,0,255)" />
	<polyline points="234.045,223.328 128.171,241.221 " fill="transparent" stroke-width="0.5" stroke="rgb(0,0,255)" />
	<polyline points="206.351,229.39 103.313,242.133 " fill="transparent" stroke-width="0.5" stroke="rgb(0,0,255)" />
	<polyline points="206.351,229.39 102.199,247.88 " fill="transparent" stroke-width="0.5" stroke="rgb(0,0,255)" />
	<polyline points="206.351,229.39 147.135,224.574 " fill="transparent" stroke-width="0.5" stroke="rgb(0,0,255)" />
	<polyline points="111.379,257.423 19.8124,345.098 " fill="transparent" stroke-width="0.5" stroke="rgb(0,0,255)" />
	<polyline points="19.8124,345.098 40.5172,327.246 " fill="transparent" stroke-width="0.5" stroke="rgb(0,0,255)" />
	<polyline points="19.8124,345.098 47.4455,326.913 " fill="transparent" stroke-width="0.5" stroke="rgb(0,0,255)" />
	<polyline points="295.357,301.577 235.739,342.344 " fill="transparent" stroke-width="0.5" stroke="rgb(0,0,255)" />
	<polyline points="235.739,342.344 246.609,332.151 " fill="transparent" stroke-width="0.5" stroke="rgb(0,0,255)" />
	<polyline points="276.429,311.613 170.747,409.379 " fill="transparent" stroke-width="0.5" stroke="rgb(0,0,255)" />
	<polyline points="170.747,409.379 118.326,419.508 " fill="transparent" stroke-width="0.5" stroke="rgb(0,0,255)" />
	<polyline points="246.672,328.176 160.123,327.542 " fill="transparent" stroke-width="0.5" stroke="rgb(0,0,255)" />
	<polyline points="160.123,327.542 178.826,316.281 " fill="transparent" stroke-width="0.5" stroke="rgb(0,0,255)" />
	<polyline points="178.826,316.281 57.6309,367.009 " fill="transparent" stroke-width="0.5" stroke="rgb(0,0,255)" />
	<polyline points="223.799,357.811 143.3,357.423 " fill="transparent" stroke-width="0.5" stroke="rgb(0,0,255)" />
	<polyline points="143.3,357.423 150.193,337.606 " fill="transparent" stroke-width="0.5" stroke="rgb(0,0,255)" />
	<polyline points="223.799,357.811 153.958,369.866 " fill="transparent" stroke-width="0.5" stroke="rgb(0,0,255)" />
	<polyline points="153.958,369.866 102.485,364.692 " fill="transparent" stroke-width="0.5" stroke="rgb(0,0,255)" />
	<polyline points="102.485,364.692 91.6193,352.252 " fill="transparent" stroke-width="0.5" stroke="rgb(0,0,255)" />
	<polyline points="91.6193,352.252 70.5203,331.402 " fill="transparent" stroke-width="0.5" stroke="rgb(0,0,255)" />
	<polyline points="223.799,357.811 151.51,377.999 " fill="transparent" stroke-width="0.5" stroke="rgb(0,0,255)" />
	<polyline points="208.213,370.155 119.549,433.222 " fill="transparent" stroke-width="0.5" stroke="rgb(0,0,255)" />
	<polyline points="119.549,433.222 135.618,413.771 " fill="transparent" stroke-width="0.5" stroke="rgb(0,0,255)" />
	<polyline points="208.213,370.155 149.88,383.358 " fill="transparent" stroke-width="0.5" stroke="rgb(0,0,255)" />
	<polyline points="149.88,383.358 127.068,365.796 " fill="transparent" stroke-width="0.5" stroke="rgb(0,0,255)" />
	<polyline points="139.107,365.488 114.618,351.886 " fill="transparent" stroke-width="0.5" stroke="rgb(0,0,255)" />
	<polyline points="114.618,351.886 24.9496,403.929 " fill="transparent" stroke-width="0.5" stroke="rgb(0,0,255)" />
	<polyline points="114.618,351.886 113.072,333.789 " fill="transparent" stroke-width="0.5" stroke="rgb(0,0,255)" />
	<polyline points="113.072,333.789 31.5978,375.446 " fill="transparent" stroke-width="0.5" stroke="rgb(0,0,255)" />
	<polyline points="113.072,333.789 93.4693,318.331 " fill="transparent" stroke-width="0.5" stroke="rgb(0,0,255)" />
	<polyline points="93.4693,318.331 4.89779,304.548 " fill="transparent" stroke-width="0.5" stroke="rgb(0,0,255)" />
	<polyline points="4.89779,304.548 3.07156,282.609 " fill="transparent" stroke-width="0.5" stroke="rgb(0,0,255)" />
	<polyline points="3.07156,282.609 13.59,263.936 " fill="transparent" stroke-width="0.5" stroke="rgb(0,0,255)" />
	<polyline points="13.59,263.936 21.3944,255.259 " fill="transparent" stroke-width="0.5" stroke="rgb(0,0,255)" />
	<polyline points="13.59,263.936 6.53695,254.202 " fill="transparent" stroke-width="0.5" stroke="rgb(0,0,255)" />
	<polyline points="6.53695,254.202 6.53801,236.516 " fill="transparent" stroke-width="0.5" stroke="rgb(0,0,255)" />
	<polyline points="6.53801,236.516 10.1763,228.104 " fill="transparent" stroke-width="0.5" stroke="rgb(0,0,255)" />
	<polyline points="6.53801,236.516 37.6686,301.641 " fill="transparent" stroke-width="0.5" stroke="rgb(0,0,255)" />
	<polyline points="4.89779,304.548 18.1622,415.222 " fill="transparent" stroke-width="0.5" stroke="rgb(0,0,255)" />
	<polyline points="18.1622,415.222 20.2625,394.779 " fill="transparent" stroke-width="0.5" stroke="rgb(0,0,255)" />
	<polyline points="93.4693,318.331 49.7211,310.608 " fill="transparent" stroke-width="0.5" stroke="rgb(0,0,255)" />
	<polyline points="49.7211,310.608 40.3525,295.532 " fill="transparent" stroke-width="0.5" stroke="rgb(0,0,255)" />
	<polyline points="40.3525,295.532 33.1767,272.909 " fill="transparent" stroke-width="0.5" stroke="rgb(0,0,255)" />
	<polyline points="40.3525,295.532 16.0887,278.777 " fill="transparent" stroke-width="0.5" stroke="rgb(0,0,255)" />
	<polyline points="16.0887,278.777 30.3354,262.76 " fill="transparent" stroke-width="0.5" stroke="rgb(0,0,255)" />
	<polyline points="30.3354,262.76 22.3273,250.595 " fill="transparent" stroke-width="0.5" stroke="rgb(0,0,255)" />
	<polyline points="49.7211,310.608 53.7013,395.443 " fill="transparent" stroke-width="0.5" stroke="rgb(0,0,255)" />
	<polyline points="53.7013,395.443 61.8599,370.341 " fill="transparent" stroke-width="0.5" stroke="rgb(0,0,255)" />
	<polyline points="113.072,333.789 161.013,330.534 " fill="transparent" stroke-width="0.5" stroke="rgb(0,0,255)" />
	<polyline points="161.013,330.534 163.372,320.887 " fill="transparent" stroke-width="0.5" stroke="rgb(0,0,255)" />
	<polyline points="161.013,330.534 188.338,319.9 " fill="transparent" stroke-width="0.5" stroke="rgb(0,0,255)" />
	<polyline points="188.338,319.9 205.703,311.169 " fill="transparent" stroke-width="0.5" stroke="rgb(0,0,255)" />
	<polyline points="188.338,319.9 189.342,302.841 " fill="transparent" stroke-width="0.5" stroke="rgb(0,0,255)" />
	<polyline points="189.342,302.841 180.491,281.554 " fill="transparent" stroke-width="0.5" stroke="rgb(0,0,255)" />
	<polyline points="161.013,330.534 119.271,406.371 " fill="transparent" stroke-width="0.5" stroke="rgb(0,0,255)" />
	<polyline points="113.072,333.789 36.1356,449.419 " fill="transparent" stroke-width="0.5" stroke="rgb(0,0,255)" />
	<polyline points="36.1356,449.419 28.8828,422.011 " fill="transparent" stroke-width="0.5" stroke="rgb(0,0,255)" />
	<polyline points="83.3333,416.667 161.267,464.836 " fill="transparent" stroke-width="0.5" stroke="rgb(0,0,255)" />
	<polyline points="161.267,464.836 152.427,451.537 " fill="transparent" stroke-width="0.5" stroke="rgb(0,0,255)" />
	<polyline points="161.267,464.836 104.563,465.983 " fill="transparent" stroke-width="0.5" stroke="rgb(0,0,255)" />
	<polyline points="161.267,464.836 170.353,444.05 " fill="transparent" stroke-width="0.5" stroke="rgb(0,0,255)" />
	<polyline points="161.267,464.836 200.208,450.231 " fill="transparent" stroke-width="0.5" stroke="rgb(0,0,255)" />
	<polyline points="200.208,450.231 194.47,435.517 " fill="transparent" stroke-width="0.5" stroke="rgb(0,0,255)" />
	<polyline points="200.208,450.231 199.624,437.094 " fill="transparent" stroke-width="0.5" stroke="rgb(0,0,255)" />
	<polyline points="200.208,450.231 208.645,436.907 " fill="transparent" stroke-width="0.5" stroke="rgb(0,0,255)" />
	<polyline points="208.645,436.907 208.148,422.122 " fill="transparent" stroke-width="0.5" stroke="rgb(0,0,255)" />
	<polyline points="208.645,436.907 139.946,449.784 " fill="transparent" stroke-width="0.5" stroke="rgb(0,0,255)" />
	<polyline points="139.946,449.784 132.484,430.955 " fill="transparent" stroke-width="0.5" stroke="rgb(0,0,255)" />
	<polyline points="200.208,450.231 271.924,454.439 " fill="transparent" stroke-width="0.5" stroke="rgb(0,0,255)" />
	<polyline points="271.924,454.439 274.501,439.581 " fill="transparent" stroke-width="0.5" stroke="rgb(0,0,255)" />
	<polyline points="271.924,454.439 262.104,440.331 " fill="transparent" stroke-width="0.5" stroke="rgb(0,0,255)" />
	<polyline points="262.104,440.331 193.976,440.256 " fill="transparent" stroke-width="0.5" stroke="rgb(0,0,255)" />
	<polyline points="271.924,454.439 285.831,446.213 " fill="transparent" stroke-width="0.5" stroke="rgb(0,0,255)" />
	<polyline points="271.924,454.439 306.416,449.302 " fill="transparent" stroke-width="0.5" stroke="rgb(0,0,255)" />
	<polyline points="306.416,449.302 208.583,480.111 " fill="transparent" stroke-width="0.5" stroke="rgb(0,0,255)" />
	<polyline points="208.583,480.111 194.182,471.401 " fill="transparent" stroke-width="0.5" stroke="rgb(0,0,255)" />
	<polyline points="306.416,449.302 358.306,452.425 " fill="transparent" stroke-width="0.5" stroke="rgb(0,0,255)" />
	<polyline points="358.306,452.425 349.07,438.701 " fill="transparent" stroke-width="0.5" stroke="rgb(0,0,255)" />
	<polyline points="358.306,452.425 304.169,465.448 " fill="transparent" stroke-width="0.5" stroke="rgb(0,0,255)" />
	<polyline points="306.416,449.302 354.647,436.568 " fill="transparent" stroke-width="0.5" stroke="rgb(0,0,255)" />
	<polyline points="354.647,436.568 358.116,425.12 " fill="transparent" stroke-width="0.5" stroke="rgb(0,0,255)" />
	<polyline points="354.647,436.568 363.397,429.492 " fill="transparent" stroke-width="0.5" stroke="rgb(0,0,255)" />
	<polyline points="363.397,429.492 368.836,418.266 " fill="transparent" stroke-width="0.5" stroke="rgb(0,0,255)" />
	<polyline points="368.836,418.266 302.649,422.765 " fill="transparent" stroke-width="0.5" stroke="rgb(0,0,255)" />
	<polyline points="368.836,418.266 393.635,408.646 " fill="transparent" stroke-width="0.5" stroke="rgb(0,0,255)" />
	<polyline points="393.635,408.646 395.356,396.595 " fill="transparent" stroke-width="0.5" stroke="rgb(0,0,255)" />
	<polyline points="393.635,408.646 422.104,398.709 " fill="transparent" stroke-width="0.5" stroke="rgb(0,0,255)" />
	<polyline points="422.104,398.709 428.458,391.275 " fill="transparent" stroke-width="0.5" stroke="rgb(0,0,255)" />
	<polyline points="428.458,391.275 463.455,381.981 " fill="transparent" stroke-width="0.5" stroke="rgb(0,0,255)" />
	<polyline points="428.458,391.275 375.977,380.289 " fill="transparent" stroke-width="0.5" stroke="rgb(0,0,255)" />
	<polyline points="422.104,398.709 427.247,389.905 " fill="transparent" stroke-width="0.5" stroke="rgb(0,0,255)" />
	<polyline points="422.104,398.709 433.397,490.255 " fill="transparent" stroke-width="0.5" stroke="rgb(0,0,255)" />
	<polyline points="433.397,490.255 439.593,483.299 " fill="transparent" stroke-width="0.5" stroke="rgb(0,0,255)" />
	<polyline points="439.593,483.299 386.295,496.237 " fill="transparent" stroke-width="0.5" stroke="rgb(0,0,255)" />
	<polyline points="439.593,483.299 378.922,484.268 " fill="transparent" stroke-width="0.5" stroke="rgb(0,0,255)" />
	<polyline points="439.593,483.299 403.958,482.208 " fill="transparent" stroke-width="0.5" stroke="rgb(0,0,255)" />
	<polyline points="403.958,482.208 397.498,470.721 " fill="transparent" stroke-width="0.5" stroke="rgb(0,0,255)" />
	<polyline points="422.104,398.709 421.3,390.929 " fill="transparent" stroke-width="0.5" stroke="rgb(0,0,255)" />
	<polyline points="421.3,390.929 398.345,385.149 " fill="transparent" stroke-width="0.5" stroke="rgb(0,0,255)" />
	<polyline points="421.3,390.929 410.817,377.57 " fill="transparent" stroke-width="0.5" stroke="rgb(0,0,255)" />
	<polyline points="410.817,377.57 420.83,365.219 " fill="transparent" stroke-width="0.5" stroke="rgb(0,0,255)" />
	<polyline points="420.83,365.219 418.442,357.185 " fill="transparent" stroke-width="0.5" stroke="rgb(0,0,255)" />
	<polyline points="418.442,357.185 457.6,349.904 " fill="transparent" stroke-width="0.5" stroke="rgb(0,0,255)" />
	<polyline points="457.6,349.904 481.645,340.15 " fill="transparent" stroke-width="0.5" stroke="rgb(0,0,255)" />
	<polyline points="481.645,340.15 490.506,334.825 " fill="transparent" stroke-width="0.5" stroke="rgb(0,0,255)" />
	<polyline points="481.645,340.15 477.925,332.221 " fill="transparent" stroke-width="0.5" stroke="rgb(0,0,255)" />
	<polyline points="457.6,349.904 389.322,341.064 " fill="transparent" stroke-width="0.5" stroke="rgb(0,0,255)" />
	<polyline points="389.322,341.064 387.656,328.481 " fill="transparent" stroke-width="0.5" stroke="rgb(0,0,255)" />
	<polyline points="457.6,349.904 453.626,339.352 " fill="transparent" stroke-width="0.5" stroke="rgb(0,0,255)" />
	<polyline points="453.626,339.352 370.87,347.8 " fill="transparent" stroke-width="0.5" stroke="rgb(0,0,255)" />
	<polyline points="370.87,347.8 289.295,356.251 " fill="transparent" stroke-width="0.5" stroke="rgb(0,0,255)" />
	<polyline points="453.626,339.352 377.246,378.437 " fill="transparent" stroke-width="0.5" stroke="rgb(0,0,255)" />
	<polyline points="418.442,357.185 322.411,372.122 " fill="transparent" stroke-width="0.5" stroke="rgb(0,0,255)" />
	<polyline points="418.442,357.185 316.572,393.881 " fill="transparent" stroke-width="0.5" stroke="rgb(0,0,255)" />
	<polyline points="316.572,393.881 286.99,384.024 " fill="transparent" stroke-width="0.5" stroke="rgb(0,0,255)" />
	<polyline points="286.99,384.024 276.969,374.04 " fill="transparent" stroke-width="0.5" stroke="rgb(0,0,255)" />
	<polyline points="316.572,393.881 230.175,467.729 " fill="transparent" stroke-width="0.5" stroke="rgb(0,0,255)" />
	<polyline points="418.442,357.185 342.021,379.708 " fill="transparent" stroke-width="0.5" stroke="rgb(0,0,255)" />
	<polyline points="342.021,379.708 344.571,366.795 " fill="transparent" stroke-width="0.5" stroke="rgb(0,0,255)" />
	<polyline points="410.817,377.57 331.038,387.73 " fill="transparent" stroke-width="0.5" stroke="rgb(0,0,255)" />
	<polyline points="368.836,418.266 307.233,425.696 " fill="transparent" stroke-width="0.5" stroke="rgb(0,0,255)" />
	<polyline points="307.233,425.696 203.062,470.692 " fill="transparent" stroke-width="0.5" stroke="rgb(0,0,255)" />
	<polyline points="203.062,470.692 178.291,464.272 " fill="transparent" stroke-width="0.5" stroke="rgb(0,0,255)" />
	<polyline points="83.3333,416.667 41.266,486.962 " fill="transparent" stroke-width="0.5" stroke="rgb(0,0,255)" />
	<polyline points="41.266,486.962 57.4549,459.755 " fill="transparent" stroke-width="0.5" stroke="rgb(0,0,255)" />
	<polyline points="57.4549,459.755 61.5059,438.778 " fill="transparent" stroke-width="0.5" stroke="rgb(0,0,255)" />
	<polyline points="57.4549,459.755 103.428,447.564 " fill="transparent" stroke-width="0.5" stroke="rgb(0,0,255)" />
	<polyline points="103.428,447.564 52.0016,470.977 " fill="transparent" stroke-width="0.5" stroke="rgb(0,0,255)" />
	<polyline points="52.0016,470.977 85.4519,445.513 " fill="transparent" stroke-width="0.5" stroke="rgb(0,0,255)" />
	<circle cx="83.3333" cy="416.667" r="2" fill="rgb(255,0,0)" />
	<circle cx="416.667" cy="83.3333" r="2" fill="rgb(0,255,0)" />
	<polyline points="83.3333,416.667 100.919,396.34 115.653,374.941 122.49,360.233 105.834,345.67 65.9121,337.43 35.063,313.237 42.7688,303.327 26.9363,281.474 46.4528,273.398 41.6164,258.377 66.67,245.611 64.8362,233.527 101.363,223.274 121.326,220.003 118.975,205.526 113.271,184.9 77.9644,171.7 89.1253,163.869 138.702,161.558 150.763,154.225 149.192,144.186 158.321,128.358 184.065,123.539 216.182,128.633 267.99,146.613 309.659,153.161 318.723,144.318 363.499,151.066 367.654,141.026 408.468,132.195 437.18,113.762 427.185,100.971 420.709,93.1514 415.827,78.9463 " fill="transparent" stroke-width="3" stroke="rgb(0,0,0)" />
</svg>
