<?xml version="1.0" standalone="no" ?>
<!DOCTYPE svg PUBLIC "-//W3C//DTD SVG 1.1//EN" "http://www.w3.org/Graphics/SVG/1.1/DTD/svg11.dtd">
<svg width="500px" height="500px" xmlns="http://www.w3.org/2000/svg" version="1.1" >
	<polyline points="83.3333,416.667 82.4925,404.354 " fill="transparent" stroke-width="0.5" stroke="rgb(0,0,255)" />
	<polyline points="82.4925,404.354 26.6153,385.042 " fill="transparent" stroke-width="0.5" stroke="rgb(0,0,255)" />
	<polyline points="82.4925,404.354 97.006,386.483 " fill="transparent" stroke-width="0.5" stroke="rgb(0,0,255)" />
	<polyline points="97.006,386.483 96.9733,365.298 " fill="transparent" stroke-width="0.5" stroke="rgb(0,0,255)" />
	<polyline points="96.9733,365.298 88.787,352.831 " fill="transparent" stroke-width="0.5" stroke="rgb(0,0,255)" />
	<polyline points="96.9733,365.298 27.4715,448.532 " fill="transparent" stroke-width="0.5" stroke="rgb(0,0,255)" />
	<polyline points="97.006,386.483 7.05462,383.711 " fill="transparent" stroke-width="0.5" stroke="rgb(0,0,255)" />
	<polyline points="7.05462,383.711 11.0734,355.605 " fill="transparent" stroke-width="0.5" stroke="rgb(0,0,255)" />
	<polyline points="11.0734,355.605 23.1746,336.871 " fill="transparent" stroke-width="0.5" stroke="rgb(0,0,255)" />
	<polyline points="23.1746,336.871 27.63,317.868 " fill="transparent" stroke-width="0.5" stroke="rgb(0,0,255)" />
	<polyline points="11.0734,355.605 10.4121,342.019 " fill="transparent" stroke-width="0.5" stroke="rgb(0,0,255)" />
	<polyline points="10.4121,342.019 11.6721,424.836 " fill="transparent" stroke-width="0.5" stroke="rgb(0,0,255)" />
	<polyline points="11.6721,424.836 5.0428,410.022 " fill="transparent" stroke-width="0.5" stroke="rgb(0,0,255)" />
	<polyline points="10.4121,342.019 84.0606,355.546 " fill="transparent" stroke-width="0.5" stroke="rgb(0,0,255)" />
	<polyline points="10.4121,342.019 2.25696,438.024 " fill="transparent" stroke-width="0.5" stroke="rgb(0,0,255)" />
	<polyline points="11.0734,355.605 22.0766,465.119 " fill="transparent" stroke-width="0.5" stroke="rgb(0,0,255)" />
	<polyline points="22.0766,465.119 41.7742,448.49 " fill="transparent" stroke-width="0.5" stroke="rgb(0,0,255)" />
	<polyline points="97.006,386.483 165.069,383.283 " fill="transparent" stroke-width="0.5" stroke="rgb(0,0,255)" />
	<polyline points="165.069,383.283 152.821,366.271 " fill="transparent" stroke-width="0.5" stroke="rgb(0,0,255)" />
	<polyline points="152.821,366.271 75.1533,378.503 " fill="transparent" stroke-width="0.5" stroke="rgb(0,0,255)" />
	<polyline points="152.821,366.271 151.711,353.693 " fill="transparent" stroke-width="0.5" stroke="rgb(0,0,255)" />
	<polyline points="151.711,353.693 175.821,338.432 " fill="transparent" stroke-width="0.5" stroke="rgb(0,0,255)" />
	<polyline points="175.821,338.432 156.329,317.857 " fill="transparent" stroke-width="0.5" stroke="rgb(0,0,255)" />
	<polyline points="156.329,317.857 135.356,295.812 " fill="transparent" stroke-width="0.5" stroke="rgb(0,0,255)" />
	<polyline points="135.356,295.812 119.493,273.674 " fill="transparent" stroke-width="0.5" stroke="rgb(0,0,255)" />
	<polyline points="135.356,295.812 116.883,275.509 " fill="transparent" stroke-width="0.5" stroke="rgb(0,0,255)" />
	<polyline points="116.883,275.509 9.7146,333.202 " fill="transparent" stroke-width="0.5" stroke="rgb(0,0,255)" />
	<polyline points="116.883,275.509 48.0765,257.191 " fill="transparent" stroke-width="0.5" stroke="rgb(0,0,255)" />
	<polyline points="48.0765,257.191 20.7633,248.148 " fill="transparent" stroke-width="0.5" stroke="rgb(0,0,255)" />
	<polyline points="48.0765,257.191 106.285,332.364 " fill="transparent" stroke-width="0.5" stroke="rgb(0,0,255)" />
	<polyline points="48.0765,257.191 60.4139,243.432 " fill="transparent" stroke-width="0.5" stroke="rgb(0,0,255)" />
	<polyline points="48.0765,257.191 70.9446,246.165 " fill="transparent" stroke-width="0.5" stroke="rgb(0,0,255)" />
	<polyline points="70.9446,246.165 115.528,349.968 " fill="transparent" stroke-width="0.5" stroke="rgb(0,0,255)" />
	<polyline points="115.528,349.968 138.142,337.807 " fill="transparent" stroke-width="0.5" stroke="rgb(0,0,255)" />
	<polyline points="70.9446,246.165 68.9318,390.034 " fill="transparent" stroke-width="0.5" stroke="rgb(0,0,255)" />
	<polyline points="156.329,317.857 58.773,352.402 " fill="transparent" stroke-width="0.5" stroke="rgb(0,0,255)" />
	<polyline points="58.773,352.402 69.7477,339.989 " fill="transparent" stroke-width="0.5" stroke="rgb(0,0,255)" />
	<polyline points="156.329,317.857 94.7748,334.088 " fill="transparent" stroke-width="0.5" stroke="rgb(0,0,255)" />
	<polyline points="94.7748,334.088 99.4267,321.406 " fill="transparent" stroke-width="0.5" stroke="rgb(0,0,255)" />
	<polyline points="156.329,317.857 46.9374,354.416 " fill="transparent" stroke-width="0.5" stroke="rgb(0,0,255)" />
	<polyline points="156.329,317.857 92.8776,430.028 " fill="transparent" stroke-width="0.5" stroke="rgb(0,0,255)" />
	<polyline points="92.8776,430.028 10.6037,443.033 " fill="transparent" stroke-width="0.5" stroke="rgb(0,0,255)" />
	<polyline points="92.8776,430.028 100.27,408.703 " fill="transparent" stroke-width="0.5" stroke="rgb(0,0,255)" />
	<polyline points="151.711,353.693 61.4679,408.943 " fill="transparent" stroke-width="0.5" stroke="rgb(0,0,255)" />
	<polyline points="152.821,366.271 42.888,435.319 " fill="transparent" stroke-width="0.5" stroke="rgb(0,0,255)" />
	<polyline points="42.888,435.319 48.8165,413.548 " fill="transparent" stroke-width="0.5" stroke="rgb(0,0,255)" />
	<polyline points="152.821,366.271 97.9999,406.149 " fill="transparent" stroke-width="0.5" stroke="rgb(0,0,255)" />
	<polyline points="97.9999,406.149 102.426,387.592 " fill="transparent" stroke-width="0.5" stroke="rgb(0,0,255)" />
	<polyline points="97.9999,406.149 30.9954,413.358 " fill="transparent" stroke-width="0.5" stroke="rgb(0,0,255)" />
	<polyline points="30.9954,413.358 44.3193,386.722 " fill="transparent" stroke-width="0.5" stroke="rgb(0,0,255)" />
	<polyline points="30.9954,413.358 34.9323,399.447 " fill="transparent" stroke-width="0.5" stroke="rgb(0,0,255)" />
	<polyline points="34.9323,399.447 32.4059,374.324 " fill="transparent" stroke-width="0.5" stroke="rgb(0,0,255)" />
	<polyline points="97.9999,406.149 117.242,394.638 " fill="transparent" stroke-width="0.5" stroke="rgb(0,0,255)" />
	<polyline points="117.242,394.638 40.5171,433.943 " fill="transparent" stroke-width="0.5" stroke="rgb(0,0,255)" />
	<polyline points="97.9999,406.149 10.3109,407.204 " fill="transparent" stroke-width="0.5" stroke="rgb(0,0,255)" />
	<polyline points="165.069,383.283 242.556,409.549 " fill="transparent" stroke-width="0.5" stroke="rgb(0,0,255)" />
	<polyline points="242.556,409.549 246.799,401.078 " fill="transparent" stroke-width="0.5" stroke="rgb(0,0,255)" />
	<polyline points="246.799,401.078 270.987,391.851 " fill="transparent" stroke-width="0.5" stroke="rgb(0,0,255)" />
	<polyline points="270.987,391.851 270.288,381.956 " fill="transparent" stroke-width="0.5" stroke="rgb(0,0,255)" />
	<polyline points="270.288,381.956 294.761,377.879 " fill="transparent" stroke-width="0.5" stroke="rgb(0,0,255)" />
	<polyline points="294.761,377.879 323.526,373.266 " fill="transparent" stroke-width="0.5" stroke="rgb(0,0,255)" />
	<polyline points="323.526,373.266 346.456,365.984 " fill="transparent" stroke-width="0.5" stroke="rgb(0,0,255)" />
	<polyline points="346.456,365.984 372.201,355.065 " fill="transparent" stroke-width="0.5" stroke="rgb(0,0,255)" />
	<polyline points="346.456,365.984 370.13,357.753 " fill="transparent" stroke-width="0.5" stroke="rgb(0,0,255)" />
	<polyline points="370.13,357.753 279.445,429.669 " fill="transparent" stroke-width="0.5" stroke="rgb(0,0,255)" />
	<polyline points="279.445,429.669 276.246,420.022 " fill="transparent" stroke-width="0.5" stroke="rgb(0,0,255)" />
	<polyline points="370.13,357.753 378.449,347.511 " fill="transparent" stroke-width="0.5" stroke="rgb(0,0,255)" />
	<polyline points="378.449,347.511 316.379,359.667 " fill="transparent" stroke-width="0.5" stroke="rgb(0,0,255)" />
	<polyline points="378.449,347.511 406.017,342.551 " fill="transparent" stroke-width="0.5" stroke="rgb(0,0,255)" />
	<polyline points="406.017,342.551 406.899,329.146 " fill="transparent" stroke-width="0.5" stroke="rgb(0,0,255)" />
	<polyline points="406.899,329.146 316.386,361.839 " fill="transparent" stroke-width="0.5" stroke="rgb(0,0,255)" />
	<polyline points="316.386,361.839 309.221,345.911 " fill="transparent" stroke-width="0.5" stroke="rgb(0,0,255)" />
	<polyline points="406.899,329.146 316.622,355.289 " fill="transparent" stroke-width="0.5" stroke="rgb(0,0,255)" />
	<polyline points="406.899,329.146 402.617,320.518 " fill="transparent" stroke-width="0.5" stroke="rgb(0,0,255)" />
	<polyline points="402.617,320.518 392.548,308.366 " fill="transparent" stroke-width="0.5" stroke="rgb(0,0,255)" />
	<polyline points="392.548,308.366 288.687,336.886 " fill="transparent" stroke-width="0.5" stroke="rgb(0,0,255)" />
	<polyline points="392.548,308.366 412.098,297.904 " fill="transparent" stroke-width="0.5" stroke="rgb(0,0,255)" />
	<polyline points="412.098,297.904 422.52,288.491 " fill="transparent" stroke-width="0.5" stroke="rgb(0,0,255)" />
	<polyline points="412.098,297.904 346.615,322.939 " fill="transparent" stroke-width="0.5" stroke="rgb(0,0,255)" />
	<polyline points="412.098,297.904 297.084,318.201 " fill="transparent" stroke-width="0.5" stroke="rgb(0,0,255)" />
	<polyline points="412.098,297.904 400.007,288.205 " fill="transparent" stroke-width="0.5" stroke="rgb(0,0,255)" />
	<polyline points="400.007,288.205 399.184,273.968 " fill="transparent" stroke-width="0.5" stroke="rgb(0,0,255)" />
	<polyline points="399.184,273.968 404.606,262.055 " fill="transparent" stroke-width="0.5" stroke="rgb(0,0,255)" />
	<polyline points="404.606,262.055 314.537,259.06 " fill="transparent" stroke-width="0.5" stroke="rgb(0,0,255)" />
	<polyline points="404.606,262.055 439.427,254.718 " fill="transparent" stroke-width="0.5" stroke="rgb(0,0,255)" />
	<polyline points="439.427,254.718 466.031,246.968 " fill="transparent" stroke-width="0.5" stroke="rgb(0,0,255)" />
	<polyline points="466.031,246.968 477.219,236.828 " fill="transparent" stroke-width="0.5" stroke="rgb(0,0,255)" />
	<polyline points="439.427,254.718 451.033,242.758 " fill="transparent" stroke-width="0.5" stroke="rgb(0,0,255)" />
	<polyline points="451.033,242.758 362.543,258.633 " fill="transparent" stroke-width="0.5" stroke="rgb(0,0,255)" />
	<polyline points="439.427,254.718 338.596,254.002 " fill="transparent" stroke-width="0.5" stroke="rgb(0,0,255)" />
	<polyline points="338.596,254.002 249.532,244.708 " fill="transparent" stroke-width="0.5" stroke="rgb(0,0,255)" />
	<polyline points="439.427,254.718 437.094,239.564 " fill="transparent" stroke-width="0.5" stroke="rgb(0,0,255)" />
	<polyline points="437.094,239.564 342.48,244.128 " fill="transparent" stroke-width="0.5" stroke="rgb(0,0,255)" />
	<polyline points="437.094,239.564 378.653,235.353 " fill="transparent" stroke-width="0.5" stroke="rgb(0,0,255)" />
	<polyline points="437.094,239.564 372.025,264.537 " fill="transparent" stroke-width="0.5" stroke="rgb(0,0,255)" />
	<polyline points="404.606,262.055 403.392,251.768 " fill="transparent" stroke-width="0.5" stroke="rgb(0,0,255)" />
	<polyline points="403.392,251.768 343.787,295.197 " fill="transparent" stroke-width="0.5" stroke="rgb(0,0,255)" />
	<polyline points="404.606,262.055 321.618,245.141 " fill="transparent" stroke-width="0.5" stroke="rgb(0,0,255)" />
	<polyline points="404.606,262.055 289.417,276.37 " fill="transparent" stroke-width="0.5" stroke="rgb(0,0,255)" />
	<polyline points="289.417,276.37 198.078,309.365 " fill="transparent" stroke-width="0.5" stroke="rgb(0,0,255)" />
	<polyline points="399.184,273.968 320.651,290.578 " fill="transparent" stroke-width="0.5" stroke="rgb(0,0,255)" />
	<polyline points="399.184,273.968 277.023,280.089 " fill="transparent" stroke-width="0.5" stroke="rgb(0,0,255)" />
	<polyline points="399.184,273.968 358.312,261.002 " fill="transparent" stroke-width="0.5" stroke="rgb(0,0,255)" />
	<polyline points="358.312,261.002 277.171,257.544 " fill="transparent" stroke-width="0.5" stroke="rgb(0,0,255)" />
	<polyline points="277.171,257.544 284.963,251.905 " fill="transparent" stroke-width="0.5" stroke="rgb(0,0,255)" />
	<polyline points="358.312,261.002 353.231,248.228 " fill="transparent" stroke-width="0.5" stroke="rgb(0,0,255)" />
	<polyline points="353.231,248.228 302.348,232.529 " fill="transparent" stroke-width="0.5" stroke="rgb(0,0,255)" />
	<polyline points="302.348,232.529 310.983,219.721 " fill="transparent" stroke-width="0.5" stroke="rgb(0,0,255)" />
	<polyline points="302.348,232.529 316.789,221.723 " fill="transparent" stroke-width="0.5" stroke="rgb(0,0,255)" />
	<polyline points="316.789,221.723 316.18,212.321 " fill="transparent" stroke-width="0.5" stroke="rgb(0,0,255)" />
	<polyline points="316.789,221.723 314.579,208.76 " fill="transparent" stroke-width="0.5" stroke="rgb(0,0,255)" />
	<polyline points="314.579,208.76 192.498,228.73 " fill="transparent" stroke-width="0.5" stroke="rgb(0,0,255)" />
	<polyline points="314.579,208.76 335.239,203.792 " fill="transparent" stroke-width="0.5" stroke="rgb(0,0,255)" />
	<polyline points="335.239,203.792 348.325,198.85 " fill="transparent" stroke-width="0.5" stroke="rgb(0,0,255)" />
	<polyline points="348.325,198.85 351.637,187.646 " fill="transparent" stroke-width="0.5" stroke="rgb(0,0,255)" />
	<polyline points="348.325,198.85 390.839,206.096 " fill="transparent" stroke-width="0.5" stroke="rgb(0,0,255)" />
	<polyline points="390.839,206.096 384.805,192.981 " fill="transparent" stroke-width="0.5" stroke="rgb(0,0,255)" />
	<polyline points="390.839,206.096 436.609,204.687 " fill="transparent" stroke-width="0.5" stroke="rgb(0,0,255)" />
	<polyline points="436.609,204.687 425.48,188.014 " fill="transparent" stroke-width="0.5" stroke="rgb(0,0,255)" />
	<polyline points="425.48,188.014 420.223,176.313 " fill="transparent" stroke-width="0.5" stroke="rgb(0,0,255)" />
	<polyline points="420.223,176.313 422.742,166.365 " fill="transparent" stroke-width="0.5" stroke="rgb(0,0,255)" />
	<polyline points="422.742,166.365 419.071,149.257 " fill="transparent" stroke-width="0.5" stroke="rgb(0,0,255)" />
	<polyline points="419.071,149.257 420.043,136.902 " fill="transparent" stroke-width="0.5" stroke="rgb(0,0,255)" />
	<polyline points="420.043,136.902 469.495,277.576 " fill="transparent" stroke-width="0.5" stroke="rgb(0,0,255)" />
	<polyline points="420.043,136.902 441.398,254.835 " fill="transparent" stroke-width="0.5" stroke="rgb(0,0,255)" />
	<polyline points="422.742,166.365 370.397,238.862 " fill="transparent" stroke-width="0.5" stroke="rgb(0,0,255)" />
	<polyline points="422.742,166.365 365.792,289.635 " fill="transparent" stroke-width="0.5" stroke="rgb(0,0,255)" />
	<polyline points="314.579,208.76 218.386,277.049 " fill="transparent" stroke-width="0.5" stroke="rgb(0,0,255)" />
	<polyline points="218.386,277.049 236.954,267.029 " fill="transparent" stroke-width="0.5" stroke="rgb(0,0,255)" />
	<polyline points="314.579,208.76 194.324,194.416 " fill="transparent" stroke-width="0.5" stroke="rgb(0,0,255)" />
	<polyline points="194.324,194.416 203.807,187.539 " fill="transparent" stroke-width="0.5" stroke="rgb(0,0,255)" />
	<polyline points="203.807,187.539 210.989,181.696 " fill="transparent" stroke-width="0.5" stroke="rgb(0,0,255)" />
	<polyline points="210.989,181.696 231.684,177.976 " fill="transparent" stroke-width="0.5" stroke="rgb(0,0,255)" />
	<polyline points="231.684,177.976 244.032,166.58 " fill="transparent" stroke-width="0.5" stroke="rgb(0,0,255)" />
	<polyline points="316.789,221.723 229.782,302.713 " fill="transparent" stroke-width="0.5" stroke="rgb(0,0,255)" />
	<polyline points="229.782,302.713 252.047,301.124 " fill="transparent" stroke-width="0.5" stroke="rgb(0,0,255)" />
	<polyline points="302.348,232.529 254.465,290.173 " fill="transparent" stroke-width="0.5" stroke="rgb(0,0,255)" />
	<polyline points="353.231,248.228 237.06,239.888 " fill="transparent" stroke-width="0.5" stroke="rgb(0,0,255)" />
	<polyline points="237.06,239.888 256.633,233.822 " fill="transparent" stroke-width="0.5" stroke="rgb(0,0,255)" />
	<polyline points="353.231,248.228 251.987,252.694 " fill="transparent" stroke-width="0.5" stroke="rgb(0,0,255)" />
	<polyline points="412.098,297.904 283.795,357.486 " fill="transparent" stroke-width="0.5" stroke="rgb(0,0,255)" />
	<polyline points="402.617,320.518 361.787,314.61 " fill="transparent" stroke-width="0.5" stroke="rgb(0,0,255)" />
	<polyline points="361.787,314.61 297.752,327.805 " fill="transparent" stroke-width="0.5" stroke="rgb(0,0,255)" />
	<polyline points="406.899,329.146 304.014,370.777 " fill="transparent" stroke-width="0.5" stroke="rgb(0,0,255)" />
	<polyline points="406.899,329.146 286.031,407.102 " fill="transparent" stroke-width="0.5" stroke="rgb(0,0,255)" />
	<polyline points="378.449,347.511 454.481,366.226 " fill="transparent" stroke-width="0.5" stroke="rgb(0,0,255)" />
	<polyline points="454.481,366.226 351.264,448.139 " fill="transparent" stroke-width="0.5" stroke="rgb(0,0,255)" />
	<polyline points="351.264,448.139 358.443,440.844 " fill="transparent" stroke-width="0.5" stroke="rgb(0,0,255)" />
	<polyline points="454.481,366.226 380.176,381.61 " fill="transparent" stroke-width="0.5" stroke="rgb(0,0,255)" />
	<polyline points="380.176,381.61 336.92,379.831 " fill="transparent" stroke-width="0.5" stroke="rgb(0,0,255)" />
	<polyline points="454.481,366.226 451.71,358.486 " fill="transparent" stroke-width="0.5" stroke="rgb(0,0,255)" />
	<polyline points="454.481,366.226 449.022,354.5 " fill="transparent" stroke-width="0.5" stroke="rgb(0,0,255)" />
	<polyline points="449.022,354.5 445.06,343.928 " fill="transparent" stroke-width="0.5" stroke="rgb(0,0,255)" />
	<polyline points="445.06,343.928 451.005,335.497 " fill="transparent" stroke-width="0.5" stroke="rgb(0,0,255)" />
	<polyline points="454.481,366.226 454.317,458.784 " fill="transparent" stroke-width="0.5" stroke="rgb(0,0,255)" />
	<polyline points="454.317,458.784 462.54,448.573 " fill="transparent" stroke-width="0.5" stroke="rgb(0,0,255)" />
	<polyline points="454.317,458.784 464.229,447.308 " fill="transparent" stroke-width="0.5" stroke="rgb(0,0,255)" />
	<polyline points="454.317,458.784 369.924,499.278 " fill="transparent" stroke-width="0.5" stroke="rgb(0,0,255)" />
	<polyline points="454.317,458.784 420.035,454.442 " fill="transparent" stroke-width="0.5" stroke="rgb(0,0,255)" />
	<polyline points="454.317,458.784 462.53,447.33 " fill="transparent" stroke-width="0.5" stroke="rgb(0,0,255)" />
	<polyline points="462.53,447.33 461.396,437.556 " fill="transparent" stroke-width="0.5" stroke="rgb(0,0,255)" />
	<polyline points="461.396,437.556 472.117,429.029 " fill="transparent" stroke-width="0.5" stroke="rgb(0,0,255)" />
	<polyline points="472.117,429.029 365.509,458.517 " fill="transparent" stroke-width="0.5" stroke="rgb(0,0,255)" />
	<polyline points="454.317,458.784 444.277,448.176 " fill="transparent" stroke-width="0.5" stroke="rgb(0,0,255)" />
	<polyline points="444.277,448.176 450.99,440.517 " fill="transparent" stroke-width="0.5" stroke="rgb(0,0,255)" />
	<polyline points="370.13,357.753 303.288,355.531 " fill="transparent" stroke-width="0.5" stroke="rgb(0,0,255)" />
	<polyline points="303.288,355.531 318.072,350.224 " fill="transparent" stroke-width="0.5" stroke="rgb(0,0,255)" />
	<polyline points="318.072,350.224 198.047,419.159 " fill="transparent" stroke-width="0.5" stroke="rgb(0,0,255)" />
	<polyline points="303.288,355.531 296.998,347.187 " fill="transparent" stroke-width="0.5" stroke="rgb(0,0,255)" />
	<polyline points="296.998,347.187 296.804,337.742 " fill="transparent" stroke-width="0.5" stroke="rgb(0,0,255)" />
	<polyline points="303.288,355.531 288.566,340.129 " fill="transparent" stroke-width="0.5" stroke="rgb(0,0,255)" />
	<polyline points="288.566,340.129 293.34,326.574 " fill="transparent" stroke-width="0.5" stroke="rgb(0,0,255)" />
	<polyline points="293.34,326.574 299.466,316.648 " fill="transparent" stroke-width="0.5" stroke="rgb(0,0,255)" />
	<polyline points="299.466,316.648 340.531,311.511 " fill="transparent" stroke-width="0.5" stroke="rgb(0,0,255)" />
	<polyline points="340.531,311.511 340.374,299.699 " fill="transparent" stroke-width="0.5" stroke="rgb(0,0,255)" />
	<polyline points="288.566,340.129 267.412,323.379 " fill="transparent" stroke-width="0.5" stroke="rgb(0,0,255)" />
	<polyline points="267.412,323.379 285.721,310.969 " fill="transparent" stroke-width="0.5" stroke="rgb(0,0,255)" />
	<polyline points="285.721,310.969 293.619,303.104 " fill="transparent" stroke-width="0.5" stroke="rgb(0,0,255)" />
	<polyline points="267.412,323.379 261.876,305.816 " fill="transparent" stroke-width="0.5" stroke="rgb(0,0,255)" />
	<polyline points="261.876,305.816 227.583,287.609 " fill="transparent" stroke-width="0.5" stroke="rgb(0,0,255)" />
	<polyline points="227.583,287.609 232.632,273.027 " fill="transparent" stroke-width="0.5" stroke="rgb(0,0,255)" />
	<polyline points="232.632,273.027 242.154,261.972 " fill="transparent" stroke-width="0.5" stroke="rgb(0,0,255)" />
	<polyline points="232.632,273.027 249.293,266.365 " fill="transparent" stroke-width="0.5" stroke="rgb(0,0,255)" />
	<polyline points="249.293,266.365 175.315,243.213 " fill="transparent" stroke-width="0.5" stroke="rgb(0,0,255)" />
	<polyline points="175.315,243.213 196.389,232.296 " fill="transparent" stroke-width="0.5" stroke="rgb(0,0,255)" />
	<polyline points="175.315,243.213 194.765,237.656 " fill="transparent" stroke-width="0.5" stroke="rgb(0,0,255)" />
	<polyline points="194.765,237.656 133.472,210.838 " fill="transparent" stroke-width="0.5" stroke="rgb(0,0,255)" />
	<polyline points="133.472,210.838 121.327,198.389 " fill="transparent" stroke-width="0.5" stroke="rgb(0,0,255)" />
	<polyline points="121.327,198.389 152.757,309.231 " fill="transparent" stroke-width="0.5" stroke="rgb(0,0,255)" />
	<polyline points="121.327,198.389 174.094,214.382 " fill="transparent" stroke-width="0.5" stroke="rgb(0,0,255)" />
	<polyline points="121.327,198.389 132.165,181.967 " fill="transparent" stroke-width="0.5" stroke="rgb(0,0,255)" />
	<polyline points="132.165,181.967 196.766,244.46 " fill="transparent" stroke-width="0.5" stroke="rgb(0,0,255)" />
	<polyline points="132.165,181.967 137.699,168.119 " fill="transparent" stroke-width="0.5" stroke="rgb(0,0,255)" />
	<polyline points="132.165,181.967 88.715,162.577 " fill="transparent" stroke-width="0.5" stroke="rgb(0,0,255)" />
	<polyline points="88.715,162.577 56.217,151.076 " fill="transparent" stroke-width="0.5" stroke="rgb(0,0,255)" />
	<polyline points="88.715,162.577 178.076,211.391 " fill="transparent" stroke-width="0.5" stroke="rgb(0,0,255)" />
	<polyline points="88.715,162.577 149.908,210.777 " fill="transparent" stroke-width="0.5" stroke="rgb(0,0,255)" />
	<polyline points="88.715,162.577 9.81686,177.617 " fill="transparent" stroke-width="0.5" stroke="rgb(0,0,255)" />
	<polyline points="9.81686,177.617 70.351,239.62 " fill="transparent" stroke-width="0.5" stroke="rgb(0,0,255)" />
	<polyline points="88.715,162.577 106.432,156.318 " fill="transparent" stroke-width="0.5" stroke="rgb(0,0,255)" />
	<polyline points="106.432,156.318 101.112,146.949 " fill="transparent" stroke-width="0.5" stroke="rgb(0,0,255)" />
	<polyline points="101.112,146.949 168.013,211.418 " fill="transparent" stroke-width="0.5" stroke="rgb(0,0,255)" />
	<polyline points="101.112,146.949 147.82,196.889 " fill="transparent" stroke-width="0.5" stroke="rgb(0,0,255)" />
	<polyline points="106.432,156.318 194.513,216.573 " fill="transparent" stroke-width="0.5" stroke="rgb(0,0,255)" />
	<polyline points="132.165,181.967 172.822,192.194 " fill="transparent" stroke-width="0.5" stroke="rgb(0,0,255)" />
	<polyline points="172.822,192.194 186.038,178.732 " fill="transparent" stroke-width="0.5" stroke="rgb(0,0,255)" />
	<polyline points="172.822,192.194 182.734,179.103 " fill="transparent" stroke-width="0.5" stroke="rgb(0,0,255)" />
	<polyline points="182.734,179.103 172.413,159.932 " fill="transparent" stroke-width="0.5" stroke="rgb(0,0,255)" />
	<polyline points="172.413,159.932 140.199,136.746 " fill="transparent" stroke-width="0.5" stroke="rgb(0,0,255)" />
	<polyline points="140.199,136.746 140.813,125.668 " fill="transparent" stroke-width="0.5" stroke="rgb(0,0,255)" />
	<polyline points="140.813,125.668 113.612,107.09 " fill="transparent" stroke-width="0.5" stroke="rgb(0,0,255)" />
	<polyline points="140.199,136.746 146.522,129.217 " fill="transparent" stroke-width="0.5" stroke="rgb(0,0,255)" />
	<polyline points="146.522,129.217 185.022,139.627 " fill="transparent" stroke-width="0.5" stroke="rgb(0,0,255)" />
	<polyline points="185.022,139.627 184.586,120.569 " fill="transparent" stroke-width="0.5" stroke="rgb(0,0,255)" />
	<polyline points="184.586,120.569 206.808,114.428 " fill="transparent" stroke-width="0.5" stroke="rgb(0,0,255)" />
	<polyline points="206.808,114.428 208.634,100.752 " fill="transparent" stroke-width="0.5" stroke="rgb(0,0,255)" />
	<polyline points="208.634,100.752 224.55,98.3088 " fill="transparent" stroke-width="0.5" stroke="rgb(0,0,255)" />
	<polyline points="224.55,98.3088 233.158,95.0118 " fill="transparent" stroke-width="0.5" stroke="rgb(0,0,255)" />
	<polyline points="233.158,95.0118 245.447,85.557 " fill="transparent" stroke-width="0.5" stroke="rgb(0,0,255)" />
	<polyline points="224.55,98.3088 188.894,76.3295 " fill="transparent" stroke-width="0.5" stroke="rgb(0,0,255)" />
	<polyline points="146.522,129.217 210.277,154.067 " fill="transparent" stroke-width="0.5" stroke="rgb(0,0,255)" />
	<polyline points="210.277,154.067 217.639,143.326 " fill="transparent" stroke-width="0.5" stroke="rgb(0,0,255)" />
	<polyline points="217.639,143.326 159.375,109.904 " fill="transparent" stroke-width="0.5" stroke="rgb(0,0,255)" />
	<polyline points="217.639,143.326 162.306,116.904 " fill="transparent" stroke-width="0.5" stroke="rgb(0,0,255)" />
	<polyline points="162.306,116.904 150.275,96.6084 " fill="transparent" stroke-width="0.5" stroke="rgb(0,0,255)" />
	<polyline points="150.275,96.6084 144.09,78.8165 " fill="transparent" stroke-width="0.5" stroke="rgb(0,0,255)" />
	<polyline points="144.09,78.8165 153.953,68.5115 " fill="transparent" stroke-width="0.5" stroke="rgb(0,0,255)" />
	<polyline points="153.953,68.5115 233.841,142.243 " fill="transparent" stroke-width="0.5" stroke="rgb(0,0,255)" />
	<polyline points="153.953,68.5115 241.138,135.751 " fill="transparent" stroke-width="0.5" stroke="rgb(0,0,255)" />
	<polyline points="144.09,78.8165 111.604,66.0884 " fill="transparent" stroke-width="0.5" stroke="rgb(0,0,255)" />
	<polyline points="150.275,96.6084 178.571,162.154 " fill="transparent" stroke-width="0.5" stroke="rgb(0,0,255)" />
	<polyline points="249.293,266.365 136.508,274.278 " fill="transparent" stroke-width="0.5" stroke="rgb(0,0,255)" />
	<polyline points="136.508,274.278 56.3531,329.853 " fill="transparent" stroke-width="0.5" stroke="rgb(0,0,255)" />
	<polyline points="294.761,377.879 221.53,404.03 " fill="transparent" stroke-width="0.5" stroke="rgb(0,0,255)" />
	<polyline points="221.53,404.03 139.284,477.083 " fill="transparent" stroke-width="0.5" stroke="rgb(0,0,255)" />
	<polyline points="270.288,381.956 198.961,420.965 " fill="transparent" stroke-width="0.5" stroke="rgb(0,0,255)" />
	<polyline points="198.961,420.965 123.893,475.186 " fill="transparent" stroke-width="0.5" stroke="rgb(0,0,255)" />
	<polyline points="123.893,475.186 122.049,464.391 " fill="transparent" stroke-width="0.5" stroke="rgb(0,0,255)" />
	<polyline points="123.893,475.186 159.477,455.621 " fill="transparent" stroke-width="0.5" stroke="rgb(0,0,255)" />
	<polyline points="270.288,381.956 186.502,457.947 " fill="transparent" stroke-width="0.5" stroke="rgb(0,0,255)" />
	<polyline points="186.502,457.947 185.704,444.459 " fill="transparent" stroke-width="0.5" stroke="rgb(0,0,255)" />
	<polyline points="186.502,457.947 130.999,450.196 " fill="transparent" stroke-width="0.5" stroke="rgb(0,0,255)" />
	<polyline points="130.999,450.196 147.537,428.503 " fill="transparent" stroke-width="0.5" stroke="rgb(0,0,255)" />
	<polyline points="130.999,450.196 130.1,428.384 " fill="transparent" stroke-width="0.5" stroke="rgb(0,0,255)" />
	<polyline points="130.999,450.196 127.843,430.686 " fill="transparent" stroke-width="0.5" stroke="rgb(0,0,255)" />
	<polyline points="270.288,381.956 213.487,391.719 " fill="transparent" stroke-width="0.5" stroke="rgb(0,0,255)" />
	<polyline points="213.487,391.719 203.915,380.404 " fill="transparent" stroke-width="0.5" stroke="rgb(0,0,255)" />
	<polyline points="203.915,380.404 211.929,366.434 " fill="transparent" stroke-width="0.5" stroke="rgb(0,0,255)" />
	<polyline points="211.929,366.434 151.693,388.398 " fill="transparent" stroke-width="0.5" stroke="rgb(0,0,255)" />
	<polyline points="213.487,391.719 132.812,390.699 " fill="transparent" stroke-width="0.5" stroke="rgb(0,0,255)" />
	<polyline points="242.556,409.549 346.628,435.466 " fill="transparent" stroke-width="0.5" stroke="rgb(0,0,255)" />
	<polyline points="346.628,435.466 242.808,473.329 " fill="transparent" stroke-width="0.5" stroke="rgb(0,0,255)" />
	<polyline points="346.628,435.466 286.893,438.245 " fill="transparent" stroke-width="0.5" stroke="rgb(0,0,255)" />
	<polyline points="286.893,438.245 269.602,423.077 " fill="transparent" stroke-width="0.5" stroke="rgb(0,0,255)" />
	<polyline points="286.893,438.245 198.083,498.534 " fill="transparent" stroke-width="0.5" stroke="rgb(0,0,255)" />
	<polyline points="346.628,435.466 298.303,441.007 " fill="transparent" stroke-width="0.5" stroke="rgb(0,0,255)" />
	<polyline points="298.303,441.007 341.91,436.737 " fill="transparent" stroke-width="0.5" stroke="rgb(0,0,255)" />
	<polyline points="298.303,441.007 241.759,479.179 " fill="transparent" stroke-width="0.5" stroke="rgb(0,0,255)" />
	<polyline points="241.759,479.179 238.765,463.874 " fill="transparent" stroke-width="0.5" stroke="rgb(0,0,255)" />
	<polyline points="298.303,441.007 319.579,425.796 " fill="transparent" stroke-width="0.5" stroke="rgb(0,0,255)" />
	<polyline points="319.579,425.796 324.982,413.791 " fill="transparent" stroke-width="0.5" stroke="rgb(0,0,255)" />
	<polyline points="242.556,409.549 184.125,433.519 " fill="transparent" stroke-width="0.5" stroke="rgb(0,0,255)" />
	<polyline points="165.069,383.283 82.9238,381.426 " fill="transparent" stroke-width="0.5" stroke="rgb(0,0,255)" />
	<polyline points="82.9238,381.426 75.2826,366.227 " fill="transparent" stroke-width="0.5" stroke="rgb(0,0,255)" />
	<polyline points="165.069,383.283 96.7223,402.802 " fill="transparent" stroke-width="0.5" stroke="rgb(0,0,255)" />
	<polyline points="97.006,386.483 41.3759,413.651 " fill="transparent" stroke-width="0.5" stroke="rgb(0,0,255)" />
	<polyline points="41.3759,413.651 53.4117,392.946 " fill="transparent" stroke-width="0.5" stroke="rgb(0,0,255)" />
	<polyline points="41.3759,413.651 51.6428,392.693 " fill="transparent" stroke-width="0.5" stroke="rgb(0,0,255)" />
	<circle cx="83.3333" cy="416.667" r="2" fill="rgb(255,0,0)" />
	<circle cx="416.667" cy="83.3333" r="2" fill="rgb(0,255,0)" />
	<polyline points="83.3333,416.667 26.3377,409.246 49.7318,387.333 57.6683,367.447 55.4571,349.415 58.4456,327.844 88.5695,312.968 102.382,294.227 98.2917,280.354 93.4352,260.18 94.1956,243.796 87.2556,226.473 54.385,215.088 57.1878,199.226 48.2834,182.554 63.4724,174.575 74.712,162.932 86.828,147.871 86.6488,139.413 84.1707,131.241 113.602,121.558 160.337,117.748 248.686,182.144 258.878,173.383 293.701,181.03 318.973,181.24 320.822,167.995 381.16,177.059 389.648,167.682 401.83,159.931 413.515,147.443 411.904,130.147 424.899,118.514 429.54,101.969 413.811,87.334 " fill="transparent" stroke-width="3" stroke="rgb(0,0,0)" />
</svg>
