<?xml version="1.0" standalone="no" ?>
<!DOCTYPE svg PUBLIC "-//W3C//DTD SVG 1.1//EN" "http://www.w3.org/Graphics/SVG/1.1/DTD/svg11.dtd">
<svg width="500px" height="500px" xmlns="http://www.w3.org/2000/svg" version="1.1" >
	<polyline points="83.3333,416.667 136.555,402.491 " fill="transparent" stroke-width="0.5" stroke="rgb(0,0,255)" />
	<polyline points="136.555,402.491 204.211,427.299 " fill="transparent" stroke-width="0.5" stroke="rgb(0,0,255)" />
	<polyline points="204.211,427.299 229.207,412.178 " fill="transparent" stroke-width="0.5" stroke="rgb(0,0,255)" />
	<polyline points="229.207,412.178 237.516,401.971 " fill="transparent" stroke-width="0.5" stroke="rgb(0,0,255)" />
	<polyline points="204.211,427.299 284.178,434.153 " fill="transparent" stroke-width="0.5" stroke="rgb(0,0,255)" />
	<polyline points="284.178,434.153 187.62,447.96 " fill="transparent" stroke-width="0.5" stroke="rgb(0,0,255)" />
	<polyline points="204.211,427.299 116.626,460.695 " fill="transparent" stroke-width="0.5" stroke="rgb(0,0,255)" />
	<polyline points="136.555,402.491 110.63,394.011 " fill="transparent" stroke-width="0.5" stroke="rgb(0,0,255)" />
	<polyline points="136.555,402.491 128.903,391.59 " fill="transparent" stroke-width="0.5" stroke="rgb(0,0,255)" />
	<polyline points="128.903,391.59 138.593,375.233 " fill="transparent" stroke-width="0.5" stroke="rgb(0,0,255)" />
	<polyline points="138.593,375.233 163.411,358.564 " fill="transparent" stroke-width="0.5" stroke="rgb(0,0,255)" />
	<polyline points="163.411,358.564 182.594,342.193 " fill="transparent" stroke-width="0.5" stroke="rgb(0,0,255)" />
	<polyline points="182.594,342.193 87.7635,389.041 " fill="transparent" stroke-width="0.5" stroke="rgb(0,0,255)" />
	<polyline points="182.594,342.193 124.467,350.121 " fill="transparent" stroke-width="0.5" stroke="rgb(0,0,255)" />
	<polyline points="182.594,342.193 199.051,328.344 " fill="transparent" stroke-width="0.5" stroke="rgb(0,0,255)" />
	<polyline points="199.051,328.344 183.698,306.768 " fill="transparent" stroke-width="0.5" stroke="rgb(0,0,255)" />
	<polyline points="183.698,306.768 193.432,299.817 " fill="transparent" stroke-width="0.5" stroke="rgb(0,0,255)" />
	<polyline points="193.432,299.817 207.624,292.719 " fill="transparent" stroke-width="0.5" stroke="rgb(0,0,255)" />
	<polyline points="207.624,292.719 204.063,282.603 " fill="transparent" stroke-width="0.5" stroke="rgb(0,0,255)" />
	<polyline points="207.624,292.719 220.959,287.689 " fill="transparent" stroke-width="0.5" stroke="rgb(0,0,255)" />
	<polyline points="220.959,287.689 251.404,288.362 " fill="transparent" stroke-width="0.5" stroke="rgb(0,0,255)" />
	<polyline points="251.404,288.362 272.004,279.278 " fill="transparent" stroke-width="0.5" stroke="rgb(0,0,255)" />
	<polyline points="272.004,279.278 289.39,269.717 " fill="transparent" stroke-width="0.5" stroke="rgb(0,0,255)" />
	<polyline points="289.39,269.717 288.613,255.174 " fill="transparent" stroke-width="0.5" stroke="rgb(0,0,255)" />
	<polyline points="289.39,269.717 256.661,246.485 " fill="transparent" stroke-width="0.5" stroke="rgb(0,0,255)" />
	<polyline points="256.661,246.485 129.781,308.119 " fill="transparent" stroke-width="0.5" stroke="rgb(0,0,255)" />
	<polyline points="129.781,308.119 68.6769,321.673 " fill="transparent" stroke-width="0.5" stroke="rgb(0,0,255)" />
	<polyline points="289.39,269.717 184.377,301.547 " fill="transparent" stroke-width="0.5" stroke="rgb(0,0,255)" />
	<polyline points="272.004,279.278 308.518,276.719 " fill="transparent" stroke-width="0.5" stroke="rgb(0,0,255)" />
	<polyline points="308.518,276.719 223.277,331.228 " fill="transparent" stroke-width="0.5" stroke="rgb(0,0,255)" />
	<polyline points="308.518,276.719 296.204,258.422 " fill="transparent" stroke-width="0.5" stroke="rgb(0,0,255)" />
	<polyline points="308.518,276.719 345.722,283.498 " fill="transparent" stroke-width="0.5" stroke="rgb(0,0,255)" />
	<polyline points="345.722,283.498 367.487,273.936 " fill="transparent" stroke-width="0.5" stroke="rgb(0,0,255)" />
	<polyline points="345.722,283.498 354.806,278.225 " fill="transparent" stroke-width="0.5" stroke="rgb(0,0,255)" />
	<polyline points="354.806,278.225 374.699,272.86 " fill="transparent" stroke-width="0.5" stroke="rgb(0,0,255)" />
	<polyline points="374.699,272.86 398.142,268.345 " fill="transparent" stroke-width="0.5" stroke="rgb(0,0,255)" />
	<polyline points="398.142,268.345 413.635,259.869 " fill="transparent" stroke-width="0.5" stroke="rgb(0,0,255)" />
	<polyline points="374.699,272.86 367.916,261.584 " fill="transparent" stroke-width="0.5" stroke="rgb(0,0,255)" />
	<polyline points="367.916,261.584 376.057,248.755 " fill="transparent" stroke-width="0.5" stroke="rgb(0,0,255)" />
	<polyline points="376.057,248.755 256.115,282.033 " fill="transparent" stroke-width="0.5" stroke="rgb(0,0,255)" />
	<polyline points="376.057,248.755 426.876,252.195 " fill="transparent" stroke-width="0.5" stroke="rgb(0,0,255)" />
	<polyline points="426.876,252.195 450.132,340.272 " fill="transparent" stroke-width="0.5" stroke="rgb(0,0,255)" />
	<polyline points="426.876,252.195 434.887,246.072 " fill="transparent" stroke-width="0.5" stroke="rgb(0,0,255)" />
	<polyline points="434.887,246.072 499.573,247.041 " fill="transparent" stroke-width="0.5" stroke="rgb(0,0,255)" />
	<polyline points="499.573,247.041 409.421,367.197 " fill="transparent" stroke-width="0.5" stroke="rgb(0,0,255)" />
	<polyline points="499.573,247.041 495.003,236.937 " fill="transparent" stroke-width="0.5" stroke="rgb(0,0,255)" />
	<polyline points="499.573,247.041 459.853,238.809 " fill="transparent" stroke-width="0.5" stroke="rgb(0,0,255)" />
	<polyline points="434.887,246.072 427.396,230.262 " fill="transparent" stroke-width="0.5" stroke="rgb(0,0,255)" />
	<polyline points="427.396,230.262 410.214,221.614 " fill="transparent" stroke-width="0.5" stroke="rgb(0,0,255)" />
	<polyline points="410.214,221.614 410.312,206.364 " fill="transparent" stroke-width="0.5" stroke="rgb(0,0,255)" />
	<polyline points="410.312,206.364 307.698,291.481 " fill="transparent" stroke-width="0.5" stroke="rgb(0,0,255)" />
	<polyline points="410.312,206.364 421.929,195.353 " fill="transparent" stroke-width="0.5" stroke="rgb(0,0,255)" />
	<polyline points="421.929,195.353 422.907,184.082 " fill="transparent" stroke-width="0.5" stroke="rgb(0,0,255)" />
	<polyline points="422.907,184.082 425.678,170.867 " fill="transparent" stroke-width="0.5" stroke="rgb(0,0,255)" />
	<polyline points="425.678,170.867 416.284,159.155 " fill="transparent" stroke-width="0.5" stroke="rgb(0,0,255)" />
	<polyline points="416.284,159.155 325.315,233.316 " fill="transparent" stroke-width="0.5" stroke="rgb(0,0,255)" />
	<polyline points="416.284,159.155 342.354,202.161 " fill="transparent" stroke-width="0.5" stroke="rgb(0,0,255)" />
	<polyline points="416.284,159.155 400.159,144.16 " fill="transparent" stroke-width="0.5" stroke="rgb(0,0,255)" />
	<polyline points="400.159,144.16 323.731,181.81 " fill="transparent" stroke-width="0.5" stroke="rgb(0,0,255)" />
	<polyline points="400.159,144.16 361.675,135.291 " fill="transparent" stroke-width="0.5" stroke="rgb(0,0,255)" />
	<polyline points="361.675,135.291 369.275,127.448 " fill="transparent" stroke-width="0.5" stroke="rgb(0,0,255)" />
	<polyline points="361.675,135.291 365.16,128.158 " fill="transparent" stroke-width="0.5" stroke="rgb(0,0,255)" />
	<polyline points="365.16,128.158 347.817,109.292 " fill="transparent" stroke-width="0.5" stroke="rgb(0,0,255)" />
	<polyline points="347.817,109.292 349.729,93.9638 " fill="transparent" stroke-width="0.5" stroke="rgb(0,0,255)" />
	<polyline points="416.284,159.155 344.638,207.671 " fill="transparent" stroke-width="0.5" stroke="rgb(0,0,255)" />
	<polyline points="410.214,221.614 297.091,216.168 " fill="transparent" stroke-width="0.5" stroke="rgb(0,0,255)" />
	<polyline points="297.091,216.168 215.552,238.713 " fill="transparent" stroke-width="0.5" stroke="rgb(0,0,255)" />
	<polyline points="297.091,216.168 301.944,205.261 " fill="transparent" stroke-width="0.5" stroke="rgb(0,0,255)" />
	<polyline points="376.057,248.755 356.483,233.78 " fill="transparent" stroke-width="0.5" stroke="rgb(0,0,255)" />
	<polyline points="356.483,233.78 348.51,224.711 " fill="transparent" stroke-width="0.5" stroke="rgb(0,0,255)" />
	<polyline points="356.483,233.78 382.127,228.966 " fill="transparent" stroke-width="0.5" stroke="rgb(0,0,255)" />
	<polyline points="356.483,233.78 270.618,316.515 " fill="transparent" stroke-width="0.5" stroke="rgb(0,0,255)" />
	<polyline points="270.618,316.515 180.821,301.384 " fill="transparent" stroke-width="0.5" stroke="rgb(0,0,255)" />
	<polyline points="270.618,316.515 187.054,396.616 " fill="transparent" stroke-width="0.5" stroke="rgb(0,0,255)" />
	<polyline points="187.054,396.616 141.146,381.615 " fill="transparent" stroke-width="0.5" stroke="rgb(0,0,255)" />
	<polyline points="367.916,261.584 248.745,290.022 " fill="transparent" stroke-width="0.5" stroke="rgb(0,0,255)" />
	<polyline points="248.745,290.022 263.789,280.733 " fill="transparent" stroke-width="0.5" stroke="rgb(0,0,255)" />
	<polyline points="308.518,276.719 203.554,305.885 " fill="transparent" stroke-width="0.5" stroke="rgb(0,0,255)" />
	<polyline points="251.404,288.362 148.99,310.278 " fill="transparent" stroke-width="0.5" stroke="rgb(0,0,255)" />
	<polyline points="148.99,310.278 160.17,292.762 " fill="transparent" stroke-width="0.5" stroke="rgb(0,0,255)" />
	<polyline points="251.404,288.362 154.013,293.858 " fill="transparent" stroke-width="0.5" stroke="rgb(0,0,255)" />
	<polyline points="207.624,292.719 111.111,347.784 " fill="transparent" stroke-width="0.5" stroke="rgb(0,0,255)" />
	<polyline points="193.432,299.817 130.757,281.883 " fill="transparent" stroke-width="0.5" stroke="rgb(0,0,255)" />
	<polyline points="130.757,281.883 131.882,265.517 " fill="transparent" stroke-width="0.5" stroke="rgb(0,0,255)" />
	<polyline points="131.882,265.517 114.381,247.523 " fill="transparent" stroke-width="0.5" stroke="rgb(0,0,255)" />
	<polyline points="114.381,247.523 119.514,230.55 " fill="transparent" stroke-width="0.5" stroke="rgb(0,0,255)" />
	<polyline points="119.514,230.55 137.573,218.374 " fill="transparent" stroke-width="0.5" stroke="rgb(0,0,255)" />
	<polyline points="137.573,218.374 77.3351,350.899 " fill="transparent" stroke-width="0.5" stroke="rgb(0,0,255)" />
	<polyline points="137.573,218.374 163.706,217.951 " fill="transparent" stroke-width="0.5" stroke="rgb(0,0,255)" />
	<polyline points="163.706,217.951 162.403,203.783 " fill="transparent" stroke-width="0.5" stroke="rgb(0,0,255)" />
	<polyline points="162.403,203.783 161.066,193.551 " fill="transparent" stroke-width="0.5" stroke="rgb(0,0,255)" />
	<polyline points="161.066,193.551 122.074,256.028 " fill="transparent" stroke-width="0.5" stroke="rgb(0,0,255)" />
	<polyline points="161.066,193.551 211.6,207.945 " fill="transparent" stroke-width="0.5" stroke="rgb(0,0,255)" />
	<polyline points="211.6,207.945 210.959,194.854 " fill="transparent" stroke-width="0.5" stroke="rgb(0,0,255)" />
	<polyline points="211.6,207.945 119.696,187.814 " fill="transparent" stroke-width="0.5" stroke="rgb(0,0,255)" />
	<polyline points="119.696,187.814 129.358,173.029 " fill="transparent" stroke-width="0.5" stroke="rgb(0,0,255)" />
	<polyline points="129.358,173.029 128.727,163.327 " fill="transparent" stroke-width="0.5" stroke="rgb(0,0,255)" />
	<polyline points="128.727,163.327 78.3472,162.518 " fill="transparent" stroke-width="0.5" stroke="rgb(0,0,255)" />
	<polyline points="129.358,173.029 125.799,246.542 " fill="transparent" stroke-width="0.5" stroke="rgb(0,0,255)" />
	<polyline points="125.799,246.542 128.235,226.905 " fill="transparent" stroke-width="0.5" stroke="rgb(0,0,255)" />
	<polyline points="211.6,207.945 211.919,195.254 " fill="transparent" stroke-width="0.5" stroke="rgb(0,0,255)" />
	<polyline points="211.919,195.254 102.131,263.505 " fill="transparent" stroke-width="0.5" stroke="rgb(0,0,255)" />
	<polyline points="211.919,195.254 146.405,198.487 " fill="transparent" stroke-width="0.5" stroke="rgb(0,0,255)" />
	<polyline points="211.919,195.254 145.451,201.987 " fill="transparent" stroke-width="0.5" stroke="rgb(0,0,255)" />
	<polyline points="162.403,203.783 134.712,303.205 " fill="transparent" stroke-width="0.5" stroke="rgb(0,0,255)" />
	<polyline points="137.573,218.374 70.4558,209.61 " fill="transparent" stroke-width="0.5" stroke="rgb(0,0,255)" />
	<polyline points="70.4558,209.61 65.2605,340.644 " fill="transparent" stroke-width="0.5" stroke="rgb(0,0,255)" />
	<polyline points="70.4558,209.61 74.7217,297.317 " fill="transparent" stroke-width="0.5" stroke="rgb(0,0,255)" />
	<polyline points="70.4558,209.61 23.1091,211.403 " fill="transparent" stroke-width="0.5" stroke="rgb(0,0,255)" />
	<polyline points="23.1091,211.403 95.3686,272.143 " fill="transparent" stroke-width="0.5" stroke="rgb(0,0,255)" />
	<polyline points="23.1091,211.403 77.942,275.515 " fill="transparent" stroke-width="0.5" stroke="rgb(0,0,255)" />
	<polyline points="77.942,275.515 25.3517,376.552 " fill="transparent" stroke-width="0.5" stroke="rgb(0,0,255)" />
	<polyline points="137.573,218.374 61.4104,341.697 " fill="transparent" stroke-width="0.5" stroke="rgb(0,0,255)" />
	<polyline points="137.573,218.374 102.934,299.255 " fill="transparent" stroke-width="0.5" stroke="rgb(0,0,255)" />
	<polyline points="119.514,230.55 81.2559,325.195 " fill="transparent" stroke-width="0.5" stroke="rgb(0,0,255)" />
	<polyline points="119.514,230.55 68.209,350.738 " fill="transparent" stroke-width="0.5" stroke="rgb(0,0,255)" />
	<polyline points="68.209,350.738 71.3171,336.741 " fill="transparent" stroke-width="0.5" stroke="rgb(0,0,255)" />
	<polyline points="68.209,350.738 107.306,338.058 " fill="transparent" stroke-width="0.5" stroke="rgb(0,0,255)" />
	<polyline points="114.381,247.523 35.1677,329.219 " fill="transparent" stroke-width="0.5" stroke="rgb(0,0,255)" />
	<polyline points="130.757,281.883 61.0102,327.152 " fill="transparent" stroke-width="0.5" stroke="rgb(0,0,255)" />
	<polyline points="61.0102,327.152 0.503173,381.403 " fill="transparent" stroke-width="0.5" stroke="rgb(0,0,255)" />
	<polyline points="61.0102,327.152 38.1261,437.349 " fill="transparent" stroke-width="0.5" stroke="rgb(0,0,255)" />
	<polyline points="130.757,281.883 44.7833,353.32 " fill="transparent" stroke-width="0.5" stroke="rgb(0,0,255)" />
	<polyline points="44.7833,353.32 28.1454,328.648 " fill="transparent" stroke-width="0.5" stroke="rgb(0,0,255)" />
	<polyline points="183.698,306.768 120.897,328.193 " fill="transparent" stroke-width="0.5" stroke="rgb(0,0,255)" />
	<polyline points="120.897,328.193 58.6255,382.791 " fill="transparent" stroke-width="0.5" stroke="rgb(0,0,255)" />
	<polyline points="58.6255,382.791 83.792,362.378 " fill="transparent" stroke-width="0.5" stroke="rgb(0,0,255)" />
	<polyline points="199.051,328.344 103.259,378.021 " fill="transparent" stroke-width="0.5" stroke="rgb(0,0,255)" />
	<polyline points="199.051,328.344 133.444,404.184 " fill="transparent" stroke-width="0.5" stroke="rgb(0,0,255)" />
	<polyline points="133.444,404.184 137.188,389.24 " fill="transparent" stroke-width="0.5" stroke="rgb(0,0,255)" />
	<polyline points="199.051,328.344 138.866,361.254 " fill="transparent" stroke-width="0.5" stroke="rgb(0,0,255)" />
	<polyline points="138.866,361.254 142.004,351.081 " fill="transparent" stroke-width="0.5" stroke="rgb(0,0,255)" />
	<polyline points="199.051,328.344 132.588,380.209 " fill="transparent" stroke-width="0.5" stroke="rgb(0,0,255)" />
	<polyline points="199.051,328.344 102.14,407.991 " fill="transparent" stroke-width="0.5" stroke="rgb(0,0,255)" />
	<polyline points="182.594,342.193 243.532,362.05 " fill="transparent" stroke-width="0.5" stroke="rgb(0,0,255)" />
	<polyline points="243.532,362.05 148.181,444.597 " fill="transparent" stroke-width="0.5" stroke="rgb(0,0,255)" />
	<polyline points="243.532,362.05 238.269,351.145 " fill="transparent" stroke-width="0.5" stroke="rgb(0,0,255)" />
	<polyline points="243.532,362.05 167.07,359.365 " fill="transparent" stroke-width="0.5" stroke="rgb(0,0,255)" />
	<polyline points="167.07,359.365 83.2627,429.443 " fill="transparent" stroke-width="0.5" stroke="rgb(0,0,255)" />
	<polyline points="243.532,362.05 161.217,410.375 " fill="transparent" stroke-width="0.5" stroke="rgb(0,0,255)" />
	<polyline points="243.532,362.05 296.72,407.765 " fill="transparent" stroke-width="0.5" stroke="rgb(0,0,255)" />
	<polyline points="296.72,407.765 249.498,499.959 " fill="transparent" stroke-width="0.5" stroke="rgb(0,0,255)" />
	<polyline points="249.498,499.959 253.199,482.435 " fill="transparent" stroke-width="0.5" stroke="rgb(0,0,255)" />
	<polyline points="253.199,482.435 212.963,480.508 " fill="transparent" stroke-width="0.5" stroke="rgb(0,0,255)" />
	<polyline points="212.963,480.508 219.632,470.792 " fill="transparent" stroke-width="0.5" stroke="rgb(0,0,255)" />
	<polyline points="253.199,482.435 290.152,468.731 " fill="transparent" stroke-width="0.5" stroke="rgb(0,0,255)" />
	<polyline points="290.152,468.731 196.58,487.614 " fill="transparent" stroke-width="0.5" stroke="rgb(0,0,255)" />
	<polyline points="296.72,407.765 298.913,393.727 " fill="transparent" stroke-width="0.5" stroke="rgb(0,0,255)" />
	<polyline points="296.72,407.765 371.296,419.086 " fill="transparent" stroke-width="0.5" stroke="rgb(0,0,255)" />
	<polyline points="371.296,419.086 292.405,426.759 " fill="transparent" stroke-width="0.5" stroke="rgb(0,0,255)" />
	<polyline points="371.296,419.086 383.688,409.817 " fill="transparent" stroke-width="0.5" stroke="rgb(0,0,255)" />
	<polyline points="383.688,409.817 387.45,399.019 " fill="transparent" stroke-width="0.5" stroke="rgb(0,0,255)" />
	<polyline points="383.688,409.817 399.185,401.151 " fill="transparent" stroke-width="0.5" stroke="rgb(0,0,255)" />
	<polyline points="399.185,401.151 407.015,389.539 " fill="transparent" stroke-width="0.5" stroke="rgb(0,0,255)" />
	<polyline points="399.185,401.151 472.874,399.587 " fill="transparent" stroke-width="0.5" stroke="rgb(0,0,255)" />
	<polyline points="472.874,399.587 402.868,411.694 " fill="transparent" stroke-width="0.5" stroke="rgb(0,0,255)" />
	<polyline points="472.874,399.587 365.297,471.115 " fill="transparent" stroke-width="0.5" stroke="rgb(0,0,255)" />
	<polyline points="365.297,471.115 407.261,467.855 " fill="transparent" stroke-width="0.5" stroke="rgb(0,0,255)" />
	<polyline points="365.297,471.115 315.561,480.972 " fill="transparent" stroke-width="0.5" stroke="rgb(0,0,255)" />
	<polyline points="472.874,399.587 409.745,484.229 " fill="transparent" stroke-width="0.5" stroke="rgb(0,0,255)" />
	<polyline points="409.745,484.229 416.285,474.455 " fill="transparent" stroke-width="0.5" stroke="rgb(0,0,255)" />
	<polyline points="409.745,484.229 345.118,490.399 " fill="transparent" stroke-width="0.5" stroke="rgb(0,0,255)" />
	<polyline points="399.185,401.151 313.049,431.71 " fill="transparent" stroke-width="0.5" stroke="rgb(0,0,255)" />
	<polyline points="313.049,431.71 331.781,417.015 " fill="transparent" stroke-width="0.5" stroke="rgb(0,0,255)" />
	<polyline points="383.688,409.817 390.504,396.435 " fill="transparent" stroke-width="0.5" stroke="rgb(0,0,255)" />
	<polyline points="390.504,396.435 390.899,388.336 " fill="transparent" stroke-width="0.5" stroke="rgb(0,0,255)" />
	<polyline points="390.899,388.336 394.937,380.466 " fill="transparent" stroke-width="0.5" stroke="rgb(0,0,255)" />
	<polyline points="390.899,388.336 358.594,383.721 " fill="transparent" stroke-width="0.5" stroke="rgb(0,0,255)" />
	<polyline points="390.899,388.336 365.896,382.453 " fill="transparent" stroke-width="0.5" stroke="rgb(0,0,255)" />
	<polyline points="390.899,388.336 323.532,397.382 " fill="transparent" stroke-width="0.5" stroke="rgb(0,0,255)" />
	<polyline points="390.899,388.336 334.725,379.267 " fill="transparent" stroke-width="0.5" stroke="rgb(0,0,255)" />
	<polyline points="334.725,379.267 326.108,365.448 " fill="transparent" stroke-width="0.5" stroke="rgb(0,0,255)" />
	<polyline points="326.108,365.448 224.716,377.112 " fill="transparent" stroke-width="0.5" stroke="rgb(0,0,255)" />
	<polyline points="326.108,365.448 239.435,403.211 " fill="transparent" stroke-width="0.5" stroke="rgb(0,0,255)" />
	<polyline points="334.725,379.267 249.439,422.853 " fill="transparent" stroke-width="0.5" stroke="rgb(0,0,255)" />
	<polyline points="249.439,422.853 150.034,454.501 " fill="transparent" stroke-width="0.5" stroke="rgb(0,0,255)" />
	<polyline points="390.899,388.336 364.115,377.471 " fill="transparent" stroke-width="0.5" stroke="rgb(0,0,255)" />
	<polyline points="364.115,377.471 267.25,385.749 " fill="transparent" stroke-width="0.5" stroke="rgb(0,0,255)" />
	<polyline points="390.899,388.336 328.763,419.265 " fill="transparent" stroke-width="0.5" stroke="rgb(0,0,255)" />
	<polyline points="328.763,419.265 225.187,435.324 " fill="transparent" stroke-width="0.5" stroke="rgb(0,0,255)" />
	<polyline points="225.187,435.324 149.908,439 " fill="transparent" stroke-width="0.5" stroke="rgb(0,0,255)" />
	<polyline points="225.187,435.324 221.736,419.274 " fill="transparent" stroke-width="0.5" stroke="rgb(0,0,255)" />
	<polyline points="390.504,396.435 333.949,397.843 " fill="transparent" stroke-width="0.5" stroke="rgb(0,0,255)" />
	<polyline points="383.688,409.817 340.143,400.084 " fill="transparent" stroke-width="0.5" stroke="rgb(0,0,255)" />
	<polyline points="340.143,400.084 341.853,391.393 " fill="transparent" stroke-width="0.5" stroke="rgb(0,0,255)" />
	<polyline points="340.143,400.084 243.553,439.334 " fill="transparent" stroke-width="0.5" stroke="rgb(0,0,255)" />
	<polyline points="243.553,439.334 258.237,424.017 " fill="transparent" stroke-width="0.5" stroke="rgb(0,0,255)" />
	<polyline points="243.553,439.334 254.25,425.585 " fill="transparent" stroke-width="0.5" stroke="rgb(0,0,255)" />
	<polyline points="243.532,362.05 154.309,354.603 " fill="transparent" stroke-width="0.5" stroke="rgb(0,0,255)" />
	<polyline points="154.309,354.603 136.925,336.149 " fill="transparent" stroke-width="0.5" stroke="rgb(0,0,255)" />
	<polyline points="182.594,342.193 101.831,392.267 " fill="transparent" stroke-width="0.5" stroke="rgb(0,0,255)" />
	<polyline points="138.593,375.233 105.699,360.313 " fill="transparent" stroke-width="0.5" stroke="rgb(0,0,255)" />
	<polyline points="105.699,360.313 16.7687,461.351 " fill="transparent" stroke-width="0.5" stroke="rgb(0,0,255)" />
	<polyline points="105.699,360.313 91.7319,342.863 " fill="transparent" stroke-width="0.5" stroke="rgb(0,0,255)" />
	<polyline points="91.7319,342.863 26.633,389.318 " fill="transparent" stroke-width="0.5" stroke="rgb(0,0,255)" />
	<polyline points="91.7319,342.863 95.3287,327.414 " fill="transparent" stroke-width="0.5" stroke="rgb(0,0,255)" />
	<polyline points="95.3287,327.414 11.1868,317.908 " fill="transparent" stroke-width="0.5" stroke="rgb(0,0,255)" />
	<polyline points="11.1868,317.908 14.7783,299.883 " fill="transparent" stroke-width="0.5" stroke="rgb(0,0,255)" />
	<polyline points="14.7783,299.883 21.7431,285.742 " fill="transparent" stroke-width="0.5" stroke="rgb(0,0,255)" />
	<polyline points="11.1868,317.908 32.7244,306.95 " fill="transparent" stroke-width="0.5" stroke="rgb(0,0,255)" />
	<polyline points="32.7244,306.95 45.6247,404.466 " fill="transparent" stroke-width="0.5" stroke="rgb(0,0,255)" />
	<polyline points="45.6247,404.466 15.8105,395.245 " fill="transparent" stroke-width="0.5" stroke="rgb(0,0,255)" />
	<polyline points="32.7244,306.95 88.5246,417.646 " fill="transparent" stroke-width="0.5" stroke="rgb(0,0,255)" />
	<polyline points="11.1868,317.908 110.28,389.693 " fill="transparent" stroke-width="0.5" stroke="rgb(0,0,255)" />
	<polyline points="11.1868,317.908 10.7251,429.024 " fill="transparent" stroke-width="0.5" stroke="rgb(0,0,255)" />
	<polyline points="11.1868,317.908 0.410791,387.223 " fill="transparent" stroke-width="0.5" stroke="rgb(0,0,255)" />
	<polyline points="0.410791,387.223 15.0015,363.385 " fill="transparent" stroke-width="0.5" stroke="rgb(0,0,255)" />
	<polyline points="105.699,360.313 23.0024,364.154 " fill="transparent" stroke-width="0.5" stroke="rgb(0,0,255)" />
	<polyline points="23.0024,364.154 37.2472,348.478 " fill="transparent" stroke-width="0.5" stroke="rgb(0,0,255)" />
	<polyline points="37.2472,348.478 44.7666,324.895 " fill="transparent" stroke-width="0.5" stroke="rgb(0,0,255)" />
	<polyline points="105.699,360.313 19.4532,444.069 " fill="transparent" stroke-width="0.5" stroke="rgb(0,0,255)" />
	<polyline points="19.4532,444.069 35.0261,421.399 " fill="transparent" stroke-width="0.5" stroke="rgb(0,0,255)" />
	<polyline points="19.4532,444.069 14.3575,426.955 " fill="transparent" stroke-width="0.5" stroke="rgb(0,0,255)" />
	<polyline points="105.699,360.313 4.04091,442.148 " fill="transparent" stroke-width="0.5" stroke="rgb(0,0,255)" />
	<polyline points="4.04091,442.148 67.1954,441.5 " fill="transparent" stroke-width="0.5" stroke="rgb(0,0,255)" />
	<polyline points="67.1954,441.5 38.4419,431.745 " fill="transparent" stroke-width="0.5" stroke="rgb(0,0,255)" />
	<polyline points="128.903,391.59 62.961,409.281 " fill="transparent" stroke-width="0.5" stroke="rgb(0,0,255)" />
	<polyline points="136.555,402.491 83.2071,414.473 " fill="transparent" stroke-width="0.5" stroke="rgb(0,0,255)" />
	<circle cx="83.3333" cy="416.667" r="2" fill="rgb(255,0,0)" />
	<circle cx="416.667" cy="83.3333" r="2" fill="rgb(0,255,0)" />
	<polyline points="83.3333,416.667 113.359,396.12 27.407,401.888 31.8683,382.517 35.2905,366.55 55.5015,350.186 66.052,340.196 94.5092,324.177 46.0063,313.259 44.5336,301.412 38.048,287.047 80.6624,281.165 56.8289,261.367 74.5512,248.996 80.007,240.023 83.3762,224.791 81.5446,212.929 69.0054,202.861 91.6017,189.764 144.459,199.783 169.851,202.276 202.883,206.094 231.01,203.383 236.486,191.663 248.962,183.655 273.931,186.81 306.799,189.679 343.821,192.796 354.044,186.735 345.773,174.144 350.068,160.049 362.62,151.137 448.893,179.131 455.819,165.717 455.214,146.189 466.202,130.598 476.222,111.883 455.225,112.266 424.387,115.299 422.595,100.336 422.391,88.5991 420.337,79.2991 " fill="transparent" stroke-width="3" stroke="rgb(0,0,0)" />
</svg>
