<?xml version="1.0" standalone="no" ?>
<!DOCTYPE svg PUBLIC "-//W3C//DTD SVG 1.1//EN" "http://www.w3.org/Graphics/SVG/1.1/DTD/svg11.dtd">
<svg width="500px" height="500px" xmlns="http://www.w3.org/2000/svg" version="1.1" >
	<circle cx="251.891" cy="244.178" r="2.5" fill="rgb(255,255,255)" />
	<circle cx="373.214" cy="215.019" r="2.5" fill="rgb(241,241,241)" />
	<circle cx="279.165" cy="254.62" r="2.5" fill="rgb(234,234,234)" />
	<circle cx="359.573" cy="226.549" r="2.5" fill="rgb(225,225,225)" />
	<circle cx="135.574" cy="255.037" r="2.5" fill="rgb(217,217,217)" />
	<circle cx="352.602" cy="238.193" r="2.5" fill="rgb(210,210,210)" />
	<circle cx="231.622" cy="256.426" r="2.5" fill="rgb(206,206,206)" />
	<circle cx="229.949" cy="261.516" r="2.5" fill="rgb(206,206,206)" />
	<circle cx="251.603" cy="244.376" r="2.5" fill="rgb(205,205,205)" />
	<circle cx="158.299" cy="275.65" r="2.5" fill="rgb(197,197,197)" />
	<circle cx="335.024" cy="248.348" r="2.5" fill="rgb(194,194,194)" />
	<circle cx="219.487" cy="273.55" r="2.5" fill="rgb(190,190,190)" />
	<circle cx="243.893" cy="278.051" r="2.5" fill="rgb(188,188,188)" />
	<circle cx="323.633" cy="260.443" r="2.5" fill="rgb(178,178,178)" />
	<circle cx="158.832" cy="320.52" r="2.5" fill="rgb(171,171,171)" />
	<circle cx="222.332" cy="300.2" r="2.5" fill="rgb(164,164,164)" />
	<circle cx="131.341" cy="325.124" r="2.5" fill="rgb(163,163,163)" />
	<circle cx="308.211" cy="271.65" r="2.5" fill="rgb(162,162,162)" />
	<circle cx="157.813" cy="338.688" r="2.5" fill="rgb(159,159,159)" />
	<circle cx="69.9992" cy="309.053" r="2.5" fill="rgb(156,156,156)" />
	<circle cx="309.268" cy="281.152" r="2.5" fill="rgb(153,153,153)" />
	<circle cx="220.776" cy="314.281" r="2.5" fill="rgb(152,152,152)" />
	<circle cx="246.843" cy="318.95" r="2.5" fill="rgb(149,149,149)" />
	<circle cx="130.65" cy="344.932" r="2.5" fill="rgb(147,147,147)" />
	<circle cx="89.3849" cy="208.375" r="2.5" fill="rgb(146,146,146)" />
	<circle cx="150.084" cy="249.781" r="2.5" fill="rgb(146,146,146)" />
	<circle cx="311.716" cy="292.423" r="2.5" fill="rgb(142,142,142)" />
	<circle cx="241.534" cy="435.129" r="2.5" fill="rgb(140,140,140)" />
	<circle cx="72.4466" cy="325.565" r="2.5" fill="rgb(138,138,138)" />
	<circle cx="24.3226" cy="370.2" r="2.5" fill="rgb(136,136,136)" />
	<circle cx="250.122" cy="328.084" r="2.5" fill="rgb(136,136,136)" />
	<circle cx="88.1936" cy="223.684" r="2.5" fill="rgb(135,135,135)" />
	<circle cx="314.443" cy="300.584" r="2.5" fill="rgb(134,134,134)" />
	<circle cx="148.29" cy="269.524" r="2.5" fill="rgb(133,133,133)" />
	<circle cx="63.5417" cy="337.929" r="2.5" fill="rgb(131,131,131)" />
	<circle cx="165.473" cy="363.234" r="2.5" fill="rgb(127,127,127)" />
	<circle cx="1.0313" cy="349.332" r="2.5" fill="rgb(125,125,125)" />
	<circle cx="236.898" cy="325.929" r="2.5" fill="rgb(125,125,125)" />
	<circle cx="96.7336" cy="367.416" r="2.5" fill="rgb(124,124,124)" />
	<circle cx="286.486" cy="443.497" r="2.5" fill="rgb(123,123,123)" />
	<circle cx="81.2373" cy="238.155" r="2.5" fill="rgb(123,123,123)" />
	<circle cx="345.821" cy="319.836" r="2.5" fill="rgb(123,123,123)" />
	<circle cx="317.221" cy="311.732" r="2.5" fill="rgb(123,123,123)" />
	<circle cx="76.9302" cy="354" r="2.5" fill="rgb(123,123,123)" />
	<circle cx="414.129" cy="432.564" r="2.5" fill="rgb(122,122,122)" />
	<circle cx="127.725" cy="260.876" r="2.5" fill="rgb(121,121,121)" />
	<circle cx="408.342" cy="434.024" r="2.5" fill="rgb(120,120,120)" />
	<circle cx="8.8633" cy="334.951" r="2.5" fill="rgb(119,119,119)" />
	<circle cx="239.362" cy="336.773" r="2.5" fill="rgb(116,116,116)" />
	<circle cx="132.516" cy="340.063" r="2.5" fill="rgb(114,114,114)" />
	<circle cx="194.087" cy="428.92" r="2.5" fill="rgb(113,113,113)" />
	<circle cx="84.2941" cy="252.959" r="2.5" fill="rgb(113,113,113)" />
	<circle cx="47.8626" cy="410.003" r="2.5" fill="rgb(111,111,111)" />
	<circle cx="263.503" cy="454.844" r="2.5" fill="rgb(110,110,110)" />
	<circle cx="6.83679" cy="353.275" r="2.5" fill="rgb(110,110,110)" />
	<circle cx="302.688" cy="322.78" r="2.5" fill="rgb(109,109,109)" />
	<circle cx="295.453" cy="384.823" r="2.5" fill="rgb(106,106,106)" />
	<circle cx="275.398" cy="457.372" r="2.5" fill="rgb(106,106,106)" />
	<circle cx="94.57" cy="265.123" r="2.5" fill="rgb(106,106,106)" />
	<circle cx="81.0171" cy="347.8" r="2.5" fill="rgb(104,104,104)" />
	<circle cx="34.9939" cy="313.28" r="2.5" fill="rgb(102,102,102)" />
	<circle cx="411.127" cy="445.754" r="2.5" fill="rgb(100,100,100)" />
	<circle cx="106.581" cy="280.093" r="2.5" fill="rgb(97,97,97)" />
	<circle cx="249.93" cy="437.863" r="2.5" fill="rgb(96,96,96)" />
	<circle cx="268.179" cy="467.663" r="2.5" fill="rgb(95,95,95)" />
	<circle cx="22.9038" cy="324.921" r="2.5" fill="rgb(94,94,94)" />
	<circle cx="312.928" cy="392.713" r="2.5" fill="rgb(93,93,93)" />
	<circle cx="289.123" cy="336.174" r="2.5" fill="rgb(93,93,93)" />
	<circle cx="53.8365" cy="298.327" r="2.5" fill="rgb(92,92,92)" />
	<circle cx="360.445" cy="391.772" r="2.5" fill="rgb(89,89,89)" />
	<circle cx="119.417" cy="304.166" r="2.5" fill="rgb(82,82,82)" />
	<circle cx="274.873" cy="345.012" r="2.5" fill="rgb(82,82,82)" />
	<circle cx="24.7703" cy="364.555" r="2.5" fill="rgb(80,80,80)" />
	<circle cx="358.525" cy="398.784" r="2.5" fill="rgb(80,80,80)" />
	<circle cx="279.341" cy="348.826" r="2.5" fill="rgb(78,78,78)" />
	<circle cx="57.1142" cy="322.138" r="2.5" fill="rgb(78,78,78)" />
	<circle cx="62.3181" cy="359.452" r="2.5" fill="rgb(76,76,76)" />
	<circle cx="168.142" cy="350.203" r="2.5" fill="rgb(74,74,74)" />
	<circle cx="251.954" cy="346.999" r="2.5" fill="rgb(73,73,73)" />
	<circle cx="161.694" cy="368.109" r="2.5" fill="rgb(71,71,71)" />
	<circle cx="119.9" cy="323.807" r="2.5" fill="rgb(69,69,69)" />
	<circle cx="68.41" cy="400.594" r="2.5" fill="rgb(69,69,69)" />
	<circle cx="276.199" cy="359.82" r="2.5" fill="rgb(67,67,67)" />
	<circle cx="76.0815" cy="346.978" r="2.5" fill="rgb(67,67,67)" />
	<circle cx="248.097" cy="361.892" r="2.5" fill="rgb(59,59,59)" />
	<circle cx="143.247" cy="340.957" r="2.5" fill="rgb(59,59,59)" />
	<circle cx="109.675" cy="377.945" r="2.5" fill="rgb(58,58,58)" />
	<circle cx="121.989" cy="347.201" r="2.5" fill="rgb(57,57,57)" />
	<circle cx="10.5878" cy="415.845" r="2.5" fill="rgb(57,57,57)" />
	<circle cx="88.7581" cy="398.805" r="2.5" fill="rgb(55,55,55)" />
	<circle cx="203.035" cy="353.001" r="2.5" fill="rgb(55,55,55)" />
	<circle cx="140.874" cy="349.659" r="2.5" fill="rgb(55,55,55)" />
	<circle cx="120.771" cy="365.075" r="2.5" fill="rgb(53,53,53)" />
	<circle cx="61.0575" cy="374.577" r="2.5" fill="rgb(51,51,51)" />
	<circle cx="84.148" cy="398.114" r="2.5" fill="rgb(45,45,45)" />
	<circle cx="183.026" cy="362.677" r="2.5" fill="rgb(45,45,45)" />
	<circle cx="173.086" cy="477.519" r="2.5" fill="rgb(43,43,43)" />
	<circle cx="132.453" cy="377.039" r="2.5" fill="rgb(39,39,39)" />
	<circle cx="70.4187" cy="397.511" r="2.5" fill="rgb(38,38,38)" />
	<circle cx="163.913" cy="368.812" r="2.5" fill="rgb(38,38,38)" />
	<circle cx="44.6416" cy="397.607" r="2.5" fill="rgb(36,36,36)" />
	<circle cx="77.8887" cy="417.656" r="2.5" fill="rgb(35,35,35)" />
	<circle cx="106.04" cy="468.974" r="2.5" fill="rgb(34,34,34)" />
	<circle cx="129.034" cy="387.639" r="2.5" fill="rgb(32,32,32)" />
	<circle cx="117.099" cy="373.496" r="2.5" fill="rgb(27,27,27)" />
	<circle cx="50.0006" cy="421.937" r="2.5" fill="rgb(25,25,25)" />
	<circle cx="166.747" cy="392.28" r="2.5" fill="rgb(24,24,24)" />
	<circle cx="117.686" cy="384.786" r="2.5" fill="rgb(20,20,20)" />
	<circle cx="42.0387" cy="435.436" r="2.5" fill="rgb(19,19,19)" />
	<circle cx="21.6053" cy="433.665" r="2.5" fill="rgb(17,17,17)" />
	<circle cx="25.6755" cy="433.934" r="2.5" fill="rgb(17,17,17)" />
	<circle cx="12.3651" cy="439.571" r="2.5" fill="rgb(15,15,15)" />
	<circle cx="108.137" cy="397.59" r="2.5" fill="rgb(12,12,12)" />
	<circle cx="106.875" cy="397.35" r="2.5" fill="rgb(12,12,12)" />
	<circle cx="10.3682" cy="454.388" r="2.5" fill="rgb(8,8,8)" />
	<circle cx="83.3333" cy="416.667" r="2" fill="rgb(255,0,0)" />
	<circle cx="416.667" cy="83.3333" r="2" fill="rgb(0,255,0)" />
	<circle cx="83.3333" cy="416.667" r="2" fill="rgb(0,255,0)" />
	<circle cx="93.3103" cy="402.682" r="2" fill="rgb(0,255,0)" />
	<circle cx="119.498" cy="385.246" r="2" fill="rgb(0,255,0)" />
	<circle cx="75.7265" cy="382.998" r="2" fill="rgb(0,255,0)" />
	<circle cx="73.846" cy="360.569" r="2" fill="rgb(0,255,0)" />
	<circle cx="88.4008" cy="351.802" r="2" fill="rgb(0,255,0)" />
	<circle cx="101.294" cy="331.256" r="2" fill="rgb(0,255,0)" />
	<circle cx="103.194" cy="318.137" r="2" fill="rgb(0,255,0)" />
	<circle cx="112.566" cy="298.379" r="2" fill="rgb(0,255,0)" />
	<circle cx="90.207" cy="275.251" r="2" fill="rgb(0,255,0)" />
	<circle cx="97.5105" cy="262.241" r="2" fill="rgb(0,255,0)" />
	<circle cx="86.0845" cy="241.523" r="2" fill="rgb(0,255,0)" />
	<circle cx="115.473" cy="229.969" r="2" fill="rgb(0,255,0)" />
	<circle cx="134.876" cy="222.48" r="2" fill="rgb(0,255,0)" />
	<circle cx="127.13" cy="208.569" r="2" fill="rgb(0,255,0)" />
	<circle cx="185.864" cy="232.545" r="2" fill="rgb(0,255,0)" />
	<circle cx="194.524" cy="224.514" r="2" fill="rgb(0,255,0)" />
	<circle cx="198.184" cy="208.996" r="2" fill="rgb(0,255,0)" />
	<circle cx="176.252" cy="182.522" r="2" fill="rgb(0,255,0)" />
	<circle cx="214.023" cy="191.264" r="2" fill="rgb(0,255,0)" />
	<circle cx="165.668" cy="175.951" r="2" fill="rgb(0,255,0)" />
	<circle cx="210.025" cy="181.09" r="2" fill="rgb(0,255,0)" />
	<circle cx="235.296" cy="178.142" r="2" fill="rgb(0,255,0)" />
	<circle cx="278.103" cy="192.244" r="2" fill="rgb(0,255,0)" />
	<circle cx="277.429" cy="175.726" r="2" fill="rgb(0,255,0)" />
	<circle cx="307.511" cy="181.666" r="2" fill="rgb(0,255,0)" />
	<circle cx="311.514" cy="173.808" r="2" fill="rgb(0,255,0)" />
	<circle cx="329.669" cy="171.87" r="2" fill="rgb(0,255,0)" />
	<circle cx="333.971" cy="157.917" r="2" fill="rgb(0,255,0)" />
	<circle cx="341.129" cy="152.601" r="2" fill="rgb(0,255,0)" />
	<circle cx="418.231" cy="177.042" r="2" fill="rgb(0,255,0)" />
	<circle cx="418.917" cy="163.754" r="2" fill="rgb(0,255,0)" />
	<circle cx="419.492" cy="146.59" r="2" fill="rgb(0,255,0)" />
	<circle cx="411.098" cy="129.584" r="2" fill="rgb(0,255,0)" />
	<circle cx="418.511" cy="116.506" r="2" fill="rgb(0,255,0)" />
	<circle cx="420.854" cy="97.1454" r="2" fill="rgb(0,255,0)" />
	<circle cx="419.927" cy="87.6268" r="2" fill="rgb(0,255,0)" />
</svg>
