<?xml version="1.0" standalone="no" ?>
<!DOCTYPE svg PUBLIC "-//W3C//DTD SVG 1.1//EN" "http://www.w3.org/Graphics/SVG/1.1/DTD/svg11.dtd">
<svg width="500px" height="500px" xmlns="http://www.w3.org/2000/svg" version="1.1" >
	<polyline points="83.3333,416.667 127.257,402.428 " fill="transparent" stroke-width="0.5" stroke="rgb(0,0,255)" />
	<polyline points="127.257,402.428 127.475,384.812 " fill="transparent" stroke-width="0.5" stroke="rgb(0,0,255)" />
	<polyline points="127.475,384.812 185.078,380.589 " fill="transparent" stroke-width="0.5" stroke="rgb(0,0,255)" />
	<polyline points="185.078,380.589 71.4053,417.61 " fill="transparent" stroke-width="0.5" stroke="rgb(0,0,255)" />
	<polyline points="185.078,380.589 153.437,373.084 " fill="transparent" stroke-width="0.5" stroke="rgb(0,0,255)" />
	<polyline points="153.437,373.084 155.103,358.795 " fill="transparent" stroke-width="0.5" stroke="rgb(0,0,255)" />
	<polyline points="153.437,373.084 157.789,359.175 " fill="transparent" stroke-width="0.5" stroke="rgb(0,0,255)" />
	<polyline points="153.437,373.084 47.9035,384.73 " fill="transparent" stroke-width="0.5" stroke="rgb(0,0,255)" />
	<polyline points="47.9035,384.73 23.0692,356.843 " fill="transparent" stroke-width="0.5" stroke="rgb(0,0,255)" />
	<polyline points="47.9035,384.73 38.001,360.028 " fill="transparent" stroke-width="0.5" stroke="rgb(0,0,255)" />
	<polyline points="185.078,380.589 169.084,362.034 " fill="transparent" stroke-width="0.5" stroke="rgb(0,0,255)" />
	<polyline points="169.084,362.034 181.072,346.141 " fill="transparent" stroke-width="0.5" stroke="rgb(0,0,255)" />
	<polyline points="181.072,346.141 190.508,336.316 " fill="transparent" stroke-width="0.5" stroke="rgb(0,0,255)" />
	<polyline points="190.508,336.316 105.924,356.599 " fill="transparent" stroke-width="0.5" stroke="rgb(0,0,255)" />
	<polyline points="190.508,336.316 212.274,328.405 " fill="transparent" stroke-width="0.5" stroke="rgb(0,0,255)" />
	<polyline points="212.274,328.405 91.6555,384.114 " fill="transparent" stroke-width="0.5" stroke="rgb(0,0,255)" />
	<polyline points="190.508,336.316 162.787,313.35 " fill="transparent" stroke-width="0.5" stroke="rgb(0,0,255)" />
	<polyline points="162.787,313.35 177.356,301.308 " fill="transparent" stroke-width="0.5" stroke="rgb(0,0,255)" />
	<polyline points="177.356,301.308 183.446,289.271 " fill="transparent" stroke-width="0.5" stroke="rgb(0,0,255)" />
	<polyline points="183.446,289.271 74.7159,300.14 " fill="transparent" stroke-width="0.5" stroke="rgb(0,0,255)" />
	<polyline points="74.7159,300.14 96.967,293.913 " fill="transparent" stroke-width="0.5" stroke="rgb(0,0,255)" />
	<polyline points="177.356,301.308 128.882,280.882 " fill="transparent" stroke-width="0.5" stroke="rgb(0,0,255)" />
	<polyline points="128.882,280.882 131.054,271.019 " fill="transparent" stroke-width="0.5" stroke="rgb(0,0,255)" />
	<polyline points="128.882,280.882 49.5499,337.095 " fill="transparent" stroke-width="0.5" stroke="rgb(0,0,255)" />
	<polyline points="49.5499,337.095 40.0993,318.701 " fill="transparent" stroke-width="0.5" stroke="rgb(0,0,255)" />
	<polyline points="40.0993,318.701 13.8248,295.479 " fill="transparent" stroke-width="0.5" stroke="rgb(0,0,255)" />
	<polyline points="40.0993,318.701 26.3135,300.638 " fill="transparent" stroke-width="0.5" stroke="rgb(0,0,255)" />
	<polyline points="128.882,280.882 102.598,267.472 " fill="transparent" stroke-width="0.5" stroke="rgb(0,0,255)" />
	<polyline points="102.598,267.472 105.637,255.652 " fill="transparent" stroke-width="0.5" stroke="rgb(0,0,255)" />
	<polyline points="105.637,255.652 123.68,244.756 " fill="transparent" stroke-width="0.5" stroke="rgb(0,0,255)" />
	<polyline points="123.68,244.756 155.248,249.761 " fill="transparent" stroke-width="0.5" stroke="rgb(0,0,255)" />
	<polyline points="155.248,249.761 147.701,237.714 " fill="transparent" stroke-width="0.5" stroke="rgb(0,0,255)" />
	<polyline points="147.701,237.714 116.63,211.254 " fill="transparent" stroke-width="0.5" stroke="rgb(0,0,255)" />
	<polyline points="116.63,211.254 125.504,203.989 " fill="transparent" stroke-width="0.5" stroke="rgb(0,0,255)" />
	<polyline points="125.504,203.989 114.164,184.126 " fill="transparent" stroke-width="0.5" stroke="rgb(0,0,255)" />
	<polyline points="114.164,184.126 119.564,168.195 " fill="transparent" stroke-width="0.5" stroke="rgb(0,0,255)" />
	<polyline points="119.564,168.195 86.3353,157.359 " fill="transparent" stroke-width="0.5" stroke="rgb(0,0,255)" />
	<polyline points="86.3353,157.359 89.211,143.67 " fill="transparent" stroke-width="0.5" stroke="rgb(0,0,255)" />
	<polyline points="89.211,143.67 106.202,230.526 " fill="transparent" stroke-width="0.5" stroke="rgb(0,0,255)" />
	<polyline points="86.3353,157.359 91.0334,143.708 " fill="transparent" stroke-width="0.5" stroke="rgb(0,0,255)" />
	<polyline points="91.0334,143.708 123.216,142.045 " fill="transparent" stroke-width="0.5" stroke="rgb(0,0,255)" />
	<polyline points="123.216,142.045 124.831,133.141 " fill="transparent" stroke-width="0.5" stroke="rgb(0,0,255)" />
	<polyline points="124.831,133.141 109.323,116.014 " fill="transparent" stroke-width="0.5" stroke="rgb(0,0,255)" />
	<polyline points="109.323,116.014 110.926,105.72 " fill="transparent" stroke-width="0.5" stroke="rgb(0,0,255)" />
	<polyline points="110.926,105.72 126.333,96.75 " fill="transparent" stroke-width="0.5" stroke="rgb(0,0,255)" />
	<polyline points="126.333,96.75 119.334,80.8762 " fill="transparent" stroke-width="0.5" stroke="rgb(0,0,255)" />
	<polyline points="119.334,80.8762 110.676,71.4498 " fill="transparent" stroke-width="0.5" stroke="rgb(0,0,255)" />
	<polyline points="110.926,105.72 73.1582,100.4 " fill="transparent" stroke-width="0.5" stroke="rgb(0,0,255)" />
	<polyline points="73.1582,100.4 61.7369,90.5302 " fill="transparent" stroke-width="0.5" stroke="rgb(0,0,255)" />
	<polyline points="91.0334,143.708 131.433,202.383 " fill="transparent" stroke-width="0.5" stroke="rgb(0,0,255)" />
	<polyline points="86.3353,157.359 58.032,153.47 " fill="transparent" stroke-width="0.5" stroke="rgb(0,0,255)" />
	<polyline points="58.032,153.47 142.76,245.08 " fill="transparent" stroke-width="0.5" stroke="rgb(0,0,255)" />
	<polyline points="119.564,168.195 184.46,186.622 " fill="transparent" stroke-width="0.5" stroke="rgb(0,0,255)" />
	<polyline points="114.164,184.126 165.37,203.086 " fill="transparent" stroke-width="0.5" stroke="rgb(0,0,255)" />
	<polyline points="114.164,184.126 91.0289,269.407 " fill="transparent" stroke-width="0.5" stroke="rgb(0,0,255)" />
	<polyline points="116.63,211.254 166.885,223.954 " fill="transparent" stroke-width="0.5" stroke="rgb(0,0,255)" />
	<polyline points="116.63,211.254 176.625,235.403 " fill="transparent" stroke-width="0.5" stroke="rgb(0,0,255)" />
	<polyline points="176.625,235.403 122.958,284.085 " fill="transparent" stroke-width="0.5" stroke="rgb(0,0,255)" />
	<polyline points="122.958,284.085 132.356,265.794 " fill="transparent" stroke-width="0.5" stroke="rgb(0,0,255)" />
	<polyline points="116.63,211.254 172.32,229.725 " fill="transparent" stroke-width="0.5" stroke="rgb(0,0,255)" />
	<polyline points="155.248,249.761 93.7334,254.772 " fill="transparent" stroke-width="0.5" stroke="rgb(0,0,255)" />
	<polyline points="102.598,267.472 42.8738,256.302 " fill="transparent" stroke-width="0.5" stroke="rgb(0,0,255)" />
	<polyline points="42.8738,256.302 22.8843,238.415 " fill="transparent" stroke-width="0.5" stroke="rgb(0,0,255)" />
	<polyline points="22.8843,238.415 1.26978,229.522 " fill="transparent" stroke-width="0.5" stroke="rgb(0,0,255)" />
	<polyline points="22.8843,238.415 26.5059,222.72 " fill="transparent" stroke-width="0.5" stroke="rgb(0,0,255)" />
	<polyline points="26.5059,222.72 53.036,350.041 " fill="transparent" stroke-width="0.5" stroke="rgb(0,0,255)" />
	<polyline points="26.5059,222.72 101.376,270.725 " fill="transparent" stroke-width="0.5" stroke="rgb(0,0,255)" />
	<polyline points="101.376,270.725 112.416,256.978 " fill="transparent" stroke-width="0.5" stroke="rgb(0,0,255)" />
	<polyline points="185.078,380.589 70.9707,423.021 " fill="transparent" stroke-width="0.5" stroke="rgb(0,0,255)" />
	<polyline points="185.078,380.589 166.15,361.973 " fill="transparent" stroke-width="0.5" stroke="rgb(0,0,255)" />
	<polyline points="166.15,361.973 162.716,349.455 " fill="transparent" stroke-width="0.5" stroke="rgb(0,0,255)" />
	<polyline points="166.15,361.973 104.703,363.537 " fill="transparent" stroke-width="0.5" stroke="rgb(0,0,255)" />
	<polyline points="104.703,363.537 55.4971,363.267 " fill="transparent" stroke-width="0.5" stroke="rgb(0,0,255)" />
	<polyline points="166.15,361.973 60.0652,443.596 " fill="transparent" stroke-width="0.5" stroke="rgb(0,0,255)" />
	<polyline points="60.0652,443.596 85.7131,427.33 " fill="transparent" stroke-width="0.5" stroke="rgb(0,0,255)" />
	<polyline points="60.0652,443.596 20.1114,430.854 " fill="transparent" stroke-width="0.5" stroke="rgb(0,0,255)" />
	<polyline points="20.1114,430.854 24.0768,410.466 " fill="transparent" stroke-width="0.5" stroke="rgb(0,0,255)" />
	<polyline points="20.1114,430.854 35.5986,402.87 " fill="transparent" stroke-width="0.5" stroke="rgb(0,0,255)" />
	<polyline points="20.1114,430.854 17.5049,413.32 " fill="transparent" stroke-width="0.5" stroke="rgb(0,0,255)" />
	<polyline points="20.1114,430.854 56.4753,410.017 " fill="transparent" stroke-width="0.5" stroke="rgb(0,0,255)" />
	<polyline points="166.15,361.973 74.7157,381.146 " fill="transparent" stroke-width="0.5" stroke="rgb(0,0,255)" />
	<polyline points="74.7157,381.146 77.8816,359.384 " fill="transparent" stroke-width="0.5" stroke="rgb(0,0,255)" />
	<polyline points="77.8816,359.384 65.2884,333.635 " fill="transparent" stroke-width="0.5" stroke="rgb(0,0,255)" />
	<polyline points="65.2884,333.635 65.4191,317.056 " fill="transparent" stroke-width="0.5" stroke="rgb(0,0,255)" />
	<polyline points="166.15,361.973 106.794,387.238 " fill="transparent" stroke-width="0.5" stroke="rgb(0,0,255)" />
	<polyline points="166.15,361.973 108.513,396.024 " fill="transparent" stroke-width="0.5" stroke="rgb(0,0,255)" />
	<polyline points="166.15,361.973 113.202,446.59 " fill="transparent" stroke-width="0.5" stroke="rgb(0,0,255)" />
	<polyline points="113.202,446.59 87.9869,437.195 " fill="transparent" stroke-width="0.5" stroke="rgb(0,0,255)" />
	<polyline points="166.15,361.973 95.2831,385.054 " fill="transparent" stroke-width="0.5" stroke="rgb(0,0,255)" />
	<polyline points="95.2831,385.054 27.9413,372.678 " fill="transparent" stroke-width="0.5" stroke="rgb(0,0,255)" />
	<polyline points="95.2831,385.054 8.89191,407.68 " fill="transparent" stroke-width="0.5" stroke="rgb(0,0,255)" />
	<polyline points="8.89191,407.68 39.4413,383.721 " fill="transparent" stroke-width="0.5" stroke="rgb(0,0,255)" />
	<polyline points="39.4413,383.721 45.601,368.463 " fill="transparent" stroke-width="0.5" stroke="rgb(0,0,255)" />
	<polyline points="95.2831,385.054 46.6849,430.937 " fill="transparent" stroke-width="0.5" stroke="rgb(0,0,255)" />
	<polyline points="185.078,380.589 191.105,453.981 " fill="transparent" stroke-width="0.5" stroke="rgb(0,0,255)" />
	<polyline points="191.105,453.981 179.753,443.642 " fill="transparent" stroke-width="0.5" stroke="rgb(0,0,255)" />
	<polyline points="191.105,453.981 210.822,436.803 " fill="transparent" stroke-width="0.5" stroke="rgb(0,0,255)" />
	<polyline points="210.822,436.803 168.806,439.034 " fill="transparent" stroke-width="0.5" stroke="rgb(0,0,255)" />
	<polyline points="210.822,436.803 143.957,440.335 " fill="transparent" stroke-width="0.5" stroke="rgb(0,0,255)" />
	<polyline points="210.822,436.803 154.896,465.772 " fill="transparent" stroke-width="0.5" stroke="rgb(0,0,255)" />
	<polyline points="191.105,453.981 98.6094,487.864 " fill="transparent" stroke-width="0.5" stroke="rgb(0,0,255)" />
	<polyline points="191.105,453.981 262.192,469.936 " fill="transparent" stroke-width="0.5" stroke="rgb(0,0,255)" />
	<polyline points="262.192,469.936 290.437,454.633 " fill="transparent" stroke-width="0.5" stroke="rgb(0,0,255)" />
	<polyline points="290.437,454.633 182.42,493.41 " fill="transparent" stroke-width="0.5" stroke="rgb(0,0,255)" />
	<polyline points="182.42,493.41 127.181,493.551 " fill="transparent" stroke-width="0.5" stroke="rgb(0,0,255)" />
	<polyline points="182.42,493.41 157.842,480.799 " fill="transparent" stroke-width="0.5" stroke="rgb(0,0,255)" />
	<polyline points="290.437,454.633 385.001,454.348 " fill="transparent" stroke-width="0.5" stroke="rgb(0,0,255)" />
	<polyline points="385.001,454.348 311.341,463.057 " fill="transparent" stroke-width="0.5" stroke="rgb(0,0,255)" />
	<polyline points="311.341,463.057 262.5,466.903 " fill="transparent" stroke-width="0.5" stroke="rgb(0,0,255)" />
	<polyline points="385.001,454.348 390.874,447.349 " fill="transparent" stroke-width="0.5" stroke="rgb(0,0,255)" />
	<polyline points="385.001,454.348 383.226,446.245 " fill="transparent" stroke-width="0.5" stroke="rgb(0,0,255)" />
	<polyline points="383.226,446.245 415.815,434.931 " fill="transparent" stroke-width="0.5" stroke="rgb(0,0,255)" />
	<polyline points="415.815,434.931 316.465,447.619 " fill="transparent" stroke-width="0.5" stroke="rgb(0,0,255)" />
	<polyline points="415.815,434.931 421.65,427.103 " fill="transparent" stroke-width="0.5" stroke="rgb(0,0,255)" />
	<polyline points="415.815,434.931 330.048,438.741 " fill="transparent" stroke-width="0.5" stroke="rgb(0,0,255)" />
	<polyline points="415.815,434.931 332.177,483.638 " fill="transparent" stroke-width="0.5" stroke="rgb(0,0,255)" />
	<polyline points="415.815,434.931 424.266,424.537 " fill="transparent" stroke-width="0.5" stroke="rgb(0,0,255)" />
	<polyline points="415.815,434.931 411.979,428.535 " fill="transparent" stroke-width="0.5" stroke="rgb(0,0,255)" />
	<polyline points="411.979,428.535 414.617,415.458 " fill="transparent" stroke-width="0.5" stroke="rgb(0,0,255)" />
	<polyline points="414.617,415.458 419.105,402.533 " fill="transparent" stroke-width="0.5" stroke="rgb(0,0,255)" />
	<polyline points="419.105,402.533 420.049,392.188 " fill="transparent" stroke-width="0.5" stroke="rgb(0,0,255)" />
	<polyline points="420.049,392.188 336.604,447.516 " fill="transparent" stroke-width="0.5" stroke="rgb(0,0,255)" />
	<polyline points="420.049,392.188 417.259,380.376 " fill="transparent" stroke-width="0.5" stroke="rgb(0,0,255)" />
	<polyline points="417.259,380.376 328.879,389.509 " fill="transparent" stroke-width="0.5" stroke="rgb(0,0,255)" />
	<polyline points="417.259,380.376 313.802,395.604 " fill="transparent" stroke-width="0.5" stroke="rgb(0,0,255)" />
	<polyline points="313.802,395.604 241.484,420.451 " fill="transparent" stroke-width="0.5" stroke="rgb(0,0,255)" />
	<polyline points="241.484,420.451 239.785,410.038 " fill="transparent" stroke-width="0.5" stroke="rgb(0,0,255)" />
	<polyline points="417.259,380.376 399.414,366.569 " fill="transparent" stroke-width="0.5" stroke="rgb(0,0,255)" />
	<polyline points="399.414,366.569 380.529,351.985 " fill="transparent" stroke-width="0.5" stroke="rgb(0,0,255)" />
	<polyline points="380.529,351.985 388.905,340.54 " fill="transparent" stroke-width="0.5" stroke="rgb(0,0,255)" />
	<polyline points="380.529,351.985 383.313,339.829 " fill="transparent" stroke-width="0.5" stroke="rgb(0,0,255)" />
	<polyline points="383.313,339.829 417.33,340.947 " fill="transparent" stroke-width="0.5" stroke="rgb(0,0,255)" />
	<polyline points="417.33,340.947 413.941,333.955 " fill="transparent" stroke-width="0.5" stroke="rgb(0,0,255)" />
	<polyline points="417.33,340.947 412.46,329.771 " fill="transparent" stroke-width="0.5" stroke="rgb(0,0,255)" />
	<polyline points="417.33,340.947 402.223,326.204 " fill="transparent" stroke-width="0.5" stroke="rgb(0,0,255)" />
	<polyline points="402.223,326.204 389.46,316.798 " fill="transparent" stroke-width="0.5" stroke="rgb(0,0,255)" />
	<polyline points="389.46,316.798 383.378,302.027 " fill="transparent" stroke-width="0.5" stroke="rgb(0,0,255)" />
	<polyline points="389.46,316.798 329.768,359.122 " fill="transparent" stroke-width="0.5" stroke="rgb(0,0,255)" />
	<polyline points="389.46,316.798 405.814,308.506 " fill="transparent" stroke-width="0.5" stroke="rgb(0,0,255)" />
	<polyline points="405.814,308.506 401.292,298.244 " fill="transparent" stroke-width="0.5" stroke="rgb(0,0,255)" />
	<polyline points="401.292,298.244 424.83,296.599 " fill="transparent" stroke-width="0.5" stroke="rgb(0,0,255)" />
	<polyline points="424.83,296.599 298.186,363.201 " fill="transparent" stroke-width="0.5" stroke="rgb(0,0,255)" />
	<polyline points="424.83,296.599 433.936,288.321 " fill="transparent" stroke-width="0.5" stroke="rgb(0,0,255)" />
	<polyline points="433.936,288.321 434.015,278.541 " fill="transparent" stroke-width="0.5" stroke="rgb(0,0,255)" />
	<polyline points="401.292,298.244 392.476,284.438 " fill="transparent" stroke-width="0.5" stroke="rgb(0,0,255)" />
	<polyline points="392.476,284.438 386.903,272.219 " fill="transparent" stroke-width="0.5" stroke="rgb(0,0,255)" />
	<polyline points="386.903,272.219 393.007,258.999 " fill="transparent" stroke-width="0.5" stroke="rgb(0,0,255)" />
	<polyline points="386.903,272.219 274.542,280.733 " fill="transparent" stroke-width="0.5" stroke="rgb(0,0,255)" />
	<polyline points="386.903,272.219 363.396,257.532 " fill="transparent" stroke-width="0.5" stroke="rgb(0,0,255)" />
	<polyline points="363.396,257.532 369.511,248.651 " fill="transparent" stroke-width="0.5" stroke="rgb(0,0,255)" />
	<polyline points="363.396,257.532 345.85,247.545 " fill="transparent" stroke-width="0.5" stroke="rgb(0,0,255)" />
	<polyline points="345.85,247.545 346.879,237.387 " fill="transparent" stroke-width="0.5" stroke="rgb(0,0,255)" />
	<polyline points="346.879,237.387 360.225,232.142 " fill="transparent" stroke-width="0.5" stroke="rgb(0,0,255)" />
	<polyline points="360.225,232.142 377.99,226.42 " fill="transparent" stroke-width="0.5" stroke="rgb(0,0,255)" />
	<polyline points="377.99,226.42 375.279,211.016 " fill="transparent" stroke-width="0.5" stroke="rgb(0,0,255)" />
	<polyline points="375.279,211.016 392.065,199.58 " fill="transparent" stroke-width="0.5" stroke="rgb(0,0,255)" />
	<polyline points="392.065,199.58 399.916,188.566 " fill="transparent" stroke-width="0.5" stroke="rgb(0,0,255)" />
	<polyline points="392.065,199.58 385.231,183.204 " fill="transparent" stroke-width="0.5" stroke="rgb(0,0,255)" />
	<polyline points="385.231,183.204 277.625,207.484 " fill="transparent" stroke-width="0.5" stroke="rgb(0,0,255)" />
	<polyline points="385.231,183.204 398.497,169.766 " fill="transparent" stroke-width="0.5" stroke="rgb(0,0,255)" />
	<polyline points="398.497,169.766 399.502,161.846 " fill="transparent" stroke-width="0.5" stroke="rgb(0,0,255)" />
	<polyline points="398.497,169.766 398.55,155.272 " fill="transparent" stroke-width="0.5" stroke="rgb(0,0,255)" />
	<polyline points="398.55,155.272 418.714,139.682 " fill="transparent" stroke-width="0.5" stroke="rgb(0,0,255)" />
	<polyline points="418.714,139.682 367.543,134.281 " fill="transparent" stroke-width="0.5" stroke="rgb(0,0,255)" />
	<polyline points="367.543,134.281 354.372,122.76 " fill="transparent" stroke-width="0.5" stroke="rgb(0,0,255)" />
	<polyline points="354.372,122.76 314.127,237.403 " fill="transparent" stroke-width="0.5" stroke="rgb(0,0,255)" />
	<polyline points="392.065,199.58 288.795,252.226 " fill="transparent" stroke-width="0.5" stroke="rgb(0,0,255)" />
	<polyline points="288.795,252.226 159.483,265.179 " fill="transparent" stroke-width="0.5" stroke="rgb(0,0,255)" />
	<polyline points="392.065,199.58 311.988,223.032 " fill="transparent" stroke-width="0.5" stroke="rgb(0,0,255)" />
	<polyline points="377.99,226.42 297.978,242.576 " fill="transparent" stroke-width="0.5" stroke="rgb(0,0,255)" />
	<polyline points="360.225,232.142 228.999,245.44 " fill="transparent" stroke-width="0.5" stroke="rgb(0,0,255)" />
	<polyline points="360.225,232.142 226.174,261.075 " fill="transparent" stroke-width="0.5" stroke="rgb(0,0,255)" />
	<polyline points="226.174,261.075 160.956,272.755 " fill="transparent" stroke-width="0.5" stroke="rgb(0,0,255)" />
	<polyline points="160.956,272.755 60.54,295.882 " fill="transparent" stroke-width="0.5" stroke="rgb(0,0,255)" />
	<polyline points="60.54,295.882 59.7519,280.304 " fill="transparent" stroke-width="0.5" stroke="rgb(0,0,255)" />
	<polyline points="59.7519,280.304 39.7557,263.676 " fill="transparent" stroke-width="0.5" stroke="rgb(0,0,255)" />
	<polyline points="160.956,272.755 173.045,256.805 " fill="transparent" stroke-width="0.5" stroke="rgb(0,0,255)" />
	<polyline points="360.225,232.142 301.086,300.168 " fill="transparent" stroke-width="0.5" stroke="rgb(0,0,255)" />
	<polyline points="360.225,232.142 284.31,234.867 " fill="transparent" stroke-width="0.5" stroke="rgb(0,0,255)" />
	<polyline points="284.31,234.867 161.282,229.337 " fill="transparent" stroke-width="0.5" stroke="rgb(0,0,255)" />
	<polyline points="346.879,237.387 240.225,275.495 " fill="transparent" stroke-width="0.5" stroke="rgb(0,0,255)" />
	<polyline points="346.879,237.387 317.362,225.73 " fill="transparent" stroke-width="0.5" stroke="rgb(0,0,255)" />
	<polyline points="317.362,225.73 328.209,216.905 " fill="transparent" stroke-width="0.5" stroke="rgb(0,0,255)" />
	<polyline points="328.209,216.905 327.253,207.511 " fill="transparent" stroke-width="0.5" stroke="rgb(0,0,255)" />
	<polyline points="328.209,216.905 327.797,206.144 " fill="transparent" stroke-width="0.5" stroke="rgb(0,0,255)" />
	<polyline points="328.209,216.905 301.146,199.885 " fill="transparent" stroke-width="0.5" stroke="rgb(0,0,255)" />
	<polyline points="301.146,199.885 281.452,182.695 " fill="transparent" stroke-width="0.5" stroke="rgb(0,0,255)" />
	<polyline points="281.452,182.695 280.137,174.084 " fill="transparent" stroke-width="0.5" stroke="rgb(0,0,255)" />
	<polyline points="281.452,182.695 199.768,188.224 " fill="transparent" stroke-width="0.5" stroke="rgb(0,0,255)" />
	<polyline points="281.452,182.695 146.529,194.262 " fill="transparent" stroke-width="0.5" stroke="rgb(0,0,255)" />
	<polyline points="146.529,194.262 125.44,169.958 " fill="transparent" stroke-width="0.5" stroke="rgb(0,0,255)" />
	<polyline points="301.146,199.885 165.041,229.139 " fill="transparent" stroke-width="0.5" stroke="rgb(0,0,255)" />
	<polyline points="301.146,199.885 220.102,206.642 " fill="transparent" stroke-width="0.5" stroke="rgb(0,0,255)" />
	<polyline points="220.102,206.642 232.24,195.945 " fill="transparent" stroke-width="0.5" stroke="rgb(0,0,255)" />
	<polyline points="232.24,195.945 236.053,185.314 " fill="transparent" stroke-width="0.5" stroke="rgb(0,0,255)" />
	<polyline points="236.053,185.314 235.832,172.948 " fill="transparent" stroke-width="0.5" stroke="rgb(0,0,255)" />
	<polyline points="235.832,172.948 248.655,163.794 " fill="transparent" stroke-width="0.5" stroke="rgb(0,0,255)" />
	<polyline points="248.655,163.794 262.763,159.298 " fill="transparent" stroke-width="0.5" stroke="rgb(0,0,255)" />
	<polyline points="262.763,159.298 237.807,141.699 " fill="transparent" stroke-width="0.5" stroke="rgb(0,0,255)" />
	<polyline points="232.24,195.945 175.59,184.584 " fill="transparent" stroke-width="0.5" stroke="rgb(0,0,255)" />
	<polyline points="175.59,184.584 143.515,165.878 " fill="transparent" stroke-width="0.5" stroke="rgb(0,0,255)" />
	<polyline points="317.362,225.73 250.77,252.783 " fill="transparent" stroke-width="0.5" stroke="rgb(0,0,255)" />
	<polyline points="250.77,252.783 239.967,239.462 " fill="transparent" stroke-width="0.5" stroke="rgb(0,0,255)" />
	<polyline points="239.967,239.462 125.537,294.737 " fill="transparent" stroke-width="0.5" stroke="rgb(0,0,255)" />
	<polyline points="392.476,284.438 275.625,285.211 " fill="transparent" stroke-width="0.5" stroke="rgb(0,0,255)" />
	<polyline points="392.476,284.438 323.308,284.665 " fill="transparent" stroke-width="0.5" stroke="rgb(0,0,255)" />
	<polyline points="323.308,284.665 322.578,275.433 " fill="transparent" stroke-width="0.5" stroke="rgb(0,0,255)" />
	<polyline points="392.476,284.438 300.768,306.211 " fill="transparent" stroke-width="0.5" stroke="rgb(0,0,255)" />
	<polyline points="392.476,284.438 326.846,310.063 " fill="transparent" stroke-width="0.5" stroke="rgb(0,0,255)" />
	<polyline points="405.814,308.506 327.319,309.165 " fill="transparent" stroke-width="0.5" stroke="rgb(0,0,255)" />
	<polyline points="417.33,340.947 352.894,359.686 " fill="transparent" stroke-width="0.5" stroke="rgb(0,0,255)" />
	<polyline points="380.529,351.985 329.044,343.961 " fill="transparent" stroke-width="0.5" stroke="rgb(0,0,255)" />
	<polyline points="329.044,343.961 327.108,334.774 " fill="transparent" stroke-width="0.5" stroke="rgb(0,0,255)" />
	<polyline points="329.044,343.961 312.936,333.683 " fill="transparent" stroke-width="0.5" stroke="rgb(0,0,255)" />
	<polyline points="312.936,333.683 218.152,343.936 " fill="transparent" stroke-width="0.5" stroke="rgb(0,0,255)" />
	<polyline points="218.152,343.936 111.229,365.81 " fill="transparent" stroke-width="0.5" stroke="rgb(0,0,255)" />
	<polyline points="218.152,343.936 227.837,331.275 " fill="transparent" stroke-width="0.5" stroke="rgb(0,0,255)" />
	<polyline points="227.837,331.275 157.557,326.648 " fill="transparent" stroke-width="0.5" stroke="rgb(0,0,255)" />
	<polyline points="312.936,333.683 263.591,325.89 " fill="transparent" stroke-width="0.5" stroke="rgb(0,0,255)" />
	<polyline points="263.591,325.89 195.29,377.719 " fill="transparent" stroke-width="0.5" stroke="rgb(0,0,255)" />
	<polyline points="195.29,377.719 209.331,368.411 " fill="transparent" stroke-width="0.5" stroke="rgb(0,0,255)" />
	<polyline points="263.591,325.89 271.793,315.912 " fill="transparent" stroke-width="0.5" stroke="rgb(0,0,255)" />
	<polyline points="271.793,315.912 282.132,303.451 " fill="transparent" stroke-width="0.5" stroke="rgb(0,0,255)" />
	<polyline points="271.793,315.912 213.497,309.304 " fill="transparent" stroke-width="0.5" stroke="rgb(0,0,255)" />
	<polyline points="213.497,309.304 226.456,296.297 " fill="transparent" stroke-width="0.5" stroke="rgb(0,0,255)" />
	<polyline points="417.259,380.376 321.433,442.56 " fill="transparent" stroke-width="0.5" stroke="rgb(0,0,255)" />
	<polyline points="385.001,454.348 357.674,451.57 " fill="transparent" stroke-width="0.5" stroke="rgb(0,0,255)" />
	<polyline points="357.674,451.57 304.437,456.588 " fill="transparent" stroke-width="0.5" stroke="rgb(0,0,255)" />
	<polyline points="304.437,456.588 195.789,495.852 " fill="transparent" stroke-width="0.5" stroke="rgb(0,0,255)" />
	<polyline points="357.674,451.57 352.657,444.775 " fill="transparent" stroke-width="0.5" stroke="rgb(0,0,255)" />
	<polyline points="352.657,444.775 344.839,436.615 " fill="transparent" stroke-width="0.5" stroke="rgb(0,0,255)" />
	<polyline points="352.657,444.775 345.925,433.607 " fill="transparent" stroke-width="0.5" stroke="rgb(0,0,255)" />
	<polyline points="352.657,444.775 289.86,446.249 " fill="transparent" stroke-width="0.5" stroke="rgb(0,0,255)" />
	<polyline points="289.86,446.249 285.284,433.737 " fill="transparent" stroke-width="0.5" stroke="rgb(0,0,255)" />
	<polyline points="289.86,446.249 291.139,438.26 " fill="transparent" stroke-width="0.5" stroke="rgb(0,0,255)" />
	<polyline points="357.674,451.57 264.661,499.691 " fill="transparent" stroke-width="0.5" stroke="rgb(0,0,255)" />
	<polyline points="290.437,454.633 230.03,460.655 " fill="transparent" stroke-width="0.5" stroke="rgb(0,0,255)" />
	<polyline points="230.03,460.655 225.341,445.023 " fill="transparent" stroke-width="0.5" stroke="rgb(0,0,255)" />
	<polyline points="230.03,460.655 158.326,466.341 " fill="transparent" stroke-width="0.5" stroke="rgb(0,0,255)" />
	<polyline points="290.437,454.633 229.548,468.061 " fill="transparent" stroke-width="0.5" stroke="rgb(0,0,255)" />
	<polyline points="262.192,469.936 211.18,484.238 " fill="transparent" stroke-width="0.5" stroke="rgb(0,0,255)" />
	<polyline points="185.078,380.589 102.373,387.901 " fill="transparent" stroke-width="0.5" stroke="rgb(0,0,255)" />
	<polyline points="127.257,402.428 71.9382,422.263 " fill="transparent" stroke-width="0.5" stroke="rgb(0,0,255)" />
	<polyline points="71.9382,422.263 100.741,400.452 " fill="transparent" stroke-width="0.5" stroke="rgb(0,0,255)" />
	<polyline points="71.9382,422.263 137.569,415.761 " fill="transparent" stroke-width="0.5" stroke="rgb(0,0,255)" />
	<circle cx="83.3333" cy="416.667" r="2" fill="rgb(255,0,0)" />
	<circle cx="416.667" cy="83.3333" r="2" fill="rgb(0,255,0)" />
	<polyline points="83.3333,416.667 92.6003,392.851 81.1029,378.105 94.5162,358.624 96.5936,344.979 112.31,335.127 120.833,317.157 129.212,299.858 140.165,288.224 143.469,276.716 142.159,255.885 116.46,234.55 78.4839,215.282 70.4638,199.709 73.3929,190.943 81.3066,180.931 108.706,178.257 127.055,167.718 122.72,153.637 141.738,146.004 146.489,128.495 143.496,110.938 196.126,120.203 233.15,125.903 230.385,113.802 242.903,109.363 286.664,150.467 307.352,151.298 316.911,144.303 393.954,169.301 409.453,156.593 419.479,146.797 418.068,132.752 410.783,117.389 431.971,97.2915 422.96,82.3679 " fill="transparent" stroke-width="3" stroke="rgb(0,0,0)" />
</svg>
