<?xml version="1.0" standalone="no" ?>
<!DOCTYPE svg PUBLIC "-//W3C//DTD SVG 1.1//EN" "http://www.w3.org/Graphics/SVG/1.1/DTD/svg11.dtd">
<svg width="500px" height="500px" xmlns="http://www.w3.org/2000/svg" version="1.1" >
	<circle cx="445.971" cy="193.017" r="2.5" fill="rgb(255,255,255)" />
	<circle cx="434.84" cy="46.8227" r="2.5" fill="rgb(232,232,232)" />
	<circle cx="425.186" cy="59.9121" r="2.5" fill="rgb(225,225,225)" />
	<circle cx="436.039" cy="62.0626" r="2.5" fill="rgb(215,215,215)" />
	<circle cx="426.285" cy="151.743" r="2.5" fill="rgb(208,208,208)" />
	<circle cx="432.009" cy="237.012" r="2.5" fill="rgb(207,207,207)" />
	<circle cx="457.319" cy="212.808" r="2.5" fill="rgb(205,205,205)" />
	<circle cx="409.651" cy="209.473" r="2.5" fill="rgb(204,204,204)" />
	<circle cx="437.398" cy="72.4954" r="2.5" fill="rgb(204,204,204)" />
	<circle cx="429.232" cy="76.4785" r="2.5" fill="rgb(201,201,201)" />
	<circle cx="404.207" cy="80.931" r="2.5" fill="rgb(200,200,200)" />
	<circle cx="425.166" cy="184.586" r="2.5" fill="rgb(192,192,192)" />
	<circle cx="406.144" cy="89.829" r="2.5" fill="rgb(191,191,191)" />
	<circle cx="398.38" cy="99.44" r="2.5" fill="rgb(184,184,184)" />
	<circle cx="479.776" cy="306.836" r="2.5" fill="rgb(183,183,183)" />
	<circle cx="465.792" cy="224.653" r="2.5" fill="rgb(176,176,176)" />
	<circle cx="400.965" cy="115.054" r="2.5" fill="rgb(170,170,170)" />
	<circle cx="376.735" cy="207.931" r="2.5" fill="rgb(169,169,169)" />
	<circle cx="463.672" cy="235.875" r="2.5" fill="rgb(169,169,169)" />
	<circle cx="458.397" cy="237.122" r="2.5" fill="rgb(168,168,168)" />
	<circle cx="460.671" cy="240.391" r="2.5" fill="rgb(166,166,166)" />
	<circle cx="477.796" cy="95.8891" r="2.5" fill="rgb(163,163,163)" />
	<circle cx="410.563" cy="124.752" r="2.5" fill="rgb(161,161,161)" />
	<circle cx="461.467" cy="248.181" r="2.5" fill="rgb(160,160,160)" />
	<circle cx="479.804" cy="190.705" r="2.5" fill="rgb(158,158,158)" />
	<circle cx="427.929" cy="205.27" r="2.5" fill="rgb(157,157,157)" />
	<circle cx="403.62" cy="255.693" r="2.5" fill="rgb(153,153,153)" />
	<circle cx="223.78" cy="34.2248" r="2.5" fill="rgb(152,152,152)" />
	<circle cx="437.155" cy="131.593" r="2.5" fill="rgb(152,152,152)" />
	<circle cx="475.061" cy="118.183" r="2.5" fill="rgb(151,151,151)" />
	<circle cx="194.245" cy="24.0819" r="2.5" fill="rgb(149,149,149)" />
	<circle cx="229.34" cy="119.007" r="2.5" fill="rgb(145,145,145)" />
	<circle cx="244.358" cy="121.826" r="2.5" fill="rgb(145,145,145)" />
	<circle cx="185.252" cy="37.6877" r="2.5" fill="rgb(145,145,145)" />
	<circle cx="461.461" cy="136.814" r="2.5" fill="rgb(143,143,143)" />
	<circle cx="333.373" cy="274.059" r="2.5" fill="rgb(142,142,142)" />
	<circle cx="363.508" cy="292.337" r="2.5" fill="rgb(142,142,142)" />
	<circle cx="278.652" cy="37.584" r="2.5" fill="rgb(142,142,142)" />
	<circle cx="327.979" cy="95.488" r="2.5" fill="rgb(142,142,142)" />
	<circle cx="202.312" cy="325.065" r="2.5" fill="rgb(141,141,141)" />
	<circle cx="196.676" cy="143.17" r="2.5" fill="rgb(141,141,141)" />
	<circle cx="173.04" cy="48.6447" r="2.5" fill="rgb(141,141,141)" />
	<circle cx="208.177" cy="88.2536" r="2.5" fill="rgb(140,140,140)" />
	<circle cx="274.433" cy="47.9373" r="2.5" fill="rgb(138,138,138)" />
	<circle cx="272.216" cy="48.1144" r="2.5" fill="rgb(138,138,138)" />
	<circle cx="187.217" cy="128.784" r="2.5" fill="rgb(137,137,137)" />
	<circle cx="317.883" cy="272.069" r="2.5" fill="rgb(136,136,136)" />
	<circle cx="420.924" cy="152.787" r="2.5" fill="rgb(136,136,136)" />
	<circle cx="420.324" cy="154.538" r="2.5" fill="rgb(135,135,135)" />
	<circle cx="240.989" cy="42.7112" r="2.5" fill="rgb(135,135,135)" />
	<circle cx="181.631" cy="177.244" r="2.5" fill="rgb(135,135,135)" />
	<circle cx="368.583" cy="275.321" r="2.5" fill="rgb(135,135,135)" />
	<circle cx="426.469" cy="156.121" r="2.5" fill="rgb(134,134,134)" />
	<circle cx="267.368" cy="59.8169" r="2.5" fill="rgb(134,134,134)" />
	<circle cx="271.826" cy="75.6455" r="2.5" fill="rgb(131,131,131)" />
	<circle cx="231.363" cy="51.5034" r="2.5" fill="rgb(131,131,131)" />
	<circle cx="486.956" cy="241.181" r="2.5" fill="rgb(130,130,130)" />
	<circle cx="423.6" cy="168.183" r="2.5" fill="rgb(129,129,129)" />
	<circle cx="369.108" cy="272.558" r="2.5" fill="rgb(128,128,128)" />
	<circle cx="240.329" cy="69.4003" r="2.5" fill="rgb(128,128,128)" />
	<circle cx="262.064" cy="82.7357" r="2.5" fill="rgb(128,128,128)" />
	<circle cx="432.674" cy="173.433" r="2.5" fill="rgb(127,127,127)" />
	<circle cx="373.551" cy="259.538" r="2.5" fill="rgb(126,126,126)" />
	<circle cx="392.056" cy="281.683" r="2.5" fill="rgb(126,126,126)" />
	<circle cx="482.93" cy="253.796" r="2.5" fill="rgb(126,126,126)" />
	<circle cx="377.189" cy="282.425" r="2.5" fill="rgb(125,125,125)" />
	<circle cx="386.889" cy="283.665" r="2.5" fill="rgb(125,125,125)" />
	<circle cx="253.933" cy="94.5096" r="2.5" fill="rgb(124,124,124)" />
	<circle cx="426.665" cy="183.324" r="2.5" fill="rgb(123,123,123)" />
	<circle cx="252.436" cy="96.9864" r="2.5" fill="rgb(123,123,123)" />
	<circle cx="339.838" cy="274.063" r="2.5" fill="rgb(122,122,122)" />
	<circle cx="181.782" cy="67.7984" r="2.5" fill="rgb(122,122,122)" />
	<circle cx="188.072" cy="71.1687" r="2.5" fill="rgb(121,121,121)" />
	<circle cx="371.554" cy="272.161" r="2.5" fill="rgb(121,121,121)" />
	<circle cx="388.927" cy="292.455" r="2.5" fill="rgb(121,121,121)" />
	<circle cx="201.414" cy="215.04" r="2.5" fill="rgb(121,121,121)" />
	<circle cx="124.486" cy="46.339" r="2.5" fill="rgb(121,121,121)" />
	<circle cx="248.55" cy="104.874" r="2.5" fill="rgb(121,121,121)" />
	<circle cx="203.2" cy="76.2403" r="2.5" fill="rgb(120,120,120)" />
	<circle cx="9.27859" cy="84.8327" r="2.5" fill="rgb(120,120,120)" />
	<circle cx="142.425" cy="49.5683" r="2.5" fill="rgb(120,120,120)" />
	<circle cx="331.773" cy="127.632" r="2.5" fill="rgb(120,120,120)" />
	<circle cx="484.526" cy="189.07" r="2.5" fill="rgb(120,120,120)" />
	<circle cx="67.1889" cy="64.2389" r="2.5" fill="rgb(120,120,120)" />
	<circle cx="145.301" cy="122.335" r="2.5" fill="rgb(120,120,120)" />
	<circle cx="282.415" cy="264.03" r="2.5" fill="rgb(119,119,119)" />
	<circle cx="483.325" cy="269.089" r="2.5" fill="rgb(119,119,119)" />
	<circle cx="287.339" cy="167.766" r="2.5" fill="rgb(118,118,118)" />
	<circle cx="141.562" cy="60.0612" r="2.5" fill="rgb(118,118,118)" />
	<circle cx="46.7648" cy="78.7834" r="2.5" fill="rgb(118,118,118)" />
	<circle cx="186.25" cy="125.339" r="2.5" fill="rgb(117,117,117)" />
	<circle cx="351.413" cy="296.178" r="2.5" fill="rgb(117,117,117)" />
	<circle cx="128.405" cy="96.4824" r="2.5" fill="rgb(117,117,117)" />
	<circle cx="213.93" cy="95.998" r="2.5" fill="rgb(117,117,117)" />
	<circle cx="243.457" cy="117.369" r="2.5" fill="rgb(117,117,117)" />
	<circle cx="327.482" cy="136.991" r="2.5" fill="rgb(117,117,117)" />
	<circle cx="16.1122" cy="93.9889" r="2.5" fill="rgb(116,116,116)" />
	<circle cx="461.117" cy="197.861" r="2.5" fill="rgb(116,116,116)" />
	<circle cx="128.245" cy="108.973" r="2.5" fill="rgb(116,116,116)" />
	<circle cx="293.686" cy="218.897" r="2.5" fill="rgb(116,116,116)" />
	<circle cx="360.657" cy="241.679" r="2.5" fill="rgb(115,115,115)" />
	<circle cx="50.5229" cy="85.3382" r="2.5" fill="rgb(115,115,115)" />
	<circle cx="367.283" cy="158.312" r="2.5" fill="rgb(115,115,115)" />
	<circle cx="475.583" cy="283.243" r="2.5" fill="rgb(115,115,115)" />
	<circle cx="64.7839" cy="83.3098" r="2.5" fill="rgb(114,114,114)" />
	<circle cx="45.8818" cy="89.8803" r="2.5" fill="rgb(114,114,114)" />
	<circle cx="19.46" cy="98.7951" r="2.5" fill="rgb(114,114,114)" />
	<circle cx="191.633" cy="200.419" r="2.5" fill="rgb(114,114,114)" />
	<circle cx="216.73" cy="110.162" r="2.5" fill="rgb(114,114,114)" />
	<circle cx="163.664" cy="82.6833" r="2.5" fill="rgb(114,114,114)" />
	<circle cx="167.098" cy="88.6009" r="2.5" fill="rgb(114,114,114)" />
	<circle cx="235.116" cy="126.447" r="2.5" fill="rgb(114,114,114)" />
	<circle cx="360.679" cy="306.133" r="2.5" fill="rgb(114,114,114)" />
	<circle cx="382.862" cy="282.259" r="2.5" fill="rgb(114,114,114)" />
	<circle cx="282.606" cy="222.7" r="2.5" fill="rgb(113,113,113)" />
	<circle cx="182.26" cy="170.208" r="2.5" fill="rgb(113,113,113)" />
	<circle cx="241.908" cy="175.068" r="2.5" fill="rgb(113,113,113)" />
	<circle cx="323.219" cy="147.853" r="2.5" fill="rgb(113,113,113)" />
	<circle cx="459.03" cy="209.968" r="2.5" fill="rgb(111,111,111)" />
	<circle cx="58.7631" cy="96.3253" r="2.5" fill="rgb(111,111,111)" />
	<circle cx="228.185" cy="133.087" r="2.5" fill="rgb(111,111,111)" />
	<circle cx="194.698" cy="109.171" r="2.5" fill="rgb(111,111,111)" />
	<circle cx="153.197" cy="92.0917" r="2.5" fill="rgb(111,111,111)" />
	<circle cx="26.8121" cy="107.362" r="2.5" fill="rgb(111,111,111)" />
	<circle cx="149.237" cy="93.4923" r="2.5" fill="rgb(111,111,111)" />
	<circle cx="198.824" cy="113.951" r="2.5" fill="rgb(111,111,111)" />
	<circle cx="412.886" cy="308.012" r="2.5" fill="rgb(111,111,111)" />
	<circle cx="352.4" cy="166.607" r="2.5" fill="rgb(110,110,110)" />
	<circle cx="325.323" cy="156.269" r="2.5" fill="rgb(110,110,110)" />
	<circle cx="437.786" cy="211.193" r="2.5" fill="rgb(110,110,110)" />
	<circle cx="253.138" cy="161.526" r="2.5" fill="rgb(110,110,110)" />
	<circle cx="259.348" cy="164.525" r="2.5" fill="rgb(110,110,110)" />
	<circle cx="360.481" cy="256.318" r="2.5" fill="rgb(110,110,110)" />
	<circle cx="223.481" cy="146.653" r="2.5" fill="rgb(110,110,110)" />
	<circle cx="279.469" cy="141.921" r="2.5" fill="rgb(110,110,110)" />
	<circle cx="249.135" cy="180.665" r="2.5" fill="rgb(110,110,110)" />
	<circle cx="149.419" cy="176.798" r="2.5" fill="rgb(110,110,110)" />
	<circle cx="218.254" cy="270.571" r="2.5" fill="rgb(109,109,109)" />
	<circle cx="216.783" cy="275.814" r="2.5" fill="rgb(109,109,109)" />
	<circle cx="301.492" cy="236.279" r="2.5" fill="rgb(109,109,109)" />
	<circle cx="343.229" cy="169.06" r="2.5" fill="rgb(108,108,108)" />
	<circle cx="44.9977" cy="111.067" r="2.5" fill="rgb(108,108,108)" />
	<circle cx="263.809" cy="192.584" r="2.5" fill="rgb(108,108,108)" />
	<circle cx="27.1813" cy="116.286" r="2.5" fill="rgb(108,108,108)" />
	<circle cx="154.113" cy="109.66" r="2.5" fill="rgb(108,108,108)" />
	<circle cx="211.215" cy="193.017" r="2.5" fill="rgb(107,107,107)" />
	<circle cx="174.458" cy="115.474" r="2.5" fill="rgb(107,107,107)" />
	<circle cx="217.881" cy="200.463" r="2.5" fill="rgb(107,107,107)" />
	<circle cx="130.923" cy="205.107" r="2.5" fill="rgb(107,107,107)" />
	<circle cx="223.17" cy="140.785" r="2.5" fill="rgb(107,107,107)" />
	<circle cx="421.956" cy="217.138" r="2.5" fill="rgb(107,107,107)" />
	<circle cx="437.423" cy="220.677" r="2.5" fill="rgb(106,106,106)" />
	<circle cx="321.126" cy="168.686" r="2.5" fill="rgb(106,106,106)" />
	<circle cx="295.649" cy="242.303" r="2.5" fill="rgb(106,106,106)" />
	<circle cx="250.778" cy="196.715" r="2.5" fill="rgb(106,106,106)" />
	<circle cx="252.43" cy="178.184" r="2.5" fill="rgb(106,106,106)" />
	<circle cx="282.366" cy="156.144" r="2.5" fill="rgb(106,106,106)" />
	<circle cx="32.6584" cy="126.55" r="2.5" fill="rgb(105,105,105)" />
	<circle cx="179.877" cy="214.581" r="2.5" fill="rgb(105,105,105)" />
	<circle cx="232.418" cy="156.33" r="2.5" fill="rgb(104,104,104)" />
	<circle cx="213.568" cy="285.651" r="2.5" fill="rgb(104,104,104)" />
	<circle cx="1.56724" cy="138.909" r="2.5" fill="rgb(104,104,104)" />
	<circle cx="174.204" cy="190.639" r="2.5" fill="rgb(104,104,104)" />
	<circle cx="319.547" cy="175.852" r="2.5" fill="rgb(103,103,103)" />
	<circle cx="46.2811" cy="128.526" r="2.5" fill="rgb(103,103,103)" />
	<circle cx="201.771" cy="142.978" r="2.5" fill="rgb(103,103,103)" />
	<circle cx="425.22" cy="226.675" r="2.5" fill="rgb(103,103,103)" />
	<circle cx="115.523" cy="164.92" r="2.5" fill="rgb(103,103,103)" />
	<circle cx="93.7204" cy="207.143" r="2.5" fill="rgb(103,103,103)" />
	<circle cx="234.354" cy="168.144" r="2.5" fill="rgb(102,102,102)" />
	<circle cx="172.671" cy="199.71" r="2.5" fill="rgb(102,102,102)" />
	<circle cx="42.5217" cy="136.466" r="2.5" fill="rgb(101,101,101)" />
	<circle cx="312.048" cy="180.782" r="2.5" fill="rgb(101,101,101)" />
	<circle cx="14.8094" cy="145.088" r="2.5" fill="rgb(101,101,101)" />
	<circle cx="223.138" cy="211.77" r="2.5" fill="rgb(101,101,101)" />
	<circle cx="439.475" cy="234.474" r="2.5" fill="rgb(101,101,101)" />
	<circle cx="303.216" cy="179.405" r="2.5" fill="rgb(101,101,101)" />
	<circle cx="241.59" cy="199.95" r="2.5" fill="rgb(100,100,100)" />
	<circle cx="224.926" cy="214.478" r="2.5" fill="rgb(100,100,100)" />
	<circle cx="307.942" cy="285.998" r="2.5" fill="rgb(100,100,100)" />
	<circle cx="308.398" cy="274.376" r="2.5" fill="rgb(100,100,100)" />
	<circle cx="196.324" cy="153.312" r="2.5" fill="rgb(100,100,100)" />
	<circle cx="420.144" cy="233.493" r="2.5" fill="rgb(100,100,100)" />
	<circle cx="218.549" cy="213.369" r="2.5" fill="rgb(100,100,100)" />
	<circle cx="196.086" cy="313.22" r="2.5" fill="rgb(100,100,100)" />
	<circle cx="236.826" cy="201.677" r="2.5" fill="rgb(100,100,100)" />
	<circle cx="196.666" cy="206.428" r="2.5" fill="rgb(99,99,99)" />
	<circle cx="167.394" cy="194.236" r="2.5" fill="rgb(99,99,99)" />
	<circle cx="31.953" cy="148.415" r="2.5" fill="rgb(99,99,99)" />
	<circle cx="310.285" cy="189.478" r="2.5" fill="rgb(98,98,98)" />
	<circle cx="188.605" cy="158.896" r="2.5" fill="rgb(98,98,98)" />
	<circle cx="191.666" cy="160.266" r="2.5" fill="rgb(98,98,98)" />
	<circle cx="199.768" cy="164.245" r="2.5" fill="rgb(98,98,98)" />
	<circle cx="227.674" cy="206.401" r="2.5" fill="rgb(97,97,97)" />
	<circle cx="84.3157" cy="265.105" r="2.5" fill="rgb(97,97,97)" />
	<circle cx="313.47" cy="193.735" r="2.5" fill="rgb(97,97,97)" />
	<circle cx="99.3449" cy="204.49" r="2.5" fill="rgb(97,97,97)" />
	<circle cx="208.042" cy="223.683" r="2.5" fill="rgb(96,96,96)" />
	<circle cx="184.602" cy="214.015" r="2.5" fill="rgb(96,96,96)" />
	<circle cx="165.55" cy="209.151" r="2.5" fill="rgb(96,96,96)" />
	<circle cx="29.0217" cy="161.831" r="2.5" fill="rgb(95,95,95)" />
	<circle cx="426.712" cy="246.157" r="2.5" fill="rgb(95,95,95)" />
	<circle cx="308.605" cy="199.779" r="2.5" fill="rgb(95,95,95)" />
	<circle cx="304.537" cy="198.239" r="2.5" fill="rgb(95,95,95)" />
	<circle cx="200.677" cy="332.87" r="2.5" fill="rgb(95,95,95)" />
	<circle cx="189.668" cy="174.471" r="2.5" fill="rgb(94,94,94)" />
	<circle cx="203.61" cy="180.854" r="2.5" fill="rgb(94,94,94)" />
	<circle cx="414.887" cy="247.071" r="2.5" fill="rgb(94,94,94)" />
	<circle cx="122.362" cy="234.874" r="2.5" fill="rgb(93,93,93)" />
	<circle cx="175.699" cy="225.988" r="2.5" fill="rgb(92,92,92)" />
	<circle cx="300.479" cy="206.207" r="2.5" fill="rgb(92,92,92)" />
	<circle cx="150.985" cy="231.85" r="2.5" fill="rgb(91,91,91)" />
	<circle cx="265.312" cy="333.003" r="2.5" fill="rgb(91,91,91)" />
	<circle cx="34.6815" cy="175.834" r="2.5" fill="rgb(91,91,91)" />
	<circle cx="345.408" cy="232.264" r="2.5" fill="rgb(91,91,91)" />
	<circle cx="414.607" cy="254.312" r="2.5" fill="rgb(91,91,91)" />
	<circle cx="266.829" cy="266.124" r="2.5" fill="rgb(90,90,90)" />
	<circle cx="48.0197" cy="177.038" r="2.5" fill="rgb(90,90,90)" />
	<circle cx="63.3256" cy="304.276" r="2.5" fill="rgb(90,90,90)" />
	<circle cx="191.7" cy="194.209" r="2.5" fill="rgb(89,89,89)" />
	<circle cx="157.247" cy="243.594" r="2.5" fill="rgb(89,89,89)" />
	<circle cx="284.028" cy="209.061" r="2.5" fill="rgb(89,89,89)" />
	<circle cx="49.2867" cy="312.01" r="2.5" fill="rgb(88,88,88)" />
	<circle cx="282.484" cy="211.713" r="2.5" fill="rgb(88,88,88)" />
	<circle cx="156.253" cy="256.38" r="2.5" fill="rgb(88,88,88)" />
	<circle cx="131.706" cy="260.578" r="2.5" fill="rgb(88,88,88)" />
	<circle cx="344.69" cy="241.03" r="2.5" fill="rgb(88,88,88)" />
	<circle cx="357.117" cy="243.775" r="2.5" fill="rgb(88,88,88)" />
	<circle cx="87.9112" cy="255.988" r="2.5" fill="rgb(87,87,87)" />
	<circle cx="279.389" cy="242.865" r="2.5" fill="rgb(87,87,87)" />
	<circle cx="34.4937" cy="319.897" r="2.5" fill="rgb(87,87,87)" />
	<circle cx="34.2726" cy="191.498" r="2.5" fill="rgb(87,87,87)" />
	<circle cx="272.12" cy="277.272" r="2.5" fill="rgb(87,87,87)" />
	<circle cx="272.082" cy="274.113" r="2.5" fill="rgb(87,87,87)" />
	<circle cx="369.184" cy="250.299" r="2.5" fill="rgb(87,87,87)" />
	<circle cx="104.307" cy="193.91" r="2.5" fill="rgb(86,86,86)" />
	<circle cx="52.1872" cy="193.381" r="2.5" fill="rgb(86,86,86)" />
	<circle cx="67.504" cy="280.706" r="2.5" fill="rgb(86,86,86)" />
	<circle cx="133.282" cy="281.752" r="2.5" fill="rgb(85,85,85)" />
	<circle cx="19.4564" cy="199.696" r="2.5" fill="rgb(85,85,85)" />
	<circle cx="278.25" cy="219.891" r="2.5" fill="rgb(85,85,85)" />
	<circle cx="97.5875" cy="267.067" r="2.5" fill="rgb(84,84,84)" />
	<circle cx="352.257" cy="252.964" r="2.5" fill="rgb(84,84,84)" />
	<circle cx="273.012" cy="226.151" r="2.5" fill="rgb(83,83,83)" />
	<circle cx="28.5067" cy="210.279" r="2.5" fill="rgb(82,82,82)" />
	<circle cx="103.491" cy="213.125" r="2.5" fill="rgb(82,82,82)" />
	<circle cx="38.6498" cy="210.077" r="2.5" fill="rgb(82,82,82)" />
	<circle cx="169.49" cy="274.476" r="2.5" fill="rgb(82,82,82)" />
	<circle cx="28.0789" cy="291.318" r="2.5" fill="rgb(81,81,81)" />
	<circle cx="274.428" cy="231.513" r="2.5" fill="rgb(81,81,81)" />
	<circle cx="325.559" cy="255.211" r="2.5" fill="rgb(80,80,80)" />
	<circle cx="177.68" cy="246.662" r="2.5" fill="rgb(80,80,80)" />
	<circle cx="467.678" cy="412.508" r="2.5" fill="rgb(79,79,79)" />
	<circle cx="74.7157" cy="221.369" r="2.5" fill="rgb(79,79,79)" />
	<circle cx="182.094" cy="276.967" r="2.5" fill="rgb(79,79,79)" />
	<circle cx="163.078" cy="256.649" r="2.5" fill="rgb(79,79,79)" />
	<circle cx="175.901" cy="269.116" r="2.5" fill="rgb(79,79,79)" />
	<circle cx="27.1974" cy="306.982" r="2.5" fill="rgb(79,79,79)" />
	<circle cx="72.9696" cy="309.462" r="2.5" fill="rgb(78,78,78)" />
	<circle cx="275.842" cy="243.369" r="2.5" fill="rgb(78,78,78)" />
	<circle cx="111.106" cy="257.707" r="2.5" fill="rgb(78,78,78)" />
	<circle cx="88.9539" cy="204.845" r="2.5" fill="rgb(78,78,78)" />
	<circle cx="56.2798" cy="312.831" r="2.5" fill="rgb(77,77,77)" />
	<circle cx="293.847" cy="254.793" r="2.5" fill="rgb(77,77,77)" />
	<circle cx="88.5749" cy="211.448" r="2.5" fill="rgb(77,77,77)" />
	<circle cx="72.1399" cy="323.198" r="2.5" fill="rgb(76,76,76)" />
	<circle cx="94.5527" cy="243.933" r="2.5" fill="rgb(75,75,75)" />
	<circle cx="490.309" cy="419.789" r="2.5" fill="rgb(75,75,75)" />
	<circle cx="156.401" cy="269.931" r="2.5" fill="rgb(74,74,74)" />
	<circle cx="63.0037" cy="332.929" r="2.5" fill="rgb(74,74,74)" />
	<circle cx="117.948" cy="228.689" r="2.5" fill="rgb(74,74,74)" />
	<circle cx="271.958" cy="258.554" r="2.5" fill="rgb(73,73,73)" />
	<circle cx="228.256" cy="261.94" r="2.5" fill="rgb(73,73,73)" />
	<circle cx="383.03" cy="428.212" r="2.5" fill="rgb(73,73,73)" />
	<circle cx="115.309" cy="258.86" r="2.5" fill="rgb(72,72,72)" />
	<circle cx="438.625" cy="428.194" r="2.5" fill="rgb(71,71,71)" />
	<circle cx="120.306" cy="269.3" r="2.5" fill="rgb(71,71,71)" />
	<circle cx="266.441" cy="266.827" r="2.5" fill="rgb(71,71,71)" />
	<circle cx="180.731" cy="245.307" r="2.5" fill="rgb(70,70,70)" />
	<circle cx="132.352" cy="298.22" r="2.5" fill="rgb(70,70,70)" />
	<circle cx="425.804" cy="431.527" r="2.5" fill="rgb(70,70,70)" />
	<circle cx="152.775" cy="288.433" r="2.5" fill="rgb(70,70,70)" />
	<circle cx="483.304" cy="430.382" r="2.5" fill="rgb(69,69,69)" />
	<circle cx="412.009" cy="454.106" r="2.5" fill="rgb(69,69,69)" />
	<circle cx="477.295" cy="431.588" r="2.5" fill="rgb(69,69,69)" />
	<circle cx="73.5368" cy="267.522" r="2.5" fill="rgb(68,68,68)" />
	<circle cx="231.162" cy="264.556" r="2.5" fill="rgb(67,67,67)" />
	<circle cx="383.458" cy="440.497" r="2.5" fill="rgb(67,67,67)" />
	<circle cx="149.242" cy="284.318" r="2.5" fill="rgb(66,66,66)" />
	<circle cx="416.867" cy="438.654" r="2.5" fill="rgb(66,66,66)" />
	<circle cx="429.049" cy="438.427" r="2.5" fill="rgb(66,66,66)" />
	<circle cx="413.677" cy="460.578" r="2.5" fill="rgb(66,66,66)" />
	<circle cx="472.915" cy="437.558" r="2.5" fill="rgb(66,66,66)" />
	<circle cx="73.6347" cy="367.568" r="2.5" fill="rgb(65,65,65)" />
	<circle cx="94.1882" cy="283.011" r="2.5" fill="rgb(65,65,65)" />
	<circle cx="433.161" cy="372.692" r="2.5" fill="rgb(65,65,65)" />
	<circle cx="457.494" cy="440.262" r="2.5" fill="rgb(64,64,64)" />
	<circle cx="170.892" cy="299.151" r="2.5" fill="rgb(64,64,64)" />
	<circle cx="392.115" cy="453.062" r="2.5" fill="rgb(64,64,64)" />
	<circle cx="283.331" cy="280.618" r="2.5" fill="rgb(64,64,64)" />
	<circle cx="432.766" cy="442.823" r="2.5" fill="rgb(64,64,64)" />
	<circle cx="423.617" cy="375.803" r="2.5" fill="rgb(64,64,64)" />
	<circle cx="375.142" cy="403.295" r="2.5" fill="rgb(64,64,64)" />
	<circle cx="473.702" cy="442.5" r="2.5" fill="rgb(63,63,63)" />
	<circle cx="220.162" cy="279.112" r="2.5" fill="rgb(63,63,63)" />
	<circle cx="333.951" cy="293.918" r="2.5" fill="rgb(63,63,63)" />
	<circle cx="165.932" cy="307.867" r="2.5" fill="rgb(62,62,62)" />
	<circle cx="392.35" cy="458.569" r="2.5" fill="rgb(61,61,61)" />
	<circle cx="210.783" cy="282.544" r="2.5" fill="rgb(61,61,61)" />
	<circle cx="111.88" cy="364.128" r="2.5" fill="rgb(61,61,61)" />
	<circle cx="280.273" cy="289.564" r="2.5" fill="rgb(61,61,61)" />
	<circle cx="183.463" cy="317.946" r="2.5" fill="rgb(61,61,61)" />
	<circle cx="438.299" cy="383.53" r="2.5" fill="rgb(61,61,61)" />
	<circle cx="422.43" cy="382.22" r="2.5" fill="rgb(61,61,61)" />
	<circle cx="418.749" cy="450.29" r="2.5" fill="rgb(61,61,61)" />
	<circle cx="196.439" cy="283.833" r="2.5" fill="rgb(60,60,60)" />
	<circle cx="200.822" cy="285.081" r="2.5" fill="rgb(60,60,60)" />
	<circle cx="319.354" cy="301.17" r="2.5" fill="rgb(60,60,60)" />
	<circle cx="159.24" cy="387.287" r="2.5" fill="rgb(60,60,60)" />
	<circle cx="204.337" cy="307.865" r="2.5" fill="rgb(59,59,59)" />
	<circle cx="317.981" cy="302.407" r="2.5" fill="rgb(59,59,59)" />
	<circle cx="458.021" cy="450.022" r="2.5" fill="rgb(59,59,59)" />
	<circle cx="366.276" cy="390.801" r="2.5" fill="rgb(59,59,59)" />
	<circle cx="193.978" cy="305.773" r="2.5" fill="rgb(59,59,59)" />
	<circle cx="390.305" cy="381.055" r="2.5" fill="rgb(59,59,59)" />
	<circle cx="356.776" cy="347.773" r="2.5" fill="rgb(59,59,59)" />
	<circle cx="497.279" cy="341.197" r="2.5" fill="rgb(59,59,59)" />
	<circle cx="106.13" cy="359.616" r="2.5" fill="rgb(59,59,59)" />
	<circle cx="203.505" cy="291.613" r="2.5" fill="rgb(59,59,59)" />
	<circle cx="458.812" cy="335.16" r="2.5" fill="rgb(59,59,59)" />
	<circle cx="170.706" cy="328.732" r="2.5" fill="rgb(58,58,58)" />
	<circle cx="210.881" cy="329.223" r="2.5" fill="rgb(58,58,58)" />
	<circle cx="459.544" cy="452.52" r="2.5" fill="rgb(58,58,58)" />
	<circle cx="246.639" cy="293.763" r="2.5" fill="rgb(58,58,58)" />
	<circle cx="382.389" cy="467.186" r="2.5" fill="rgb(58,58,58)" />
	<circle cx="222.027" cy="332.621" r="2.5" fill="rgb(58,58,58)" />
	<circle cx="138.672" cy="394.497" r="2.5" fill="rgb(58,58,58)" />
	<circle cx="164.707" cy="348.609" r="2.5" fill="rgb(58,58,58)" />
	<circle cx="430.461" cy="455.724" r="2.5" fill="rgb(57,57,57)" />
	<circle cx="265.592" cy="302.373" r="2.5" fill="rgb(57,57,57)" />
	<circle cx="137.847" cy="379.821" r="2.5" fill="rgb(56,56,56)" />
	<circle cx="193.566" cy="300.161" r="2.5" fill="rgb(56,56,56)" />
	<circle cx="418.146" cy="395.004" r="2.5" fill="rgb(55,55,55)" />
	<circle cx="385.297" cy="390.292" r="2.5" fill="rgb(55,55,55)" />
	<circle cx="309.082" cy="314.464" r="2.5" fill="rgb(55,55,55)" />
	<circle cx="259.837" cy="306.149" r="2.5" fill="rgb(55,55,55)" />
	<circle cx="173.444" cy="361.432" r="2.5" fill="rgb(55,55,55)" />
	<circle cx="220.811" cy="345.053" r="2.5" fill="rgb(55,55,55)" />
	<circle cx="289.68" cy="331.569" r="2.5" fill="rgb(54,54,54)" />
	<circle cx="482.379" cy="349.566" r="2.5" fill="rgb(54,54,54)" />
	<circle cx="326.824" cy="321.763" r="2.5" fill="rgb(54,54,54)" />
	<circle cx="460.948" cy="346.867" r="2.5" fill="rgb(54,54,54)" />
	<circle cx="323.244" cy="398.875" r="2.5" fill="rgb(54,54,54)" />
	<circle cx="448.13" cy="462.916" r="2.5" fill="rgb(53,53,53)" />
	<circle cx="259.975" cy="317.907" r="2.5" fill="rgb(52,52,52)" />
	<circle cx="319.567" cy="328.045" r="2.5" fill="rgb(52,52,52)" />
	<circle cx="379.251" cy="399.603" r="2.5" fill="rgb(52,52,52)" />
	<circle cx="406.724" cy="349.743" r="2.5" fill="rgb(52,52,52)" />
	<circle cx="291.48" cy="323.851" r="2.5" fill="rgb(51,51,51)" />
	<circle cx="286.981" cy="347.134" r="2.5" fill="rgb(50,50,50)" />
	<circle cx="103.599" cy="354.933" r="2.5" fill="rgb(49,49,49)" />
	<circle cx="84.1895" cy="380.513" r="2.5" fill="rgb(49,49,49)" />
	<circle cx="438.07" cy="355.611" r="2.5" fill="rgb(49,49,49)" />
	<circle cx="296.785" cy="392.982" r="2.5" fill="rgb(48,48,48)" />
	<circle cx="318.461" cy="387.122" r="2.5" fill="rgb(48,48,48)" />
	<circle cx="294.181" cy="335.299" r="2.5" fill="rgb(48,48,48)" />
	<circle cx="249.352" cy="357.216" r="2.5" fill="rgb(47,47,47)" />
	<circle cx="181.293" cy="370.899" r="2.5" fill="rgb(47,47,47)" />
	<circle cx="274.888" cy="358.36" r="2.5" fill="rgb(47,47,47)" />
	<circle cx="71.2285" cy="370.018" r="2.5" fill="rgb(46,46,46)" />
	<circle cx="188.53" cy="351.776" r="2.5" fill="rgb(46,46,46)" />
	<circle cx="68.2534" cy="401.161" r="2.5" fill="rgb(46,46,46)" />
	<circle cx="132.419" cy="399.751" r="2.5" fill="rgb(46,46,46)" />
	<circle cx="346.597" cy="338.039" r="2.5" fill="rgb(46,46,46)" />
	<circle cx="375.854" cy="341.694" r="2.5" fill="rgb(46,46,46)" />
	<circle cx="180.757" cy="354.221" r="2.5" fill="rgb(46,46,46)" />
	<circle cx="237.517" cy="364.056" r="2.5" fill="rgb(45,45,45)" />
	<circle cx="247.841" cy="444.08" r="2.5" fill="rgb(45,45,45)" />
	<circle cx="189.712" cy="363.007" r="2.5" fill="rgb(44,44,44)" />
	<circle cx="125.104" cy="378.011" r="2.5" fill="rgb(43,43,43)" />
	<circle cx="368.614" cy="347.77" r="2.5" fill="rgb(43,43,43)" />
	<circle cx="176.854" cy="364.389" r="2.5" fill="rgb(43,43,43)" />
	<circle cx="172.565" cy="366.868" r="2.5" fill="rgb(43,43,43)" />
	<circle cx="237.123" cy="393.31" r="2.5" fill="rgb(42,42,42)" />
	<circle cx="220.64" cy="374.122" r="2.5" fill="rgb(42,42,42)" />
	<circle cx="132.033" cy="418.777" r="2.5" fill="rgb(42,42,42)" />
	<circle cx="118.098" cy="441.068" r="2.5" fill="rgb(42,42,42)" />
	<circle cx="269.123" cy="384.991" r="2.5" fill="rgb(41,41,41)" />
	<circle cx="351.944" cy="353.028" r="2.5" fill="rgb(41,41,41)" />
	<circle cx="360.671" cy="355.311" r="2.5" fill="rgb(40,40,40)" />
	<circle cx="299.481" cy="367.163" r="2.5" fill="rgb(40,40,40)" />
	<circle cx="195.94" cy="378.459" r="2.5" fill="rgb(40,40,40)" />
	<circle cx="294.067" cy="356.263" r="2.5" fill="rgb(40,40,40)" />
	<circle cx="202.971" cy="382.705" r="2.5" fill="rgb(40,40,40)" />
	<circle cx="227.432" cy="410.527" r="2.5" fill="rgb(38,38,38)" />
	<circle cx="355.863" cy="361.939" r="2.5" fill="rgb(38,38,38)" />
	<circle cx="294.435" cy="368.911" r="2.5" fill="rgb(37,37,37)" />
	<circle cx="314.687" cy="429.57" r="2.5" fill="rgb(36,36,36)" />
	<circle cx="306.57" cy="378.436" r="2.5" fill="rgb(35,35,35)" />
	<circle cx="204.472" cy="454.989" r="2.5" fill="rgb(35,35,35)" />
	<circle cx="165.121" cy="464.5" r="2.5" fill="rgb(35,35,35)" />
	<circle cx="362.806" cy="435.702" r="2.5" fill="rgb(35,35,35)" />
	<circle cx="338.011" cy="371.463" r="2.5" fill="rgb(34,34,34)" />
	<circle cx="284.329" cy="380.744" r="2.5" fill="rgb(34,34,34)" />
	<circle cx="270.943" cy="451.902" r="2.5" fill="rgb(33,33,33)" />
	<circle cx="317.494" cy="438.573" r="2.5" fill="rgb(33,33,33)" />
	<circle cx="143.188" cy="460.547" r="2.5" fill="rgb(33,33,33)" />
	<circle cx="285.457" cy="388.811" r="2.5" fill="rgb(32,32,32)" />
	<circle cx="359.187" cy="378.81" r="2.5" fill="rgb(31,31,31)" />
	<circle cx="212.011" cy="470.779" r="2.5" fill="rgb(31,31,31)" />
	<circle cx="332.498" cy="382.845" r="2.5" fill="rgb(30,30,30)" />
	<circle cx="268.011" cy="418.24" r="2.5" fill="rgb(30,30,30)" />
	<circle cx="274.69" cy="418.176" r="2.5" fill="rgb(30,30,30)" />
	<circle cx="360.065" cy="448.521" r="2.5" fill="rgb(30,30,30)" />
	<circle cx="169.298" cy="472.12" r="2.5" fill="rgb(30,30,30)" />
	<circle cx="308.574" cy="447.92" r="2.5" fill="rgb(29,29,29)" />
	<circle cx="273.768" cy="464.772" r="2.5" fill="rgb(29,29,29)" />
	<circle cx="255.271" cy="449.095" r="2.5" fill="rgb(29,29,29)" />
	<circle cx="151.347" cy="480.356" r="2.5" fill="rgb(29,29,29)" />
	<circle cx="368.627" cy="450.699" r="2.5" fill="rgb(29,29,29)" />
	<circle cx="359.269" cy="388.745" r="2.5" fill="rgb(28,28,28)" />
	<circle cx="262.969" cy="399.664" r="2.5" fill="rgb(28,28,28)" />
	<circle cx="165.167" cy="482.909" r="2.5" fill="rgb(27,27,27)" />
	<circle cx="167.705" cy="482.344" r="2.5" fill="rgb(27,27,27)" />
	<circle cx="345.831" cy="390.749" r="2.5" fill="rgb(27,27,27)" />
	<circle cx="250.749" cy="457.824" r="2.5" fill="rgb(27,27,27)" />
	<circle cx="360.619" cy="450.553" r="2.5" fill="rgb(27,27,27)" />
	<circle cx="260.231" cy="475.454" r="2.5" fill="rgb(26,26,26)" />
	<circle cx="394.439" cy="453.431" r="2.5" fill="rgb(26,26,26)" />
	<circle cx="272.378" cy="434.563" r="2.5" fill="rgb(26,26,26)" />
	<circle cx="146.243" cy="495.658" r="2.5" fill="rgb(26,26,26)" />
	<circle cx="388.627" cy="456.528" r="2.5" fill="rgb(25,25,25)" />
	<circle cx="369.591" cy="459.031" r="2.5" fill="rgb(25,25,25)" />
	<circle cx="339.186" cy="455.951" r="2.5" fill="rgb(25,25,25)" />
	<circle cx="221.766" cy="468.539" r="2.5" fill="rgb(25,25,25)" />
	<circle cx="398.843" cy="457.283" r="2.5" fill="rgb(25,25,25)" />
	<circle cx="200.391" cy="476.501" r="2.5" fill="rgb(24,24,24)" />
	<circle cx="393.93" cy="458.858" r="2.5" fill="rgb(24,24,24)" />
	<circle cx="363.099" cy="464.276" r="2.5" fill="rgb(24,24,24)" />
	<circle cx="181.09" cy="497.582" r="2.5" fill="rgb(24,24,24)" />
	<circle cx="160.06" cy="445.03" r="2.5" fill="rgb(23,23,23)" />
	<circle cx="142.679" cy="489.042" r="2.5" fill="rgb(23,23,23)" />
	<circle cx="345.477" cy="402.322" r="2.5" fill="rgb(23,23,23)" />
	<circle cx="232.503" cy="479.444" r="2.5" fill="rgb(22,22,22)" />
	<circle cx="393.442" cy="465.652" r="2.5" fill="rgb(21,21,21)" />
	<circle cx="346.552" cy="465.481" r="2.5" fill="rgb(21,21,21)" />
	<circle cx="316.25" cy="405.272" r="2.5" fill="rgb(21,21,21)" />
	<circle cx="248.447" cy="419.491" r="2.5" fill="rgb(20,20,20)" />
	<circle cx="213.014" cy="484.574" r="2.5" fill="rgb(19,19,19)" />
	<circle cx="110.552" cy="301.407" r="2.5" fill="rgb(19,19,19)" />
	<circle cx="306.968" cy="414.112" r="2.5" fill="rgb(18,18,18)" />
	<circle cx="356.848" cy="472.946" r="2.5" fill="rgb(18,18,18)" />
	<circle cx="235.104" cy="427.645" r="2.5" fill="rgb(18,18,18)" />
	<circle cx="302.259" cy="415.619" r="2.5" fill="rgb(18,18,18)" />
	<circle cx="4.63537" cy="368.43" r="2.5" fill="rgb(17,17,17)" />
	<circle cx="36.9397" cy="453.23" r="2.5" fill="rgb(17,17,17)" />
	<circle cx="104.307" cy="310.83" r="2.5" fill="rgb(17,17,17)" />
	<circle cx="31.2257" cy="447.831" r="2.5" fill="rgb(17,17,17)" />
	<circle cx="33.6511" cy="374.763" r="2.5" fill="rgb(17,17,17)" />
	<circle cx="89.3537" cy="438.985" r="2.5" fill="rgb(17,17,17)" />
	<circle cx="292.38" cy="418.308" r="2.5" fill="rgb(17,17,17)" />
	<circle cx="159.664" cy="409.987" r="2.5" fill="rgb(17,17,17)" />
	<circle cx="140.118" cy="412.84" r="2.5" fill="rgb(17,17,17)" />
	<circle cx="2.66802" cy="338.569" r="2.5" fill="rgb(16,16,16)" />
	<circle cx="25.3815" cy="469.248" r="2.5" fill="rgb(16,16,16)" />
	<circle cx="31.1858" cy="470.002" r="2.5" fill="rgb(15,15,15)" />
	<circle cx="303.193" cy="423.377" r="2.5" fill="rgb(15,15,15)" />
	<circle cx="98.4177" cy="325.192" r="2.5" fill="rgb(15,15,15)" />
	<circle cx="27.091" cy="467.506" r="2.5" fill="rgb(15,15,15)" />
	<circle cx="19.2409" cy="443.307" r="2.5" fill="rgb(15,15,15)" />
	<circle cx="161.138" cy="434.078" r="2.5" fill="rgb(15,15,15)" />
	<circle cx="1.16017" cy="351.801" r="2.5" fill="rgb(15,15,15)" />
	<circle cx="69.8672" cy="477.58" r="2.5" fill="rgb(15,15,15)" />
	<circle cx="3.62083" cy="373.991" r="2.5" fill="rgb(15,15,15)" />
	<circle cx="5.90331" cy="396.75" r="2.5" fill="rgb(15,15,15)" />
	<circle cx="240.049" cy="441.378" r="2.5" fill="rgb(14,14,14)" />
	<circle cx="93.674" cy="335.763" r="2.5" fill="rgb(14,14,14)" />
	<circle cx="38.5679" cy="378.493" r="2.5" fill="rgb(14,14,14)" />
	<circle cx="100.037" cy="459.083" r="2.5" fill="rgb(14,14,14)" />
	<circle cx="64.3106" cy="478.149" r="2.5" fill="rgb(13,13,13)" />
	<circle cx="180.26" cy="428.832" r="2.5" fill="rgb(13,13,13)" />
	<circle cx="173.808" cy="445.59" r="2.5" fill="rgb(13,13,13)" />
	<circle cx="70.5019" cy="477.525" r="2.5" fill="rgb(12,12,12)" />
	<circle cx="95.9721" cy="347.673" r="2.5" fill="rgb(12,12,12)" />
	<circle cx="14.9223" cy="395.139" r="2.5" fill="rgb(12,12,12)" />
	<circle cx="289.551" cy="434.203" r="2.5" fill="rgb(12,12,12)" />
	<circle cx="149.892" cy="450.929" r="2.5" fill="rgb(12,12,12)" />
	<circle cx="106.561" cy="470.059" r="2.5" fill="rgb(12,12,12)" />
	<circle cx="29.0209" cy="324.209" r="2.5" fill="rgb(12,12,12)" />
	<circle cx="46.8451" cy="403.482" r="2.5" fill="rgb(11,11,11)" />
	<circle cx="180.469" cy="438.623" r="2.5" fill="rgb(11,11,11)" />
	<circle cx="123.941" cy="466.036" r="2.5" fill="rgb(10,10,10)" />
	<circle cx="92.3597" cy="489.958" r="2.5" fill="rgb(10,10,10)" />
	<circle cx="21.8716" cy="339.754" r="2.5" fill="rgb(10,10,10)" />
	<circle cx="2.80822" cy="452.149" r="2.5" fill="rgb(10,10,10)" />
	<circle cx="157.948" cy="462.354" r="2.5" fill="rgb(10,10,10)" />
	<circle cx="16.8953" cy="341.843" r="2.5" fill="rgb(9,9,9)" />
	<circle cx="206.728" cy="447.514" r="2.5" fill="rgb(9,9,9)" />
	<circle cx="1.35759" cy="423.054" r="2.5" fill="rgb(9,9,9)" />
	<circle cx="25.1649" cy="358.741" r="2.5" fill="rgb(8,8,8)" />
	<circle cx="157.174" cy="472.706" r="2.5" fill="rgb(8,8,8)" />
	<circle cx="292.024" cy="449.937" r="2.5" fill="rgb(7,7,7)" />
	<circle cx="179.814" cy="458.269" r="2.5" fill="rgb(7,7,7)" />
	<circle cx="68.4877" cy="412.01" r="2.5" fill="rgb(7,7,7)" />
	<circle cx="36.1973" cy="376.374" r="2.5" fill="rgb(6,6,6)" />
	<circle cx="118.328" cy="385.383" r="2.5" fill="rgb(6,6,6)" />
	<circle cx="34.6442" cy="456.101" r="2.5" fill="rgb(6,6,6)" />
	<circle cx="23.6907" cy="380.7" r="2.5" fill="rgb(6,6,6)" />
	<circle cx="234.955" cy="439.449" r="2.5" fill="rgb(5,5,5)" />
	<circle cx="61.5912" cy="429.998" r="2.5" fill="rgb(5,5,5)" />
	<circle cx="4.31126" cy="393.725" r="2.5" fill="rgb(4,4,4)" />
	<circle cx="91.1113" cy="400.647" r="2.5" fill="rgb(4,4,4)" />
	<circle cx="29.5002" cy="403.66" r="2.5" fill="rgb(4,4,4)" />
	<circle cx="7.16829" cy="434.13" r="2.5" fill="rgb(4,4,4)" />
	<circle cx="110.201" cy="403.086" r="2.5" fill="rgb(3,3,3)" />
	<circle cx="52.6859" cy="443.176" r="2.5" fill="rgb(3,3,3)" />
	<circle cx="135.025" cy="405.207" r="2.5" fill="rgb(3,3,3)" />
	<circle cx="38.4619" cy="442.027" r="2.5" fill="rgb(3,3,3)" />
	<circle cx="6.83991" cy="418.186" r="2.5" fill="rgb(2,2,2)" />
	<circle cx="4.29531" cy="434.868" r="2.5" fill="rgb(2,2,2)" />
	<circle cx="10.658" cy="457.392" r="2.5" fill="rgb(1,1,1)" />
	<circle cx="11.8378" cy="438.383" r="2.5" fill="rgb(1,1,1)" />
	<circle cx="22.5207" cy="460.388" r="2.5" fill="rgb(1,1,1)" />
	<circle cx="126.764" cy="417.992" r="2.5" fill="rgb(1,1,1)" />
	<circle cx="31.4323" cy="432.8" r="2.5" fill="rgb(1,1,1)" />
	<circle cx="83.3333" cy="416.667" r="2" fill="rgb(255,0,0)" />
	<circle cx="416.667" cy="83.3333" r="2" fill="rgb(0,255,0)" />
	<circle cx="83.3333" cy="416.667" r="2" fill="rgb(0,255,0)" />
	<circle cx="102.288" cy="394.104" r="2" fill="rgb(0,255,0)" />
	<circle cx="122.244" cy="386.089" r="2" fill="rgb(0,255,0)" />
	<circle cx="110.708" cy="365.169" r="2" fill="rgb(0,255,0)" />
	<circle cx="127.67" cy="348.25" r="2" fill="rgb(0,255,0)" />
	<circle cx="134.003" cy="327.855" r="2" fill="rgb(0,255,0)" />
	<circle cx="77.1854" cy="321.322" r="2" fill="rgb(0,255,0)" />
	<circle cx="60.3497" cy="298.194" r="2" fill="rgb(0,255,0)" />
	<circle cx="51.741" cy="283.571" r="2" fill="rgb(0,255,0)" />
	<circle cx="36.1346" cy="271.576" r="2" fill="rgb(0,255,0)" />
	<circle cx="44.277" cy="254.613" r="2" fill="rgb(0,255,0)" />
	<circle cx="48.0297" cy="237.598" r="2" fill="rgb(0,255,0)" />
	<circle cx="31.5305" cy="220.862" r="2" fill="rgb(0,255,0)" />
	<circle cx="57.9255" cy="205.467" r="2" fill="rgb(0,255,0)" />
	<circle cx="123.678" cy="216.395" r="2" fill="rgb(0,255,0)" />
	<circle cx="162.714" cy="215.029" r="2" fill="rgb(0,255,0)" />
	<circle cx="175.313" cy="204.447" r="2" fill="rgb(0,255,0)" />
	<circle cx="158.301" cy="179.525" r="2" fill="rgb(0,255,0)" />
	<circle cx="192.793" cy="184.457" r="2" fill="rgb(0,255,0)" />
	<circle cx="212.894" cy="181.693" r="2" fill="rgb(0,255,0)" />
	<circle cx="219.832" cy="168.637" r="2" fill="rgb(0,255,0)" />
	<circle cx="212.345" cy="150.702" r="2" fill="rgb(0,255,0)" />
	<circle cx="231.645" cy="149.254" r="2" fill="rgb(0,255,0)" />
	<circle cx="245.055" cy="146.38" r="2" fill="rgb(0,255,0)" />
	<circle cx="254.688" cy="134.484" r="2" fill="rgb(0,255,0)" />
	<circle cx="280.334" cy="132.549" r="2" fill="rgb(0,255,0)" />
	<circle cx="323.18" cy="156.318" r="2" fill="rgb(0,255,0)" />
	<circle cx="331.503" cy="148.498" r="2" fill="rgb(0,255,0)" />
	<circle cx="337.695" cy="141.314" r="2" fill="rgb(0,255,0)" />
	<circle cx="341.93" cy="131.79" r="2" fill="rgb(0,255,0)" />
	<circle cx="344.671" cy="120.138" r="2" fill="rgb(0,255,0)" />
	<circle cx="363.201" cy="110.954" r="2" fill="rgb(0,255,0)" />
	<circle cx="402.194" cy="102.066" r="2" fill="rgb(0,255,0)" />
	<circle cx="413.345" cy="87.896" r="2" fill="rgb(0,255,0)" />
</svg>
