<?xml version="1.0" standalone="no" ?>
<!DOCTYPE svg PUBLIC "-//W3C//DTD SVG 1.1//EN" "http://www.w3.org/Graphics/SVG/1.1/DTD/svg11.dtd">
<svg width="500px" height="500px" xmlns="http://www.w3.org/2000/svg" version="1.1" >
	<polyline points="83.3333,416.667 88.6187,394.901 " fill="transparent" stroke-width="0.5" stroke="rgb(0,0,255)" />
	<circle cx="83.3333" cy="416.667" r="2" fill="rgb(255,0,0)" />
	<circle cx="416.667" cy="83.3333" r="2" fill="rgb(0,255,0)" />
	<polyline points="83.3333,416.667 101.884,396.49 4.46196,406.553 5.46143,376.47 27.6556,361.828 47.0278,339.951 68.1365,334.128 59.5148,309.131 77.9243,291.194 87.2345,282.7 119.415,279.406 117.316,268.36 129.95,262.066 143.681,254.388 198.231,262.85 208.326,255.159 237.332,248.394 258.276,240.784 257.148,226.95 276.104,219.511 280.317,211.303 295.14,209.434 299.727,200.029 319.864,197.084 320.015,183.296 331.937,176.777 350.525,169.13 357.774,157.256 374.475,148.962 385.644,138.092 399.321,126.177 389.015,109.295 409.238,95.1083 415.013,84.5984 " fill="transparent" stroke-width="3" stroke="rgb(0,0,0)" />
</svg>
