<?xml version="1.0" standalone="no" ?>
<!DOCTYPE svg PUBLIC "-//W3C//DTD SVG 1.1//EN" "http://www.w3.org/Graphics/SVG/1.1/DTD/svg11.dtd">
<svg width="500px" height="500px" xmlns="http://www.w3.org/2000/svg" version="1.1" >
	<circle cx="205.725" cy="133.673" r="2.5" fill="rgb(255,255,255)" />
	<circle cx="73.7998" cy="242.541" r="2.5" fill="rgb(253,253,253)" />
	<circle cx="196.256" cy="139.726" r="2.5" fill="rgb(250,250,250)" />
	<circle cx="146.957" cy="102.001" r="2.5" fill="rgb(249,249,249)" />
	<circle cx="134.49" cy="107.919" r="2.5" fill="rgb(246,246,246)" />
	<circle cx="139.648" cy="125.51" r="2.5" fill="rgb(239,239,239)" />
	<circle cx="184.477" cy="192.063" r="2.5" fill="rgb(235,235,235)" />
	<circle cx="165.942" cy="151.342" r="2.5" fill="rgb(231,231,231)" />
	<circle cx="192.125" cy="198.687" r="2.5" fill="rgb(230,230,230)" />
	<circle cx="152.115" cy="245.689" r="2.5" fill="rgb(230,230,230)" />
	<circle cx="182.576" cy="204.692" r="2.5" fill="rgb(230,230,230)" />
	<circle cx="163.766" cy="190.577" r="2.5" fill="rgb(228,228,228)" />
	<circle cx="349.2" cy="183.007" r="2.5" fill="rgb(226,226,226)" />
	<circle cx="209.386" cy="177.147" r="2.5" fill="rgb(225,225,225)" />
	<circle cx="103.54" cy="141.859" r="2.5" fill="rgb(223,223,223)" />
	<circle cx="196.632" cy="179.957" r="2.5" fill="rgb(221,221,221)" />
	<circle cx="382.187" cy="195.653" r="2.5" fill="rgb(218,218,218)" />
	<circle cx="213.107" cy="164.456" r="2.5" fill="rgb(213,213,213)" />
	<circle cx="138.84" cy="164.191" r="2.5" fill="rgb(212,212,212)" />
	<circle cx="139.279" cy="166.262" r="2.5" fill="rgb(210,210,210)" />
	<circle cx="233.297" cy="180.624" r="2.5" fill="rgb(207,207,207)" />
	<circle cx="384.604" cy="209.683" r="2.5" fill="rgb(205,205,205)" />
	<circle cx="134.322" cy="176.356" r="2.5" fill="rgb(203,203,203)" />
	<circle cx="155.727" cy="171.07" r="2.5" fill="rgb(202,202,202)" />
	<circle cx="382.789" cy="219.798" r="2.5" fill="rgb(196,196,196)" />
	<circle cx="213.932" cy="189.089" r="2.5" fill="rgb(196,196,196)" />
	<circle cx="289.523" cy="270.3" r="2.5" fill="rgb(195,195,195)" />
	<circle cx="218.649" cy="207.328" r="2.5" fill="rgb(185,185,185)" />
	<circle cx="409.112" cy="236.173" r="2.5" fill="rgb(183,183,183)" />
	<circle cx="204.32" cy="215.763" r="2.5" fill="rgb(176,176,176)" />
	<circle cx="351.118" cy="331.87" r="2.5" fill="rgb(176,176,176)" />
	<circle cx="290.805" cy="319.109" r="2.5" fill="rgb(174,174,174)" />
	<circle cx="372.981" cy="240.142" r="2.5" fill="rgb(171,171,171)" />
	<circle cx="277.83" cy="355.833" r="2.5" fill="rgb(170,170,170)" />
	<circle cx="410.038" cy="327.175" r="2.5" fill="rgb(169,169,169)" />
	<circle cx="295.525" cy="236.639" r="2.5" fill="rgb(166,166,166)" />
	<circle cx="365.081" cy="245.612" r="2.5" fill="rgb(165,165,165)" />
	<circle cx="487.72" cy="306.889" r="2.5" fill="rgb(159,159,159)" />
	<circle cx="291.027" cy="244.757" r="2.5" fill="rgb(159,159,159)" />
	<circle cx="364.646" cy="252.84" r="2.5" fill="rgb(158,158,158)" />
	<circle cx="278.643" cy="242.296" r="2.5" fill="rgb(157,157,157)" />
	<circle cx="379.083" cy="328.345" r="2.5" fill="rgb(155,155,155)" />
	<circle cx="494.037" cy="311.807" r="2.5" fill="rgb(154,154,154)" />
	<circle cx="264.445" cy="390.139" r="2.5" fill="rgb(152,152,152)" />
	<circle cx="361.566" cy="259.479" r="2.5" fill="rgb(152,152,152)" />
	<circle cx="302.895" cy="344.56" r="2.5" fill="rgb(152,152,152)" />
	<circle cx="161.772" cy="452.635" r="2.5" fill="rgb(151,151,151)" />
	<circle cx="279.371" cy="252.231" r="2.5" fill="rgb(150,150,150)" />
	<circle cx="176.492" cy="277.334" r="2.5" fill="rgb(148,148,148)" />
	<circle cx="242.841" cy="275.771" r="2.5" fill="rgb(148,148,148)" />
	<circle cx="212.011" cy="289.062" r="2.5" fill="rgb(146,146,146)" />
	<circle cx="482.952" cy="318.359" r="2.5" fill="rgb(145,145,145)" />
	<circle cx="349.508" cy="314.157" r="2.5" fill="rgb(145,145,145)" />
	<circle cx="332.325" cy="342.689" r="2.5" fill="rgb(144,144,144)" />
	<circle cx="226.627" cy="292.363" r="2.5" fill="rgb(144,144,144)" />
	<circle cx="479.094" cy="319.062" r="2.5" fill="rgb(144,144,144)" />
	<circle cx="313.017" cy="342.057" r="2.5" fill="rgb(143,143,143)" />
	<circle cx="342.344" cy="316.285" r="2.5" fill="rgb(142,142,142)" />
	<circle cx="380.873" cy="341.071" r="2.5" fill="rgb(142,142,142)" />
	<circle cx="266.189" cy="344.082" r="2.5" fill="rgb(141,141,141)" />
	<circle cx="340.824" cy="265.87" r="2.5" fill="rgb(141,141,141)" />
	<circle cx="157.514" cy="374.754" r="2.5" fill="rgb(141,141,141)" />
	<circle cx="317.423" cy="317.843" r="2.5" fill="rgb(141,141,141)" />
	<circle cx="254.258" cy="404.683" r="2.5" fill="rgb(140,140,140)" />
	<circle cx="333.401" cy="265.139" r="2.5" fill="rgb(140,140,140)" />
	<circle cx="259" cy="358.363" r="2.5" fill="rgb(140,140,140)" />
	<circle cx="300.266" cy="335.028" r="2.5" fill="rgb(139,139,139)" />
	<circle cx="201.758" cy="299.234" r="2.5" fill="rgb(139,139,139)" />
	<circle cx="210.841" cy="323.168" r="2.5" fill="rgb(135,135,135)" />
	<circle cx="445.475" cy="321.758" r="2.5" fill="rgb(134,134,134)" />
	<circle cx="271.087" cy="337.126" r="2.5" fill="rgb(134,134,134)" />
	<circle cx="342.918" cy="275.181" r="2.5" fill="rgb(133,133,133)" />
	<circle cx="457.415" cy="324.97" r="2.5" fill="rgb(133,133,133)" />
	<circle cx="177.61" cy="391.044" r="2.5" fill="rgb(132,132,132)" />
	<circle cx="353.756" cy="327.752" r="2.5" fill="rgb(132,132,132)" />
	<circle cx="324.216" cy="355.12" r="2.5" fill="rgb(132,132,132)" />
	<circle cx="384.896" cy="325.718" r="2.5" fill="rgb(129,129,129)" />
	<circle cx="360.901" cy="349.368" r="2.5" fill="rgb(128,128,128)" />
	<circle cx="330.43" cy="279.459" r="2.5" fill="rgb(127,127,127)" />
	<circle cx="206.22" cy="337.116" r="2.5" fill="rgb(126,126,126)" />
	<circle cx="253.612" cy="337.457" r="2.5" fill="rgb(124,124,124)" />
	<circle cx="276.016" cy="352.409" r="2.5" fill="rgb(123,123,123)" />
	<circle cx="436.841" cy="333.915" r="2.5" fill="rgb(119,119,119)" />
	<circle cx="273.589" cy="341.809" r="2.5" fill="rgb(117,117,117)" />
	<circle cx="343.167" cy="294.947" r="2.5" fill="rgb(115,115,115)" />
	<circle cx="59.9666" cy="350.088" r="2.5" fill="rgb(110,110,110)" />
	<circle cx="334.762" cy="305.137" r="2.5" fill="rgb(105,105,105)" />
	<circle cx="385.207" cy="337.202" r="2.5" fill="rgb(103,103,103)" />
	<circle cx="78.9264" cy="220.61" r="2.5" fill="rgb(101,101,101)" />
	<circle cx="414.4" cy="442.916" r="2.5" fill="rgb(99,99,99)" />
	<circle cx="287.916" cy="303.638" r="2.5" fill="rgb(97,97,97)" />
	<circle cx="90.0044" cy="387.07" r="2.5" fill="rgb(95,95,95)" />
	<circle cx="320.125" cy="314.193" r="2.5" fill="rgb(95,95,95)" />
	<circle cx="25.422" cy="356.541" r="2.5" fill="rgb(93,93,93)" />
	<circle cx="69.7518" cy="238.543" r="2.5" fill="rgb(91,91,91)" />
	<circle cx="306.809" cy="441.989" r="2.5" fill="rgb(89,89,89)" />
	<circle cx="111.552" cy="368.478" r="2.5" fill="rgb(89,89,89)" />
	<circle cx="43.8391" cy="361.113" r="2.5" fill="rgb(88,88,88)" />
	<circle cx="131.949" cy="373.642" r="2.5" fill="rgb(87,87,87)" />
	<circle cx="61.6913" cy="246.939" r="2.5" fill="rgb(86,86,86)" />
	<circle cx="230.759" cy="456.056" r="2.5" fill="rgb(86,86,86)" />
	<circle cx="21.5307" cy="401.794" r="2.5" fill="rgb(86,86,86)" />
	<circle cx="251.823" cy="306.398" r="2.5" fill="rgb(85,85,85)" />
	<circle cx="293.27" cy="320.412" r="2.5" fill="rgb(85,85,85)" />
	<circle cx="30.2654" cy="360.742" r="2.5" fill="rgb(84,84,84)" />
	<circle cx="38.9745" cy="348.755" r="2.5" fill="rgb(83,83,83)" />
	<circle cx="403.072" cy="455.124" r="2.5" fill="rgb(83,83,83)" />
	<circle cx="358.766" cy="459.394" r="2.5" fill="rgb(83,83,83)" />
	<circle cx="301.507" cy="449.916" r="2.5" fill="rgb(81,81,81)" />
	<circle cx="204.043" cy="476.489" r="2.5" fill="rgb(79,79,79)" />
	<circle cx="139.663" cy="279.475" r="2.5" fill="rgb(79,79,79)" />
	<circle cx="134.412" cy="391.17" r="2.5" fill="rgb(78,78,78)" />
	<circle cx="133.593" cy="343.132" r="2.5" fill="rgb(78,78,78)" />
	<circle cx="282.961" cy="326.322" r="2.5" fill="rgb(78,78,78)" />
	<circle cx="61.0241" cy="348.374" r="2.5" fill="rgb(78,78,78)" />
	<circle cx="62.6807" cy="265.487" r="2.5" fill="rgb(77,77,77)" />
	<circle cx="58.0601" cy="363.527" r="2.5" fill="rgb(77,77,77)" />
	<circle cx="229.693" cy="468.555" r="2.5" fill="rgb(76,76,76)" />
	<circle cx="383.471" cy="461.693" r="2.5" fill="rgb(75,75,75)" />
	<circle cx="238.53" cy="318.923" r="2.5" fill="rgb(74,74,74)" />
	<circle cx="178.824" cy="355.845" r="2.5" fill="rgb(74,74,74)" />
	<circle cx="376.959" cy="464.034" r="2.5" fill="rgb(74,74,74)" />
	<circle cx="80.1279" cy="274.305" r="2.5" fill="rgb(73,73,73)" />
	<circle cx="120.658" cy="288.051" r="2.5" fill="rgb(72,72,72)" />
	<circle cx="19.8388" cy="443.056" r="2.5" fill="rgb(72,72,72)" />
	<circle cx="0.947555" cy="442.519" r="2.5" fill="rgb(72,72,72)" />
	<circle cx="82.1356" cy="280.587" r="2.5" fill="rgb(71,71,71)" />
	<circle cx="63.6273" cy="392.559" r="2.5" fill="rgb(71,71,71)" />
	<circle cx="268.691" cy="455.597" r="2.5" fill="rgb(70,70,70)" />
	<circle cx="241.107" cy="328.042" r="2.5" fill="rgb(68,68,68)" />
	<circle cx="226.401" cy="477.78" r="2.5" fill="rgb(68,68,68)" />
	<circle cx="288.462" cy="467.9" r="2.5" fill="rgb(67,67,67)" />
	<circle cx="339.92" cy="458.013" r="2.5" fill="rgb(66,66,66)" />
	<circle cx="391.142" cy="469.166" r="2.5" fill="rgb(64,64,64)" />
	<circle cx="83.0973" cy="294.547" r="2.5" fill="rgb(64,64,64)" />
	<circle cx="98.1588" cy="298.471" r="2.5" fill="rgb(64,64,64)" />
	<circle cx="11.949" cy="303.999" r="2.5" fill="rgb(63,63,63)" />
	<circle cx="248.062" cy="483.945" r="2.5" fill="rgb(61,61,61)" />
	<circle cx="218.001" cy="489.39" r="2.5" fill="rgb(61,61,61)" />
	<circle cx="301.868" cy="462.663" r="2.5" fill="rgb(59,59,59)" />
	<circle cx="36.8502" cy="337.907" r="2.5" fill="rgb(58,58,58)" />
	<circle cx="229.755" cy="341.791" r="2.5" fill="rgb(57,57,57)" />
	<circle cx="132.44" cy="412.247" r="2.5" fill="rgb(56,56,56)" />
	<circle cx="338.211" cy="466.925" r="2.5" fill="rgb(56,56,56)" />
	<circle cx="83.2604" cy="314.843" r="2.5" fill="rgb(55,55,55)" />
	<circle cx="277.578" cy="471.041" r="2.5" fill="rgb(54,54,54)" />
	<circle cx="237.965" cy="493.584" r="2.5" fill="rgb(53,53,53)" />
	<circle cx="160.637" cy="323.79" r="2.5" fill="rgb(51,51,51)" />
	<circle cx="206.969" cy="347.536" r="2.5" fill="rgb(50,50,50)" />
	<circle cx="131.922" cy="319.963" r="2.5" fill="rgb(50,50,50)" />
	<circle cx="126.595" cy="429.788" r="2.5" fill="rgb(48,48,48)" />
	<circle cx="109.235" cy="428.021" r="2.5" fill="rgb(48,48,48)" />
	<circle cx="2.36969" cy="319.273" r="2.5" fill="rgb(47,47,47)" />
	<circle cx="73.0268" cy="354.029" r="2.5" fill="rgb(47,47,47)" />
	<circle cx="278.336" cy="478.663" r="2.5" fill="rgb(44,44,44)" />
	<circle cx="298.827" cy="476.974" r="2.5" fill="rgb(44,44,44)" />
	<circle cx="292.378" cy="477.25" r="2.5" fill="rgb(44,44,44)" />
	<circle cx="36.4357" cy="334.832" r="2.5" fill="rgb(43,43,43)" />
	<circle cx="54.1145" cy="453.378" r="2.5" fill="rgb(42,42,42)" />
	<circle cx="144.099" cy="338.664" r="2.5" fill="rgb(41,41,41)" />
	<circle cx="32.7827" cy="346.898" r="2.5" fill="rgb(38,38,38)" />
	<circle cx="92.4484" cy="451.759" r="2.5" fill="rgb(37,37,37)" />
	<circle cx="25.6992" cy="361.523" r="2.5" fill="rgb(33,33,33)" />
	<circle cx="63.2506" cy="465.261" r="2.5" fill="rgb(33,33,33)" />
	<circle cx="283.591" cy="489.247" r="2.5" fill="rgb(32,32,32)" />
	<circle cx="141.539" cy="357.274" r="2.5" fill="rgb(31,31,31)" />
	<circle cx="38.0796" cy="469.462" r="2.5" fill="rgb(31,31,31)" />
	<circle cx="8.28637" cy="472.912" r="2.5" fill="rgb(30,30,30)" />
	<circle cx="77.5134" cy="474.504" r="2.5" fill="rgb(27,27,27)" />
	<circle cx="12.0682" cy="485.839" r="2.5" fill="rgb(25,25,25)" />
	<circle cx="124.619" cy="366.989" r="2.5" fill="rgb(25,25,25)" />
	<circle cx="8.8316" cy="387.148" r="2.5" fill="rgb(24,24,24)" />
	<circle cx="163.59" cy="427.503" r="2.5" fill="rgb(18,18,18)" />
	<circle cx="96.9644" cy="382.556" r="2.5" fill="rgb(15,15,15)" />
	<circle cx="103.298" cy="399.209" r="2.5" fill="rgb(8,8,8)" />
	<circle cx="151.009" cy="446.237" r="2.5" fill="rgb(6,6,6)" />
	<circle cx="11.6827" cy="438.984" r="2.5" fill="rgb(6,6,6)" />
	<circle cx="83.3333" cy="416.667" r="2" fill="rgb(255,0,0)" />
	<circle cx="416.667" cy="83.3333" r="2" fill="rgb(0,255,0)" />
	<circle cx="83.3333" cy="416.667" r="2" fill="rgb(0,255,0)" />
	<circle cx="110.846" cy="403.428" r="2" fill="rgb(0,255,0)" />
	<circle cx="130.803" cy="390.111" r="2" fill="rgb(0,255,0)" />
	<circle cx="135.944" cy="379.741" r="2" fill="rgb(0,255,0)" />
	<circle cx="79.0189" cy="396.391" r="2" fill="rgb(0,255,0)" />
	<circle cx="65.311" cy="381.304" r="2" fill="rgb(0,255,0)" />
	<circle cx="78.0636" cy="365.843" r="2" fill="rgb(0,255,0)" />
	<circle cx="75.894" cy="348.567" r="2" fill="rgb(0,255,0)" />
	<circle cx="58.7164" cy="335.302" r="2" fill="rgb(0,255,0)" />
	<circle cx="61.5725" cy="314.394" r="2" fill="rgb(0,255,0)" />
	<circle cx="51.2828" cy="294.456" r="2" fill="rgb(0,255,0)" />
	<circle cx="103.961" cy="303.461" r="2" fill="rgb(0,255,0)" />
	<circle cx="120.452" cy="295.388" r="2" fill="rgb(0,255,0)" />
	<circle cx="142.387" cy="290.199" r="2" fill="rgb(0,255,0)" />
	<circle cx="142.335" cy="271.616" r="2" fill="rgb(0,255,0)" />
	<circle cx="149.671" cy="257.525" r="2" fill="rgb(0,255,0)" />
	<circle cx="118.185" cy="230.836" r="2" fill="rgb(0,255,0)" />
	<circle cx="125.383" cy="220.865" r="2" fill="rgb(0,255,0)" />
	<circle cx="152.951" cy="217.988" r="2" fill="rgb(0,255,0)" />
	<circle cx="185.205" cy="214.834" r="2" fill="rgb(0,255,0)" />
	<circle cx="184.69" cy="195.536" r="2" fill="rgb(0,255,0)" />
	<circle cx="185.176" cy="186.201" r="2" fill="rgb(0,255,0)" />
	<circle cx="160.186" cy="163.014" r="2" fill="rgb(0,255,0)" />
	<circle cx="140.952" cy="148.932" r="2" fill="rgb(0,255,0)" />
	<circle cx="113.767" cy="132.895" r="2" fill="rgb(0,255,0)" />
	<circle cx="136.917" cy="121.289" r="2" fill="rgb(0,255,0)" />
	<circle cx="159.509" cy="111.953" r="2" fill="rgb(0,255,0)" />
	<circle cx="208.368" cy="125.111" r="2" fill="rgb(0,255,0)" />
	<circle cx="226.068" cy="125.274" r="2" fill="rgb(0,255,0)" />
	<circle cx="232.917" cy="120.445" r="2" fill="rgb(0,255,0)" />
	<circle cx="232.035" cy="105.838" r="2" fill="rgb(0,255,0)" />
	<circle cx="247.506" cy="107.578" r="2" fill="rgb(0,255,0)" />
	<circle cx="240.01" cy="87.7387" r="2" fill="rgb(0,255,0)" />
	<circle cx="254.942" cy="89.6595" r="2" fill="rgb(0,255,0)" />
	<circle cx="287.194" cy="103.435" r="2" fill="rgb(0,255,0)" />
	<circle cx="312.659" cy="104.529" r="2" fill="rgb(0,255,0)" />
	<circle cx="335.664" cy="98.4117" r="2" fill="rgb(0,255,0)" />
	<circle cx="378.216" cy="105.388" r="2" fill="rgb(0,255,0)" />
	<circle cx="394.488" cy="90.8764" r="2" fill="rgb(0,255,0)" />
	<circle cx="403.939" cy="79.1688" r="2" fill="rgb(0,255,0)" />
	<circle cx="455.502" cy="49.9928" r="2" fill="rgb(0,255,0)" />
	<circle cx="449.345" cy="43.0908" r="2" fill="rgb(0,255,0)" />
	<circle cx="413.307" cy="87.1074" r="2" fill="rgb(0,255,0)" />
</svg>
