<?xml version="1.0" standalone="no" ?>
<!DOCTYPE svg PUBLIC "-//W3C//DTD SVG 1.1//EN" "http://www.w3.org/Graphics/SVG/1.1/DTD/svg11.dtd">
<svg width="500px" height="500px" xmlns="http://www.w3.org/2000/svg" version="1.1" >
	<circle cx="482.319" cy="1.2631" r="2.5" fill="rgb(255,255,255)" />
	<circle cx="478.291" cy="34.8466" r="2.5" fill="rgb(233,233,233)" />
	<circle cx="427.12" cy="61.0487" r="2.5" fill="rgb(228,228,228)" />
	<circle cx="411.446" cy="67.9865" r="2.5" fill="rgb(228,228,228)" />
	<circle cx="463.515" cy="225.937" r="2.5" fill="rgb(227,227,227)" />
	<circle cx="485.823" cy="216.339" r="2.5" fill="rgb(227,227,227)" />
	<circle cx="433.31" cy="171.521" r="2.5" fill="rgb(222,222,222)" />
	<circle cx="338.857" cy="143.752" r="2.5" fill="rgb(221,221,221)" />
	<circle cx="438.843" cy="155.606" r="2.5" fill="rgb(221,221,221)" />
	<circle cx="359.12" cy="197.609" r="2.5" fill="rgb(219,219,219)" />
	<circle cx="451.299" cy="243.657" r="2.5" fill="rgb(219,219,219)" />
	<circle cx="486.42" cy="230.381" r="2.5" fill="rgb(218,218,218)" />
	<circle cx="446.364" cy="229.334" r="2.5" fill="rgb(217,217,217)" />
	<circle cx="320.408" cy="64.951" r="2.5" fill="rgb(217,217,217)" />
	<circle cx="423.9" cy="83.2853" r="2.5" fill="rgb(216,216,216)" />
	<circle cx="328.791" cy="69.3433" r="2.5" fill="rgb(215,215,215)" />
	<circle cx="363.425" cy="186.963" r="2.5" fill="rgb(214,214,214)" />
	<circle cx="332.692" cy="73.8157" r="2.5" fill="rgb(213,213,213)" />
	<circle cx="355.054" cy="211.611" r="2.5" fill="rgb(209,209,209)" />
	<circle cx="422.966" cy="97.5046" r="2.5" fill="rgb(208,208,208)" />
	<circle cx="366.683" cy="81.403" r="2.5" fill="rgb(208,208,208)" />
	<circle cx="328.827" cy="81.9541" r="2.5" fill="rgb(206,206,206)" />
	<circle cx="364.901" cy="91.0092" r="2.5" fill="rgb(202,202,202)" />
	<circle cx="467.758" cy="86.7281" r="2.5" fill="rgb(202,202,202)" />
	<circle cx="347.56" cy="189.359" r="2.5" fill="rgb(202,202,202)" />
	<circle cx="346.213" cy="189.012" r="2.5" fill="rgb(202,202,202)" />
	<circle cx="433.607" cy="107.946" r="2.5" fill="rgb(200,200,200)" />
	<circle cx="369.553" cy="101.291" r="2.5" fill="rgb(197,197,197)" />
	<circle cx="465.747" cy="107.911" r="2.5" fill="rgb(192,192,192)" />
	<circle cx="449.568" cy="115.964" r="2.5" fill="rgb(192,192,192)" />
	<circle cx="389.862" cy="109.087" r="2.5" fill="rgb(192,192,192)" />
	<circle cx="358.974" cy="283.55" r="2.5" fill="rgb(184,184,184)" />
	<circle cx="368.913" cy="195.548" r="2.5" fill="rgb(184,184,184)" />
	<circle cx="411.859" cy="124.701" r="2.5" fill="rgb(184,184,184)" />
	<circle cx="342.257" cy="240.869" r="2.5" fill="rgb(182,182,182)" />
	<circle cx="323.783" cy="223.958" r="2.5" fill="rgb(182,182,182)" />
	<circle cx="461.914" cy="130.294" r="2.5" fill="rgb(182,182,182)" />
	<circle cx="409.476" cy="131.806" r="2.5" fill="rgb(180,180,180)" />
	<circle cx="366.657" cy="202.565" r="2.5" fill="rgb(180,180,180)" />
	<circle cx="458.922" cy="135.816" r="2.5" fill="rgb(180,180,180)" />
	<circle cx="480.286" cy="129.94" r="2.5" fill="rgb(179,179,179)" />
	<circle cx="306.037" cy="288.846" r="2.5" fill="rgb(177,177,177)" />
	<circle cx="407.696" cy="140.413" r="2.5" fill="rgb(176,176,176)" />
	<circle cx="245.188" cy="337.749" r="2.5" fill="rgb(175,175,175)" />
	<circle cx="417.923" cy="262.729" r="2.5" fill="rgb(173,173,173)" />
	<circle cx="265.323" cy="288.202" r="2.5" fill="rgb(173,173,173)" />
	<circle cx="403.39" cy="246.008" r="2.5" fill="rgb(173,173,173)" />
	<circle cx="348.369" cy="204.209" r="2.5" fill="rgb(173,173,173)" />
	<circle cx="484.415" cy="272.301" r="2.5" fill="rgb(172,172,172)" />
	<circle cx="421.759" cy="232.328" r="2.5" fill="rgb(172,172,172)" />
	<circle cx="387.32" cy="224.338" r="2.5" fill="rgb(172,172,172)" />
	<circle cx="401.685" cy="261.41" r="2.5" fill="rgb(171,171,171)" />
	<circle cx="466.569" cy="150.246" r="2.5" fill="rgb(171,171,171)" />
	<circle cx="429.056" cy="237.308" r="2.5" fill="rgb(170,170,170)" />
	<circle cx="420.269" cy="157.157" r="2.5" fill="rgb(168,168,168)" />
	<circle cx="356.999" cy="271.412" r="2.5" fill="rgb(168,168,168)" />
	<circle cx="242.544" cy="152.266" r="2.5" fill="rgb(166,166,166)" />
	<circle cx="438.098" cy="162.897" r="2.5" fill="rgb(165,165,165)" />
	<circle cx="167.825" cy="228.121" r="2.5" fill="rgb(165,165,165)" />
	<circle cx="332.54" cy="309.527" r="2.5" fill="rgb(164,164,164)" />
	<circle cx="189.456" cy="188.336" r="2.5" fill="rgb(163,163,163)" />
	<circle cx="287.842" cy="154.468" r="2.5" fill="rgb(162,162,162)" />
	<circle cx="422.402" cy="170.747" r="2.5" fill="rgb(161,161,161)" />
	<circle cx="343.971" cy="210.765" r="2.5" fill="rgb(159,159,159)" />
	<circle cx="229.941" cy="159.566" r="2.5" fill="rgb(159,159,159)" />
	<circle cx="236.175" cy="226.67" r="2.5" fill="rgb(158,158,158)" />
	<circle cx="140.699" cy="193.353" r="2.5" fill="rgb(158,158,158)" />
	<circle cx="319.737" cy="173.294" r="2.5" fill="rgb(158,158,158)" />
	<circle cx="300.362" cy="168.484" r="2.5" fill="rgb(157,157,157)" />
	<circle cx="276.541" cy="261.568" r="2.5" fill="rgb(156,156,156)" />
	<circle cx="408.699" cy="179.107" r="2.5" fill="rgb(156,156,156)" />
	<circle cx="262.229" cy="238.311" r="2.5" fill="rgb(155,155,155)" />
	<circle cx="311.792" cy="238.327" r="2.5" fill="rgb(155,155,155)" />
	<circle cx="400.563" cy="181.412" r="2.5" fill="rgb(154,154,154)" />
	<circle cx="313.34" cy="207.321" r="2.5" fill="rgb(154,154,154)" />
	<circle cx="233.824" cy="173.702" r="2.5" fill="rgb(154,154,154)" />
	<circle cx="339.643" cy="223.123" r="2.5" fill="rgb(153,153,153)" />
	<circle cx="339.339" cy="221.808" r="2.5" fill="rgb(153,153,153)" />
	<circle cx="315.934" cy="185.871" r="2.5" fill="rgb(151,151,151)" />
	<circle cx="109.868" cy="202.722" r="2.5" fill="rgb(151,151,151)" />
	<circle cx="273.516" cy="258.861" r="2.5" fill="rgb(150,150,150)" />
	<circle cx="129.223" cy="402.92" r="2.5" fill="rgb(149,149,149)" />
	<circle cx="281.111" cy="201.144" r="2.5" fill="rgb(149,149,149)" />
	<circle cx="404.185" cy="192.798" r="2.5" fill="rgb(149,149,149)" />
	<circle cx="300.504" cy="248.914" r="2.5" fill="rgb(148,148,148)" />
	<circle cx="241.915" cy="192.789" r="2.5" fill="rgb(147,147,147)" />
	<circle cx="215.201" cy="234.338" r="2.5" fill="rgb(147,147,147)" />
	<circle cx="298.439" cy="213.231" r="2.5" fill="rgb(147,147,147)" />
	<circle cx="320.444" cy="198.041" r="2.5" fill="rgb(146,146,146)" />
	<circle cx="196.393" cy="221.393" r="2.5" fill="rgb(145,145,145)" />
	<circle cx="223.476" cy="349.757" r="2.5" fill="rgb(144,144,144)" />
	<circle cx="237.457" cy="199.547" r="2.5" fill="rgb(144,144,144)" />
	<circle cx="390.196" cy="200.944" r="2.5" fill="rgb(143,143,143)" />
	<circle cx="161.357" cy="234.96" r="2.5" fill="rgb(143,143,143)" />
	<circle cx="278.422" cy="216.359" r="2.5" fill="rgb(142,142,142)" />
	<circle cx="265.007" cy="224.005" r="2.5" fill="rgb(142,142,142)" />
	<circle cx="187.902" cy="227.436" r="2.5" fill="rgb(142,142,142)" />
	<circle cx="197.746" cy="244.222" r="2.5" fill="rgb(141,141,141)" />
	<circle cx="312.998" cy="207.879" r="2.5" fill="rgb(140,140,140)" />
	<circle cx="316.754" cy="213.114" r="2.5" fill="rgb(140,140,140)" />
	<circle cx="292.099" cy="344.074" r="2.5" fill="rgb(139,139,139)" />
	<circle cx="267.247" cy="221.835" r="2.5" fill="rgb(138,138,138)" />
	<circle cx="296.01" cy="307.288" r="2.5" fill="rgb(137,137,137)" />
	<circle cx="272.913" cy="237.959" r="2.5" fill="rgb(137,137,137)" />
	<circle cx="378.305" cy="212.014" r="2.5" fill="rgb(136,136,136)" />
	<circle cx="319.364" cy="220.448" r="2.5" fill="rgb(135,135,135)" />
	<circle cx="379.159" cy="221.122" r="2.5" fill="rgb(131,131,131)" />
	<circle cx="417.049" cy="225.847" r="2.5" fill="rgb(130,130,130)" />
	<circle cx="429.328" cy="228.837" r="2.5" fill="rgb(130,130,130)" />
	<circle cx="367.892" cy="224.413" r="2.5" fill="rgb(128,128,128)" />
	<circle cx="308.925" cy="280.638" r="2.5" fill="rgb(127,127,127)" />
	<circle cx="365.943" cy="232.854" r="2.5" fill="rgb(123,123,123)" />
	<circle cx="423.858" cy="241.636" r="2.5" fill="rgb(122,122,122)" />
	<circle cx="337.712" cy="251.608" r="2.5" fill="rgb(121,121,121)" />
	<circle cx="402.591" cy="244.101" r="2.5" fill="rgb(118,118,118)" />
	<circle cx="200.509" cy="302.554" r="2.5" fill="rgb(116,116,116)" />
	<circle cx="335.328" cy="264.495" r="2.5" fill="rgb(114,114,114)" />
	<circle cx="398.489" cy="257.901" r="2.5" fill="rgb(110,110,110)" />
	<circle cx="302.683" cy="303.747" r="2.5" fill="rgb(110,110,110)" />
	<circle cx="414.749" cy="263.83" r="2.5" fill="rgb(109,109,109)" />
	<circle cx="483.614" cy="276.105" r="2.5" fill="rgb(107,107,107)" />
	<circle cx="440.633" cy="274.757" r="2.5" fill="rgb(107,107,107)" />
	<circle cx="293.914" cy="311.309" r="2.5" fill="rgb(106,106,106)" />
	<circle cx="402.592" cy="268.561" r="2.5" fill="rgb(105,105,105)" />
	<circle cx="471.228" cy="287.488" r="2.5" fill="rgb(100,100,100)" />
	<circle cx="376.656" cy="269.479" r="2.5" fill="rgb(100,100,100)" />
	<circle cx="424.127" cy="282.058" r="2.5" fill="rgb(99,99,99)" />
	<circle cx="232.083" cy="336.6" r="2.5" fill="rgb(98,98,98)" />
	<circle cx="290.36" cy="343.141" r="2.5" fill="rgb(96,96,96)" />
	<circle cx="271.469" cy="351.479" r="2.5" fill="rgb(94,94,94)" />
	<circle cx="435.357" cy="291.548" r="2.5" fill="rgb(94,94,94)" />
	<circle cx="411.463" cy="286.123" r="2.5" fill="rgb(94,94,94)" />
	<circle cx="408.488" cy="285.58" r="2.5" fill="rgb(94,94,94)" />
	<circle cx="62.8454" cy="2.87059" r="2.5" fill="rgb(94,94,94)" />
	<circle cx="206.392" cy="444.481" r="2.5" fill="rgb(93,93,93)" />
	<circle cx="392.414" cy="285.972" r="2.5" fill="rgb(92,92,92)" />
	<circle cx="279.178" cy="352.701" r="2.5" fill="rgb(91,91,91)" />
	<circle cx="76.3948" cy="8.48927" r="2.5" fill="rgb(90,90,90)" />
	<circle cx="343.258" cy="294.341" r="2.5" fill="rgb(90,90,90)" />
	<circle cx="329.672" cy="293.301" r="2.5" fill="rgb(89,89,89)" />
	<circle cx="279.025" cy="375.851" r="2.5" fill="rgb(88,88,88)" />
	<circle cx="200.523" cy="457.885" r="2.5" fill="rgb(88,88,88)" />
	<circle cx="72.7584" cy="20.981" r="2.5" fill="rgb(88,88,88)" />
	<circle cx="266.864" cy="317.697" r="2.5" fill="rgb(88,88,88)" />
	<circle cx="273.508" cy="361.775" r="2.5" fill="rgb(87,87,87)" />
	<circle cx="400.652" cy="296.873" r="2.5" fill="rgb(87,87,87)" />
	<circle cx="356.856" cy="306.169" r="2.5" fill="rgb(86,86,86)" />
	<circle cx="324.175" cy="382.131" r="2.5" fill="rgb(86,86,86)" />
	<circle cx="335.97" cy="303.255" r="2.5" fill="rgb(85,85,85)" />
	<circle cx="173.869" cy="192.209" r="2.5" fill="rgb(84,84,84)" />
	<circle cx="199.519" cy="208.623" r="2.5" fill="rgb(84,84,84)" />
	<circle cx="96.5633" cy="23.9366" r="2.5" fill="rgb(84,84,84)" />
	<circle cx="334.328" cy="334.773" r="2.5" fill="rgb(82,82,82)" />
	<circle cx="415.007" cy="306.601" r="2.5" fill="rgb(82,82,82)" />
	<circle cx="78.6709" cy="39.9231" r="2.5" fill="rgb(82,82,82)" />
	<circle cx="264.762" cy="332.266" r="2.5" fill="rgb(82,82,82)" />
	<circle cx="317.963" cy="390.764" r="2.5" fill="rgb(81,81,81)" />
	<circle cx="154.061" cy="199.419" r="2.5" fill="rgb(81,81,81)" />
	<circle cx="98.8335" cy="39.8322" r="2.5" fill="rgb(80,80,80)" />
	<circle cx="402.431" cy="309.583" r="2.5" fill="rgb(80,80,80)" />
	<circle cx="365.734" cy="320.227" r="2.5" fill="rgb(80,80,80)" />
	<circle cx="352.958" cy="354.307" r="2.5" fill="rgb(79,79,79)" />
	<circle cx="95.1774" cy="48.3727" r="2.5" fill="rgb(79,79,79)" />
	<circle cx="418.278" cy="313.801" r="2.5" fill="rgb(78,78,78)" />
	<circle cx="392.657" cy="318.722" r="2.5" fill="rgb(78,78,78)" />
	<circle cx="194.864" cy="244.321" r="2.5" fill="rgb(77,77,77)" />
	<circle cx="179.842" cy="75.9353" r="2.5" fill="rgb(77,77,77)" />
	<circle cx="57.6494" cy="66.2861" r="2.5" fill="rgb(77,77,77)" />
	<circle cx="94.5058" cy="56.1091" r="2.5" fill="rgb(77,77,77)" />
	<circle cx="117.827" cy="188.397" r="2.5" fill="rgb(77,77,77)" />
	<circle cx="314.907" cy="345.153" r="2.5" fill="rgb(76,76,76)" />
	<circle cx="139.852" cy="104.846" r="2.5" fill="rgb(76,76,76)" />
	<circle cx="209.817" cy="227.89" r="2.5" fill="rgb(76,76,76)" />
	<circle cx="43.9358" cy="76.4539" r="2.5" fill="rgb(76,76,76)" />
	<circle cx="112.279" cy="180.834" r="2.5" fill="rgb(76,76,76)" />
	<circle cx="145.703" cy="118.133" r="2.5" fill="rgb(76,76,76)" />
	<circle cx="164.465" cy="212.447" r="2.5" fill="rgb(75,75,75)" />
	<circle cx="167.667" cy="81.5676" r="2.5" fill="rgb(75,75,75)" />
	<circle cx="428.005" cy="332.343" r="2.5" fill="rgb(75,75,75)" />
	<circle cx="214.017" cy="96.4546" r="2.5" fill="rgb(74,74,74)" />
	<circle cx="110.511" cy="137.831" r="2.5" fill="rgb(74,74,74)" />
	<circle cx="115.051" cy="153.313" r="2.5" fill="rgb(74,74,74)" />
	<circle cx="60.8574" cy="77.3306" r="2.5" fill="rgb(74,74,74)" />
	<circle cx="419.04" cy="322.005" r="2.5" fill="rgb(74,74,74)" />
	<circle cx="444.03" cy="324.302" r="2.5" fill="rgb(74,74,74)" />
	<circle cx="147.627" cy="83.1184" r="2.5" fill="rgb(74,74,74)" />
	<circle cx="191.996" cy="231.384" r="2.5" fill="rgb(73,73,73)" />
	<circle cx="134.906" cy="122.154" r="2.5" fill="rgb(73,73,73)" />
	<circle cx="73.4858" cy="245.347" r="2.5" fill="rgb(73,73,73)" />
	<circle cx="52.1028" cy="86.916" r="2.5" fill="rgb(72,72,72)" />
	<circle cx="110.909" cy="219.441" r="2.5" fill="rgb(72,72,72)" />
	<circle cx="171.698" cy="228.448" r="2.5" fill="rgb(72,72,72)" />
	<circle cx="202.632" cy="102.401" r="2.5" fill="rgb(72,72,72)" />
	<circle cx="115.262" cy="175.825" r="2.5" fill="rgb(71,71,71)" />
	<circle cx="239.754" cy="231.494" r="2.5" fill="rgb(71,71,71)" />
	<circle cx="94.5389" cy="232.681" r="2.5" fill="rgb(70,70,70)" />
	<circle cx="476.063" cy="337.763" r="2.5" fill="rgb(70,70,70)" />
	<circle cx="151.947" cy="227.708" r="2.5" fill="rgb(70,70,70)" />
	<circle cx="51.0905" cy="96.7874" r="2.5" fill="rgb(70,70,70)" />
	<circle cx="169.049" cy="237.316" r="2.5" fill="rgb(69,69,69)" />
	<circle cx="233.931" cy="373.538" r="2.5" fill="rgb(69,69,69)" />
	<circle cx="189.043" cy="107.849" r="2.5" fill="rgb(69,69,69)" />
	<circle cx="435.274" cy="331.091" r="2.5" fill="rgb(69,69,69)" />
	<circle cx="196.802" cy="114.062" r="2.5" fill="rgb(69,69,69)" />
	<circle cx="250.124" cy="241.914" r="2.5" fill="rgb(69,69,69)" />
	<circle cx="129.072" cy="237.551" r="2.5" fill="rgb(69,69,69)" />
	<circle cx="428.029" cy="332.406" r="2.5" fill="rgb(68,68,68)" />
	<circle cx="346.737" cy="351.269" r="2.5" fill="rgb(68,68,68)" />
	<circle cx="475.498" cy="341.518" r="2.5" fill="rgb(68,68,68)" />
	<circle cx="163.878" cy="290.031" r="2.5" fill="rgb(68,68,68)" />
	<circle cx="55.8524" cy="342.077" r="2.5" fill="rgb(68,68,68)" />
	<circle cx="123.891" cy="242.563" r="2.5" fill="rgb(67,67,67)" />
	<circle cx="187.216" cy="118.21" r="2.5" fill="rgb(67,67,67)" />
	<circle cx="149.277" cy="238.844" r="2.5" fill="rgb(67,67,67)" />
	<circle cx="57.6938" cy="105.971" r="2.5" fill="rgb(67,67,67)" />
	<circle cx="74.0007" cy="250.963" r="2.5" fill="rgb(67,67,67)" />
	<circle cx="107.335" cy="194.848" r="2.5" fill="rgb(67,67,67)" />
	<circle cx="348.599" cy="366.132" r="2.5" fill="rgb(66,66,66)" />
	<circle cx="74.4676" cy="314.266" r="2.5" fill="rgb(66,66,66)" />
	<circle cx="244.973" cy="248.731" r="2.5" fill="rgb(66,66,66)" />
	<circle cx="83.5181" cy="105.465" r="2.5" fill="rgb(66,66,66)" />
	<circle cx="137.651" cy="297.876" r="2.5" fill="rgb(66,66,66)" />
	<circle cx="193.878" cy="130.982" r="2.5" fill="rgb(65,65,65)" />
	<circle cx="54.9429" cy="406.929" r="2.5" fill="rgb(65,65,65)" />
	<circle cx="188.964" cy="134.06" r="2.5" fill="rgb(64,64,64)" />
	<circle cx="67.7219" cy="382.153" r="2.5" fill="rgb(64,64,64)" />
	<circle cx="67.893" cy="116.683" r="2.5" fill="rgb(64,64,64)" />
	<circle cx="474.902" cy="347.768" r="2.5" fill="rgb(64,64,64)" />
	<circle cx="134.288" cy="259.39" r="2.5" fill="rgb(64,64,64)" />
	<circle cx="226.013" cy="249.73" r="2.5" fill="rgb(63,63,63)" />
	<circle cx="337.447" cy="360.403" r="2.5" fill="rgb(63,63,63)" />
	<circle cx="146.95" cy="303.501" r="2.5" fill="rgb(63,63,63)" />
	<circle cx="190.665" cy="360.592" r="2.5" fill="rgb(63,63,63)" />
	<circle cx="20.5432" cy="133.276" r="2.5" fill="rgb(63,63,63)" />
	<circle cx="433.59" cy="341.429" r="2.5" fill="rgb(63,63,63)" />
	<circle cx="436.903" cy="341.803" r="2.5" fill="rgb(63,63,63)" />
	<circle cx="69.5757" cy="134.409" r="2.5" fill="rgb(63,63,63)" />
	<circle cx="163.945" cy="357.954" r="2.5" fill="rgb(63,63,63)" />
	<circle cx="178.938" cy="140.464" r="2.5" fill="rgb(62,62,62)" />
	<circle cx="416.948" cy="341.654" r="2.5" fill="rgb(62,62,62)" />
	<circle cx="101.163" cy="200.542" r="2.5" fill="rgb(62,62,62)" />
	<circle cx="353.869" cy="375.048" r="2.5" fill="rgb(62,62,62)" />
	<circle cx="125.259" cy="123.698" r="2.5" fill="rgb(62,62,62)" />
	<circle cx="254.883" cy="266.288" r="2.5" fill="rgb(61,61,61)" />
	<circle cx="375.536" cy="353.416" r="2.5" fill="rgb(61,61,61)" />
	<circle cx="372.79" cy="356.074" r="2.5" fill="rgb(61,61,61)" />
	<circle cx="20.456" cy="141.25" r="2.5" fill="rgb(61,61,61)" />
	<circle cx="114.271" cy="293.342" r="2.5" fill="rgb(61,61,61)" />
	<circle cx="76.7152" cy="275.561" r="2.5" fill="rgb(61,61,61)" />
	<circle cx="107.529" cy="258.109" r="2.5" fill="rgb(61,61,61)" />
	<circle cx="75.7802" cy="130.951" r="2.5" fill="rgb(60,60,60)" />
	<circle cx="57.2345" cy="235.247" r="2.5" fill="rgb(60,60,60)" />
	<circle cx="102.319" cy="218.906" r="2.5" fill="rgb(60,60,60)" />
	<circle cx="102.898" cy="268.311" r="2.5" fill="rgb(60,60,60)" />
	<circle cx="219.806" cy="258.429" r="2.5" fill="rgb(60,60,60)" />
	<circle cx="112.928" cy="384.52" r="2.5" fill="rgb(60,60,60)" />
	<circle cx="164.597" cy="145.238" r="2.5" fill="rgb(60,60,60)" />
	<circle cx="117.093" cy="131.534" r="2.5" fill="rgb(60,60,60)" />
	<circle cx="119.141" cy="135.426" r="2.5" fill="rgb(59,59,59)" />
	<circle cx="167.961" cy="372.448" r="2.5" fill="rgb(59,59,59)" />
	<circle cx="137.372" cy="143.657" r="2.5" fill="rgb(58,58,58)" />
	<circle cx="98.7283" cy="140.507" r="2.5" fill="rgb(58,58,58)" />
	<circle cx="28.7737" cy="151.517" r="2.5" fill="rgb(58,58,58)" />
	<circle cx="41.7342" cy="148.625" r="2.5" fill="rgb(58,58,58)" />
	<circle cx="256.39" cy="278.502" r="2.5" fill="rgb(58,58,58)" />
	<circle cx="431.035" cy="350.326" r="2.5" fill="rgb(58,58,58)" />
	<circle cx="70.4023" cy="399.617" r="2.5" fill="rgb(58,58,58)" />
	<circle cx="168.687" cy="273.114" r="2.5" fill="rgb(57,57,57)" />
	<circle cx="179.06" cy="291.957" r="2.5" fill="rgb(57,57,57)" />
	<circle cx="105.695" cy="400.023" r="2.5" fill="rgb(57,57,57)" />
	<circle cx="217.394" cy="268.565" r="2.5" fill="rgb(57,57,57)" />
	<circle cx="135.032" cy="150.827" r="2.5" fill="rgb(57,57,57)" />
	<circle cx="99.6273" cy="257.654" r="2.5" fill="rgb(57,57,57)" />
	<circle cx="59.841" cy="355.156" r="2.5" fill="rgb(57,57,57)" />
	<circle cx="39.6145" cy="156.341" r="2.5" fill="rgb(56,56,56)" />
	<circle cx="148.935" cy="382.246" r="2.5" fill="rgb(56,56,56)" />
	<circle cx="186.555" cy="351.159" r="2.5" fill="rgb(56,56,56)" />
	<circle cx="249.81" cy="358.181" r="2.5" fill="rgb(55,55,55)" />
	<circle cx="249.811" cy="358.159" r="2.5" fill="rgb(55,55,55)" />
	<circle cx="121.207" cy="156.391" r="2.5" fill="rgb(55,55,55)" />
	<circle cx="70.8094" cy="314.642" r="2.5" fill="rgb(55,55,55)" />
	<circle cx="146.133" cy="305.003" r="2.5" fill="rgb(55,55,55)" />
	<circle cx="232.661" cy="280.594" r="2.5" fill="rgb(54,54,54)" />
	<circle cx="96.0694" cy="273.686" r="2.5" fill="rgb(54,54,54)" />
	<circle cx="430.157" cy="417.405" r="2.5" fill="rgb(54,54,54)" />
	<circle cx="71.1246" cy="161.622" r="2.5" fill="rgb(54,54,54)" />
	<circle cx="171.452" cy="305.728" r="2.5" fill="rgb(54,54,54)" />
	<circle cx="37.772" cy="371.174" r="2.5" fill="rgb(54,54,54)" />
	<circle cx="154.221" cy="392.853" r="2.5" fill="rgb(53,53,53)" />
	<circle cx="187.306" cy="360.903" r="2.5" fill="rgb(53,53,53)" />
	<circle cx="139.353" cy="300.868" r="2.5" fill="rgb(53,53,53)" />
	<circle cx="472.385" cy="416.027" r="2.5" fill="rgb(53,53,53)" />
	<circle cx="70.368" cy="336.161" r="2.5" fill="rgb(52,52,52)" />
	<circle cx="74.2723" cy="168.043" r="2.5" fill="rgb(52,52,52)" />
	<circle cx="99.9159" cy="170.708" r="2.5" fill="rgb(52,52,52)" />
	<circle cx="78.5376" cy="170.113" r="2.5" fill="rgb(51,51,51)" />
	<circle cx="339.334" cy="328.616" r="2.5" fill="rgb(51,51,51)" />
	<circle cx="414.288" cy="462.12" r="2.5" fill="rgb(51,51,51)" />
	<circle cx="65.8566" cy="298.82" r="2.5" fill="rgb(51,51,51)" />
	<circle cx="140.885" cy="308.15" r="2.5" fill="rgb(50,50,50)" />
	<circle cx="131.728" cy="322.488" r="2.5" fill="rgb(50,50,50)" />
	<circle cx="64.6524" cy="176.342" r="2.5" fill="rgb(50,50,50)" />
	<circle cx="120.967" cy="183.854" r="2.5" fill="rgb(50,50,50)" />
	<circle cx="267.57" cy="300.228" r="2.5" fill="rgb(50,50,50)" />
	<circle cx="129.655" cy="300.439" r="2.5" fill="rgb(50,50,50)" />
	<circle cx="66.5608" cy="179.824" r="2.5" fill="rgb(49,49,49)" />
	<circle cx="216.847" cy="294.02" r="2.5" fill="rgb(49,49,49)" />
	<circle cx="97.546" cy="487.264" r="2.5" fill="rgb(49,49,49)" />
	<circle cx="105.477" cy="349.904" r="2.5" fill="rgb(49,49,49)" />
	<circle cx="114.861" cy="292.543" r="2.5" fill="rgb(49,49,49)" />
	<circle cx="352.75" cy="466.813" r="2.5" fill="rgb(49,49,49)" />
	<circle cx="112.356" cy="191.272" r="2.5" fill="rgb(48,48,48)" />
	<circle cx="475.122" cy="424.732" r="2.5" fill="rgb(47,47,47)" />
	<circle cx="121.834" cy="298.946" r="2.5" fill="rgb(47,47,47)" />
	<circle cx="46.0669" cy="386.764" r="2.5" fill="rgb(47,47,47)" />
	<circle cx="328.746" cy="423.636" r="2.5" fill="rgb(47,47,47)" />
	<circle cx="110.099" cy="361.794" r="2.5" fill="rgb(47,47,47)" />
	<circle cx="272.087" cy="419.587" r="2.5" fill="rgb(47,47,47)" />
	<circle cx="89.2849" cy="194.488" r="2.5" fill="rgb(46,46,46)" />
	<circle cx="347.14" cy="408.784" r="2.5" fill="rgb(46,46,46)" />
	<circle cx="44.1577" cy="316.089" r="2.5" fill="rgb(46,46,46)" />
	<circle cx="218.502" cy="303.095" r="2.5" fill="rgb(46,46,46)" />
	<circle cx="252.288" cy="309.943" r="2.5" fill="rgb(45,45,45)" />
	<circle cx="464.277" cy="428.106" r="2.5" fill="rgb(45,45,45)" />
	<circle cx="5.62972" cy="194.097" r="2.5" fill="rgb(45,45,45)" />
	<circle cx="32.5976" cy="289.095" r="2.5" fill="rgb(45,45,45)" />
	<circle cx="466.196" cy="429.415" r="2.5" fill="rgb(44,44,44)" />
	<circle cx="165.714" cy="480.07" r="2.5" fill="rgb(44,44,44)" />
	<circle cx="184.789" cy="317.486" r="2.5" fill="rgb(43,43,43)" />
	<circle cx="456.047" cy="455.369" r="2.5" fill="rgb(43,43,43)" />
	<circle cx="193.095" cy="312.437" r="2.5" fill="rgb(43,43,43)" />
	<circle cx="331.652" cy="413.907" r="2.5" fill="rgb(43,43,43)" />
	<circle cx="22.2785" cy="200.715" r="2.5" fill="rgb(43,43,43)" />
	<circle cx="354.641" cy="479.547" r="2.5" fill="rgb(43,43,43)" />
	<circle cx="392.333" cy="413.59" r="2.5" fill="rgb(43,43,43)" />
	<circle cx="402.885" cy="413.938" r="2.5" fill="rgb(43,43,43)" />
	<circle cx="22.7886" cy="203.885" r="2.5" fill="rgb(42,42,42)" />
	<circle cx="14.5026" cy="205.762" r="2.5" fill="rgb(42,42,42)" />
	<circle cx="242.656" cy="319.861" r="2.5" fill="rgb(42,42,42)" />
	<circle cx="15.3027" cy="289.607" r="2.5" fill="rgb(41,41,41)" />
	<circle cx="389.304" cy="416.268" r="2.5" fill="rgb(41,41,41)" />
	<circle cx="456.434" cy="435.482" r="2.5" fill="rgb(41,41,41)" />
	<circle cx="220.205" cy="319.717" r="2.5" fill="rgb(41,41,41)" />
	<circle cx="64.6054" cy="213.514" r="2.5" fill="rgb(41,41,41)" />
	<circle cx="230.006" cy="467.381" r="2.5" fill="rgb(40,40,40)" />
	<circle cx="4.34329" cy="423.871" r="2.5" fill="rgb(40,40,40)" />
	<circle cx="149.084" cy="381.588" r="2.5" fill="rgb(40,40,40)" />
	<circle cx="216.317" cy="322.568" r="2.5" fill="rgb(40,40,40)" />
	<circle cx="24.6316" cy="405.679" r="2.5" fill="rgb(40,40,40)" />
	<circle cx="395.184" cy="468.874" r="2.5" fill="rgb(39,39,39)" />
	<circle cx="11.9426" cy="215.393" r="2.5" fill="rgb(39,39,39)" />
	<circle cx="96.5625" cy="388.854" r="2.5" fill="rgb(39,39,39)" />
	<circle cx="259.329" cy="448.462" r="2.5" fill="rgb(39,39,39)" />
	<circle cx="85.0406" cy="408.829" r="2.5" fill="rgb(39,39,39)" />
	<circle cx="181.8" cy="336.345" r="2.5" fill="rgb(39,39,39)" />
	<circle cx="33.0886" cy="216.637" r="2.5" fill="rgb(39,39,39)" />
	<circle cx="17.742" cy="358.942" r="2.5" fill="rgb(39,39,39)" />
	<circle cx="356.209" cy="420.683" r="2.5" fill="rgb(39,39,39)" />
	<circle cx="251.092" cy="333.069" r="2.5" fill="rgb(38,38,38)" />
	<circle cx="50.5959" cy="474.49" r="2.5" fill="rgb(38,38,38)" />
	<circle cx="324.171" cy="425.759" r="2.5" fill="rgb(38,38,38)" />
	<circle cx="65.263" cy="332.542" r="2.5" fill="rgb(38,38,38)" />
	<circle cx="210.898" cy="496.69" r="2.5" fill="rgb(37,37,37)" />
	<circle cx="215.745" cy="331.575" r="2.5" fill="rgb(37,37,37)" />
	<circle cx="139.684" cy="395.553" r="2.5" fill="rgb(37,37,37)" />
	<circle cx="138.642" cy="389.068" r="2.5" fill="rgb(37,37,37)" />
	<circle cx="99.7348" cy="494.454" r="2.5" fill="rgb(37,37,37)" />
	<circle cx="388.852" cy="425.746" r="2.5" fill="rgb(37,37,37)" />
	<circle cx="231.379" cy="479.615" r="2.5" fill="rgb(36,36,36)" />
	<circle cx="235.131" cy="461.497" r="2.5" fill="rgb(36,36,36)" />
	<circle cx="456.701" cy="467.823" r="2.5" fill="rgb(36,36,36)" />
	<circle cx="437.716" cy="467.41" r="2.5" fill="rgb(36,36,36)" />
	<circle cx="343.692" cy="495.028" r="2.5" fill="rgb(36,36,36)" />
	<circle cx="89.9635" cy="235.561" r="2.5" fill="rgb(36,36,36)" />
	<circle cx="43.3119" cy="231.059" r="2.5" fill="rgb(35,35,35)" />
	<circle cx="181.537" cy="349.958" r="2.5" fill="rgb(35,35,35)" />
	<circle cx="382.967" cy="479.125" r="2.5" fill="rgb(35,35,35)" />
	<circle cx="73.5037" cy="237.424" r="2.5" fill="rgb(35,35,35)" />
	<circle cx="19.4422" cy="339.451" r="2.5" fill="rgb(34,34,34)" />
	<circle cx="63.4515" cy="237.72" r="2.5" fill="rgb(34,34,34)" />
	<circle cx="205.891" cy="463.598" r="2.5" fill="rgb(34,34,34)" />
	<circle cx="258.415" cy="463.641" r="2.5" fill="rgb(34,34,34)" />
	<circle cx="56.5949" cy="239.125" r="2.5" fill="rgb(34,34,34)" />
	<circle cx="132.177" cy="499.866" r="2.5" fill="rgb(33,33,33)" />
	<circle cx="235.887" cy="347.725" r="2.5" fill="rgb(33,33,33)" />
	<circle cx="363.783" cy="433.177" r="2.5" fill="rgb(33,33,33)" />
	<circle cx="366.894" cy="433.139" r="2.5" fill="rgb(33,33,33)" />
	<circle cx="310.538" cy="440.29" r="2.5" fill="rgb(33,33,33)" />
	<circle cx="300.632" cy="443.473" r="2.5" fill="rgb(33,33,33)" />
	<circle cx="296.237" cy="445.183" r="2.5" fill="rgb(33,33,33)" />
	<circle cx="283.496" cy="455.322" r="2.5" fill="rgb(32,32,32)" />
	<circle cx="57.9433" cy="367.274" r="2.5" fill="rgb(32,32,32)" />
	<circle cx="151.159" cy="434.645" r="2.5" fill="rgb(32,32,32)" />
	<circle cx="66.0338" cy="250.021" r="2.5" fill="rgb(32,32,32)" />
	<circle cx="325.352" cy="440.697" r="2.5" fill="rgb(31,31,31)" />
	<circle cx="245.123" cy="471.689" r="2.5" fill="rgb(31,31,31)" />
	<circle cx="242.385" cy="355.543" r="2.5" fill="rgb(31,31,31)" />
	<circle cx="424.031" cy="478.475" r="2.5" fill="rgb(30,30,30)" />
	<circle cx="244.475" cy="474.611" r="2.5" fill="rgb(30,30,30)" />
	<circle cx="192.456" cy="477.743" r="2.5" fill="rgb(30,30,30)" />
	<circle cx="100.139" cy="424.739" r="2.5" fill="rgb(30,30,30)" />
	<circle cx="199.94" cy="352.033" r="2.5" fill="rgb(30,30,30)" />
	<circle cx="61.497" cy="259.358" r="2.5" fill="rgb(29,29,29)" />
	<circle cx="71.8094" cy="262.071" r="2.5" fill="rgb(29,29,29)" />
	<circle cx="31.7073" cy="256.348" r="2.5" fill="rgb(29,29,29)" />
	<circle cx="183.199" cy="355.545" r="2.5" fill="rgb(29,29,29)" />
	<circle cx="117.797" cy="430.59" r="2.5" fill="rgb(29,29,29)" />
	<circle cx="348.304" cy="440.897" r="2.5" fill="rgb(29,29,29)" />
	<circle cx="216.595" cy="359.037" r="2.5" fill="rgb(29,29,29)" />
	<circle cx="237.158" cy="361.873" r="2.5" fill="rgb(29,29,29)" />
	<circle cx="265.939" cy="365.776" r="2.5" fill="rgb(28,28,28)" />
	<circle cx="57.5143" cy="460.006" r="2.5" fill="rgb(28,28,28)" />
	<circle cx="330.363" cy="443.262" r="2.5" fill="rgb(28,28,28)" />
	<circle cx="173.124" cy="490.545" r="2.5" fill="rgb(27,27,27)" />
	<circle cx="361.128" cy="445.961" r="2.5" fill="rgb(27,27,27)" />
	<circle cx="282.639" cy="475.114" r="2.5" fill="rgb(27,27,27)" />
	<circle cx="283.751" cy="471.517" r="2.5" fill="rgb(27,27,27)" />
	<circle cx="146.897" cy="387.677" r="2.5" fill="rgb(26,26,26)" />
	<circle cx="23.4104" cy="410.874" r="2.5" fill="rgb(26,26,26)" />
	<circle cx="53.1706" cy="274.431" r="2.5" fill="rgb(26,26,26)" />
	<circle cx="263.343" cy="373.843" r="2.5" fill="rgb(26,26,26)" />
	<circle cx="114.377" cy="446.576" r="2.5" fill="rgb(26,26,26)" />
	<circle cx="207.47" cy="369.517" r="2.5" fill="rgb(25,25,25)" />
	<circle cx="222.405" cy="370.347" r="2.5" fill="rgb(25,25,25)" />
	<circle cx="153.679" cy="392.439" r="2.5" fill="rgb(25,25,25)" />
	<circle cx="108.226" cy="449.504" r="2.5" fill="rgb(25,25,25)" />
	<circle cx="192.44" cy="496.832" r="2.5" fill="rgb(25,25,25)" />
	<circle cx="147.238" cy="396.084" r="2.5" fill="rgb(24,24,24)" />
	<circle cx="132.299" cy="452.799" r="2.5" fill="rgb(24,24,24)" />
	<circle cx="37.5732" cy="359.491" r="2.5" fill="rgb(24,24,24)" />
	<circle cx="340.572" cy="452.771" r="2.5" fill="rgb(24,24,24)" />
	<circle cx="119.973" cy="457.43" r="2.5" fill="rgb(23,23,23)" />
	<circle cx="223.674" cy="486.505" r="2.5" fill="rgb(23,23,23)" />
	<circle cx="74.4105" cy="294.578" r="2.5" fill="rgb(23,23,23)" />
	<circle cx="146.494" cy="404.529" r="2.5" fill="rgb(23,23,23)" />
	<circle cx="161.671" cy="405.327" r="2.5" fill="rgb(23,23,23)" />
	<circle cx="13.1766" cy="444.596" r="2.5" fill="rgb(22,22,22)" />
	<circle cx="66.65" cy="299.571" r="2.5" fill="rgb(21,21,21)" />
	<circle cx="115.484" cy="469.03" r="2.5" fill="rgb(21,21,21)" />
	<circle cx="221.184" cy="384.665" r="2.5" fill="rgb(21,21,21)" />
	<circle cx="235.326" cy="385.569" r="2.5" fill="rgb(21,21,21)" />
	<circle cx="24.0686" cy="378.987" r="2.5" fill="rgb(21,21,21)" />
	<circle cx="73.8917" cy="305.597" r="2.5" fill="rgb(20,20,20)" />
	<circle cx="21.5955" cy="381.388" r="2.5" fill="rgb(20,20,20)" />
	<circle cx="3.03016" cy="496.833" r="2.5" fill="rgb(20,20,20)" />
	<circle cx="150.246" cy="417.116" r="2.5" fill="rgb(20,20,20)" />
	<circle cx="291.554" cy="456.482" r="2.5" fill="rgb(20,20,20)" />
	<circle cx="244.908" cy="392.922" r="2.5" fill="rgb(20,20,20)" />
	<circle cx="234.413" cy="390.823" r="2.5" fill="rgb(19,19,19)" />
	<circle cx="42.5118" cy="352.447" r="2.5" fill="rgb(19,19,19)" />
	<circle cx="67.5263" cy="311.154" r="2.5" fill="rgb(19,19,19)" />
	<circle cx="168.554" cy="430.273" r="2.5" fill="rgb(19,19,19)" />
	<circle cx="11.6735" cy="394.529" r="2.5" fill="rgb(19,19,19)" />
	<circle cx="43.5979" cy="393.713" r="2.5" fill="rgb(18,18,18)" />
	<circle cx="47.5518" cy="483.95" r="2.5" fill="rgb(18,18,18)" />
	<circle cx="81.8945" cy="378.251" r="2.5" fill="rgb(18,18,18)" />
	<circle cx="1.11255" cy="423.914" r="2.5" fill="rgb(17,17,17)" />
	<circle cx="102.123" cy="325.726" r="2.5" fill="rgb(17,17,17)" />
	<circle cx="21.7189" cy="408.963" r="2.5" fill="rgb(17,17,17)" />
	<circle cx="226.914" cy="400.978" r="2.5" fill="rgb(16,16,16)" />
	<circle cx="69.3998" cy="327.875" r="2.5" fill="rgb(16,16,16)" />
	<circle cx="240.719" cy="404.855" r="2.5" fill="rgb(16,16,16)" />
	<circle cx="202.845" cy="401.438" r="2.5" fill="rgb(16,16,16)" />
	<circle cx="119.569" cy="448.764" r="2.5" fill="rgb(15,15,15)" />
	<circle cx="195.281" cy="405.469" r="2.5" fill="rgb(15,15,15)" />
	<circle cx="130.016" cy="445.534" r="2.5" fill="rgb(15,15,15)" />
	<circle cx="67.6788" cy="396.507" r="2.5" fill="rgb(14,14,14)" />
	<circle cx="88.348" cy="340.968" r="2.5" fill="rgb(14,14,14)" />
	<circle cx="72.8701" cy="401.821" r="2.5" fill="rgb(14,14,14)" />
	<circle cx="66.2495" cy="404.109" r="2.5" fill="rgb(13,13,13)" />
	<circle cx="63.3773" cy="428.613" r="2.5" fill="rgb(13,13,13)" />
	<circle cx="60.9604" cy="409.352" r="2.5" fill="rgb(12,12,12)" />
	<circle cx="68.8748" cy="401.009" r="2.5" fill="rgb(12,12,12)" />
	<circle cx="49.9512" cy="351.602" r="2.5" fill="rgb(12,12,12)" />
	<circle cx="10.9538" cy="368.286" r="2.5" fill="rgb(12,12,12)" />
	<circle cx="20.1882" cy="370.07" r="2.5" fill="rgb(12,12,12)" />
	<circle cx="4.84402" cy="465.731" r="2.5" fill="rgb(12,12,12)" />
	<circle cx="34.7304" cy="388.783" r="2.5" fill="rgb(12,12,12)" />
	<circle cx="69.8974" cy="414.405" r="2.5" fill="rgb(12,12,12)" />
	<circle cx="88.1535" cy="434.666" r="2.5" fill="rgb(11,11,11)" />
	<circle cx="207.903" cy="418.179" r="2.5" fill="rgb(11,11,11)" />
	<circle cx="7.54509" cy="397.065" r="2.5" fill="rgb(11,11,11)" />
	<circle cx="0.712858" cy="413.801" r="2.5" fill="rgb(10,10,10)" />
	<circle cx="123.688" cy="362.731" r="2.5" fill="rgb(10,10,10)" />
	<circle cx="48.3053" cy="444.165" r="2.5" fill="rgb(10,10,10)" />
	<circle cx="6.27628" cy="382.166" r="2.5" fill="rgb(10,10,10)" />
	<circle cx="19.7953" cy="412.31" r="2.5" fill="rgb(10,10,10)" />
	<circle cx="25.9825" cy="473.568" r="2.5" fill="rgb(10,10,10)" />
	<circle cx="30.5636" cy="405.336" r="2.5" fill="rgb(9,9,9)" />
	<circle cx="32.0297" cy="422.205" r="2.5" fill="rgb(9,9,9)" />
	<circle cx="67.9224" cy="429.747" r="2.5" fill="rgb(9,9,9)" />
	<circle cx="63.443" cy="373.046" r="2.5" fill="rgb(9,9,9)" />
	<circle cx="87.4744" cy="433.545" r="2.5" fill="rgb(8,8,8)" />
	<circle cx="3.96738" cy="397.017" r="2.5" fill="rgb(8,8,8)" />
	<circle cx="10.1507" cy="434.464" r="2.5" fill="rgb(7,7,7)" />
	<circle cx="109.026" cy="378.495" r="2.5" fill="rgb(7,7,7)" />
	<circle cx="82.5417" cy="380.011" r="2.5" fill="rgb(6,6,6)" />
	<circle cx="56.0986" cy="387.606" r="2.5" fill="rgb(6,6,6)" />
	<circle cx="80.4638" cy="450.938" r="2.5" fill="rgb(6,6,6)" />
	<circle cx="27.5384" cy="453.75" r="2.5" fill="rgb(4,4,4)" />
	<circle cx="8.67347" cy="461.048" r="2.5" fill="rgb(4,4,4)" />
	<circle cx="101.51" cy="393.986" r="2.5" fill="rgb(4,4,4)" />
	<circle cx="103.765" cy="394.337" r="2.5" fill="rgb(4,4,4)" />
	<circle cx="18.6451" cy="414.872" r="2.5" fill="rgb(3,3,3)" />
	<circle cx="26.9277" cy="470.294" r="2.5" fill="rgb(2,2,2)" />
	<circle cx="83.3333" cy="416.667" r="2" fill="rgb(255,0,0)" />
	<circle cx="416.667" cy="83.3333" r="2" fill="rgb(0,255,0)" />
	<circle cx="83.3333" cy="416.667" r="2" fill="rgb(0,255,0)" />
	<circle cx="38.4664" cy="399.442" r="2" fill="rgb(0,255,0)" />
	<circle cx="45.9189" cy="378.431" r="2" fill="rgb(0,255,0)" />
	<circle cx="58.4065" cy="357.106" r="2" fill="rgb(0,255,0)" />
	<circle cx="53.2801" cy="343.934" r="2" fill="rgb(0,255,0)" />
	<circle cx="69.3087" cy="323.297" r="2" fill="rgb(0,255,0)" />
	<circle cx="83.0213" cy="310.568" r="2" fill="rgb(0,255,0)" />
	<circle cx="76.6567" cy="286.991" r="2" fill="rgb(0,255,0)" />
	<circle cx="101.826" cy="285.326" r="2" fill="rgb(0,255,0)" />
	<circle cx="113.275" cy="271.402" r="2" fill="rgb(0,255,0)" />
	<circle cx="99.7934" cy="256.297" r="2" fill="rgb(0,255,0)" />
	<circle cx="89.3606" cy="233.833" r="2" fill="rgb(0,255,0)" />
	<circle cx="96.9322" cy="225.634" r="2" fill="rgb(0,255,0)" />
	<circle cx="141.524" cy="222.171" r="2" fill="rgb(0,255,0)" />
	<circle cx="184.994" cy="224.953" r="2" fill="rgb(0,255,0)" />
	<circle cx="216.775" cy="229.997" r="2" fill="rgb(0,255,0)" />
	<circle cx="235.039" cy="221.469" r="2" fill="rgb(0,255,0)" />
	<circle cx="238.911" cy="214.244" r="2" fill="rgb(0,255,0)" />
	<circle cx="265.813" cy="212.955" r="2" fill="rgb(0,255,0)" />
	<circle cx="277.645" cy="206.24" r="2" fill="rgb(0,255,0)" />
	<circle cx="301.908" cy="201.926" r="2" fill="rgb(0,255,0)" />
	<circle cx="335.524" cy="205.282" r="2" fill="rgb(0,255,0)" />
	<circle cx="344.125" cy="200.375" r="2" fill="rgb(0,255,0)" />
	<circle cx="356.817" cy="190.392" r="2" fill="rgb(0,255,0)" />
	<circle cx="359.764" cy="180.512" r="2" fill="rgb(0,255,0)" />
	<circle cx="394.186" cy="175.864" r="2" fill="rgb(0,255,0)" />
	<circle cx="390.941" cy="159.64" r="2" fill="rgb(0,255,0)" />
	<circle cx="391.327" cy="145.199" r="2" fill="rgb(0,255,0)" />
	<circle cx="379.39" cy="134.684" r="2" fill="rgb(0,255,0)" />
	<circle cx="376.78" cy="121.468" r="2" fill="rgb(0,255,0)" />
	<circle cx="413.399" cy="107.547" r="2" fill="rgb(0,255,0)" />
	<circle cx="410.738" cy="93.1648" r="2" fill="rgb(0,255,0)" />
	<circle cx="416.131" cy="80.5327" r="2" fill="rgb(0,255,0)" />
</svg>
