<?xml version="1.0" standalone="no" ?>
<!DOCTYPE svg PUBLIC "-//W3C//DTD SVG 1.1//EN" "http://www.w3.org/Graphics/SVG/1.1/DTD/svg11.dtd">
<svg width="500px" height="500px" xmlns="http://www.w3.org/2000/svg" version="1.1" >
	<polyline points="83.3333,416.667 0.979879,463.817 " fill="transparent" stroke-width="0.5" stroke="rgb(0,0,255)" />
	<polyline points="83.3333,416.667 88.8182,397.348 " fill="transparent" stroke-width="0.5" stroke="rgb(0,0,255)" />
	<polyline points="83.3333,416.667 6.87481,410.605 " fill="transparent" stroke-width="0.5" stroke="rgb(0,0,255)" />
	<polyline points="83.3333,416.667 108.244,400.164 " fill="transparent" stroke-width="0.5" stroke="rgb(0,0,255)" />
	<polyline points="108.244,400.164 108.657,377.179 " fill="transparent" stroke-width="0.5" stroke="rgb(0,0,255)" />
	<polyline points="108.244,400.164 121.714,381.061 " fill="transparent" stroke-width="0.5" stroke="rgb(0,0,255)" />
	<polyline points="108.244,400.164 174.737,409.313 " fill="transparent" stroke-width="0.5" stroke="rgb(0,0,255)" />
	<polyline points="174.737,409.313 136.591,402.537 " fill="transparent" stroke-width="0.5" stroke="rgb(0,0,255)" />
	<polyline points="174.737,409.313 107.824,432.88 " fill="transparent" stroke-width="0.5" stroke="rgb(0,0,255)" />
	<polyline points="174.737,409.313 179.618,389.793 " fill="transparent" stroke-width="0.5" stroke="rgb(0,0,255)" />
	<polyline points="174.737,409.313 182.053,389.988 " fill="transparent" stroke-width="0.5" stroke="rgb(0,0,255)" />
	<polyline points="174.737,409.313 75.8951,461.449 " fill="transparent" stroke-width="0.5" stroke="rgb(0,0,255)" />
	<polyline points="75.8951,461.449 65.2878,442.802 " fill="transparent" stroke-width="0.5" stroke="rgb(0,0,255)" />
	<polyline points="174.737,409.313 223.108,397.12 " fill="transparent" stroke-width="0.5" stroke="rgb(0,0,255)" />
	<polyline points="223.108,397.12 231.546,383.451 " fill="transparent" stroke-width="0.5" stroke="rgb(0,0,255)" />
	<polyline points="231.546,383.451 239.16,371.882 " fill="transparent" stroke-width="0.5" stroke="rgb(0,0,255)" />
	<polyline points="223.108,397.12 121.997,425.47 " fill="transparent" stroke-width="0.5" stroke="rgb(0,0,255)" />
	<polyline points="223.108,397.12 109.048,446.972 " fill="transparent" stroke-width="0.5" stroke="rgb(0,0,255)" />
	<polyline points="223.108,397.12 248.228,392.127 " fill="transparent" stroke-width="0.5" stroke="rgb(0,0,255)" />
	<polyline points="223.108,397.12 291.983,442.894 " fill="transparent" stroke-width="0.5" stroke="rgb(0,0,255)" />
	<polyline points="291.983,442.894 358.129,443.942 " fill="transparent" stroke-width="0.5" stroke="rgb(0,0,255)" />
	<polyline points="358.129,443.942 287.219,480.509 " fill="transparent" stroke-width="0.5" stroke="rgb(0,0,255)" />
	<polyline points="358.129,443.942 415.647,438.46 " fill="transparent" stroke-width="0.5" stroke="rgb(0,0,255)" />
	<polyline points="415.647,438.46 391.265,432.818 " fill="transparent" stroke-width="0.5" stroke="rgb(0,0,255)" />
	<polyline points="415.647,438.46 425.032,430.658 " fill="transparent" stroke-width="0.5" stroke="rgb(0,0,255)" />
	<polyline points="425.032,430.658 442.744,418.216 " fill="transparent" stroke-width="0.5" stroke="rgb(0,0,255)" />
	<polyline points="442.744,418.216 350.914,437.569 " fill="transparent" stroke-width="0.5" stroke="rgb(0,0,255)" />
	<polyline points="442.744,418.216 321.619,460.518 " fill="transparent" stroke-width="0.5" stroke="rgb(0,0,255)" />
	<polyline points="415.647,438.46 432.065,426.92 " fill="transparent" stroke-width="0.5" stroke="rgb(0,0,255)" />
	<polyline points="432.065,426.92 334.529,472.59 " fill="transparent" stroke-width="0.5" stroke="rgb(0,0,255)" />
	<polyline points="432.065,426.92 335.086,462.688 " fill="transparent" stroke-width="0.5" stroke="rgb(0,0,255)" />
	<polyline points="358.129,443.942 258.207,472.521 " fill="transparent" stroke-width="0.5" stroke="rgb(0,0,255)" />
	<polyline points="358.129,443.942 473.471,494.256 " fill="transparent" stroke-width="0.5" stroke="rgb(0,0,255)" />
	<polyline points="473.471,494.256 452.209,484.058 " fill="transparent" stroke-width="0.5" stroke="rgb(0,0,255)" />
	<polyline points="452.209,484.058 458.401,470.959 " fill="transparent" stroke-width="0.5" stroke="rgb(0,0,255)" />
	<polyline points="458.401,470.959 459.642,460.884 " fill="transparent" stroke-width="0.5" stroke="rgb(0,0,255)" />
	<polyline points="473.471,494.256 437.928,493.372 " fill="transparent" stroke-width="0.5" stroke="rgb(0,0,255)" />
	<polyline points="437.928,493.372 445.388,482.427 " fill="transparent" stroke-width="0.5" stroke="rgb(0,0,255)" />
	<polyline points="445.388,482.427 436.26,475.663 " fill="transparent" stroke-width="0.5" stroke="rgb(0,0,255)" />
	<polyline points="358.129,443.942 266.423,475.424 " fill="transparent" stroke-width="0.5" stroke="rgb(0,0,255)" />
	<polyline points="266.423,475.424 260.162,462.812 " fill="transparent" stroke-width="0.5" stroke="rgb(0,0,255)" />
	<polyline points="358.129,443.942 290.541,462.969 " fill="transparent" stroke-width="0.5" stroke="rgb(0,0,255)" />
	<polyline points="290.541,462.969 205.46,472.818 " fill="transparent" stroke-width="0.5" stroke="rgb(0,0,255)" />
	<polyline points="205.46,472.818 214.58,461.104 " fill="transparent" stroke-width="0.5" stroke="rgb(0,0,255)" />
	<polyline points="291.983,442.894 311.604,428.974 " fill="transparent" stroke-width="0.5" stroke="rgb(0,0,255)" />
	<polyline points="311.604,428.974 241.17,458.181 " fill="transparent" stroke-width="0.5" stroke="rgb(0,0,255)" />
	<polyline points="311.604,428.974 214.606,451.349 " fill="transparent" stroke-width="0.5" stroke="rgb(0,0,255)" />
	<polyline points="311.604,428.974 298.663,418.768 " fill="transparent" stroke-width="0.5" stroke="rgb(0,0,255)" />
	<polyline points="311.604,428.974 241.163,465.168 " fill="transparent" stroke-width="0.5" stroke="rgb(0,0,255)" />
	<polyline points="311.604,428.974 252.532,458.301 " fill="transparent" stroke-width="0.5" stroke="rgb(0,0,255)" />
	<polyline points="252.532,458.301 195.75,468.745 " fill="transparent" stroke-width="0.5" stroke="rgb(0,0,255)" />
	<polyline points="195.75,468.745 196.397,449.725 " fill="transparent" stroke-width="0.5" stroke="rgb(0,0,255)" />
	<polyline points="196.397,449.725 143.279,488.067 " fill="transparent" stroke-width="0.5" stroke="rgb(0,0,255)" />
	<polyline points="195.75,468.745 149.538,458.913 " fill="transparent" stroke-width="0.5" stroke="rgb(0,0,255)" />
	<polyline points="195.75,468.745 225.527,451.636 " fill="transparent" stroke-width="0.5" stroke="rgb(0,0,255)" />
	<polyline points="225.527,451.636 231.436,437.163 " fill="transparent" stroke-width="0.5" stroke="rgb(0,0,255)" />
	<polyline points="311.604,428.974 261.342,435.945 " fill="transparent" stroke-width="0.5" stroke="rgb(0,0,255)" />
	<polyline points="174.737,409.313 107.922,447.366 " fill="transparent" stroke-width="0.5" stroke="rgb(0,0,255)" />
	<polyline points="174.737,409.313 88.6747,467.32 " fill="transparent" stroke-width="0.5" stroke="rgb(0,0,255)" />
	<polyline points="88.6747,467.32 111.326,443.116 " fill="transparent" stroke-width="0.5" stroke="rgb(0,0,255)" />
	<polyline points="174.737,409.313 118.128,433.664 " fill="transparent" stroke-width="0.5" stroke="rgb(0,0,255)" />
	<polyline points="118.128,433.664 25.6445,450.16 " fill="transparent" stroke-width="0.5" stroke="rgb(0,0,255)" />
	<polyline points="118.128,433.664 161.436,428.213 " fill="transparent" stroke-width="0.5" stroke="rgb(0,0,255)" />
	<polyline points="161.436,428.213 128.47,421.002 " fill="transparent" stroke-width="0.5" stroke="rgb(0,0,255)" />
	<polyline points="118.128,433.664 15.5134,491.596 " fill="transparent" stroke-width="0.5" stroke="rgb(0,0,255)" />
	<polyline points="15.5134,491.596 47.934,463.661 " fill="transparent" stroke-width="0.5" stroke="rgb(0,0,255)" />
	<polyline points="83.3333,416.667 55.8631,398.597 " fill="transparent" stroke-width="0.5" stroke="rgb(0,0,255)" />
	<polyline points="55.8631,398.597 14.3812,384.892 " fill="transparent" stroke-width="0.5" stroke="rgb(0,0,255)" />
	<polyline points="55.8631,398.597 75.8392,375.67 " fill="transparent" stroke-width="0.5" stroke="rgb(0,0,255)" />
	<polyline points="75.8392,375.67 80.9485,354.423 " fill="transparent" stroke-width="0.5" stroke="rgb(0,0,255)" />
	<polyline points="80.9485,354.423 82.7025,342.784 " fill="transparent" stroke-width="0.5" stroke="rgb(0,0,255)" />
	<polyline points="55.8631,398.597 69.8174,377.047 " fill="transparent" stroke-width="0.5" stroke="rgb(0,0,255)" />
	<polyline points="69.8174,377.047 74.0796,352.89 " fill="transparent" stroke-width="0.5" stroke="rgb(0,0,255)" />
	<polyline points="74.0796,352.89 17.5883,383.715 " fill="transparent" stroke-width="0.5" stroke="rgb(0,0,255)" />
	<polyline points="74.0796,352.89 70.212,328.26 " fill="transparent" stroke-width="0.5" stroke="rgb(0,0,255)" />
	<polyline points="70.212,328.26 20.7614,305.895 " fill="transparent" stroke-width="0.5" stroke="rgb(0,0,255)" />
	<polyline points="20.7614,305.895 38.064,430.433 " fill="transparent" stroke-width="0.5" stroke="rgb(0,0,255)" />
	<polyline points="20.7614,305.895 26.9177,289.076 " fill="transparent" stroke-width="0.5" stroke="rgb(0,0,255)" />
	<polyline points="20.7614,305.895 32.4985,285.839 " fill="transparent" stroke-width="0.5" stroke="rgb(0,0,255)" />
	<polyline points="70.212,328.26 0.623168,392.446 " fill="transparent" stroke-width="0.5" stroke="rgb(0,0,255)" />
	<polyline points="0.623168,392.446 13.1706,367.731 " fill="transparent" stroke-width="0.5" stroke="rgb(0,0,255)" />
	<polyline points="70.212,328.26 11.2136,353.634 " fill="transparent" stroke-width="0.5" stroke="rgb(0,0,255)" />
	<polyline points="11.2136,353.634 9.46345,339.97 " fill="transparent" stroke-width="0.5" stroke="rgb(0,0,255)" />
	<polyline points="70.212,328.26 90.8015,310.397 " fill="transparent" stroke-width="0.5" stroke="rgb(0,0,255)" />
	<polyline points="90.8015,310.397 122.32,298.088 " fill="transparent" stroke-width="0.5" stroke="rgb(0,0,255)" />
	<polyline points="122.32,298.088 160.367,301.81 " fill="transparent" stroke-width="0.5" stroke="rgb(0,0,255)" />
	<polyline points="90.8015,310.397 90.5126,299.158 " fill="transparent" stroke-width="0.5" stroke="rgb(0,0,255)" />
	<polyline points="90.5126,299.158 104.9,287.838 " fill="transparent" stroke-width="0.5" stroke="rgb(0,0,255)" />
	<polyline points="104.9,287.838 103.488,274.631 " fill="transparent" stroke-width="0.5" stroke="rgb(0,0,255)" />
	<polyline points="103.488,274.631 97.0837,256.384 " fill="transparent" stroke-width="0.5" stroke="rgb(0,0,255)" />
	<polyline points="97.0837,256.384 103.598,243.575 " fill="transparent" stroke-width="0.5" stroke="rgb(0,0,255)" />
	<polyline points="103.598,243.575 107.102,228.194 " fill="transparent" stroke-width="0.5" stroke="rgb(0,0,255)" />
	<polyline points="107.102,228.194 128.802,223.643 " fill="transparent" stroke-width="0.5" stroke="rgb(0,0,255)" />
	<polyline points="107.102,228.194 80.4497,207.469 " fill="transparent" stroke-width="0.5" stroke="rgb(0,0,255)" />
	<polyline points="80.4497,207.469 56.5611,292.259 " fill="transparent" stroke-width="0.5" stroke="rgb(0,0,255)" />
	<polyline points="80.4497,207.469 48.712,191.953 " fill="transparent" stroke-width="0.5" stroke="rgb(0,0,255)" />
	<polyline points="48.712,191.953 103.924,255.121 " fill="transparent" stroke-width="0.5" stroke="rgb(0,0,255)" />
	<polyline points="48.712,191.953 86.9245,269.931 " fill="transparent" stroke-width="0.5" stroke="rgb(0,0,255)" />
	<polyline points="48.712,191.953 114.958,300.939 " fill="transparent" stroke-width="0.5" stroke="rgb(0,0,255)" />
	<polyline points="48.712,191.953 54.8786,175.267 " fill="transparent" stroke-width="0.5" stroke="rgb(0,0,255)" />
	<polyline points="54.8786,175.267 36.1913,168.584 " fill="transparent" stroke-width="0.5" stroke="rgb(0,0,255)" />
	<polyline points="36.1913,168.584 9.07149,160.552 " fill="transparent" stroke-width="0.5" stroke="rgb(0,0,255)" />
	<polyline points="36.1913,168.584 36.7104,161.029 " fill="transparent" stroke-width="0.5" stroke="rgb(0,0,255)" />
	<polyline points="36.7104,161.029 34.9983,149.666 " fill="transparent" stroke-width="0.5" stroke="rgb(0,0,255)" />
	<polyline points="34.9983,149.666 42.1337,138.287 " fill="transparent" stroke-width="0.5" stroke="rgb(0,0,255)" />
	<polyline points="34.9983,149.666 87.9747,199.01 " fill="transparent" stroke-width="0.5" stroke="rgb(0,0,255)" />
	<polyline points="34.9983,149.666 120.767,264.089 " fill="transparent" stroke-width="0.5" stroke="rgb(0,0,255)" />
	<polyline points="34.9983,149.666 101.282,279.509 " fill="transparent" stroke-width="0.5" stroke="rgb(0,0,255)" />
	<polyline points="36.7104,161.029 107.064,199.829 " fill="transparent" stroke-width="0.5" stroke="rgb(0,0,255)" />
	<polyline points="107.064,199.829 129.464,283.515 " fill="transparent" stroke-width="0.5" stroke="rgb(0,0,255)" />
	<polyline points="129.464,283.515 32.5749,330.502 " fill="transparent" stroke-width="0.5" stroke="rgb(0,0,255)" />
	<polyline points="129.464,283.515 122.463,269.358 " fill="transparent" stroke-width="0.5" stroke="rgb(0,0,255)" />
	<polyline points="129.464,283.515 135.743,272.78 " fill="transparent" stroke-width="0.5" stroke="rgb(0,0,255)" />
	<polyline points="135.743,272.78 143.197,258.554 " fill="transparent" stroke-width="0.5" stroke="rgb(0,0,255)" />
	<polyline points="135.743,272.78 52.1148,348.459 " fill="transparent" stroke-width="0.5" stroke="rgb(0,0,255)" />
	<polyline points="36.1913,168.584 106.566,200.44 " fill="transparent" stroke-width="0.5" stroke="rgb(0,0,255)" />
	<polyline points="106.566,200.44 69.5197,326.68 " fill="transparent" stroke-width="0.5" stroke="rgb(0,0,255)" />
	<polyline points="54.8786,175.267 78.1866,260.542 " fill="transparent" stroke-width="0.5" stroke="rgb(0,0,255)" />
	<polyline points="80.4497,207.469 129.103,209.393 " fill="transparent" stroke-width="0.5" stroke="rgb(0,0,255)" />
	<polyline points="129.103,209.393 139.523,196.907 " fill="transparent" stroke-width="0.5" stroke="rgb(0,0,255)" />
	<polyline points="139.523,196.907 83.1593,184.055 " fill="transparent" stroke-width="0.5" stroke="rgb(0,0,255)" />
	<polyline points="83.1593,184.055 90.2451,170.354 " fill="transparent" stroke-width="0.5" stroke="rgb(0,0,255)" />
	<polyline points="83.1593,184.055 146.136,255.608 " fill="transparent" stroke-width="0.5" stroke="rgb(0,0,255)" />
	<polyline points="83.1593,184.055 92.4894,168.806 " fill="transparent" stroke-width="0.5" stroke="rgb(0,0,255)" />
	<polyline points="92.4894,168.806 97.5913,154.975 " fill="transparent" stroke-width="0.5" stroke="rgb(0,0,255)" />
	<polyline points="139.523,196.907 153.706,192.616 " fill="transparent" stroke-width="0.5" stroke="rgb(0,0,255)" />
	<polyline points="139.523,196.907 170.012,338.62 " fill="transparent" stroke-width="0.5" stroke="rgb(0,0,255)" />
	<polyline points="80.4497,207.469 75.9387,280.796 " fill="transparent" stroke-width="0.5" stroke="rgb(0,0,255)" />
	<polyline points="75.9387,280.796 9.92532,331.017 " fill="transparent" stroke-width="0.5" stroke="rgb(0,0,255)" />
	<polyline points="80.4497,207.469 161.055,228.995 " fill="transparent" stroke-width="0.5" stroke="rgb(0,0,255)" />
	<polyline points="161.055,228.995 85.7124,353.317 " fill="transparent" stroke-width="0.5" stroke="rgb(0,0,255)" />
	<polyline points="161.055,228.995 185.332,228.284 " fill="transparent" stroke-width="0.5" stroke="rgb(0,0,255)" />
	<polyline points="103.488,274.631 42.3191,333.158 " fill="transparent" stroke-width="0.5" stroke="rgb(0,0,255)" />
	<polyline points="42.3191,333.158 5.44299,437.522 " fill="transparent" stroke-width="0.5" stroke="rgb(0,0,255)" />
	<polyline points="5.44299,437.522 43.0393,418.961 " fill="transparent" stroke-width="0.5" stroke="rgb(0,0,255)" />
	<polyline points="104.9,287.838 156.965,305.001 " fill="transparent" stroke-width="0.5" stroke="rgb(0,0,255)" />
	<polyline points="156.965,305.001 147.767,286.719 " fill="transparent" stroke-width="0.5" stroke="rgb(0,0,255)" />
	<polyline points="156.965,305.001 146.804,284.444 " fill="transparent" stroke-width="0.5" stroke="rgb(0,0,255)" />
	<polyline points="156.965,305.001 193.624,299.577 " fill="transparent" stroke-width="0.5" stroke="rgb(0,0,255)" />
	<polyline points="193.624,299.577 261.581,312.42 " fill="transparent" stroke-width="0.5" stroke="rgb(0,0,255)" />
	<polyline points="261.581,312.42 264.442,301.342 " fill="transparent" stroke-width="0.5" stroke="rgb(0,0,255)" />
	<polyline points="261.581,312.42 283.687,301.322 " fill="transparent" stroke-width="0.5" stroke="rgb(0,0,255)" />
	<polyline points="283.687,301.322 291.237,295.094 " fill="transparent" stroke-width="0.5" stroke="rgb(0,0,255)" />
	<polyline points="283.687,301.322 324.308,309.333 " fill="transparent" stroke-width="0.5" stroke="rgb(0,0,255)" />
	<polyline points="324.308,309.333 332.478,300.439 " fill="transparent" stroke-width="0.5" stroke="rgb(0,0,255)" />
	<polyline points="283.687,301.322 289.162,288.135 " fill="transparent" stroke-width="0.5" stroke="rgb(0,0,255)" />
	<polyline points="289.162,288.135 298.639,274.661 " fill="transparent" stroke-width="0.5" stroke="rgb(0,0,255)" />
	<polyline points="298.639,274.661 298.44,266.768 " fill="transparent" stroke-width="0.5" stroke="rgb(0,0,255)" />
	<polyline points="298.639,274.661 312.354,267.563 " fill="transparent" stroke-width="0.5" stroke="rgb(0,0,255)" />
	<polyline points="312.354,267.563 198.394,326.318 " fill="transparent" stroke-width="0.5" stroke="rgb(0,0,255)" />
	<polyline points="312.354,267.563 318.386,261.484 " fill="transparent" stroke-width="0.5" stroke="rgb(0,0,255)" />
	<polyline points="318.386,261.484 311.894,249.242 " fill="transparent" stroke-width="0.5" stroke="rgb(0,0,255)" />
	<polyline points="311.894,249.242 319.891,236.166 " fill="transparent" stroke-width="0.5" stroke="rgb(0,0,255)" />
	<polyline points="319.891,236.166 300.56,224.371 " fill="transparent" stroke-width="0.5" stroke="rgb(0,0,255)" />
	<polyline points="300.56,224.371 307.852,212.729 " fill="transparent" stroke-width="0.5" stroke="rgb(0,0,255)" />
	<polyline points="307.852,212.729 270.682,186.456 " fill="transparent" stroke-width="0.5" stroke="rgb(0,0,255)" />
	<polyline points="270.682,186.456 268.776,175.794 " fill="transparent" stroke-width="0.5" stroke="rgb(0,0,255)" />
	<polyline points="268.776,175.794 273.021,169.484 " fill="transparent" stroke-width="0.5" stroke="rgb(0,0,255)" />
	<polyline points="273.021,169.484 281.153,165.156 " fill="transparent" stroke-width="0.5" stroke="rgb(0,0,255)" />
	<polyline points="270.682,186.456 188.09,201.49 " fill="transparent" stroke-width="0.5" stroke="rgb(0,0,255)" />
	<polyline points="270.682,186.456 248.915,170.972 " fill="transparent" stroke-width="0.5" stroke="rgb(0,0,255)" />
	<polyline points="248.915,170.972 255.562,162.298 " fill="transparent" stroke-width="0.5" stroke="rgb(0,0,255)" />
	<polyline points="248.915,170.972 235.601,153.143 " fill="transparent" stroke-width="0.5" stroke="rgb(0,0,255)" />
	<polyline points="248.915,170.972 250.393,161.419 " fill="transparent" stroke-width="0.5" stroke="rgb(0,0,255)" />
	<polyline points="248.915,170.972 234.827,147.354 " fill="transparent" stroke-width="0.5" stroke="rgb(0,0,255)" />
	<polyline points="234.827,147.354 232.362,128.478 " fill="transparent" stroke-width="0.5" stroke="rgb(0,0,255)" />
	<polyline points="232.362,128.478 236.969,120.566 " fill="transparent" stroke-width="0.5" stroke="rgb(0,0,255)" />
	<polyline points="236.969,120.566 231.317,101.601 " fill="transparent" stroke-width="0.5" stroke="rgb(0,0,255)" />
	<polyline points="231.317,101.601 237.607,93.2291 " fill="transparent" stroke-width="0.5" stroke="rgb(0,0,255)" />
	<polyline points="237.607,93.2291 248.871,84.9855 " fill="transparent" stroke-width="0.5" stroke="rgb(0,0,255)" />
	<polyline points="231.317,101.601 148.143,64.8922 " fill="transparent" stroke-width="0.5" stroke="rgb(0,0,255)" />
	<polyline points="148.143,64.8922 146.188,53.8084 " fill="transparent" stroke-width="0.5" stroke="rgb(0,0,255)" />
	<polyline points="236.969,120.566 154.71,81.8815 " fill="transparent" stroke-width="0.5" stroke="rgb(0,0,255)" />
	<polyline points="154.71,81.8815 99.5634,81.5366 " fill="transparent" stroke-width="0.5" stroke="rgb(0,0,255)" />
	<polyline points="99.5634,81.5366 163.446,130.74 " fill="transparent" stroke-width="0.5" stroke="rgb(0,0,255)" />
	<polyline points="99.5634,81.5366 146.267,135.697 " fill="transparent" stroke-width="0.5" stroke="rgb(0,0,255)" />
	<polyline points="146.267,135.697 201.396,213.556 " fill="transparent" stroke-width="0.5" stroke="rgb(0,0,255)" />
	<polyline points="99.5634,81.5366 126.214,66.0728 " fill="transparent" stroke-width="0.5" stroke="rgb(0,0,255)" />
	<polyline points="126.214,66.0728 141.186,138.533 " fill="transparent" stroke-width="0.5" stroke="rgb(0,0,255)" />
	<polyline points="236.969,120.566 154.163,86.9912 " fill="transparent" stroke-width="0.5" stroke="rgb(0,0,255)" />
	<polyline points="248.915,170.972 196.578,244.132 " fill="transparent" stroke-width="0.5" stroke="rgb(0,0,255)" />
	<polyline points="307.852,212.729 199.244,242.03 " fill="transparent" stroke-width="0.5" stroke="rgb(0,0,255)" />
	<polyline points="199.244,242.03 139.291,239.671 " fill="transparent" stroke-width="0.5" stroke="rgb(0,0,255)" />
	<polyline points="139.291,239.671 82.3367,357.342 " fill="transparent" stroke-width="0.5" stroke="rgb(0,0,255)" />
	<polyline points="300.56,224.371 232.66,240.539 " fill="transparent" stroke-width="0.5" stroke="rgb(0,0,255)" />
	<polyline points="232.66,240.539 235.121,225.573 " fill="transparent" stroke-width="0.5" stroke="rgb(0,0,255)" />
	<polyline points="232.66,240.539 227.988,230.179 " fill="transparent" stroke-width="0.5" stroke="rgb(0,0,255)" />
	<polyline points="319.891,236.166 346.545,234.545 " fill="transparent" stroke-width="0.5" stroke="rgb(0,0,255)" />
	<polyline points="346.545,234.545 239.262,255.705 " fill="transparent" stroke-width="0.5" stroke="rgb(0,0,255)" />
	<polyline points="346.545,234.545 342.457,221.616 " fill="transparent" stroke-width="0.5" stroke="rgb(0,0,255)" />
	<polyline points="346.545,234.545 355.41,221.92 " fill="transparent" stroke-width="0.5" stroke="rgb(0,0,255)" />
	<polyline points="355.41,221.92 336.188,205.903 " fill="transparent" stroke-width="0.5" stroke="rgb(0,0,255)" />
	<polyline points="336.188,205.903 332.786,197.403 " fill="transparent" stroke-width="0.5" stroke="rgb(0,0,255)" />
	<polyline points="332.786,197.403 324.145,181.196 " fill="transparent" stroke-width="0.5" stroke="rgb(0,0,255)" />
	<polyline points="324.145,181.196 318.167,171.672 " fill="transparent" stroke-width="0.5" stroke="rgb(0,0,255)" />
	<polyline points="318.167,171.672 316.359,161.774 " fill="transparent" stroke-width="0.5" stroke="rgb(0,0,255)" />
	<polyline points="332.786,197.403 392.044,203.867 " fill="transparent" stroke-width="0.5" stroke="rgb(0,0,255)" />
	<polyline points="392.044,203.867 358.702,194.321 " fill="transparent" stroke-width="0.5" stroke="rgb(0,0,255)" />
	<polyline points="392.044,203.867 290.979,262.295 " fill="transparent" stroke-width="0.5" stroke="rgb(0,0,255)" />
	<polyline points="392.044,203.867 287.763,253.256 " fill="transparent" stroke-width="0.5" stroke="rgb(0,0,255)" />
	<polyline points="392.044,203.867 410.535,198.41 " fill="transparent" stroke-width="0.5" stroke="rgb(0,0,255)" />
	<polyline points="410.535,198.41 408.421,188.762 " fill="transparent" stroke-width="0.5" stroke="rgb(0,0,255)" />
	<polyline points="408.421,188.762 400.248,178.58 " fill="transparent" stroke-width="0.5" stroke="rgb(0,0,255)" />
	<polyline points="400.248,178.58 388.727,163.194 " fill="transparent" stroke-width="0.5" stroke="rgb(0,0,255)" />
	<polyline points="388.727,163.194 289.071,224.871 " fill="transparent" stroke-width="0.5" stroke="rgb(0,0,255)" />
	<polyline points="388.727,163.194 256.063,217.945 " fill="transparent" stroke-width="0.5" stroke="rgb(0,0,255)" />
	<polyline points="388.727,163.194 424.928,153.567 " fill="transparent" stroke-width="0.5" stroke="rgb(0,0,255)" />
	<polyline points="424.928,153.567 422.463,139.551 " fill="transparent" stroke-width="0.5" stroke="rgb(0,0,255)" />
	<polyline points="422.463,139.551 395.049,208.901 " fill="transparent" stroke-width="0.5" stroke="rgb(0,0,255)" />
	<polyline points="424.928,153.567 397.599,271.108 " fill="transparent" stroke-width="0.5" stroke="rgb(0,0,255)" />
	<polyline points="424.928,153.567 437.978,273.211 " fill="transparent" stroke-width="0.5" stroke="rgb(0,0,255)" />
	<polyline points="424.928,153.567 471.869,245.751 " fill="transparent" stroke-width="0.5" stroke="rgb(0,0,255)" />
	<polyline points="408.421,188.762 302.435,221.976 " fill="transparent" stroke-width="0.5" stroke="rgb(0,0,255)" />
	<polyline points="410.535,198.41 345.934,227.711 " fill="transparent" stroke-width="0.5" stroke="rgb(0,0,255)" />
	<polyline points="392.044,203.867 448.04,214.788 " fill="transparent" stroke-width="0.5" stroke="rgb(0,0,255)" />
	<polyline points="448.04,214.788 443.336,199.839 " fill="transparent" stroke-width="0.5" stroke="rgb(0,0,255)" />
	<polyline points="443.336,199.839 475.372,184.894 " fill="transparent" stroke-width="0.5" stroke="rgb(0,0,255)" />
	<polyline points="443.336,199.839 356.538,249.04 " fill="transparent" stroke-width="0.5" stroke="rgb(0,0,255)" />
	<polyline points="355.41,221.92 221.009,263.697 " fill="transparent" stroke-width="0.5" stroke="rgb(0,0,255)" />
	<polyline points="355.41,221.92 303.04,214.062 " fill="transparent" stroke-width="0.5" stroke="rgb(0,0,255)" />
	<polyline points="318.386,261.484 385.938,273.846 " fill="transparent" stroke-width="0.5" stroke="rgb(0,0,255)" />
	<polyline points="385.938,273.846 380.028,259.937 " fill="transparent" stroke-width="0.5" stroke="rgb(0,0,255)" />
	<polyline points="385.938,273.846 427.597,271.123 " fill="transparent" stroke-width="0.5" stroke="rgb(0,0,255)" />
	<polyline points="427.597,271.123 362.527,299.713 " fill="transparent" stroke-width="0.5" stroke="rgb(0,0,255)" />
	<polyline points="385.938,273.846 439.098,280.48 " fill="transparent" stroke-width="0.5" stroke="rgb(0,0,255)" />
	<polyline points="439.098,280.48 433.884,269.958 " fill="transparent" stroke-width="0.5" stroke="rgb(0,0,255)" />
	<polyline points="439.098,280.48 350.539,279.747 " fill="transparent" stroke-width="0.5" stroke="rgb(0,0,255)" />
	<polyline points="439.098,280.48 441.639,272.324 " fill="transparent" stroke-width="0.5" stroke="rgb(0,0,255)" />
	<polyline points="385.938,273.846 390.928,267.644 " fill="transparent" stroke-width="0.5" stroke="rgb(0,0,255)" />
	<polyline points="385.938,273.846 254.841,303.17 " fill="transparent" stroke-width="0.5" stroke="rgb(0,0,255)" />
	<polyline points="254.841,303.17 165.573,326.038 " fill="transparent" stroke-width="0.5" stroke="rgb(0,0,255)" />
	<polyline points="298.639,274.661 241.045,271.76 " fill="transparent" stroke-width="0.5" stroke="rgb(0,0,255)" />
	<polyline points="289.162,288.135 233.088,285.148 " fill="transparent" stroke-width="0.5" stroke="rgb(0,0,255)" />
	<polyline points="233.088,285.148 240.046,274.837 " fill="transparent" stroke-width="0.5" stroke="rgb(0,0,255)" />
	<polyline points="233.088,285.148 162.531,284.795 " fill="transparent" stroke-width="0.5" stroke="rgb(0,0,255)" />
	<polyline points="261.581,312.42 153.262,375.94 " fill="transparent" stroke-width="0.5" stroke="rgb(0,0,255)" />
	<polyline points="153.262,375.94 72.2358,380.611 " fill="transparent" stroke-width="0.5" stroke="rgb(0,0,255)" />
	<polyline points="153.262,375.94 85.21,392.614 " fill="transparent" stroke-width="0.5" stroke="rgb(0,0,255)" />
	<polyline points="261.581,312.42 177.519,299.559 " fill="transparent" stroke-width="0.5" stroke="rgb(0,0,255)" />
	<polyline points="156.965,305.001 86.4726,348.115 " fill="transparent" stroke-width="0.5" stroke="rgb(0,0,255)" />
	<polyline points="90.5126,299.158 12.6522,378.025 " fill="transparent" stroke-width="0.5" stroke="rgb(0,0,255)" />
	<polyline points="90.5126,299.158 4.28806,366.233 " fill="transparent" stroke-width="0.5" stroke="rgb(0,0,255)" />
	<polyline points="4.28806,366.233 7.30918,434.502 " fill="transparent" stroke-width="0.5" stroke="rgb(0,0,255)" />
	<polyline points="90.5126,299.158 18.3331,288.565 " fill="transparent" stroke-width="0.5" stroke="rgb(0,0,255)" />
	<polyline points="90.5126,299.158 19.871,282.613 " fill="transparent" stroke-width="0.5" stroke="rgb(0,0,255)" />
	<polyline points="19.871,282.613 27.3593,269.295 " fill="transparent" stroke-width="0.5" stroke="rgb(0,0,255)" />
	<polyline points="27.3593,269.295 24.2496,249.463 " fill="transparent" stroke-width="0.5" stroke="rgb(0,0,255)" />
	<polyline points="24.2496,249.463 26.2235,364.66 " fill="transparent" stroke-width="0.5" stroke="rgb(0,0,255)" />
	<polyline points="27.3593,269.295 34.1601,256.28 " fill="transparent" stroke-width="0.5" stroke="rgb(0,0,255)" />
	<polyline points="34.1601,256.28 34.2913,399.013 " fill="transparent" stroke-width="0.5" stroke="rgb(0,0,255)" />
	<polyline points="19.871,282.613 80.6502,317.638 " fill="transparent" stroke-width="0.5" stroke="rgb(0,0,255)" />
	<polyline points="80.6502,317.638 95.4687,301.067 " fill="transparent" stroke-width="0.5" stroke="rgb(0,0,255)" />
	<polyline points="19.871,282.613 23.0392,381.97 " fill="transparent" stroke-width="0.5" stroke="rgb(0,0,255)" />
	<polyline points="90.5126,299.158 18.9485,364.485 " fill="transparent" stroke-width="0.5" stroke="rgb(0,0,255)" />
	<polyline points="18.9485,364.485 24.226,460.891 " fill="transparent" stroke-width="0.5" stroke="rgb(0,0,255)" />
	<polyline points="24.226,460.891 46.4408,448.034 " fill="transparent" stroke-width="0.5" stroke="rgb(0,0,255)" />
	<polyline points="46.4408,448.034 79.3121,423.576 " fill="transparent" stroke-width="0.5" stroke="rgb(0,0,255)" />
	<polyline points="90.8015,310.397 35.659,424.502 " fill="transparent" stroke-width="0.5" stroke="rgb(0,0,255)" />
	<polyline points="35.659,424.502 40.2606,399.575 " fill="transparent" stroke-width="0.5" stroke="rgb(0,0,255)" />
	<polyline points="74.0796,352.89 16.8673,409.986 " fill="transparent" stroke-width="0.5" stroke="rgb(0,0,255)" />
	<polyline points="69.8174,377.047 22.3026,423.487 " fill="transparent" stroke-width="0.5" stroke="rgb(0,0,255)" />
	<polyline points="22.3026,423.487 19.4142,492.577 " fill="transparent" stroke-width="0.5" stroke="rgb(0,0,255)" />
	<polyline points="19.4142,492.577 34.8297,475.628 " fill="transparent" stroke-width="0.5" stroke="rgb(0,0,255)" />
	<polyline points="22.3026,423.487 45.0506,403.102 " fill="transparent" stroke-width="0.5" stroke="rgb(0,0,255)" />
	<circle cx="83.3333" cy="416.667" r="2" fill="rgb(255,0,0)" />
	<circle cx="416.667" cy="83.3333" r="2" fill="rgb(0,255,0)" />
	<polyline points="83.3333,416.667 114.248,396.309 134.24,376.499 125.499,358.365 100.629,341.389 99.8796,325.341 18.5433,307.744 36.2518,291.281 24.5918,272.885 29.1383,253.583 26.3998,234.828 22.5969,222.576 66.4122,215.386 118.469,242.577 143.433,233.102 178.633,228.147 184.437,213.011 231.322,218.515 232.227,201.208 265.709,206.747 293.205,212.367 310.699,206.407 326.331,204.596 328.192,192.959 340.393,183.177 345.302,170.899 366.135,161.565 367.455,147.864 381.195,143.059 404.889,133.115 384.102,121.949 384.971,110.408 413.349,92.7975 415.621,82.6772 " fill="transparent" stroke-width="3" stroke="rgb(0,0,0)" />
</svg>
