<?xml version="1.0" standalone="no" ?>
<!DOCTYPE svg PUBLIC "-//W3C//DTD SVG 1.1//EN" "http://www.w3.org/Graphics/SVG/1.1/DTD/svg11.dtd">
<svg width="500px" height="500px" xmlns="http://www.w3.org/2000/svg" version="1.1" >
	<circle cx="84.2463" cy="299.921" r="2.5" fill="rgb(255,255,255)" />
	<circle cx="115.244" cy="186.859" r="2.5" fill="rgb(245,245,245)" />
	<circle cx="180.939" cy="213.275" r="2.5" fill="rgb(238,238,238)" />
	<circle cx="85.366" cy="210.78" r="2.5" fill="rgb(232,232,232)" />
	<circle cx="157.925" cy="211.882" r="2.5" fill="rgb(228,228,228)" />
	<circle cx="96.8282" cy="224.032" r="2.5" fill="rgb(221,221,221)" />
	<circle cx="61.6311" cy="277.395" r="2.5" fill="rgb(220,220,220)" />
	<circle cx="152.633" cy="221.884" r="2.5" fill="rgb(217,217,217)" />
	<circle cx="305.73" cy="327.893" r="2.5" fill="rgb(216,216,216)" />
	<circle cx="17.7171" cy="388.659" r="2.5" fill="rgb(214,214,214)" />
	<circle cx="52.2099" cy="305.763" r="2.5" fill="rgb(211,211,211)" />
	<circle cx="58.8369" cy="324.972" r="2.5" fill="rgb(211,211,211)" />
	<circle cx="87.8329" cy="343.939" r="2.5" fill="rgb(209,209,209)" />
	<circle cx="111.722" cy="346.668" r="2.5" fill="rgb(208,208,208)" />
	<circle cx="92.9626" cy="328.311" r="2.5" fill="rgb(207,207,207)" />
	<circle cx="75.2113" cy="287.405" r="2.5" fill="rgb(207,207,207)" />
	<circle cx="371.117" cy="305.92" r="2.5" fill="rgb(206,206,206)" />
	<circle cx="102.676" cy="288.985" r="2.5" fill="rgb(204,204,204)" />
	<circle cx="101.878" cy="286.427" r="2.5" fill="rgb(204,204,204)" />
	<circle cx="19.5638" cy="418.136" r="2.5" fill="rgb(202,202,202)" />
	<circle cx="189.624" cy="245.425" r="2.5" fill="rgb(202,202,202)" />
	<circle cx="26.5267" cy="260.393" r="2.5" fill="rgb(201,201,201)" />
	<circle cx="277.617" cy="338.301" r="2.5" fill="rgb(201,201,201)" />
	<circle cx="4.13554" cy="371.78" r="2.5" fill="rgb(198,198,198)" />
	<circle cx="306.114" cy="324.706" r="2.5" fill="rgb(197,197,197)" />
	<circle cx="177.194" cy="250.275" r="2.5" fill="rgb(193,193,193)" />
	<circle cx="339.915" cy="385.831" r="2.5" fill="rgb(189,189,189)" />
	<circle cx="37.8148" cy="277.865" r="2.5" fill="rgb(187,187,187)" />
	<circle cx="367.163" cy="318.097" r="2.5" fill="rgb(186,186,186)" />
	<circle cx="174.203" cy="259.069" r="2.5" fill="rgb(183,183,183)" />
	<circle cx="306.122" cy="393.378" r="2.5" fill="rgb(181,181,181)" />
	<circle cx="93.4606" cy="303.052" r="2.5" fill="rgb(181,181,181)" />
	<circle cx="282.166" cy="449.661" r="2.5" fill="rgb(179,179,179)" />
	<circle cx="308.547" cy="396.245" r="2.5" fill="rgb(179,179,179)" />
	<circle cx="48.6454" cy="292.278" r="2.5" fill="rgb(177,177,177)" />
	<circle cx="189.388" cy="360.989" r="2.5" fill="rgb(175,175,175)" />
	<circle cx="186.898" cy="322.208" r="2.5" fill="rgb(175,175,175)" />
	<circle cx="28.3446" cy="414.933" r="2.5" fill="rgb(175,175,175)" />
	<circle cx="308.006" cy="443.855" r="2.5" fill="rgb(174,174,174)" />
	<circle cx="214.04" cy="299.525" r="2.5" fill="rgb(174,174,174)" />
	<circle cx="238.232" cy="379.735" r="2.5" fill="rgb(172,172,172)" />
	<circle cx="210.151" cy="327.603" r="2.5" fill="rgb(172,172,172)" />
	<circle cx="214.924" cy="310.533" r="2.5" fill="rgb(172,172,172)" />
	<circle cx="39.5958" cy="389.753" r="2.5" fill="rgb(172,172,172)" />
	<circle cx="336.268" cy="395.915" r="2.5" fill="rgb(172,172,172)" />
	<circle cx="168.941" cy="271.219" r="2.5" fill="rgb(170,170,170)" />
	<circle cx="344.061" cy="326.804" r="2.5" fill="rgb(166,166,166)" />
	<circle cx="200.604" cy="347.231" r="2.5" fill="rgb(164,164,164)" />
	<circle cx="87.2415" cy="346.023" r="2.5" fill="rgb(162,162,162)" />
	<circle cx="81.085" cy="315.936" r="2.5" fill="rgb(162,162,162)" />
	<circle cx="287.497" cy="305.33" r="2.5" fill="rgb(161,161,161)" />
	<circle cx="219.415" cy="352.697" r="2.5" fill="rgb(161,161,161)" />
	<circle cx="250.212" cy="331.367" r="2.5" fill="rgb(159,159,159)" />
	<circle cx="378.956" cy="396.866" r="2.5" fill="rgb(159,159,159)" />
	<circle cx="173.603" cy="284.228" r="2.5" fill="rgb(159,159,159)" />
	<circle cx="241.387" cy="355.003" r="2.5" fill="rgb(157,157,157)" />
	<circle cx="275.07" cy="310.426" r="2.5" fill="rgb(152,152,152)" />
	<circle cx="168.754" cy="292.775" r="2.5" fill="rgb(149,149,149)" />
	<circle cx="246.988" cy="497.337" r="2.5" fill="rgb(149,149,149)" />
	<circle cx="353.506" cy="495.679" r="2.5" fill="rgb(147,147,147)" />
	<circle cx="177.463" cy="334.85" r="2.5" fill="rgb(145,145,145)" />
	<circle cx="316.744" cy="336.692" r="2.5" fill="rgb(145,145,145)" />
	<circle cx="24.1522" cy="312.904" r="2.5" fill="rgb(141,141,141)" />
	<circle cx="168.505" cy="308.64" r="2.5" fill="rgb(134,134,134)" />
	<circle cx="261.837" cy="324.241" r="2.5" fill="rgb(133,133,133)" />
	<circle cx="313.891" cy="482.276" r="2.5" fill="rgb(131,131,131)" />
	<circle cx="298.981" cy="494.39" r="2.5" fill="rgb(131,131,131)" />
	<circle cx="19.4074" cy="331.569" r="2.5" fill="rgb(130,130,130)" />
	<circle cx="436.279" cy="463.341" r="2.5" fill="rgb(127,127,127)" />
	<circle cx="213.615" cy="322.317" r="2.5" fill="rgb(127,127,127)" />
	<circle cx="9.13502" cy="422.933" r="2.5" fill="rgb(124,124,124)" />
	<circle cx="166.253" cy="320.15" r="2.5" fill="rgb(123,123,123)" />
	<circle cx="453.507" cy="464.142" r="2.5" fill="rgb(122,122,122)" />
	<circle cx="56.4812" cy="345.625" r="2.5" fill="rgb(118,118,118)" />
	<circle cx="13.4902" cy="354.137" r="2.5" fill="rgb(117,117,117)" />
	<circle cx="112.624" cy="416.494" r="2.5" fill="rgb(116,116,116)" />
	<circle cx="239.615" cy="334.884" r="2.5" fill="rgb(115,115,115)" />
	<circle cx="55.4801" cy="360.591" r="2.5" fill="rgb(110,110,110)" />
	<circle cx="399.007" cy="473.007" r="2.5" fill="rgb(104,104,104)" />
	<circle cx="154.892" cy="338.091" r="2.5" fill="rgb(104,104,104)" />
	<circle cx="455.905" cy="472.773" r="2.5" fill="rgb(102,102,102)" />
	<circle cx="58.6742" cy="376.306" r="2.5" fill="rgb(101,101,101)" />
	<circle cx="229.172" cy="348.99" r="2.5" fill="rgb(98,98,98)" />
	<circle cx="246.143" cy="412.824" r="2.5" fill="rgb(95,95,95)" />
	<circle cx="179.169" cy="348.876" r="2.5" fill="rgb(94,94,94)" />
	<circle cx="233.988" cy="483.599" r="2.5" fill="rgb(92,92,92)" />
	<circle cx="54.5217" cy="461.972" r="2.5" fill="rgb(91,91,91)" />
	<circle cx="55.5853" cy="396.918" r="2.5" fill="rgb(89,89,89)" />
	<circle cx="419.177" cy="479.704" r="2.5" fill="rgb(85,85,85)" />
	<circle cx="212.003" cy="362.536" r="2.5" fill="rgb(81,81,81)" />
	<circle cx="129.968" cy="384.746" r="2.5" fill="rgb(78,78,78)" />
	<circle cx="280.279" cy="423.034" r="2.5" fill="rgb(77,77,77)" />
	<circle cx="142.832" cy="395.795" r="2.5" fill="rgb(75,75,75)" />
	<circle cx="366.788" cy="483.731" r="2.5" fill="rgb(69,69,69)" />
	<circle cx="262.342" cy="495.131" r="2.5" fill="rgb(68,68,68)" />
	<circle cx="212.056" cy="379.068" r="2.5" fill="rgb(64,64,64)" />
	<circle cx="275.929" cy="494.436" r="2.5" fill="rgb(63,63,63)" />
	<circle cx="183.244" cy="380.472" r="2.5" fill="rgb(60,60,60)" />
	<circle cx="116.601" cy="401.603" r="2.5" fill="rgb(59,59,59)" />
	<circle cx="196.27" cy="386.723" r="2.5" fill="rgb(55,55,55)" />
	<circle cx="58.2249" cy="429.813" r="2.5" fill="rgb(51,51,51)" />
	<circle cx="64.8049" cy="431.195" r="2.5" fill="rgb(50,50,50)" />
	<circle cx="169.495" cy="410.653" r="2.5" fill="rgb(49,49,49)" />
	<circle cx="311.871" cy="494.545" r="2.5" fill="rgb(48,48,48)" />
	<circle cx="194.679" cy="396.131" r="2.5" fill="rgb(45,45,45)" />
	<circle cx="199.777" cy="405.785" r="2.5" fill="rgb(36,36,36)" />
	<circle cx="143.928" cy="425.349" r="2.5" fill="rgb(35,35,35)" />
	<circle cx="196.306" cy="415.148" r="2.5" fill="rgb(26,26,26)" />
	<circle cx="44.7274" cy="416.666" r="2.5" fill="rgb(22,22,22)" />
	<circle cx="51.6708" cy="437.946" r="2.5" fill="rgb(21,21,21)" />
	<circle cx="117.036" cy="402.284" r="2.5" fill="rgb(12,12,12)" />
	<circle cx="83.3333" cy="416.667" r="2" fill="rgb(255,0,0)" />
	<circle cx="416.667" cy="83.3333" r="2" fill="rgb(0,255,0)" />
	<circle cx="83.3333" cy="416.667" r="2" fill="rgb(0,255,0)" />
	<circle cx="75.2622" cy="394.345" r="2" fill="rgb(0,255,0)" />
	<circle cx="87.7224" cy="371.276" r="2" fill="rgb(0,255,0)" />
	<circle cx="94.0732" cy="353.263" r="2" fill="rgb(0,255,0)" />
	<circle cx="97.5169" cy="342.257" r="2" fill="rgb(0,255,0)" />
	<circle cx="112.542" cy="329.927" r="2" fill="rgb(0,255,0)" />
	<circle cx="164.569" cy="329.195" r="2" fill="rgb(0,255,0)" />
	<circle cx="207.923" cy="322.544" r="2" fill="rgb(0,255,0)" />
	<circle cx="231.412" cy="318.204" r="2" fill="rgb(0,255,0)" />
	<circle cx="277.694" cy="319.229" r="2" fill="rgb(0,255,0)" />
	<circle cx="293.088" cy="309.704" r="2" fill="rgb(0,255,0)" />
	<circle cx="325.854" cy="302.309" r="2" fill="rgb(0,255,0)" />
	<circle cx="314.136" cy="291.422" r="2" fill="rgb(0,255,0)" />
	<circle cx="320.575" cy="280.653" r="2" fill="rgb(0,255,0)" />
	<circle cx="325.278" cy="274.178" r="2" fill="rgb(0,255,0)" />
	<circle cx="345.096" cy="264.283" r="2" fill="rgb(0,255,0)" />
	<circle cx="380.695" cy="259.245" r="2" fill="rgb(0,255,0)" />
	<circle cx="388.606" cy="253.681" r="2" fill="rgb(0,255,0)" />
	<circle cx="393.885" cy="241.578" r="2" fill="rgb(0,255,0)" />
	<circle cx="397.03" cy="234.815" r="2" fill="rgb(0,255,0)" />
	<circle cx="396.518" cy="222.867" r="2" fill="rgb(0,255,0)" />
	<circle cx="405.326" cy="210.834" r="2" fill="rgb(0,255,0)" />
	<circle cx="454.132" cy="206.302" r="2" fill="rgb(0,255,0)" />
	<circle cx="460.69" cy="188.78" r="2" fill="rgb(0,255,0)" />
	<circle cx="456.25" cy="170.737" r="2" fill="rgb(0,255,0)" />
	<circle cx="449.327" cy="158.564" r="2" fill="rgb(0,255,0)" />
	<circle cx="436.645" cy="147.665" r="2" fill="rgb(0,255,0)" />
	<circle cx="427.714" cy="134.206" r="2" fill="rgb(0,255,0)" />
	<circle cx="410.266" cy="120.488" r="2" fill="rgb(0,255,0)" />
	<circle cx="413.191" cy="103.855" r="2" fill="rgb(0,255,0)" />
	<circle cx="417.954" cy="85.7578" r="2" fill="rgb(0,255,0)" />
</svg>
