<?xml version="1.0" standalone="no" ?>
<!DOCTYPE svg PUBLIC "-//W3C//DTD SVG 1.1//EN" "http://www.w3.org/Graphics/SVG/1.1/DTD/svg11.dtd">
<svg width="500px" height="500px" xmlns="http://www.w3.org/2000/svg" version="1.1" >
	<circle cx="259.838" cy="328.186" r="2.5" fill="rgb(255,255,255)" />
	<circle cx="203.502" cy="328.791" r="2.5" fill="rgb(216,216,216)" />
	<circle cx="295.164" cy="387.432" r="2.5" fill="rgb(215,215,215)" />
	<circle cx="267.93" cy="337.101" r="2.5" fill="rgb(212,212,212)" />
	<circle cx="214.686" cy="428.386" r="2.5" fill="rgb(197,197,197)" />
	<circle cx="216.549" cy="423.863" r="2.5" fill="rgb(197,197,197)" />
	<circle cx="263.331" cy="344.691" r="2.5" fill="rgb(193,193,193)" />
	<circle cx="204.354" cy="341.981" r="2.5" fill="rgb(189,189,189)" />
	<circle cx="154.583" cy="367.145" r="2.5" fill="rgb(187,187,187)" />
	<circle cx="258.818" cy="438.142" r="2.5" fill="rgb(181,181,181)" />
	<circle cx="275.982" cy="398.616" r="2.5" fill="rgb(181,181,181)" />
	<circle cx="187.674" cy="363.75" r="2.5" fill="rgb(177,177,177)" />
	<circle cx="244.684" cy="356.928" r="2.5" fill="rgb(159,159,159)" />
	<circle cx="330.702" cy="397.977" r="2.5" fill="rgb(155,155,155)" />
	<circle cx="39.9691" cy="449.094" r="2.5" fill="rgb(143,143,143)" />
	<circle cx="82.3817" cy="315.539" r="2.5" fill="rgb(135,135,135)" />
	<circle cx="8.38041" cy="357.404" r="2.5" fill="rgb(134,134,134)" />
	<circle cx="12.2076" cy="371.986" r="2.5" fill="rgb(134,134,134)" />
	<circle cx="251.688" cy="372.888" r="2.5" fill="rgb(126,126,126)" />
	<circle cx="79.2693" cy="328.786" r="2.5" fill="rgb(116,116,116)" />
	<circle cx="210.02" cy="372.971" r="2.5" fill="rgb(104,104,104)" />
	<circle cx="73.8441" cy="463.749" r="2.5" fill="rgb(103,103,103)" />
	<circle cx="96.8123" cy="396.986" r="2.5" fill="rgb(92,92,92)" />
	<circle cx="8.61346" cy="419.531" r="2.5" fill="rgb(88,88,88)" />
	<circle cx="105.572" cy="354.375" r="2.5" fill="rgb(86,86,86)" />
	<circle cx="54.3468" cy="485.097" r="2.5" fill="rgb(79,79,79)" />
	<circle cx="53.3957" cy="449.971" r="2.5" fill="rgb(79,79,79)" />
	<circle cx="155.273" cy="373.609" r="2.5" fill="rgb(77,77,77)" />
	<circle cx="119.978" cy="373.46" r="2.5" fill="rgb(61,61,61)" />
	<circle cx="0.207302" cy="457.637" r="2.5" fill="rgb(58,58,58)" />
	<circle cx="159.49" cy="414.96" r="2.5" fill="rgb(47,47,47)" />
	<circle cx="105.084" cy="394.554" r="2.5" fill="rgb(30,30,30)" />
	<circle cx="83.3333" cy="416.667" r="2" fill="rgb(255,0,0)" />
	<circle cx="416.667" cy="83.3333" r="2" fill="rgb(0,255,0)" />
	<circle cx="83.3333" cy="416.667" r="2" fill="rgb(0,255,0)" />
	<circle cx="89.9123" cy="402.32" r="2" fill="rgb(0,255,0)" />
	<circle cx="120.95" cy="394.313" r="2" fill="rgb(0,255,0)" />
	<circle cx="126.433" cy="379.24" r="2" fill="rgb(0,255,0)" />
	<circle cx="200.081" cy="380.302" r="2" fill="rgb(0,255,0)" />
	<circle cx="202.294" cy="363.616" r="2" fill="rgb(0,255,0)" />
	<circle cx="220.89" cy="350.077" r="2" fill="rgb(0,255,0)" />
	<circle cx="210.413" cy="332.415" r="2" fill="rgb(0,255,0)" />
	<circle cx="225.491" cy="321.143" r="2" fill="rgb(0,255,0)" />
	<circle cx="230.278" cy="313.247" r="2" fill="rgb(0,255,0)" />
	<circle cx="253.259" cy="307.349" r="2" fill="rgb(0,255,0)" />
	<circle cx="247.269" cy="297.714" r="2" fill="rgb(0,255,0)" />
	<circle cx="263.528" cy="294.012" r="2" fill="rgb(0,255,0)" />
	<circle cx="271.464" cy="282.764" r="2" fill="rgb(0,255,0)" />
	<circle cx="278.807" cy="273.292" r="2" fill="rgb(0,255,0)" />
	<circle cx="304.95" cy="267.047" r="2" fill="rgb(0,255,0)" />
	<circle cx="317.884" cy="255.154" r="2" fill="rgb(0,255,0)" />
	<circle cx="336.446" cy="246.855" r="2" fill="rgb(0,255,0)" />
	<circle cx="338.026" cy="232.262" r="2" fill="rgb(0,255,0)" />
	<circle cx="343.918" cy="218.832" r="2" fill="rgb(0,255,0)" />
	<circle cx="346.742" cy="212.083" r="2" fill="rgb(0,255,0)" />
	<circle cx="373.66" cy="206.466" r="2" fill="rgb(0,255,0)" />
	<circle cx="382.788" cy="196.382" r="2" fill="rgb(0,255,0)" />
	<circle cx="384.271" cy="182.885" r="2" fill="rgb(0,255,0)" />
	<circle cx="395.373" cy="170.751" r="2" fill="rgb(0,255,0)" />
	<circle cx="402.23" cy="161.997" r="2" fill="rgb(0,255,0)" />
	<circle cx="410.054" cy="151.04" r="2" fill="rgb(0,255,0)" />
	<circle cx="407.552" cy="135.731" r="2" fill="rgb(0,255,0)" />
	<circle cx="406.154" cy="118.406" r="2" fill="rgb(0,255,0)" />
	<circle cx="403.872" cy="100.825" r="2" fill="rgb(0,255,0)" />
	<circle cx="417.355" cy="83.899" r="2" fill="rgb(0,255,0)" />
</svg>
