<?xml version="1.0" standalone="no" ?>
<!DOCTYPE svg PUBLIC "-//W3C//DTD SVG 1.1//EN" "http://www.w3.org/Graphics/SVG/1.1/DTD/svg11.dtd">
<svg width="500px" height="500px" xmlns="http://www.w3.org/2000/svg" version="1.1" >
	<circle cx="314.127" cy="237.403" r="2.5" fill="rgb(255,255,255)" />
	<circle cx="354.372" cy="122.76" r="2.5" fill="rgb(246,246,246)" />
	<circle cx="367.543" cy="134.281" r="2.5" fill="rgb(239,239,239)" />
	<circle cx="418.714" cy="139.682" r="2.5" fill="rgb(232,232,232)" />
	<circle cx="237.807" cy="141.699" r="2.5" fill="rgb(226,226,226)" />
	<circle cx="398.55" cy="155.272" r="2.5" fill="rgb(223,223,223)" />
	<circle cx="262.763" cy="159.298" r="2.5" fill="rgb(221,221,221)" />
	<circle cx="399.502" cy="161.846" r="2.5" fill="rgb(219,219,219)" />
	<circle cx="248.655" cy="163.794" r="2.5" fill="rgb(216,216,216)" />
	<circle cx="398.497" cy="169.766" r="2.5" fill="rgb(215,215,215)" />
	<circle cx="277.625" cy="207.484" r="2.5" fill="rgb(212,212,212)" />
	<circle cx="159.483" cy="265.179" r="2.5" fill="rgb(210,210,210)" />
	<circle cx="125.44" cy="169.958" r="2.5" fill="rgb(209,209,209)" />
	<circle cx="235.832" cy="172.948" r="2.5" fill="rgb(208,208,208)" />
	<circle cx="143.515" cy="165.878" r="2.5" fill="rgb(206,206,206)" />
	<circle cx="385.231" cy="183.204" r="2.5" fill="rgb(205,205,205)" />
	<circle cx="399.916" cy="188.566" r="2.5" fill="rgb(204,204,204)" />
	<circle cx="288.795" cy="252.226" r="2.5" fill="rgb(203,203,203)" />
	<circle cx="236.053" cy="185.314" r="2.5" fill="rgb(202,202,202)" />
	<circle cx="311.988" cy="223.032" r="2.5" fill="rgb(201,201,201)" />
	<circle cx="175.59" cy="184.584" r="2.5" fill="rgb(201,201,201)" />
	<circle cx="146.529" cy="194.262" r="2.5" fill="rgb(200,200,200)" />
	<circle cx="39.7557" cy="263.676" r="2.5" fill="rgb(199,199,199)" />
	<circle cx="232.24" cy="195.945" r="2.5" fill="rgb(197,197,197)" />
	<circle cx="392.065" cy="199.58" r="2.5" fill="rgb(196,196,196)" />
	<circle cx="199.768" cy="188.224" r="2.5" fill="rgb(196,196,196)" />
	<circle cx="280.137" cy="174.084" r="2.5" fill="rgb(196,196,196)" />
	<circle cx="59.7519" cy="280.304" r="2.5" fill="rgb(194,194,194)" />
	<circle cx="165.041" cy="229.139" r="2.5" fill="rgb(193,193,193)" />
	<circle cx="281.452" cy="182.695" r="2.5" fill="rgb(191,191,191)" />
	<circle cx="173.045" cy="256.805" r="2.5" fill="rgb(190,190,190)" />
	<circle cx="220.102" cy="206.642" r="2.5" fill="rgb(189,189,189)" />
	<circle cx="60.54" cy="295.882" r="2.5" fill="rgb(189,189,189)" />
	<circle cx="125.537" cy="294.737" r="2.5" fill="rgb(187,187,187)" />
	<circle cx="375.279" cy="211.016" r="2.5" fill="rgb(187,187,187)" />
	<circle cx="301.146" cy="199.885" r="2.5" fill="rgb(184,184,184)" />
	<circle cx="327.797" cy="206.144" r="2.5" fill="rgb(184,184,184)" />
	<circle cx="161.282" cy="229.337" r="2.5" fill="rgb(184,184,184)" />
	<circle cx="160.956" cy="272.755" r="2.5" fill="rgb(183,183,183)" />
	<circle cx="327.253" cy="207.511" r="2.5" fill="rgb(183,183,183)" />
	<circle cx="297.978" cy="242.576" r="2.5" fill="rgb(183,183,183)" />
	<circle cx="239.967" cy="239.462" r="2.5" fill="rgb(180,180,180)" />
	<circle cx="226.174" cy="261.075" r="2.5" fill="rgb(180,180,180)" />
	<circle cx="228.999" cy="245.44" r="2.5" fill="rgb(180,180,180)" />
	<circle cx="377.99" cy="226.42" r="2.5" fill="rgb(178,178,178)" />
	<circle cx="328.209" cy="216.905" r="2.5" fill="rgb(178,178,178)" />
	<circle cx="301.086" cy="300.168" r="2.5" fill="rgb(177,177,177)" />
	<circle cx="284.31" cy="234.867" r="2.5" fill="rgb(177,177,177)" />
	<circle cx="250.77" cy="252.783" r="2.5" fill="rgb(175,175,175)" />
	<circle cx="240.225" cy="275.495" r="2.5" fill="rgb(173,173,173)" />
	<circle cx="360.225" cy="232.142" r="2.5" fill="rgb(172,172,172)" />
	<circle cx="317.362" cy="225.73" r="2.5" fill="rgb(171,171,171)" />
	<circle cx="346.879" cy="237.387" r="2.5" fill="rgb(167,167,167)" />
	<circle cx="369.511" cy="248.651" r="2.5" fill="rgb(162,162,162)" />
	<circle cx="345.85" cy="247.545" r="2.5" fill="rgb(160,160,160)" />
	<circle cx="393.007" cy="258.999" r="2.5" fill="rgb(158,158,158)" />
	<circle cx="274.542" cy="280.733" r="2.5" fill="rgb(156,156,156)" />
	<circle cx="363.396" cy="257.532" r="2.5" fill="rgb(156,156,156)" />
	<circle cx="322.578" cy="275.433" r="2.5" fill="rgb(152,152,152)" />
	<circle cx="434.015" cy="278.541" r="2.5" fill="rgb(151,151,151)" />
	<circle cx="275.625" cy="285.211" r="2.5" fill="rgb(150,150,150)" />
	<circle cx="386.903" cy="272.219" r="2.5" fill="rgb(149,149,149)" />
	<circle cx="300.768" cy="306.211" r="2.5" fill="rgb(148,148,148)" />
	<circle cx="298.186" cy="363.201" r="2.5" fill="rgb(147,147,147)" />
	<circle cx="323.308" cy="284.665" r="2.5" fill="rgb(147,147,147)" />
	<circle cx="326.846" cy="310.063" r="2.5" fill="rgb(146,146,146)" />
	<circle cx="433.936" cy="288.321" r="2.5" fill="rgb(145,145,145)" />
	<circle cx="392.476" cy="284.438" r="2.5" fill="rgb(142,142,142)" />
	<circle cx="424.83" cy="296.599" r="2.5" fill="rgb(139,139,139)" />
	<circle cx="401.292" cy="298.244" r="2.5" fill="rgb(134,134,134)" />
	<circle cx="327.319" cy="309.165" r="2.5" fill="rgb(134,134,134)" />
	<circle cx="383.378" cy="302.027" r="2.5" fill="rgb(130,130,130)" />
	<circle cx="405.814" cy="308.506" r="2.5" fill="rgb(128,128,128)" />
	<circle cx="226.456" cy="296.297" r="2.5" fill="rgb(127,127,127)" />
	<circle cx="329.768" cy="359.122" r="2.5" fill="rgb(126,126,126)" />
	<circle cx="282.132" cy="303.451" r="2.5" fill="rgb(123,123,123)" />
	<circle cx="157.557" cy="326.648" r="2.5" fill="rgb(122,122,122)" />
	<circle cx="389.46" cy="316.798" r="2.5" fill="rgb(121,121,121)" />
	<circle cx="213.497" cy="309.304" r="2.5" fill="rgb(121,121,121)" />
	<circle cx="209.331" cy="368.411" r="2.5" fill="rgb(120,120,120)" />
	<circle cx="111.229" cy="365.81" r="2.5" fill="rgb(118,118,118)" />
	<circle cx="227.837" cy="331.275" r="2.5" fill="rgb(118,118,118)" />
	<circle cx="271.793" cy="315.912" r="2.5" fill="rgb(116,116,116)" />
	<circle cx="402.223" cy="326.204" r="2.5" fill="rgb(116,116,116)" />
	<circle cx="195.29" cy="377.719" r="2.5" fill="rgb(115,115,115)" />
	<circle cx="412.46" cy="329.771" r="2.5" fill="rgb(114,114,114)" />
	<circle cx="218.152" cy="343.936" r="2.5" fill="rgb(112,112,112)" />
	<circle cx="413.941" cy="333.955" r="2.5" fill="rgb(112,112,112)" />
	<circle cx="352.894" cy="359.686" r="2.5" fill="rgb(112,112,112)" />
	<circle cx="263.591" cy="325.89" r="2.5" fill="rgb(111,111,111)" />
	<circle cx="417.33" cy="340.947" r="2.5" fill="rgb(108,108,108)" />
	<circle cx="312.936" cy="333.683" r="2.5" fill="rgb(106,106,106)" />
	<circle cx="327.108" cy="334.774" r="2.5" fill="rgb(106,106,106)" />
	<circle cx="110.676" cy="71.4498" r="2.5" fill="rgb(104,104,104)" />
	<circle cx="383.313" cy="339.829" r="2.5" fill="rgb(103,103,103)" />
	<circle cx="388.905" cy="340.54" r="2.5" fill="rgb(103,103,103)" />
	<circle cx="61.7369" cy="90.5302" r="2.5" fill="rgb(103,103,103)" />
	<circle cx="329.044" cy="343.961" r="2.5" fill="rgb(102,102,102)" />
	<circle cx="119.334" cy="80.8762" r="2.5" fill="rgb(101,101,101)" />
	<circle cx="73.1582" cy="100.4" r="2.5" fill="rgb(98,98,98)" />
	<circle cx="126.333" cy="96.75" r="2.5" fill="rgb(97,97,97)" />
	<circle cx="380.529" cy="351.985" r="2.5" fill="rgb(96,96,96)" />
	<circle cx="239.785" cy="410.038" r="2.5" fill="rgb(95,95,95)" />
	<circle cx="110.926" cy="105.72" r="2.5" fill="rgb(94,94,94)" />
	<circle cx="109.323" cy="116.014" r="2.5" fill="rgb(91,91,91)" />
	<circle cx="241.484" cy="420.451" r="2.5" fill="rgb(91,91,91)" />
	<circle cx="399.414" cy="366.569" r="2.5" fill="rgb(88,88,88)" />
	<circle cx="124.831" cy="133.141" r="2.5" fill="rgb(87,87,87)" />
	<circle cx="313.802" cy="395.604" r="2.5" fill="rgb(87,87,87)" />
	<circle cx="321.433" cy="442.56" r="2.5" fill="rgb(86,86,86)" />
	<circle cx="328.879" cy="389.509" r="2.5" fill="rgb(86,86,86)" />
	<circle cx="106.202" cy="230.526" r="2.5" fill="rgb(85,85,85)" />
	<circle cx="142.76" cy="245.08" r="2.5" fill="rgb(85,85,85)" />
	<circle cx="123.216" cy="142.045" r="2.5" fill="rgb(84,84,84)" />
	<circle cx="131.433" cy="202.383" r="2.5" fill="rgb(84,84,84)" />
	<circle cx="91.0334" cy="143.708" r="2.5" fill="rgb(82,82,82)" />
	<circle cx="89.211" cy="143.67" r="2.5" fill="rgb(82,82,82)" />
	<circle cx="58.032" cy="153.47" r="2.5" fill="rgb(80,80,80)" />
	<circle cx="417.259" cy="380.376" r="2.5" fill="rgb(80,80,80)" />
	<circle cx="184.46" cy="186.622" r="2.5" fill="rgb(79,79,79)" />
	<circle cx="336.604" cy="447.516" r="2.5" fill="rgb(78,78,78)" />
	<circle cx="86.3353" cy="157.359" r="2.5" fill="rgb(78,78,78)" />
	<circle cx="119.564" cy="168.195" r="2.5" fill="rgb(75,75,75)" />
	<circle cx="132.356" cy="265.794" r="2.5" fill="rgb(73,73,73)" />
	<circle cx="91.0289" cy="269.407" r="2.5" fill="rgb(73,73,73)" />
	<circle cx="165.37" cy="203.086" r="2.5" fill="rgb(73,73,73)" />
	<circle cx="420.049" cy="392.188" r="2.5" fill="rgb(72,72,72)" />
	<circle cx="114.164" cy="184.126" r="2.5" fill="rgb(70,70,70)" />
	<circle cx="122.958" cy="284.085" r="2.5" fill="rgb(68,68,68)" />
	<circle cx="419.105" cy="402.533" r="2.5" fill="rgb(66,66,66)" />
	<circle cx="166.885" cy="223.954" r="2.5" fill="rgb(66,66,66)" />
	<circle cx="176.625" cy="235.403" r="2.5" fill="rgb(66,66,66)" />
	<circle cx="172.32" cy="229.725" r="2.5" fill="rgb(66,66,66)" />
	<circle cx="125.504" cy="203.989" r="2.5" fill="rgb(65,65,65)" />
	<circle cx="112.416" cy="256.978" r="2.5" fill="rgb(64,64,64)" />
	<circle cx="116.63" cy="211.254" r="2.5" fill="rgb(62,62,62)" />
	<circle cx="53.036" cy="350.041" r="2.5" fill="rgb(62,62,62)" />
	<circle cx="101.376" cy="270.725" r="2.5" fill="rgb(61,61,61)" />
	<circle cx="26.5059" cy="222.72" r="2.5" fill="rgb(58,58,58)" />
	<circle cx="414.617" cy="415.458" r="2.5" fill="rgb(58,58,58)" />
	<circle cx="147.701" cy="237.714" r="2.5" fill="rgb(57,57,57)" />
	<circle cx="93.7334" cy="254.772" r="2.5" fill="rgb(57,57,57)" />
	<circle cx="1.26978" cy="229.522" r="2.5" fill="rgb(56,56,56)" />
	<circle cx="155.248" cy="249.761" r="2.5" fill="rgb(54,54,54)" />
	<circle cx="285.284" cy="433.737" r="2.5" fill="rgb(54,54,54)" />
	<circle cx="330.048" cy="438.741" r="2.5" fill="rgb(53,53,53)" />
	<circle cx="316.465" cy="447.619" r="2.5" fill="rgb(53,53,53)" />
	<circle cx="13.8248" cy="295.479" r="2.5" fill="rgb(53,53,53)" />
	<circle cx="22.8843" cy="238.415" r="2.5" fill="rgb(53,53,53)" />
	<circle cx="424.266" cy="424.537" r="2.5" fill="rgb(52,52,52)" />
	<circle cx="26.3135" cy="300.638" r="2.5" fill="rgb(52,52,52)" />
	<circle cx="291.139" cy="438.26" r="2.5" fill="rgb(51,51,51)" />
	<circle cx="123.68" cy="244.756" r="2.5" fill="rgb(51,51,51)" />
	<circle cx="332.177" cy="483.638" r="2.5" fill="rgb(51,51,51)" />
	<circle cx="421.65" cy="427.103" r="2.5" fill="rgb(51,51,51)" />
	<circle cx="411.979" cy="428.535" r="2.5" fill="rgb(50,50,50)" />
	<circle cx="195.789" cy="495.852" r="2.5" fill="rgb(49,49,49)" />
	<circle cx="40.0993" cy="318.701" r="2.5" fill="rgb(48,48,48)" />
	<circle cx="96.967" cy="293.913" r="2.5" fill="rgb(48,48,48)" />
	<circle cx="345.925" cy="433.607" r="2.5" fill="rgb(48,48,48)" />
	<circle cx="289.86" cy="446.249" r="2.5" fill="rgb(48,48,48)" />
	<circle cx="42.8738" cy="256.302" r="2.5" fill="rgb(48,48,48)" />
	<circle cx="105.637" cy="255.652" r="2.5" fill="rgb(47,47,47)" />
	<circle cx="344.839" cy="436.615" r="2.5" fill="rgb(46,46,46)" />
	<circle cx="415.815" cy="434.931" r="2.5" fill="rgb(46,46,46)" />
	<circle cx="74.7159" cy="300.14" r="2.5" fill="rgb(45,45,45)" />
	<circle cx="49.5499" cy="337.095" r="2.5" fill="rgb(45,45,45)" />
	<circle cx="262.5" cy="466.903" r="2.5" fill="rgb(44,44,44)" />
	<circle cx="131.054" cy="271.019" r="2.5" fill="rgb(44,44,44)" />
	<circle cx="264.661" cy="499.691" r="2.5" fill="rgb(44,44,44)" />
	<circle cx="102.598" cy="267.472" r="2.5" fill="rgb(44,44,44)" />
	<circle cx="304.437" cy="456.588" r="2.5" fill="rgb(42,42,42)" />
	<circle cx="352.657" cy="444.775" r="2.5" fill="rgb(42,42,42)" />
	<circle cx="128.882" cy="280.882" r="2.5" fill="rgb(41,41,41)" />
	<circle cx="183.446" cy="289.271" r="2.5" fill="rgb(40,40,40)" />
	<circle cx="311.341" cy="463.057" r="2.5" fill="rgb(40,40,40)" />
	<circle cx="383.226" cy="446.245" r="2.5" fill="rgb(38,38,38)" />
	<circle cx="157.842" cy="480.799" r="2.5" fill="rgb(38,38,38)" />
	<circle cx="127.181" cy="493.551" r="2.5" fill="rgb(38,38,38)" />
	<circle cx="390.874" cy="447.349" r="2.5" fill="rgb(38,38,38)" />
	<circle cx="357.674" cy="451.57" r="2.5" fill="rgb(38,38,38)" />
	<circle cx="225.341" cy="445.023" r="2.5" fill="rgb(37,37,37)" />
	<circle cx="177.356" cy="301.308" r="2.5" fill="rgb(36,36,36)" />
	<circle cx="158.326" cy="466.341" r="2.5" fill="rgb(36,36,36)" />
	<circle cx="91.6555" cy="384.114" r="2.5" fill="rgb(35,35,35)" />
	<circle cx="65.4191" cy="317.056" r="2.5" fill="rgb(35,35,35)" />
	<circle cx="385.001" cy="454.348" r="2.5" fill="rgb(34,34,34)" />
	<circle cx="182.42" cy="493.41" r="2.5" fill="rgb(33,33,33)" />
	<circle cx="162.787" cy="313.35" r="2.5" fill="rgb(32,32,32)" />
	<circle cx="35.5986" cy="402.87" r="2.5" fill="rgb(32,32,32)" />
	<circle cx="45.601" cy="368.463" r="2.5" fill="rgb(32,32,32)" />
	<circle cx="56.4753" cy="410.017" r="2.5" fill="rgb(31,31,31)" />
	<circle cx="65.2884" cy="333.635" r="2.5" fill="rgb(31,31,31)" />
	<circle cx="230.03" cy="460.655" r="2.5" fill="rgb(31,31,31)" />
	<circle cx="24.0768" cy="410.466" r="2.5" fill="rgb(30,30,30)" />
	<circle cx="212.274" cy="328.405" r="2.5" fill="rgb(30,30,30)" />
	<circle cx="229.548" cy="468.061" r="2.5" fill="rgb(30,30,30)" />
	<circle cx="17.5049" cy="413.32" r="2.5" fill="rgb(30,30,30)" />
	<circle cx="105.924" cy="356.599" r="2.5" fill="rgb(30,30,30)" />
	<circle cx="39.4413" cy="383.721" r="2.5" fill="rgb(29,29,29)" />
	<circle cx="20.1114" cy="430.854" r="2.5" fill="rgb(27,27,27)" />
	<circle cx="85.7131" cy="427.33" r="2.5" fill="rgb(27,27,27)" />
	<circle cx="77.8816" cy="359.384" r="2.5" fill="rgb(26,26,26)" />
	<circle cx="190.508" cy="336.316" r="2.5" fill="rgb(26,26,26)" />
	<circle cx="290.437" cy="454.633" r="2.5" fill="rgb(26,26,26)" />
	<circle cx="143.957" cy="440.335" r="2.5" fill="rgb(26,26,26)" />
	<circle cx="27.9413" cy="372.678" r="2.5" fill="rgb(26,26,26)" />
	<circle cx="23.0692" cy="356.843" r="2.5" fill="rgb(25,25,25)" />
	<circle cx="87.9869" cy="437.195" r="2.5" fill="rgb(25,25,25)" />
	<circle cx="38.001" cy="360.028" r="2.5" fill="rgb(25,25,25)" />
	<circle cx="8.89191" cy="407.68" r="2.5" fill="rgb(25,25,25)" />
	<circle cx="168.806" cy="439.034" r="2.5" fill="rgb(24,24,24)" />
	<circle cx="154.896" cy="465.772" r="2.5" fill="rgb(24,24,24)" />
	<circle cx="55.4971" cy="363.267" r="2.5" fill="rgb(24,24,24)" />
	<circle cx="46.6849" cy="430.937" r="2.5" fill="rgb(24,24,24)" />
	<circle cx="60.0652" cy="443.596" r="2.5" fill="rgb(23,23,23)" />
	<circle cx="211.18" cy="484.238" r="2.5" fill="rgb(23,23,23)" />
	<circle cx="181.072" cy="346.141" r="2.5" fill="rgb(23,23,23)" />
	<circle cx="74.7157" cy="381.146" r="2.5" fill="rgb(22,22,22)" />
	<circle cx="113.202" cy="446.59" r="2.5" fill="rgb(22,22,22)" />
	<circle cx="162.716" cy="349.455" r="2.5" fill="rgb(21,21,21)" />
	<circle cx="210.822" cy="436.803" r="2.5" fill="rgb(21,21,21)" />
	<circle cx="104.703" cy="363.537" r="2.5" fill="rgb(21,21,21)" />
	<circle cx="95.2831" cy="385.054" r="2.5" fill="rgb(21,21,21)" />
	<circle cx="98.6094" cy="487.864" r="2.5" fill="rgb(21,21,21)" />
	<circle cx="47.9035" cy="384.73" r="2.5" fill="rgb(21,21,21)" />
	<circle cx="108.513" cy="396.024" r="2.5" fill="rgb(21,21,21)" />
	<circle cx="106.794" cy="387.238" r="2.5" fill="rgb(21,21,21)" />
	<circle cx="262.192" cy="469.936" r="2.5" fill="rgb(20,20,20)" />
	<circle cx="155.103" cy="358.795" r="2.5" fill="rgb(20,20,20)" />
	<circle cx="157.789" cy="359.175" r="2.5" fill="rgb(20,20,20)" />
	<circle cx="179.753" cy="443.642" r="2.5" fill="rgb(19,19,19)" />
	<circle cx="70.9707" cy="423.021" r="2.5" fill="rgb(18,18,18)" />
	<circle cx="166.15" cy="361.973" r="2.5" fill="rgb(18,18,18)" />
	<circle cx="169.084" cy="362.034" r="2.5" fill="rgb(18,18,18)" />
	<circle cx="71.4053" cy="417.61" r="2.5" fill="rgb(18,18,18)" />
	<circle cx="102.373" cy="387.901" r="2.5" fill="rgb(17,17,17)" />
	<circle cx="191.105" cy="453.981" r="2.5" fill="rgb(16,16,16)" />
	<circle cx="153.437" cy="373.084" r="2.5" fill="rgb(16,16,16)" />
	<circle cx="185.078" cy="380.589" r="2.5" fill="rgb(13,13,13)" />
	<circle cx="100.741" cy="400.452" r="2.5" fill="rgb(11,11,11)" />
	<circle cx="137.569" cy="415.761" r="2.5" fill="rgb(11,11,11)" />
	<circle cx="127.475" cy="384.812" r="2.5" fill="rgb(8,8,8)" />
	<circle cx="71.9382" cy="422.263" r="2.5" fill="rgb(7,7,7)" />
	<circle cx="127.257" cy="402.428" r="2.5" fill="rgb(4,4,4)" />
	<circle cx="83.3333" cy="416.667" r="2" fill="rgb(255,0,0)" />
	<circle cx="416.667" cy="83.3333" r="2" fill="rgb(0,255,0)" />
	<circle cx="83.3333" cy="416.667" r="2" fill="rgb(0,255,0)" />
	<circle cx="92.6003" cy="392.851" r="2" fill="rgb(0,255,0)" />
	<circle cx="81.1029" cy="378.105" r="2" fill="rgb(0,255,0)" />
	<circle cx="94.5162" cy="358.624" r="2" fill="rgb(0,255,0)" />
	<circle cx="96.5936" cy="344.979" r="2" fill="rgb(0,255,0)" />
	<circle cx="112.31" cy="335.127" r="2" fill="rgb(0,255,0)" />
	<circle cx="120.833" cy="317.157" r="2" fill="rgb(0,255,0)" />
	<circle cx="129.212" cy="299.858" r="2" fill="rgb(0,255,0)" />
	<circle cx="140.165" cy="288.224" r="2" fill="rgb(0,255,0)" />
	<circle cx="143.469" cy="276.716" r="2" fill="rgb(0,255,0)" />
	<circle cx="142.159" cy="255.885" r="2" fill="rgb(0,255,0)" />
	<circle cx="116.46" cy="234.55" r="2" fill="rgb(0,255,0)" />
	<circle cx="78.4839" cy="215.282" r="2" fill="rgb(0,255,0)" />
	<circle cx="70.4638" cy="199.709" r="2" fill="rgb(0,255,0)" />
	<circle cx="73.3929" cy="190.943" r="2" fill="rgb(0,255,0)" />
	<circle cx="81.3066" cy="180.931" r="2" fill="rgb(0,255,0)" />
	<circle cx="108.706" cy="178.257" r="2" fill="rgb(0,255,0)" />
	<circle cx="127.055" cy="167.718" r="2" fill="rgb(0,255,0)" />
	<circle cx="122.72" cy="153.637" r="2" fill="rgb(0,255,0)" />
	<circle cx="141.738" cy="146.004" r="2" fill="rgb(0,255,0)" />
	<circle cx="146.489" cy="128.495" r="2" fill="rgb(0,255,0)" />
	<circle cx="143.496" cy="110.938" r="2" fill="rgb(0,255,0)" />
	<circle cx="196.126" cy="120.203" r="2" fill="rgb(0,255,0)" />
	<circle cx="233.15" cy="125.903" r="2" fill="rgb(0,255,0)" />
	<circle cx="230.385" cy="113.802" r="2" fill="rgb(0,255,0)" />
	<circle cx="242.903" cy="109.363" r="2" fill="rgb(0,255,0)" />
	<circle cx="286.664" cy="150.467" r="2" fill="rgb(0,255,0)" />
	<circle cx="307.352" cy="151.298" r="2" fill="rgb(0,255,0)" />
	<circle cx="316.911" cy="144.303" r="2" fill="rgb(0,255,0)" />
	<circle cx="393.954" cy="169.301" r="2" fill="rgb(0,255,0)" />
	<circle cx="409.453" cy="156.593" r="2" fill="rgb(0,255,0)" />
	<circle cx="419.479" cy="146.797" r="2" fill="rgb(0,255,0)" />
	<circle cx="418.068" cy="132.752" r="2" fill="rgb(0,255,0)" />
	<circle cx="410.783" cy="117.389" r="2" fill="rgb(0,255,0)" />
	<circle cx="431.971" cy="97.2915" r="2" fill="rgb(0,255,0)" />
	<circle cx="422.96" cy="82.3679" r="2" fill="rgb(0,255,0)" />
</svg>
