<?xml version="1.0" standalone="no" ?>
<!DOCTYPE svg PUBLIC "-//W3C//DTD SVG 1.1//EN" "http://www.w3.org/Graphics/SVG/1.1/DTD/svg11.dtd">
<svg width="500px" height="500px" xmlns="http://www.w3.org/2000/svg" version="1.1" >
	<circle cx="395.049" cy="208.901" r="2.5" fill="rgb(255,255,255)" />
	<circle cx="422.463" cy="139.551" r="2.5" fill="rgb(247,247,247)" />
	<circle cx="397.599" cy="271.108" r="2.5" fill="rgb(246,246,246)" />
	<circle cx="437.978" cy="273.211" r="2.5" fill="rgb(246,246,246)" />
	<circle cx="471.869" cy="245.751" r="2.5" fill="rgb(245,245,245)" />
	<circle cx="141.186" cy="138.533" r="2.5" fill="rgb(242,242,242)" />
	<circle cx="201.396" cy="213.556" r="2.5" fill="rgb(236,236,236)" />
	<circle cx="126.214" cy="66.0728" r="2.5" fill="rgb(235,235,235)" />
	<circle cx="256.063" cy="217.945" r="2.5" fill="rgb(233,233,233)" />
	<circle cx="424.928" cy="153.567" r="2.5" fill="rgb(233,233,233)" />
	<circle cx="248.871" cy="84.9855" r="2.5" fill="rgb(233,233,233)" />
	<circle cx="146.188" cy="53.8084" r="2.5" fill="rgb(232,232,232)" />
	<circle cx="289.071" cy="224.871" r="2.5" fill="rgb(231,231,231)" />
	<circle cx="163.446" cy="130.74" r="2.5" fill="rgb(229,229,229)" />
	<circle cx="146.267" cy="135.697" r="2.5" fill="rgb(228,228,228)" />
	<circle cx="148.143" cy="64.8922" r="2.5" fill="rgb(225,225,225)" />
	<circle cx="99.5634" cy="81.5366" r="2.5" fill="rgb(222,222,222)" />
	<circle cx="237.607" cy="93.2291" r="2.5" fill="rgb(221,221,221)" />
	<circle cx="388.727" cy="163.194" r="2.5" fill="rgb(220,220,220)" />
	<circle cx="475.372" cy="184.894" r="2.5" fill="rgb(220,220,220)" />
	<circle cx="356.538" cy="249.04" r="2.5" fill="rgb(216,216,216)" />
	<circle cx="154.71" cy="81.8815" r="2.5" fill="rgb(214,214,214)" />
	<circle cx="231.317" cy="101.601" r="2.5" fill="rgb(213,213,213)" />
	<circle cx="154.163" cy="86.9912" r="2.5" fill="rgb(212,212,212)" />
	<circle cx="302.435" cy="221.976" r="2.5" fill="rgb(210,210,210)" />
	<circle cx="400.248" cy="178.58" r="2.5" fill="rgb(208,208,208)" />
	<circle cx="443.336" cy="199.839" r="2.5" fill="rgb(205,205,205)" />
	<circle cx="236.969" cy="120.566" r="2.5" fill="rgb(202,202,202)" />
	<circle cx="408.421" cy="188.762" r="2.5" fill="rgb(199,199,199)" />
	<circle cx="345.934" cy="227.711" r="2.5" fill="rgb(198,198,198)" />
	<circle cx="232.362" cy="128.478" r="2.5" fill="rgb(194,194,194)" />
	<circle cx="316.359" cy="161.774" r="2.5" fill="rgb(194,194,194)" />
	<circle cx="290.979" cy="262.295" r="2.5" fill="rgb(193,193,193)" />
	<circle cx="287.763" cy="253.256" r="2.5" fill="rgb(193,193,193)" />
	<circle cx="448.04" cy="214.788" r="2.5" fill="rgb(192,192,192)" />
	<circle cx="410.535" cy="198.41" r="2.5" fill="rgb(191,191,191)" />
	<circle cx="358.702" cy="194.321" r="2.5" fill="rgb(190,190,190)" />
	<circle cx="318.167" cy="171.672" r="2.5" fill="rgb(187,187,187)" />
	<circle cx="392.044" cy="203.867" r="2.5" fill="rgb(183,183,183)" />
	<circle cx="281.153" cy="165.156" r="2.5" fill="rgb(182,182,182)" />
	<circle cx="234.827" cy="147.354" r="2.5" fill="rgb(182,182,182)" />
	<circle cx="324.145" cy="181.196" r="2.5" fill="rgb(181,181,181)" />
	<circle cx="235.601" cy="153.143" r="2.5" fill="rgb(178,178,178)" />
	<circle cx="255.562" cy="162.298" r="2.5" fill="rgb(178,178,178)" />
	<circle cx="250.393" cy="161.419" r="2.5" fill="rgb(177,177,177)" />
	<circle cx="196.578" cy="244.132" r="2.5" fill="rgb(177,177,177)" />
	<circle cx="273.021" cy="169.484" r="2.5" fill="rgb(177,177,177)" />
	<circle cx="82.3367" cy="357.342" r="2.5" fill="rgb(174,174,174)" />
	<circle cx="268.776" cy="175.794" r="2.5" fill="rgb(171,171,171)" />
	<circle cx="332.786" cy="197.403" r="2.5" fill="rgb(171,171,171)" />
	<circle cx="188.09" cy="201.49" r="2.5" fill="rgb(171,171,171)" />
	<circle cx="248.915" cy="170.972" r="2.5" fill="rgb(170,170,170)" />
	<circle cx="221.009" cy="263.697" r="2.5" fill="rgb(166,166,166)" />
	<circle cx="139.291" cy="239.671" r="2.5" fill="rgb(166,166,166)" />
	<circle cx="336.188" cy="205.903" r="2.5" fill="rgb(165,165,165)" />
	<circle cx="270.682" cy="186.456" r="2.5" fill="rgb(164,164,164)" />
	<circle cx="303.04" cy="214.062" r="2.5" fill="rgb(162,162,162)" />
	<circle cx="199.244" cy="242.03" r="2.5" fill="rgb(161,161,161)" />
	<circle cx="235.121" cy="225.573" r="2.5" fill="rgb(157,157,157)" />
	<circle cx="355.41" cy="221.92" r="2.5" fill="rgb(156,156,156)" />
	<circle cx="342.457" cy="221.616" r="2.5" fill="rgb(154,154,154)" />
	<circle cx="239.262" cy="255.705" r="2.5" fill="rgb(153,153,153)" />
	<circle cx="227.988" cy="230.179" r="2.5" fill="rgb(153,153,153)" />
	<circle cx="307.852" cy="212.729" r="2.5" fill="rgb(153,153,153)" />
	<circle cx="350.539" cy="279.747" r="2.5" fill="rgb(149,149,149)" />
	<circle cx="232.66" cy="240.539" r="2.5" fill="rgb(148,148,148)" />
	<circle cx="165.573" cy="326.038" r="2.5" fill="rgb(148,148,148)" />
	<circle cx="433.884" cy="269.958" r="2.5" fill="rgb(148,148,148)" />
	<circle cx="362.527" cy="299.713" r="2.5" fill="rgb(147,147,147)" />
	<circle cx="441.639" cy="272.324" r="2.5" fill="rgb(146,146,146)" />
	<circle cx="346.545" cy="234.545" r="2.5" fill="rgb(145,145,145)" />
	<circle cx="300.56" cy="224.371" r="2.5" fill="rgb(143,143,143)" />
	<circle cx="254.841" cy="303.17" r="2.5" fill="rgb(141,141,141)" />
	<circle cx="427.597" cy="271.123" r="2.5" fill="rgb(141,141,141)" />
	<circle cx="380.028" cy="259.937" r="2.5" fill="rgb(141,141,141)" />
	<circle cx="439.098" cy="280.48" r="2.5" fill="rgb(138,138,138)" />
	<circle cx="319.891" cy="236.166" r="2.5" fill="rgb(138,138,138)" />
	<circle cx="390.928" cy="267.644" r="2.5" fill="rgb(136,136,136)" />
	<circle cx="143.197" cy="258.554" r="2.5" fill="rgb(130,130,130)" />
	<circle cx="385.938" cy="273.846" r="2.5" fill="rgb(130,130,130)" />
	<circle cx="52.1148" cy="348.459" r="2.5" fill="rgb(129,129,129)" />
	<circle cx="311.894" cy="249.242" r="2.5" fill="rgb(127,127,127)" />
	<circle cx="120.767" cy="264.089" r="2.5" fill="rgb(125,125,125)" />
	<circle cx="101.282" cy="279.509" r="2.5" fill="rgb(125,125,125)" />
	<circle cx="32.5749" cy="330.502" r="2.5" fill="rgb(125,125,125)" />
	<circle cx="122.463" cy="269.358" r="2.5" fill="rgb(124,124,124)" />
	<circle cx="135.743" cy="272.78" r="2.5" fill="rgb(124,124,124)" />
	<circle cx="42.1337" cy="138.287" r="2.5" fill="rgb(123,123,123)" />
	<circle cx="198.394" cy="326.318" r="2.5" fill="rgb(123,123,123)" />
	<circle cx="87.9747" cy="199.01" r="2.5" fill="rgb(122,122,122)" />
	<circle cx="129.464" cy="283.515" r="2.5" fill="rgb(120,120,120)" />
	<circle cx="318.386" cy="261.484" r="2.5" fill="rgb(119,119,119)" />
	<circle cx="97.5913" cy="154.975" r="2.5" fill="rgb(118,118,118)" />
	<circle cx="34.9983" cy="149.666" r="2.5" fill="rgb(118,118,118)" />
	<circle cx="69.5197" cy="326.68" r="2.5" fill="rgb(118,118,118)" />
	<circle cx="107.064" cy="199.829" r="2.5" fill="rgb(116,116,116)" />
	<circle cx="9.07149" cy="160.552" r="2.5" fill="rgb(115,115,115)" />
	<circle cx="312.354" cy="267.563" r="2.5" fill="rgb(114,114,114)" />
	<circle cx="298.44" cy="266.768" r="2.5" fill="rgb(112,112,112)" />
	<circle cx="241.045" cy="271.76" r="2.5" fill="rgb(112,112,112)" />
	<circle cx="106.566" cy="200.44" r="2.5" fill="rgb(112,112,112)" />
	<circle cx="92.4894" cy="168.806" r="2.5" fill="rgb(112,112,112)" />
	<circle cx="36.7104" cy="161.029" r="2.5" fill="rgb(111,111,111)" />
	<circle cx="90.2451" cy="170.354" r="2.5" fill="rgb(111,111,111)" />
	<circle cx="146.136" cy="255.608" r="2.5" fill="rgb(110,110,110)" />
	<circle cx="240.046" cy="274.837" r="2.5" fill="rgb(108,108,108)" />
	<circle cx="36.1913" cy="168.584" r="2.5" fill="rgb(107,107,107)" />
	<circle cx="170.012" cy="338.62" r="2.5" fill="rgb(107,107,107)" />
	<circle cx="78.1866" cy="260.542" r="2.5" fill="rgb(107,107,107)" />
	<circle cx="162.531" cy="284.795" r="2.5" fill="rgb(107,107,107)" />
	<circle cx="298.639" cy="274.661" r="2.5" fill="rgb(106,106,106)" />
	<circle cx="83.1593" cy="184.055" r="2.5" fill="rgb(105,105,105)" />
	<circle cx="153.706" cy="192.616" r="2.5" fill="rgb(103,103,103)" />
	<circle cx="54.8786" cy="175.267" r="2.5" fill="rgb(102,102,102)" />
	<circle cx="85.7124" cy="353.317" r="2.5" fill="rgb(102,102,102)" />
	<circle cx="233.088" cy="285.148" r="2.5" fill="rgb(101,101,101)" />
	<circle cx="114.958" cy="300.939" r="2.5" fill="rgb(101,101,101)" />
	<circle cx="332.478" cy="300.439" r="2.5" fill="rgb(100,100,100)" />
	<circle cx="139.523" cy="196.907" r="2.5" fill="rgb(99,99,99)" />
	<circle cx="185.332" cy="228.284" r="2.5" fill="rgb(99,99,99)" />
	<circle cx="103.924" cy="255.121" r="2.5" fill="rgb(98,98,98)" />
	<circle cx="86.9245" cy="269.931" r="2.5" fill="rgb(98,98,98)" />
	<circle cx="459.642" cy="460.884" r="2.5" fill="rgb(96,96,96)" />
	<circle cx="289.162" cy="288.135" r="2.5" fill="rgb(96,96,96)" />
	<circle cx="9.92532" cy="331.017" r="2.5" fill="rgb(95,95,95)" />
	<circle cx="161.055" cy="228.995" r="2.5" fill="rgb(94,94,94)" />
	<circle cx="48.712" cy="191.953" r="2.5" fill="rgb(94,94,94)" />
	<circle cx="129.103" cy="209.393" r="2.5" fill="rgb(93,93,93)" />
	<circle cx="324.308" cy="309.333" r="2.5" fill="rgb(92,92,92)" />
	<circle cx="72.2358" cy="380.611" r="2.5" fill="rgb(92,92,92)" />
	<circle cx="291.237" cy="295.094" r="2.5" fill="rgb(92,92,92)" />
	<circle cx="56.5611" cy="292.259" r="2.5" fill="rgb(91,91,91)" />
	<circle cx="75.9387" cy="280.796" r="2.5" fill="rgb(90,90,90)" />
	<circle cx="85.21" cy="392.614" r="2.5" fill="rgb(90,90,90)" />
	<circle cx="321.619" cy="460.518" r="2.5" fill="rgb(86,86,86)" />
	<circle cx="80.4497" cy="207.469" r="2.5" fill="rgb(86,86,86)" />
	<circle cx="283.687" cy="301.322" r="2.5" fill="rgb(86,86,86)" />
	<circle cx="177.519" cy="299.559" r="2.5" fill="rgb(85,85,85)" />
	<circle cx="153.262" cy="375.94" r="2.5" fill="rgb(84,84,84)" />
	<circle cx="350.914" cy="437.569" r="2.5" fill="rgb(84,84,84)" />
	<circle cx="458.401" cy="470.959" r="2.5" fill="rgb(84,84,84)" />
	<circle cx="128.802" cy="223.643" r="2.5" fill="rgb(84,84,84)" />
	<circle cx="436.26" cy="475.663" r="2.5" fill="rgb(83,83,83)" />
	<circle cx="264.442" cy="301.342" r="2.5" fill="rgb(83,83,83)" />
	<circle cx="107.102" cy="228.194" r="2.5" fill="rgb(78,78,78)" />
	<circle cx="26.2235" cy="364.66" r="2.5" fill="rgb(75,75,75)" />
	<circle cx="261.581" cy="312.42" r="2.5" fill="rgb(75,75,75)" />
	<circle cx="43.0393" cy="418.961" r="2.5" fill="rgb(75,75,75)" />
	<circle cx="34.2913" cy="399.013" r="2.5" fill="rgb(74,74,74)" />
	<circle cx="445.388" cy="482.427" r="2.5" fill="rgb(74,74,74)" />
	<circle cx="334.529" cy="472.59" r="2.5" fill="rgb(74,74,74)" />
	<circle cx="335.086" cy="462.688" r="2.5" fill="rgb(74,74,74)" />
	<circle cx="442.744" cy="418.216" r="2.5" fill="rgb(73,73,73)" />
	<circle cx="103.598" cy="243.575" r="2.5" fill="rgb(71,71,71)" />
	<circle cx="231.436" cy="437.163" r="2.5" fill="rgb(71,71,71)" />
	<circle cx="24.2496" cy="249.463" r="2.5" fill="rgb(69,69,69)" />
	<circle cx="79.3121" cy="423.576" r="2.5" fill="rgb(69,69,69)" />
	<circle cx="143.279" cy="488.067" r="2.5" fill="rgb(69,69,69)" />
	<circle cx="5.44299" cy="437.522" r="2.5" fill="rgb(69,69,69)" />
	<circle cx="452.209" cy="484.058" r="2.5" fill="rgb(68,68,68)" />
	<circle cx="34.1601" cy="256.28" r="2.5" fill="rgb(67,67,67)" />
	<circle cx="95.4687" cy="301.067" r="2.5" fill="rgb(67,67,67)" />
	<circle cx="193.624" cy="299.577" r="2.5" fill="rgb(66,66,66)" />
	<circle cx="146.804" cy="284.444" r="2.5" fill="rgb(66,66,66)" />
	<circle cx="214.58" cy="461.104" r="2.5" fill="rgb(66,66,66)" />
	<circle cx="147.767" cy="286.719" r="2.5" fill="rgb(65,65,65)" />
	<circle cx="97.0837" cy="256.384" r="2.5" fill="rgb(65,65,65)" />
	<circle cx="196.397" cy="449.725" r="2.5" fill="rgb(64,64,64)" />
	<circle cx="149.538" cy="458.913" r="2.5" fill="rgb(64,64,64)" />
	<circle cx="86.4726" cy="348.115" r="2.5" fill="rgb(63,63,63)" />
	<circle cx="432.065" cy="426.92" r="2.5" fill="rgb(63,63,63)" />
	<circle cx="42.3191" cy="333.158" r="2.5" fill="rgb(63,63,63)" />
	<circle cx="225.527" cy="451.636" r="2.5" fill="rgb(63,63,63)" />
	<circle cx="437.928" cy="493.372" r="2.5" fill="rgb(62,62,62)" />
	<circle cx="46.4408" cy="448.034" r="2.5" fill="rgb(61,61,61)" />
	<circle cx="27.3593" cy="269.295" r="2.5" fill="rgb(61,61,61)" />
	<circle cx="23.0392" cy="381.97" r="2.5" fill="rgb(60,60,60)" />
	<circle cx="80.6502" cy="317.638" r="2.5" fill="rgb(59,59,59)" />
	<circle cx="260.162" cy="462.812" r="2.5" fill="rgb(59,59,59)" />
	<circle cx="425.032" cy="430.658" r="2.5" fill="rgb(59,59,59)" />
	<circle cx="391.265" cy="432.818" r="2.5" fill="rgb(59,59,59)" />
	<circle cx="205.46" cy="472.818" r="2.5" fill="rgb(59,59,59)" />
	<circle cx="156.965" cy="305.001" r="2.5" fill="rgb(58,58,58)" />
	<circle cx="103.488" cy="274.631" r="2.5" fill="rgb(58,58,58)" />
	<circle cx="24.226" cy="460.891" r="2.5" fill="rgb(57,57,57)" />
	<circle cx="7.30918" cy="434.502" r="2.5" fill="rgb(56,56,56)" />
	<circle cx="40.2606" cy="399.575" r="2.5" fill="rgb(56,56,56)" />
	<circle cx="160.367" cy="301.81" r="2.5" fill="rgb(56,56,56)" />
	<circle cx="19.871" cy="282.613" r="2.5" fill="rgb(54,54,54)" />
	<circle cx="195.75" cy="468.745" r="2.5" fill="rgb(54,54,54)" />
	<circle cx="18.3331" cy="288.565" r="2.5" fill="rgb(53,53,53)" />
	<circle cx="4.28806" cy="366.233" r="2.5" fill="rgb(53,53,53)" />
	<circle cx="12.6522" cy="378.025" r="2.5" fill="rgb(53,53,53)" />
	<circle cx="473.471" cy="494.256" r="2.5" fill="rgb(53,53,53)" />
	<circle cx="104.9" cy="287.838" r="2.5" fill="rgb(53,53,53)" />
	<circle cx="18.9485" cy="364.485" r="2.5" fill="rgb(52,52,52)" />
	<circle cx="214.606" cy="451.349" r="2.5" fill="rgb(51,51,51)" />
	<circle cx="122.32" cy="298.088" r="2.5" fill="rgb(51,51,51)" />
	<circle cx="258.207" cy="472.521" r="2.5" fill="rgb(51,51,51)" />
	<circle cx="415.647" cy="438.46" r="2.5" fill="rgb(50,50,50)" />
	<circle cx="32.4985" cy="285.839" r="2.5" fill="rgb(50,50,50)" />
	<circle cx="298.663" cy="418.768" r="2.5" fill="rgb(50,50,50)" />
	<circle cx="266.423" cy="475.424" r="2.5" fill="rgb(50,50,50)" />
	<circle cx="35.659" cy="424.502" r="2.5" fill="rgb(49,49,49)" />
	<circle cx="241.163" cy="465.168" r="2.5" fill="rgb(48,48,48)" />
	<circle cx="241.17" cy="458.181" r="2.5" fill="rgb(48,48,48)" />
	<circle cx="38.064" cy="430.433" r="2.5" fill="rgb(48,48,48)" />
	<circle cx="26.9177" cy="289.076" r="2.5" fill="rgb(48,48,48)" />
	<circle cx="252.532" cy="458.301" r="2.5" fill="rgb(47,47,47)" />
	<circle cx="261.342" cy="435.945" r="2.5" fill="rgb(47,47,47)" />
	<circle cx="287.219" cy="480.509" r="2.5" fill="rgb(47,47,47)" />
	<circle cx="290.541" cy="462.969" r="2.5" fill="rgb(47,47,47)" />
	<circle cx="90.5126" cy="299.158" r="2.5" fill="rgb(46,46,46)" />
	<circle cx="13.1706" cy="367.731" r="2.5" fill="rgb(45,45,45)" />
	<circle cx="90.8015" cy="310.397" r="2.5" fill="rgb(42,42,42)" />
	<circle cx="311.604" cy="428.974" r="2.5" fill="rgb(41,41,41)" />
	<circle cx="9.46345" cy="339.97" r="2.5" fill="rgb(41,41,41)" />
	<circle cx="20.7614" cy="305.895" r="2.5" fill="rgb(41,41,41)" />
	<circle cx="358.129" cy="443.942" r="2.5" fill="rgb(39,39,39)" />
	<circle cx="239.16" cy="371.882" r="2.5" fill="rgb(39,39,39)" />
	<circle cx="0.623168" cy="392.446" r="2.5" fill="rgb(39,39,39)" />
	<circle cx="11.2136" cy="353.634" r="2.5" fill="rgb(37,37,37)" />
	<circle cx="47.934" cy="463.661" r="2.5" fill="rgb(35,35,35)" />
	<circle cx="109.048" cy="446.972" r="2.5" fill="rgb(33,33,33)" />
	<circle cx="70.212" cy="328.26" r="2.5" fill="rgb(33,33,33)" />
	<circle cx="121.997" cy="425.47" r="2.5" fill="rgb(32,32,32)" />
	<circle cx="231.546" cy="383.451" r="2.5" fill="rgb(32,32,32)" />
	<circle cx="291.983" cy="442.894" r="2.5" fill="rgb(30,30,30)" />
	<circle cx="111.326" cy="443.116" r="2.5" fill="rgb(30,30,30)" />
	<circle cx="128.47" cy="421.002" r="2.5" fill="rgb(30,30,30)" />
	<circle cx="248.228" cy="392.127" r="2.5" fill="rgb(29,29,29)" />
	<circle cx="16.8673" cy="409.986" r="2.5" fill="rgb(29,29,29)" />
	<circle cx="34.8297" cy="475.628" r="2.5" fill="rgb(29,29,29)" />
	<circle cx="65.2878" cy="442.802" r="2.5" fill="rgb(29,29,29)" />
	<circle cx="82.7025" cy="342.784" r="2.5" fill="rgb(28,28,28)" />
	<circle cx="17.5883" cy="383.715" r="2.5" fill="rgb(28,28,28)" />
	<circle cx="15.5134" cy="491.596" r="2.5" fill="rgb(27,27,27)" />
	<circle cx="25.6445" cy="450.16" r="2.5" fill="rgb(27,27,27)" />
	<circle cx="45.0506" cy="403.102" r="2.5" fill="rgb(25,25,25)" />
	<circle cx="74.0796" cy="352.89" r="2.5" fill="rgb(24,24,24)" />
	<circle cx="80.9485" cy="354.423" r="2.5" fill="rgb(24,24,24)" />
	<circle cx="161.436" cy="428.213" r="2.5" fill="rgb(24,24,24)" />
	<circle cx="223.108" cy="397.12" r="2.5" fill="rgb(24,24,24)" />
	<circle cx="179.618" cy="389.793" r="2.5" fill="rgb(24,24,24)" />
	<circle cx="182.053" cy="389.988" r="2.5" fill="rgb(23,23,23)" />
	<circle cx="19.4142" cy="492.577" r="2.5" fill="rgb(23,23,23)" />
	<circle cx="75.8951" cy="461.449" r="2.5" fill="rgb(22,22,22)" />
	<circle cx="88.6747" cy="467.32" r="2.5" fill="rgb(21,21,21)" />
	<circle cx="136.591" cy="402.537" r="2.5" fill="rgb(19,19,19)" />
	<circle cx="22.3026" cy="423.487" r="2.5" fill="rgb(19,19,19)" />
	<circle cx="107.922" cy="447.366" r="2.5" fill="rgb(19,19,19)" />
	<circle cx="107.824" cy="432.88" r="2.5" fill="rgb(19,19,19)" />
	<circle cx="118.128" cy="433.664" r="2.5" fill="rgb(18,18,18)" />
	<circle cx="75.8392" cy="375.67" r="2.5" fill="rgb(16,16,16)" />
	<circle cx="108.657" cy="377.179" r="2.5" fill="rgb(16,16,16)" />
	<circle cx="69.8174" cy="377.047" r="2.5" fill="rgb(15,15,15)" />
	<circle cx="121.714" cy="381.061" r="2.5" fill="rgb(15,15,15)" />
	<circle cx="174.737" cy="409.313" r="2.5" fill="rgb(13,13,13)" />
	<circle cx="14.3812" cy="384.892" r="2.5" fill="rgb(13,13,13)" />
	<circle cx="6.87481" cy="410.605" r="2.5" fill="rgb(8,8,8)" />
	<circle cx="55.8631" cy="398.597" r="2.5" fill="rgb(7,7,7)" />
	<circle cx="88.8182" cy="397.348" r="2.5" fill="rgb(7,7,7)" />
	<circle cx="108.244" cy="400.164" r="2.5" fill="rgb(7,7,7)" />
	<circle cx="0.979879" cy="463.817" r="2.5" fill="rgb(6,6,6)" />
	<circle cx="83.3333" cy="416.667" r="2" fill="rgb(255,0,0)" />
	<circle cx="416.667" cy="83.3333" r="2" fill="rgb(0,255,0)" />
	<circle cx="83.3333" cy="416.667" r="2" fill="rgb(0,255,0)" />
	<circle cx="114.248" cy="396.309" r="2" fill="rgb(0,255,0)" />
	<circle cx="134.24" cy="376.499" r="2" fill="rgb(0,255,0)" />
	<circle cx="125.499" cy="358.365" r="2" fill="rgb(0,255,0)" />
	<circle cx="100.629" cy="341.389" r="2" fill="rgb(0,255,0)" />
	<circle cx="99.8796" cy="325.341" r="2" fill="rgb(0,255,0)" />
	<circle cx="18.5433" cy="307.744" r="2" fill="rgb(0,255,0)" />
	<circle cx="36.2518" cy="291.281" r="2" fill="rgb(0,255,0)" />
	<circle cx="24.5918" cy="272.885" r="2" fill="rgb(0,255,0)" />
	<circle cx="29.1383" cy="253.583" r="2" fill="rgb(0,255,0)" />
	<circle cx="26.3998" cy="234.828" r="2" fill="rgb(0,255,0)" />
	<circle cx="22.5969" cy="222.576" r="2" fill="rgb(0,255,0)" />
	<circle cx="66.4122" cy="215.386" r="2" fill="rgb(0,255,0)" />
	<circle cx="118.469" cy="242.577" r="2" fill="rgb(0,255,0)" />
	<circle cx="143.433" cy="233.102" r="2" fill="rgb(0,255,0)" />
	<circle cx="178.633" cy="228.147" r="2" fill="rgb(0,255,0)" />
	<circle cx="184.437" cy="213.011" r="2" fill="rgb(0,255,0)" />
	<circle cx="231.322" cy="218.515" r="2" fill="rgb(0,255,0)" />
	<circle cx="232.227" cy="201.208" r="2" fill="rgb(0,255,0)" />
	<circle cx="265.709" cy="206.747" r="2" fill="rgb(0,255,0)" />
	<circle cx="293.205" cy="212.367" r="2" fill="rgb(0,255,0)" />
	<circle cx="310.699" cy="206.407" r="2" fill="rgb(0,255,0)" />
	<circle cx="326.331" cy="204.596" r="2" fill="rgb(0,255,0)" />
	<circle cx="328.192" cy="192.959" r="2" fill="rgb(0,255,0)" />
	<circle cx="340.393" cy="183.177" r="2" fill="rgb(0,255,0)" />
	<circle cx="345.302" cy="170.899" r="2" fill="rgb(0,255,0)" />
	<circle cx="366.135" cy="161.565" r="2" fill="rgb(0,255,0)" />
	<circle cx="367.455" cy="147.864" r="2" fill="rgb(0,255,0)" />
	<circle cx="381.195" cy="143.059" r="2" fill="rgb(0,255,0)" />
	<circle cx="404.889" cy="133.115" r="2" fill="rgb(0,255,0)" />
	<circle cx="384.102" cy="121.949" r="2" fill="rgb(0,255,0)" />
	<circle cx="384.971" cy="110.408" r="2" fill="rgb(0,255,0)" />
	<circle cx="413.349" cy="92.7975" r="2" fill="rgb(0,255,0)" />
	<circle cx="415.621" cy="82.6772" r="2" fill="rgb(0,255,0)" />
</svg>
