<?xml version="1.0" standalone="no" ?>
<!DOCTYPE svg PUBLIC "-//W3C//DTD SVG 1.1//EN" "http://www.w3.org/Graphics/SVG/1.1/DTD/svg11.dtd">
<svg width="500px" height="500px" xmlns="http://www.w3.org/2000/svg" version="1.1" >
	<polyline points="83.3333,416.667 117.036,402.284 " fill="transparent" stroke-width="0.5" stroke="rgb(0,0,255)" />
	<polyline points="117.036,402.284 51.6708,437.946 " fill="transparent" stroke-width="0.5" stroke="rgb(0,0,255)" />
	<polyline points="117.036,402.284 44.7274,416.666 " fill="transparent" stroke-width="0.5" stroke="rgb(0,0,255)" />
	<polyline points="117.036,402.284 196.306,415.148 " fill="transparent" stroke-width="0.5" stroke="rgb(0,0,255)" />
	<polyline points="196.306,415.148 199.777,405.785 " fill="transparent" stroke-width="0.5" stroke="rgb(0,0,255)" />
	<polyline points="196.306,415.148 311.871,494.545 " fill="transparent" stroke-width="0.5" stroke="rgb(0,0,255)" />
	<polyline points="311.871,494.545 275.929,494.436 " fill="transparent" stroke-width="0.5" stroke="rgb(0,0,255)" />
	<polyline points="311.871,494.545 262.342,495.131 " fill="transparent" stroke-width="0.5" stroke="rgb(0,0,255)" />
	<polyline points="262.342,495.131 233.988,483.599 " fill="transparent" stroke-width="0.5" stroke="rgb(0,0,255)" />
	<polyline points="311.871,494.545 366.788,483.731 " fill="transparent" stroke-width="0.5" stroke="rgb(0,0,255)" />
	<polyline points="366.788,483.731 419.177,479.704 " fill="transparent" stroke-width="0.5" stroke="rgb(0,0,255)" />
	<polyline points="419.177,479.704 455.905,472.773 " fill="transparent" stroke-width="0.5" stroke="rgb(0,0,255)" />
	<polyline points="455.905,472.773 453.507,464.142 " fill="transparent" stroke-width="0.5" stroke="rgb(0,0,255)" />
	<polyline points="455.905,472.773 436.279,463.341 " fill="transparent" stroke-width="0.5" stroke="rgb(0,0,255)" />
	<polyline points="436.279,463.341 353.506,495.679 " fill="transparent" stroke-width="0.5" stroke="rgb(0,0,255)" />
	<polyline points="419.177,479.704 399.007,473.007 " fill="transparent" stroke-width="0.5" stroke="rgb(0,0,255)" />
	<polyline points="399.007,473.007 313.891,482.276 " fill="transparent" stroke-width="0.5" stroke="rgb(0,0,255)" />
	<polyline points="313.891,482.276 246.988,497.337 " fill="transparent" stroke-width="0.5" stroke="rgb(0,0,255)" />
	<polyline points="399.007,473.007 298.981,494.39 " fill="transparent" stroke-width="0.5" stroke="rgb(0,0,255)" />
	<polyline points="196.306,415.148 194.679,396.131 " fill="transparent" stroke-width="0.5" stroke="rgb(0,0,255)" />
	<polyline points="194.679,396.131 196.27,386.723 " fill="transparent" stroke-width="0.5" stroke="rgb(0,0,255)" />
	<polyline points="194.679,396.131 183.244,380.472 " fill="transparent" stroke-width="0.5" stroke="rgb(0,0,255)" />
	<polyline points="194.679,396.131 116.601,401.603 " fill="transparent" stroke-width="0.5" stroke="rgb(0,0,255)" />
	<polyline points="194.679,396.131 212.056,379.068 " fill="transparent" stroke-width="0.5" stroke="rgb(0,0,255)" />
	<polyline points="212.056,379.068 280.279,423.034 " fill="transparent" stroke-width="0.5" stroke="rgb(0,0,255)" />
	<polyline points="280.279,423.034 246.143,412.824 " fill="transparent" stroke-width="0.5" stroke="rgb(0,0,255)" />
	<polyline points="212.056,379.068 212.003,362.536 " fill="transparent" stroke-width="0.5" stroke="rgb(0,0,255)" />
	<polyline points="212.003,362.536 229.172,348.99 " fill="transparent" stroke-width="0.5" stroke="rgb(0,0,255)" />
	<polyline points="229.172,348.99 239.615,334.884 " fill="transparent" stroke-width="0.5" stroke="rgb(0,0,255)" />
	<polyline points="239.615,334.884 213.615,322.317 " fill="transparent" stroke-width="0.5" stroke="rgb(0,0,255)" />
	<polyline points="239.615,334.884 261.837,324.241 " fill="transparent" stroke-width="0.5" stroke="rgb(0,0,255)" />
	<polyline points="261.837,324.241 275.07,310.426 " fill="transparent" stroke-width="0.5" stroke="rgb(0,0,255)" />
	<polyline points="275.07,310.426 287.497,305.33 " fill="transparent" stroke-width="0.5" stroke="rgb(0,0,255)" />
	<polyline points="287.497,305.33 214.04,299.525 " fill="transparent" stroke-width="0.5" stroke="rgb(0,0,255)" />
	<polyline points="287.497,305.33 210.151,327.603 " fill="transparent" stroke-width="0.5" stroke="rgb(0,0,255)" />
	<polyline points="287.497,305.33 186.898,322.208 " fill="transparent" stroke-width="0.5" stroke="rgb(0,0,255)" />
	<polyline points="287.497,305.33 214.924,310.533 " fill="transparent" stroke-width="0.5" stroke="rgb(0,0,255)" />
	<polyline points="287.497,305.33 189.388,360.989 " fill="transparent" stroke-width="0.5" stroke="rgb(0,0,255)" />
	<polyline points="287.497,305.33 238.232,379.735 " fill="transparent" stroke-width="0.5" stroke="rgb(0,0,255)" />
	<polyline points="261.837,324.241 316.744,336.692 " fill="transparent" stroke-width="0.5" stroke="rgb(0,0,255)" />
	<polyline points="316.744,336.692 344.061,326.804 " fill="transparent" stroke-width="0.5" stroke="rgb(0,0,255)" />
	<polyline points="344.061,326.804 367.163,318.097 " fill="transparent" stroke-width="0.5" stroke="rgb(0,0,255)" />
	<polyline points="367.163,318.097 371.117,305.92 " fill="transparent" stroke-width="0.5" stroke="rgb(0,0,255)" />
	<polyline points="371.117,305.92 305.73,327.893 " fill="transparent" stroke-width="0.5" stroke="rgb(0,0,255)" />
	<polyline points="367.163,318.097 306.114,324.706 " fill="transparent" stroke-width="0.5" stroke="rgb(0,0,255)" />
	<polyline points="367.163,318.097 277.617,338.301 " fill="transparent" stroke-width="0.5" stroke="rgb(0,0,255)" />
	<polyline points="316.744,336.692 250.212,331.367 " fill="transparent" stroke-width="0.5" stroke="rgb(0,0,255)" />
	<polyline points="316.744,336.692 200.604,347.231 " fill="transparent" stroke-width="0.5" stroke="rgb(0,0,255)" />
	<polyline points="316.744,336.692 241.387,355.003 " fill="transparent" stroke-width="0.5" stroke="rgb(0,0,255)" />
	<polyline points="316.744,336.692 378.956,396.866 " fill="transparent" stroke-width="0.5" stroke="rgb(0,0,255)" />
	<polyline points="378.956,396.866 308.006,443.855 " fill="transparent" stroke-width="0.5" stroke="rgb(0,0,255)" />
	<polyline points="378.956,396.866 282.166,449.661 " fill="transparent" stroke-width="0.5" stroke="rgb(0,0,255)" />
	<polyline points="378.956,396.866 306.122,393.378 " fill="transparent" stroke-width="0.5" stroke="rgb(0,0,255)" />
	<polyline points="378.956,396.866 308.547,396.245 " fill="transparent" stroke-width="0.5" stroke="rgb(0,0,255)" />
	<polyline points="378.956,396.866 336.268,395.915 " fill="transparent" stroke-width="0.5" stroke="rgb(0,0,255)" />
	<polyline points="336.268,395.915 339.915,385.831 " fill="transparent" stroke-width="0.5" stroke="rgb(0,0,255)" />
	<polyline points="316.744,336.692 219.415,352.697 " fill="transparent" stroke-width="0.5" stroke="rgb(0,0,255)" />
	<polyline points="261.837,324.241 177.463,334.85 " fill="transparent" stroke-width="0.5" stroke="rgb(0,0,255)" />
	<polyline points="229.172,348.99 112.624,416.494 " fill="transparent" stroke-width="0.5" stroke="rgb(0,0,255)" />
	<polyline points="212.003,362.536 179.169,348.876 " fill="transparent" stroke-width="0.5" stroke="rgb(0,0,255)" />
	<polyline points="179.169,348.876 154.892,338.091 " fill="transparent" stroke-width="0.5" stroke="rgb(0,0,255)" />
	<polyline points="154.892,338.091 166.253,320.15 " fill="transparent" stroke-width="0.5" stroke="rgb(0,0,255)" />
	<polyline points="166.253,320.15 168.505,308.64 " fill="transparent" stroke-width="0.5" stroke="rgb(0,0,255)" />
	<polyline points="168.505,308.64 168.754,292.775 " fill="transparent" stroke-width="0.5" stroke="rgb(0,0,255)" />
	<polyline points="168.754,292.775 173.603,284.228 " fill="transparent" stroke-width="0.5" stroke="rgb(0,0,255)" />
	<polyline points="173.603,284.228 168.941,271.219 " fill="transparent" stroke-width="0.5" stroke="rgb(0,0,255)" />
	<polyline points="168.941,271.219 93.4606,303.052 " fill="transparent" stroke-width="0.5" stroke="rgb(0,0,255)" />
	<polyline points="168.941,271.219 174.203,259.069 " fill="transparent" stroke-width="0.5" stroke="rgb(0,0,255)" />
	<polyline points="174.203,259.069 177.194,250.275 " fill="transparent" stroke-width="0.5" stroke="rgb(0,0,255)" />
	<polyline points="177.194,250.275 189.624,245.425 " fill="transparent" stroke-width="0.5" stroke="rgb(0,0,255)" />
	<polyline points="189.624,245.425 152.633,221.884 " fill="transparent" stroke-width="0.5" stroke="rgb(0,0,255)" />
	<polyline points="152.633,221.884 157.925,211.882 " fill="transparent" stroke-width="0.5" stroke="rgb(0,0,255)" />
	<polyline points="157.925,211.882 180.939,213.275 " fill="transparent" stroke-width="0.5" stroke="rgb(0,0,255)" />
	<polyline points="180.939,213.275 84.2463,299.921 " fill="transparent" stroke-width="0.5" stroke="rgb(0,0,255)" />
	<polyline points="157.925,211.882 115.244,186.859 " fill="transparent" stroke-width="0.5" stroke="rgb(0,0,255)" />
	<polyline points="189.624,245.425 61.6311,277.395 " fill="transparent" stroke-width="0.5" stroke="rgb(0,0,255)" />
	<polyline points="189.624,245.425 96.8282,224.032 " fill="transparent" stroke-width="0.5" stroke="rgb(0,0,255)" />
	<polyline points="96.8282,224.032 85.366,210.78 " fill="transparent" stroke-width="0.5" stroke="rgb(0,0,255)" />
	<polyline points="177.194,250.275 87.8329,343.939 " fill="transparent" stroke-width="0.5" stroke="rgb(0,0,255)" />
	<polyline points="177.194,250.275 111.722,346.668 " fill="transparent" stroke-width="0.5" stroke="rgb(0,0,255)" />
	<polyline points="177.194,250.275 75.2113,287.405 " fill="transparent" stroke-width="0.5" stroke="rgb(0,0,255)" />
	<polyline points="177.194,250.275 101.878,286.427 " fill="transparent" stroke-width="0.5" stroke="rgb(0,0,255)" />
	<polyline points="177.194,250.275 102.676,288.985 " fill="transparent" stroke-width="0.5" stroke="rgb(0,0,255)" />
	<polyline points="177.194,250.275 92.9626,328.311 " fill="transparent" stroke-width="0.5" stroke="rgb(0,0,255)" />
	<polyline points="177.194,250.275 58.8369,324.972 " fill="transparent" stroke-width="0.5" stroke="rgb(0,0,255)" />
	<polyline points="177.194,250.275 52.2099,305.763 " fill="transparent" stroke-width="0.5" stroke="rgb(0,0,255)" />
	<polyline points="168.754,292.775 81.085,315.936 " fill="transparent" stroke-width="0.5" stroke="rgb(0,0,255)" />
	<polyline points="81.085,315.936 48.6454,292.278 " fill="transparent" stroke-width="0.5" stroke="rgb(0,0,255)" />
	<polyline points="48.6454,292.278 37.8148,277.865 " fill="transparent" stroke-width="0.5" stroke="rgb(0,0,255)" />
	<polyline points="37.8148,277.865 26.5267,260.393 " fill="transparent" stroke-width="0.5" stroke="rgb(0,0,255)" />
	<polyline points="26.5267,260.393 17.7171,388.659 " fill="transparent" stroke-width="0.5" stroke="rgb(0,0,255)" />
	<polyline points="37.8148,277.865 19.5638,418.136 " fill="transparent" stroke-width="0.5" stroke="rgb(0,0,255)" />
	<polyline points="37.8148,277.865 4.13554,371.78 " fill="transparent" stroke-width="0.5" stroke="rgb(0,0,255)" />
	<polyline points="81.085,315.936 28.3446,414.933 " fill="transparent" stroke-width="0.5" stroke="rgb(0,0,255)" />
	<polyline points="81.085,315.936 39.5958,389.753 " fill="transparent" stroke-width="0.5" stroke="rgb(0,0,255)" />
	<polyline points="168.754,292.775 87.2415,346.023 " fill="transparent" stroke-width="0.5" stroke="rgb(0,0,255)" />
	<polyline points="212.056,379.068 129.968,384.746 " fill="transparent" stroke-width="0.5" stroke="rgb(0,0,255)" />
	<polyline points="129.968,384.746 54.5217,461.972 " fill="transparent" stroke-width="0.5" stroke="rgb(0,0,255)" />
	<polyline points="129.968,384.746 55.5853,396.918 " fill="transparent" stroke-width="0.5" stroke="rgb(0,0,255)" />
	<polyline points="55.5853,396.918 58.6742,376.306 " fill="transparent" stroke-width="0.5" stroke="rgb(0,0,255)" />
	<polyline points="58.6742,376.306 55.4801,360.591 " fill="transparent" stroke-width="0.5" stroke="rgb(0,0,255)" />
	<polyline points="55.4801,360.591 56.4812,345.625 " fill="transparent" stroke-width="0.5" stroke="rgb(0,0,255)" />
	<polyline points="55.4801,360.591 13.4902,354.137 " fill="transparent" stroke-width="0.5" stroke="rgb(0,0,255)" />
	<polyline points="13.4902,354.137 19.4074,331.569 " fill="transparent" stroke-width="0.5" stroke="rgb(0,0,255)" />
	<polyline points="19.4074,331.569 24.1522,312.904 " fill="transparent" stroke-width="0.5" stroke="rgb(0,0,255)" />
	<polyline points="13.4902,354.137 9.13502,422.933 " fill="transparent" stroke-width="0.5" stroke="rgb(0,0,255)" />
	<polyline points="212.056,379.068 142.832,395.795 " fill="transparent" stroke-width="0.5" stroke="rgb(0,0,255)" />
	<polyline points="196.306,415.148 143.928,425.349 " fill="transparent" stroke-width="0.5" stroke="rgb(0,0,255)" />
	<polyline points="143.928,425.349 58.2249,429.813 " fill="transparent" stroke-width="0.5" stroke="rgb(0,0,255)" />
	<polyline points="143.928,425.349 64.8049,431.195 " fill="transparent" stroke-width="0.5" stroke="rgb(0,0,255)" />
	<polyline points="143.928,425.349 169.495,410.653 " fill="transparent" stroke-width="0.5" stroke="rgb(0,0,255)" />
	<circle cx="83.3333" cy="416.667" r="2" fill="rgb(255,0,0)" />
	<circle cx="416.667" cy="83.3333" r="2" fill="rgb(0,255,0)" />
	<polyline points="83.3333,416.667 75.2622,394.345 87.7224,371.276 94.0732,353.263 97.5169,342.257 112.542,329.927 164.569,329.195 207.923,322.544 231.412,318.204 277.694,319.229 293.088,309.704 325.854,302.309 314.136,291.422 320.575,280.653 325.278,274.178 345.096,264.283 380.695,259.245 388.606,253.681 393.885,241.578 397.03,234.815 396.518,222.867 405.326,210.834 454.132,206.302 460.69,188.78 456.25,170.737 449.327,158.564 436.645,147.665 427.714,134.206 410.266,120.488 413.191,103.855 417.954,85.7578 " fill="transparent" stroke-width="3" stroke="rgb(0,0,0)" />
</svg>
