<?xml version="1.0" standalone="no" ?>
<!DOCTYPE svg PUBLIC "-//W3C//DTD SVG 1.1//EN" "http://www.w3.org/Graphics/SVG/1.1/DTD/svg11.dtd">
<svg width="500px" height="500px" xmlns="http://www.w3.org/2000/svg" version="1.1" >
	<polyline points="83.3333,416.667 108.137,397.59 " fill="transparent" stroke-width="0.5" stroke="rgb(0,0,255)" />
	<polyline points="83.3333,416.667 10.3682,454.388 " fill="transparent" stroke-width="0.5" stroke="rgb(0,0,255)" />
	<polyline points="10.3682,454.388 12.3651,439.571 " fill="transparent" stroke-width="0.5" stroke="rgb(0,0,255)" />
	<polyline points="10.3682,454.388 21.6053,433.665 " fill="transparent" stroke-width="0.5" stroke="rgb(0,0,255)" />
	<polyline points="10.3682,454.388 25.6755,433.934 " fill="transparent" stroke-width="0.5" stroke="rgb(0,0,255)" />
	<polyline points="83.3333,416.667 106.875,397.35 " fill="transparent" stroke-width="0.5" stroke="rgb(0,0,255)" />
	<polyline points="106.875,397.35 166.747,392.28 " fill="transparent" stroke-width="0.5" stroke="rgb(0,0,255)" />
	<polyline points="166.747,392.28 129.034,387.639 " fill="transparent" stroke-width="0.5" stroke="rgb(0,0,255)" />
	<polyline points="129.034,387.639 132.453,377.039 " fill="transparent" stroke-width="0.5" stroke="rgb(0,0,255)" />
	<polyline points="166.747,392.28 70.4187,397.511 " fill="transparent" stroke-width="0.5" stroke="rgb(0,0,255)" />
	<polyline points="166.747,392.28 106.04,468.974 " fill="transparent" stroke-width="0.5" stroke="rgb(0,0,255)" />
	<polyline points="106.04,468.974 173.086,477.519 " fill="transparent" stroke-width="0.5" stroke="rgb(0,0,255)" />
	<polyline points="166.747,392.28 77.8887,417.656 " fill="transparent" stroke-width="0.5" stroke="rgb(0,0,255)" />
	<polyline points="77.8887,417.656 84.148,398.114 " fill="transparent" stroke-width="0.5" stroke="rgb(0,0,255)" />
	<polyline points="84.148,398.114 109.675,377.945 " fill="transparent" stroke-width="0.5" stroke="rgb(0,0,255)" />
	<polyline points="106.875,397.35 117.686,384.786 " fill="transparent" stroke-width="0.5" stroke="rgb(0,0,255)" />
	<polyline points="117.686,384.786 117.099,373.496 " fill="transparent" stroke-width="0.5" stroke="rgb(0,0,255)" />
	<polyline points="117.099,373.496 163.913,368.812 " fill="transparent" stroke-width="0.5" stroke="rgb(0,0,255)" />
	<polyline points="163.913,368.812 61.0575,374.577 " fill="transparent" stroke-width="0.5" stroke="rgb(0,0,255)" />
	<polyline points="61.0575,374.577 10.5878,415.845 " fill="transparent" stroke-width="0.5" stroke="rgb(0,0,255)" />
	<polyline points="163.913,368.812 183.026,362.677 " fill="transparent" stroke-width="0.5" stroke="rgb(0,0,255)" />
	<polyline points="183.026,362.677 203.035,353.001 " fill="transparent" stroke-width="0.5" stroke="rgb(0,0,255)" />
	<polyline points="183.026,362.677 248.097,361.892 " fill="transparent" stroke-width="0.5" stroke="rgb(0,0,255)" />
	<polyline points="248.097,361.892 168.142,350.203 " fill="transparent" stroke-width="0.5" stroke="rgb(0,0,255)" />
	<polyline points="248.097,361.892 251.954,346.999 " fill="transparent" stroke-width="0.5" stroke="rgb(0,0,255)" />
	<polyline points="248.097,361.892 161.694,368.109 " fill="transparent" stroke-width="0.5" stroke="rgb(0,0,255)" />
	<polyline points="248.097,361.892 276.199,359.82 " fill="transparent" stroke-width="0.5" stroke="rgb(0,0,255)" />
	<polyline points="276.199,359.82 358.525,398.784 " fill="transparent" stroke-width="0.5" stroke="rgb(0,0,255)" />
	<polyline points="358.525,398.784 249.93,437.863 " fill="transparent" stroke-width="0.5" stroke="rgb(0,0,255)" />
	<polyline points="249.93,437.863 194.087,428.92 " fill="transparent" stroke-width="0.5" stroke="rgb(0,0,255)" />
	<polyline points="358.525,398.784 360.445,391.772 " fill="transparent" stroke-width="0.5" stroke="rgb(0,0,255)" />
	<polyline points="360.445,391.772 411.127,445.754 " fill="transparent" stroke-width="0.5" stroke="rgb(0,0,255)" />
	<polyline points="411.127,445.754 408.342,434.024 " fill="transparent" stroke-width="0.5" stroke="rgb(0,0,255)" />
	<polyline points="411.127,445.754 414.129,432.564 " fill="transparent" stroke-width="0.5" stroke="rgb(0,0,255)" />
	<polyline points="360.445,391.772 295.453,384.823 " fill="transparent" stroke-width="0.5" stroke="rgb(0,0,255)" />
	<polyline points="358.525,398.784 268.179,467.663 " fill="transparent" stroke-width="0.5" stroke="rgb(0,0,255)" />
	<polyline points="268.179,467.663 275.398,457.372 " fill="transparent" stroke-width="0.5" stroke="rgb(0,0,255)" />
	<polyline points="268.179,467.663 263.503,454.844 " fill="transparent" stroke-width="0.5" stroke="rgb(0,0,255)" />
	<polyline points="263.503,454.844 286.486,443.497 " fill="transparent" stroke-width="0.5" stroke="rgb(0,0,255)" />
	<polyline points="286.486,443.497 241.534,435.129 " fill="transparent" stroke-width="0.5" stroke="rgb(0,0,255)" />
	<polyline points="358.525,398.784 312.928,392.713 " fill="transparent" stroke-width="0.5" stroke="rgb(0,0,255)" />
	<polyline points="276.199,359.82 279.341,348.826 " fill="transparent" stroke-width="0.5" stroke="rgb(0,0,255)" />
	<polyline points="276.199,359.82 274.873,345.012 " fill="transparent" stroke-width="0.5" stroke="rgb(0,0,255)" />
	<polyline points="274.873,345.012 289.123,336.174 " fill="transparent" stroke-width="0.5" stroke="rgb(0,0,255)" />
	<polyline points="289.123,336.174 302.688,322.78 " fill="transparent" stroke-width="0.5" stroke="rgb(0,0,255)" />
	<polyline points="302.688,322.78 317.221,311.732 " fill="transparent" stroke-width="0.5" stroke="rgb(0,0,255)" />
	<polyline points="317.221,311.732 314.443,300.584 " fill="transparent" stroke-width="0.5" stroke="rgb(0,0,255)" />
	<polyline points="314.443,300.584 311.716,292.423 " fill="transparent" stroke-width="0.5" stroke="rgb(0,0,255)" />
	<polyline points="311.716,292.423 309.268,281.152 " fill="transparent" stroke-width="0.5" stroke="rgb(0,0,255)" />
	<polyline points="309.268,281.152 308.211,271.65 " fill="transparent" stroke-width="0.5" stroke="rgb(0,0,255)" />
	<polyline points="308.211,271.65 323.633,260.443 " fill="transparent" stroke-width="0.5" stroke="rgb(0,0,255)" />
	<polyline points="323.633,260.443 335.024,248.348 " fill="transparent" stroke-width="0.5" stroke="rgb(0,0,255)" />
	<polyline points="335.024,248.348 352.602,238.193 " fill="transparent" stroke-width="0.5" stroke="rgb(0,0,255)" />
	<polyline points="352.602,238.193 359.573,226.549 " fill="transparent" stroke-width="0.5" stroke="rgb(0,0,255)" />
	<polyline points="359.573,226.549 373.214,215.019 " fill="transparent" stroke-width="0.5" stroke="rgb(0,0,255)" />
	<polyline points="373.214,215.019 251.891,244.178 " fill="transparent" stroke-width="0.5" stroke="rgb(0,0,255)" />
	<polyline points="359.573,226.549 279.165,254.62 " fill="transparent" stroke-width="0.5" stroke="rgb(0,0,255)" />
	<polyline points="335.024,248.348 231.622,256.426 " fill="transparent" stroke-width="0.5" stroke="rgb(0,0,255)" />
	<polyline points="335.024,248.348 229.949,261.516 " fill="transparent" stroke-width="0.5" stroke="rgb(0,0,255)" />
	<polyline points="335.024,248.348 251.603,244.376 " fill="transparent" stroke-width="0.5" stroke="rgb(0,0,255)" />
	<polyline points="251.603,244.376 135.574,255.037 " fill="transparent" stroke-width="0.5" stroke="rgb(0,0,255)" />
	<polyline points="323.633,260.443 219.487,273.55 " fill="transparent" stroke-width="0.5" stroke="rgb(0,0,255)" />
	<polyline points="219.487,273.55 158.299,275.65 " fill="transparent" stroke-width="0.5" stroke="rgb(0,0,255)" />
	<polyline points="323.633,260.443 243.893,278.051 " fill="transparent" stroke-width="0.5" stroke="rgb(0,0,255)" />
	<polyline points="311.716,292.423 246.843,318.95 " fill="transparent" stroke-width="0.5" stroke="rgb(0,0,255)" />
	<polyline points="246.843,318.95 131.341,325.124 " fill="transparent" stroke-width="0.5" stroke="rgb(0,0,255)" />
	<polyline points="311.716,292.423 220.776,314.281 " fill="transparent" stroke-width="0.5" stroke="rgb(0,0,255)" />
	<polyline points="220.776,314.281 157.813,338.688 " fill="transparent" stroke-width="0.5" stroke="rgb(0,0,255)" />
	<polyline points="157.813,338.688 158.832,320.52 " fill="transparent" stroke-width="0.5" stroke="rgb(0,0,255)" />
	<polyline points="220.776,314.281 222.332,300.2 " fill="transparent" stroke-width="0.5" stroke="rgb(0,0,255)" />
	<polyline points="302.688,322.78 345.821,319.836 " fill="transparent" stroke-width="0.5" stroke="rgb(0,0,255)" />
	<polyline points="345.821,319.836 250.122,328.084 " fill="transparent" stroke-width="0.5" stroke="rgb(0,0,255)" />
	<polyline points="302.688,322.78 239.362,336.773 " fill="transparent" stroke-width="0.5" stroke="rgb(0,0,255)" />
	<polyline points="239.362,336.773 236.898,325.929 " fill="transparent" stroke-width="0.5" stroke="rgb(0,0,255)" />
	<polyline points="183.026,362.677 120.771,365.075 " fill="transparent" stroke-width="0.5" stroke="rgb(0,0,255)" />
	<polyline points="183.026,362.677 140.874,349.659 " fill="transparent" stroke-width="0.5" stroke="rgb(0,0,255)" />
	<polyline points="183.026,362.677 121.989,347.201 " fill="transparent" stroke-width="0.5" stroke="rgb(0,0,255)" />
	<polyline points="183.026,362.677 88.7581,398.805 " fill="transparent" stroke-width="0.5" stroke="rgb(0,0,255)" />
	<polyline points="183.026,362.677 143.247,340.957 " fill="transparent" stroke-width="0.5" stroke="rgb(0,0,255)" />
	<polyline points="143.247,340.957 76.0815,346.978 " fill="transparent" stroke-width="0.5" stroke="rgb(0,0,255)" />
	<polyline points="143.247,340.957 119.9,323.807 " fill="transparent" stroke-width="0.5" stroke="rgb(0,0,255)" />
	<polyline points="119.9,323.807 119.417,304.166 " fill="transparent" stroke-width="0.5" stroke="rgb(0,0,255)" />
	<polyline points="119.417,304.166 22.9038,324.921 " fill="transparent" stroke-width="0.5" stroke="rgb(0,0,255)" />
	<polyline points="22.9038,324.921 34.9939,313.28 " fill="transparent" stroke-width="0.5" stroke="rgb(0,0,255)" />
	<polyline points="119.417,304.166 106.581,280.093 " fill="transparent" stroke-width="0.5" stroke="rgb(0,0,255)" />
	<polyline points="106.581,280.093 94.57,265.123 " fill="transparent" stroke-width="0.5" stroke="rgb(0,0,255)" />
	<polyline points="94.57,265.123 84.2941,252.959 " fill="transparent" stroke-width="0.5" stroke="rgb(0,0,255)" />
	<polyline points="84.2941,252.959 81.2373,238.155 " fill="transparent" stroke-width="0.5" stroke="rgb(0,0,255)" />
	<polyline points="81.2373,238.155 88.1936,223.684 " fill="transparent" stroke-width="0.5" stroke="rgb(0,0,255)" />
	<polyline points="88.1936,223.684 89.3849,208.375 " fill="transparent" stroke-width="0.5" stroke="rgb(0,0,255)" />
	<polyline points="89.3849,208.375 69.9992,309.053 " fill="transparent" stroke-width="0.5" stroke="rgb(0,0,255)" />
	<polyline points="88.1936,223.684 130.65,344.932 " fill="transparent" stroke-width="0.5" stroke="rgb(0,0,255)" />
	<polyline points="81.2373,238.155 24.3226,370.2 " fill="transparent" stroke-width="0.5" stroke="rgb(0,0,255)" />
	<polyline points="81.2373,238.155 148.29,269.524 " fill="transparent" stroke-width="0.5" stroke="rgb(0,0,255)" />
	<polyline points="148.29,269.524 150.084,249.781 " fill="transparent" stroke-width="0.5" stroke="rgb(0,0,255)" />
	<polyline points="84.2941,252.959 165.473,363.234 " fill="transparent" stroke-width="0.5" stroke="rgb(0,0,255)" />
	<polyline points="84.2941,252.959 127.725,260.876 " fill="transparent" stroke-width="0.5" stroke="rgb(0,0,255)" />
	<polyline points="127.725,260.876 63.5417,337.929 " fill="transparent" stroke-width="0.5" stroke="rgb(0,0,255)" />
	<polyline points="63.5417,337.929 72.4466,325.565 " fill="transparent" stroke-width="0.5" stroke="rgb(0,0,255)" />
	<polyline points="84.2941,252.959 96.7336,367.416 " fill="transparent" stroke-width="0.5" stroke="rgb(0,0,255)" />
	<polyline points="84.2941,252.959 1.0313,349.332 " fill="transparent" stroke-width="0.5" stroke="rgb(0,0,255)" />
	<polyline points="84.2941,252.959 76.9302,354 " fill="transparent" stroke-width="0.5" stroke="rgb(0,0,255)" />
	<polyline points="94.57,265.123 132.516,340.063 " fill="transparent" stroke-width="0.5" stroke="rgb(0,0,255)" />
	<polyline points="106.581,280.093 81.0171,347.8 " fill="transparent" stroke-width="0.5" stroke="rgb(0,0,255)" />
	<polyline points="106.581,280.093 47.8626,410.003 " fill="transparent" stroke-width="0.5" stroke="rgb(0,0,255)" />
	<polyline points="106.581,280.093 6.83679,353.275 " fill="transparent" stroke-width="0.5" stroke="rgb(0,0,255)" />
	<polyline points="6.83679,353.275 8.8633,334.951 " fill="transparent" stroke-width="0.5" stroke="rgb(0,0,255)" />
	<polyline points="119.9,323.807 57.1142,322.138 " fill="transparent" stroke-width="0.5" stroke="rgb(0,0,255)" />
	<polyline points="57.1142,322.138 53.8365,298.327 " fill="transparent" stroke-width="0.5" stroke="rgb(0,0,255)" />
	<polyline points="119.9,323.807 62.3181,359.452 " fill="transparent" stroke-width="0.5" stroke="rgb(0,0,255)" />
	<polyline points="119.9,323.807 24.7703,364.555 " fill="transparent" stroke-width="0.5" stroke="rgb(0,0,255)" />
	<polyline points="143.247,340.957 68.41,400.594 " fill="transparent" stroke-width="0.5" stroke="rgb(0,0,255)" />
	<polyline points="106.875,397.35 42.0387,435.436 " fill="transparent" stroke-width="0.5" stroke="rgb(0,0,255)" />
	<polyline points="42.0387,435.436 50.0006,421.937 " fill="transparent" stroke-width="0.5" stroke="rgb(0,0,255)" />
	<polyline points="50.0006,421.937 44.6416,397.607 " fill="transparent" stroke-width="0.5" stroke="rgb(0,0,255)" />
	<circle cx="83.3333" cy="416.667" r="2" fill="rgb(255,0,0)" />
	<circle cx="416.667" cy="83.3333" r="2" fill="rgb(0,255,0)" />
	<polyline points="83.3333,416.667 93.3103,402.682 119.498,385.246 75.7265,382.998 73.846,360.569 88.4008,351.802 101.294,331.256 103.194,318.137 112.566,298.379 90.207,275.251 97.5105,262.241 86.0845,241.523 115.473,229.969 134.876,222.48 127.13,208.569 185.864,232.545 194.524,224.514 198.184,208.996 176.252,182.522 214.023,191.264 165.668,175.951 210.025,181.09 235.296,178.142 278.103,192.244 277.429,175.726 307.511,181.666 311.514,173.808 329.669,171.87 333.971,157.917 341.129,152.601 418.231,177.042 418.917,163.754 419.492,146.59 411.098,129.584 418.511,116.506 420.854,97.1454 419.927,87.6268 " fill="transparent" stroke-width="3" stroke="rgb(0,0,0)" />
</svg>
