<?xml version="1.0" standalone="no" ?>
<!DOCTYPE svg PUBLIC "-//W3C//DTD SVG 1.1//EN" "http://www.w3.org/Graphics/SVG/1.1/DTD/svg11.dtd">
<svg width="500px" height="500px" xmlns="http://www.w3.org/2000/svg" version="1.1" >
	<circle cx="185.178" cy="209.635" r="2.5" fill="rgb(255,255,255)" />
	<circle cx="138.768" cy="197.537" r="2.5" fill="rgb(244,244,244)" />
	<circle cx="156.241" cy="215.872" r="2.5" fill="rgb(234,234,234)" />
	<circle cx="141.499" cy="226.436" r="2.5" fill="rgb(222,222,222)" />
	<circle cx="409.606" cy="313.104" r="2.5" fill="rgb(215,215,215)" />
	<circle cx="286.528" cy="382.677" r="2.5" fill="rgb(214,214,214)" />
	<circle cx="372.231" cy="312.462" r="2.5" fill="rgb(211,211,211)" />
	<circle cx="138.836" cy="241.753" r="2.5" fill="rgb(209,209,209)" />
	<circle cx="154.4" cy="302.774" r="2.5" fill="rgb(204,204,204)" />
	<circle cx="399.755" cy="323.994" r="2.5" fill="rgb(198,198,198)" />
	<circle cx="135.243" cy="257.011" r="2.5" fill="rgb(197,197,197)" />
	<circle cx="269.985" cy="281.344" r="2.5" fill="rgb(190,190,190)" />
	<circle cx="130.245" cy="270.035" r="2.5" fill="rgb(186,186,186)" />
	<circle cx="136.903" cy="338.72" r="2.5" fill="rgb(182,182,182)" />
	<circle cx="179.49" cy="274.762" r="2.5" fill="rgb(180,180,180)" />
	<circle cx="370.264" cy="332.792" r="2.5" fill="rgb(180,180,180)" />
	<circle cx="161.96" cy="291.459" r="2.5" fill="rgb(178,178,178)" />
	<circle cx="245.306" cy="287.184" r="2.5" fill="rgb(177,177,177)" />
	<circle cx="221.861" cy="289.491" r="2.5" fill="rgb(170,170,170)" />
	<circle cx="289.23" cy="390.115" r="2.5" fill="rgb(168,168,168)" />
	<circle cx="296.984" cy="362.983" r="2.5" fill="rgb(168,168,168)" />
	<circle cx="362.059" cy="343.029" r="2.5" fill="rgb(165,165,165)" />
	<circle cx="237.6" cy="300.889" r="2.5" fill="rgb(162,162,162)" />
	<circle cx="264.97" cy="365.547" r="2.5" fill="rgb(162,162,162)" />
	<circle cx="207.179" cy="466.768" r="2.5" fill="rgb(154,154,154)" />
	<circle cx="390.802" cy="351.857" r="2.5" fill="rgb(154,154,154)" />
	<circle cx="224.224" cy="309.889" r="2.5" fill="rgb(151,151,151)" />
	<circle cx="341.924" cy="360.177" r="2.5" fill="rgb(150,150,150)" />
	<circle cx="339.373" cy="361.568" r="2.5" fill="rgb(150,150,150)" />
	<circle cx="144.355" cy="417.629" r="2.5" fill="rgb(150,150,150)" />
	<circle cx="149.8" cy="389.891" r="2.5" fill="rgb(148,148,148)" />
	<circle cx="225.331" cy="474.502" r="2.5" fill="rgb(144,144,144)" />
	<circle cx="389.753" cy="361.312" r="2.5" fill="rgb(141,141,141)" />
	<circle cx="132.488" cy="403.044" r="2.5" fill="rgb(138,138,138)" />
	<circle cx="255.09" cy="330.799" r="2.5" fill="rgb(134,134,134)" />
	<circle cx="296.097" cy="427.451" r="2.5" fill="rgb(133,133,133)" />
	<circle cx="170.669" cy="352.537" r="2.5" fill="rgb(133,133,133)" />
	<circle cx="262.538" cy="333.93" r="2.5" fill="rgb(132,132,132)" />
	<circle cx="321.742" cy="476.574" r="2.5" fill="rgb(132,132,132)" />
	<circle cx="379.355" cy="367.03" r="2.5" fill="rgb(132,132,132)" />
	<circle cx="266.037" cy="395.765" r="2.5" fill="rgb(131,131,131)" />
	<circle cx="356.892" cy="392.344" r="2.5" fill="rgb(128,128,128)" />
	<circle cx="343.115" cy="417.146" r="2.5" fill="rgb(126,126,126)" />
	<circle cx="252.558" cy="342.277" r="2.5" fill="rgb(123,123,123)" />
	<circle cx="170.57" cy="371.922" r="2.5" fill="rgb(122,122,122)" />
	<circle cx="405.625" cy="394.59" r="2.5" fill="rgb(116,116,116)" />
	<circle cx="369.839" cy="378.752" r="2.5" fill="rgb(116,116,116)" />
	<circle cx="243.925" cy="351.194" r="2.5" fill="rgb(113,113,113)" />
	<circle cx="351.339" cy="383.664" r="2.5" fill="rgb(106,106,106)" />
	<circle cx="329.721" cy="467.981" r="2.5" fill="rgb(103,103,103)" />
	<circle cx="262.713" cy="364.045" r="2.5" fill="rgb(101,101,101)" />
	<circle cx="69.0444" cy="440.992" r="2.5" fill="rgb(97,97,97)" />
	<circle cx="212.361" cy="381.612" r="2.5" fill="rgb(97,97,97)" />
	<circle cx="169.732" cy="404.287" r="2.5" fill="rgb(96,96,96)" />
	<circle cx="342.815" cy="393.241" r="2.5" fill="rgb(94,94,94)" />
	<circle cx="64.1037" cy="264.682" r="2.5" fill="rgb(87,87,87)" />
	<circle cx="169.266" cy="420.334" r="2.5" fill="rgb(85,85,85)" />
	<circle cx="288.901" cy="380.989" r="2.5" fill="rgb(85,85,85)" />
	<circle cx="222.819" cy="481.176" r="2.5" fill="rgb(84,84,84)" />
	<circle cx="297.487" cy="383.178" r="2.5" fill="rgb(83,83,83)" />
	<circle cx="30.5747" cy="351.745" r="2.5" fill="rgb(81,81,81)" />
	<circle cx="196.184" cy="430.786" r="2.5" fill="rgb(80,80,80)" />
	<circle cx="206.508" cy="437.253" r="2.5" fill="rgb(79,79,79)" />
	<circle cx="225.531" cy="405.6" r="2.5" fill="rgb(78,78,78)" />
	<circle cx="278.81" cy="388.56" r="2.5" fill="rgb(77,77,77)" />
	<circle cx="232.615" cy="436.851" r="2.5" fill="rgb(77,77,77)" />
	<circle cx="41.925" cy="280.779" r="2.5" fill="rgb(75,75,75)" />
	<circle cx="195.503" cy="493.39" r="2.5" fill="rgb(75,75,75)" />
	<circle cx="210.413" cy="409.246" r="2.5" fill="rgb(73,73,73)" />
	<circle cx="192.789" cy="440.396" r="2.5" fill="rgb(73,73,73)" />
	<circle cx="7.84132" cy="475.168" r="2.5" fill="rgb(73,73,73)" />
	<circle cx="289.867" cy="396.931" r="2.5" fill="rgb(69,69,69)" />
	<circle cx="229.884" cy="444.797" r="2.5" fill="rgb(68,68,68)" />
	<circle cx="16.4849" cy="286.935" r="2.5" fill="rgb(68,68,68)" />
	<circle cx="67.6596" cy="399.94" r="2.5" fill="rgb(66,66,66)" />
	<circle cx="55.5403" cy="393.73" r="2.5" fill="rgb(65,65,65)" />
	<circle cx="22.7346" cy="412.228" r="2.5" fill="rgb(64,64,64)" />
	<circle cx="0.283516" cy="414.968" r="2.5" fill="rgb(64,64,64)" />
	<circle cx="50.1674" cy="339.374" r="2.5" fill="rgb(63,63,63)" />
	<circle cx="286.767" cy="404.783" r="2.5" fill="rgb(61,61,61)" />
	<circle cx="186.14" cy="441.728" r="2.5" fill="rgb(60,60,60)" />
	<circle cx="44.511" cy="468.194" r="2.5" fill="rgb(58,58,58)" />
	<circle cx="1.76577" cy="317.828" r="2.5" fill="rgb(57,57,57)" />
	<circle cx="33.7683" cy="311.507" r="2.5" fill="rgb(56,56,56)" />
	<circle cx="14.131" cy="380.385" r="2.5" fill="rgb(53,53,53)" />
	<circle cx="162.612" cy="494.096" r="2.5" fill="rgb(52,52,52)" />
	<circle cx="19.9735" cy="342.85" r="2.5" fill="rgb(52,52,52)" />
	<circle cx="28.9174" cy="379.166" r="2.5" fill="rgb(52,52,52)" />
	<circle cx="256.262" cy="411.03" r="2.5" fill="rgb(51,51,51)" />
	<circle cx="78.2225" cy="331.447" r="2.5" fill="rgb(46,46,46)" />
	<circle cx="225.878" cy="418.073" r="2.5" fill="rgb(41,41,41)" />
	<circle cx="71.9031" cy="423.853" r="2.5" fill="rgb(40,40,40)" />
	<circle cx="33.848" cy="363.36" r="2.5" fill="rgb(36,36,36)" />
	<circle cx="64.3578" cy="410.691" r="2.5" fill="rgb(35,35,35)" />
	<circle cx="67.0681" cy="353.346" r="2.5" fill="rgb(34,34,34)" />
	<circle cx="11.9535" cy="386.479" r="2.5" fill="rgb(33,33,33)" />
	<circle cx="14.8248" cy="382.025" r="2.5" fill="rgb(28,28,28)" />
	<circle cx="1.4947" cy="400.143" r="2.5" fill="rgb(28,28,28)" />
	<circle cx="210.692" cy="434.194" r="2.5" fill="rgb(27,27,27)" />
	<circle cx="118.286" cy="460.648" r="2.5" fill="rgb(26,26,26)" />
	<circle cx="86.1019" cy="368.706" r="2.5" fill="rgb(26,26,26)" />
	<circle cx="66.7416" cy="450.486" r="2.5" fill="rgb(24,24,24)" />
	<circle cx="49.4998" cy="436.768" r="2.5" fill="rgb(23,23,23)" />
	<circle cx="38.5032" cy="409.933" r="2.5" fill="rgb(23,23,23)" />
	<circle cx="94.3379" cy="385.938" r="2.5" fill="rgb(18,18,18)" />
	<circle cx="195.853" cy="451.324" r="2.5" fill="rgb(13,13,13)" />
	<circle cx="133.438" cy="416.74" r="2.5" fill="rgb(7,7,7)" />
	<circle cx="112.42" cy="406.758" r="2.5" fill="rgb(7,7,7)" />
	<circle cx="20.2584" cy="444.005" r="2.5" fill="rgb(6,6,6)" />
	<circle cx="83.3333" cy="416.667" r="2" fill="rgb(255,0,0)" />
	<circle cx="416.667" cy="83.3333" r="2" fill="rgb(0,255,0)" />
	<circle cx="83.3333" cy="416.667" r="2" fill="rgb(0,255,0)" />
	<circle cx="92.6909" cy="397.711" r="2" fill="rgb(0,255,0)" />
	<circle cx="96.8601" cy="379.016" r="2" fill="rgb(0,255,0)" />
	<circle cx="110.178" cy="360.163" r="2" fill="rgb(0,255,0)" />
	<circle cx="117.935" cy="341.296" r="2" fill="rgb(0,255,0)" />
	<circle cx="127.743" cy="328.069" r="2" fill="rgb(0,255,0)" />
	<circle cx="139.607" cy="316.003" r="2" fill="rgb(0,255,0)" />
	<circle cx="155.12" cy="299.335" r="2" fill="rgb(0,255,0)" />
	<circle cx="173.744" cy="286.848" r="2" fill="rgb(0,255,0)" />
	<circle cx="194.231" cy="274.041" r="2" fill="rgb(0,255,0)" />
	<circle cx="223.846" cy="272.558" r="2" fill="rgb(0,255,0)" />
	<circle cx="243.329" cy="270.932" r="2" fill="rgb(0,255,0)" />
	<circle cx="291.053" cy="272.052" r="2" fill="rgb(0,255,0)" />
	<circle cx="295.359" cy="257.358" r="2" fill="rgb(0,255,0)" />
	<circle cx="302.75" cy="251.701" r="2" fill="rgb(0,255,0)" />
	<circle cx="316.099" cy="243.343" r="2" fill="rgb(0,255,0)" />
	<circle cx="324.742" cy="236.732" r="2" fill="rgb(0,255,0)" />
	<circle cx="371.776" cy="237.531" r="2" fill="rgb(0,255,0)" />
	<circle cx="375.037" cy="223.465" r="2" fill="rgb(0,255,0)" />
	<circle cx="379.25" cy="216.946" r="2" fill="rgb(0,255,0)" />
	<circle cx="385.488" cy="204.715" r="2" fill="rgb(0,255,0)" />
	<circle cx="406.209" cy="196.744" r="2" fill="rgb(0,255,0)" />
	<circle cx="407.356" cy="184.309" r="2" fill="rgb(0,255,0)" />
	<circle cx="421.731" cy="171.12" r="2" fill="rgb(0,255,0)" />
	<circle cx="433.187" cy="153.824" r="2" fill="rgb(0,255,0)" />
	<circle cx="426.977" cy="141.826" r="2" fill="rgb(0,255,0)" />
	<circle cx="419.648" cy="126.363" r="2" fill="rgb(0,255,0)" />
	<circle cx="417.68" cy="115.633" r="2" fill="rgb(0,255,0)" />
	<circle cx="421.594" cy="95.941" r="2" fill="rgb(0,255,0)" />
	<circle cx="411.876" cy="79.3651" r="2" fill="rgb(0,255,0)" />
</svg>
