<?xml version="1.0" standalone="no" ?>
<!DOCTYPE svg PUBLIC "-//W3C//DTD SVG 1.1//EN" "http://www.w3.org/Graphics/SVG/1.1/DTD/svg11.dtd">
<svg width="500px" height="500px" xmlns="http://www.w3.org/2000/svg" version="1.1" >
	<polyline points="83.3333,416.667 55.1516,395.728 " fill="transparent" stroke-width="0.5" stroke="rgb(0,0,255)" />
	<polyline points="55.1516,395.728 56.2427,372.301 " fill="transparent" stroke-width="0.5" stroke="rgb(0,0,255)" />
	<polyline points="56.2427,372.301 92.8717,362.119 " fill="transparent" stroke-width="0.5" stroke="rgb(0,0,255)" />
	<polyline points="92.8717,362.119 2.33289,390.632 " fill="transparent" stroke-width="0.5" stroke="rgb(0,0,255)" />
	<polyline points="55.1516,395.728 20.8945,379.477 " fill="transparent" stroke-width="0.5" stroke="rgb(0,0,255)" />
	<polyline points="20.8945,379.477 13.8804,353.656 " fill="transparent" stroke-width="0.5" stroke="rgb(0,0,255)" />
	<polyline points="13.8804,353.656 0.556489,325.835 " fill="transparent" stroke-width="0.5" stroke="rgb(0,0,255)" />
	<polyline points="0.556489,325.835 34.5089,313.637 " fill="transparent" stroke-width="0.5" stroke="rgb(0,0,255)" />
	<polyline points="34.5089,313.637 27.0299,289.722 " fill="transparent" stroke-width="0.5" stroke="rgb(0,0,255)" />
	<polyline points="27.0299,289.722 72.096,303.093 " fill="transparent" stroke-width="0.5" stroke="rgb(0,0,255)" />
	<polyline points="72.096,303.093 68.6522,286.809 " fill="transparent" stroke-width="0.5" stroke="rgb(0,0,255)" />
	<polyline points="72.096,303.093 84.884,286.25 " fill="transparent" stroke-width="0.5" stroke="rgb(0,0,255)" />
	<polyline points="72.096,303.093 112.941,303.638 " fill="transparent" stroke-width="0.5" stroke="rgb(0,0,255)" />
	<polyline points="112.941,303.638 122.398,295.48 " fill="transparent" stroke-width="0.5" stroke="rgb(0,0,255)" />
	<polyline points="122.398,295.48 138.497,281.229 " fill="transparent" stroke-width="0.5" stroke="rgb(0,0,255)" />
	<polyline points="138.497,281.229 157.16,277.775 " fill="transparent" stroke-width="0.5" stroke="rgb(0,0,255)" />
	<polyline points="122.398,295.48 123.284,285.062 " fill="transparent" stroke-width="0.5" stroke="rgb(0,0,255)" />
	<polyline points="123.284,285.062 27.8737,387.373 " fill="transparent" stroke-width="0.5" stroke="rgb(0,0,255)" />
	<polyline points="123.284,285.062 20.6025,378.466 " fill="transparent" stroke-width="0.5" stroke="rgb(0,0,255)" />
	<polyline points="123.284,285.062 36.963,306.528 " fill="transparent" stroke-width="0.5" stroke="rgb(0,0,255)" />
	<polyline points="112.941,303.638 55.2774,365.25 " fill="transparent" stroke-width="0.5" stroke="rgb(0,0,255)" />
	<polyline points="55.2774,365.25 38.7447,338.076 " fill="transparent" stroke-width="0.5" stroke="rgb(0,0,255)" />
	<polyline points="112.941,303.638 82.1014,414.379 " fill="transparent" stroke-width="0.5" stroke="rgb(0,0,255)" />
	<polyline points="82.1014,414.379 29.0238,441.06 " fill="transparent" stroke-width="0.5" stroke="rgb(0,0,255)" />
	<polyline points="29.0238,441.06 39.4169,415.795 " fill="transparent" stroke-width="0.5" stroke="rgb(0,0,255)" />
	<polyline points="39.4169,415.795 45.1973,388.699 " fill="transparent" stroke-width="0.5" stroke="rgb(0,0,255)" />
	<polyline points="27.0299,289.722 11.8629,273.75 " fill="transparent" stroke-width="0.5" stroke="rgb(0,0,255)" />
	<polyline points="11.8629,273.75 14.6335,262.214 " fill="transparent" stroke-width="0.5" stroke="rgb(0,0,255)" />
	<polyline points="14.6335,262.214 50.324,256.872 " fill="transparent" stroke-width="0.5" stroke="rgb(0,0,255)" />
	<polyline points="50.324,256.872 49.088,246.777 " fill="transparent" stroke-width="0.5" stroke="rgb(0,0,255)" />
	<polyline points="49.088,246.777 63.4107,229.64 " fill="transparent" stroke-width="0.5" stroke="rgb(0,0,255)" />
	<polyline points="63.4107,229.64 91.7095,295.138 " fill="transparent" stroke-width="0.5" stroke="rgb(0,0,255)" />
	<polyline points="63.4107,229.64 53.89,217.806 " fill="transparent" stroke-width="0.5" stroke="rgb(0,0,255)" />
	<polyline points="53.89,217.806 59.3014,203.801 " fill="transparent" stroke-width="0.5" stroke="rgb(0,0,255)" />
	<polyline points="59.3014,203.801 45.4245,195.678 " fill="transparent" stroke-width="0.5" stroke="rgb(0,0,255)" />
	<polyline points="45.4245,195.678 107.277,271.538 " fill="transparent" stroke-width="0.5" stroke="rgb(0,0,255)" />
	<polyline points="107.277,271.538 99.5668,372.57 " fill="transparent" stroke-width="0.5" stroke="rgb(0,0,255)" />
	<polyline points="45.4245,195.678 83.2912,335.51 " fill="transparent" stroke-width="0.5" stroke="rgb(0,0,255)" />
	<polyline points="45.4245,195.678 45.8622,180.88 " fill="transparent" stroke-width="0.5" stroke="rgb(0,0,255)" />
	<polyline points="45.8622,180.88 35.1392,174.399 " fill="transparent" stroke-width="0.5" stroke="rgb(0,0,255)" />
	<polyline points="35.1392,174.399 26.4615,165.424 " fill="transparent" stroke-width="0.5" stroke="rgb(0,0,255)" />
	<polyline points="35.1392,174.399 79.4943,249.986 " fill="transparent" stroke-width="0.5" stroke="rgb(0,0,255)" />
	<polyline points="79.4943,249.986 122.627,244.261 " fill="transparent" stroke-width="0.5" stroke="rgb(0,0,255)" />
	<polyline points="122.627,244.261 184.46,354.456 " fill="transparent" stroke-width="0.5" stroke="rgb(0,0,255)" />
	<polyline points="35.1392,174.399 114.882,216.39 " fill="transparent" stroke-width="0.5" stroke="rgb(0,0,255)" />
	<polyline points="114.882,216.39 94.5149,204.271 " fill="transparent" stroke-width="0.5" stroke="rgb(0,0,255)" />
	<polyline points="94.5149,204.271 78.3421,186.198 " fill="transparent" stroke-width="0.5" stroke="rgb(0,0,255)" />
	<polyline points="35.1392,174.399 124.68,214.996 " fill="transparent" stroke-width="0.5" stroke="rgb(0,0,255)" />
	<polyline points="35.1392,174.399 131.971,208.891 " fill="transparent" stroke-width="0.5" stroke="rgb(0,0,255)" />
	<polyline points="35.1392,174.399 102.493,220.409 " fill="transparent" stroke-width="0.5" stroke="rgb(0,0,255)" />
	<polyline points="102.493,220.409 109.562,321.898 " fill="transparent" stroke-width="0.5" stroke="rgb(0,0,255)" />
	<polyline points="45.8622,180.88 48.6707,327.856 " fill="transparent" stroke-width="0.5" stroke="rgb(0,0,255)" />
	<polyline points="53.89,217.806 91.7303,310.637 " fill="transparent" stroke-width="0.5" stroke="rgb(0,0,255)" />
	<polyline points="53.89,217.806 32.524,288.181 " fill="transparent" stroke-width="0.5" stroke="rgb(0,0,255)" />
	<polyline points="32.524,288.181 58.537,277.575 " fill="transparent" stroke-width="0.5" stroke="rgb(0,0,255)" />
	<polyline points="32.524,288.181 18.9766,414.477 " fill="transparent" stroke-width="0.5" stroke="rgb(0,0,255)" />
	<polyline points="49.088,246.777 49.3104,237.155 " fill="transparent" stroke-width="0.5" stroke="rgb(0,0,255)" />
	<polyline points="50.324,256.872 15.6112,336.23 " fill="transparent" stroke-width="0.5" stroke="rgb(0,0,255)" />
	<polyline points="15.6112,336.23 53.7209,390.427 " fill="transparent" stroke-width="0.5" stroke="rgb(0,0,255)" />
	<polyline points="15.6112,336.23 71.9504,409.579 " fill="transparent" stroke-width="0.5" stroke="rgb(0,0,255)" />
	<polyline points="50.324,256.872 20.4908,382.33 " fill="transparent" stroke-width="0.5" stroke="rgb(0,0,255)" />
	<polyline points="50.324,256.872 61.256,342.483 " fill="transparent" stroke-width="0.5" stroke="rgb(0,0,255)" />
	<polyline points="61.256,342.483 74.6669,326.29 " fill="transparent" stroke-width="0.5" stroke="rgb(0,0,255)" />
	<polyline points="50.324,256.872 30.0254,326.55 " fill="transparent" stroke-width="0.5" stroke="rgb(0,0,255)" />
	<polyline points="50.324,256.872 24.8912,339.87 " fill="transparent" stroke-width="0.5" stroke="rgb(0,0,255)" />
	<polyline points="11.8629,273.75 34.1546,412.871 " fill="transparent" stroke-width="0.5" stroke="rgb(0,0,255)" />
	<polyline points="11.8629,273.75 41.2788,397.047 " fill="transparent" stroke-width="0.5" stroke="rgb(0,0,255)" />
	<polyline points="11.8629,273.75 21.1924,400.743 " fill="transparent" stroke-width="0.5" stroke="rgb(0,0,255)" />
	<polyline points="34.5089,313.637 15.1766,423.935 " fill="transparent" stroke-width="0.5" stroke="rgb(0,0,255)" />
	<polyline points="15.1766,423.935 29.2563,404.466 " fill="transparent" stroke-width="0.5" stroke="rgb(0,0,255)" />
	<polyline points="15.1766,423.935 9.45311,406.136 " fill="transparent" stroke-width="0.5" stroke="rgb(0,0,255)" />
	<polyline points="15.1766,423.935 28.9874,404.424 " fill="transparent" stroke-width="0.5" stroke="rgb(0,0,255)" />
	<polyline points="0.556489,325.835 16.4456,407.049 " fill="transparent" stroke-width="0.5" stroke="rgb(0,0,255)" />
	<polyline points="16.4456,407.049 28.226,379.419 " fill="transparent" stroke-width="0.5" stroke="rgb(0,0,255)" />
	<polyline points="55.1516,395.728 2.27157,387.27 " fill="transparent" stroke-width="0.5" stroke="rgb(0,0,255)" />
	<polyline points="83.3333,416.667 140.491,422.69 " fill="transparent" stroke-width="0.5" stroke="rgb(0,0,255)" />
	<polyline points="140.491,422.69 117.175,404.391 " fill="transparent" stroke-width="0.5" stroke="rgb(0,0,255)" />
	<polyline points="140.491,422.69 124.846,408.354 " fill="transparent" stroke-width="0.5" stroke="rgb(0,0,255)" />
	<polyline points="140.491,422.69 55.1371,459.169 " fill="transparent" stroke-width="0.5" stroke="rgb(0,0,255)" />
	<polyline points="55.1371,459.169 38.8134,440.425 " fill="transparent" stroke-width="0.5" stroke="rgb(0,0,255)" />
	<polyline points="55.1371,459.169 35.7902,447.128 " fill="transparent" stroke-width="0.5" stroke="rgb(0,0,255)" />
	<polyline points="55.1371,459.169 87.2838,434.387 " fill="transparent" stroke-width="0.5" stroke="rgb(0,0,255)" />
	<polyline points="87.2838,434.387 26.904,476.937 " fill="transparent" stroke-width="0.5" stroke="rgb(0,0,255)" />
	<polyline points="26.904,476.937 28.5705,460.483 " fill="transparent" stroke-width="0.5" stroke="rgb(0,0,255)" />
	<polyline points="55.1371,459.169 40.7172,440.055 " fill="transparent" stroke-width="0.5" stroke="rgb(0,0,255)" />
	<polyline points="140.491,422.69 148.186,401.663 " fill="transparent" stroke-width="0.5" stroke="rgb(0,0,255)" />
	<polyline points="148.186,401.663 114.284,386.32 " fill="transparent" stroke-width="0.5" stroke="rgb(0,0,255)" />
	<polyline points="148.186,401.663 60.319,447.652 " fill="transparent" stroke-width="0.5" stroke="rgb(0,0,255)" />
	<polyline points="140.491,422.69 154.981,402.221 " fill="transparent" stroke-width="0.5" stroke="rgb(0,0,255)" />
	<polyline points="154.981,402.221 96.3594,459.116 " fill="transparent" stroke-width="0.5" stroke="rgb(0,0,255)" />
	<polyline points="96.3594,459.116 45.5384,487.603 " fill="transparent" stroke-width="0.5" stroke="rgb(0,0,255)" />
	<polyline points="96.3594,459.116 80.4564,437.057 " fill="transparent" stroke-width="0.5" stroke="rgb(0,0,255)" />
	<polyline points="96.3594,459.116 13.1421,471.556 " fill="transparent" stroke-width="0.5" stroke="rgb(0,0,255)" />
	<polyline points="13.1421,471.556 3.48497,456.233 " fill="transparent" stroke-width="0.5" stroke="rgb(0,0,255)" />
	<polyline points="3.48497,456.233 14.6749,435.129 " fill="transparent" stroke-width="0.5" stroke="rgb(0,0,255)" />
	<polyline points="13.1421,471.556 12.5305,454.673 " fill="transparent" stroke-width="0.5" stroke="rgb(0,0,255)" />
	<polyline points="96.3594,459.116 116.748,435.529 " fill="transparent" stroke-width="0.5" stroke="rgb(0,0,255)" />
	<polyline points="154.981,402.221 57.9727,411.824 " fill="transparent" stroke-width="0.5" stroke="rgb(0,0,255)" />
	<polyline points="57.9727,411.824 59.5425,388.339 " fill="transparent" stroke-width="0.5" stroke="rgb(0,0,255)" />
	<polyline points="59.5425,388.339 1.79387,391.416 " fill="transparent" stroke-width="0.5" stroke="rgb(0,0,255)" />
	<polyline points="59.5425,388.339 0.454481,393.377 " fill="transparent" stroke-width="0.5" stroke="rgb(0,0,255)" />
	<polyline points="59.5425,388.339 9.21372,377.492 " fill="transparent" stroke-width="0.5" stroke="rgb(0,0,255)" />
	<polyline points="59.5425,388.339 87.2909,368.251 " fill="transparent" stroke-width="0.5" stroke="rgb(0,0,255)" />
	<polyline points="57.9727,411.824 82.693,394.506 " fill="transparent" stroke-width="0.5" stroke="rgb(0,0,255)" />
	<polyline points="82.693,394.506 86.6897,377.808 " fill="transparent" stroke-width="0.5" stroke="rgb(0,0,255)" />
	<polyline points="82.693,394.506 97.7407,379.621 " fill="transparent" stroke-width="0.5" stroke="rgb(0,0,255)" />
	<polyline points="97.7407,379.621 122.44,363.466 " fill="transparent" stroke-width="0.5" stroke="rgb(0,0,255)" />
	<polyline points="122.44,363.466 64.5837,379.681 " fill="transparent" stroke-width="0.5" stroke="rgb(0,0,255)" />
	<polyline points="154.981,402.221 236.121,440.467 " fill="transparent" stroke-width="0.5" stroke="rgb(0,0,255)" />
	<polyline points="236.121,440.467 252.924,425.016 " fill="transparent" stroke-width="0.5" stroke="rgb(0,0,255)" />
	<polyline points="236.121,440.467 241.292,429.896 " fill="transparent" stroke-width="0.5" stroke="rgb(0,0,255)" />
	<polyline points="241.292,429.896 237.474,419.568 " fill="transparent" stroke-width="0.5" stroke="rgb(0,0,255)" />
	<polyline points="241.292,429.896 209.046,495.524 " fill="transparent" stroke-width="0.5" stroke="rgb(0,0,255)" />
	<polyline points="209.046,495.524 217.835,485.387 " fill="transparent" stroke-width="0.5" stroke="rgb(0,0,255)" />
	<polyline points="236.121,440.467 158.839,470.982 " fill="transparent" stroke-width="0.5" stroke="rgb(0,0,255)" />
	<polyline points="236.121,440.467 168.757,473.649 " fill="transparent" stroke-width="0.5" stroke="rgb(0,0,255)" />
	<polyline points="236.121,440.467 314.099,443.565 " fill="transparent" stroke-width="0.5" stroke="rgb(0,0,255)" />
	<polyline points="314.099,443.565 326.283,431.371 " fill="transparent" stroke-width="0.5" stroke="rgb(0,0,255)" />
	<polyline points="326.283,431.371 322.638,424.002 " fill="transparent" stroke-width="0.5" stroke="rgb(0,0,255)" />
	<polyline points="322.638,424.002 349.292,419.023 " fill="transparent" stroke-width="0.5" stroke="rgb(0,0,255)" />
	<polyline points="322.638,424.002 264.525,415.421 " fill="transparent" stroke-width="0.5" stroke="rgb(0,0,255)" />
	<polyline points="264.525,415.421 264.733,407.115 " fill="transparent" stroke-width="0.5" stroke="rgb(0,0,255)" />
	<polyline points="264.525,415.421 257.971,402.076 " fill="transparent" stroke-width="0.5" stroke="rgb(0,0,255)" />
	<polyline points="257.971,402.076 182.125,415.606 " fill="transparent" stroke-width="0.5" stroke="rgb(0,0,255)" />
	<polyline points="182.125,415.606 188.259,400.277 " fill="transparent" stroke-width="0.5" stroke="rgb(0,0,255)" />
	<polyline points="257.971,402.076 225.793,391.971 " fill="transparent" stroke-width="0.5" stroke="rgb(0,0,255)" />
	<polyline points="225.793,391.971 218.789,373.638 " fill="transparent" stroke-width="0.5" stroke="rgb(0,0,255)" />
	<polyline points="218.789,373.638 130.839,367.476 " fill="transparent" stroke-width="0.5" stroke="rgb(0,0,255)" />
	<polyline points="218.789,373.638 161.485,384.54 " fill="transparent" stroke-width="0.5" stroke="rgb(0,0,255)" />
	<polyline points="161.485,384.54 153.087,365.489 " fill="transparent" stroke-width="0.5" stroke="rgb(0,0,255)" />
	<polyline points="264.525,415.421 210.309,426.351 " fill="transparent" stroke-width="0.5" stroke="rgb(0,0,255)" />
	<polyline points="210.309,426.351 142.842,457.337 " fill="transparent" stroke-width="0.5" stroke="rgb(0,0,255)" />
	<polyline points="142.842,457.337 78.8527,470.895 " fill="transparent" stroke-width="0.5" stroke="rgb(0,0,255)" />
	<polyline points="322.638,424.002 243.422,445.368 " fill="transparent" stroke-width="0.5" stroke="rgb(0,0,255)" />
	<polyline points="243.422,445.368 241.17,431.627 " fill="transparent" stroke-width="0.5" stroke="rgb(0,0,255)" />
	<polyline points="326.283,431.371 236.83,456.192 " fill="transparent" stroke-width="0.5" stroke="rgb(0,0,255)" />
	<polyline points="236.83,456.192 240.118,445.537 " fill="transparent" stroke-width="0.5" stroke="rgb(0,0,255)" />
	<polyline points="326.283,431.371 352.863,424.183 " fill="transparent" stroke-width="0.5" stroke="rgb(0,0,255)" />
	<polyline points="352.863,424.183 397.599,413.543 " fill="transparent" stroke-width="0.5" stroke="rgb(0,0,255)" />
	<polyline points="397.599,413.543 435.918,408.18 " fill="transparent" stroke-width="0.5" stroke="rgb(0,0,255)" />
	<polyline points="435.918,408.18 322.942,428.788 " fill="transparent" stroke-width="0.5" stroke="rgb(0,0,255)" />
	<polyline points="435.918,408.18 433.869,401.826 " fill="transparent" stroke-width="0.5" stroke="rgb(0,0,255)" />
	<polyline points="435.918,408.18 428.639,396.684 " fill="transparent" stroke-width="0.5" stroke="rgb(0,0,255)" />
	<polyline points="428.639,396.684 423.946,390.179 " fill="transparent" stroke-width="0.5" stroke="rgb(0,0,255)" />
	<polyline points="428.639,396.684 444.334,386.204 " fill="transparent" stroke-width="0.5" stroke="rgb(0,0,255)" />
	<polyline points="444.334,386.204 438.551,373.32 " fill="transparent" stroke-width="0.5" stroke="rgb(0,0,255)" />
	<polyline points="438.551,373.32 447.538,361.301 " fill="transparent" stroke-width="0.5" stroke="rgb(0,0,255)" />
	<polyline points="447.538,361.301 445.285,349.637 " fill="transparent" stroke-width="0.5" stroke="rgb(0,0,255)" />
	<polyline points="445.285,349.637 456.539,343.236 " fill="transparent" stroke-width="0.5" stroke="rgb(0,0,255)" />
	<polyline points="456.539,343.236 467.375,331.564 " fill="transparent" stroke-width="0.5" stroke="rgb(0,0,255)" />
	<polyline points="456.539,343.236 332.965,365.28 " fill="transparent" stroke-width="0.5" stroke="rgb(0,0,255)" />
	<polyline points="456.539,343.236 455.29,330.211 " fill="transparent" stroke-width="0.5" stroke="rgb(0,0,255)" />
	<polyline points="455.29,330.211 359.178,396.944 " fill="transparent" stroke-width="0.5" stroke="rgb(0,0,255)" />
	<polyline points="359.178,396.944 356.671,386.924 " fill="transparent" stroke-width="0.5" stroke="rgb(0,0,255)" />
	<polyline points="455.29,330.211 474.72,319.689 " fill="transparent" stroke-width="0.5" stroke="rgb(0,0,255)" />
	<polyline points="474.72,319.689 473.241,308.933 " fill="transparent" stroke-width="0.5" stroke="rgb(0,0,255)" />
	<polyline points="473.241,308.933 461.84,294.326 " fill="transparent" stroke-width="0.5" stroke="rgb(0,0,255)" />
	<polyline points="474.72,319.689 387.011,315.359 " fill="transparent" stroke-width="0.5" stroke="rgb(0,0,255)" />
	<polyline points="445.285,349.637 360.878,361.529 " fill="transparent" stroke-width="0.5" stroke="rgb(0,0,255)" />
	<polyline points="360.878,361.529 364.044,349.082 " fill="transparent" stroke-width="0.5" stroke="rgb(0,0,255)" />
	<polyline points="360.878,361.529 264.568,379.956 " fill="transparent" stroke-width="0.5" stroke="rgb(0,0,255)" />
	<polyline points="264.568,379.956 160.263,405.154 " fill="transparent" stroke-width="0.5" stroke="rgb(0,0,255)" />
	<polyline points="160.263,405.154 86.0168,421.707 " fill="transparent" stroke-width="0.5" stroke="rgb(0,0,255)" />
	<polyline points="360.878,361.529 346.245,349.15 " fill="transparent" stroke-width="0.5" stroke="rgb(0,0,255)" />
	<polyline points="346.245,349.15 353.695,335.626 " fill="transparent" stroke-width="0.5" stroke="rgb(0,0,255)" />
	<polyline points="353.695,335.626 301.862,334.581 " fill="transparent" stroke-width="0.5" stroke="rgb(0,0,255)" />
	<polyline points="301.862,334.581 303.335,322.354 " fill="transparent" stroke-width="0.5" stroke="rgb(0,0,255)" />
	<polyline points="301.862,334.581 321.359,329.291 " fill="transparent" stroke-width="0.5" stroke="rgb(0,0,255)" />
	<polyline points="321.359,329.291 317.797,321.243 " fill="transparent" stroke-width="0.5" stroke="rgb(0,0,255)" />
	<polyline points="317.797,321.243 316.089,310.323 " fill="transparent" stroke-width="0.5" stroke="rgb(0,0,255)" />
	<polyline points="445.285,349.637 385.907,348.635 " fill="transparent" stroke-width="0.5" stroke="rgb(0,0,255)" />
	<polyline points="385.907,348.635 395.287,341.598 " fill="transparent" stroke-width="0.5" stroke="rgb(0,0,255)" />
	<polyline points="385.907,348.635 374.905,336.633 " fill="transparent" stroke-width="0.5" stroke="rgb(0,0,255)" />
	<polyline points="374.905,336.633 372.729,322.326 " fill="transparent" stroke-width="0.5" stroke="rgb(0,0,255)" />
	<polyline points="374.905,336.633 339.111,321.621 " fill="transparent" stroke-width="0.5" stroke="rgb(0,0,255)" />
	<polyline points="339.111,321.621 340.008,314.398 " fill="transparent" stroke-width="0.5" stroke="rgb(0,0,255)" />
	<polyline points="340.008,314.398 341.606,299.944 " fill="transparent" stroke-width="0.5" stroke="rgb(0,0,255)" />
	<polyline points="341.606,299.944 336.77,285.791 " fill="transparent" stroke-width="0.5" stroke="rgb(0,0,255)" />
	<polyline points="341.606,299.944 355.324,294.138 " fill="transparent" stroke-width="0.5" stroke="rgb(0,0,255)" />
	<polyline points="355.324,294.138 355.314,286.876 " fill="transparent" stroke-width="0.5" stroke="rgb(0,0,255)" />
	<polyline points="355.324,294.138 361.296,283.693 " fill="transparent" stroke-width="0.5" stroke="rgb(0,0,255)" />
	<polyline points="361.296,283.693 363.396,269.604 " fill="transparent" stroke-width="0.5" stroke="rgb(0,0,255)" />
	<polyline points="361.296,283.693 367.679,270.488 " fill="transparent" stroke-width="0.5" stroke="rgb(0,0,255)" />
	<polyline points="367.679,270.488 384.412,259.665 " fill="transparent" stroke-width="0.5" stroke="rgb(0,0,255)" />
	<polyline points="384.412,259.665 391.481,250.934 " fill="transparent" stroke-width="0.5" stroke="rgb(0,0,255)" />
	<polyline points="384.412,259.665 403.986,253.925 " fill="transparent" stroke-width="0.5" stroke="rgb(0,0,255)" />
	<polyline points="403.986,253.925 398.825,238.548 " fill="transparent" stroke-width="0.5" stroke="rgb(0,0,255)" />
	<polyline points="403.986,253.925 419.534,246.72 " fill="transparent" stroke-width="0.5" stroke="rgb(0,0,255)" />
	<polyline points="419.534,246.72 432.838,241.706 " fill="transparent" stroke-width="0.5" stroke="rgb(0,0,255)" />
	<polyline points="419.534,246.72 433.716,240.272 " fill="transparent" stroke-width="0.5" stroke="rgb(0,0,255)" />
	<polyline points="433.716,240.272 362.285,291.844 " fill="transparent" stroke-width="0.5" stroke="rgb(0,0,255)" />
	<polyline points="419.534,246.72 430.255,236.495 " fill="transparent" stroke-width="0.5" stroke="rgb(0,0,255)" />
	<polyline points="419.534,246.72 434.464,235.662 " fill="transparent" stroke-width="0.5" stroke="rgb(0,0,255)" />
	<polyline points="434.464,235.662 455.723,226.13 " fill="transparent" stroke-width="0.5" stroke="rgb(0,0,255)" />
	<polyline points="434.464,235.662 316.554,264.398 " fill="transparent" stroke-width="0.5" stroke="rgb(0,0,255)" />
	<polyline points="434.464,235.662 348.409,290.388 " fill="transparent" stroke-width="0.5" stroke="rgb(0,0,255)" />
	<polyline points="419.534,246.72 411.168,236.879 " fill="transparent" stroke-width="0.5" stroke="rgb(0,0,255)" />
	<polyline points="411.168,236.879 399.704,221.983 " fill="transparent" stroke-width="0.5" stroke="rgb(0,0,255)" />
	<polyline points="399.704,221.983 384.499,206.343 " fill="transparent" stroke-width="0.5" stroke="rgb(0,0,255)" />
	<polyline points="384.499,206.343 374.144,197.212 " fill="transparent" stroke-width="0.5" stroke="rgb(0,0,255)" />
	<polyline points="374.144,197.212 340.296,177.946 " fill="transparent" stroke-width="0.5" stroke="rgb(0,0,255)" />
	<polyline points="340.296,177.946 351.689,169.183 " fill="transparent" stroke-width="0.5" stroke="rgb(0,0,255)" />
	<polyline points="384.499,206.343 398.115,193.705 " fill="transparent" stroke-width="0.5" stroke="rgb(0,0,255)" />
	<polyline points="398.115,193.705 414.268,185.312 " fill="transparent" stroke-width="0.5" stroke="rgb(0,0,255)" />
	<polyline points="414.268,185.312 322.848,208.777 " fill="transparent" stroke-width="0.5" stroke="rgb(0,0,255)" />
	<polyline points="414.268,185.312 417.82,170.885 " fill="transparent" stroke-width="0.5" stroke="rgb(0,0,255)" />
	<polyline points="417.82,170.885 498.426,187.172 " fill="transparent" stroke-width="0.5" stroke="rgb(0,0,255)" />
	<polyline points="498.426,187.172 479.812,173.503 " fill="transparent" stroke-width="0.5" stroke="rgb(0,0,255)" />
	<polyline points="479.812,173.503 479.832,151.856 " fill="transparent" stroke-width="0.5" stroke="rgb(0,0,255)" />
	<polyline points="479.832,151.856 462.636,139.035 " fill="transparent" stroke-width="0.5" stroke="rgb(0,0,255)" />
	<polyline points="462.636,139.035 416.03,211.212 " fill="transparent" stroke-width="0.5" stroke="rgb(0,0,255)" />
	<polyline points="498.426,187.172 495.561,177.008 " fill="transparent" stroke-width="0.5" stroke="rgb(0,0,255)" />
	<polyline points="417.82,170.885 343.708,264.789 " fill="transparent" stroke-width="0.5" stroke="rgb(0,0,255)" />
	<polyline points="417.82,170.885 327.078,200.878 " fill="transparent" stroke-width="0.5" stroke="rgb(0,0,255)" />
	<polyline points="398.115,193.705 381.382,177.775 " fill="transparent" stroke-width="0.5" stroke="rgb(0,0,255)" />
	<polyline points="381.382,177.775 389.295,163.505 " fill="transparent" stroke-width="0.5" stroke="rgb(0,0,255)" />
	<polyline points="389.295,163.505 384.023,154.979 " fill="transparent" stroke-width="0.5" stroke="rgb(0,0,255)" />
	<polyline points="384.023,154.979 376.385,144.541 " fill="transparent" stroke-width="0.5" stroke="rgb(0,0,255)" />
	<polyline points="376.385,144.541 373.492,131.4 " fill="transparent" stroke-width="0.5" stroke="rgb(0,0,255)" />
	<polyline points="373.492,131.4 377.439,120.708 " fill="transparent" stroke-width="0.5" stroke="rgb(0,0,255)" />
	<polyline points="377.439,120.708 276.455,208.874 " fill="transparent" stroke-width="0.5" stroke="rgb(0,0,255)" />
	<polyline points="377.439,120.708 282.058,215.647 " fill="transparent" stroke-width="0.5" stroke="rgb(0,0,255)" />
	<polyline points="373.492,131.4 373.593,252.496 " fill="transparent" stroke-width="0.5" stroke="rgb(0,0,255)" />
	<polyline points="373.492,131.4 323.358,206.704 " fill="transparent" stroke-width="0.5" stroke="rgb(0,0,255)" />
	<polyline points="373.492,131.4 259.079,197.607 " fill="transparent" stroke-width="0.5" stroke="rgb(0,0,255)" />
	<polyline points="373.492,131.4 269.047,215.166 " fill="transparent" stroke-width="0.5" stroke="rgb(0,0,255)" />
	<polyline points="384.023,154.979 298.009,237.868 " fill="transparent" stroke-width="0.5" stroke="rgb(0,0,255)" />
	<polyline points="389.295,163.505 297.081,238.103 " fill="transparent" stroke-width="0.5" stroke="rgb(0,0,255)" />
	<polyline points="398.115,193.705 339.407,261.904 " fill="transparent" stroke-width="0.5" stroke="rgb(0,0,255)" />
	<polyline points="398.115,193.705 382.612,268.077 " fill="transparent" stroke-width="0.5" stroke="rgb(0,0,255)" />
	<polyline points="382.612,268.077 277.871,311.207 " fill="transparent" stroke-width="0.5" stroke="rgb(0,0,255)" />
	<polyline points="398.115,193.705 308.461,240.997 " fill="transparent" stroke-width="0.5" stroke="rgb(0,0,255)" />
	<polyline points="308.461,240.997 316.527,235.785 " fill="transparent" stroke-width="0.5" stroke="rgb(0,0,255)" />
	<polyline points="316.527,235.785 216.201,220.87 " fill="transparent" stroke-width="0.5" stroke="rgb(0,0,255)" />
	<polyline points="316.527,235.785 209.151,257.295 " fill="transparent" stroke-width="0.5" stroke="rgb(0,0,255)" />
	<polyline points="398.115,193.705 309.908,273.715 " fill="transparent" stroke-width="0.5" stroke="rgb(0,0,255)" />
	<polyline points="309.908,273.715 231.305,288.399 " fill="transparent" stroke-width="0.5" stroke="rgb(0,0,255)" />
	<polyline points="419.534,246.72 335.397,305.96 " fill="transparent" stroke-width="0.5" stroke="rgb(0,0,255)" />
	<polyline points="335.397,305.96 316.563,288.081 " fill="transparent" stroke-width="0.5" stroke="rgb(0,0,255)" />
	<polyline points="367.679,270.488 288.823,286.199 " fill="transparent" stroke-width="0.5" stroke="rgb(0,0,255)" />
	<polyline points="288.823,286.199 283.845,269.066 " fill="transparent" stroke-width="0.5" stroke="rgb(0,0,255)" />
	<polyline points="288.823,286.199 297.751,277.377 " fill="transparent" stroke-width="0.5" stroke="rgb(0,0,255)" />
	<polyline points="367.679,270.488 291.512,277.927 " fill="transparent" stroke-width="0.5" stroke="rgb(0,0,255)" />
	<polyline points="291.512,277.927 286.814,264.082 " fill="transparent" stroke-width="0.5" stroke="rgb(0,0,255)" />
	<polyline points="286.814,264.082 292.643,249.803 " fill="transparent" stroke-width="0.5" stroke="rgb(0,0,255)" />
	<polyline points="355.324,294.138 316.955,280.389 " fill="transparent" stroke-width="0.5" stroke="rgb(0,0,255)" />
	<polyline points="316.955,280.389 226.31,266.904 " fill="transparent" stroke-width="0.5" stroke="rgb(0,0,255)" />
	<polyline points="226.31,266.904 218.336,246.631 " fill="transparent" stroke-width="0.5" stroke="rgb(0,0,255)" />
	<polyline points="218.336,246.631 251.281,251.359 " fill="transparent" stroke-width="0.5" stroke="rgb(0,0,255)" />
	<polyline points="251.281,251.359 258.676,245.426 " fill="transparent" stroke-width="0.5" stroke="rgb(0,0,255)" />
	<polyline points="258.676,245.426 198.011,285.566 " fill="transparent" stroke-width="0.5" stroke="rgb(0,0,255)" />
	<polyline points="258.676,245.426 172.201,243.717 " fill="transparent" stroke-width="0.5" stroke="rgb(0,0,255)" />
	<polyline points="172.201,243.717 174.909,232.93 " fill="transparent" stroke-width="0.5" stroke="rgb(0,0,255)" />
	<polyline points="172.201,243.717 116.23,221.458 " fill="transparent" stroke-width="0.5" stroke="rgb(0,0,255)" />
	<polyline points="218.336,246.631 132.479,246.52 " fill="transparent" stroke-width="0.5" stroke="rgb(0,0,255)" />
	<polyline points="132.479,246.52 108.694,223.573 " fill="transparent" stroke-width="0.5" stroke="rgb(0,0,255)" />
	<polyline points="108.694,223.573 142.587,226.017 " fill="transparent" stroke-width="0.5" stroke="rgb(0,0,255)" />
	<polyline points="142.587,226.017 206.702,244.678 " fill="transparent" stroke-width="0.5" stroke="rgb(0,0,255)" />
	<polyline points="142.587,226.017 132.085,203.27 " fill="transparent" stroke-width="0.5" stroke="rgb(0,0,255)" />
	<polyline points="132.085,203.27 146.019,196.401 " fill="transparent" stroke-width="0.5" stroke="rgb(0,0,255)" />
	<polyline points="146.019,196.401 199.376,211.736 " fill="transparent" stroke-width="0.5" stroke="rgb(0,0,255)" />
	<polyline points="199.376,211.736 198.681,192.753 " fill="transparent" stroke-width="0.5" stroke="rgb(0,0,255)" />
	<polyline points="199.376,211.736 207.677,204.141 " fill="transparent" stroke-width="0.5" stroke="rgb(0,0,255)" />
	<polyline points="207.677,204.141 226.583,194.697 " fill="transparent" stroke-width="0.5" stroke="rgb(0,0,255)" />
	<polyline points="146.019,196.401 192.837,200.267 " fill="transparent" stroke-width="0.5" stroke="rgb(0,0,255)" />
	<polyline points="192.837,200.267 195.758,188.306 " fill="transparent" stroke-width="0.5" stroke="rgb(0,0,255)" />
	<polyline points="195.758,188.306 176.5,172.727 " fill="transparent" stroke-width="0.5" stroke="rgb(0,0,255)" />
	<polyline points="176.5,172.727 171.996,155.654 " fill="transparent" stroke-width="0.5" stroke="rgb(0,0,255)" />
	<polyline points="171.996,155.654 192.461,150.686 " fill="transparent" stroke-width="0.5" stroke="rgb(0,0,255)" />
	<polyline points="192.461,150.686 201.454,146.022 " fill="transparent" stroke-width="0.5" stroke="rgb(0,0,255)" />
	<polyline points="171.996,155.654 162.253,140.796 " fill="transparent" stroke-width="0.5" stroke="rgb(0,0,255)" />
	<polyline points="171.996,155.654 143.94,132.965 " fill="transparent" stroke-width="0.5" stroke="rgb(0,0,255)" />
	<polyline points="143.94,132.965 123.028,113.258 " fill="transparent" stroke-width="0.5" stroke="rgb(0,0,255)" />
	<polyline points="123.028,113.258 127.214,103.078 " fill="transparent" stroke-width="0.5" stroke="rgb(0,0,255)" />
	<polyline points="123.028,113.258 120.484,102.429 " fill="transparent" stroke-width="0.5" stroke="rgb(0,0,255)" />
	<polyline points="120.484,102.429 119.204,90.207 " fill="transparent" stroke-width="0.5" stroke="rgb(0,0,255)" />
	<polyline points="119.204,90.207 169.624,112.767 " fill="transparent" stroke-width="0.5" stroke="rgb(0,0,255)" />
	<polyline points="119.204,90.207 107.446,79.1566 " fill="transparent" stroke-width="0.5" stroke="rgb(0,0,255)" />
	<polyline points="107.446,79.1566 154.275,151.704 " fill="transparent" stroke-width="0.5" stroke="rgb(0,0,255)" />
	<polyline points="107.446,79.1566 30.616,102.754 " fill="transparent" stroke-width="0.5" stroke="rgb(0,0,255)" />
	<polyline points="30.616,102.754 76.9406,245.647 " fill="transparent" stroke-width="0.5" stroke="rgb(0,0,255)" />
	<polyline points="30.616,102.754 104.952,213.544 " fill="transparent" stroke-width="0.5" stroke="rgb(0,0,255)" />
	<polyline points="30.616,102.754 104.519,195.345 " fill="transparent" stroke-width="0.5" stroke="rgb(0,0,255)" />
	<polyline points="119.204,90.207 204.61,142.579 " fill="transparent" stroke-width="0.5" stroke="rgb(0,0,255)" />
	<polyline points="176.5,172.727 115.883,144.855 " fill="transparent" stroke-width="0.5" stroke="rgb(0,0,255)" />
	<polyline points="115.883,144.855 98.9312,135.601 " fill="transparent" stroke-width="0.5" stroke="rgb(0,0,255)" />
	<polyline points="98.9312,135.601 148.284,222.441 " fill="transparent" stroke-width="0.5" stroke="rgb(0,0,255)" />
	<polyline points="98.9312,135.601 87.57,126.046 " fill="transparent" stroke-width="0.5" stroke="rgb(0,0,255)" />
	<polyline points="87.57,126.046 73.032,120.362 " fill="transparent" stroke-width="0.5" stroke="rgb(0,0,255)" />
	<polyline points="73.032,120.362 65.4137,112.801 " fill="transparent" stroke-width="0.5" stroke="rgb(0,0,255)" />
	<polyline points="115.883,144.855 205.098,189.311 " fill="transparent" stroke-width="0.5" stroke="rgb(0,0,255)" />
	<polyline points="115.883,144.855 207.174,193.875 " fill="transparent" stroke-width="0.5" stroke="rgb(0,0,255)" />
	<polyline points="195.758,188.306 216.084,190.018 " fill="transparent" stroke-width="0.5" stroke="rgb(0,0,255)" />
	<polyline points="216.084,190.018 214.291,176.503 " fill="transparent" stroke-width="0.5" stroke="rgb(0,0,255)" />
	<polyline points="214.291,176.503 229.458,167.981 " fill="transparent" stroke-width="0.5" stroke="rgb(0,0,255)" />
	<polyline points="229.458,167.981 241.038,163.517 " fill="transparent" stroke-width="0.5" stroke="rgb(0,0,255)" />
	<polyline points="229.458,167.981 241.838,156.774 " fill="transparent" stroke-width="0.5" stroke="rgb(0,0,255)" />
	<polyline points="241.838,156.774 252.107,153.75 " fill="transparent" stroke-width="0.5" stroke="rgb(0,0,255)" />
	<polyline points="252.107,153.75 258.423,146.865 " fill="transparent" stroke-width="0.5" stroke="rgb(0,0,255)" />
	<polyline points="252.107,153.75 258.891,147.121 " fill="transparent" stroke-width="0.5" stroke="rgb(0,0,255)" />
	<polyline points="258.891,147.121 156.144,121.899 " fill="transparent" stroke-width="0.5" stroke="rgb(0,0,255)" />
	<polyline points="156.144,121.899 152.681,109.586 " fill="transparent" stroke-width="0.5" stroke="rgb(0,0,255)" />
	<polyline points="152.681,109.586 150.274,94.0689 " fill="transparent" stroke-width="0.5" stroke="rgb(0,0,255)" />
	<polyline points="152.681,109.586 196.137,126.762 " fill="transparent" stroke-width="0.5" stroke="rgb(0,0,255)" />
	<polyline points="196.137,126.762 206.963,114.14 " fill="transparent" stroke-width="0.5" stroke="rgb(0,0,255)" />
	<polyline points="196.137,126.762 205.949,123.014 " fill="transparent" stroke-width="0.5" stroke="rgb(0,0,255)" />
	<polyline points="205.949,123.014 203.866,109.023 " fill="transparent" stroke-width="0.5" stroke="rgb(0,0,255)" />
	<polyline points="203.866,109.023 233.187,116.557 " fill="transparent" stroke-width="0.5" stroke="rgb(0,0,255)" />
	<polyline points="233.187,116.557 251.452,116.086 " fill="transparent" stroke-width="0.5" stroke="rgb(0,0,255)" />
	<polyline points="152.681,109.586 137.269,226.997 " fill="transparent" stroke-width="0.5" stroke="rgb(0,0,255)" />
	<polyline points="258.891,147.121 273.876,145.374 " fill="transparent" stroke-width="0.5" stroke="rgb(0,0,255)" />
	<polyline points="273.876,145.374 278.755,139.641 " fill="transparent" stroke-width="0.5" stroke="rgb(0,0,255)" />
	<polyline points="278.755,139.641 140.899,176.466 " fill="transparent" stroke-width="0.5" stroke="rgb(0,0,255)" />
	<polyline points="140.899,176.466 178.76,189.834 " fill="transparent" stroke-width="0.5" stroke="rgb(0,0,255)" />
	<polyline points="216.084,190.018 280.366,230.179 " fill="transparent" stroke-width="0.5" stroke="rgb(0,0,255)" />
	<polyline points="280.366,230.179 278.408,221.452 " fill="transparent" stroke-width="0.5" stroke="rgb(0,0,255)" />
	<polyline points="280.366,230.179 337.295,241.148 " fill="transparent" stroke-width="0.5" stroke="rgb(0,0,255)" />
	<polyline points="337.295,241.148 294.824,219.465 " fill="transparent" stroke-width="0.5" stroke="rgb(0,0,255)" />
	<polyline points="294.824,219.465 295.635,210.252 " fill="transparent" stroke-width="0.5" stroke="rgb(0,0,255)" />
	<polyline points="295.635,210.252 288.958,192.109 " fill="transparent" stroke-width="0.5" stroke="rgb(0,0,255)" />
	<polyline points="288.958,192.109 194.545,197.795 " fill="transparent" stroke-width="0.5" stroke="rgb(0,0,255)" />
	<polyline points="280.366,230.179 218.519,269.241 " fill="transparent" stroke-width="0.5" stroke="rgb(0,0,255)" />
	<polyline points="218.336,246.631 180.881,228.619 " fill="transparent" stroke-width="0.5" stroke="rgb(0,0,255)" />
	<polyline points="226.31,266.904 269.946,282.329 " fill="transparent" stroke-width="0.5" stroke="rgb(0,0,255)" />
	<polyline points="269.946,282.329 179.746,298.44 " fill="transparent" stroke-width="0.5" stroke="rgb(0,0,255)" />
	<polyline points="269.946,282.329 261.282,267.055 " fill="transparent" stroke-width="0.5" stroke="rgb(0,0,255)" />
	<polyline points="316.955,280.389 186.855,323.944 " fill="transparent" stroke-width="0.5" stroke="rgb(0,0,255)" />
	<polyline points="186.855,323.944 193.588,308.177 " fill="transparent" stroke-width="0.5" stroke="rgb(0,0,255)" />
	<polyline points="186.855,323.944 211.574,317.563 " fill="transparent" stroke-width="0.5" stroke="rgb(0,0,255)" />
	<polyline points="211.574,317.563 88.3237,360.887 " fill="transparent" stroke-width="0.5" stroke="rgb(0,0,255)" />
	<polyline points="435.918,408.18 471.893,399.813 " fill="transparent" stroke-width="0.5" stroke="rgb(0,0,255)" />
	<polyline points="471.893,399.813 438.595,392.718 " fill="transparent" stroke-width="0.5" stroke="rgb(0,0,255)" />
	<polyline points="471.893,399.813 479.33,390.485 " fill="transparent" stroke-width="0.5" stroke="rgb(0,0,255)" />
	<polyline points="479.33,390.485 490.162,380.325 " fill="transparent" stroke-width="0.5" stroke="rgb(0,0,255)" />
	<polyline points="490.162,380.325 489.278,370.694 " fill="transparent" stroke-width="0.5" stroke="rgb(0,0,255)" />
	<polyline points="397.599,413.543 381.356,404.524 " fill="transparent" stroke-width="0.5" stroke="rgb(0,0,255)" />
	<polyline points="381.356,404.524 303.01,417.909 " fill="transparent" stroke-width="0.5" stroke="rgb(0,0,255)" />
	<polyline points="381.356,404.524 293.869,417.644 " fill="transparent" stroke-width="0.5" stroke="rgb(0,0,255)" />
	<polyline points="293.869,417.644 292.513,401.841 " fill="transparent" stroke-width="0.5" stroke="rgb(0,0,255)" />
	<polyline points="292.513,401.841 290.89,392.297 " fill="transparent" stroke-width="0.5" stroke="rgb(0,0,255)" />
	<polyline points="290.89,392.297 192.391,470.137 " fill="transparent" stroke-width="0.5" stroke="rgb(0,0,255)" />
	<polyline points="381.356,404.524 321.066,440.426 " fill="transparent" stroke-width="0.5" stroke="rgb(0,0,255)" />
	<polyline points="397.599,413.543 300.587,449.066 " fill="transparent" stroke-width="0.5" stroke="rgb(0,0,255)" />
	<polyline points="300.587,449.066 276.691,435.346 " fill="transparent" stroke-width="0.5" stroke="rgb(0,0,255)" />
	<polyline points="276.691,435.346 286.728,420.822 " fill="transparent" stroke-width="0.5" stroke="rgb(0,0,255)" />
	<polyline points="300.587,449.066 291.467,440.355 " fill="transparent" stroke-width="0.5" stroke="rgb(0,0,255)" />
	<polyline points="300.587,449.066 317.534,439.877 " fill="transparent" stroke-width="0.5" stroke="rgb(0,0,255)" />
	<polyline points="300.587,449.066 297.358,439.876 " fill="transparent" stroke-width="0.5" stroke="rgb(0,0,255)" />
	<polyline points="397.599,413.543 294.417,437.006 " fill="transparent" stroke-width="0.5" stroke="rgb(0,0,255)" />
	<polyline points="326.283,431.371 411.209,484.827 " fill="transparent" stroke-width="0.5" stroke="rgb(0,0,255)" />
	<polyline points="411.209,484.827 376.144,486.032 " fill="transparent" stroke-width="0.5" stroke="rgb(0,0,255)" />
	<polyline points="411.209,484.827 393.482,477.751 " fill="transparent" stroke-width="0.5" stroke="rgb(0,0,255)" />
	<polyline points="393.482,477.751 395.575,464.048 " fill="transparent" stroke-width="0.5" stroke="rgb(0,0,255)" />
	<polyline points="393.482,477.751 383.277,466.483 " fill="transparent" stroke-width="0.5" stroke="rgb(0,0,255)" />
	<polyline points="411.209,484.827 417.354,471.109 " fill="transparent" stroke-width="0.5" stroke="rgb(0,0,255)" />
	<polyline points="417.354,471.109 383.704,461.975 " fill="transparent" stroke-width="0.5" stroke="rgb(0,0,255)" />
	<polyline points="383.704,461.975 394.595,452.063 " fill="transparent" stroke-width="0.5" stroke="rgb(0,0,255)" />
	<polyline points="417.354,471.109 450.001,462.266 " fill="transparent" stroke-width="0.5" stroke="rgb(0,0,255)" />
	<polyline points="450.001,462.266 443.538,452.623 " fill="transparent" stroke-width="0.5" stroke="rgb(0,0,255)" />
	<polyline points="450.001,462.266 462.23,454.461 " fill="transparent" stroke-width="0.5" stroke="rgb(0,0,255)" />
	<polyline points="462.23,454.461 497.702,448.831 " fill="transparent" stroke-width="0.5" stroke="rgb(0,0,255)" />
	<polyline points="411.209,484.827 330.81,496.797 " fill="transparent" stroke-width="0.5" stroke="rgb(0,0,255)" />
	<polyline points="411.209,484.827 342.094,493.703 " fill="transparent" stroke-width="0.5" stroke="rgb(0,0,255)" />
	<polyline points="342.094,493.703 344.679,483.21 " fill="transparent" stroke-width="0.5" stroke="rgb(0,0,255)" />
	<polyline points="344.679,483.21 297.898,477.204 " fill="transparent" stroke-width="0.5" stroke="rgb(0,0,255)" />
	<polyline points="314.099,443.565 228.47,465.25 " fill="transparent" stroke-width="0.5" stroke="rgb(0,0,255)" />
	<polyline points="314.099,443.565 242.073,445.96 " fill="transparent" stroke-width="0.5" stroke="rgb(0,0,255)" />
	<polyline points="314.099,443.565 207.295,472.189 " fill="transparent" stroke-width="0.5" stroke="rgb(0,0,255)" />
	<polyline points="207.295,472.189 220.312,454.863 " fill="transparent" stroke-width="0.5" stroke="rgb(0,0,255)" />
	<polyline points="236.121,440.467 147.643,488.958 " fill="transparent" stroke-width="0.5" stroke="rgb(0,0,255)" />
	<polyline points="147.643,488.958 154.547,473.588 " fill="transparent" stroke-width="0.5" stroke="rgb(0,0,255)" />
	<polyline points="147.643,488.958 178.191,473.704 " fill="transparent" stroke-width="0.5" stroke="rgb(0,0,255)" />
	<polyline points="178.191,473.704 186.607,463.333 " fill="transparent" stroke-width="0.5" stroke="rgb(0,0,255)" />
	<polyline points="154.981,402.221 66.5131,445.234 " fill="transparent" stroke-width="0.5" stroke="rgb(0,0,255)" />
	<polyline points="140.491,422.69 78.9213,437.748 " fill="transparent" stroke-width="0.5" stroke="rgb(0,0,255)" />
	<polyline points="78.9213,437.748 78.0676,412.898 " fill="transparent" stroke-width="0.5" stroke="rgb(0,0,255)" />
	<circle cx="83.3333" cy="416.667" r="2" fill="rgb(255,0,0)" />
	<circle cx="416.667" cy="83.3333" r="2" fill="rgb(0,255,0)" />
	<polyline points="83.3333,416.667 104.307,404.583 129.379,387.234 158.336,380.277 167.888,371.365 202.387,358.414 208.631,346.301 204.808,330.918 188.519,313.507 135.406,310.775 130.568,288.625 120.786,276.149 125.313,264.83 95.0453,241.32 83.5571,219.538 104.756,204.928 145.875,208.435 167.96,197.572 169.911,182.811 137.215,155.135 219.851,195.06 233.19,192.704 267.463,205.36 295.588,201.284 322.832,198.1 338.512,196.154 363.25,197.585 380.932,188.297 383.416,173.337 406.203,162.951 412.349,151.688 412.7,134.486 408.118,126.027 403.224,112.31 397.379,98.6893 411.343,84.6098 " fill="transparent" stroke-width="3" stroke="rgb(0,0,0)" />
</svg>
