<?xml version="1.0" standalone="no" ?>
<!DOCTYPE svg PUBLIC "-//W3C//DTD SVG 1.1//EN" "http://www.w3.org/Graphics/SVG/1.1/DTD/svg11.dtd">
<svg width="500px" height="500px" xmlns="http://www.w3.org/2000/svg" version="1.1" >
	<circle cx="416.03" cy="211.212" r="2.5" fill="rgb(255,255,255)" />
	<circle cx="462.636" cy="139.035" r="2.5" fill="rgb(249,249,249)" />
	<circle cx="282.058" cy="215.647" r="2.5" fill="rgb(246,246,246)" />
	<circle cx="276.455" cy="208.874" r="2.5" fill="rgb(246,246,246)" />
	<circle cx="251.452" cy="116.086" r="2.5" fill="rgb(242,242,242)" />
	<circle cx="479.832" cy="151.856" r="2.5" fill="rgb(239,239,239)" />
	<circle cx="269.047" cy="215.166" r="2.5" fill="rgb(239,239,239)" />
	<circle cx="373.593" cy="252.496" r="2.5" fill="rgb(239,239,239)" />
	<circle cx="259.079" cy="197.607" r="2.5" fill="rgb(239,239,239)" />
	<circle cx="233.187" cy="116.557" r="2.5" fill="rgb(239,239,239)" />
	<circle cx="194.545" cy="197.795" r="2.5" fill="rgb(238,238,238)" />
	<circle cx="377.439" cy="120.708" r="2.5" fill="rgb(238,238,238)" />
	<circle cx="323.358" cy="206.704" r="2.5" fill="rgb(237,237,237)" />
	<circle cx="203.866" cy="109.023" r="2.5" fill="rgb(235,235,235)" />
	<circle cx="206.963" cy="114.14" r="2.5" fill="rgb(234,234,234)" />
	<circle cx="178.76" cy="189.834" r="2.5" fill="rgb(233,233,233)" />
	<circle cx="76.9406" cy="245.647" r="2.5" fill="rgb(232,232,232)" />
	<circle cx="373.492" cy="131.4" r="2.5" fill="rgb(232,232,232)" />
	<circle cx="205.949" cy="123.014" r="2.5" fill="rgb(232,232,232)" />
	<circle cx="288.958" cy="192.109" r="2.5" fill="rgb(231,231,231)" />
	<circle cx="104.952" cy="213.544" r="2.5" fill="rgb(231,231,231)" />
	<circle cx="150.274" cy="94.0689" r="2.5" fill="rgb(231,231,231)" />
	<circle cx="137.269" cy="226.997" r="2.5" fill="rgb(231,231,231)" />
	<circle cx="104.519" cy="195.345" r="2.5" fill="rgb(231,231,231)" />
	<circle cx="140.899" cy="176.466" r="2.5" fill="rgb(229,229,229)" />
	<circle cx="196.137" cy="126.762" r="2.5" fill="rgb(229,229,229)" />
	<circle cx="479.812" cy="173.503" r="2.5" fill="rgb(228,228,228)" />
	<circle cx="152.681" cy="109.586" r="2.5" fill="rgb(226,226,226)" />
	<circle cx="30.616" cy="102.754" r="2.5" fill="rgb(226,226,226)" />
	<circle cx="298.009" cy="237.868" r="2.5" fill="rgb(226,226,226)" />
	<circle cx="376.385" cy="144.541" r="2.5" fill="rgb(224,224,224)" />
	<circle cx="495.561" cy="177.008" r="2.5" fill="rgb(224,224,224)" />
	<circle cx="278.755" cy="139.641" r="2.5" fill="rgb(223,223,223)" />
	<circle cx="154.275" cy="151.704" r="2.5" fill="rgb(222,222,222)" />
	<circle cx="156.144" cy="121.899" r="2.5" fill="rgb(222,222,222)" />
	<circle cx="295.635" cy="210.252" r="2.5" fill="rgb(221,221,221)" />
	<circle cx="297.081" cy="238.103" r="2.5" fill="rgb(221,221,221)" />
	<circle cx="273.876" cy="145.374" r="2.5" fill="rgb(220,220,220)" />
	<circle cx="107.446" cy="79.1566" r="2.5" fill="rgb(219,219,219)" />
	<circle cx="204.61" cy="142.579" r="2.5" fill="rgb(219,219,219)" />
	<circle cx="384.023" cy="154.979" r="2.5" fill="rgb(219,219,219)" />
	<circle cx="498.426" cy="187.172" r="2.5" fill="rgb(219,219,219)" />
	<circle cx="343.708" cy="264.789" r="2.5" fill="rgb(219,219,219)" />
	<circle cx="327.078" cy="200.878" r="2.5" fill="rgb(218,218,218)" />
	<circle cx="169.624" cy="112.767" r="2.5" fill="rgb(218,218,218)" />
	<circle cx="258.891" cy="147.121" r="2.5" fill="rgb(216,216,216)" />
	<circle cx="258.423" cy="146.865" r="2.5" fill="rgb(216,216,216)" />
	<circle cx="119.204" cy="90.207" r="2.5" fill="rgb(215,215,215)" />
	<circle cx="294.824" cy="219.465" r="2.5" fill="rgb(215,215,215)" />
	<circle cx="389.295" cy="163.505" r="2.5" fill="rgb(214,214,214)" />
	<circle cx="216.201" cy="220.87" r="2.5" fill="rgb(214,214,214)" />
	<circle cx="209.151" cy="257.295" r="2.5" fill="rgb(213,213,213)" />
	<circle cx="65.4137" cy="112.801" r="2.5" fill="rgb(213,213,213)" />
	<circle cx="252.107" cy="153.75" r="2.5" fill="rgb(212,212,212)" />
	<circle cx="417.82" cy="170.885" r="2.5" fill="rgb(212,212,212)" />
	<circle cx="127.214" cy="103.078" r="2.5" fill="rgb(211,211,211)" />
	<circle cx="120.484" cy="102.429" r="2.5" fill="rgb(211,211,211)" />
	<circle cx="322.848" cy="208.777" r="2.5" fill="rgb(209,209,209)" />
	<circle cx="241.838" cy="156.774" r="2.5" fill="rgb(209,209,209)" />
	<circle cx="73.032" cy="120.362" r="2.5" fill="rgb(209,209,209)" />
	<circle cx="231.305" cy="288.399" r="2.5" fill="rgb(209,209,209)" />
	<circle cx="277.871" cy="311.207" r="2.5" fill="rgb(209,209,209)" />
	<circle cx="351.689" cy="169.183" r="2.5" fill="rgb(208,208,208)" />
	<circle cx="123.028" cy="113.258" r="2.5" fill="rgb(208,208,208)" />
	<circle cx="316.527" cy="235.785" r="2.5" fill="rgb(207,207,207)" />
	<circle cx="241.038" cy="163.517" r="2.5" fill="rgb(207,207,207)" />
	<circle cx="87.57" cy="126.046" r="2.5" fill="rgb(206,206,206)" />
	<circle cx="337.295" cy="241.148" r="2.5" fill="rgb(206,206,206)" />
	<circle cx="201.454" cy="146.022" r="2.5" fill="rgb(206,206,206)" />
	<circle cx="148.284" cy="222.441" r="2.5" fill="rgb(206,206,206)" />
	<circle cx="381.382" cy="177.775" r="2.5" fill="rgb(205,205,205)" />
	<circle cx="207.174" cy="193.875" r="2.5" fill="rgb(204,204,204)" />
	<circle cx="205.098" cy="189.311" r="2.5" fill="rgb(204,204,204)" />
	<circle cx="309.908" cy="273.715" r="2.5" fill="rgb(204,204,204)" />
	<circle cx="414.268" cy="185.312" r="2.5" fill="rgb(203,203,203)" />
	<circle cx="308.461" cy="240.997" r="2.5" fill="rgb(203,203,203)" />
	<circle cx="229.458" cy="167.981" r="2.5" fill="rgb(203,203,203)" />
	<circle cx="192.461" cy="150.686" r="2.5" fill="rgb(203,203,203)" />
	<circle cx="143.94" cy="132.965" r="2.5" fill="rgb(203,203,203)" />
	<circle cx="339.407" cy="261.904" r="2.5" fill="rgb(202,202,202)" />
	<circle cx="98.9312" cy="135.601" r="2.5" fill="rgb(202,202,202)" />
	<circle cx="278.408" cy="221.452" r="2.5" fill="rgb(202,202,202)" />
	<circle cx="218.519" cy="269.241" r="2.5" fill="rgb(202,202,202)" />
	<circle cx="382.612" cy="268.077" r="2.5" fill="rgb(202,202,202)" />
	<circle cx="162.253" cy="140.796" r="2.5" fill="rgb(201,201,201)" />
	<circle cx="340.296" cy="177.946" r="2.5" fill="rgb(201,201,201)" />
	<circle cx="115.883" cy="144.855" r="2.5" fill="rgb(199,199,199)" />
	<circle cx="171.996" cy="155.654" r="2.5" fill="rgb(198,198,198)" />
	<circle cx="280.366" cy="230.179" r="2.5" fill="rgb(198,198,198)" />
	<circle cx="214.291" cy="176.503" r="2.5" fill="rgb(197,197,197)" />
	<circle cx="398.115" cy="193.705" r="2.5" fill="rgb(197,197,197)" />
	<circle cx="226.583" cy="194.697" r="2.5" fill="rgb(194,194,194)" />
	<circle cx="176.5" cy="172.727" r="2.5" fill="rgb(193,193,193)" />
	<circle cx="216.084" cy="190.018" r="2.5" fill="rgb(193,193,193)" />
	<circle cx="374.144" cy="197.212" r="2.5" fill="rgb(193,193,193)" />
	<circle cx="198.681" cy="192.753" r="2.5" fill="rgb(190,190,190)" />
	<circle cx="195.758" cy="188.306" r="2.5" fill="rgb(189,189,189)" />
	<circle cx="384.499" cy="206.343" r="2.5" fill="rgb(188,188,188)" />
	<circle cx="207.677" cy="204.141" r="2.5" fill="rgb(188,188,188)" />
	<circle cx="192.837" cy="200.267" r="2.5" fill="rgb(185,185,185)" />
	<circle cx="199.376" cy="211.736" r="2.5" fill="rgb(184,184,184)" />
	<circle cx="316.554" cy="264.398" r="2.5" fill="rgb(182,182,182)" />
	<circle cx="455.723" cy="226.13" r="2.5" fill="rgb(182,182,182)" />
	<circle cx="316.563" cy="288.081" r="2.5" fill="rgb(181,181,181)" />
	<circle cx="348.409" cy="290.388" r="2.5" fill="rgb(181,181,181)" />
	<circle cx="399.704" cy="221.983" r="2.5" fill="rgb(180,180,180)" />
	<circle cx="146.019" cy="196.401" r="2.5" fill="rgb(179,179,179)" />
	<circle cx="362.285" cy="291.844" r="2.5" fill="rgb(177,177,177)" />
	<circle cx="132.085" cy="203.27" r="2.5" fill="rgb(175,175,175)" />
	<circle cx="434.464" cy="235.662" r="2.5" fill="rgb(175,175,175)" />
	<circle cx="206.702" cy="244.678" r="2.5" fill="rgb(174,174,174)" />
	<circle cx="430.255" cy="236.495" r="2.5" fill="rgb(174,174,174)" />
	<circle cx="335.397" cy="305.96" r="2.5" fill="rgb(173,173,173)" />
	<circle cx="116.23" cy="221.458" r="2.5" fill="rgb(172,172,172)" />
	<circle cx="433.716" cy="240.272" r="2.5" fill="rgb(172,172,172)" />
	<circle cx="411.168" cy="236.879" r="2.5" fill="rgb(172,172,172)" />
	<circle cx="432.838" cy="241.706" r="2.5" fill="rgb(171,171,171)" />
	<circle cx="174.909" cy="232.93" r="2.5" fill="rgb(171,171,171)" />
	<circle cx="398.825" cy="238.548" r="2.5" fill="rgb(169,169,169)" />
	<circle cx="142.587" cy="226.017" r="2.5" fill="rgb(168,168,168)" />
	<circle cx="419.534" cy="246.72" r="2.5" fill="rgb(167,167,167)" />
	<circle cx="172.201" cy="243.717" r="2.5" fill="rgb(166,166,166)" />
	<circle cx="198.011" cy="285.566" r="2.5" fill="rgb(165,165,165)" />
	<circle cx="292.643" cy="249.803" r="2.5" fill="rgb(164,164,164)" />
	<circle cx="108.694" cy="223.573" r="2.5" fill="rgb(164,164,164)" />
	<circle cx="403.986" cy="253.925" r="2.5" fill="rgb(160,160,160)" />
	<circle cx="391.481" cy="250.934" r="2.5" fill="rgb(160,160,160)" />
	<circle cx="258.676" cy="245.426" r="2.5" fill="rgb(160,160,160)" />
	<circle cx="283.845" cy="269.066" r="2.5" fill="rgb(158,158,158)" />
	<circle cx="286.814" cy="264.082" r="2.5" fill="rgb(157,157,157)" />
	<circle cx="88.3237" cy="360.887" r="2.5" fill="rgb(157,157,157)" />
	<circle cx="132.479" cy="246.52" r="2.5" fill="rgb(157,157,157)" />
	<circle cx="251.281" cy="251.359" r="2.5" fill="rgb(156,156,156)" />
	<circle cx="180.881" cy="228.619" r="2.5" fill="rgb(156,156,156)" />
	<circle cx="297.751" cy="277.377" r="2.5" fill="rgb(156,156,156)" />
	<circle cx="261.282" cy="267.055" r="2.5" fill="rgb(155,155,155)" />
	<circle cx="384.412" cy="259.665" r="2.5" fill="rgb(154,154,154)" />
	<circle cx="179.746" cy="298.44" r="2.5" fill="rgb(154,154,154)" />
	<circle cx="218.336" cy="246.631" r="2.5" fill="rgb(151,151,151)" />
	<circle cx="193.588" cy="308.177" r="2.5" fill="rgb(151,151,151)" />
	<circle cx="288.823" cy="286.199" r="2.5" fill="rgb(150,150,150)" />
	<circle cx="291.512" cy="277.927" r="2.5" fill="rgb(150,150,150)" />
	<circle cx="211.574" cy="317.563" r="2.5" fill="rgb(149,149,149)" />
	<circle cx="269.946" cy="282.329" r="2.5" fill="rgb(147,147,147)" />
	<circle cx="363.396" cy="269.604" r="2.5" fill="rgb(146,146,146)" />
	<circle cx="367.679" cy="270.488" r="2.5" fill="rgb(146,146,146)" />
	<circle cx="186.855" cy="323.944" r="2.5" fill="rgb(144,144,144)" />
	<circle cx="226.31" cy="266.904" r="2.5" fill="rgb(143,143,143)" />
	<circle cx="361.296" cy="283.693" r="2.5" fill="rgb(137,137,137)" />
	<circle cx="316.955" cy="280.389" r="2.5" fill="rgb(136,136,136)" />
	<circle cx="355.314" cy="286.876" r="2.5" fill="rgb(134,134,134)" />
	<circle cx="336.77" cy="285.791" r="2.5" fill="rgb(132,132,132)" />
	<circle cx="461.84" cy="294.326" r="2.5" fill="rgb(132,132,132)" />
	<circle cx="316.089" cy="310.323" r="2.5" fill="rgb(131,131,131)" />
	<circle cx="355.324" cy="294.138" r="2.5" fill="rgb(130,130,130)" />
	<circle cx="317.797" cy="321.243" r="2.5" fill="rgb(126,126,126)" />
	<circle cx="341.606" cy="299.944" r="2.5" fill="rgb(125,125,125)" />
	<circle cx="387.011" cy="315.359" r="2.5" fill="rgb(123,123,123)" />
	<circle cx="303.335" cy="322.354" r="2.5" fill="rgb(123,123,123)" />
	<circle cx="473.241" cy="308.933" r="2.5" fill="rgb(123,123,123)" />
	<circle cx="321.359" cy="329.291" r="2.5" fill="rgb(122,122,122)" />
	<circle cx="356.671" cy="386.924" r="2.5" fill="rgb(120,120,120)" />
	<circle cx="301.862" cy="334.581" r="2.5" fill="rgb(117,117,117)" />
	<circle cx="340.008" cy="314.398" r="2.5" fill="rgb(116,116,116)" />
	<circle cx="474.72" cy="319.689" r="2.5" fill="rgb(115,115,115)" />
	<circle cx="86.0168" cy="421.707" r="2.5" fill="rgb(115,115,115)" />
	<circle cx="359.178" cy="396.944" r="2.5" fill="rgb(114,114,114)" />
	<circle cx="353.695" cy="335.626" r="2.5" fill="rgb(113,113,113)" />
	<circle cx="372.729" cy="322.326" r="2.5" fill="rgb(112,112,112)" />
	<circle cx="339.111" cy="321.621" r="2.5" fill="rgb(112,112,112)" />
	<circle cx="160.263" cy="405.154" r="2.5" fill="rgb(110,110,110)" />
	<circle cx="455.29" cy="330.211" r="2.5" fill="rgb(106,106,106)" />
	<circle cx="467.375" cy="331.564" r="2.5" fill="rgb(106,106,106)" />
	<circle cx="332.965" cy="365.28" r="2.5" fill="rgb(106,106,106)" />
	<circle cx="364.044" cy="349.082" r="2.5" fill="rgb(105,105,105)" />
	<circle cx="346.245" cy="349.15" r="2.5" fill="rgb(104,104,104)" />
	<circle cx="264.568" cy="379.956" r="2.5" fill="rgb(104,104,104)" />
	<circle cx="374.905" cy="336.633" r="2.5" fill="rgb(104,104,104)" />
	<circle cx="395.287" cy="341.598" r="2.5" fill="rgb(102,102,102)" />
	<circle cx="360.878" cy="361.529" r="2.5" fill="rgb(98,98,98)" />
	<circle cx="456.539" cy="343.236" r="2.5" fill="rgb(97,97,97)" />
	<circle cx="385.907" cy="348.635" r="2.5" fill="rgb(97,97,97)" />
	<circle cx="445.285" cy="349.637" r="2.5" fill="rgb(91,91,91)" />
	<circle cx="447.538" cy="361.301" r="2.5" fill="rgb(83,83,83)" />
	<circle cx="489.278" cy="370.694" r="2.5" fill="rgb(80,80,80)" />
	<circle cx="184.46" cy="354.456" r="2.5" fill="rgb(77,77,77)" />
	<circle cx="78.3421" cy="186.198" r="2.5" fill="rgb(75,75,75)" />
	<circle cx="192.391" cy="470.137" r="2.5" fill="rgb(75,75,75)" />
	<circle cx="438.551" cy="373.32" r="2.5" fill="rgb(74,74,74)" />
	<circle cx="122.627" cy="244.261" r="2.5" fill="rgb(73,73,73)" />
	<circle cx="490.162" cy="380.325" r="2.5" fill="rgb(72,72,72)" />
	<circle cx="153.087" cy="365.489" r="2.5" fill="rgb(72,72,72)" />
	<circle cx="109.562" cy="321.898" r="2.5" fill="rgb(72,72,72)" />
	<circle cx="94.5149" cy="204.271" r="2.5" fill="rgb(71,71,71)" />
	<circle cx="131.971" cy="208.891" r="2.5" fill="rgb(70,70,70)" />
	<circle cx="124.68" cy="214.996" r="2.5" fill="rgb(70,70,70)" />
	<circle cx="26.4615" cy="165.424" r="2.5" fill="rgb(69,69,69)" />
	<circle cx="130.839" cy="367.476" r="2.5" fill="rgb(69,69,69)" />
	<circle cx="114.882" cy="216.39" r="2.5" fill="rgb(69,69,69)" />
	<circle cx="102.493" cy="220.409" r="2.5" fill="rgb(69,69,69)" />
	<circle cx="79.4943" cy="249.986" r="2.5" fill="rgb(69,69,69)" />
	<circle cx="48.6707" cy="327.856" r="2.5" fill="rgb(68,68,68)" />
	<circle cx="290.89" cy="392.297" r="2.5" fill="rgb(68,68,68)" />
	<circle cx="35.1392" cy="174.399" r="2.5" fill="rgb(66,66,66)" />
	<circle cx="161.485" cy="384.54" r="2.5" fill="rgb(65,65,65)" />
	<circle cx="99.5668" cy="372.57" r="2.5" fill="rgb(65,65,65)" />
	<circle cx="444.334" cy="386.204" r="2.5" fill="rgb(65,65,65)" />
	<circle cx="497.702" cy="448.831" r="2.5" fill="rgb(64,64,64)" />
	<circle cx="479.33" cy="390.485" r="2.5" fill="rgb(64,64,64)" />
	<circle cx="286.728" cy="420.822" r="2.5" fill="rgb(64,64,64)" />
	<circle cx="45.8622" cy="180.88" r="2.5" fill="rgb(63,63,63)" />
	<circle cx="83.2912" cy="335.51" r="2.5" fill="rgb(63,63,63)" />
	<circle cx="438.595" cy="392.718" r="2.5" fill="rgb(63,63,63)" />
	<circle cx="292.513" cy="401.841" r="2.5" fill="rgb(63,63,63)" />
	<circle cx="107.277" cy="271.538" r="2.5" fill="rgb(62,62,62)" />
	<circle cx="394.595" cy="452.063" r="2.5" fill="rgb(61,61,61)" />
	<circle cx="218.789" cy="373.638" r="2.5" fill="rgb(61,61,61)" />
	<circle cx="423.946" cy="390.179" r="2.5" fill="rgb(61,61,61)" />
	<circle cx="443.538" cy="452.623" r="2.5" fill="rgb(60,60,60)" />
	<circle cx="188.259" cy="400.277" r="2.5" fill="rgb(59,59,59)" />
	<circle cx="45.4245" cy="195.678" r="2.5" fill="rgb(59,59,59)" />
	<circle cx="297.898" cy="477.204" r="2.5" fill="rgb(58,58,58)" />
	<circle cx="58.537" cy="277.575" r="2.5" fill="rgb(58,58,58)" />
	<circle cx="18.9766" cy="414.477" r="2.5" fill="rgb(58,58,58)" />
	<circle cx="462.23" cy="454.461" r="2.5" fill="rgb(58,58,58)" />
	<circle cx="322.942" cy="428.788" r="2.5" fill="rgb(57,57,57)" />
	<circle cx="276.691" cy="435.346" r="2.5" fill="rgb(57,57,57)" />
	<circle cx="471.893" cy="399.813" r="2.5" fill="rgb(56,56,56)" />
	<circle cx="428.639" cy="396.684" r="2.5" fill="rgb(56,56,56)" />
	<circle cx="59.3014" cy="203.801" r="2.5" fill="rgb(56,56,56)" />
	<circle cx="91.7303" cy="310.637" r="2.5" fill="rgb(55,55,55)" />
	<circle cx="293.869" cy="417.644" r="2.5" fill="rgb(55,55,55)" />
	<circle cx="383.704" cy="461.975" r="2.5" fill="rgb(54,54,54)" />
	<circle cx="32.524" cy="288.181" r="2.5" fill="rgb(54,54,54)" />
	<circle cx="303.01" cy="417.909" r="2.5" fill="rgb(54,54,54)" />
	<circle cx="78.8527" cy="470.895" r="2.5" fill="rgb(54,54,54)" />
	<circle cx="291.467" cy="440.355" r="2.5" fill="rgb(53,53,53)" />
	<circle cx="297.358" cy="439.876" r="2.5" fill="rgb(53,53,53)" />
	<circle cx="317.534" cy="439.877" r="2.5" fill="rgb(53,53,53)" />
	<circle cx="225.793" cy="391.971" r="2.5" fill="rgb(53,53,53)" />
	<circle cx="182.125" cy="415.606" r="2.5" fill="rgb(53,53,53)" />
	<circle cx="433.869" cy="401.826" r="2.5" fill="rgb(53,53,53)" />
	<circle cx="321.066" cy="440.426" r="2.5" fill="rgb(52,52,52)" />
	<circle cx="53.89" cy="217.806" r="2.5" fill="rgb(52,52,52)" />
	<circle cx="450.001" cy="462.266" r="2.5" fill="rgb(51,51,51)" />
	<circle cx="395.575" cy="464.048" r="2.5" fill="rgb(51,51,51)" />
	<circle cx="45.1973" cy="388.699" r="2.5" fill="rgb(51,51,51)" />
	<circle cx="91.7095" cy="295.138" r="2.5" fill="rgb(51,51,51)" />
	<circle cx="383.277" cy="466.483" r="2.5" fill="rgb(50,50,50)" />
	<circle cx="294.417" cy="437.006" r="2.5" fill="rgb(49,49,49)" />
	<circle cx="142.842" cy="457.337" r="2.5" fill="rgb(49,49,49)" />
	<circle cx="344.679" cy="483.21" r="2.5" fill="rgb(49,49,49)" />
	<circle cx="63.4107" cy="229.64" r="2.5" fill="rgb(49,49,49)" />
	<circle cx="300.587" cy="449.066" r="2.5" fill="rgb(48,48,48)" />
	<circle cx="435.918" cy="408.18" r="2.5" fill="rgb(48,48,48)" />
	<circle cx="381.356" cy="404.524" r="2.5" fill="rgb(48,48,48)" />
	<circle cx="74.6669" cy="326.29" r="2.5" fill="rgb(47,47,47)" />
	<circle cx="257.971" cy="402.076" r="2.5" fill="rgb(47,47,47)" />
	<circle cx="39.4169" cy="415.795" r="2.5" fill="rgb(47,47,47)" />
	<circle cx="71.9504" cy="409.579" r="2.5" fill="rgb(47,47,47)" />
	<circle cx="27.8737" cy="387.373" r="2.5" fill="rgb(46,46,46)" />
	<circle cx="20.6025" cy="378.466" r="2.5" fill="rgb(46,46,46)" />
	<circle cx="157.16" cy="277.775" r="2.5" fill="rgb(46,46,46)" />
	<circle cx="49.3104" cy="237.155" r="2.5" fill="rgb(46,46,46)" />
	<circle cx="53.7209" cy="390.427" r="2.5" fill="rgb(46,46,46)" />
	<circle cx="36.963" cy="306.528" r="2.5" fill="rgb(45,45,45)" />
	<circle cx="20.4908" cy="382.33" r="2.5" fill="rgb(45,45,45)" />
	<circle cx="264.733" cy="407.115" r="2.5" fill="rgb(45,45,45)" />
	<circle cx="210.309" cy="426.351" r="2.5" fill="rgb(44,44,44)" />
	<circle cx="417.354" cy="471.109" r="2.5" fill="rgb(44,44,44)" />
	<circle cx="38.7447" cy="338.076" r="2.5" fill="rgb(44,44,44)" />
	<circle cx="241.17" cy="431.627" r="2.5" fill="rgb(44,44,44)" />
	<circle cx="138.497" cy="281.229" r="2.5" fill="rgb(44,44,44)" />
	<circle cx="61.256" cy="342.483" r="2.5" fill="rgb(44,44,44)" />
	<circle cx="15.6112" cy="336.23" r="2.5" fill="rgb(44,44,44)" />
	<circle cx="24.8912" cy="339.87" r="2.5" fill="rgb(44,44,44)" />
	<circle cx="49.088" cy="246.777" r="2.5" fill="rgb(43,43,43)" />
	<circle cx="30.0254" cy="326.55" r="2.5" fill="rgb(43,43,43)" />
	<circle cx="330.81" cy="496.797" r="2.5" fill="rgb(43,43,43)" />
	<circle cx="29.0238" cy="441.06" r="2.5" fill="rgb(43,43,43)" />
	<circle cx="342.094" cy="493.703" r="2.5" fill="rgb(42,42,42)" />
	<circle cx="397.599" cy="413.543" r="2.5" fill="rgb(42,42,42)" />
	<circle cx="123.284" cy="285.062" r="2.5" fill="rgb(42,42,42)" />
	<circle cx="393.482" cy="477.751" r="2.5" fill="rgb(41,41,41)" />
	<circle cx="50.324" cy="256.872" r="2.5" fill="rgb(41,41,41)" />
	<circle cx="264.525" cy="415.421" r="2.5" fill="rgb(40,40,40)" />
	<circle cx="82.1014" cy="414.379" r="2.5" fill="rgb(40,40,40)" />
	<circle cx="55.2774" cy="365.25" r="2.5" fill="rgb(39,39,39)" />
	<circle cx="376.144" cy="486.032" r="2.5" fill="rgb(39,39,39)" />
	<circle cx="122.398" cy="295.48" r="2.5" fill="rgb(39,39,39)" />
	<circle cx="240.118" cy="445.537" r="2.5" fill="rgb(39,39,39)" />
	<circle cx="34.1546" cy="412.871" r="2.5" fill="rgb(38,38,38)" />
	<circle cx="41.2788" cy="397.047" r="2.5" fill="rgb(38,38,38)" />
	<circle cx="21.1924" cy="400.743" r="2.5" fill="rgb(38,38,38)" />
	<circle cx="243.422" cy="445.368" r="2.5" fill="rgb(38,38,38)" />
	<circle cx="84.884" cy="286.25" r="2.5" fill="rgb(37,37,37)" />
	<circle cx="14.6335" cy="262.214" r="2.5" fill="rgb(37,37,37)" />
	<circle cx="349.292" cy="419.023" r="2.5" fill="rgb(36,36,36)" />
	<circle cx="112.941" cy="303.638" r="2.5" fill="rgb(36,36,36)" />
	<circle cx="68.6522" cy="286.809" r="2.5" fill="rgb(36,36,36)" />
	<circle cx="220.312" cy="454.863" r="2.5" fill="rgb(35,35,35)" />
	<circle cx="411.209" cy="484.827" r="2.5" fill="rgb(34,34,34)" />
	<circle cx="236.83" cy="456.192" r="2.5" fill="rgb(34,34,34)" />
	<circle cx="11.8629" cy="273.75" r="2.5" fill="rgb(34,34,34)" />
	<circle cx="352.863" cy="424.183" r="2.5" fill="rgb(33,33,33)" />
	<circle cx="72.096" cy="303.093" r="2.5" fill="rgb(32,32,32)" />
	<circle cx="322.638" cy="424.002" r="2.5" fill="rgb(32,32,32)" />
	<circle cx="28.9874" cy="404.424" r="2.5" fill="rgb(32,32,32)" />
	<circle cx="29.2563" cy="404.466" r="2.5" fill="rgb(32,32,32)" />
	<circle cx="9.45311" cy="406.136" r="2.5" fill="rgb(31,31,31)" />
	<circle cx="64.5837" cy="379.681" r="2.5" fill="rgb(30,30,30)" />
	<circle cx="27.0299" cy="289.722" r="2.5" fill="rgb(30,30,30)" />
	<circle cx="207.295" cy="472.189" r="2.5" fill="rgb(29,29,29)" />
	<circle cx="15.1766" cy="423.935" r="2.5" fill="rgb(28,28,28)" />
	<circle cx="242.073" cy="445.96" r="2.5" fill="rgb(28,28,28)" />
	<circle cx="186.607" cy="463.333" r="2.5" fill="rgb(28,28,28)" />
	<circle cx="326.283" cy="431.371" r="2.5" fill="rgb(28,28,28)" />
	<circle cx="122.44" cy="363.466" r="2.5" fill="rgb(27,27,27)" />
	<circle cx="228.47" cy="465.25" r="2.5" fill="rgb(27,27,27)" />
	<circle cx="28.226" cy="379.419" r="2.5" fill="rgb(27,27,27)" />
	<circle cx="217.835" cy="485.387" r="2.5" fill="rgb(26,26,26)" />
	<circle cx="14.6749" cy="435.129" r="2.5" fill="rgb(25,25,25)" />
	<circle cx="87.2909" cy="368.251" r="2.5" fill="rgb(25,25,25)" />
	<circle cx="178.191" cy="473.704" r="2.5" fill="rgb(24,24,24)" />
	<circle cx="154.547" cy="473.588" r="2.5" fill="rgb(24,24,24)" />
	<circle cx="34.5089" cy="313.637" r="2.5" fill="rgb(24,24,24)" />
	<circle cx="9.21372" cy="377.492" r="2.5" fill="rgb(23,23,23)" />
	<circle cx="237.474" cy="419.568" r="2.5" fill="rgb(23,23,23)" />
	<circle cx="86.6897" cy="377.808" r="2.5" fill="rgb(23,23,23)" />
	<circle cx="97.7407" cy="379.621" r="2.5" fill="rgb(23,23,23)" />
	<circle cx="1.79387" cy="391.416" r="2.5" fill="rgb(23,23,23)" />
	<circle cx="0.454481" cy="393.377" r="2.5" fill="rgb(23,23,23)" />
	<circle cx="209.046" cy="495.524" r="2.5" fill="rgb(22,22,22)" />
	<circle cx="16.4456" cy="407.049" r="2.5" fill="rgb(22,22,22)" />
	<circle cx="3.48497" cy="456.233" r="2.5" fill="rgb(21,21,21)" />
	<circle cx="12.5305" cy="454.673" r="2.5" fill="rgb(21,21,21)" />
	<circle cx="252.924" cy="425.016" r="2.5" fill="rgb(21,21,21)" />
	<circle cx="314.099" cy="443.565" r="2.5" fill="rgb(21,21,21)" />
	<circle cx="147.643" cy="488.958" r="2.5" fill="rgb(20,20,20)" />
	<circle cx="59.5425" cy="388.339" r="2.5" fill="rgb(20,20,20)" />
	<circle cx="82.693" cy="394.506" r="2.5" fill="rgb(19,19,19)" />
	<circle cx="158.839" cy="470.982" r="2.5" fill="rgb(19,19,19)" />
	<circle cx="0.556489" cy="325.835" r="2.5" fill="rgb(19,19,19)" />
	<circle cx="28.5705" cy="460.483" r="2.5" fill="rgb(19,19,19)" />
	<circle cx="241.292" cy="429.896" r="2.5" fill="rgb(19,19,19)" />
	<circle cx="80.4564" cy="437.057" r="2.5" fill="rgb(19,19,19)" />
	<circle cx="116.748" cy="435.529" r="2.5" fill="rgb(18,18,18)" />
	<circle cx="168.757" cy="473.649" r="2.5" fill="rgb(18,18,18)" />
	<circle cx="13.1421" cy="471.556" r="2.5" fill="rgb(18,18,18)" />
	<circle cx="2.33289" cy="390.632" r="2.5" fill="rgb(18,18,18)" />
	<circle cx="26.904" cy="476.937" r="2.5" fill="rgb(16,16,16)" />
	<circle cx="45.5384" cy="487.603" r="2.5" fill="rgb(16,16,16)" />
	<circle cx="57.9727" cy="411.824" r="2.5" fill="rgb(15,15,15)" />
	<circle cx="114.284" cy="386.32" r="2.5" fill="rgb(14,14,14)" />
	<circle cx="236.121" cy="440.467" r="2.5" fill="rgb(14,14,14)" />
	<circle cx="92.8717" cy="362.119" r="2.5" fill="rgb(14,14,14)" />
	<circle cx="60.319" cy="447.652" r="2.5" fill="rgb(14,14,14)" />
	<circle cx="66.5131" cy="445.234" r="2.5" fill="rgb(14,14,14)" />
	<circle cx="13.8804" cy="353.656" r="2.5" fill="rgb(13,13,13)" />
	<circle cx="87.2838" cy="434.387" r="2.5" fill="rgb(13,13,13)" />
	<circle cx="96.3594" cy="459.116" r="2.5" fill="rgb(13,13,13)" />
	<circle cx="78.0676" cy="412.898" r="2.5" fill="rgb(12,12,12)" />
	<circle cx="40.7172" cy="440.055" r="2.5" fill="rgb(12,12,12)" />
	<circle cx="38.8134" cy="440.425" r="2.5" fill="rgb(12,12,12)" />
	<circle cx="35.7902" cy="447.128" r="2.5" fill="rgb(11,11,11)" />
	<circle cx="56.2427" cy="372.301" r="2.5" fill="rgb(10,10,10)" />
	<circle cx="148.186" cy="401.663" r="2.5" fill="rgb(9,9,9)" />
	<circle cx="154.981" cy="402.221" r="2.5" fill="rgb(9,9,9)" />
	<circle cx="117.175" cy="404.391" r="2.5" fill="rgb(9,9,9)" />
	<circle cx="20.8945" cy="379.477" r="2.5" fill="rgb(8,8,8)" />
	<circle cx="2.27157" cy="387.27" r="2.5" fill="rgb(8,8,8)" />
	<circle cx="55.1371" cy="459.169" r="2.5" fill="rgb(8,8,8)" />
	<circle cx="124.846" cy="408.354" r="2.5" fill="rgb(7,7,7)" />
	<circle cx="78.9213" cy="437.748" r="2.5" fill="rgb(7,7,7)" />
	<circle cx="55.1516" cy="395.728" r="2.5" fill="rgb(4,4,4)" />
	<circle cx="140.491" cy="422.69" r="2.5" fill="rgb(3,3,3)" />
	<circle cx="83.3333" cy="416.667" r="2" fill="rgb(255,0,0)" />
	<circle cx="416.667" cy="83.3333" r="2" fill="rgb(0,255,0)" />
	<circle cx="83.3333" cy="416.667" r="2" fill="rgb(0,255,0)" />
	<circle cx="104.307" cy="404.583" r="2" fill="rgb(0,255,0)" />
	<circle cx="129.379" cy="387.234" r="2" fill="rgb(0,255,0)" />
	<circle cx="158.336" cy="380.277" r="2" fill="rgb(0,255,0)" />
	<circle cx="167.888" cy="371.365" r="2" fill="rgb(0,255,0)" />
	<circle cx="202.387" cy="358.414" r="2" fill="rgb(0,255,0)" />
	<circle cx="208.631" cy="346.301" r="2" fill="rgb(0,255,0)" />
	<circle cx="204.808" cy="330.918" r="2" fill="rgb(0,255,0)" />
	<circle cx="188.519" cy="313.507" r="2" fill="rgb(0,255,0)" />
	<circle cx="135.406" cy="310.775" r="2" fill="rgb(0,255,0)" />
	<circle cx="130.568" cy="288.625" r="2" fill="rgb(0,255,0)" />
	<circle cx="120.786" cy="276.149" r="2" fill="rgb(0,255,0)" />
	<circle cx="125.313" cy="264.83" r="2" fill="rgb(0,255,0)" />
	<circle cx="95.0453" cy="241.32" r="2" fill="rgb(0,255,0)" />
	<circle cx="83.5571" cy="219.538" r="2" fill="rgb(0,255,0)" />
	<circle cx="104.756" cy="204.928" r="2" fill="rgb(0,255,0)" />
	<circle cx="145.875" cy="208.435" r="2" fill="rgb(0,255,0)" />
	<circle cx="167.96" cy="197.572" r="2" fill="rgb(0,255,0)" />
	<circle cx="169.911" cy="182.811" r="2" fill="rgb(0,255,0)" />
	<circle cx="137.215" cy="155.135" r="2" fill="rgb(0,255,0)" />
	<circle cx="219.851" cy="195.06" r="2" fill="rgb(0,255,0)" />
	<circle cx="233.19" cy="192.704" r="2" fill="rgb(0,255,0)" />
	<circle cx="267.463" cy="205.36" r="2" fill="rgb(0,255,0)" />
	<circle cx="295.588" cy="201.284" r="2" fill="rgb(0,255,0)" />
	<circle cx="322.832" cy="198.1" r="2" fill="rgb(0,255,0)" />
	<circle cx="338.512" cy="196.154" r="2" fill="rgb(0,255,0)" />
	<circle cx="363.25" cy="197.585" r="2" fill="rgb(0,255,0)" />
	<circle cx="380.932" cy="188.297" r="2" fill="rgb(0,255,0)" />
	<circle cx="383.416" cy="173.337" r="2" fill="rgb(0,255,0)" />
	<circle cx="406.203" cy="162.951" r="2" fill="rgb(0,255,0)" />
	<circle cx="412.349" cy="151.688" r="2" fill="rgb(0,255,0)" />
	<circle cx="412.7" cy="134.486" r="2" fill="rgb(0,255,0)" />
	<circle cx="408.118" cy="126.027" r="2" fill="rgb(0,255,0)" />
	<circle cx="403.224" cy="112.31" r="2" fill="rgb(0,255,0)" />
	<circle cx="397.379" cy="98.6893" r="2" fill="rgb(0,255,0)" />
	<circle cx="411.343" cy="84.6098" r="2" fill="rgb(0,255,0)" />
</svg>
