<?xml version="1.0" standalone="no" ?>
<!DOCTYPE svg PUBLIC "-//W3C//DTD SVG 1.1//EN" "http://www.w3.org/Graphics/SVG/1.1/DTD/svg11.dtd">
<svg width="500px" height="500px" xmlns="http://www.w3.org/2000/svg" version="1.1" >
	<circle cx="349.729" cy="93.9638" r="2.5" fill="rgb(255,255,255)" />
	<circle cx="347.817" cy="109.292" r="2.5" fill="rgb(242,242,242)" />
	<circle cx="369.275" cy="127.448" r="2.5" fill="rgb(230,230,230)" />
	<circle cx="365.16" cy="128.158" r="2.5" fill="rgb(229,229,229)" />
	<circle cx="361.675" cy="135.291" r="2.5" fill="rgb(223,223,223)" />
	<circle cx="323.731" cy="181.81" r="2.5" fill="rgb(222,222,222)" />
	<circle cx="400.159" cy="144.16" r="2.5" fill="rgb(216,216,216)" />
	<circle cx="325.315" cy="233.316" r="2.5" fill="rgb(214,214,214)" />
	<circle cx="342.354" cy="202.161" r="2.5" fill="rgb(212,212,212)" />
	<circle cx="344.638" cy="207.671" r="2.5" fill="rgb(212,212,212)" />
	<circle cx="416.284" cy="159.155" r="2.5" fill="rgb(205,205,205)" />
	<circle cx="425.678" cy="170.867" r="2.5" fill="rgb(197,197,197)" />
	<circle cx="422.907" cy="184.082" r="2.5" fill="rgb(188,188,188)" />
	<circle cx="307.698" cy="291.481" r="2.5" fill="rgb(181,181,181)" />
	<circle cx="421.929" cy="195.353" r="2.5" fill="rgb(180,180,180)" />
	<circle cx="301.944" cy="205.261" r="2.5" fill="rgb(179,179,179)" />
	<circle cx="215.552" cy="238.713" r="2.5" fill="rgb(177,177,177)" />
	<circle cx="410.312" cy="206.364" r="2.5" fill="rgb(171,171,171)" />
	<circle cx="297.091" cy="216.168" r="2.5" fill="rgb(171,171,171)" />
	<circle cx="409.421" cy="367.197" r="2.5" fill="rgb(166,166,166)" />
	<circle cx="141.146" cy="381.615" r="2.5" fill="rgb(162,162,162)" />
	<circle cx="459.853" cy="238.809" r="2.5" fill="rgb(161,161,161)" />
	<circle cx="495.003" cy="236.937" r="2.5" fill="rgb(160,160,160)" />
	<circle cx="410.214" cy="221.614" r="2.5" fill="rgb(160,160,160)" />
	<circle cx="180.821" cy="301.384" r="2.5" fill="rgb(155,155,155)" />
	<circle cx="427.396" cy="230.262" r="2.5" fill="rgb(154,154,154)" />
	<circle cx="187.054" cy="396.616" r="2.5" fill="rgb(153,153,153)" />
	<circle cx="499.573" cy="247.041" r="2.5" fill="rgb(153,153,153)" />
	<circle cx="382.127" cy="228.966" r="2.5" fill="rgb(146,146,146)" />
	<circle cx="270.618" cy="316.515" r="2.5" fill="rgb(145,145,145)" />
	<circle cx="128.235" cy="226.905" r="2.5" fill="rgb(145,145,145)" />
	<circle cx="450.132" cy="340.272" r="2.5" fill="rgb(145,145,145)" />
	<circle cx="434.887" cy="246.072" r="2.5" fill="rgb(143,143,143)" />
	<circle cx="348.51" cy="224.711" r="2.5" fill="rgb(142,142,142)" />
	<circle cx="78.3472" cy="162.518" r="2.5" fill="rgb(142,142,142)" />
	<circle cx="256.115" cy="282.033" r="2.5" fill="rgb(138,138,138)" />
	<circle cx="426.876" cy="252.195" r="2.5" fill="rgb(137,137,137)" />
	<circle cx="128.727" cy="163.327" r="2.5" fill="rgb(137,137,137)" />
	<circle cx="125.799" cy="246.542" r="2.5" fill="rgb(137,137,137)" />
	<circle cx="356.483" cy="233.78" r="2.5" fill="rgb(137,137,137)" />
	<circle cx="263.789" cy="280.733" r="2.5" fill="rgb(134,134,134)" />
	<circle cx="129.358" cy="173.029" r="2.5" fill="rgb(133,133,133)" />
	<circle cx="102.131" cy="263.505" r="2.5" fill="rgb(131,131,131)" />
	<circle cx="376.057" cy="248.755" r="2.5" fill="rgb(129,129,129)" />
	<circle cx="146.405" cy="198.487" r="2.5" fill="rgb(128,128,128)" />
	<circle cx="145.451" cy="201.987" r="2.5" fill="rgb(128,128,128)" />
	<circle cx="248.745" cy="290.022" r="2.5" fill="rgb(127,127,127)" />
	<circle cx="413.635" cy="259.869" r="2.5" fill="rgb(127,127,127)" />
	<circle cx="119.696" cy="187.814" r="2.5" fill="rgb(125,125,125)" />
	<circle cx="224.716" cy="377.112" r="2.5" fill="rgb(124,124,124)" />
	<circle cx="210.959" cy="194.854" r="2.5" fill="rgb(124,124,124)" />
	<circle cx="211.919" cy="195.254" r="2.5" fill="rgb(124,124,124)" />
	<circle cx="239.435" cy="403.211" r="2.5" fill="rgb(122,122,122)" />
	<circle cx="150.034" cy="454.501" r="2.5" fill="rgb(121,121,121)" />
	<circle cx="398.142" cy="268.345" r="2.5" fill="rgb(118,118,118)" />
	<circle cx="367.916" cy="261.584" r="2.5" fill="rgb(118,118,118)" />
	<circle cx="221.736" cy="419.274" r="2.5" fill="rgb(118,118,118)" />
	<circle cx="211.6" cy="207.945" r="2.5" fill="rgb(118,118,118)" />
	<circle cx="25.3517" cy="376.552" r="2.5" fill="rgb(118,118,118)" />
	<circle cx="149.908" cy="439" r="2.5" fill="rgb(118,118,118)" />
	<circle cx="68.6769" cy="321.673" r="2.5" fill="rgb(115,115,115)" />
	<circle cx="122.074" cy="256.028" r="2.5" fill="rgb(115,115,115)" />
	<circle cx="345.118" cy="490.399" r="2.5" fill="rgb(114,114,114)" />
	<circle cx="326.108" cy="365.448" r="2.5" fill="rgb(114,114,114)" />
	<circle cx="95.3686" cy="272.143" r="2.5" fill="rgb(113,113,113)" />
	<circle cx="134.712" cy="303.205" r="2.5" fill="rgb(113,113,113)" />
	<circle cx="416.285" cy="474.455" r="2.5" fill="rgb(113,113,113)" />
	<circle cx="267.25" cy="385.749" r="2.5" fill="rgb(112,112,112)" />
	<circle cx="77.942" cy="275.515" r="2.5" fill="rgb(112,112,112)" />
	<circle cx="407.261" cy="467.855" r="2.5" fill="rgb(112,112,112)" />
	<circle cx="315.561" cy="480.972" r="2.5" fill="rgb(112,112,112)" />
	<circle cx="129.781" cy="308.119" r="2.5" fill="rgb(111,111,111)" />
	<circle cx="161.066" cy="193.551" r="2.5" fill="rgb(111,111,111)" />
	<circle cx="374.699" cy="272.86" r="2.5" fill="rgb(111,111,111)" />
	<circle cx="249.439" cy="422.853" r="2.5" fill="rgb(111,111,111)" />
	<circle cx="65.2605" cy="340.644" r="2.5" fill="rgb(109,109,109)" />
	<circle cx="367.487" cy="273.936" r="2.5" fill="rgb(109,109,109)" />
	<circle cx="225.187" cy="435.324" r="2.5" fill="rgb(108,108,108)" />
	<circle cx="74.7217" cy="297.317" r="2.5" fill="rgb(107,107,107)" />
	<circle cx="162.403" cy="203.783" r="2.5" fill="rgb(107,107,107)" />
	<circle cx="23.1091" cy="211.403" r="2.5" fill="rgb(107,107,107)" />
	<circle cx="365.297" cy="471.115" r="2.5" fill="rgb(105,105,105)" />
	<circle cx="77.3351" cy="350.899" r="2.5" fill="rgb(104,104,104)" />
	<circle cx="61.4104" cy="341.697" r="2.5" fill="rgb(104,104,104)" />
	<circle cx="354.806" cy="278.225" r="2.5" fill="rgb(103,103,103)" />
	<circle cx="107.306" cy="338.058" r="2.5" fill="rgb(103,103,103)" />
	<circle cx="296.204" cy="258.422" r="2.5" fill="rgb(103,103,103)" />
	<circle cx="256.661" cy="246.485" r="2.5" fill="rgb(103,103,103)" />
	<circle cx="409.745" cy="484.229" r="2.5" fill="rgb(102,102,102)" />
	<circle cx="70.4558" cy="209.61" r="2.5" fill="rgb(102,102,102)" />
	<circle cx="334.725" cy="379.267" r="2.5" fill="rgb(102,102,102)" />
	<circle cx="288.613" cy="255.174" r="2.5" fill="rgb(102,102,102)" />
	<circle cx="258.237" cy="424.017" r="2.5" fill="rgb(101,101,101)" />
	<circle cx="163.706" cy="217.951" r="2.5" fill="rgb(101,101,101)" />
	<circle cx="102.934" cy="299.255" r="2.5" fill="rgb(101,101,101)" />
	<circle cx="364.115" cy="377.471" r="2.5" fill="rgb(101,101,101)" />
	<circle cx="402.868" cy="411.694" r="2.5" fill="rgb(100,100,100)" />
	<circle cx="203.554" cy="305.885" r="2.5" fill="rgb(100,100,100)" />
	<circle cx="184.377" cy="301.547" r="2.5" fill="rgb(100,100,100)" />
	<circle cx="71.3171" cy="336.741" r="2.5" fill="rgb(100,100,100)" />
	<circle cx="254.25" cy="425.585" r="2.5" fill="rgb(100,100,100)" />
	<circle cx="223.277" cy="331.228" r="2.5" fill="rgb(100,100,100)" />
	<circle cx="331.781" cy="417.015" r="2.5" fill="rgb(99,99,99)" />
	<circle cx="345.722" cy="283.498" r="2.5" fill="rgb(98,98,98)" />
	<circle cx="394.937" cy="380.466" r="2.5" fill="rgb(98,98,98)" />
	<circle cx="323.532" cy="397.382" r="2.5" fill="rgb(98,98,98)" />
	<circle cx="365.896" cy="382.453" r="2.5" fill="rgb(97,97,97)" />
	<circle cx="358.594" cy="383.721" r="2.5" fill="rgb(97,97,97)" />
	<circle cx="328.763" cy="419.265" r="2.5" fill="rgb(97,97,97)" />
	<circle cx="137.573" cy="218.374" r="2.5" fill="rgb(96,96,96)" />
	<circle cx="68.209" cy="350.738" r="2.5" fill="rgb(95,95,95)" />
	<circle cx="81.2559" cy="325.195" r="2.5" fill="rgb(94,94,94)" />
	<circle cx="308.518" cy="276.719" r="2.5" fill="rgb(93,93,93)" />
	<circle cx="289.39" cy="269.717" r="2.5" fill="rgb(93,93,93)" />
	<circle cx="472.874" cy="399.587" r="2.5" fill="rgb(92,92,92)" />
	<circle cx="160.17" cy="292.762" r="2.5" fill="rgb(91,91,91)" />
	<circle cx="243.553" cy="439.334" r="2.5" fill="rgb(90,90,90)" />
	<circle cx="407.015" cy="389.539" r="2.5" fill="rgb(90,90,90)" />
	<circle cx="390.899" cy="388.336" r="2.5" fill="rgb(90,90,90)" />
	<circle cx="196.58" cy="487.614" r="2.5" fill="rgb(90,90,90)" />
	<circle cx="333.949" cy="397.843" r="2.5" fill="rgb(90,90,90)" />
	<circle cx="341.853" cy="391.393" r="2.5" fill="rgb(88,88,88)" />
	<circle cx="119.514" cy="230.55" r="2.5" fill="rgb(88,88,88)" />
	<circle cx="35.1677" cy="329.219" r="2.5" fill="rgb(87,87,87)" />
	<circle cx="313.049" cy="431.71" r="2.5" fill="rgb(87,87,87)" />
	<circle cx="272.004" cy="279.278" r="2.5" fill="rgb(85,85,85)" />
	<circle cx="219.632" cy="470.792" r="2.5" fill="rgb(83,83,83)" />
	<circle cx="154.013" cy="293.858" r="2.5" fill="rgb(83,83,83)" />
	<circle cx="148.99" cy="310.278" r="2.5" fill="rgb(83,83,83)" />
	<circle cx="390.504" cy="396.435" r="2.5" fill="rgb(82,82,82)" />
	<circle cx="28.1454" cy="328.648" r="2.5" fill="rgb(81,81,81)" />
	<circle cx="114.381" cy="247.523" r="2.5" fill="rgb(80,80,80)" />
	<circle cx="340.143" cy="400.084" r="2.5" fill="rgb(80,80,80)" />
	<circle cx="387.45" cy="399.019" r="2.5" fill="rgb(79,79,79)" />
	<circle cx="290.152" cy="468.731" r="2.5" fill="rgb(79,79,79)" />
	<circle cx="38.1261" cy="437.349" r="2.5" fill="rgb(78,78,78)" />
	<circle cx="399.185" cy="401.151" r="2.5" fill="rgb(78,78,78)" />
	<circle cx="212.963" cy="480.508" r="2.5" fill="rgb(78,78,78)" />
	<circle cx="0.503173" cy="381.403" r="2.5" fill="rgb(77,77,77)" />
	<circle cx="251.404" cy="288.362" r="2.5" fill="rgb(76,76,76)" />
	<circle cx="131.882" cy="265.517" r="2.5" fill="rgb(74,74,74)" />
	<circle cx="44.7833" cy="353.32" r="2.5" fill="rgb(74,74,74)" />
	<circle cx="111.111" cy="347.784" r="2.5" fill="rgb(73,73,73)" />
	<circle cx="61.0102" cy="327.152" r="2.5" fill="rgb(72,72,72)" />
	<circle cx="83.792" cy="362.378" r="2.5" fill="rgb(72,72,72)" />
	<circle cx="204.063" cy="282.603" r="2.5" fill="rgb(70,70,70)" />
	<circle cx="220.959" cy="287.689" r="2.5" fill="rgb(70,70,70)" />
	<circle cx="253.199" cy="482.435" r="2.5" fill="rgb(70,70,70)" />
	<circle cx="292.405" cy="426.759" r="2.5" fill="rgb(69,69,69)" />
	<circle cx="383.688" cy="409.817" r="2.5" fill="rgb(68,68,68)" />
	<circle cx="130.757" cy="281.883" r="2.5" fill="rgb(67,67,67)" />
	<circle cx="207.624" cy="292.719" r="2.5" fill="rgb(66,66,66)" />
	<circle cx="58.6255" cy="382.791" r="2.5" fill="rgb(65,65,65)" />
	<circle cx="15.8105" cy="395.245" r="2.5" fill="rgb(63,63,63)" />
	<circle cx="136.925" cy="336.149" r="2.5" fill="rgb(61,61,61)" />
	<circle cx="88.5246" cy="417.646" r="2.5" fill="rgb(61,61,61)" />
	<circle cx="298.913" cy="393.727" r="2.5" fill="rgb(61,61,61)" />
	<circle cx="193.432" cy="299.817" r="2.5" fill="rgb(60,60,60)" />
	<circle cx="21.7431" cy="285.742" r="2.5" fill="rgb(60,60,60)" />
	<circle cx="120.897" cy="328.193" r="2.5" fill="rgb(60,60,60)" />
	<circle cx="83.2627" cy="429.443" r="2.5" fill="rgb(59,59,59)" />
	<circle cx="45.6247" cy="404.466" r="2.5" fill="rgb(59,59,59)" />
	<circle cx="371.296" cy="419.086" r="2.5" fill="rgb(59,59,59)" />
	<circle cx="137.188" cy="389.24" r="2.5" fill="rgb(58,58,58)" />
	<circle cx="249.498" cy="499.959" r="2.5" fill="rgb(58,58,58)" />
	<circle cx="15.0015" cy="363.385" r="2.5" fill="rgb(58,58,58)" />
	<circle cx="110.28" cy="389.693" r="2.5" fill="rgb(56,56,56)" />
	<circle cx="183.698" cy="306.768" r="2.5" fill="rgb(56,56,56)" />
	<circle cx="142.004" cy="351.081" r="2.5" fill="rgb(55,55,55)" />
	<circle cx="14.7783" cy="299.883" r="2.5" fill="rgb(54,54,54)" />
	<circle cx="102.14" cy="407.991" r="2.5" fill="rgb(54,54,54)" />
	<circle cx="154.309" cy="354.603" r="2.5" fill="rgb(54,54,54)" />
	<circle cx="10.7251" cy="429.024" r="2.5" fill="rgb(54,54,54)" />
	<circle cx="32.7244" cy="306.95" r="2.5" fill="rgb(53,53,53)" />
	<circle cx="103.259" cy="378.021" r="2.5" fill="rgb(53,53,53)" />
	<circle cx="148.181" cy="444.597" r="2.5" fill="rgb(53,53,53)" />
	<circle cx="133.444" cy="404.184" r="2.5" fill="rgb(53,53,53)" />
	<circle cx="167.07" cy="359.365" r="2.5" fill="rgb(52,52,52)" />
	<circle cx="132.588" cy="380.209" r="2.5" fill="rgb(52,52,52)" />
	<circle cx="0.410791" cy="387.223" r="2.5" fill="rgb(51,51,51)" />
	<circle cx="161.217" cy="410.375" r="2.5" fill="rgb(51,51,51)" />
	<circle cx="138.866" cy="361.254" r="2.5" fill="rgb(51,51,51)" />
	<circle cx="238.269" cy="351.145" r="2.5" fill="rgb(51,51,51)" />
	<circle cx="296.72" cy="407.765" r="2.5" fill="rgb(50,50,50)" />
	<circle cx="11.1868" cy="317.908" r="2.5" fill="rgb(47,47,47)" />
	<circle cx="199.051" cy="328.344" r="2.5" fill="rgb(47,47,47)" />
	<circle cx="44.7666" cy="324.895" r="2.5" fill="rgb(47,47,47)" />
	<circle cx="87.7635" cy="389.041" r="2.5" fill="rgb(45,45,45)" />
	<circle cx="38.4419" cy="431.745" r="2.5" fill="rgb(45,45,45)" />
	<circle cx="101.831" cy="392.267" r="2.5" fill="rgb(44,44,44)" />
	<circle cx="243.532" cy="362.05" r="2.5" fill="rgb(44,44,44)" />
	<circle cx="124.467" cy="350.121" r="2.5" fill="rgb(43,43,43)" />
	<circle cx="67.1954" cy="441.5" r="2.5" fill="rgb(40,40,40)" />
	<circle cx="35.0261" cy="421.399" r="2.5" fill="rgb(40,40,40)" />
	<circle cx="95.3287" cy="327.414" r="2.5" fill="rgb(39,39,39)" />
	<circle cx="37.2472" cy="348.478" r="2.5" fill="rgb(39,39,39)" />
	<circle cx="14.3575" cy="426.955" r="2.5" fill="rgb(39,39,39)" />
	<circle cx="182.594" cy="342.193" r="2.5" fill="rgb(39,39,39)" />
	<circle cx="26.633" cy="389.318" r="2.5" fill="rgb(38,38,38)" />
	<circle cx="187.62" cy="447.96" r="2.5" fill="rgb(35,35,35)" />
	<circle cx="16.7687" cy="461.351" r="2.5" fill="rgb(35,35,35)" />
	<circle cx="4.04091" cy="442.148" r="2.5" fill="rgb(35,35,35)" />
	<circle cx="19.4532" cy="444.069" r="2.5" fill="rgb(34,34,34)" />
	<circle cx="23.0024" cy="364.154" r="2.5" fill="rgb(33,33,33)" />
	<circle cx="91.7319" cy="342.863" r="2.5" fill="rgb(33,33,33)" />
	<circle cx="237.516" cy="401.971" r="2.5" fill="rgb(30,30,30)" />
	<circle cx="163.411" cy="358.564" r="2.5" fill="rgb(29,29,29)" />
	<circle cx="105.699" cy="360.313" r="2.5" fill="rgb(27,27,27)" />
	<circle cx="229.207" cy="412.178" r="2.5" fill="rgb(24,24,24)" />
	<circle cx="284.178" cy="434.153" r="2.5" fill="rgb(24,24,24)" />
	<circle cx="116.626" cy="460.695" r="2.5" fill="rgb(22,22,22)" />
	<circle cx="138.593" cy="375.233" r="2.5" fill="rgb(20,20,20)" />
	<circle cx="62.961" cy="409.281" r="2.5" fill="rgb(18,18,18)" />
	<circle cx="204.211" cy="427.299" r="2.5" fill="rgb(14,14,14)" />
	<circle cx="128.903" cy="391.59" r="2.5" fill="rgb(13,13,13)" />
	<circle cx="110.63" cy="394.011" r="2.5" fill="rgb(13,13,13)" />
	<circle cx="83.2071" cy="414.473" r="2.5" fill="rgb(13,13,13)" />
	<circle cx="136.555" cy="402.491" r="2.5" fill="rgb(8,8,8)" />
	<circle cx="83.3333" cy="416.667" r="2" fill="rgb(255,0,0)" />
	<circle cx="416.667" cy="83.3333" r="2" fill="rgb(0,255,0)" />
	<circle cx="83.3333" cy="416.667" r="2" fill="rgb(0,255,0)" />
	<circle cx="113.359" cy="396.12" r="2" fill="rgb(0,255,0)" />
	<circle cx="27.407" cy="401.888" r="2" fill="rgb(0,255,0)" />
	<circle cx="31.8683" cy="382.517" r="2" fill="rgb(0,255,0)" />
	<circle cx="35.2905" cy="366.55" r="2" fill="rgb(0,255,0)" />
	<circle cx="55.5015" cy="350.186" r="2" fill="rgb(0,255,0)" />
	<circle cx="66.052" cy="340.196" r="2" fill="rgb(0,255,0)" />
	<circle cx="94.5092" cy="324.177" r="2" fill="rgb(0,255,0)" />
	<circle cx="46.0063" cy="313.259" r="2" fill="rgb(0,255,0)" />
	<circle cx="44.5336" cy="301.412" r="2" fill="rgb(0,255,0)" />
	<circle cx="38.048" cy="287.047" r="2" fill="rgb(0,255,0)" />
	<circle cx="80.6624" cy="281.165" r="2" fill="rgb(0,255,0)" />
	<circle cx="56.8289" cy="261.367" r="2" fill="rgb(0,255,0)" />
	<circle cx="74.5512" cy="248.996" r="2" fill="rgb(0,255,0)" />
	<circle cx="80.007" cy="240.023" r="2" fill="rgb(0,255,0)" />
	<circle cx="83.3762" cy="224.791" r="2" fill="rgb(0,255,0)" />
	<circle cx="81.5446" cy="212.929" r="2" fill="rgb(0,255,0)" />
	<circle cx="69.0054" cy="202.861" r="2" fill="rgb(0,255,0)" />
	<circle cx="91.6017" cy="189.764" r="2" fill="rgb(0,255,0)" />
	<circle cx="144.459" cy="199.783" r="2" fill="rgb(0,255,0)" />
	<circle cx="169.851" cy="202.276" r="2" fill="rgb(0,255,0)" />
	<circle cx="202.883" cy="206.094" r="2" fill="rgb(0,255,0)" />
	<circle cx="231.01" cy="203.383" r="2" fill="rgb(0,255,0)" />
	<circle cx="236.486" cy="191.663" r="2" fill="rgb(0,255,0)" />
	<circle cx="248.962" cy="183.655" r="2" fill="rgb(0,255,0)" />
	<circle cx="273.931" cy="186.81" r="2" fill="rgb(0,255,0)" />
	<circle cx="306.799" cy="189.679" r="2" fill="rgb(0,255,0)" />
	<circle cx="343.821" cy="192.796" r="2" fill="rgb(0,255,0)" />
	<circle cx="354.044" cy="186.735" r="2" fill="rgb(0,255,0)" />
	<circle cx="345.773" cy="174.144" r="2" fill="rgb(0,255,0)" />
	<circle cx="350.068" cy="160.049" r="2" fill="rgb(0,255,0)" />
	<circle cx="362.62" cy="151.137" r="2" fill="rgb(0,255,0)" />
	<circle cx="448.893" cy="179.131" r="2" fill="rgb(0,255,0)" />
	<circle cx="455.819" cy="165.717" r="2" fill="rgb(0,255,0)" />
	<circle cx="455.214" cy="146.189" r="2" fill="rgb(0,255,0)" />
	<circle cx="466.202" cy="130.598" r="2" fill="rgb(0,255,0)" />
	<circle cx="476.222" cy="111.883" r="2" fill="rgb(0,255,0)" />
	<circle cx="455.225" cy="112.266" r="2" fill="rgb(0,255,0)" />
	<circle cx="424.387" cy="115.299" r="2" fill="rgb(0,255,0)" />
	<circle cx="422.595" cy="100.336" r="2" fill="rgb(0,255,0)" />
	<circle cx="422.391" cy="88.5991" r="2" fill="rgb(0,255,0)" />
	<circle cx="420.337" cy="79.2991" r="2" fill="rgb(0,255,0)" />
</svg>
