<?xml version="1.0" standalone="no" ?>
<!DOCTYPE svg PUBLIC "-//W3C//DTD SVG 1.1//EN" "http://www.w3.org/Graphics/SVG/1.1/DTD/svg11.dtd">
<svg width="500px" height="500px" xmlns="http://www.w3.org/2000/svg" version="1.1" >
	<circle cx="417.085" cy="3.18574" r="2.5" fill="rgb(255,255,255)" />
	<circle cx="422.437" cy="12.4122" r="2.5" fill="rgb(240,240,240)" />
	<circle cx="435.871" cy="7.28422" r="2.5" fill="rgb(232,232,232)" />
	<circle cx="448.713" cy="7.23974" r="2.5" fill="rgb(223,223,223)" />
	<circle cx="415.298" cy="34.2142" r="2.5" fill="rgb(222,222,222)" />
	<circle cx="395.23" cy="41.5957" r="2.5" fill="rgb(220,220,220)" />
	<circle cx="421.876" cy="224.104" r="2.5" fill="rgb(216,216,216)" />
	<circle cx="364.736" cy="149.271" r="2.5" fill="rgb(215,215,215)" />
	<circle cx="431.106" cy="43.0461" r="2.5" fill="rgb(210,210,210)" />
	<circle cx="456.15" cy="209.314" r="2.5" fill="rgb(210,210,210)" />
	<circle cx="359.892" cy="167.617" r="2.5" fill="rgb(208,208,208)" />
	<circle cx="408.276" cy="56.2887" r="2.5" fill="rgb(208,208,208)" />
	<circle cx="467.367" cy="212.382" r="2.5" fill="rgb(205,205,205)" />
	<circle cx="491.826" cy="218.934" r="2.5" fill="rgb(204,204,204)" />
	<circle cx="427.191" cy="227.069" r="2.5" fill="rgb(203,203,203)" />
	<circle cx="342.575" cy="177.864" r="2.5" fill="rgb(203,203,203)" />
	<circle cx="434.869" cy="66.6502" r="2.5" fill="rgb(203,203,203)" />
	<circle cx="417.765" cy="66.3928" r="2.5" fill="rgb(200,200,200)" />
	<circle cx="494.216" cy="69.2965" r="2.5" fill="rgb(198,198,198)" />
	<circle cx="428.529" cy="236.309" r="2.5" fill="rgb(198,198,198)" />
	<circle cx="349.072" cy="50.8629" r="2.5" fill="rgb(197,197,197)" />
	<circle cx="388.586" cy="221.108" r="2.5" fill="rgb(197,197,197)" />
	<circle cx="245.406" cy="160.104" r="2.5" fill="rgb(197,197,197)" />
	<circle cx="410.873" cy="74.4303" r="2.5" fill="rgb(197,197,197)" />
	<circle cx="416.86" cy="187.058" r="2.5" fill="rgb(196,196,196)" />
	<circle cx="350.195" cy="190.361" r="2.5" fill="rgb(196,196,196)" />
	<circle cx="338.442" cy="159.531" r="2.5" fill="rgb(196,196,196)" />
	<circle cx="343.287" cy="165.156" r="2.5" fill="rgb(196,196,196)" />
	<circle cx="358.902" cy="137.505" r="2.5" fill="rgb(194,194,194)" />
	<circle cx="321.655" cy="157.098" r="2.5" fill="rgb(192,192,192)" />
	<circle cx="414.413" cy="194.785" r="2.5" fill="rgb(192,192,192)" />
	<circle cx="340.876" cy="63.4304" r="2.5" fill="rgb(190,190,190)" />
	<circle cx="447.954" cy="78.6896" r="2.5" fill="rgb(189,189,189)" />
	<circle cx="409.851" cy="88.0202" r="2.5" fill="rgb(189,189,189)" />
	<circle cx="370.939" cy="68.0217" r="2.5" fill="rgb(189,189,189)" />
	<circle cx="295.638" cy="192.645" r="2.5" fill="rgb(188,188,188)" />
	<circle cx="499.116" cy="79.1347" r="2.5" fill="rgb(188,188,188)" />
	<circle cx="313.113" cy="167.85" r="2.5" fill="rgb(187,187,187)" />
	<circle cx="377.07" cy="173.523" r="2.5" fill="rgb(186,186,186)" />
	<circle cx="376.982" cy="173.527" r="2.5" fill="rgb(186,186,186)" />
	<circle cx="278.956" cy="216.746" r="2.5" fill="rgb(186,186,186)" />
	<circle cx="345.269" cy="75.6076" r="2.5" fill="rgb(185,185,185)" />
	<circle cx="413.856" cy="208.786" r="2.5" fill="rgb(185,185,185)" />
	<circle cx="439.206" cy="93.7599" r="2.5" fill="rgb(183,183,183)" />
	<circle cx="336.483" cy="124.672" r="2.5" fill="rgb(182,182,182)" />
	<circle cx="375.228" cy="83.2952" r="2.5" fill="rgb(182,182,182)" />
	<circle cx="155.222" cy="231.432" r="2.5" fill="rgb(182,182,182)" />
	<circle cx="359.955" cy="89.0362" r="2.5" fill="rgb(180,180,180)" />
	<circle cx="458.868" cy="211.99" r="2.5" fill="rgb(179,179,179)" />
	<circle cx="420.174" cy="104.534" r="2.5" fill="rgb(178,178,178)" />
	<circle cx="398.492" cy="218.104" r="2.5" fill="rgb(178,178,178)" />
	<circle cx="278.099" cy="216.088" r="2.5" fill="rgb(178,178,178)" />
	<circle cx="263.374" cy="208.717" r="2.5" fill="rgb(177,177,177)" />
	<circle cx="256.704" cy="214.735" r="2.5" fill="rgb(176,176,176)" />
	<circle cx="196.524" cy="248.467" r="2.5" fill="rgb(176,176,176)" />
	<circle cx="328.965" cy="136.068" r="2.5" fill="rgb(176,176,176)" />
	<circle cx="222.231" cy="291.387" r="2.5" fill="rgb(175,175,175)" />
	<circle cx="374.154" cy="99.8431" r="2.5" fill="rgb(175,175,175)" />
	<circle cx="309.848" cy="237.918" r="2.5" fill="rgb(174,174,174)" />
	<circle cx="262.502" cy="220.065" r="2.5" fill="rgb(173,173,173)" />
	<circle cx="281.764" cy="127.339" r="2.5" fill="rgb(172,172,172)" />
	<circle cx="420.468" cy="115.789" r="2.5" fill="rgb(172,172,172)" />
	<circle cx="393.633" cy="109.989" r="2.5" fill="rgb(172,172,172)" />
	<circle cx="269.056" cy="229.19" r="2.5" fill="rgb(172,172,172)" />
	<circle cx="371.916" cy="109.394" r="2.5" fill="rgb(171,171,171)" />
	<circle cx="343.453" cy="208.056" r="2.5" fill="rgb(169,169,169)" />
	<circle cx="295.296" cy="133.964" r="2.5" fill="rgb(169,169,169)" />
	<circle cx="293.981" cy="149.329" r="2.5" fill="rgb(169,169,169)" />
	<circle cx="270.262" cy="155.395" r="2.5" fill="rgb(169,169,169)" />
	<circle cx="274.731" cy="138.436" r="2.5" fill="rgb(166,166,166)" />
	<circle cx="374.287" cy="122.626" r="2.5" fill="rgb(165,165,165)" />
	<circle cx="257.739" cy="217.411" r="2.5" fill="rgb(165,165,165)" />
	<circle cx="318.557" cy="240.923" r="2.5" fill="rgb(164,164,164)" />
	<circle cx="273.893" cy="170.094" r="2.5" fill="rgb(164,164,164)" />
	<circle cx="443.991" cy="131.854" r="2.5" fill="rgb(160,160,160)" />
	<circle cx="284.684" cy="263.418" r="2.5" fill="rgb(160,160,160)" />
	<circle cx="277.931" cy="232.815" r="2.5" fill="rgb(160,160,160)" />
	<circle cx="278.799" cy="156.556" r="2.5" fill="rgb(159,159,159)" />
	<circle cx="381.617" cy="137.93" r="2.5" fill="rgb(159,159,159)" />
	<circle cx="420.775" cy="148.009" r="2.5" fill="rgb(154,154,154)" />
	<circle cx="295.498" cy="229.674" r="2.5" fill="rgb(154,154,154)" />
	<circle cx="177.457" cy="340.274" r="2.5" fill="rgb(154,154,154)" />
	<circle cx="382.154" cy="149.192" r="2.5" fill="rgb(154,154,154)" />
	<circle cx="312.896" cy="254.664" r="2.5" fill="rgb(153,153,153)" />
	<circle cx="262.477" cy="244.355" r="2.5" fill="rgb(151,151,151)" />
	<circle cx="351.622" cy="191.961" r="2.5" fill="rgb(151,151,151)" />
	<circle cx="286.78" cy="242.781" r="2.5" fill="rgb(149,149,149)" />
	<circle cx="147.881" cy="285.707" r="2.5" fill="rgb(149,149,149)" />
	<circle cx="414.264" cy="163.245" r="2.5" fill="rgb(148,148,148)" />
	<circle cx="392.012" cy="164.572" r="2.5" fill="rgb(148,148,148)" />
	<circle cx="253.75" cy="253.22" r="2.5" fill="rgb(147,147,147)" />
	<circle cx="239.045" cy="284.925" r="2.5" fill="rgb(147,147,147)" />
	<circle cx="350.401" cy="203.704" r="2.5" fill="rgb(146,146,146)" />
	<circle cx="331.704" cy="234.008" r="2.5" fill="rgb(146,146,146)" />
	<circle cx="252.598" cy="261.361" r="2.5" fill="rgb(144,144,144)" />
	<circle cx="373.22" cy="171.902" r="2.5" fill="rgb(144,144,144)" />
	<circle cx="294.836" cy="195.442" r="2.5" fill="rgb(143,143,143)" />
	<circle cx="414.517" cy="176.449" r="2.5" fill="rgb(143,143,143)" />
	<circle cx="319.837" cy="241.113" r="2.5" fill="rgb(142,142,142)" />
	<circle cx="165.081" cy="289.556" r="2.5" fill="rgb(142,142,142)" />
	<circle cx="406.976" cy="188.44" r="2.5" fill="rgb(137,137,137)" />
	<circle cx="261.556" cy="286.481" r="2.5" fill="rgb(137,137,137)" />
	<circle cx="377.743" cy="185.613" r="2.5" fill="rgb(137,137,137)" />
	<circle cx="284.358" cy="293.248" r="2.5" fill="rgb(136,136,136)" />
	<circle cx="184.85" cy="318.169" r="2.5" fill="rgb(135,135,135)" />
	<circle cx="307.154" cy="280.616" r="2.5" fill="rgb(135,135,135)" />
	<circle cx="321.507" cy="231.403" r="2.5" fill="rgb(132,132,132)" />
	<circle cx="272.976" cy="303.543" r="2.5" fill="rgb(131,131,131)" />
	<circle cx="406.387" cy="203.95" r="2.5" fill="rgb(130,130,130)" />
	<circle cx="373.042" cy="198.292" r="2.5" fill="rgb(130,130,130)" />
	<circle cx="321.997" cy="269.428" r="2.5" fill="rgb(129,129,129)" />
	<circle cx="383.469" cy="228.865" r="2.5" fill="rgb(129,129,129)" />
	<circle cx="390.613" cy="231.707" r="2.5" fill="rgb(128,128,128)" />
	<circle cx="389.748" cy="212.842" r="2.5" fill="rgb(125,125,125)" />
	<circle cx="320.096" cy="281.148" r="2.5" fill="rgb(125,125,125)" />
	<circle cx="455.982" cy="228.979" r="2.5" fill="rgb(124,124,124)" />
	<circle cx="320.523" cy="288.076" r="2.5" fill="rgb(123,123,123)" />
	<circle cx="260.589" cy="323.329" r="2.5" fill="rgb(123,123,123)" />
	<circle cx="435.16" cy="231.117" r="2.5" fill="rgb(122,122,122)" />
	<circle cx="317.236" cy="300.17" r="2.5" fill="rgb(122,122,122)" />
	<circle cx="286.003" cy="267.076" r="2.5" fill="rgb(122,122,122)" />
	<circle cx="389.036" cy="221.685" r="2.5" fill="rgb(121,121,121)" />
	<circle cx="349.129" cy="328.863" r="2.5" fill="rgb(119,119,119)" />
	<circle cx="357.082" cy="311.77" r="2.5" fill="rgb(119,119,119)" />
	<circle cx="451.055" cy="241.045" r="2.5" fill="rgb(118,118,118)" />
	<circle cx="367.512" cy="298.262" r="2.5" fill="rgb(118,118,118)" />
	<circle cx="365.341" cy="285.897" r="2.5" fill="rgb(118,118,118)" />
	<circle cx="309.793" cy="301.051" r="2.5" fill="rgb(117,117,117)" />
	<circle cx="404.315" cy="246.659" r="2.5" fill="rgb(117,117,117)" />
	<circle cx="405.731" cy="234.124" r="2.5" fill="rgb(116,116,116)" />
	<circle cx="456.499" cy="252.107" r="2.5" fill="rgb(113,113,113)" />
	<circle cx="410.778" cy="243.665" r="2.5" fill="rgb(112,112,112)" />
	<circle cx="405.277" cy="242.588" r="2.5" fill="rgb(112,112,112)" />
	<circle cx="265.889" cy="254.027" r="2.5" fill="rgb(110,110,110)" />
	<circle cx="414.56" cy="254.404" r="2.5" fill="rgb(108,108,108)" />
	<circle cx="372.398" cy="244.293" r="2.5" fill="rgb(108,108,108)" />
	<circle cx="312.396" cy="251.628" r="2.5" fill="rgb(107,107,107)" />
	<circle cx="163.011" cy="306.659" r="2.5" fill="rgb(107,107,107)" />
	<circle cx="356.955" cy="244.718" r="2.5" fill="rgb(106,106,106)" />
	<circle cx="312.601" cy="252.893" r="2.5" fill="rgb(106,106,106)" />
	<circle cx="383.162" cy="252.419" r="2.5" fill="rgb(106,106,106)" />
	<circle cx="45.8814" cy="352.463" r="2.5" fill="rgb(105,105,105)" />
	<circle cx="201.629" cy="263.67" r="2.5" fill="rgb(105,105,105)" />
	<circle cx="292.175" cy="254.182" r="2.5" fill="rgb(104,104,104)" />
	<circle cx="104.372" cy="319.902" r="2.5" fill="rgb(103,103,103)" />
	<circle cx="390.856" cy="260.808" r="2.5" fill="rgb(102,102,102)" />
	<circle cx="372.388" cy="255.954" r="2.5" fill="rgb(102,102,102)" />
	<circle cx="161.065" cy="326.455" r="2.5" fill="rgb(102,102,102)" />
	<circle cx="309.407" cy="315.527" r="2.5" fill="rgb(100,100,100)" />
	<circle cx="305.089" cy="266.364" r="2.5" fill="rgb(100,100,100)" />
	<circle cx="194.177" cy="278.355" r="2.5" fill="rgb(100,100,100)" />
	<circle cx="279.562" cy="348.104" r="2.5" fill="rgb(100,100,100)" />
	<circle cx="116.658" cy="293.023" r="2.5" fill="rgb(99,99,99)" />
	<circle cx="152.297" cy="341.092" r="2.5" fill="rgb(98,98,98)" />
	<circle cx="183.084" cy="284.386" r="2.5" fill="rgb(98,98,98)" />
	<circle cx="243.99" cy="304.167" r="2.5" fill="rgb(98,98,98)" />
	<circle cx="364.872" cy="265.977" r="2.5" fill="rgb(97,97,97)" />
	<circle cx="262.649" cy="304.2" r="2.5" fill="rgb(97,97,97)" />
	<circle cx="233.119" cy="299.41" r="2.5" fill="rgb(96,96,96)" />
	<circle cx="205.008" cy="263.624" r="2.5" fill="rgb(95,95,95)" />
	<circle cx="199.18" cy="296.684" r="2.5" fill="rgb(95,95,95)" />
	<circle cx="221.796" cy="302.045" r="2.5" fill="rgb(95,95,95)" />
	<circle cx="224.225" cy="302.574" r="2.5" fill="rgb(94,94,94)" />
	<circle cx="456.493" cy="300.211" r="2.5" fill="rgb(94,94,94)" />
	<circle cx="400.314" cy="332.778" r="2.5" fill="rgb(94,94,94)" />
	<circle cx="306.281" cy="312.064" r="2.5" fill="rgb(94,94,94)" />
	<circle cx="265.152" cy="314.642" r="2.5" fill="rgb(94,94,94)" />
	<circle cx="294.824" cy="288.434" r="2.5" fill="rgb(94,94,94)" />
	<circle cx="327.767" cy="335.729" r="2.5" fill="rgb(93,93,93)" />
	<circle cx="349.633" cy="272.553" r="2.5" fill="rgb(93,93,93)" />
	<circle cx="223.179" cy="314.915" r="2.5" fill="rgb(91,91,91)" />
	<circle cx="363.219" cy="273.321" r="2.5" fill="rgb(91,91,91)" />
	<circle cx="320.565" cy="270.176" r="2.5" fill="rgb(90,90,90)" />
	<circle cx="283.853" cy="298.571" r="2.5" fill="rgb(90,90,90)" />
	<circle cx="490.67" cy="310.378" r="2.5" fill="rgb(89,89,89)" />
	<circle cx="323.267" cy="298.284" r="2.5" fill="rgb(88,88,88)" />
	<circle cx="413.883" cy="291.892" r="2.5" fill="rgb(88,88,88)" />
	<circle cx="432.132" cy="294.347" r="2.5" fill="rgb(88,88,88)" />
	<circle cx="306.569" cy="331.472" r="2.5" fill="rgb(88,88,88)" />
	<circle cx="377.451" cy="313.915" r="2.5" fill="rgb(88,88,88)" />
	<circle cx="415.97" cy="293.829" r="2.5" fill="rgb(87,87,87)" />
	<circle cx="165.779" cy="0.76961" r="2.5" fill="rgb(86,86,86)" />
	<circle cx="353.495" cy="284.379" r="2.5" fill="rgb(85,85,85)" />
	<circle cx="153.297" cy="1.56591" r="2.5" fill="rgb(85,85,85)" />
	<circle cx="225.094" cy="42.8433" r="2.5" fill="rgb(85,85,85)" />
	<circle cx="398.106" cy="298.049" r="2.5" fill="rgb(84,84,84)" />
	<circle cx="147.947" cy="11.4887" r="2.5" fill="rgb(84,84,84)" />
	<circle cx="238.503" cy="51.471" r="2.5" fill="rgb(83,83,83)" />
	<circle cx="192.589" cy="27.0288" r="2.5" fill="rgb(83,83,83)" />
	<circle cx="157.065" cy="111.908" r="2.5" fill="rgb(83,83,83)" />
	<circle cx="455.758" cy="318.089" r="2.5" fill="rgb(83,83,83)" />
	<circle cx="240.044" cy="56.3061" r="2.5" fill="rgb(83,83,83)" />
	<circle cx="423.191" cy="305.379" r="2.5" fill="rgb(83,83,83)" />
	<circle cx="409.57" cy="302.517" r="2.5" fill="rgb(83,83,83)" />
	<circle cx="172.655" cy="123.673" r="2.5" fill="rgb(82,82,82)" />
	<circle cx="171.404" cy="29.666" r="2.5" fill="rgb(81,81,81)" />
	<circle cx="152.043" cy="112.808" r="2.5" fill="rgb(81,81,81)" />
	<circle cx="77.1885" cy="56.3027" r="2.5" fill="rgb(81,81,81)" />
	<circle cx="184.514" cy="147.42" r="2.5" fill="rgb(81,81,81)" />
	<circle cx="358.833" cy="296.867" r="2.5" fill="rgb(81,81,81)" />
	<circle cx="168.089" cy="43.6902" r="2.5" fill="rgb(81,81,81)" />
	<circle cx="251.648" cy="67.3596" r="2.5" fill="rgb(80,80,80)" />
	<circle cx="192.055" cy="43.3579" r="2.5" fill="rgb(80,80,80)" />
	<circle cx="225.429" cy="59.805" r="2.5" fill="rgb(80,80,80)" />
	<circle cx="374.481" cy="300.183" r="2.5" fill="rgb(80,80,80)" />
	<circle cx="185.104" cy="157.147" r="2.5" fill="rgb(79,79,79)" />
	<circle cx="127.074" cy="202.283" r="2.5" fill="rgb(79,79,79)" />
	<circle cx="85.6461" cy="60.5983" r="2.5" fill="rgb(79,79,79)" />
	<circle cx="402.976" cy="309.766" r="2.5" fill="rgb(79,79,79)" />
	<circle cx="88.8224" cy="225.796" r="2.5" fill="rgb(79,79,79)" />
	<circle cx="136.421" cy="185.971" r="2.5" fill="rgb(79,79,79)" />
	<circle cx="215.744" cy="63.8965" r="2.5" fill="rgb(78,78,78)" />
	<circle cx="248.351" cy="77.1555" r="2.5" fill="rgb(78,78,78)" />
	<circle cx="113.397" cy="147.471" r="2.5" fill="rgb(78,78,78)" />
	<circle cx="395.999" cy="328.947" r="2.5" fill="rgb(77,77,77)" />
	<circle cx="100.31" cy="67.273" r="2.5" fill="rgb(77,77,77)" />
	<circle cx="224.689" cy="89.8999" r="2.5" fill="rgb(76,76,76)" />
	<circle cx="376.314" cy="310.355" r="2.5" fill="rgb(76,76,76)" />
	<circle cx="187.139" cy="59.2406" r="2.5" fill="rgb(76,76,76)" />
	<circle cx="41.4329" cy="99.4668" r="2.5" fill="rgb(76,76,76)" />
	<circle cx="484.176" cy="328.005" r="2.5" fill="rgb(75,75,75)" />
	<circle cx="238.224" cy="340.917" r="2.5" fill="rgb(75,75,75)" />
	<circle cx="244.896" cy="90.4324" r="2.5" fill="rgb(75,75,75)" />
	<circle cx="22.2349" cy="110.611" r="2.5" fill="rgb(74,74,74)" />
	<circle cx="42.0517" cy="261.782" r="2.5" fill="rgb(74,74,74)" />
	<circle cx="44.3251" cy="105.226" r="2.5" fill="rgb(74,74,74)" />
	<circle cx="357.296" cy="312.376" r="2.5" fill="rgb(73,73,73)" />
	<circle cx="170.202" cy="70.0024" r="2.5" fill="rgb(73,73,73)" />
	<circle cx="92.2366" cy="84.2843" r="2.5" fill="rgb(73,73,73)" />
	<circle cx="308.131" cy="314.963" r="2.5" fill="rgb(73,73,73)" />
	<circle cx="235.405" cy="96.4771" r="2.5" fill="rgb(73,73,73)" />
	<circle cx="229.489" cy="348.212" r="2.5" fill="rgb(73,73,73)" />
	<circle cx="102.916" cy="161.697" r="2.5" fill="rgb(72,72,72)" />
	<circle cx="218.657" cy="142.134" r="2.5" fill="rgb(72,72,72)" />
	<circle cx="477.014" cy="334.914" r="2.5" fill="rgb(72,72,72)" />
	<circle cx="61.9379" cy="306.951" r="2.5" fill="rgb(71,71,71)" />
	<circle cx="95.6042" cy="91.6558" r="2.5" fill="rgb(71,71,71)" />
	<circle cx="125.861" cy="157.597" r="2.5" fill="rgb(71,71,71)" />
	<circle cx="42.3741" cy="115.347" r="2.5" fill="rgb(71,71,71)" />
	<circle cx="26.0492" cy="170.978" r="2.5" fill="rgb(71,71,71)" />
	<circle cx="226.298" cy="103.114" r="2.5" fill="rgb(70,70,70)" />
	<circle cx="45.8329" cy="117.059" r="2.5" fill="rgb(70,70,70)" />
	<circle cx="247.456" cy="357.692" r="2.5" fill="rgb(70,70,70)" />
	<circle cx="353.29" cy="320.37" r="2.5" fill="rgb(70,70,70)" />
	<circle cx="107.434" cy="232.694" r="2.5" fill="rgb(70,70,70)" />
	<circle cx="209.686" cy="357.72" r="2.5" fill="rgb(70,70,70)" />
	<circle cx="115.924" cy="244.513" r="2.5" fill="rgb(70,70,70)" />
	<circle cx="73.7494" cy="228.927" r="2.5" fill="rgb(69,69,69)" />
	<circle cx="49.6043" cy="173.744" r="2.5" fill="rgb(69,69,69)" />
	<circle cx="65.5678" cy="114.964" r="2.5" fill="rgb(69,69,69)" />
	<circle cx="28.9735" cy="370.187" r="2.5" fill="rgb(69,69,69)" />
	<circle cx="160.161" cy="130.592" r="2.5" fill="rgb(69,69,69)" />
	<circle cx="128.443" cy="169.55" r="2.5" fill="rgb(69,69,69)" />
	<circle cx="93.3562" cy="101.548" r="2.5" fill="rgb(69,69,69)" />
	<circle cx="96.0862" cy="117.631" r="2.5" fill="rgb(69,69,69)" />
	<circle cx="147.697" cy="112.442" r="2.5" fill="rgb(69,69,69)" />
	<circle cx="358.722" cy="324.069" r="2.5" fill="rgb(69,69,69)" />
	<circle cx="160.335" cy="137.176" r="2.5" fill="rgb(69,69,69)" />
	<circle cx="483.453" cy="342.965" r="2.5" fill="rgb(68,68,68)" />
	<circle cx="124.374" cy="102.973" r="2.5" fill="rgb(68,68,68)" />
	<circle cx="45.4431" cy="181.997" r="2.5" fill="rgb(68,68,68)" />
	<circle cx="122.472" cy="320.607" r="2.5" fill="rgb(67,67,67)" />
	<circle cx="189.537" cy="354.531" r="2.5" fill="rgb(67,67,67)" />
	<circle cx="99.3974" cy="109.142" r="2.5" fill="rgb(67,67,67)" />
	<circle cx="229.926" cy="122.911" r="2.5" fill="rgb(67,67,67)" />
	<circle cx="196.154" cy="138.369" r="2.5" fill="rgb(67,67,67)" />
	<circle cx="44.7486" cy="328.3" r="2.5" fill="rgb(67,67,67)" />
	<circle cx="59.5396" cy="125.004" r="2.5" fill="rgb(67,67,67)" />
	<circle cx="323.6" cy="420.191" r="2.5" fill="rgb(67,67,67)" />
	<circle cx="285.146" cy="335.636" r="2.5" fill="rgb(66,66,66)" />
	<circle cx="147.839" cy="127.456" r="2.5" fill="rgb(66,66,66)" />
	<circle cx="152.995" cy="172.114" r="2.5" fill="rgb(66,66,66)" />
	<circle cx="382.596" cy="343.24" r="2.5" fill="rgb(66,66,66)" />
	<circle cx="131.714" cy="118.268" r="2.5" fill="rgb(65,65,65)" />
	<circle cx="130.195" cy="361.705" r="2.5" fill="rgb(65,65,65)" />
	<circle cx="234.23" cy="373.459" r="2.5" fill="rgb(65,65,65)" />
	<circle cx="107.544" cy="331.361" r="2.5" fill="rgb(65,65,65)" />
	<circle cx="135.855" cy="227.958" r="2.5" fill="rgb(65,65,65)" />
	<circle cx="354.999" cy="333.615" r="2.5" fill="rgb(65,65,65)" />
	<circle cx="43.0369" cy="466.827" r="2.5" fill="rgb(64,64,64)" />
	<circle cx="136.031" cy="120.772" r="2.5" fill="rgb(64,64,64)" />
	<circle cx="53.9311" cy="196.658" r="2.5" fill="rgb(64,64,64)" />
	<circle cx="71.6374" cy="330.436" r="2.5" fill="rgb(64,64,64)" />
	<circle cx="223.308" cy="135.252" r="2.5" fill="rgb(64,64,64)" />
	<circle cx="353.072" cy="334.769" r="2.5" fill="rgb(64,64,64)" />
	<circle cx="306.237" cy="333.013" r="2.5" fill="rgb(64,64,64)" />
	<circle cx="264.955" cy="403.068" r="2.5" fill="rgb(64,64,64)" />
	<circle cx="88.4268" cy="132.285" r="2.5" fill="rgb(64,64,64)" />
	<circle cx="290.397" cy="351.486" r="2.5" fill="rgb(64,64,64)" />
	<circle cx="220.571" cy="339.026" r="2.5" fill="rgb(63,63,63)" />
	<circle cx="193.58" cy="489.678" r="2.5" fill="rgb(63,63,63)" />
	<circle cx="290.25" cy="347.385" r="2.5" fill="rgb(63,63,63)" />
	<circle cx="288.336" cy="402.273" r="2.5" fill="rgb(63,63,63)" />
	<circle cx="322.682" cy="432.217" r="2.5" fill="rgb(62,62,62)" />
	<circle cx="92.9348" cy="351.265" r="2.5" fill="rgb(62,62,62)" />
	<circle cx="219.207" cy="143.85" r="2.5" fill="rgb(62,62,62)" />
	<circle cx="56.2883" cy="207.223" r="2.5" fill="rgb(62,62,62)" />
	<circle cx="279.087" cy="465.763" r="2.5" fill="rgb(62,62,62)" />
	<circle cx="487.891" cy="355.698" r="2.5" fill="rgb(62,62,62)" />
	<circle cx="454.988" cy="350.199" r="2.5" fill="rgb(62,62,62)" />
	<circle cx="141.587" cy="136.939" r="2.5" fill="rgb(62,62,62)" />
	<circle cx="378.319" cy="352.473" r="2.5" fill="rgb(62,62,62)" />
	<circle cx="319.777" cy="342.799" r="2.5" fill="rgb(61,61,61)" />
	<circle cx="347.736" cy="421.046" r="2.5" fill="rgb(61,61,61)" />
	<circle cx="148.229" cy="379.568" r="2.5" fill="rgb(61,61,61)" />
	<circle cx="144.599" cy="436.717" r="2.5" fill="rgb(61,61,61)" />
	<circle cx="158.711" cy="278.133" r="2.5" fill="rgb(60,60,60)" />
	<circle cx="144.196" cy="269.982" r="2.5" fill="rgb(60,60,60)" />
	<circle cx="346.59" cy="344.035" r="2.5" fill="rgb(60,60,60)" />
	<circle cx="31.9243" cy="395.026" r="2.5" fill="rgb(60,60,60)" />
	<circle cx="38.016" cy="219.859" r="2.5" fill="rgb(59,59,59)" />
	<circle cx="222.602" cy="160.302" r="2.5" fill="rgb(59,59,59)" />
	<circle cx="191.524" cy="146.617" r="2.5" fill="rgb(59,59,59)" />
	<circle cx="209.002" cy="355.446" r="2.5" fill="rgb(58,58,58)" />
	<circle cx="300.421" cy="458" r="2.5" fill="rgb(58,58,58)" />
	<circle cx="98.7551" cy="251.358" r="2.5" fill="rgb(58,58,58)" />
	<circle cx="243.082" cy="178.682" r="2.5" fill="rgb(58,58,58)" />
	<circle cx="206.635" cy="423.959" r="2.5" fill="rgb(58,58,58)" />
	<circle cx="384.386" cy="355.798" r="2.5" fill="rgb(58,58,58)" />
	<circle cx="287.348" cy="474.169" r="2.5" fill="rgb(58,58,58)" />
	<circle cx="323.108" cy="352.184" r="2.5" fill="rgb(58,58,58)" />
	<circle cx="289.745" cy="416.6" r="2.5" fill="rgb(57,57,57)" />
	<circle cx="277.938" cy="477.22" r="2.5" fill="rgb(57,57,57)" />
	<circle cx="123.116" cy="378.763" r="2.5" fill="rgb(57,57,57)" />
	<circle cx="15.6348" cy="226.268" r="2.5" fill="rgb(57,57,57)" />
	<circle cx="201.747" cy="160.135" r="2.5" fill="rgb(57,57,57)" />
	<circle cx="90.1896" cy="266.696" r="2.5" fill="rgb(57,57,57)" />
	<circle cx="21.8587" cy="227.868" r="2.5" fill="rgb(57,57,57)" />
	<circle cx="115.31" cy="281.2" r="2.5" fill="rgb(57,57,57)" />
	<circle cx="298.858" cy="419.361" r="2.5" fill="rgb(56,56,56)" />
	<circle cx="445.718" cy="360.796" r="2.5" fill="rgb(56,56,56)" />
	<circle cx="239.569" cy="187.502" r="2.5" fill="rgb(56,56,56)" />
	<circle cx="203.438" cy="166.599" r="2.5" fill="rgb(56,56,56)" />
	<circle cx="12.5132" cy="359.187" r="2.5" fill="rgb(56,56,56)" />
	<circle cx="52.0254" cy="366.348" r="2.5" fill="rgb(56,56,56)" />
	<circle cx="4.7867" cy="344.055" r="2.5" fill="rgb(56,56,56)" />
	<circle cx="442.23" cy="361.698" r="2.5" fill="rgb(56,56,56)" />
	<circle cx="10.4549" cy="379.663" r="2.5" fill="rgb(55,55,55)" />
	<circle cx="17.2201" cy="234.853" r="2.5" fill="rgb(55,55,55)" />
	<circle cx="158.95" cy="204.079" r="2.5" fill="rgb(55,55,55)" />
	<circle cx="322.196" cy="462.24" r="2.5" fill="rgb(55,55,55)" />
	<circle cx="133.88" cy="295.655" r="2.5" fill="rgb(55,55,55)" />
	<circle cx="434.964" cy="362.303" r="2.5" fill="rgb(55,55,55)" />
	<circle cx="305.563" cy="362.677" r="2.5" fill="rgb(55,55,55)" />
	<circle cx="133.466" cy="253.152" r="2.5" fill="rgb(55,55,55)" />
	<circle cx="155.426" cy="188.132" r="2.5" fill="rgb(55,55,55)" />
	<circle cx="190.839" cy="367.592" r="2.5" fill="rgb(54,54,54)" />
	<circle cx="26.3101" cy="355.285" r="2.5" fill="rgb(54,54,54)" />
	<circle cx="293.153" cy="426.033" r="2.5" fill="rgb(54,54,54)" />
	<circle cx="29.5767" cy="374.035" r="2.5" fill="rgb(54,54,54)" />
	<circle cx="91.683" cy="288.54" r="2.5" fill="rgb(54,54,54)" />
	<circle cx="182.24" cy="465.809" r="2.5" fill="rgb(54,54,54)" />
	<circle cx="83.2736" cy="356.85" r="2.5" fill="rgb(54,54,54)" />
	<circle cx="374.977" cy="359.604" r="2.5" fill="rgb(54,54,54)" />
	<circle cx="196.052" cy="176.155" r="2.5" fill="rgb(54,54,54)" />
	<circle cx="126.818" cy="304.368" r="2.5" fill="rgb(54,54,54)" />
	<circle cx="22.6669" cy="243.908" r="2.5" fill="rgb(54,54,54)" />
	<circle cx="84.4719" cy="228.57" r="2.5" fill="rgb(53,53,53)" />
	<circle cx="125.27" cy="284.006" r="2.5" fill="rgb(53,53,53)" />
	<circle cx="238.646" cy="400.613" r="2.5" fill="rgb(53,53,53)" />
	<circle cx="327.071" cy="382.74" r="2.5" fill="rgb(53,53,53)" />
	<circle cx="110.639" cy="227.973" r="2.5" fill="rgb(53,53,53)" />
	<circle cx="126.075" cy="263.302" r="2.5" fill="rgb(53,53,53)" />
	<circle cx="59.972" cy="308.617" r="2.5" fill="rgb(53,53,53)" />
	<circle cx="225.537" cy="198.717" r="2.5" fill="rgb(53,53,53)" />
	<circle cx="115.684" cy="333.513" r="2.5" fill="rgb(53,53,53)" />
	<circle cx="80.2088" cy="322.743" r="2.5" fill="rgb(53,53,53)" />
	<circle cx="135.811" cy="212.999" r="2.5" fill="rgb(52,52,52)" />
	<circle cx="292.304" cy="487.853" r="2.5" fill="rgb(52,52,52)" />
	<circle cx="130.114" cy="236.15" r="2.5" fill="rgb(52,52,52)" />
	<circle cx="434.222" cy="368.679" r="2.5" fill="rgb(52,52,52)" />
	<circle cx="413.381" cy="365.52" r="2.5" fill="rgb(52,52,52)" />
	<circle cx="359.002" cy="364.358" r="2.5" fill="rgb(52,52,52)" />
	<circle cx="60.0944" cy="348.128" r="2.5" fill="rgb(52,52,52)" />
	<circle cx="472.691" cy="439.971" r="2.5" fill="rgb(52,52,52)" />
	<circle cx="87.159" cy="241.046" r="2.5" fill="rgb(51,51,51)" />
	<circle cx="94.3608" cy="263.179" r="2.5" fill="rgb(51,51,51)" />
	<circle cx="120.264" cy="150.149" r="2.5" fill="rgb(51,51,51)" />
	<circle cx="38.5237" cy="337.064" r="2.5" fill="rgb(51,51,51)" />
	<circle cx="302.789" cy="433.284" r="2.5" fill="rgb(51,51,51)" />
	<circle cx="313.49" cy="373.895" r="2.5" fill="rgb(51,51,51)" />
	<circle cx="202.789" cy="195.687" r="2.5" fill="rgb(51,51,51)" />
	<circle cx="171.138" cy="428.219" r="2.5" fill="rgb(51,51,51)" />
	<circle cx="345.493" cy="461.717" r="2.5" fill="rgb(51,51,51)" />
	<circle cx="126.614" cy="231.976" r="2.5" fill="rgb(50,50,50)" />
	<circle cx="136.042" cy="249.895" r="2.5" fill="rgb(50,50,50)" />
	<circle cx="134.549" cy="350.488" r="2.5" fill="rgb(50,50,50)" />
	<circle cx="302.708" cy="375.64" r="2.5" fill="rgb(50,50,50)" />
	<circle cx="399.814" cy="451.274" r="2.5" fill="rgb(50,50,50)" />
	<circle cx="273.709" cy="410.387" r="2.5" fill="rgb(50,50,50)" />
	<circle cx="399.272" cy="369.58" r="2.5" fill="rgb(50,50,50)" />
	<circle cx="489.999" cy="443.33" r="2.5" fill="rgb(50,50,50)" />
	<circle cx="359.293" cy="373.414" r="2.5" fill="rgb(50,50,50)" />
	<circle cx="113.118" cy="262.481" r="2.5" fill="rgb(50,50,50)" />
	<circle cx="202.623" cy="204.279" r="2.5" fill="rgb(50,50,50)" />
	<circle cx="353.145" cy="371.969" r="2.5" fill="rgb(49,49,49)" />
	<circle cx="394.801" cy="452.985" r="2.5" fill="rgb(49,49,49)" />
	<circle cx="272.982" cy="375.554" r="2.5" fill="rgb(49,49,49)" />
	<circle cx="115.042" cy="160.292" r="2.5" fill="rgb(49,49,49)" />
	<circle cx="232.692" cy="414.469" r="2.5" fill="rgb(49,49,49)" />
	<circle cx="190.777" cy="201.478" r="2.5" fill="rgb(49,49,49)" />
	<circle cx="134.313" cy="253.677" r="2.5" fill="rgb(49,49,49)" />
	<circle cx="1.73289" cy="308.039" r="2.5" fill="rgb(48,48,48)" />
	<circle cx="176.539" cy="254.267" r="2.5" fill="rgb(48,48,48)" />
	<circle cx="110.428" cy="169.033" r="2.5" fill="rgb(47,47,47)" />
	<circle cx="165.114" cy="291.129" r="2.5" fill="rgb(47,47,47)" />
	<circle cx="148.25" cy="284.489" r="2.5" fill="rgb(47,47,47)" />
	<circle cx="82.0194" cy="305.149" r="2.5" fill="rgb(47,47,47)" />
	<circle cx="211.657" cy="250.829" r="2.5" fill="rgb(47,47,47)" />
	<circle cx="195.762" cy="216.45" r="2.5" fill="rgb(47,47,47)" />
	<circle cx="400.158" cy="376.332" r="2.5" fill="rgb(47,47,47)" />
	<circle cx="60.2611" cy="287.897" r="2.5" fill="rgb(47,47,47)" />
	<circle cx="293.415" cy="385.827" r="2.5" fill="rgb(46,46,46)" />
	<circle cx="263.048" cy="414.466" r="2.5" fill="rgb(46,46,46)" />
	<circle cx="491.607" cy="449.491" r="2.5" fill="rgb(46,46,46)" />
	<circle cx="400.458" cy="459.264" r="2.5" fill="rgb(46,46,46)" />
	<circle cx="143.733" cy="293.564" r="2.5" fill="rgb(46,46,46)" />
	<circle cx="106.117" cy="296.3" r="2.5" fill="rgb(46,46,46)" />
	<circle cx="117.759" cy="179.637" r="2.5" fill="rgb(46,46,46)" />
	<circle cx="73.4695" cy="300.788" r="2.5" fill="rgb(45,45,45)" />
	<circle cx="383.903" cy="378.901" r="2.5" fill="rgb(45,45,45)" />
	<circle cx="476.371" cy="451.908" r="2.5" fill="rgb(45,45,45)" />
	<circle cx="96.1366" cy="299.133" r="2.5" fill="rgb(44,44,44)" />
	<circle cx="399.853" cy="486.616" r="2.5" fill="rgb(44,44,44)" />
	<circle cx="341.418" cy="385.513" r="2.5" fill="rgb(44,44,44)" />
	<circle cx="125.334" cy="190.803" r="2.5" fill="rgb(44,44,44)" />
	<circle cx="183.139" cy="229.18" r="2.5" fill="rgb(44,44,44)" />
	<circle cx="178.994" cy="225.706" r="2.5" fill="rgb(43,43,43)" />
	<circle cx="99.5068" cy="188.283" r="2.5" fill="rgb(43,43,43)" />
	<circle cx="65.5532" cy="314.99" r="2.5" fill="rgb(43,43,43)" />
	<circle cx="174.624" cy="283.23" r="2.5" fill="rgb(43,43,43)" />
	<circle cx="176.717" cy="279.309" r="2.5" fill="rgb(43,43,43)" />
	<circle cx="72.2232" cy="297.437" r="2.5" fill="rgb(42,42,42)" />
	<circle cx="162.338" cy="244.342" r="2.5" fill="rgb(42,42,42)" />
	<circle cx="36.1342" cy="309.687" r="2.5" fill="rgb(42,42,42)" />
	<circle cx="54.1113" cy="312.404" r="2.5" fill="rgb(42,42,42)" />
	<circle cx="184.337" cy="243.035" r="2.5" fill="rgb(41,41,41)" />
	<circle cx="380.667" cy="388.317" r="2.5" fill="rgb(41,41,41)" />
	<circle cx="469.64" cy="459.469" r="2.5" fill="rgb(41,41,41)" />
	<circle cx="42.2776" cy="370.93" r="2.5" fill="rgb(40,40,40)" />
	<circle cx="78.5284" cy="328.292" r="2.5" fill="rgb(40,40,40)" />
	<circle cx="357.708" cy="489.181" r="2.5" fill="rgb(40,40,40)" />
	<circle cx="103.041" cy="204.152" r="2.5" fill="rgb(40,40,40)" />
	<circle cx="49.4496" cy="328.129" r="2.5" fill="rgb(40,40,40)" />
	<circle cx="303.544" cy="432.373" r="2.5" fill="rgb(39,39,39)" />
	<circle cx="481.45" cy="461.876" r="2.5" fill="rgb(39,39,39)" />
	<circle cx="430.205" cy="469.003" r="2.5" fill="rgb(39,39,39)" />
	<circle cx="186.507" cy="253.306" r="2.5" fill="rgb(39,39,39)" />
	<circle cx="132.346" cy="327.961" r="2.5" fill="rgb(39,39,39)" />
	<circle cx="14.7905" cy="387.401" r="2.5" fill="rgb(38,38,38)" />
	<circle cx="326.111" cy="396.037" r="2.5" fill="rgb(38,38,38)" />
	<circle cx="419.989" cy="485.333" r="2.5" fill="rgb(37,37,37)" />
	<circle cx="40.9056" cy="339.848" r="2.5" fill="rgb(36,36,36)" />
	<circle cx="27.9605" cy="318.223" r="2.5" fill="rgb(36,36,36)" />
	<circle cx="454.358" cy="467.549" r="2.5" fill="rgb(36,36,36)" />
	<circle cx="111.559" cy="225.605" r="2.5" fill="rgb(36,36,36)" />
	<circle cx="377.515" cy="399.198" r="2.5" fill="rgb(36,36,36)" />
	<circle cx="170.799" cy="263.316" r="2.5" fill="rgb(36,36,36)" />
	<circle cx="119.371" cy="340.262" r="2.5" fill="rgb(36,36,36)" />
	<circle cx="257.197" cy="418.651" r="2.5" fill="rgb(36,36,36)" />
	<circle cx="466.408" cy="468.294" r="2.5" fill="rgb(36,36,36)" />
	<circle cx="16.339" cy="328.178" r="2.5" fill="rgb(35,35,35)" />
	<circle cx="17.0308" cy="328.284" r="2.5" fill="rgb(35,35,35)" />
	<circle cx="329.722" cy="405.024" r="2.5" fill="rgb(34,34,34)" />
	<circle cx="295.867" cy="424.073" r="2.5" fill="rgb(34,34,34)" />
	<circle cx="295.34" cy="424.006" r="2.5" fill="rgb(34,34,34)" />
	<circle cx="34.2033" cy="356.683" r="2.5" fill="rgb(34,34,34)" />
	<circle cx="390.934" cy="495.959" r="2.5" fill="rgb(34,34,34)" />
	<circle cx="412.439" cy="482.365" r="2.5" fill="rgb(34,34,34)" />
	<circle cx="109.742" cy="239.321" r="2.5" fill="rgb(33,33,33)" />
	<circle cx="359.335" cy="404.684" r="2.5" fill="rgb(33,33,33)" />
	<circle cx="18.7422" cy="349.258" r="2.5" fill="rgb(32,32,32)" />
	<circle cx="33.6365" cy="370.005" r="2.5" fill="rgb(32,32,32)" />
	<circle cx="109.36" cy="251.559" r="2.5" fill="rgb(31,31,31)" />
	<circle cx="273.954" cy="432.651" r="2.5" fill="rgb(31,31,31)" />
	<circle cx="416.773" cy="497.603" r="2.5" fill="rgb(31,31,31)" />
	<circle cx="305.398" cy="429.746" r="2.5" fill="rgb(31,31,31)" />
	<circle cx="453.518" cy="478.987" r="2.5" fill="rgb(30,30,30)" />
	<circle cx="373.134" cy="412.708" r="2.5" fill="rgb(30,30,30)" />
	<circle cx="26.3732" cy="348.626" r="2.5" fill="rgb(29,29,29)" />
	<circle cx="38.8556" cy="369.085" r="2.5" fill="rgb(29,29,29)" />
	<circle cx="130.641" cy="267.617" r="2.5" fill="rgb(29,29,29)" />
	<circle cx="243.436" cy="433.467" r="2.5" fill="rgb(28,28,28)" />
	<circle cx="147.127" cy="451.4" r="2.5" fill="rgb(28,28,28)" />
	<circle cx="120.33" cy="461.695" r="2.5" fill="rgb(27,27,27)" />
	<circle cx="396.295" cy="420.589" r="2.5" fill="rgb(27,27,27)" />
	<circle cx="483.51" cy="479.992" r="2.5" fill="rgb(27,27,27)" />
	<circle cx="311.454" cy="441.763" r="2.5" fill="rgb(26,26,26)" />
	<circle cx="130.199" cy="282.107" r="2.5" fill="rgb(26,26,26)" />
	<circle cx="365.544" cy="420.936" r="2.5" fill="rgb(26,26,26)" />
	<circle cx="337.736" cy="422.989" r="2.5" fill="rgb(26,26,26)" />
	<circle cx="157.022" cy="460.423" r="2.5" fill="rgb(26,26,26)" />
	<circle cx="122.451" cy="281.552" r="2.5" fill="rgb(26,26,26)" />
	<circle cx="79.6458" cy="496.763" r="2.5" fill="rgb(25,25,25)" />
	<circle cx="138.105" cy="468.217" r="2.5" fill="rgb(25,25,25)" />
	<circle cx="310.545" cy="449.469" r="2.5" fill="rgb(24,24,24)" />
	<circle cx="16.5666" cy="415.906" r="2.5" fill="rgb(23,23,23)" />
	<circle cx="146.325" cy="471.471" r="2.5" fill="rgb(23,23,23)" />
	<circle cx="118.546" cy="490.854" r="2.5" fill="rgb(23,23,23)" />
	<circle cx="223.767" cy="451.315" r="2.5" fill="rgb(23,23,23)" />
	<circle cx="179.369" cy="463.501" r="2.5" fill="rgb(23,23,23)" />
	<circle cx="52.1233" cy="373.022" r="2.5" fill="rgb(23,23,23)" />
	<circle cx="106.92" cy="296.474" r="2.5" fill="rgb(22,22,22)" />
	<circle cx="63.5953" cy="366.121" r="2.5" fill="rgb(22,22,22)" />
	<circle cx="368.221" cy="433.476" r="2.5" fill="rgb(21,21,21)" />
	<circle cx="15.538" cy="439.576" r="2.5" fill="rgb(21,21,21)" />
	<circle cx="242.686" cy="457.179" r="2.5" fill="rgb(20,20,20)" />
	<circle cx="14.645" cy="335.193" r="2.5" fill="rgb(20,20,20)" />
	<circle cx="47.9452" cy="358.06" r="2.5" fill="rgb(20,20,20)" />
	<circle cx="127.203" cy="312.123" r="2.5" fill="rgb(20,20,20)" />
	<circle cx="177.249" cy="480.253" r="2.5" fill="rgb(20,20,20)" />
	<circle cx="166.595" cy="499.142" r="2.5" fill="rgb(19,19,19)" />
	<circle cx="199.305" cy="474.768" r="2.5" fill="rgb(19,19,19)" />
	<circle cx="202.26" cy="476.815" r="2.5" fill="rgb(18,18,18)" />
	<circle cx="254.801" cy="464.906" r="2.5" fill="rgb(18,18,18)" />
	<circle cx="132.226" cy="325.874" r="2.5" fill="rgb(18,18,18)" />
	<circle cx="8.98395" cy="358.27" r="2.5" fill="rgb(17,17,17)" />
	<circle cx="104.209" cy="321.584" r="2.5" fill="rgb(17,17,17)" />
	<circle cx="60.5716" cy="322.566" r="2.5" fill="rgb(17,17,17)" />
	<circle cx="26.3845" cy="383.239" r="2.5" fill="rgb(17,17,17)" />
	<circle cx="104.3" cy="323.862" r="2.5" fill="rgb(17,17,17)" />
	<circle cx="115.165" cy="325.779" r="2.5" fill="rgb(17,17,17)" />
	<circle cx="320.341" cy="442.432" r="2.5" fill="rgb(16,16,16)" />
	<circle cx="334.41" cy="442.206" r="2.5" fill="rgb(16,16,16)" />
	<circle cx="344.846" cy="444.148" r="2.5" fill="rgb(16,16,16)" />
	<circle cx="31.5393" cy="396.175" r="2.5" fill="rgb(16,16,16)" />
	<circle cx="39.6951" cy="399.907" r="2.5" fill="rgb(15,15,15)" />
	<circle cx="246.875" cy="473.982" r="2.5" fill="rgb(15,15,15)" />
	<circle cx="347.124" cy="447.777" r="2.5" fill="rgb(15,15,15)" />
	<circle cx="10.4897" cy="435.816" r="2.5" fill="rgb(14,14,14)" />
	<circle cx="111.668" cy="340.663" r="2.5" fill="rgb(14,14,14)" />
	<circle cx="54.3537" cy="319.23" r="2.5" fill="rgb(14,14,14)" />
	<circle cx="12.9659" cy="411.097" r="2.5" fill="rgb(14,14,14)" />
	<circle cx="60.1601" cy="431.448" r="2.5" fill="rgb(14,14,14)" />
	<circle cx="32.4522" cy="445.429" r="2.5" fill="rgb(14,14,14)" />
	<circle cx="71.2786" cy="435.829" r="2.5" fill="rgb(13,13,13)" />
	<circle cx="36.9276" cy="423.684" r="2.5" fill="rgb(13,13,13)" />
	<circle cx="13.5379" cy="420.115" r="2.5" fill="rgb(13,13,13)" />
	<circle cx="29.4749" cy="421.866" r="2.5" fill="rgb(13,13,13)" />
	<circle cx="44.364" cy="439.227" r="2.5" fill="rgb(13,13,13)" />
	<circle cx="39.4976" cy="456.05" r="2.5" fill="rgb(12,12,12)" />
	<circle cx="60.3709" cy="340.935" r="2.5" fill="rgb(11,11,11)" />
	<circle cx="4.46101" cy="411.853" r="2.5" fill="rgb(11,11,11)" />
	<circle cx="320.057" cy="456.031" r="2.5" fill="rgb(11,11,11)" />
	<circle cx="257.388" cy="449.924" r="2.5" fill="rgb(11,11,11)" />
	<circle cx="56.14" cy="341.348" r="2.5" fill="rgb(11,11,11)" />
	<circle cx="9.78165" cy="438.157" r="2.5" fill="rgb(11,11,11)" />
	<circle cx="185.483" cy="406.502" r="2.5" fill="rgb(11,11,11)" />
	<circle cx="42.9169" cy="452.826" r="2.5" fill="rgb(11,11,11)" />
	<circle cx="20.1504" cy="348.214" r="2.5" fill="rgb(11,11,11)" />
	<circle cx="9.99087" cy="421.359" r="2.5" fill="rgb(10,10,10)" />
	<circle cx="16.3434" cy="422.078" r="2.5" fill="rgb(10,10,10)" />
	<circle cx="31.6909" cy="470.112" r="2.5" fill="rgb(10,10,10)" />
	<circle cx="119.483" cy="426.064" r="2.5" fill="rgb(10,10,10)" />
	<circle cx="40.6097" cy="345.507" r="2.5" fill="rgb(10,10,10)" />
	<circle cx="42.6283" cy="348.642" r="2.5" fill="rgb(10,10,10)" />
	<circle cx="164.668" cy="410.894" r="2.5" fill="rgb(9,9,9)" />
	<circle cx="98.6919" cy="420.269" r="2.5" fill="rgb(9,9,9)" />
	<circle cx="186.797" cy="414.272" r="2.5" fill="rgb(9,9,9)" />
	<circle cx="129.919" cy="436.112" r="2.5" fill="rgb(8,8,8)" />
	<circle cx="63.4386" cy="359.665" r="2.5" fill="rgb(8,8,8)" />
	<circle cx="1.06341" cy="439.619" r="2.5" fill="rgb(8,8,8)" />
	<circle cx="45.8048" cy="472.573" r="2.5" fill="rgb(8,8,8)" />
	<circle cx="86.1084" cy="457.317" r="2.5" fill="rgb(8,8,8)" />
	<circle cx="71.5421" cy="359.718" r="2.5" fill="rgb(8,8,8)" />
	<circle cx="85.1844" cy="460.062" r="2.5" fill="rgb(8,8,8)" />
	<circle cx="53.1021" cy="479.258" r="2.5" fill="rgb(8,8,8)" />
	<circle cx="184.567" cy="422.996" r="2.5" fill="rgb(7,7,7)" />
	<circle cx="83.4358" cy="368.751" r="2.5" fill="rgb(7,7,7)" />
	<circle cx="27.0465" cy="369.524" r="2.5" fill="rgb(6,6,6)" />
	<circle cx="43.3525" cy="370.51" r="2.5" fill="rgb(6,6,6)" />
	<circle cx="192.579" cy="425.619" r="2.5" fill="rgb(6,6,6)" />
	<circle cx="136.257" cy="429.541" r="2.5" fill="rgb(6,6,6)" />
	<circle cx="254.488" cy="465.329" r="2.5" fill="rgb(6,6,6)" />
	<circle cx="172.273" cy="426.744" r="2.5" fill="rgb(6,6,6)" />
	<circle cx="179.119" cy="426.772" r="2.5" fill="rgb(6,6,6)" />
	<circle cx="96.9202" cy="469.737" r="2.5" fill="rgb(6,6,6)" />
	<circle cx="50.1865" cy="379.401" r="2.5" fill="rgb(5,5,5)" />
	<circle cx="159.553" cy="431.815" r="2.5" fill="rgb(5,5,5)" />
	<circle cx="168.109" cy="430.914" r="2.5" fill="rgb(5,5,5)" />
	<circle cx="75.9201" cy="379.92" r="2.5" fill="rgb(5,5,5)" />
	<circle cx="83.8208" cy="383.853" r="2.5" fill="rgb(5,5,5)" />
	<circle cx="119.026" cy="456.52" r="2.5" fill="rgb(5,5,5)" />
	<circle cx="70.167" cy="391.837" r="2.5" fill="rgb(3,3,3)" />
	<circle cx="43.2682" cy="394.737" r="2.5" fill="rgb(3,3,3)" />
	<circle cx="171.112" cy="440.761" r="2.5" fill="rgb(3,3,3)" />
	<circle cx="61.253" cy="403.642" r="2.5" fill="rgb(2,2,2)" />
	<circle cx="83.3333" cy="416.667" r="2" fill="rgb(255,0,0)" />
	<circle cx="416.667" cy="83.3333" r="2" fill="rgb(0,255,0)" />
	<circle cx="83.3333" cy="416.667" r="2" fill="rgb(0,255,0)" />
	<circle cx="69.2385" cy="405.167" r="2" fill="rgb(0,255,0)" />
	<circle cx="89.7894" cy="387.831" r="2" fill="rgb(0,255,0)" />
	<circle cx="111.501" cy="380.472" r="2" fill="rgb(0,255,0)" />
	<circle cx="142.734" cy="366.573" r="2" fill="rgb(0,255,0)" />
	<circle cx="164.23" cy="356.259" r="2" fill="rgb(0,255,0)" />
	<circle cx="203.12" cy="348.012" r="2" fill="rgb(0,255,0)" />
	<circle cx="204.372" cy="337.003" r="2" fill="rgb(0,255,0)" />
	<circle cx="242.369" cy="330.583" r="2" fill="rgb(0,255,0)" />
	<circle cx="237.312" cy="314.096" r="2" fill="rgb(0,255,0)" />
	<circle cx="250.717" cy="299.946" r="2" fill="rgb(0,255,0)" />
	<circle cx="289.633" cy="307.52" r="2" fill="rgb(0,255,0)" />
	<circle cx="303.786" cy="303.1" r="2" fill="rgb(0,255,0)" />
	<circle cx="319.917" cy="291.345" r="2" fill="rgb(0,255,0)" />
	<circle cx="364.086" cy="294.977" r="2" fill="rgb(0,255,0)" />
	<circle cx="368.571" cy="288.634" r="2" fill="rgb(0,255,0)" />
	<circle cx="403.162" cy="287.544" r="2" fill="rgb(0,255,0)" />
	<circle cx="408.957" cy="274.402" r="2" fill="rgb(0,255,0)" />
	<circle cx="408.976" cy="264.442" r="2" fill="rgb(0,255,0)" />
	<circle cx="395.543" cy="254.166" r="2" fill="rgb(0,255,0)" />
	<circle cx="395.397" cy="242.511" r="2" fill="rgb(0,255,0)" />
	<circle cx="427.473" cy="234.424" r="2" fill="rgb(0,255,0)" />
	<circle cx="431.071" cy="224.198" r="2" fill="rgb(0,255,0)" />
	<circle cx="444.793" cy="209.8" r="2" fill="rgb(0,255,0)" />
	<circle cx="457.291" cy="193.298" r="2" fill="rgb(0,255,0)" />
	<circle cx="446.526" cy="185.357" r="2" fill="rgb(0,255,0)" />
	<circle cx="444.216" cy="169.502" r="2" fill="rgb(0,255,0)" />
	<circle cx="440.447" cy="157.118" r="2" fill="rgb(0,255,0)" />
	<circle cx="426.303" cy="146.331" r="2" fill="rgb(0,255,0)" />
	<circle cx="415.739" cy="129.496" r="2" fill="rgb(0,255,0)" />
	<circle cx="411.852" cy="120.946" r="2" fill="rgb(0,255,0)" />
	<circle cx="407.325" cy="110.691" r="2" fill="rgb(0,255,0)" />
	<circle cx="425.189" cy="89.0721" r="2" fill="rgb(0,255,0)" />
	<circle cx="419.932" cy="78.9097" r="2" fill="rgb(0,255,0)" />
</svg>
