<?xml version="1.0" standalone="no" ?>
<!DOCTYPE svg PUBLIC "-//W3C//DTD SVG 1.1//EN" "http://www.w3.org/Graphics/SVG/1.1/DTD/svg11.dtd">
<svg width="500px" height="500px" xmlns="http://www.w3.org/2000/svg" version="1.1" >
	<circle cx="156.932" cy="145.186" r="2.5" fill="rgb(255,255,255)" />
	<circle cx="153.815" cy="159.431" r="2.5" fill="rgb(246,246,246)" />
	<circle cx="149.214" cy="167.454" r="2.5" fill="rgb(241,241,241)" />
	<circle cx="230.08" cy="229.852" r="2.5" fill="rgb(236,236,236)" />
	<circle cx="224.199" cy="192.12" r="2.5" fill="rgb(233,233,233)" />
	<circle cx="322.256" cy="185.49" r="2.5" fill="rgb(229,229,229)" />
	<circle cx="147.055" cy="170.866" r="2.5" fill="rgb(228,228,228)" />
	<circle cx="239.241" cy="176.544" r="2.5" fill="rgb(227,227,227)" />
	<circle cx="193.804" cy="188.356" r="2.5" fill="rgb(226,226,226)" />
	<circle cx="183.173" cy="192.941" r="2.5" fill="rgb(221,221,221)" />
	<circle cx="306.644" cy="190.346" r="2.5" fill="rgb(220,220,220)" />
	<circle cx="288.286" cy="193.712" r="2.5" fill="rgb(212,212,212)" />
	<circle cx="230.435" cy="232.582" r="2.5" fill="rgb(208,208,208)" />
	<circle cx="282.712" cy="199.535" r="2.5" fill="rgb(206,206,206)" />
	<circle cx="255.616" cy="233.114" r="2.5" fill="rgb(206,206,206)" />
	<circle cx="278.661" cy="207.698" r="2.5" fill="rgb(199,199,199)" />
	<circle cx="331.016" cy="233.221" r="2.5" fill="rgb(199,199,199)" />
	<circle cx="214.817" cy="254.961" r="2.5" fill="rgb(195,195,195)" />
	<circle cx="156.448" cy="246.833" r="2.5" fill="rgb(190,190,190)" />
	<circle cx="285.616" cy="226.092" r="2.5" fill="rgb(188,188,188)" />
	<circle cx="308.279" cy="239.645" r="2.5" fill="rgb(187,187,187)" />
	<circle cx="275.381" cy="232.105" r="2.5" fill="rgb(181,181,181)" />
	<circle cx="237.223" cy="232.603" r="2.5" fill="rgb(170,170,170)" />
	<circle cx="271.015" cy="249.226" r="2.5" fill="rgb(166,166,166)" />
	<circle cx="192.793" cy="250.588" r="2.5" fill="rgb(164,164,164)" />
	<circle cx="88.1738" cy="176.16" r="2.5" fill="rgb(159,159,159)" />
	<circle cx="252.187" cy="254.165" r="2.5" fill="rgb(159,159,159)" />
	<circle cx="175.06" cy="208.429" r="2.5" fill="rgb(156,156,156)" />
	<circle cx="124.249" cy="287.596" r="2.5" fill="rgb(156,156,156)" />
	<circle cx="113.342" cy="261.369" r="2.5" fill="rgb(155,155,155)" />
	<circle cx="260.788" cy="331.311" r="2.5" fill="rgb(153,153,153)" />
	<circle cx="90.26" cy="192.872" r="2.5" fill="rgb(151,151,151)" />
	<circle cx="171.877" cy="222.797" r="2.5" fill="rgb(149,149,149)" />
	<circle cx="337.961" cy="312.879" r="2.5" fill="rgb(146,146,146)" />
	<circle cx="104.993" cy="203.937" r="2.5" fill="rgb(146,146,146)" />
	<circle cx="166.705" cy="249.66" r="2.5" fill="rgb(146,146,146)" />
	<circle cx="163.407" cy="237.426" r="2.5" fill="rgb(141,141,141)" />
	<circle cx="108.793" cy="216.47" r="2.5" fill="rgb(141,141,141)" />
	<circle cx="197.029" cy="250.837" r="2.5" fill="rgb(139,139,139)" />
	<circle cx="111.286" cy="286.001" r="2.5" fill="rgb(139,139,139)" />
	<circle cx="375.928" cy="335.205" r="2.5" fill="rgb(139,139,139)" />
	<circle cx="335.001" cy="324.241" r="2.5" fill="rgb(137,137,137)" />
	<circle cx="417.355" cy="296.159" r="2.5" fill="rgb(136,136,136)" />
	<circle cx="117.606" cy="232.394" r="2.5" fill="rgb(134,134,134)" />
	<circle cx="188.524" cy="259.281" r="2.5" fill="rgb(133,133,133)" />
	<circle cx="477.53" cy="315.345" r="2.5" fill="rgb(128,128,128)" />
	<circle cx="425.131" cy="305.254" r="2.5" fill="rgb(128,128,128)" />
	<circle cx="331.098" cy="338.846" r="2.5" fill="rgb(128,128,128)" />
	<circle cx="349.305" cy="324.884" r="2.5" fill="rgb(126,126,126)" />
	<circle cx="139.791" cy="255.489" r="2.5" fill="rgb(126,126,126)" />
	<circle cx="152.43" cy="259.778" r="2.5" fill="rgb(126,126,126)" />
	<circle cx="371.004" cy="353.917" r="2.5" fill="rgb(124,124,124)" />
	<circle cx="137.762" cy="271.348" r="2.5" fill="rgb(118,118,118)" />
	<circle cx="433.461" cy="316.943" r="2.5" fill="rgb(118,118,118)" />
	<circle cx="221.698" cy="411.513" r="2.5" fill="rgb(117,117,117)" />
	<circle cx="253.246" cy="455.591" r="2.5" fill="rgb(114,114,114)" />
	<circle cx="126.292" cy="278.092" r="2.5" fill="rgb(113,113,113)" />
	<circle cx="289.308" cy="393.016" r="2.5" fill="rgb(107,107,107)" />
	<circle cx="112.288" cy="288.807" r="2.5" fill="rgb(107,107,107)" />
	<circle cx="413.101" cy="325.916" r="2.5" fill="rgb(106,106,106)" />
	<circle cx="341.81" cy="346.831" r="2.5" fill="rgb(106,106,106)" />
	<circle cx="331.514" cy="394.29" r="2.5" fill="rgb(106,106,106)" />
	<circle cx="294.505" cy="348.741" r="2.5" fill="rgb(105,105,105)" />
	<circle cx="319.022" cy="334.653" r="2.5" fill="rgb(100,100,100)" />
	<circle cx="197.656" cy="308.343" r="2.5" fill="rgb(100,100,100)" />
	<circle cx="284.689" cy="340.956" r="2.5" fill="rgb(100,100,100)" />
	<circle cx="405.827" cy="331.675" r="2.5" fill="rgb(100,100,100)" />
	<circle cx="133.578" cy="309.297" r="2.5" fill="rgb(99,99,99)" />
	<circle cx="495.035" cy="414.84" r="2.5" fill="rgb(98,98,98)" />
	<circle cx="294.706" cy="359.795" r="2.5" fill="rgb(97,97,97)" />
	<circle cx="341.976" cy="335.77" r="2.5" fill="rgb(97,97,97)" />
	<circle cx="45.1708" cy="367.593" r="2.5" fill="rgb(96,96,96)" />
	<circle cx="320.935" cy="405.732" r="2.5" fill="rgb(96,96,96)" />
	<circle cx="226.487" cy="377.478" r="2.5" fill="rgb(95,95,95)" />
	<circle cx="190.482" cy="338.156" r="2.5" fill="rgb(94,94,94)" />
	<circle cx="188.066" cy="328.679" r="2.5" fill="rgb(94,94,94)" />
	<circle cx="188.081" cy="317.439" r="2.5" fill="rgb(94,94,94)" />
	<circle cx="188.911" cy="313.683" r="2.5" fill="rgb(94,94,94)" />
	<circle cx="190.926" cy="308.559" r="2.5" fill="rgb(94,94,94)" />
	<circle cx="65.2099" cy="395.642" r="2.5" fill="rgb(94,94,94)" />
	<circle cx="211.195" cy="329.83" r="2.5" fill="rgb(94,94,94)" />
	<circle cx="401.915" cy="337.972" r="2.5" fill="rgb(93,93,93)" />
	<circle cx="377.85" cy="337.486" r="2.5" fill="rgb(93,93,93)" />
	<circle cx="279.709" cy="354.807" r="2.5" fill="rgb(90,90,90)" />
	<circle cx="265.7" cy="372.013" r="2.5" fill="rgb(89,89,89)" />
	<circle cx="382.517" cy="339.345" r="2.5" fill="rgb(89,89,89)" />
	<circle cx="251.908" cy="303.297" r="2.5" fill="rgb(89,89,89)" />
	<circle cx="146.139" cy="352.72" r="2.5" fill="rgb(88,88,88)" />
	<circle cx="167.039" cy="396.971" r="2.5" fill="rgb(87,87,87)" />
	<circle cx="220.36" cy="343.736" r="2.5" fill="rgb(87,87,87)" />
	<circle cx="402.771" cy="344.816" r="2.5" fill="rgb(87,87,87)" />
	<circle cx="326.706" cy="346.29" r="2.5" fill="rgb(86,86,86)" />
	<circle cx="322.609" cy="347.805" r="2.5" fill="rgb(86,86,86)" />
	<circle cx="220.666" cy="358.221" r="2.5" fill="rgb(79,79,79)" />
	<circle cx="270.395" cy="322.766" r="2.5" fill="rgb(78,78,78)" />
	<circle cx="385.943" cy="352.08" r="2.5" fill="rgb(78,78,78)" />
	<circle cx="207.653" cy="421.769" r="2.5" fill="rgb(76,76,76)" />
	<circle cx="202.689" cy="412.065" r="2.5" fill="rgb(76,76,76)" />
	<circle cx="220.272" cy="367.21" r="2.5" fill="rgb(74,74,74)" />
	<circle cx="235.528" cy="352.744" r="2.5" fill="rgb(73,73,73)" />
	<circle cx="41.203" cy="245.885" r="2.5" fill="rgb(72,72,72)" />
	<circle cx="308.093" cy="341.329" r="2.5" fill="rgb(67,67,67)" />
	<circle cx="171.149" cy="383.126" r="2.5" fill="rgb(65,65,65)" />
	<circle cx="56.1679" cy="265.43" r="2.5" fill="rgb(64,64,64)" />
	<circle cx="15.9535" cy="379.272" r="2.5" fill="rgb(62,62,62)" />
	<circle cx="21.7966" cy="262.23" r="2.5" fill="rgb(62,62,62)" />
	<circle cx="195.76" cy="444.271" r="2.5" fill="rgb(61,61,61)" />
	<circle cx="212.78" cy="359.027" r="2.5" fill="rgb(61,61,61)" />
	<circle cx="243.226" cy="438.868" r="2.5" fill="rgb(58,58,58)" />
	<circle cx="47.5409" cy="278.464" r="2.5" fill="rgb(58,58,58)" />
	<circle cx="0.836384" cy="397.873" r="2.5" fill="rgb(57,57,57)" />
	<circle cx="29.5493" cy="357.48" r="2.5" fill="rgb(57,57,57)" />
	<circle cx="239.954" cy="440.936" r="2.5" fill="rgb(57,57,57)" />
	<circle cx="269.839" cy="347.652" r="2.5" fill="rgb(57,57,57)" />
	<circle cx="24.509" cy="274.584" r="2.5" fill="rgb(57,57,57)" />
	<circle cx="37.8567" cy="361.775" r="2.5" fill="rgb(57,57,57)" />
	<circle cx="44.4991" cy="282.577" r="2.5" fill="rgb(56,56,56)" />
	<circle cx="184.861" cy="456.144" r="2.5" fill="rgb(55,55,55)" />
	<circle cx="46.8445" cy="376.17" r="2.5" fill="rgb(51,51,51)" />
	<circle cx="21.0126" cy="286.68" r="2.5" fill="rgb(51,51,51)" />
	<circle cx="200.55" cy="376.097" r="2.5" fill="rgb(51,51,51)" />
	<circle cx="26.0435" cy="381.735" r="2.5" fill="rgb(51,51,51)" />
	<circle cx="104.098" cy="490.153" r="2.5" fill="rgb(50,50,50)" />
	<circle cx="93.7165" cy="378.573" r="2.5" fill="rgb(48,48,48)" />
	<circle cx="250.471" cy="463.484" r="2.5" fill="rgb(48,48,48)" />
	<circle cx="251.321" cy="453.689" r="2.5" fill="rgb(48,48,48)" />
	<circle cx="114.382" cy="411.112" r="2.5" fill="rgb(47,47,47)" />
	<circle cx="13.023" cy="298.363" r="2.5" fill="rgb(46,46,46)" />
	<circle cx="260.319" cy="363.043" r="2.5" fill="rgb(46,46,46)" />
	<circle cx="273.35" cy="429.405" r="2.5" fill="rgb(46,46,46)" />
	<circle cx="301.84" cy="428.159" r="2.5" fill="rgb(46,46,46)" />
	<circle cx="19.9884" cy="393.15" r="2.5" fill="rgb(45,45,45)" />
	<circle cx="162.647" cy="471.19" r="2.5" fill="rgb(45,45,45)" />
	<circle cx="71.9445" cy="423.892" r="2.5" fill="rgb(44,44,44)" />
	<circle cx="292.513" cy="431.302" r="2.5" fill="rgb(43,43,43)" />
	<circle cx="168.682" cy="425.533" r="2.5" fill="rgb(42,42,42)" />
	<circle cx="309.221" cy="433.501" r="2.5" fill="rgb(42,42,42)" />
	<circle cx="27.222" cy="402.75" r="2.5" fill="rgb(41,41,41)" />
	<circle cx="5.78318" cy="310.732" r="2.5" fill="rgb(41,41,41)" />
	<circle cx="26.9666" cy="402.617" r="2.5" fill="rgb(40,40,40)" />
	<circle cx="190.349" cy="402.955" r="2.5" fill="rgb(40,40,40)" />
	<circle cx="192.198" cy="392.569" r="2.5" fill="rgb(40,40,40)" />
	<circle cx="5.92614" cy="322.777" r="2.5" fill="rgb(36,36,36)" />
	<circle cx="174.573" cy="430.402" r="2.5" fill="rgb(36,36,36)" />
	<circle cx="173.099" cy="424.774" r="2.5" fill="rgb(36,36,36)" />
	<circle cx="291.802" cy="440.82" r="2.5" fill="rgb(36,36,36)" />
	<circle cx="250.754" cy="378.978" r="2.5" fill="rgb(35,35,35)" />
	<circle cx="192.478" cy="436.235" r="2.5" fill="rgb(35,35,35)" />
	<circle cx="185.945" cy="423.659" r="2.5" fill="rgb(35,35,35)" />
	<circle cx="129.058" cy="368.534" r="2.5" fill="rgb(33,33,33)" />
	<circle cx="94.9863" cy="402.487" r="2.5" fill="rgb(33,33,33)" />
	<circle cx="78.3755" cy="337.508" r="2.5" fill="rgb(32,32,32)" />
	<circle cx="243.658" cy="386.927" r="2.5" fill="rgb(30,30,30)" />
	<circle cx="41.3807" cy="332.908" r="2.5" fill="rgb(29,29,29)" />
	<circle cx="63.0038" cy="412.049" r="2.5" fill="rgb(28,28,28)" />
	<circle cx="66.0358" cy="346.628" r="2.5" fill="rgb(27,27,27)" />
	<circle cx="79.4612" cy="417.194" r="2.5" fill="rgb(26,26,26)" />
	<circle cx="34.5152" cy="412.956" r="2.5" fill="rgb(26,26,26)" />
	<circle cx="1.44669" cy="446.088" r="2.5" fill="rgb(26,26,26)" />
	<circle cx="89.2902" cy="420.645" r="2.5" fill="rgb(26,26,26)" />
	<circle cx="57.8021" cy="423.22" r="2.5" fill="rgb(25,25,25)" />
	<circle cx="196.268" cy="379.231" r="2.5" fill="rgb(25,25,25)" />
	<circle cx="20.1628" cy="458.579" r="2.5" fill="rgb(24,24,24)" />
	<circle cx="20.3428" cy="426.212" r="2.5" fill="rgb(23,23,23)" />
	<circle cx="41.5099" cy="349.601" r="2.5" fill="rgb(23,23,23)" />
	<circle cx="4.80583" cy="453.932" r="2.5" fill="rgb(21,21,21)" />
	<circle cx="33.2643" cy="354.383" r="2.5" fill="rgb(21,21,21)" />
	<circle cx="70.8825" cy="437.294" r="2.5" fill="rgb(20,20,20)" />
	<circle cx="46.7207" cy="371.062" r="2.5" fill="rgb(16,16,16)" />
	<circle cx="41.548" cy="411.723" r="2.5" fill="rgb(16,16,16)" />
	<circle cx="35.2926" cy="414.542" r="2.5" fill="rgb(15,15,15)" />
	<circle cx="130.964" cy="382.962" r="2.5" fill="rgb(15,15,15)" />
	<circle cx="73.3286" cy="372.204" r="2.5" fill="rgb(15,15,15)" />
	<circle cx="30.1622" cy="420.21" r="2.5" fill="rgb(11,11,11)" />
	<circle cx="39.1654" cy="431.078" r="2.5" fill="rgb(11,11,11)" />
	<circle cx="33.7362" cy="426.256" r="2.5" fill="rgb(9,9,9)" />
	<circle cx="19.1277" cy="437.841" r="2.5" fill="rgb(9,9,9)" />
	<circle cx="87.2425" cy="394.795" r="2.5" fill="rgb(7,7,7)" />
	<circle cx="10.2797" cy="452.686" r="2.5" fill="rgb(5,5,5)" />
	<circle cx="27.9295" cy="422.543" r="2.5" fill="rgb(4,4,4)" />
	<circle cx="20.2058" cy="446.196" r="2.5" fill="rgb(4,4,4)" />
	<circle cx="83.3333" cy="416.667" r="2" fill="rgb(255,0,0)" />
	<circle cx="416.667" cy="83.3333" r="2" fill="rgb(0,255,0)" />
	<circle cx="83.3333" cy="416.667" r="2" fill="rgb(0,255,0)" />
	<circle cx="104.596" cy="394.473" r="2" fill="rgb(0,255,0)" />
	<circle cx="84.645" cy="370.272" r="2" fill="rgb(0,255,0)" />
	<circle cx="17.4637" cy="350.351" r="2" fill="rgb(0,255,0)" />
	<circle cx="23.9677" cy="328.299" r="2" fill="rgb(0,255,0)" />
	<circle cx="22.1121" cy="306.363" r="2" fill="rgb(0,255,0)" />
	<circle cx="17.2971" cy="287.822" r="2" fill="rgb(0,255,0)" />
	<circle cx="5.82003" cy="272.411" r="2" fill="rgb(0,255,0)" />
	<circle cx="58.3814" cy="276.873" r="2" fill="rgb(0,255,0)" />
	<circle cx="72.5086" cy="267.637" r="2" fill="rgb(0,255,0)" />
	<circle cx="79.7713" cy="252.55" r="2" fill="rgb(0,255,0)" />
	<circle cx="68.1936" cy="236.874" r="2" fill="rgb(0,255,0)" />
	<circle cx="79.6932" cy="225.366" r="2" fill="rgb(0,255,0)" />
	<circle cx="54.8338" cy="211.404" r="2" fill="rgb(0,255,0)" />
	<circle cx="44.3241" cy="199.28" r="2" fill="rgb(0,255,0)" />
	<circle cx="132.334" cy="217.039" r="2" fill="rgb(0,255,0)" />
	<circle cx="147.78" cy="210.766" r="2" fill="rgb(0,255,0)" />
	<circle cx="140.784" cy="192.951" r="2" fill="rgb(0,255,0)" />
	<circle cx="192.599" cy="217.96" r="2" fill="rgb(0,255,0)" />
	<circle cx="197.989" cy="208.827" r="2" fill="rgb(0,255,0)" />
	<circle cx="243.855" cy="219.729" r="2" fill="rgb(0,255,0)" />
	<circle cx="252.804" cy="209.62" r="2" fill="rgb(0,255,0)" />
	<circle cx="297.652" cy="214.255" r="2" fill="rgb(0,255,0)" />
	<circle cx="290.411" cy="202.477" r="2" fill="rgb(0,255,0)" />
	<circle cx="297.105" cy="197.115" r="2" fill="rgb(0,255,0)" />
	<circle cx="303.152" cy="191.542" r="2" fill="rgb(0,255,0)" />
	<circle cx="341.236" cy="193.334" r="2" fill="rgb(0,255,0)" />
	<circle cx="359.881" cy="183.689" r="2" fill="rgb(0,255,0)" />
	<circle cx="411.426" cy="187.737" r="2" fill="rgb(0,255,0)" />
	<circle cx="413.545" cy="175.043" r="2" fill="rgb(0,255,0)" />
	<circle cx="411.579" cy="166.743" r="2" fill="rgb(0,255,0)" />
	<circle cx="427.5" cy="152.09" r="2" fill="rgb(0,255,0)" />
	<circle cx="431.148" cy="140.989" r="2" fill="rgb(0,255,0)" />
	<circle cx="428.273" cy="130.27" r="2" fill="rgb(0,255,0)" />
	<circle cx="434.779" cy="117.665" r="2" fill="rgb(0,255,0)" />
	<circle cx="427.2" cy="104.028" r="2" fill="rgb(0,255,0)" />
	<circle cx="419.994" cy="88.4653" r="2" fill="rgb(0,255,0)" />
</svg>
