<?xml version="1.0" standalone="no" ?>
<!DOCTYPE svg PUBLIC "-//W3C//DTD SVG 1.1//EN" "http://www.w3.org/Graphics/SVG/1.1/DTD/svg11.dtd">
<svg width="500px" height="500px" xmlns="http://www.w3.org/2000/svg" version="1.1" >
	<circle cx="340.926" cy="19.075" r="2.5" fill="rgb(255,255,255)" />
	<circle cx="355.127" cy="27.5161" r="2.5" fill="rgb(244,244,244)" />
	<circle cx="349.527" cy="36.7168" r="2.5" fill="rgb(228,228,228)" />
	<circle cx="389.784" cy="38.6304" r="2.5" fill="rgb(220,220,220)" />
	<circle cx="378.879" cy="52.5093" r="2.5" fill="rgb(204,204,204)" />
	<circle cx="462.124" cy="30.4367" r="2.5" fill="rgb(198,198,198)" />
	<circle cx="489.453" cy="194.578" r="2.5" fill="rgb(197,197,197)" />
	<circle cx="487.039" cy="150.952" r="2.5" fill="rgb(192,192,192)" />
	<circle cx="416.797" cy="54.7108" r="2.5" fill="rgb(189,189,189)" />
	<circle cx="411.409" cy="57.0523" r="2.5" fill="rgb(189,189,189)" />
	<circle cx="495.504" cy="119.308" r="2.5" fill="rgb(189,189,189)" />
	<circle cx="369.928" cy="67.0644" r="2.5" fill="rgb(186,186,186)" />
	<circle cx="446.835" cy="204.837" r="2.5" fill="rgb(185,185,185)" />
	<circle cx="408.106" cy="208.15" r="2.5" fill="rgb(185,185,185)" />
	<circle cx="360.239" cy="176.543" r="2.5" fill="rgb(185,185,185)" />
	<circle cx="409.398" cy="63.88" r="2.5" fill="rgb(185,185,185)" />
	<circle cx="467.275" cy="52.4844" r="2.5" fill="rgb(180,180,180)" />
	<circle cx="453.564" cy="66.7768" r="2.5" fill="rgb(178,178,178)" />
	<circle cx="373.116" cy="77.255" r="2.5" fill="rgb(177,177,177)" />
	<circle cx="372.781" cy="146.343" r="2.5" fill="rgb(176,176,176)" />
	<circle cx="487.073" cy="166.953" r="2.5" fill="rgb(175,175,175)" />
	<circle cx="417.892" cy="74.6051" r="2.5" fill="rgb(174,174,174)" />
	<circle cx="425.137" cy="223.457" r="2.5" fill="rgb(173,173,173)" />
	<circle cx="412.699" cy="225.035" r="2.5" fill="rgb(173,173,173)" />
	<circle cx="346.19" cy="193.765" r="2.5" fill="rgb(173,173,173)" />
	<circle cx="428.074" cy="207.525" r="2.5" fill="rgb(173,173,173)" />
	<circle cx="369.868" cy="155.167" r="2.5" fill="rgb(169,169,169)" />
	<circle cx="448.709" cy="169.832" r="2.5" fill="rgb(169,169,169)" />
	<circle cx="454.957" cy="170.44" r="2.5" fill="rgb(166,166,166)" />
	<circle cx="488.859" cy="179.473" r="2.5" fill="rgb(166,166,166)" />
	<circle cx="405.152" cy="90.4389" r="2.5" fill="rgb(164,164,164)" />
	<circle cx="463.792" cy="78.7909" r="2.5" fill="rgb(164,164,164)" />
	<circle cx="459.373" cy="82.1953" r="2.5" fill="rgb(164,164,164)" />
	<circle cx="396.53" cy="254.712" r="2.5" fill="rgb(163,163,163)" />
	<circle cx="373.826" cy="218.078" r="2.5" fill="rgb(161,161,161)" />
	<circle cx="410.138" cy="161.458" r="2.5" fill="rgb(160,160,160)" />
	<circle cx="451.089" cy="185.879" r="2.5" fill="rgb(159,159,159)" />
	<circle cx="442.795" cy="180.356" r="2.5" fill="rgb(159,159,159)" />
	<circle cx="466.693" cy="84.3256" r="2.5" fill="rgb(158,158,158)" />
	<circle cx="451.496" cy="183.474" r="2.5" fill="rgb(158,158,158)" />
	<circle cx="434.553" cy="102.239" r="2.5" fill="rgb(153,153,153)" />
	<circle cx="413.981" cy="105.435" r="2.5" fill="rgb(152,152,152)" />
	<circle cx="411.023" cy="172.999" r="2.5" fill="rgb(152,152,152)" />
	<circle cx="464.995" cy="98.0393" r="2.5" fill="rgb(149,149,149)" />
	<circle cx="454.874" cy="200.861" r="2.5" fill="rgb(148,148,148)" />
	<circle cx="399.497" cy="184.254" r="2.5" fill="rgb(143,143,143)" />
	<circle cx="442.348" cy="115.922" r="2.5" fill="rgb(141,141,141)" />
	<circle cx="415.197" cy="121.735" r="2.5" fill="rgb(141,141,141)" />
	<circle cx="417.456" cy="194.249" r="2.5" fill="rgb(139,139,139)" />
	<circle cx="10.6028" cy="21.7424" r="2.5" fill="rgb(138,138,138)" />
	<circle cx="107.53" cy="45.0468" r="2.5" fill="rgb(135,135,135)" />
	<circle cx="406.325" cy="200.621" r="2.5" fill="rgb(133,133,133)" />
	<circle cx="117.771" cy="27.9419" r="2.5" fill="rgb(133,133,133)" />
	<circle cx="186.906" cy="181.404" r="2.5" fill="rgb(132,132,132)" />
	<circle cx="112.527" cy="236.957" r="2.5" fill="rgb(132,132,132)" />
	<circle cx="21.1923" cy="28.0268" r="2.5" fill="rgb(132,132,132)" />
	<circle cx="418.996" cy="205.441" r="2.5" fill="rgb(132,132,132)" />
	<circle cx="151.93" cy="167.271" r="2.5" fill="rgb(131,131,131)" />
	<circle cx="123.878" cy="38.3904" r="2.5" fill="rgb(129,129,129)" />
	<circle cx="431.013" cy="135.653" r="2.5" fill="rgb(129,129,129)" />
	<circle cx="124.822" cy="122.127" r="2.5" fill="rgb(128,128,128)" />
	<circle cx="212.223" cy="163.988" r="2.5" fill="rgb(128,128,128)" />
	<circle cx="88.339" cy="90.5544" r="2.5" fill="rgb(127,127,127)" />
	<circle cx="28.4301" cy="36.227" r="2.5" fill="rgb(125,125,125)" />
	<circle cx="135.022" cy="158.307" r="2.5" fill="rgb(125,125,125)" />
	<circle cx="327.442" cy="33.2977" r="2.5" fill="rgb(125,125,125)" />
	<circle cx="409.587" cy="214.853" r="2.5" fill="rgb(124,124,124)" />
	<circle cx="218.278" cy="30.0384" r="2.5" fill="rgb(124,124,124)" />
	<circle cx="6.3436" cy="86.924" r="2.5" fill="rgb(123,123,123)" />
	<circle cx="330.816" cy="205.563" r="2.5" fill="rgb(121,121,121)" />
	<circle cx="318.332" cy="113.061" r="2.5" fill="rgb(120,120,120)" />
	<circle cx="313.962" cy="40.3646" r="2.5" fill="rgb(120,120,120)" />
	<circle cx="52.4196" cy="34.0977" r="2.5" fill="rgb(119,119,119)" />
	<circle cx="419.653" cy="146.831" r="2.5" fill="rgb(119,119,119)" />
	<circle cx="442.162" cy="148.693" r="2.5" fill="rgb(119,119,119)" />
	<circle cx="338.842" cy="188.557" r="2.5" fill="rgb(118,118,118)" />
	<circle cx="428.827" cy="152.32" r="2.5" fill="rgb(116,116,116)" />
	<circle cx="311.583" cy="119.607" r="2.5" fill="rgb(116,116,116)" />
	<circle cx="214.629" cy="173.438" r="2.5" fill="rgb(116,116,116)" />
	<circle cx="299.648" cy="48.9939" r="2.5" fill="rgb(115,115,115)" />
	<circle cx="327.557" cy="215.237" r="2.5" fill="rgb(115,115,115)" />
	<circle cx="61.3957" cy="38.6809" r="2.5" fill="rgb(114,114,114)" />
	<circle cx="406.013" cy="153.537" r="2.5" fill="rgb(114,114,114)" />
	<circle cx="337.158" cy="195.655" r="2.5" fill="rgb(114,114,114)" />
	<circle cx="157.45" cy="198.374" r="2.5" fill="rgb(112,112,112)" />
	<circle cx="308.477" cy="126.13" r="2.5" fill="rgb(112,112,112)" />
	<circle cx="320.249" cy="129.943" r="2.5" fill="rgb(112,112,112)" />
	<circle cx="395.029" cy="155.973" r="2.5" fill="rgb(112,112,112)" />
	<circle cx="180.163" cy="181.482" r="2.5" fill="rgb(111,111,111)" />
	<circle cx="293.803" cy="56.9818" r="2.5" fill="rgb(111,111,111)" />
	<circle cx="491.34" cy="238.8" r="2.5" fill="rgb(111,111,111)" />
	<circle cx="171.498" cy="38.6295" r="2.5" fill="rgb(111,111,111)" />
	<circle cx="204.062" cy="184.973" r="2.5" fill="rgb(110,110,110)" />
	<circle cx="221.014" cy="191.638" r="2.5" fill="rgb(110,110,110)" />
	<circle cx="234.075" cy="221.485" r="2.5" fill="rgb(110,110,110)" />
	<circle cx="219.721" cy="150.852" r="2.5" fill="rgb(110,110,110)" />
	<circle cx="188.836" cy="131.49" r="2.5" fill="rgb(109,109,109)" />
	<circle cx="414.148" cy="163.783" r="2.5" fill="rgb(109,109,109)" />
	<circle cx="174.159" cy="56.1599" r="2.5" fill="rgb(109,109,109)" />
	<circle cx="386.698" cy="160.072" r="2.5" fill="rgb(109,109,109)" />
	<circle cx="291.056" cy="63.469" r="2.5" fill="rgb(109,109,109)" />
	<circle cx="98.1108" cy="33.7739" r="2.5" fill="rgb(109,109,109)" />
	<circle cx="209.688" cy="287.982" r="2.5" fill="rgb(108,108,108)" />
	<circle cx="209.916" cy="77.6701" r="2.5" fill="rgb(108,108,108)" />
	<circle cx="173.894" cy="229.003" r="2.5" fill="rgb(107,107,107)" />
	<circle cx="247.776" cy="32.1212" r="2.5" fill="rgb(107,107,107)" />
	<circle cx="497.072" cy="249.926" r="2.5" fill="rgb(107,107,107)" />
	<circle cx="163.448" cy="50.4488" r="2.5" fill="rgb(107,107,107)" />
	<circle cx="170.09" cy="295.555" r="2.5" fill="rgb(106,106,106)" />
	<circle cx="149.027" cy="225.609" r="2.5" fill="rgb(106,106,106)" />
	<circle cx="282.006" cy="69.4198" r="2.5" fill="rgb(105,105,105)" />
	<circle cx="245.275" cy="38.8936" r="2.5" fill="rgb(105,105,105)" />
	<circle cx="103.631" cy="41.2637" r="2.5" fill="rgb(105,105,105)" />
	<circle cx="483.422" cy="252.974" r="2.5" fill="rgb(105,105,105)" />
	<circle cx="395.14" cy="168.792" r="2.5" fill="rgb(104,104,104)" />
	<circle cx="328.463" cy="148.129" r="2.5" fill="rgb(104,104,104)" />
	<circle cx="109.282" cy="41.4782" r="2.5" fill="rgb(104,104,104)" />
	<circle cx="200.133" cy="331.342" r="2.5" fill="rgb(104,104,104)" />
	<circle cx="281.035" cy="287.439" r="2.5" fill="rgb(104,104,104)" />
	<circle cx="172.668" cy="66.3858" r="2.5" fill="rgb(103,103,103)" />
	<circle cx="246.998" cy="173.058" r="2.5" fill="rgb(103,103,103)" />
	<circle cx="245.583" cy="51.1577" r="2.5" fill="rgb(102,102,102)" />
	<circle cx="153.485" cy="238.908" r="2.5" fill="rgb(102,102,102)" />
	<circle cx="176.782" cy="128.912" r="2.5" fill="rgb(101,101,101)" />
	<circle cx="221.906" cy="52.9779" r="2.5" fill="rgb(101,101,101)" />
	<circle cx="468.856" cy="258.789" r="2.5" fill="rgb(101,101,101)" />
	<circle cx="234.87" cy="64.5883" r="2.5" fill="rgb(101,101,101)" />
	<circle cx="184.301" cy="29.8355" r="2.5" fill="rgb(101,101,101)" />
	<circle cx="275.944" cy="294.326" r="2.5" fill="rgb(100,100,100)" />
	<circle cx="469.708" cy="261.992" r="2.5" fill="rgb(99,99,99)" />
	<circle cx="487.083" cy="450.198" r="2.5" fill="rgb(99,99,99)" />
	<circle cx="109.87" cy="54.0733" r="2.5" fill="rgb(99,99,99)" />
	<circle cx="410.597" cy="455.711" r="2.5" fill="rgb(99,99,99)" />
	<circle cx="282.469" cy="404.884" r="2.5" fill="rgb(99,99,99)" />
	<circle cx="203.336" cy="48.0883" r="2.5" fill="rgb(99,99,99)" />
	<circle cx="261.201" cy="107.415" r="2.5" fill="rgb(99,99,99)" />
	<circle cx="231.127" cy="54.4478" r="2.5" fill="rgb(99,99,99)" />
	<circle cx="235.339" cy="57.4573" r="2.5" fill="rgb(99,99,99)" />
	<circle cx="227.663" cy="70.2371" r="2.5" fill="rgb(98,98,98)" />
	<circle cx="221.589" cy="128.502" r="2.5" fill="rgb(98,98,98)" />
	<circle cx="337.764" cy="163.107" r="2.5" fill="rgb(98,98,98)" />
	<circle cx="182.434" cy="40.0311" r="2.5" fill="rgb(98,98,98)" />
	<circle cx="364.487" cy="173.424" r="2.5" fill="rgb(98,98,98)" />
	<circle cx="194.001" cy="41.5729" r="2.5" fill="rgb(97,97,97)" />
	<circle cx="493.437" cy="270.677" r="2.5" fill="rgb(97,97,97)" />
	<circle cx="258.913" cy="193.081" r="2.5" fill="rgb(97,97,97)" />
	<circle cx="227.048" cy="67.6636" r="2.5" fill="rgb(95,95,95)" />
	<circle cx="187.655" cy="57.2951" r="2.5" fill="rgb(95,95,95)" />
	<circle cx="280.054" cy="414.52" r="2.5" fill="rgb(95,95,95)" />
	<circle cx="332.079" cy="312.827" r="2.5" fill="rgb(95,95,95)" />
	<circle cx="437.261" cy="277.442" r="2.5" fill="rgb(94,94,94)" />
	<circle cx="185.741" cy="133.219" r="2.5" fill="rgb(94,94,94)" />
	<circle cx="205.992" cy="136.005" r="2.5" fill="rgb(94,94,94)" />
	<circle cx="496.647" cy="278.327" r="2.5" fill="rgb(93,93,93)" />
	<circle cx="455.95" cy="271.905" r="2.5" fill="rgb(93,93,93)" />
	<circle cx="341.422" cy="174.822" r="2.5" fill="rgb(93,93,93)" />
	<circle cx="348.62" cy="464.702" r="2.5" fill="rgb(93,93,93)" />
	<circle cx="228.684" cy="78.2479" r="2.5" fill="rgb(92,92,92)" />
	<circle cx="239.148" cy="85.2179" r="2.5" fill="rgb(92,92,92)" />
	<circle cx="354.02" cy="236.074" r="2.5" fill="rgb(92,92,92)" />
	<circle cx="152.24" cy="196.393" r="2.5" fill="rgb(92,92,92)" />
	<circle cx="168.788" cy="122.345" r="2.5" fill="rgb(92,92,92)" />
	<circle cx="71.0236" cy="404.64" r="2.5" fill="rgb(92,92,92)" />
	<circle cx="371.476" cy="240.716" r="2.5" fill="rgb(92,92,92)" />
	<circle cx="454.084" cy="459.629" r="2.5" fill="rgb(91,91,91)" />
	<circle cx="375.542" cy="461.586" r="2.5" fill="rgb(91,91,91)" />
	<circle cx="499.48" cy="284.909" r="2.5" fill="rgb(90,90,90)" />
	<circle cx="436.462" cy="284.358" r="2.5" fill="rgb(90,90,90)" />
	<circle cx="198.248" cy="311.323" r="2.5" fill="rgb(90,90,90)" />
	<circle cx="353.884" cy="388.827" r="2.5" fill="rgb(90,90,90)" />
	<circle cx="316.073" cy="259.004" r="2.5" fill="rgb(90,90,90)" />
	<circle cx="229.071" cy="90.8862" r="2.5" fill="rgb(89,89,89)" />
	<circle cx="229.811" cy="91.3934" r="2.5" fill="rgb(89,89,89)" />
	<circle cx="378.704" cy="402.87" r="2.5" fill="rgb(89,89,89)" />
	<circle cx="170.08" cy="132.337" r="2.5" fill="rgb(89,89,89)" />
	<circle cx="297.167" cy="163.181" r="2.5" fill="rgb(88,88,88)" />
	<circle cx="227.152" cy="95.076" r="2.5" fill="rgb(88,88,88)" />
	<circle cx="356.355" cy="245.445" r="2.5" fill="rgb(88,88,88)" />
	<circle cx="95.8207" cy="271.293" r="2.5" fill="rgb(87,87,87)" />
	<circle cx="461.403" cy="283.832" r="2.5" fill="rgb(87,87,87)" />
	<circle cx="159.065" cy="216.267" r="2.5" fill="rgb(87,87,87)" />
	<circle cx="226.878" cy="126.355" r="2.5" fill="rgb(87,87,87)" />
	<circle cx="260.28" cy="275.636" r="2.5" fill="rgb(87,87,87)" />
	<circle cx="272.862" cy="311.358" r="2.5" fill="rgb(87,87,87)" />
	<circle cx="272.411" cy="309.696" r="2.5" fill="rgb(87,87,87)" />
	<circle cx="56.4961" cy="430.031" r="2.5" fill="rgb(86,86,86)" />
	<circle cx="380.006" cy="252.413" r="2.5" fill="rgb(86,86,86)" />
	<circle cx="126.479" cy="168.94" r="2.5" fill="rgb(86,86,86)" />
	<circle cx="48.1675" cy="167.478" r="2.5" fill="rgb(86,86,86)" />
	<circle cx="482.369" cy="291.056" r="2.5" fill="rgb(86,86,86)" />
	<circle cx="456.93" cy="286.231" r="2.5" fill="rgb(86,86,86)" />
	<circle cx="373.569" cy="409.616" r="2.5" fill="rgb(85,85,85)" />
	<circle cx="216.264" cy="100.764" r="2.5" fill="rgb(85,85,85)" />
	<circle cx="184.246" cy="85.3578" r="2.5" fill="rgb(85,85,85)" />
	<circle cx="275.715" cy="216.964" r="2.5" fill="rgb(85,85,85)" />
	<circle cx="283.168" cy="165.4" r="2.5" fill="rgb(85,85,85)" />
	<circle cx="218.076" cy="164.939" r="2.5" fill="rgb(85,85,85)" />
	<circle cx="155.698" cy="370.768" r="2.5" fill="rgb(85,85,85)" />
	<circle cx="155.154" cy="370.662" r="2.5" fill="rgb(85,85,85)" />
	<circle cx="90.4437" cy="285.039" r="2.5" fill="rgb(85,85,85)" />
	<circle cx="357.055" cy="398.891" r="2.5" fill="rgb(84,84,84)" />
	<circle cx="212.058" cy="104.221" r="2.5" fill="rgb(84,84,84)" />
	<circle cx="421.062" cy="369.348" r="2.5" fill="rgb(84,84,84)" />
	<circle cx="275.033" cy="165.272" r="2.5" fill="rgb(84,84,84)" />
	<circle cx="406.025" cy="468.342" r="2.5" fill="rgb(84,84,84)" />
	<circle cx="41.5565" cy="337.602" r="2.5" fill="rgb(83,83,83)" />
	<circle cx="157.093" cy="213.85" r="2.5" fill="rgb(83,83,83)" />
	<circle cx="383.013" cy="389.111" r="2.5" fill="rgb(83,83,83)" />
	<circle cx="156.476" cy="226.182" r="2.5" fill="rgb(83,83,83)" />
	<circle cx="267.994" cy="222.217" r="2.5" fill="rgb(83,83,83)" />
	<circle cx="104.764" cy="253.568" r="2.5" fill="rgb(82,82,82)" />
	<circle cx="208.005" cy="108.627" r="2.5" fill="rgb(82,82,82)" />
	<circle cx="137.827" cy="228.335" r="2.5" fill="rgb(82,82,82)" />
	<circle cx="50.0918" cy="259.003" r="2.5" fill="rgb(82,82,82)" />
	<circle cx="80.9114" cy="177.575" r="2.5" fill="rgb(82,82,82)" />
	<circle cx="458.018" cy="293.296" r="2.5" fill="rgb(82,82,82)" />
	<circle cx="241.039" cy="141.801" r="2.5" fill="rgb(82,82,82)" />
	<circle cx="145.599" cy="379.814" r="2.5" fill="rgb(82,82,82)" />
	<circle cx="217.406" cy="175.495" r="2.5" fill="rgb(82,82,82)" />
	<circle cx="133.592" cy="213.294" r="2.5" fill="rgb(82,82,82)" />
	<circle cx="121.396" cy="186.885" r="2.5" fill="rgb(82,82,82)" />
	<circle cx="435.572" cy="291.429" r="2.5" fill="rgb(81,81,81)" />
	<circle cx="198.234" cy="369.56" r="2.5" fill="rgb(81,81,81)" />
	<circle cx="376.264" cy="261.811" r="2.5" fill="rgb(81,81,81)" />
	<circle cx="308.374" cy="185.574" r="2.5" fill="rgb(81,81,81)" />
	<circle cx="125.66" cy="178.341" r="2.5" fill="rgb(81,81,81)" />
	<circle cx="457.407" cy="296.078" r="2.5" fill="rgb(81,81,81)" />
	<circle cx="320.837" cy="461.451" r="2.5" fill="rgb(81,81,81)" />
	<circle cx="266.559" cy="344.199" r="2.5" fill="rgb(80,80,80)" />
	<circle cx="181.551" cy="102.224" r="2.5" fill="rgb(80,80,80)" />
	<circle cx="88.0333" cy="407.802" r="2.5" fill="rgb(80,80,80)" />
	<circle cx="291.454" cy="340.335" r="2.5" fill="rgb(80,80,80)" />
	<circle cx="81.9472" cy="267.873" r="2.5" fill="rgb(80,80,80)" />
	<circle cx="223.362" cy="210.305" r="2.5" fill="rgb(80,80,80)" />
	<circle cx="446.872" cy="295.679" r="2.5" fill="rgb(80,80,80)" />
	<circle cx="314.08" cy="346.394" r="2.5" fill="rgb(80,80,80)" />
	<circle cx="249.146" cy="135.419" r="2.5" fill="rgb(80,80,80)" />
	<circle cx="243.029" cy="355.316" r="2.5" fill="rgb(80,80,80)" />
	<circle cx="242.36" cy="220.419" r="2.5" fill="rgb(79,79,79)" />
	<circle cx="226.61" cy="448.614" r="2.5" fill="rgb(79,79,79)" />
	<circle cx="91.6429" cy="189.104" r="2.5" fill="rgb(79,79,79)" />
	<circle cx="281.538" cy="180.857" r="2.5" fill="rgb(79,79,79)" />
	<circle cx="445.985" cy="296.932" r="2.5" fill="rgb(79,79,79)" />
	<circle cx="163.888" cy="466.772" r="2.5" fill="rgb(79,79,79)" />
	<circle cx="169.056" cy="466.472" r="2.5" fill="rgb(79,79,79)" />
	<circle cx="136.847" cy="253.377" r="2.5" fill="rgb(79,79,79)" />
	<circle cx="251.569" cy="140.475" r="2.5" fill="rgb(79,79,79)" />
	<circle cx="112.553" cy="404.029" r="2.5" fill="rgb(79,79,79)" />
	<circle cx="122.366" cy="383.697" r="2.5" fill="rgb(79,79,79)" />
	<circle cx="474.361" cy="380.081" r="2.5" fill="rgb(79,79,79)" />
	<circle cx="444.166" cy="376.728" r="2.5" fill="rgb(79,79,79)" />
	<circle cx="44.647" cy="136.942" r="2.5" fill="rgb(79,79,79)" />
	<circle cx="13.0024" cy="286.517" r="2.5" fill="rgb(78,78,78)" />
	<circle cx="209.01" cy="172.694" r="2.5" fill="rgb(78,78,78)" />
	<circle cx="217.058" cy="361.431" r="2.5" fill="rgb(78,78,78)" />
	<circle cx="179.044" cy="110.47" r="2.5" fill="rgb(78,78,78)" />
	<circle cx="350.006" cy="341.28" r="2.5" fill="rgb(78,78,78)" />
	<circle cx="206.481" cy="191.774" r="2.5" fill="rgb(78,78,78)" />
	<circle cx="112.017" cy="295.951" r="2.5" fill="rgb(78,78,78)" />
	<circle cx="66.4044" cy="271.583" r="2.5" fill="rgb(78,78,78)" />
	<circle cx="47.2512" cy="137.925" r="2.5" fill="rgb(78,78,78)" />
	<circle cx="39.429" cy="139.455" r="2.5" fill="rgb(78,78,78)" />
	<circle cx="71.2895" cy="135.881" r="2.5" fill="rgb(78,78,78)" />
	<circle cx="133.67" cy="405.878" r="2.5" fill="rgb(78,78,78)" />
	<circle cx="202.045" cy="138.57" r="2.5" fill="rgb(78,78,78)" />
	<circle cx="244.161" cy="419.774" r="2.5" fill="rgb(77,77,77)" />
	<circle cx="349.755" cy="342.711" r="2.5" fill="rgb(77,77,77)" />
	<circle cx="224.986" cy="219.872" r="2.5" fill="rgb(77,77,77)" />
	<circle cx="144.658" cy="355.462" r="2.5" fill="rgb(77,77,77)" />
	<circle cx="355.194" cy="316.083" r="2.5" fill="rgb(77,77,77)" />
	<circle cx="80.6277" cy="294.032" r="2.5" fill="rgb(77,77,77)" />
	<circle cx="94.5877" cy="288.3" r="2.5" fill="rgb(77,77,77)" />
	<circle cx="11.856" cy="150.691" r="2.5" fill="rgb(77,77,77)" />
	<circle cx="70.3941" cy="282.239" r="2.5" fill="rgb(77,77,77)" />
	<circle cx="106.391" cy="264.953" r="2.5" fill="rgb(77,77,77)" />
	<circle cx="159.703" cy="386.247" r="2.5" fill="rgb(76,76,76)" />
	<circle cx="95.2224" cy="354.615" r="2.5" fill="rgb(76,76,76)" />
	<circle cx="205.759" cy="218.5" r="2.5" fill="rgb(76,76,76)" />
	<circle cx="436.726" cy="301.042" r="2.5" fill="rgb(76,76,76)" />
	<circle cx="446.906" cy="302.676" r="2.5" fill="rgb(76,76,76)" />
	<circle cx="198.832" cy="195.706" r="2.5" fill="rgb(76,76,76)" />
	<circle cx="242.844" cy="314.812" r="2.5" fill="rgb(76,76,76)" />
	<circle cx="267.585" cy="184.19" r="2.5" fill="rgb(76,76,76)" />
	<circle cx="280.472" cy="188.974" r="2.5" fill="rgb(76,76,76)" />
	<circle cx="293.94" cy="194.063" r="2.5" fill="rgb(76,76,76)" />
	<circle cx="83.0176" cy="214.963" r="2.5" fill="rgb(76,76,76)" />
	<circle cx="118.609" cy="207.644" r="2.5" fill="rgb(76,76,76)" />
	<circle cx="189.502" cy="266.58" r="2.5" fill="rgb(76,76,76)" />
	<circle cx="229.803" cy="229.423" r="2.5" fill="rgb(75,75,75)" />
	<circle cx="165.163" cy="477.026" r="2.5" fill="rgb(75,75,75)" />
	<circle cx="235.049" cy="144.908" r="2.5" fill="rgb(75,75,75)" />
	<circle cx="398.506" cy="380.457" r="2.5" fill="rgb(75,75,75)" />
	<circle cx="160.412" cy="149.087" r="2.5" fill="rgb(75,75,75)" />
	<circle cx="218.12" cy="459.812" r="2.5" fill="rgb(75,75,75)" />
	<circle cx="311.846" cy="356.846" r="2.5" fill="rgb(75,75,75)" />
	<circle cx="278.388" cy="351.157" r="2.5" fill="rgb(75,75,75)" />
	<circle cx="185.327" cy="128.272" r="2.5" fill="rgb(75,75,75)" />
	<circle cx="314.793" cy="472.489" r="2.5" fill="rgb(75,75,75)" />
	<circle cx="28.9327" cy="321.518" r="2.5" fill="rgb(75,75,75)" />
	<circle cx="124.374" cy="285.522" r="2.5" fill="rgb(75,75,75)" />
	<circle cx="439.655" cy="304.238" r="2.5" fill="rgb(75,75,75)" />
	<circle cx="290.427" cy="195.859" r="2.5" fill="rgb(75,75,75)" />
	<circle cx="126.475" cy="230.413" r="2.5" fill="rgb(74,74,74)" />
	<circle cx="194.164" cy="245.366" r="2.5" fill="rgb(74,74,74)" />
	<circle cx="289.097" cy="196.936" r="2.5" fill="rgb(74,74,74)" />
	<circle cx="94.7545" cy="292.799" r="2.5" fill="rgb(74,74,74)" />
	<circle cx="87.5117" cy="323.615" r="2.5" fill="rgb(74,74,74)" />
	<circle cx="149.139" cy="124.384" r="2.5" fill="rgb(74,74,74)" />
	<circle cx="320.839" cy="473.665" r="2.5" fill="rgb(74,74,74)" />
	<circle cx="132.249" cy="259.783" r="2.5" fill="rgb(74,74,74)" />
	<circle cx="193.798" cy="202.946" r="2.5" fill="rgb(74,74,74)" />
	<circle cx="216.475" cy="375.931" r="2.5" fill="rgb(73,73,73)" />
	<circle cx="223.997" cy="435.923" r="2.5" fill="rgb(73,73,73)" />
	<circle cx="201.835" cy="228.147" r="2.5" fill="rgb(73,73,73)" />
	<circle cx="192.378" cy="166.412" r="2.5" fill="rgb(73,73,73)" />
	<circle cx="308.187" cy="422.161" r="2.5" fill="rgb(73,73,73)" />
	<circle cx="286.512" cy="199.134" r="2.5" fill="rgb(73,73,73)" />
	<circle cx="175.501" cy="146.199" r="2.5" fill="rgb(73,73,73)" />
	<circle cx="216.705" cy="232.909" r="2.5" fill="rgb(73,73,73)" />
	<circle cx="244.608" cy="323.753" r="2.5" fill="rgb(73,73,73)" />
	<circle cx="130.096" cy="212.419" r="2.5" fill="rgb(73,73,73)" />
	<circle cx="339.046" cy="323.267" r="2.5" fill="rgb(72,72,72)" />
	<circle cx="341.336" cy="351.819" r="2.5" fill="rgb(72,72,72)" />
	<circle cx="224.696" cy="151.668" r="2.5" fill="rgb(72,72,72)" />
	<circle cx="241.58" cy="431.918" r="2.5" fill="rgb(72,72,72)" />
	<circle cx="168.551" cy="156.392" r="2.5" fill="rgb(72,72,72)" />
	<circle cx="42.4104" cy="343.619" r="2.5" fill="rgb(72,72,72)" />
	<circle cx="257.996" cy="380.487" r="2.5" fill="rgb(72,72,72)" />
	<circle cx="40.4317" cy="152.29" r="2.5" fill="rgb(72,72,72)" />
	<circle cx="243.499" cy="437.352" r="2.5" fill="rgb(72,72,72)" />
	<circle cx="155.103" cy="488.198" r="2.5" fill="rgb(72,72,72)" />
	<circle cx="106.951" cy="238.263" r="2.5" fill="rgb(72,72,72)" />
	<circle cx="263.713" cy="342.182" r="2.5" fill="rgb(72,72,72)" />
	<circle cx="80.0229" cy="306.739" r="2.5" fill="rgb(72,72,72)" />
	<circle cx="358.642" cy="394.186" r="2.5" fill="rgb(72,72,72)" />
	<circle cx="287.235" cy="359.828" r="2.5" fill="rgb(71,71,71)" />
	<circle cx="284.928" cy="444.064" r="2.5" fill="rgb(71,71,71)" />
	<circle cx="210.859" cy="237.488" r="2.5" fill="rgb(70,70,70)" />
	<circle cx="283.681" cy="206.105" r="2.5" fill="rgb(70,70,70)" />
	<circle cx="118.583" cy="128.364" r="2.5" fill="rgb(70,70,70)" />
	<circle cx="132.056" cy="226.972" r="2.5" fill="rgb(70,70,70)" />
	<circle cx="438.812" cy="389.084" r="2.5" fill="rgb(70,70,70)" />
	<circle cx="201.789" cy="473.587" r="2.5" fill="rgb(70,70,70)" />
	<circle cx="180.365" cy="486.866" r="2.5" fill="rgb(70,70,70)" />
	<circle cx="219.913" cy="160.003" r="2.5" fill="rgb(70,70,70)" />
	<circle cx="291.44" cy="331.142" r="2.5" fill="rgb(70,70,70)" />
	<circle cx="47.0909" cy="227.382" r="2.5" fill="rgb(69,69,69)" />
	<circle cx="431.104" cy="312.501" r="2.5" fill="rgb(69,69,69)" />
	<circle cx="225.458" cy="469.105" r="2.5" fill="rgb(69,69,69)" />
	<circle cx="367.411" cy="389.61" r="2.5" fill="rgb(69,69,69)" />
	<circle cx="311.31" cy="483.521" r="2.5" fill="rgb(69,69,69)" />
	<circle cx="295.736" cy="402.137" r="2.5" fill="rgb(69,69,69)" />
	<circle cx="302.638" cy="431.459" r="2.5" fill="rgb(68,68,68)" />
	<circle cx="316.311" cy="327.339" r="2.5" fill="rgb(68,68,68)" />
	<circle cx="200.596" cy="242.758" r="2.5" fill="rgb(68,68,68)" />
	<circle cx="127.619" cy="137.106" r="2.5" fill="rgb(68,68,68)" />
	<circle cx="164.952" cy="153.577" r="2.5" fill="rgb(68,68,68)" />
	<circle cx="371.399" cy="391.169" r="2.5" fill="rgb(68,68,68)" />
	<circle cx="234.341" cy="462.731" r="2.5" fill="rgb(68,68,68)" />
	<circle cx="40.582" cy="235.962" r="2.5" fill="rgb(67,67,67)" />
	<circle cx="120.994" cy="139.575" r="2.5" fill="rgb(67,67,67)" />
	<circle cx="290.082" cy="463.246" r="2.5" fill="rgb(67,67,67)" />
	<circle cx="407.029" cy="392.659" r="2.5" fill="rgb(67,67,67)" />
	<circle cx="76.0911" cy="311.159" r="2.5" fill="rgb(67,67,67)" />
	<circle cx="343.01" cy="362.183" r="2.5" fill="rgb(67,67,67)" />
	<circle cx="180.662" cy="195.938" r="2.5" fill="rgb(67,67,67)" />
	<circle cx="232.201" cy="449.823" r="2.5" fill="rgb(67,67,67)" />
	<circle cx="275.242" cy="356.398" r="2.5" fill="rgb(66,66,66)" />
	<circle cx="224.469" cy="468.098" r="2.5" fill="rgb(66,66,66)" />
	<circle cx="63.0446" cy="358.884" r="2.5" fill="rgb(66,66,66)" />
	<circle cx="227.804" cy="198.835" r="2.5" fill="rgb(66,66,66)" />
	<circle cx="427.283" cy="394.905" r="2.5" fill="rgb(66,66,66)" />
	<circle cx="436.207" cy="395.357" r="2.5" fill="rgb(66,66,66)" />
	<circle cx="296.404" cy="437.751" r="2.5" fill="rgb(65,65,65)" />
	<circle cx="154.851" cy="145.936" r="2.5" fill="rgb(65,65,65)" />
	<circle cx="47.7297" cy="245.986" r="2.5" fill="rgb(65,65,65)" />
	<circle cx="209.064" cy="172.834" r="2.5" fill="rgb(65,65,65)" />
	<circle cx="233.762" cy="476.759" r="2.5" fill="rgb(65,65,65)" />
	<circle cx="207.128" cy="174.042" r="2.5" fill="rgb(65,65,65)" />
	<circle cx="122.389" cy="150.886" r="2.5" fill="rgb(65,65,65)" />
	<circle cx="278.84" cy="457.248" r="2.5" fill="rgb(64,64,64)" />
	<circle cx="401.71" cy="317.871" r="2.5" fill="rgb(63,63,63)" />
	<circle cx="23.228" cy="252.833" r="2.5" fill="rgb(63,63,63)" />
	<circle cx="38.2108" cy="255.095" r="2.5" fill="rgb(62,62,62)" />
	<circle cx="350.102" cy="415.055" r="2.5" fill="rgb(62,62,62)" />
	<circle cx="297.978" cy="332.971" r="2.5" fill="rgb(62,62,62)" />
	<circle cx="368.877" cy="400.837" r="2.5" fill="rgb(62,62,62)" />
	<circle cx="171.604" cy="166.656" r="2.5" fill="rgb(62,62,62)" />
	<circle cx="288.947" cy="474.478" r="2.5" fill="rgb(62,62,62)" />
	<circle cx="277.831" cy="368.009" r="2.5" fill="rgb(62,62,62)" />
	<circle cx="291.376" cy="445.779" r="2.5" fill="rgb(62,62,62)" />
	<circle cx="150.883" cy="164.791" r="2.5" fill="rgb(61,61,61)" />
	<circle cx="89.447" cy="378.373" r="2.5" fill="rgb(61,61,61)" />
	<circle cx="403.128" cy="400.292" r="2.5" fill="rgb(61,61,61)" />
	<circle cx="428.076" cy="401.33" r="2.5" fill="rgb(61,61,61)" />
	<circle cx="428.133" cy="402.689" r="2.5" fill="rgb(60,60,60)" />
	<circle cx="190.74" cy="441.935" r="2.5" fill="rgb(60,60,60)" />
	<circle cx="95.6574" cy="280.303" r="2.5" fill="rgb(60,60,60)" />
	<circle cx="44.1461" cy="270.052" r="2.5" fill="rgb(60,60,60)" />
	<circle cx="378.267" cy="404.763" r="2.5" fill="rgb(59,59,59)" />
	<circle cx="349.344" cy="412.596" r="2.5" fill="rgb(59,59,59)" />
	<circle cx="46.8833" cy="272.399" r="2.5" fill="rgb(59,59,59)" />
	<circle cx="207.63" cy="409.491" r="2.5" fill="rgb(59,59,59)" />
	<circle cx="182.475" cy="184.012" r="2.5" fill="rgb(59,59,59)" />
	<circle cx="79.0887" cy="391.719" r="2.5" fill="rgb(59,59,59)" />
	<circle cx="213.039" cy="195.528" r="2.5" fill="rgb(58,58,58)" />
	<circle cx="217.415" cy="197.484" r="2.5" fill="rgb(58,58,58)" />
	<circle cx="343.842" cy="422.178" r="2.5" fill="rgb(58,58,58)" />
	<circle cx="131.642" cy="220.311" r="2.5" fill="rgb(58,58,58)" />
	<circle cx="389.466" cy="328.451" r="2.5" fill="rgb(57,57,57)" />
	<circle cx="211.577" cy="205.902" r="2.5" fill="rgb(56,56,56)" />
	<circle cx="69.617" cy="292.356" r="2.5" fill="rgb(56,56,56)" />
	<circle cx="268.1" cy="381.836" r="2.5" fill="rgb(56,56,56)" />
	<circle cx="115.518" cy="305.9" r="2.5" fill="rgb(55,55,55)" />
	<circle cx="200.396" cy="289.672" r="2.5" fill="rgb(55,55,55)" />
	<circle cx="318.53" cy="336.188" r="2.5" fill="rgb(54,54,54)" />
	<circle cx="305.598" cy="367.063" r="2.5" fill="rgb(54,54,54)" />
	<circle cx="409.601" cy="412.183" r="2.5" fill="rgb(53,53,53)" />
	<circle cx="391.123" cy="335.516" r="2.5" fill="rgb(53,53,53)" />
	<circle cx="201.437" cy="303.032" r="2.5" fill="rgb(51,51,51)" />
	<circle cx="188.268" cy="214.147" r="2.5" fill="rgb(51,51,51)" />
	<circle cx="234.997" cy="293.948" r="2.5" fill="rgb(51,51,51)" />
	<circle cx="166.477" cy="281.957" r="2.5" fill="rgb(51,51,51)" />
	<circle cx="96.1414" cy="348.473" r="2.5" fill="rgb(50,50,50)" />
	<circle cx="113.029" cy="306.621" r="2.5" fill="rgb(50,50,50)" />
	<circle cx="137.769" cy="412.294" r="2.5" fill="rgb(50,50,50)" />
	<circle cx="118.747" cy="319.286" r="2.5" fill="rgb(50,50,50)" />
	<circle cx="382.583" cy="341.235" r="2.5" fill="rgb(49,49,49)" />
	<circle cx="199.231" cy="226.538" r="2.5" fill="rgb(49,49,49)" />
	<circle cx="128.301" cy="324.773" r="2.5" fill="rgb(48,48,48)" />
	<circle cx="192.554" cy="400.364" r="2.5" fill="rgb(47,47,47)" />
	<circle cx="180.753" cy="230.468" r="2.5" fill="rgb(47,47,47)" />
	<circle cx="213.041" cy="301.913" r="2.5" fill="rgb(47,47,47)" />
	<circle cx="194.737" cy="320.397" r="2.5" fill="rgb(47,47,47)" />
	<circle cx="187.443" cy="239.08" r="2.5" fill="rgb(45,45,45)" />
	<circle cx="213.251" cy="248.026" r="2.5" fill="rgb(45,45,45)" />
	<circle cx="217.628" cy="251.834" r="2.5" fill="rgb(45,45,45)" />
	<circle cx="239.335" cy="406.483" r="2.5" fill="rgb(43,43,43)" />
	<circle cx="280.548" cy="310.572" r="2.5" fill="rgb(43,43,43)" />
	<circle cx="195.389" cy="252.815" r="2.5" fill="rgb(43,43,43)" />
	<circle cx="203.812" cy="255.741" r="2.5" fill="rgb(43,43,43)" />
	<circle cx="74.9666" cy="272.643" r="2.5" fill="rgb(42,42,42)" />
	<circle cx="248.284" cy="412.366" r="2.5" fill="rgb(42,42,42)" />
	<circle cx="197.428" cy="259.168" r="2.5" fill="rgb(41,41,41)" />
	<circle cx="150.375" cy="422.379" r="2.5" fill="rgb(41,41,41)" />
	<circle cx="160.809" cy="425.738" r="2.5" fill="rgb(40,40,40)" />
	<circle cx="192.442" cy="270.861" r="2.5" fill="rgb(38,38,38)" />
	<circle cx="268.78" cy="421.76" r="2.5" fill="rgb(38,38,38)" />
	<circle cx="232.82" cy="423.924" r="2.5" fill="rgb(38,38,38)" />
	<circle cx="24.8397" cy="456.658" r="2.5" fill="rgb(37,37,37)" />
	<circle cx="100.79" cy="273.373" r="2.5" fill="rgb(37,37,37)" />
	<circle cx="164.807" cy="437.738" r="2.5" fill="rgb(36,36,36)" />
	<circle cx="70.1486" cy="363.996" r="2.5" fill="rgb(35,35,35)" />
	<circle cx="56.0819" cy="372.011" r="2.5" fill="rgb(35,35,35)" />
	<circle cx="43.6721" cy="256.575" r="2.5" fill="rgb(35,35,35)" />
	<circle cx="53.9047" cy="338.375" r="2.5" fill="rgb(35,35,35)" />
	<circle cx="38.0461" cy="259.492" r="2.5" fill="rgb(34,34,34)" />
	<circle cx="163.357" cy="280.201" r="2.5" fill="rgb(34,34,34)" />
	<circle cx="35.9135" cy="398.892" r="2.5" fill="rgb(34,34,34)" />
	<circle cx="90.2338" cy="290.099" r="2.5" fill="rgb(34,34,34)" />
	<circle cx="25.7532" cy="372.181" r="2.5" fill="rgb(33,33,33)" />
	<circle cx="120.502" cy="363.192" r="2.5" fill="rgb(33,33,33)" />
	<circle cx="260.94" cy="436.779" r="2.5" fill="rgb(33,33,33)" />
	<circle cx="50.9374" cy="362.39" r="2.5" fill="rgb(32,32,32)" />
	<circle cx="86.2191" cy="412.636" r="2.5" fill="rgb(32,32,32)" />
	<circle cx="150.374" cy="288.268" r="2.5" fill="rgb(31,31,31)" />
	<circle cx="173.393" cy="455.021" r="2.5" fill="rgb(31,31,31)" />
	<circle cx="216.453" cy="449.101" r="2.5" fill="rgb(31,31,31)" />
	<circle cx="30.7739" cy="312.412" r="2.5" fill="rgb(31,31,31)" />
	<circle cx="50.685" cy="438.172" r="2.5" fill="rgb(31,31,31)" />
	<circle cx="20.0339" cy="272.457" r="2.5" fill="rgb(31,31,31)" />
	<circle cx="89.2785" cy="323.553" r="2.5" fill="rgb(30,30,30)" />
	<circle cx="116.707" cy="378.411" r="2.5" fill="rgb(30,30,30)" />
	<circle cx="11.3658" cy="372.093" r="2.5" fill="rgb(30,30,30)" />
	<circle cx="55.9262" cy="385.106" r="2.5" fill="rgb(30,30,30)" />
	<circle cx="111.904" cy="280.841" r="2.5" fill="rgb(29,29,29)" />
	<circle cx="99.594" cy="336.455" r="2.5" fill="rgb(29,29,29)" />
	<circle cx="56.5594" cy="471.845" r="2.5" fill="rgb(28,28,28)" />
	<circle cx="41.8047" cy="350.15" r="2.5" fill="rgb(28,28,28)" />
	<circle cx="119.183" cy="424.409" r="2.5" fill="rgb(28,28,28)" />
	<circle cx="158.109" cy="306.22" r="2.5" fill="rgb(28,28,28)" />
	<circle cx="201.674" cy="309.696" r="2.5" fill="rgb(28,28,28)" />
	<circle cx="56.3625" cy="333.97" r="2.5" fill="rgb(28,28,28)" />
	<circle cx="53.4744" cy="347.381" r="2.5" fill="rgb(28,28,28)" />
	<circle cx="260.976" cy="451.832" r="2.5" fill="rgb(28,28,28)" />
	<circle cx="266.843" cy="451.596" r="2.5" fill="rgb(28,28,28)" />
	<circle cx="210.581" cy="460.432" r="2.5" fill="rgb(28,28,28)" />
	<circle cx="139.406" cy="304.359" r="2.5" fill="rgb(28,28,28)" />
	<circle cx="194.042" cy="466.82" r="2.5" fill="rgb(28,28,28)" />
	<circle cx="222.169" cy="317.218" r="2.5" fill="rgb(27,27,27)" />
	<circle cx="65.2169" cy="352.097" r="2.5" fill="rgb(27,27,27)" />
	<circle cx="269.781" cy="453.212" r="2.5" fill="rgb(27,27,27)" />
	<circle cx="86.6219" cy="289.643" r="2.5" fill="rgb(27,27,27)" />
	<circle cx="201.595" cy="344.745" r="2.5" fill="rgb(27,27,27)" />
	<circle cx="161.533" cy="313.471" r="2.5" fill="rgb(27,27,27)" />
	<circle cx="89.1689" cy="344.394" r="2.5" fill="rgb(27,27,27)" />
	<circle cx="15.9" cy="476.429" r="2.5" fill="rgb(26,26,26)" />
	<circle cx="44.0196" cy="347.495" r="2.5" fill="rgb(26,26,26)" />
	<circle cx="249.659" cy="457.858" r="2.5" fill="rgb(26,26,26)" />
	<circle cx="26.6659" cy="472.233" r="2.5" fill="rgb(26,26,26)" />
	<circle cx="222.669" cy="463.737" r="2.5" fill="rgb(26,26,26)" />
	<circle cx="98.9465" cy="448.263" r="2.5" fill="rgb(26,26,26)" />
	<circle cx="52.9494" cy="335.688" r="2.5" fill="rgb(26,26,26)" />
	<circle cx="38.4603" cy="440.128" r="2.5" fill="rgb(25,25,25)" />
	<circle cx="29.8534" cy="493.819" r="2.5" fill="rgb(25,25,25)" />
	<circle cx="32.1162" cy="416.389" r="2.5" fill="rgb(25,25,25)" />
	<circle cx="29.6173" cy="443.431" r="2.5" fill="rgb(25,25,25)" />
	<circle cx="113.086" cy="302.655" r="2.5" fill="rgb(25,25,25)" />
	<circle cx="258.01" cy="460.415" r="2.5" fill="rgb(25,25,25)" />
	<circle cx="204.75" cy="406.153" r="2.5" fill="rgb(25,25,25)" />
	<circle cx="150.486" cy="320.823" r="2.5" fill="rgb(25,25,25)" />
	<circle cx="196.997" cy="327.556" r="2.5" fill="rgb(24,24,24)" />
	<circle cx="37.0177" cy="402.559" r="2.5" fill="rgb(23,23,23)" />
	<circle cx="23.6848" cy="367.004" r="2.5" fill="rgb(23,23,23)" />
	<circle cx="89.5314" cy="465.457" r="2.5" fill="rgb(23,23,23)" />
	<circle cx="81.3258" cy="422.761" r="2.5" fill="rgb(23,23,23)" />
	<circle cx="110.003" cy="408.532" r="2.5" fill="rgb(23,23,23)" />
	<circle cx="131.151" cy="409.524" r="2.5" fill="rgb(23,23,23)" />
	<circle cx="9.5299" cy="404.647" r="2.5" fill="rgb(23,23,23)" />
	<circle cx="41.3049" cy="356.148" r="2.5" fill="rgb(23,23,23)" />
	<circle cx="17.4672" cy="454.849" r="2.5" fill="rgb(23,23,23)" />
	<circle cx="115.04" cy="316.15" r="2.5" fill="rgb(23,23,23)" />
	<circle cx="17.8039" cy="276.067" r="2.5" fill="rgb(22,22,22)" />
	<circle cx="257.017" cy="468.919" r="2.5" fill="rgb(22,22,22)" />
	<circle cx="119.209" cy="413.206" r="2.5" fill="rgb(22,22,22)" />
	<circle cx="31.0778" cy="468.039" r="2.5" fill="rgb(22,22,22)" />
	<circle cx="36.8408" cy="448.38" r="2.5" fill="rgb(22,22,22)" />
	<circle cx="157.871" cy="420.014" r="2.5" fill="rgb(22,22,22)" />
	<circle cx="112.67" cy="415.391" r="2.5" fill="rgb(22,22,22)" />
	<circle cx="116.868" cy="415.404" r="2.5" fill="rgb(22,22,22)" />
	<circle cx="199.713" cy="419.165" r="2.5" fill="rgb(21,21,21)" />
	<circle cx="183.248" cy="338.033" r="2.5" fill="rgb(21,21,21)" />
	<circle cx="108.088" cy="420.202" r="2.5" fill="rgb(21,21,21)" />
	<circle cx="80.01" cy="404.012" r="2.5" fill="rgb(20,20,20)" />
	<circle cx="118.692" cy="329.963" r="2.5" fill="rgb(20,20,20)" />
	<circle cx="32.6266" cy="376.179" r="2.5" fill="rgb(20,20,20)" />
	<circle cx="60.5281" cy="402.355" r="2.5" fill="rgb(20,20,20)" />
	<circle cx="186.303" cy="428.147" r="2.5" fill="rgb(19,19,19)" />
	<circle cx="10.083" cy="296.16" r="2.5" fill="rgb(19,19,19)" />
	<circle cx="172.426" cy="345.651" r="2.5" fill="rgb(19,19,19)" />
	<circle cx="114.014" cy="431.321" r="2.5" fill="rgb(19,19,19)" />
	<circle cx="77.7764" cy="389.996" r="2.5" fill="rgb(19,19,19)" />
	<circle cx="76.6582" cy="385.027" r="2.5" fill="rgb(19,19,19)" />
	<circle cx="8.72427" cy="354.581" r="2.5" fill="rgb(19,19,19)" />
	<circle cx="31.3736" cy="406.142" r="2.5" fill="rgb(19,19,19)" />
	<circle cx="89.3409" cy="384.708" r="2.5" fill="rgb(18,18,18)" />
	<circle cx="10.8118" cy="406.572" r="2.5" fill="rgb(18,18,18)" />
	<circle cx="48.7436" cy="417.442" r="2.5" fill="rgb(18,18,18)" />
	<circle cx="14.8662" cy="409.87" r="2.5" fill="rgb(18,18,18)" />
	<circle cx="15.5302" cy="412.952" r="2.5" fill="rgb(18,18,18)" />
	<circle cx="147.242" cy="351.559" r="2.5" fill="rgb(16,16,16)" />
	<circle cx="21.1016" cy="315.973" r="2.5" fill="rgb(16,16,16)" />
	<circle cx="46.8953" cy="451.489" r="2.5" fill="rgb(16,16,16)" />
	<circle cx="50.7894" cy="365.713" r="2.5" fill="rgb(16,16,16)" />
	<circle cx="45.4712" cy="389.637" r="2.5" fill="rgb(16,16,16)" />
	<circle cx="86.3723" cy="357.156" r="2.5" fill="rgb(16,16,16)" />
	<circle cx="63.1436" cy="373.245" r="2.5" fill="rgb(15,15,15)" />
	<circle cx="6.16134" cy="433.861" r="2.5" fill="rgb(15,15,15)" />
	<circle cx="10.3139" cy="375.438" r="2.5" fill="rgb(15,15,15)" />
	<circle cx="46.9404" cy="391.333" r="2.5" fill="rgb(14,14,14)" />
	<circle cx="1.07732" cy="388.804" r="2.5" fill="rgb(14,14,14)" />
	<circle cx="18.2438" cy="337.838" r="2.5" fill="rgb(13,13,13)" />
	<circle cx="135.401" cy="368.848" r="2.5" fill="rgb(13,13,13)" />
	<circle cx="6.58476" cy="488.93" r="2.5" fill="rgb(12,12,12)" />
	<circle cx="25.963" cy="401.74" r="2.5" fill="rgb(12,12,12)" />
	<circle cx="48.3735" cy="337.549" r="2.5" fill="rgb(12,12,12)" />
	<circle cx="6.1842" cy="348.19" r="2.5" fill="rgb(12,12,12)" />
	<circle cx="16.447" cy="415.593" r="2.5" fill="rgb(11,11,11)" />
	<circle cx="57.4328" cy="361.321" r="2.5" fill="rgb(9,9,9)" />
	<circle cx="41.4866" cy="370.931" r="2.5" fill="rgb(7,7,7)" />
	<circle cx="32.1598" cy="383.047" r="2.5" fill="rgb(6,6,6)" />
	<circle cx="22.1513" cy="474.795" r="2.5" fill="rgb(5,5,5)" />
	<circle cx="24.6045" cy="405.058" r="2.5" fill="rgb(3,3,3)" />
	<circle cx="27.5736" cy="492.199" r="2.5" fill="rgb(2,2,2)" />
	<circle cx="83.3333" cy="416.667" r="2" fill="rgb(255,0,0)" />
	<circle cx="416.667" cy="83.3333" r="2" fill="rgb(0,255,0)" />
	<circle cx="83.3333" cy="416.667" r="2" fill="rgb(0,255,0)" />
	<circle cx="128.707" cy="406.028" r="2" fill="rgb(0,255,0)" />
	<circle cx="37.2425" cy="423.796" r="2" fill="rgb(0,255,0)" />
	<circle cx="32.4899" cy="398.596" r="2" fill="rgb(0,255,0)" />
	<circle cx="41.8165" cy="374.871" r="2" fill="rgb(0,255,0)" />
	<circle cx="52.4686" cy="355.729" r="2" fill="rgb(0,255,0)" />
	<circle cx="57.43" cy="344.071" r="2" fill="rgb(0,255,0)" />
	<circle cx="63.2721" cy="328.186" r="2" fill="rgb(0,255,0)" />
	<circle cx="81.0739" cy="316.485" r="2" fill="rgb(0,255,0)" />
	<circle cx="97.3188" cy="309.976" r="2" fill="rgb(0,255,0)" />
	<circle cx="105.62" cy="290.001" r="2" fill="rgb(0,255,0)" />
	<circle cx="91.8644" cy="270.244" r="2" fill="rgb(0,255,0)" />
	<circle cx="110.252" cy="256.601" r="2" fill="rgb(0,255,0)" />
	<circle cx="90.4462" cy="236.83" r="2" fill="rgb(0,255,0)" />
	<circle cx="102.978" cy="223.884" r="2" fill="rgb(0,255,0)" />
	<circle cx="114.23" cy="215.016" r="2" fill="rgb(0,255,0)" />
	<circle cx="111.377" cy="204.54" r="2" fill="rgb(0,255,0)" />
	<circle cx="152.966" cy="218.295" r="2" fill="rgb(0,255,0)" />
	<circle cx="159.657" cy="200.956" r="2" fill="rgb(0,255,0)" />
	<circle cx="161.299" cy="191.778" r="2" fill="rgb(0,255,0)" />
	<circle cx="189.274" cy="189.757" r="2" fill="rgb(0,255,0)" />
	<circle cx="267.513" cy="224.526" r="2" fill="rgb(0,255,0)" />
	<circle cx="297.842" cy="224.266" r="2" fill="rgb(0,255,0)" />
	<circle cx="326.25" cy="224.374" r="2" fill="rgb(0,255,0)" />
	<circle cx="320.525" cy="213.696" r="2" fill="rgb(0,255,0)" />
	<circle cx="318.387" cy="205.401" r="2" fill="rgb(0,255,0)" />
	<circle cx="361.081" cy="207.794" r="2" fill="rgb(0,255,0)" />
	<circle cx="375.361" cy="196.254" r="2" fill="rgb(0,255,0)" />
	<circle cx="386.572" cy="191.236" r="2" fill="rgb(0,255,0)" />
	<circle cx="419.848" cy="183.667" r="2" fill="rgb(0,255,0)" />
	<circle cx="426.199" cy="170.719" r="2" fill="rgb(0,255,0)" />
	<circle cx="399.391" cy="154.498" r="2" fill="rgb(0,255,0)" />
	<circle cx="389.759" cy="139.224" r="2" fill="rgb(0,255,0)" />
	<circle cx="406.998" cy="123.526" r="2" fill="rgb(0,255,0)" />
	<circle cx="403.068" cy="107.954" r="2" fill="rgb(0,255,0)" />
	<circle cx="419.38" cy="89.302" r="2" fill="rgb(0,255,0)" />
</svg>
