<?xml version="1.0" standalone="no" ?>
<!DOCTYPE svg PUBLIC "-//W3C//DTD SVG 1.1//EN" "http://www.w3.org/Graphics/SVG/1.1/DTD/svg11.dtd">
<svg width="500px" height="500px" xmlns="http://www.w3.org/2000/svg" version="1.1" >
	<polyline points="83.3333,416.667 87.2425,394.795 " fill="transparent" stroke-width="0.5" stroke="rgb(0,0,255)" />
	<polyline points="87.2425,394.795 73.3286,372.204 " fill="transparent" stroke-width="0.5" stroke="rgb(0,0,255)" />
	<polyline points="73.3286,372.204 4.80583,453.932 " fill="transparent" stroke-width="0.5" stroke="rgb(0,0,255)" />
	<polyline points="87.2425,394.795 130.964,382.962 " fill="transparent" stroke-width="0.5" stroke="rgb(0,0,255)" />
	<polyline points="130.964,382.962 196.268,379.231 " fill="transparent" stroke-width="0.5" stroke="rgb(0,0,255)" />
	<polyline points="196.268,379.231 94.9863,402.487 " fill="transparent" stroke-width="0.5" stroke="rgb(0,0,255)" />
	<polyline points="196.268,379.231 243.658,386.927 " fill="transparent" stroke-width="0.5" stroke="rgb(0,0,255)" />
	<polyline points="243.658,386.927 174.573,430.402 " fill="transparent" stroke-width="0.5" stroke="rgb(0,0,255)" />
	<polyline points="243.658,386.927 185.945,423.659 " fill="transparent" stroke-width="0.5" stroke="rgb(0,0,255)" />
	<polyline points="243.658,386.927 291.802,440.82 " fill="transparent" stroke-width="0.5" stroke="rgb(0,0,255)" />
	<polyline points="291.802,440.82 292.513,431.302 " fill="transparent" stroke-width="0.5" stroke="rgb(0,0,255)" />
	<polyline points="291.802,440.82 309.221,433.501 " fill="transparent" stroke-width="0.5" stroke="rgb(0,0,255)" />
	<polyline points="309.221,433.501 250.471,463.484 " fill="transparent" stroke-width="0.5" stroke="rgb(0,0,255)" />
	<polyline points="309.221,433.501 251.321,453.689 " fill="transparent" stroke-width="0.5" stroke="rgb(0,0,255)" />
	<polyline points="251.321,453.689 239.954,440.936 " fill="transparent" stroke-width="0.5" stroke="rgb(0,0,255)" />
	<polyline points="251.321,453.689 243.226,438.868 " fill="transparent" stroke-width="0.5" stroke="rgb(0,0,255)" />
	<polyline points="291.802,440.82 301.84,428.159 " fill="transparent" stroke-width="0.5" stroke="rgb(0,0,255)" />
	<polyline points="291.802,440.82 273.35,429.405 " fill="transparent" stroke-width="0.5" stroke="rgb(0,0,255)" />
	<polyline points="273.35,429.405 184.861,456.144 " fill="transparent" stroke-width="0.5" stroke="rgb(0,0,255)" />
	<polyline points="184.861,456.144 195.76,444.271 " fill="transparent" stroke-width="0.5" stroke="rgb(0,0,255)" />
	<polyline points="243.658,386.927 250.754,378.978 " fill="transparent" stroke-width="0.5" stroke="rgb(0,0,255)" />
	<polyline points="250.754,378.978 260.319,363.043 " fill="transparent" stroke-width="0.5" stroke="rgb(0,0,255)" />
	<polyline points="260.319,363.043 200.55,376.097 " fill="transparent" stroke-width="0.5" stroke="rgb(0,0,255)" />
	<polyline points="200.55,376.097 212.78,359.027 " fill="transparent" stroke-width="0.5" stroke="rgb(0,0,255)" />
	<polyline points="260.319,363.043 269.839,347.652 " fill="transparent" stroke-width="0.5" stroke="rgb(0,0,255)" />
	<polyline points="269.839,347.652 308.093,341.329 " fill="transparent" stroke-width="0.5" stroke="rgb(0,0,255)" />
	<polyline points="308.093,341.329 385.943,352.08 " fill="transparent" stroke-width="0.5" stroke="rgb(0,0,255)" />
	<polyline points="385.943,352.08 322.609,347.805 " fill="transparent" stroke-width="0.5" stroke="rgb(0,0,255)" />
	<polyline points="385.943,352.08 382.517,339.345 " fill="transparent" stroke-width="0.5" stroke="rgb(0,0,255)" />
	<polyline points="385.943,352.08 402.771,344.816 " fill="transparent" stroke-width="0.5" stroke="rgb(0,0,255)" />
	<polyline points="402.771,344.816 495.035,414.84 " fill="transparent" stroke-width="0.5" stroke="rgb(0,0,255)" />
	<polyline points="402.771,344.816 341.976,335.77 " fill="transparent" stroke-width="0.5" stroke="rgb(0,0,255)" />
	<polyline points="402.771,344.816 401.915,337.972 " fill="transparent" stroke-width="0.5" stroke="rgb(0,0,255)" />
	<polyline points="401.915,337.972 405.827,331.675 " fill="transparent" stroke-width="0.5" stroke="rgb(0,0,255)" />
	<polyline points="405.827,331.675 413.101,325.916 " fill="transparent" stroke-width="0.5" stroke="rgb(0,0,255)" />
	<polyline points="413.101,325.916 433.461,316.943 " fill="transparent" stroke-width="0.5" stroke="rgb(0,0,255)" />
	<polyline points="433.461,316.943 477.53,315.345 " fill="transparent" stroke-width="0.5" stroke="rgb(0,0,255)" />
	<polyline points="477.53,315.345 375.928,335.205 " fill="transparent" stroke-width="0.5" stroke="rgb(0,0,255)" />
	<polyline points="433.461,316.943 425.131,305.254 " fill="transparent" stroke-width="0.5" stroke="rgb(0,0,255)" />
	<polyline points="425.131,305.254 417.355,296.159 " fill="transparent" stroke-width="0.5" stroke="rgb(0,0,255)" />
	<polyline points="425.131,305.254 335.001,324.241 " fill="transparent" stroke-width="0.5" stroke="rgb(0,0,255)" />
	<polyline points="335.001,324.241 337.961,312.879 " fill="transparent" stroke-width="0.5" stroke="rgb(0,0,255)" />
	<polyline points="337.961,312.879 260.788,331.311 " fill="transparent" stroke-width="0.5" stroke="rgb(0,0,255)" />
	<polyline points="433.461,316.943 349.305,324.884 " fill="transparent" stroke-width="0.5" stroke="rgb(0,0,255)" />
	<polyline points="433.461,316.943 371.004,353.917 " fill="transparent" stroke-width="0.5" stroke="rgb(0,0,255)" />
	<polyline points="433.461,316.943 331.098,338.846 " fill="transparent" stroke-width="0.5" stroke="rgb(0,0,255)" />
	<polyline points="405.827,331.675 341.81,346.831 " fill="transparent" stroke-width="0.5" stroke="rgb(0,0,255)" />
	<polyline points="402.771,344.816 377.85,337.486 " fill="transparent" stroke-width="0.5" stroke="rgb(0,0,255)" />
	<polyline points="377.85,337.486 319.022,334.653 " fill="transparent" stroke-width="0.5" stroke="rgb(0,0,255)" />
	<polyline points="402.771,344.816 294.706,359.795 " fill="transparent" stroke-width="0.5" stroke="rgb(0,0,255)" />
	<polyline points="294.706,359.795 294.505,348.741 " fill="transparent" stroke-width="0.5" stroke="rgb(0,0,255)" />
	<polyline points="402.771,344.816 320.935,405.732 " fill="transparent" stroke-width="0.5" stroke="rgb(0,0,255)" />
	<polyline points="320.935,405.732 331.514,394.29 " fill="transparent" stroke-width="0.5" stroke="rgb(0,0,255)" />
	<polyline points="331.514,394.29 253.246,455.591 " fill="transparent" stroke-width="0.5" stroke="rgb(0,0,255)" />
	<polyline points="331.514,394.29 221.698,411.513 " fill="transparent" stroke-width="0.5" stroke="rgb(0,0,255)" />
	<polyline points="320.935,405.732 289.308,393.016 " fill="transparent" stroke-width="0.5" stroke="rgb(0,0,255)" />
	<polyline points="385.943,352.08 279.709,354.807 " fill="transparent" stroke-width="0.5" stroke="rgb(0,0,255)" />
	<polyline points="279.709,354.807 284.689,340.956 " fill="transparent" stroke-width="0.5" stroke="rgb(0,0,255)" />
	<polyline points="385.943,352.08 326.706,346.29 " fill="transparent" stroke-width="0.5" stroke="rgb(0,0,255)" />
	<polyline points="326.706,346.29 226.487,377.478 " fill="transparent" stroke-width="0.5" stroke="rgb(0,0,255)" />
	<polyline points="385.943,352.08 265.7,372.013 " fill="transparent" stroke-width="0.5" stroke="rgb(0,0,255)" />
	<polyline points="308.093,341.329 235.528,352.744 " fill="transparent" stroke-width="0.5" stroke="rgb(0,0,255)" />
	<polyline points="308.093,341.329 270.395,322.766 " fill="transparent" stroke-width="0.5" stroke="rgb(0,0,255)" />
	<polyline points="270.395,322.766 146.139,352.72 " fill="transparent" stroke-width="0.5" stroke="rgb(0,0,255)" />
	<polyline points="146.139,352.72 45.1708,367.593 " fill="transparent" stroke-width="0.5" stroke="rgb(0,0,255)" />
	<polyline points="146.139,352.72 65.2099,395.642 " fill="transparent" stroke-width="0.5" stroke="rgb(0,0,255)" />
	<polyline points="270.395,322.766 251.908,303.297 " fill="transparent" stroke-width="0.5" stroke="rgb(0,0,255)" />
	<polyline points="251.908,303.297 190.926,308.559 " fill="transparent" stroke-width="0.5" stroke="rgb(0,0,255)" />
	<polyline points="251.908,303.297 188.911,313.683 " fill="transparent" stroke-width="0.5" stroke="rgb(0,0,255)" />
	<polyline points="251.908,303.297 188.066,328.679 " fill="transparent" stroke-width="0.5" stroke="rgb(0,0,255)" />
	<polyline points="251.908,303.297 190.482,338.156 " fill="transparent" stroke-width="0.5" stroke="rgb(0,0,255)" />
	<polyline points="251.908,303.297 188.081,317.439 " fill="transparent" stroke-width="0.5" stroke="rgb(0,0,255)" />
	<polyline points="188.081,317.439 197.656,308.343 " fill="transparent" stroke-width="0.5" stroke="rgb(0,0,255)" />
	<polyline points="251.908,303.297 133.578,309.297 " fill="transparent" stroke-width="0.5" stroke="rgb(0,0,255)" />
	<polyline points="133.578,309.297 112.288,288.807 " fill="transparent" stroke-width="0.5" stroke="rgb(0,0,255)" />
	<polyline points="112.288,288.807 126.292,278.092 " fill="transparent" stroke-width="0.5" stroke="rgb(0,0,255)" />
	<polyline points="126.292,278.092 137.762,271.348 " fill="transparent" stroke-width="0.5" stroke="rgb(0,0,255)" />
	<polyline points="137.762,271.348 152.43,259.778 " fill="transparent" stroke-width="0.5" stroke="rgb(0,0,255)" />
	<polyline points="152.43,259.778 188.524,259.281 " fill="transparent" stroke-width="0.5" stroke="rgb(0,0,255)" />
	<polyline points="188.524,259.281 197.029,250.837 " fill="transparent" stroke-width="0.5" stroke="rgb(0,0,255)" />
	<polyline points="188.524,259.281 111.286,286.001 " fill="transparent" stroke-width="0.5" stroke="rgb(0,0,255)" />
	<polyline points="137.762,271.348 139.791,255.489 " fill="transparent" stroke-width="0.5" stroke="rgb(0,0,255)" />
	<polyline points="139.791,255.489 117.606,232.394 " fill="transparent" stroke-width="0.5" stroke="rgb(0,0,255)" />
	<polyline points="117.606,232.394 108.793,216.47 " fill="transparent" stroke-width="0.5" stroke="rgb(0,0,255)" />
	<polyline points="108.793,216.47 104.993,203.937 " fill="transparent" stroke-width="0.5" stroke="rgb(0,0,255)" />
	<polyline points="104.993,203.937 90.26,192.872 " fill="transparent" stroke-width="0.5" stroke="rgb(0,0,255)" />
	<polyline points="90.26,192.872 88.1738,176.16 " fill="transparent" stroke-width="0.5" stroke="rgb(0,0,255)" />
	<polyline points="90.26,192.872 113.342,261.369 " fill="transparent" stroke-width="0.5" stroke="rgb(0,0,255)" />
	<polyline points="90.26,192.872 124.249,287.596 " fill="transparent" stroke-width="0.5" stroke="rgb(0,0,255)" />
	<polyline points="108.793,216.47 166.705,249.66 " fill="transparent" stroke-width="0.5" stroke="rgb(0,0,255)" />
	<polyline points="117.606,232.394 163.407,237.426 " fill="transparent" stroke-width="0.5" stroke="rgb(0,0,255)" />
	<polyline points="163.407,237.426 171.877,222.797 " fill="transparent" stroke-width="0.5" stroke="rgb(0,0,255)" />
	<polyline points="171.877,222.797 175.06,208.429 " fill="transparent" stroke-width="0.5" stroke="rgb(0,0,255)" />
	<polyline points="171.877,222.797 252.187,254.165 " fill="transparent" stroke-width="0.5" stroke="rgb(0,0,255)" />
	<polyline points="252.187,254.165 271.015,249.226 " fill="transparent" stroke-width="0.5" stroke="rgb(0,0,255)" />
	<polyline points="252.187,254.165 192.793,250.588 " fill="transparent" stroke-width="0.5" stroke="rgb(0,0,255)" />
	<polyline points="252.187,254.165 237.223,232.603 " fill="transparent" stroke-width="0.5" stroke="rgb(0,0,255)" />
	<polyline points="237.223,232.603 275.381,232.105 " fill="transparent" stroke-width="0.5" stroke="rgb(0,0,255)" />
	<polyline points="275.381,232.105 285.616,226.092 " fill="transparent" stroke-width="0.5" stroke="rgb(0,0,255)" />
	<polyline points="285.616,226.092 278.661,207.698 " fill="transparent" stroke-width="0.5" stroke="rgb(0,0,255)" />
	<polyline points="278.661,207.698 282.712,199.535 " fill="transparent" stroke-width="0.5" stroke="rgb(0,0,255)" />
	<polyline points="282.712,199.535 288.286,193.712 " fill="transparent" stroke-width="0.5" stroke="rgb(0,0,255)" />
	<polyline points="288.286,193.712 306.644,190.346 " fill="transparent" stroke-width="0.5" stroke="rgb(0,0,255)" />
	<polyline points="306.644,190.346 322.256,185.49 " fill="transparent" stroke-width="0.5" stroke="rgb(0,0,255)" />
	<polyline points="322.256,185.49 230.08,229.852 " fill="transparent" stroke-width="0.5" stroke="rgb(0,0,255)" />
	<polyline points="306.644,190.346 239.241,176.544 " fill="transparent" stroke-width="0.5" stroke="rgb(0,0,255)" />
	<polyline points="288.286,193.712 183.173,192.941 " fill="transparent" stroke-width="0.5" stroke="rgb(0,0,255)" />
	<polyline points="183.173,192.941 147.055,170.866 " fill="transparent" stroke-width="0.5" stroke="rgb(0,0,255)" />
	<polyline points="183.173,192.941 193.804,188.356 " fill="transparent" stroke-width="0.5" stroke="rgb(0,0,255)" />
	<polyline points="193.804,188.356 224.199,192.12 " fill="transparent" stroke-width="0.5" stroke="rgb(0,0,255)" />
	<polyline points="224.199,192.12 149.214,167.454 " fill="transparent" stroke-width="0.5" stroke="rgb(0,0,255)" />
	<polyline points="149.214,167.454 153.815,159.431 " fill="transparent" stroke-width="0.5" stroke="rgb(0,0,255)" />
	<polyline points="153.815,159.431 156.932,145.186 " fill="transparent" stroke-width="0.5" stroke="rgb(0,0,255)" />
	<polyline points="275.381,232.105 308.279,239.645 " fill="transparent" stroke-width="0.5" stroke="rgb(0,0,255)" />
	<polyline points="308.279,239.645 214.817,254.961 " fill="transparent" stroke-width="0.5" stroke="rgb(0,0,255)" />
	<polyline points="308.279,239.645 331.016,233.221 " fill="transparent" stroke-width="0.5" stroke="rgb(0,0,255)" />
	<polyline points="331.016,233.221 255.616,233.114 " fill="transparent" stroke-width="0.5" stroke="rgb(0,0,255)" />
	<polyline points="331.016,233.221 230.435,232.582 " fill="transparent" stroke-width="0.5" stroke="rgb(0,0,255)" />
	<polyline points="275.381,232.105 156.448,246.833 " fill="transparent" stroke-width="0.5" stroke="rgb(0,0,255)" />
	<polyline points="270.395,322.766 167.039,396.971 " fill="transparent" stroke-width="0.5" stroke="rgb(0,0,255)" />
	<polyline points="308.093,341.329 202.689,412.065 " fill="transparent" stroke-width="0.5" stroke="rgb(0,0,255)" />
	<polyline points="308.093,341.329 207.653,421.769 " fill="transparent" stroke-width="0.5" stroke="rgb(0,0,255)" />
	<polyline points="308.093,341.329 220.272,367.21 " fill="transparent" stroke-width="0.5" stroke="rgb(0,0,255)" />
	<polyline points="220.272,367.21 220.666,358.221 " fill="transparent" stroke-width="0.5" stroke="rgb(0,0,255)" />
	<polyline points="220.666,358.221 220.36,343.736 " fill="transparent" stroke-width="0.5" stroke="rgb(0,0,255)" />
	<polyline points="220.36,343.736 211.195,329.83 " fill="transparent" stroke-width="0.5" stroke="rgb(0,0,255)" />
	<polyline points="269.839,347.652 171.149,383.126 " fill="transparent" stroke-width="0.5" stroke="rgb(0,0,255)" />
	<polyline points="250.754,378.978 190.349,402.955 " fill="transparent" stroke-width="0.5" stroke="rgb(0,0,255)" />
	<polyline points="250.754,378.978 192.198,392.569 " fill="transparent" stroke-width="0.5" stroke="rgb(0,0,255)" />
	<polyline points="192.198,392.569 114.382,411.112 " fill="transparent" stroke-width="0.5" stroke="rgb(0,0,255)" />
	<polyline points="250.754,378.978 162.647,471.19 " fill="transparent" stroke-width="0.5" stroke="rgb(0,0,255)" />
	<polyline points="162.647,471.19 104.098,490.153 " fill="transparent" stroke-width="0.5" stroke="rgb(0,0,255)" />
	<polyline points="250.754,378.978 168.682,425.533 " fill="transparent" stroke-width="0.5" stroke="rgb(0,0,255)" />
	<polyline points="243.658,386.927 192.478,436.235 " fill="transparent" stroke-width="0.5" stroke="rgb(0,0,255)" />
	<polyline points="243.658,386.927 173.099,424.774 " fill="transparent" stroke-width="0.5" stroke="rgb(0,0,255)" />
	<polyline points="196.268,379.231 129.058,368.534 " fill="transparent" stroke-width="0.5" stroke="rgb(0,0,255)" />
	<polyline points="129.058,368.534 26.9666,402.617 " fill="transparent" stroke-width="0.5" stroke="rgb(0,0,255)" />
	<polyline points="130.964,382.962 70.8825,437.294 " fill="transparent" stroke-width="0.5" stroke="rgb(0,0,255)" />
	<polyline points="70.8825,437.294 20.1628,458.579 " fill="transparent" stroke-width="0.5" stroke="rgb(0,0,255)" />
	<polyline points="70.8825,437.294 1.44669,446.088 " fill="transparent" stroke-width="0.5" stroke="rgb(0,0,255)" />
	<polyline points="70.8825,437.294 57.8021,423.22 " fill="transparent" stroke-width="0.5" stroke="rgb(0,0,255)" />
	<polyline points="70.8825,437.294 63.0038,412.049 " fill="transparent" stroke-width="0.5" stroke="rgb(0,0,255)" />
	<polyline points="70.8825,437.294 79.4612,417.194 " fill="transparent" stroke-width="0.5" stroke="rgb(0,0,255)" />
	<polyline points="70.8825,437.294 89.2902,420.645 " fill="transparent" stroke-width="0.5" stroke="rgb(0,0,255)" />
	<polyline points="130.964,382.962 20.3428,426.212 " fill="transparent" stroke-width="0.5" stroke="rgb(0,0,255)" />
	<polyline points="20.3428,426.212 34.5152,412.956 " fill="transparent" stroke-width="0.5" stroke="rgb(0,0,255)" />
	<polyline points="87.2425,394.795 46.7207,371.062 " fill="transparent" stroke-width="0.5" stroke="rgb(0,0,255)" />
	<polyline points="46.7207,371.062 41.5099,349.601 " fill="transparent" stroke-width="0.5" stroke="rgb(0,0,255)" />
	<polyline points="46.7207,371.062 33.2643,354.383 " fill="transparent" stroke-width="0.5" stroke="rgb(0,0,255)" />
	<polyline points="33.2643,354.383 41.3807,332.908 " fill="transparent" stroke-width="0.5" stroke="rgb(0,0,255)" />
	<polyline points="33.2643,354.383 66.0358,346.628 " fill="transparent" stroke-width="0.5" stroke="rgb(0,0,255)" />
	<polyline points="66.0358,346.628 78.3755,337.508 " fill="transparent" stroke-width="0.5" stroke="rgb(0,0,255)" />
	<polyline points="66.0358,346.628 5.92614,322.777 " fill="transparent" stroke-width="0.5" stroke="rgb(0,0,255)" />
	<polyline points="5.92614,322.777 5.78318,310.732 " fill="transparent" stroke-width="0.5" stroke="rgb(0,0,255)" />
	<polyline points="5.78318,310.732 93.7165,378.573 " fill="transparent" stroke-width="0.5" stroke="rgb(0,0,255)" />
	<polyline points="5.78318,310.732 13.023,298.363 " fill="transparent" stroke-width="0.5" stroke="rgb(0,0,255)" />
	<polyline points="13.023,298.363 21.0126,286.68 " fill="transparent" stroke-width="0.5" stroke="rgb(0,0,255)" />
	<polyline points="21.0126,286.68 44.4991,282.577 " fill="transparent" stroke-width="0.5" stroke="rgb(0,0,255)" />
	<polyline points="21.0126,286.68 47.5409,278.464 " fill="transparent" stroke-width="0.5" stroke="rgb(0,0,255)" />
	<polyline points="47.5409,278.464 56.1679,265.43 " fill="transparent" stroke-width="0.5" stroke="rgb(0,0,255)" />
	<polyline points="56.1679,265.43 41.203,245.885 " fill="transparent" stroke-width="0.5" stroke="rgb(0,0,255)" />
	<polyline points="21.0126,286.68 24.509,274.584 " fill="transparent" stroke-width="0.5" stroke="rgb(0,0,255)" />
	<polyline points="24.509,274.584 21.7966,262.23 " fill="transparent" stroke-width="0.5" stroke="rgb(0,0,255)" />
	<polyline points="21.0126,286.68 0.836384,397.873 " fill="transparent" stroke-width="0.5" stroke="rgb(0,0,255)" />
	<polyline points="0.836384,397.873 15.9535,379.272 " fill="transparent" stroke-width="0.5" stroke="rgb(0,0,255)" />
	<polyline points="13.023,298.363 26.0435,381.735 " fill="transparent" stroke-width="0.5" stroke="rgb(0,0,255)" />
	<polyline points="26.0435,381.735 37.8567,361.775 " fill="transparent" stroke-width="0.5" stroke="rgb(0,0,255)" />
	<polyline points="26.0435,381.735 29.5493,357.48 " fill="transparent" stroke-width="0.5" stroke="rgb(0,0,255)" />
	<polyline points="5.78318,310.732 19.9884,393.15 " fill="transparent" stroke-width="0.5" stroke="rgb(0,0,255)" />
	<polyline points="19.9884,393.15 46.8445,376.17 " fill="transparent" stroke-width="0.5" stroke="rgb(0,0,255)" />
	<polyline points="5.92614,322.777 71.9445,423.892 " fill="transparent" stroke-width="0.5" stroke="rgb(0,0,255)" />
	<polyline points="5.92614,322.777 27.222,402.75 " fill="transparent" stroke-width="0.5" stroke="rgb(0,0,255)" />
	<polyline points="83.3333,416.667 27.9295,422.543 " fill="transparent" stroke-width="0.5" stroke="rgb(0,0,255)" />
	<polyline points="83.3333,416.667 10.2797,452.686 " fill="transparent" stroke-width="0.5" stroke="rgb(0,0,255)" />
	<polyline points="10.2797,452.686 39.1654,431.078 " fill="transparent" stroke-width="0.5" stroke="rgb(0,0,255)" />
	<polyline points="39.1654,431.078 41.548,411.723 " fill="transparent" stroke-width="0.5" stroke="rgb(0,0,255)" />
	<polyline points="39.1654,431.078 35.2926,414.542 " fill="transparent" stroke-width="0.5" stroke="rgb(0,0,255)" />
	<polyline points="10.2797,452.686 19.1277,437.841 " fill="transparent" stroke-width="0.5" stroke="rgb(0,0,255)" />
	<polyline points="83.3333,416.667 20.2058,446.196 " fill="transparent" stroke-width="0.5" stroke="rgb(0,0,255)" />
	<polyline points="20.2058,446.196 30.1622,420.21 " fill="transparent" stroke-width="0.5" stroke="rgb(0,0,255)" />
	<polyline points="20.2058,446.196 33.7362,426.256 " fill="transparent" stroke-width="0.5" stroke="rgb(0,0,255)" />
	<circle cx="83.3333" cy="416.667" r="2" fill="rgb(255,0,0)" />
	<circle cx="416.667" cy="83.3333" r="2" fill="rgb(0,255,0)" />
	<polyline points="83.3333,416.667 104.596,394.473 84.645,370.272 17.4637,350.351 23.9677,328.299 22.1121,306.363 17.2971,287.822 5.82003,272.411 58.3814,276.873 72.5086,267.637 79.7713,252.55 68.1936,236.874 79.6932,225.366 54.8338,211.404 44.3241,199.28 132.334,217.039 147.78,210.766 140.784,192.951 192.599,217.96 197.989,208.827 243.855,219.729 252.804,209.62 297.652,214.255 290.411,202.477 297.105,197.115 303.152,191.542 341.236,193.334 359.881,183.689 411.426,187.737 413.545,175.043 411.579,166.743 427.5,152.09 431.148,140.989 428.273,130.27 434.779,117.665 427.2,104.028 419.994,88.4653 " fill="transparent" stroke-width="3" stroke="rgb(0,0,0)" />
</svg>
