<?xml version="1.0" standalone="no" ?>
<!DOCTYPE svg PUBLIC "-//W3C//DTD SVG 1.1//EN" "http://www.w3.org/Graphics/SVG/1.1/DTD/svg11.dtd">
<svg width="500px" height="500px" xmlns="http://www.w3.org/2000/svg" version="1.1" >
	<polyline points="83.3333,416.667 112.42,406.758 " fill="transparent" stroke-width="0.5" stroke="rgb(0,0,255)" />
	<polyline points="112.42,406.758 94.3379,385.938 " fill="transparent" stroke-width="0.5" stroke="rgb(0,0,255)" />
	<polyline points="94.3379,385.938 86.1019,368.706 " fill="transparent" stroke-width="0.5" stroke="rgb(0,0,255)" />
	<polyline points="86.1019,368.706 67.0681,353.346 " fill="transparent" stroke-width="0.5" stroke="rgb(0,0,255)" />
	<polyline points="67.0681,353.346 78.2225,331.447 " fill="transparent" stroke-width="0.5" stroke="rgb(0,0,255)" />
	<polyline points="78.2225,331.447 28.9174,379.166 " fill="transparent" stroke-width="0.5" stroke="rgb(0,0,255)" />
	<polyline points="78.2225,331.447 33.7683,311.507 " fill="transparent" stroke-width="0.5" stroke="rgb(0,0,255)" />
	<polyline points="33.7683,311.507 16.4849,286.935 " fill="transparent" stroke-width="0.5" stroke="rgb(0,0,255)" />
	<polyline points="16.4849,286.935 41.925,280.779 " fill="transparent" stroke-width="0.5" stroke="rgb(0,0,255)" />
	<polyline points="41.925,280.779 64.1037,264.682 " fill="transparent" stroke-width="0.5" stroke="rgb(0,0,255)" />
	<polyline points="41.925,280.779 30.5747,351.745 " fill="transparent" stroke-width="0.5" stroke="rgb(0,0,255)" />
	<polyline points="78.2225,331.447 44.511,468.194 " fill="transparent" stroke-width="0.5" stroke="rgb(0,0,255)" />
	<polyline points="78.2225,331.447 19.9735,342.85 " fill="transparent" stroke-width="0.5" stroke="rgb(0,0,255)" />
	<polyline points="78.2225,331.447 1.76577,317.828 " fill="transparent" stroke-width="0.5" stroke="rgb(0,0,255)" />
	<polyline points="1.76577,317.828 50.1674,339.374 " fill="transparent" stroke-width="0.5" stroke="rgb(0,0,255)" />
	<polyline points="1.76577,317.828 0.283516,414.968 " fill="transparent" stroke-width="0.5" stroke="rgb(0,0,255)" />
	<polyline points="1.76577,317.828 67.6596,399.94 " fill="transparent" stroke-width="0.5" stroke="rgb(0,0,255)" />
	<polyline points="1.76577,317.828 22.7346,412.228 " fill="transparent" stroke-width="0.5" stroke="rgb(0,0,255)" />
	<polyline points="1.76577,317.828 55.5403,393.73 " fill="transparent" stroke-width="0.5" stroke="rgb(0,0,255)" />
	<polyline points="55.5403,393.73 7.84132,475.168 " fill="transparent" stroke-width="0.5" stroke="rgb(0,0,255)" />
	<polyline points="78.2225,331.447 14.131,380.385 " fill="transparent" stroke-width="0.5" stroke="rgb(0,0,255)" />
	<polyline points="67.0681,353.346 71.9031,423.853 " fill="transparent" stroke-width="0.5" stroke="rgb(0,0,255)" />
	<polyline points="94.3379,385.938 14.8248,382.025 " fill="transparent" stroke-width="0.5" stroke="rgb(0,0,255)" />
	<polyline points="14.8248,382.025 33.848,363.36 " fill="transparent" stroke-width="0.5" stroke="rgb(0,0,255)" />
	<polyline points="94.3379,385.938 49.4998,436.768 " fill="transparent" stroke-width="0.5" stroke="rgb(0,0,255)" />
	<polyline points="49.4998,436.768 64.3578,410.691 " fill="transparent" stroke-width="0.5" stroke="rgb(0,0,255)" />
	<polyline points="94.3379,385.938 1.4947,400.143 " fill="transparent" stroke-width="0.5" stroke="rgb(0,0,255)" />
	<polyline points="1.4947,400.143 11.9535,386.479 " fill="transparent" stroke-width="0.5" stroke="rgb(0,0,255)" />
	<polyline points="94.3379,385.938 66.7416,450.486 " fill="transparent" stroke-width="0.5" stroke="rgb(0,0,255)" />
	<polyline points="94.3379,385.938 38.5032,409.933 " fill="transparent" stroke-width="0.5" stroke="rgb(0,0,255)" />
	<polyline points="83.3333,416.667 20.2584,444.005 " fill="transparent" stroke-width="0.5" stroke="rgb(0,0,255)" />
	<polyline points="83.3333,416.667 133.438,416.74 " fill="transparent" stroke-width="0.5" stroke="rgb(0,0,255)" />
	<polyline points="83.3333,416.667 195.853,451.324 " fill="transparent" stroke-width="0.5" stroke="rgb(0,0,255)" />
	<polyline points="195.853,451.324 210.692,434.194 " fill="transparent" stroke-width="0.5" stroke="rgb(0,0,255)" />
	<polyline points="210.692,434.194 225.878,418.073 " fill="transparent" stroke-width="0.5" stroke="rgb(0,0,255)" />
	<polyline points="225.878,418.073 256.262,411.03 " fill="transparent" stroke-width="0.5" stroke="rgb(0,0,255)" />
	<polyline points="256.262,411.03 186.14,441.728 " fill="transparent" stroke-width="0.5" stroke="rgb(0,0,255)" />
	<polyline points="256.262,411.03 286.767,404.783 " fill="transparent" stroke-width="0.5" stroke="rgb(0,0,255)" />
	<polyline points="286.767,404.783 278.81,388.56 " fill="transparent" stroke-width="0.5" stroke="rgb(0,0,255)" />
	<polyline points="286.767,404.783 210.413,409.246 " fill="transparent" stroke-width="0.5" stroke="rgb(0,0,255)" />
	<polyline points="286.767,404.783 289.867,396.931 " fill="transparent" stroke-width="0.5" stroke="rgb(0,0,255)" />
	<polyline points="289.867,396.931 297.487,383.178 " fill="transparent" stroke-width="0.5" stroke="rgb(0,0,255)" />
	<polyline points="289.867,396.931 232.615,436.851 " fill="transparent" stroke-width="0.5" stroke="rgb(0,0,255)" />
	<polyline points="289.867,396.931 288.901,380.989 " fill="transparent" stroke-width="0.5" stroke="rgb(0,0,255)" />
	<polyline points="288.901,380.989 262.713,364.045 " fill="transparent" stroke-width="0.5" stroke="rgb(0,0,255)" />
	<polyline points="262.713,364.045 243.925,351.194 " fill="transparent" stroke-width="0.5" stroke="rgb(0,0,255)" />
	<polyline points="243.925,351.194 170.57,371.922 " fill="transparent" stroke-width="0.5" stroke="rgb(0,0,255)" />
	<polyline points="243.925,351.194 252.558,342.277 " fill="transparent" stroke-width="0.5" stroke="rgb(0,0,255)" />
	<polyline points="252.558,342.277 262.538,333.93 " fill="transparent" stroke-width="0.5" stroke="rgb(0,0,255)" />
	<polyline points="252.558,342.277 255.09,330.799 " fill="transparent" stroke-width="0.5" stroke="rgb(0,0,255)" />
	<polyline points="255.09,330.799 224.224,309.889 " fill="transparent" stroke-width="0.5" stroke="rgb(0,0,255)" />
	<polyline points="224.224,309.889 237.6,300.889 " fill="transparent" stroke-width="0.5" stroke="rgb(0,0,255)" />
	<polyline points="237.6,300.889 245.306,287.184 " fill="transparent" stroke-width="0.5" stroke="rgb(0,0,255)" />
	<polyline points="245.306,287.184 269.985,281.344 " fill="transparent" stroke-width="0.5" stroke="rgb(0,0,255)" />
	<polyline points="269.985,281.344 154.4,302.774 " fill="transparent" stroke-width="0.5" stroke="rgb(0,0,255)" />
	<polyline points="237.6,300.889 221.861,289.491 " fill="transparent" stroke-width="0.5" stroke="rgb(0,0,255)" />
	<polyline points="221.861,289.491 179.49,274.762 " fill="transparent" stroke-width="0.5" stroke="rgb(0,0,255)" />
	<polyline points="221.861,289.491 136.903,338.72 " fill="transparent" stroke-width="0.5" stroke="rgb(0,0,255)" />
	<polyline points="221.861,289.491 161.96,291.459 " fill="transparent" stroke-width="0.5" stroke="rgb(0,0,255)" />
	<polyline points="221.861,289.491 130.245,270.035 " fill="transparent" stroke-width="0.5" stroke="rgb(0,0,255)" />
	<polyline points="130.245,270.035 135.243,257.011 " fill="transparent" stroke-width="0.5" stroke="rgb(0,0,255)" />
	<polyline points="135.243,257.011 138.836,241.753 " fill="transparent" stroke-width="0.5" stroke="rgb(0,0,255)" />
	<polyline points="138.836,241.753 141.499,226.436 " fill="transparent" stroke-width="0.5" stroke="rgb(0,0,255)" />
	<polyline points="141.499,226.436 156.241,215.872 " fill="transparent" stroke-width="0.5" stroke="rgb(0,0,255)" />
	<polyline points="156.241,215.872 138.768,197.537 " fill="transparent" stroke-width="0.5" stroke="rgb(0,0,255)" />
	<polyline points="138.768,197.537 185.178,209.635 " fill="transparent" stroke-width="0.5" stroke="rgb(0,0,255)" />
	<polyline points="255.09,330.799 144.355,417.629 " fill="transparent" stroke-width="0.5" stroke="rgb(0,0,255)" />
	<polyline points="252.558,342.277 170.669,352.537 " fill="transparent" stroke-width="0.5" stroke="rgb(0,0,255)" />
	<polyline points="252.558,342.277 132.488,403.044 " fill="transparent" stroke-width="0.5" stroke="rgb(0,0,255)" />
	<polyline points="132.488,403.044 149.8,389.891 " fill="transparent" stroke-width="0.5" stroke="rgb(0,0,255)" />
	<polyline points="288.901,380.989 342.815,393.241 " fill="transparent" stroke-width="0.5" stroke="rgb(0,0,255)" />
	<polyline points="342.815,393.241 329.721,467.981 " fill="transparent" stroke-width="0.5" stroke="rgb(0,0,255)" />
	<polyline points="342.815,393.241 351.339,383.664 " fill="transparent" stroke-width="0.5" stroke="rgb(0,0,255)" />
	<polyline points="351.339,383.664 369.839,378.752 " fill="transparent" stroke-width="0.5" stroke="rgb(0,0,255)" />
	<polyline points="369.839,378.752 379.355,367.03 " fill="transparent" stroke-width="0.5" stroke="rgb(0,0,255)" />
	<polyline points="379.355,367.03 389.753,361.312 " fill="transparent" stroke-width="0.5" stroke="rgb(0,0,255)" />
	<polyline points="389.753,361.312 390.802,351.857 " fill="transparent" stroke-width="0.5" stroke="rgb(0,0,255)" />
	<polyline points="390.802,351.857 362.059,343.029 " fill="transparent" stroke-width="0.5" stroke="rgb(0,0,255)" />
	<polyline points="362.059,343.029 370.264,332.792 " fill="transparent" stroke-width="0.5" stroke="rgb(0,0,255)" />
	<polyline points="370.264,332.792 399.755,323.994 " fill="transparent" stroke-width="0.5" stroke="rgb(0,0,255)" />
	<polyline points="399.755,323.994 409.606,313.104 " fill="transparent" stroke-width="0.5" stroke="rgb(0,0,255)" />
	<polyline points="399.755,323.994 372.231,312.462 " fill="transparent" stroke-width="0.5" stroke="rgb(0,0,255)" />
	<polyline points="399.755,323.994 286.528,382.677 " fill="transparent" stroke-width="0.5" stroke="rgb(0,0,255)" />
	<polyline points="390.802,351.857 296.984,362.983 " fill="transparent" stroke-width="0.5" stroke="rgb(0,0,255)" />
	<polyline points="390.802,351.857 289.23,390.115 " fill="transparent" stroke-width="0.5" stroke="rgb(0,0,255)" />
	<polyline points="389.753,361.312 341.924,360.177 " fill="transparent" stroke-width="0.5" stroke="rgb(0,0,255)" />
	<polyline points="341.924,360.177 264.97,365.547 " fill="transparent" stroke-width="0.5" stroke="rgb(0,0,255)" />
	<polyline points="389.753,361.312 339.373,361.568 " fill="transparent" stroke-width="0.5" stroke="rgb(0,0,255)" />
	<polyline points="369.839,378.752 266.037,395.765 " fill="transparent" stroke-width="0.5" stroke="rgb(0,0,255)" />
	<polyline points="351.339,383.664 405.625,394.59 " fill="transparent" stroke-width="0.5" stroke="rgb(0,0,255)" />
	<polyline points="405.625,394.59 296.097,427.451 " fill="transparent" stroke-width="0.5" stroke="rgb(0,0,255)" />
	<polyline points="405.625,394.59 321.742,476.574 " fill="transparent" stroke-width="0.5" stroke="rgb(0,0,255)" />
	<polyline points="405.625,394.59 343.115,417.146 " fill="transparent" stroke-width="0.5" stroke="rgb(0,0,255)" />
	<polyline points="343.115,417.146 225.331,474.502 " fill="transparent" stroke-width="0.5" stroke="rgb(0,0,255)" />
	<polyline points="225.331,474.502 207.179,466.768 " fill="transparent" stroke-width="0.5" stroke="rgb(0,0,255)" />
	<polyline points="405.625,394.59 356.892,392.344 " fill="transparent" stroke-width="0.5" stroke="rgb(0,0,255)" />
	<polyline points="288.901,380.989 212.361,381.612 " fill="transparent" stroke-width="0.5" stroke="rgb(0,0,255)" />
	<polyline points="289.867,396.931 225.531,405.6 " fill="transparent" stroke-width="0.5" stroke="rgb(0,0,255)" />
	<polyline points="225.531,405.6 169.266,420.334 " fill="transparent" stroke-width="0.5" stroke="rgb(0,0,255)" />
	<polyline points="169.266,420.334 69.0444,440.992 " fill="transparent" stroke-width="0.5" stroke="rgb(0,0,255)" />
	<polyline points="169.266,420.334 169.732,404.287 " fill="transparent" stroke-width="0.5" stroke="rgb(0,0,255)" />
	<polyline points="289.867,396.931 206.508,437.253 " fill="transparent" stroke-width="0.5" stroke="rgb(0,0,255)" />
	<polyline points="286.767,404.783 229.884,444.797 " fill="transparent" stroke-width="0.5" stroke="rgb(0,0,255)" />
	<polyline points="286.767,404.783 195.503,493.39 " fill="transparent" stroke-width="0.5" stroke="rgb(0,0,255)" />
	<polyline points="195.503,493.39 222.819,481.176 " fill="transparent" stroke-width="0.5" stroke="rgb(0,0,255)" />
	<polyline points="286.767,404.783 192.789,440.396 " fill="transparent" stroke-width="0.5" stroke="rgb(0,0,255)" />
	<polyline points="192.789,440.396 196.184,430.786 " fill="transparent" stroke-width="0.5" stroke="rgb(0,0,255)" />
	<polyline points="225.878,418.073 162.612,494.096 " fill="transparent" stroke-width="0.5" stroke="rgb(0,0,255)" />
	<polyline points="195.853,451.324 118.286,460.648 " fill="transparent" stroke-width="0.5" stroke="rgb(0,0,255)" />
	<circle cx="83.3333" cy="416.667" r="2" fill="rgb(255,0,0)" />
	<circle cx="416.667" cy="83.3333" r="2" fill="rgb(0,255,0)" />
	<polyline points="83.3333,416.667 92.6909,397.711 96.8601,379.016 110.178,360.163 117.935,341.296 127.743,328.069 139.607,316.003 155.12,299.335 173.744,286.848 194.231,274.041 223.846,272.558 243.329,270.932 291.053,272.052 295.359,257.358 302.75,251.701 316.099,243.343 324.742,236.732 371.776,237.531 375.037,223.465 379.25,216.946 385.488,204.715 406.209,196.744 407.356,184.309 421.731,171.12 433.187,153.824 426.977,141.826 419.648,126.363 417.68,115.633 421.594,95.941 411.876,79.3651 " fill="transparent" stroke-width="3" stroke="rgb(0,0,0)" />
</svg>
