<?xml version="1.0" standalone="no" ?>
<!DOCTYPE svg PUBLIC "-//W3C//DTD SVG 1.1//EN" "http://www.w3.org/Graphics/SVG/1.1/DTD/svg11.dtd">
<svg width="500px" height="500px" xmlns="http://www.w3.org/2000/svg" version="1.1" >
	<circle cx="75.874" cy="325.668" r="2.5" fill="rgb(255,255,255)" />
	<circle cx="89.1764" cy="334.031" r="2.5" fill="rgb(254,254,254)" />
	<circle cx="85.3457" cy="328.106" r="2.5" fill="rgb(250,250,250)" />
	<circle cx="16.8184" cy="271.417" r="2.5" fill="rgb(234,234,234)" />
	<circle cx="85.8762" cy="291.317" r="2.5" fill="rgb(229,229,229)" />
	<circle cx="97.3689" cy="307.951" r="2.5" fill="rgb(229,229,229)" />
	<circle cx="42.7645" cy="138.777" r="2.5" fill="rgb(205,205,205)" />
	<circle cx="72.9" cy="317.438" r="2.5" fill="rgb(193,193,193)" />
	<circle cx="27.7251" cy="307.296" r="2.5" fill="rgb(188,188,188)" />
	<circle cx="70.3713" cy="169.985" r="2.5" fill="rgb(160,160,160)" />
	<circle cx="106.158" cy="164.435" r="2.5" fill="rgb(157,157,157)" />
	<circle cx="18.7974" cy="221.873" r="2.5" fill="rgb(154,154,154)" />
	<circle cx="52.148" cy="291.352" r="2.5" fill="rgb(151,151,151)" />
	<circle cx="98.023" cy="186.253" r="2.5" fill="rgb(127,127,127)" />
	<circle cx="42.3687" cy="213.543" r="2.5" fill="rgb(122,122,122)" />
	<circle cx="84.3399" cy="267.166" r="2.5" fill="rgb(104,104,104)" />
	<circle cx="60.3106" cy="196.133" r="2.5" fill="rgb(90,90,90)" />
	<circle cx="91.8374" cy="223.021" r="2.5" fill="rgb(84,84,84)" />
	<circle cx="71.6506" cy="227.479" r="2.5" fill="rgb(48,48,48)" />
	<circle cx="41.6667" cy="250" r="2" fill="rgb(255,0,0)" />
	<circle cx="458.333" cy="250" r="2" fill="rgb(0,255,0)" />
	<circle cx="41.6667" cy="250" r="2" fill="rgb(0,255,0)" />
	<circle cx="74.1494" cy="257.482" r="2" fill="rgb(0,255,0)" />
	<circle cx="95.1764" cy="252.639" r="2" fill="rgb(0,255,0)" />
	<circle cx="102.418" cy="243.804" r="2" fill="rgb(0,255,0)" />
	<circle cx="85.7936" cy="195.988" r="2" fill="rgb(0,255,0)" />
	<circle cx="75.2685" cy="164.36" r="2" fill="rgb(0,255,0)" />
	<circle cx="93.1331" cy="146.871" r="2" fill="rgb(0,255,0)" />
	<circle cx="117.388" cy="140.812" r="2" fill="rgb(0,255,0)" />
	<circle cx="123.454" cy="156.706" r="2" fill="rgb(0,255,0)" />
	<circle cx="139.598" cy="150.803" r="2" fill="rgb(0,255,0)" />
	<circle cx="155.245" cy="112.068" r="2" fill="rgb(0,255,0)" />
	<circle cx="169.865" cy="86.8301" r="2" fill="rgb(0,255,0)" />
	<circle cx="190.047" cy="81.6611" r="2" fill="rgb(0,255,0)" />
	<circle cx="227.533" cy="82.6888" r="2" fill="rgb(0,255,0)" />
	<circle cx="240.32" cy="56.4746" r="2" fill="rgb(0,255,0)" />
	<circle cx="275.357" cy="43.1092" r="2" fill="rgb(0,255,0)" />
	<circle cx="286.574" cy="70.0324" r="2" fill="rgb(0,255,0)" />
	<circle cx="314.395" cy="78.7909" r="2" fill="rgb(0,255,0)" />
	<circle cx="319.099" cy="45.7911" r="2" fill="rgb(0,255,0)" />
	<circle cx="313.13" cy="82.813" r="2" fill="rgb(0,255,0)" />
	<circle cx="329.466" cy="101.738" r="2" fill="rgb(0,255,0)" />
	<circle cx="353.025" cy="93.3739" r="2" fill="rgb(0,255,0)" />
	<circle cx="384.073" cy="105.502" r="2" fill="rgb(0,255,0)" />
	<circle cx="416.918" cy="131.141" r="2" fill="rgb(0,255,0)" />
	<circle cx="438.791" cy="161.601" r="2" fill="rgb(0,255,0)" />
	<circle cx="433.979" cy="186.133" r="2" fill="rgb(0,255,0)" />
	<circle cx="461.64" cy="211.454" r="2" fill="rgb(0,255,0)" />
	<circle cx="462.315" cy="240.613" r="2" fill="rgb(0,255,0)" />
</svg>
