<?xml version="1.0" standalone="no" ?>
<!DOCTYPE svg PUBLIC "-//W3C//DTD SVG 1.1//EN" "http://www.w3.org/Graphics/SVG/1.1/DTD/svg11.dtd">
<svg width="500px" height="500px" xmlns="http://www.w3.org/2000/svg" version="1.1" >
	<circle cx="258.408" cy="289.452" r="2.5" fill="rgb(255,255,255)" />
	<circle cx="253.684" cy="283.789" r="2.5" fill="rgb(255,255,255)" />
	<circle cx="262.649" cy="283.667" r="2.5" fill="rgb(255,255,255)" />
	<circle cx="260.18" cy="288.173" r="2.5" fill="rgb(255,255,255)" />
	<circle cx="256.38" cy="272.978" r="2.5" fill="rgb(255,255,255)" />
	<circle cx="261.715" cy="267.102" r="2.5" fill="rgb(255,255,255)" />
	<circle cx="259.435" cy="271.162" r="2.5" fill="rgb(255,255,255)" />
	<circle cx="262.838" cy="303.676" r="2.5" fill="rgb(255,255,255)" />
	<circle cx="256.015" cy="293.601" r="2.5" fill="rgb(255,255,255)" />
	<circle cx="255.194" cy="299.201" r="2.5" fill="rgb(255,255,255)" />
	<circle cx="254.831" cy="293.034" r="2.5" fill="rgb(255,255,255)" />
	<circle cx="259.875" cy="293.06" r="2.5" fill="rgb(255,255,255)" />
	<circle cx="261.091" cy="303.742" r="2.5" fill="rgb(255,255,255)" />
	<circle cx="266.502" cy="296.407" r="2.5" fill="rgb(255,255,255)" />
	<circle cx="269.23" cy="300.195" r="2.5" fill="rgb(255,255,255)" />
	<circle cx="263.634" cy="293.033" r="2.5" fill="rgb(255,255,255)" />
	<circle cx="262.779" cy="301.29" r="2.5" fill="rgb(255,255,255)" />
	<circle cx="245.212" cy="229.135" r="2.5" fill="rgb(255,255,255)" />
	<circle cx="233.436" cy="238.08" r="2.5" fill="rgb(255,255,255)" />
	<circle cx="227.061" cy="227.427" r="2.5" fill="rgb(255,255,255)" />
	<circle cx="221.722" cy="236.449" r="2.5" fill="rgb(255,255,255)" />
	<circle cx="248.048" cy="228.843" r="2.5" fill="rgb(255,255,255)" />
	<circle cx="252.951" cy="235.793" r="2.5" fill="rgb(255,255,255)" />
	<circle cx="250.454" cy="228.474" r="2.5" fill="rgb(255,255,255)" />
	<circle cx="257.299" cy="226.987" r="2.5" fill="rgb(255,255,255)" />
	<circle cx="263.212" cy="238.569" r="2.5" fill="rgb(255,255,255)" />
	<circle cx="262.845" cy="244.14" r="2.5" fill="rgb(255,255,255)" />
	<circle cx="263.795" cy="242.814" r="2.5" fill="rgb(255,255,255)" />
	<circle cx="267.361" cy="240.951" r="2.5" fill="rgb(255,255,255)" />
	<circle cx="265.051" cy="240.052" r="2.5" fill="rgb(255,255,255)" />
	<circle cx="260.955" cy="248.3" r="2.5" fill="rgb(255,255,255)" />
	<circle cx="259.39" cy="247.024" r="2.5" fill="rgb(255,255,255)" />
	<circle cx="266.709" cy="246.768" r="2.5" fill="rgb(255,255,255)" />
	<circle cx="259.068" cy="247.406" r="2.5" fill="rgb(255,255,255)" />
	<circle cx="247.248" cy="233.509" r="2.5" fill="rgb(255,255,255)" />
	<circle cx="248.402" cy="233.113" r="2.5" fill="rgb(255,255,255)" />
	<circle cx="260.258" cy="231.327" r="2.5" fill="rgb(255,255,255)" />
	<circle cx="221.079" cy="235.576" r="2.5" fill="rgb(255,255,255)" />
	<circle cx="220.475" cy="237.079" r="2.5" fill="rgb(255,255,255)" />
	<circle cx="233.754" cy="214.727" r="2.5" fill="rgb(255,255,255)" />
	<circle cx="227.098" cy="218.204" r="2.5" fill="rgb(255,255,255)" />
	<circle cx="209.641" cy="246.653" r="2.5" fill="rgb(255,255,255)" />
	<circle cx="207.72" cy="250.878" r="2.5" fill="rgb(255,255,255)" />
	<circle cx="217.909" cy="237.393" r="2.5" fill="rgb(255,255,255)" />
	<circle cx="225.358" cy="248.499" r="2.5" fill="rgb(255,255,255)" />
	<circle cx="223.463" cy="298.903" r="2.5" fill="rgb(255,255,255)" />
	<circle cx="218.397" cy="295.043" r="2.5" fill="rgb(255,255,255)" />
	<circle cx="217.781" cy="297.745" r="2.5" fill="rgb(255,255,255)" />
	<circle cx="221.843" cy="294.47" r="2.5" fill="rgb(255,255,255)" />
	<circle cx="219.364" cy="303.325" r="2.5" fill="rgb(255,255,255)" />
	<circle cx="227.186" cy="301.574" r="2.5" fill="rgb(255,255,255)" />
	<circle cx="226.328" cy="305.06" r="2.5" fill="rgb(255,255,255)" />
	<circle cx="226" cy="297.039" r="2.5" fill="rgb(255,255,255)" />
	<circle cx="219.923" cy="298.828" r="2.5" fill="rgb(255,255,255)" />
	<circle cx="214.128" cy="303.145" r="2.5" fill="rgb(255,255,255)" />
	<circle cx="224.829" cy="305.798" r="2.5" fill="rgb(255,255,255)" />
	<circle cx="215.908" cy="300.041" r="2.5" fill="rgb(255,255,255)" />
	<circle cx="249.921" cy="305.853" r="2.5" fill="rgb(255,255,255)" />
	<circle cx="246.796" cy="298.116" r="2.5" fill="rgb(255,255,255)" />
	<circle cx="252.022" cy="295.74" r="2.5" fill="rgb(255,255,255)" />
	<circle cx="246.507" cy="294.429" r="2.5" fill="rgb(255,255,255)" />
	<circle cx="243.587" cy="297.486" r="2.5" fill="rgb(255,255,255)" />
	<circle cx="256.618" cy="296.076" r="2.5" fill="rgb(255,255,255)" />
	<circle cx="252.549" cy="297.867" r="2.5" fill="rgb(255,255,255)" />
	<circle cx="248.659" cy="290.807" r="2.5" fill="rgb(255,255,255)" />
	<circle cx="234.12" cy="298.387" r="2.5" fill="rgb(255,255,255)" />
	<circle cx="238.614" cy="310.884" r="2.5" fill="rgb(255,255,255)" />
	<circle cx="243.192" cy="320.21" r="2.5" fill="rgb(255,255,255)" />
	<circle cx="247.278" cy="308.94" r="2.5" fill="rgb(255,255,255)" />
	<circle cx="235.673" cy="322.458" r="2.5" fill="rgb(255,255,255)" />
	<circle cx="239.617" cy="318.765" r="2.5" fill="rgb(255,255,255)" />
	<circle cx="239.823" cy="322.26" r="2.5" fill="rgb(255,255,255)" />
	<circle cx="240.026" cy="329.111" r="2.5" fill="rgb(255,255,255)" />
	<circle cx="239.76" cy="315.492" r="2.5" fill="rgb(255,255,255)" />
	<circle cx="246.037" cy="327.689" r="2.5" fill="rgb(255,255,255)" />
	<circle cx="241.648" cy="324.728" r="2.5" fill="rgb(255,255,255)" />
	<circle cx="267.538" cy="280.046" r="2.5" fill="rgb(254,254,254)" />
	<circle cx="268.418" cy="282.018" r="2.5" fill="rgb(254,254,254)" />
	<circle cx="198.837" cy="264.282" r="2.5" fill="rgb(229,229,229)" />
	<circle cx="188.048" cy="272.895" r="2.5" fill="rgb(229,229,229)" />
	<circle cx="184.822" cy="265.358" r="2.5" fill="rgb(229,229,229)" />
	<circle cx="192.011" cy="266.3" r="2.5" fill="rgb(229,229,229)" />
	<circle cx="198.68" cy="260.968" r="2.5" fill="rgb(229,229,229)" />
	<circle cx="185.104" cy="265.802" r="2.5" fill="rgb(229,229,229)" />
	<circle cx="266.537" cy="253.506" r="2.5" fill="rgb(229,229,229)" />
	<circle cx="257.5" cy="255.181" r="2.5" fill="rgb(229,229,229)" />
	<circle cx="265.113" cy="264.857" r="2.5" fill="rgb(229,229,229)" />
	<circle cx="232.594" cy="254.179" r="2.5" fill="rgb(229,229,229)" />
	<circle cx="202.424" cy="260.861" r="2.5" fill="rgb(229,229,229)" />
	<circle cx="206.673" cy="265.323" r="2.5" fill="rgb(229,229,229)" />
	<circle cx="210.932" cy="257.769" r="2.5" fill="rgb(229,229,229)" />
	<circle cx="206.389" cy="269.437" r="2.5" fill="rgb(229,229,229)" />
	<circle cx="227.756" cy="245.581" r="2.5" fill="rgb(229,229,229)" />
	<circle cx="224.524" cy="258.464" r="2.5" fill="rgb(229,229,229)" />
	<circle cx="222.379" cy="253.429" r="2.5" fill="rgb(229,229,229)" />
	<circle cx="203.875" cy="283.219" r="2.5" fill="rgb(229,229,229)" />
	<circle cx="207.162" cy="311.01" r="2.5" fill="rgb(229,229,229)" />
	<circle cx="216.407" cy="305.244" r="2.5" fill="rgb(229,229,229)" />
	<circle cx="206.62" cy="311.78" r="2.5" fill="rgb(229,229,229)" />
	<circle cx="205.627" cy="308.645" r="2.5" fill="rgb(229,229,229)" />
	<circle cx="219.175" cy="313.585" r="2.5" fill="rgb(229,229,229)" />
	<circle cx="215.656" cy="314.658" r="2.5" fill="rgb(229,229,229)" />
	<circle cx="205.706" cy="296.115" r="2.5" fill="rgb(229,229,229)" />
	<circle cx="213.235" cy="310.741" r="2.5" fill="rgb(229,229,229)" />
	<circle cx="218.469" cy="322.817" r="2.5" fill="rgb(229,229,229)" />
	<circle cx="220.067" cy="315.469" r="2.5" fill="rgb(229,229,229)" />
	<circle cx="214.919" cy="321.357" r="2.5" fill="rgb(229,229,229)" />
	<circle cx="245.527" cy="310.679" r="2.5" fill="rgb(229,229,229)" />
	<circle cx="239.982" cy="299.748" r="2.5" fill="rgb(229,229,229)" />
	<circle cx="256.66" cy="276.971" r="2.5" fill="rgb(229,229,229)" />
	<circle cx="253.137" cy="267.744" r="2.5" fill="rgb(229,229,229)" />
	<circle cx="249.629" cy="273.236" r="2.5" fill="rgb(229,229,229)" />
	<circle cx="239.291" cy="240.93" r="2.5" fill="rgb(229,229,229)" />
	<circle cx="242.786" cy="251.864" r="2.5" fill="rgb(229,229,229)" />
	<circle cx="239.42" cy="269.913" r="2.5" fill="rgb(229,229,229)" />
	<circle cx="234.515" cy="267.333" r="2.5" fill="rgb(229,229,229)" />
	<circle cx="236.439" cy="272.315" r="2.5" fill="rgb(229,229,229)" />
	<circle cx="239.355" cy="276.643" r="2.5" fill="rgb(229,229,229)" />
	<circle cx="247.278" cy="258.757" r="2.5" fill="rgb(229,229,229)" />
	<circle cx="251.543" cy="257.253" r="2.5" fill="rgb(229,229,229)" />
	<circle cx="215.297" cy="259" r="2.5" fill="rgb(229,229,229)" />
	<circle cx="223.505" cy="271.146" r="2.5" fill="rgb(229,229,229)" />
	<circle cx="217.495" cy="256.584" r="2.5" fill="rgb(229,229,229)" />
	<circle cx="212.224" cy="260.14" r="2.5" fill="rgb(229,229,229)" />
	<circle cx="217.478" cy="255.113" r="2.5" fill="rgb(229,229,229)" />
	<circle cx="223.442" cy="259.264" r="2.5" fill="rgb(229,229,229)" />
	<circle cx="193.58" cy="290.508" r="2.5" fill="rgb(229,229,229)" />
	<circle cx="189.613" cy="282.76" r="2.5" fill="rgb(229,229,229)" />
	<circle cx="191.698" cy="291.377" r="2.5" fill="rgb(229,229,229)" />
	<circle cx="204.658" cy="296.743" r="2.5" fill="rgb(229,229,229)" />
	<circle cx="212.962" cy="300.58" r="2.5" fill="rgb(229,229,229)" />
	<circle cx="224.499" cy="318.88" r="2.5" fill="rgb(229,229,229)" />
	<circle cx="219.251" cy="306.398" r="2.5" fill="rgb(229,229,229)" />
	<circle cx="224.326" cy="310.303" r="2.5" fill="rgb(229,229,229)" />
	<circle cx="226.761" cy="318.907" r="2.5" fill="rgb(229,229,229)" />
	<circle cx="229.858" cy="312.271" r="2.5" fill="rgb(229,229,229)" />
	<circle cx="224.628" cy="312.565" r="2.5" fill="rgb(229,229,229)" />
	<circle cx="230.06" cy="305.385" r="2.5" fill="rgb(229,229,229)" />
	<circle cx="211.488" cy="313.309" r="2.5" fill="rgb(229,229,229)" />
	<circle cx="221.419" cy="312.615" r="2.5" fill="rgb(229,229,229)" />
	<circle cx="235.318" cy="302.191" r="2.5" fill="rgb(229,229,229)" />
	<circle cx="240.743" cy="294.046" r="2.5" fill="rgb(229,229,229)" />
	<circle cx="234.05" cy="301.85" r="2.5" fill="rgb(229,229,229)" />
	<circle cx="233.652" cy="304.582" r="2.5" fill="rgb(229,229,229)" />
	<circle cx="238.493" cy="276.789" r="2.5" fill="rgb(229,229,229)" />
	<circle cx="237.697" cy="277.297" r="2.5" fill="rgb(229,229,229)" />
	<circle cx="242.58" cy="278.975" r="2.5" fill="rgb(229,229,229)" />
	<circle cx="246.363" cy="277.717" r="2.5" fill="rgb(229,229,229)" />
	<circle cx="243.327" cy="269.953" r="2.5" fill="rgb(229,229,229)" />
	<circle cx="250.874" cy="270.469" r="2.5" fill="rgb(229,229,229)" />
	<circle cx="271.2" cy="245.13" r="2.5" fill="rgb(229,229,229)" />
	<circle cx="268.717" cy="242.799" r="2.5" fill="rgb(229,229,229)" />
	<circle cx="239.434" cy="229.546" r="2.5" fill="rgb(229,229,229)" />
	<circle cx="245.503" cy="230.349" r="2.5" fill="rgb(229,229,229)" />
	<circle cx="237.435" cy="240.901" r="2.5" fill="rgb(229,229,229)" />
	<circle cx="248.12" cy="238.053" r="2.5" fill="rgb(229,229,229)" />
	<circle cx="237.954" cy="242.346" r="2.5" fill="rgb(229,229,229)" />
	<circle cx="239.402" cy="240.283" r="2.5" fill="rgb(229,229,229)" />
	<circle cx="235.164" cy="245.021" r="2.5" fill="rgb(229,229,229)" />
	<circle cx="237.336" cy="248.463" r="2.5" fill="rgb(229,229,229)" />
	<circle cx="239.668" cy="249.725" r="2.5" fill="rgb(229,229,229)" />
	<circle cx="234.824" cy="254.099" r="2.5" fill="rgb(229,229,229)" />
	<circle cx="243.784" cy="292.316" r="2.5" fill="rgb(229,229,229)" />
	<circle cx="231.424" cy="323.769" r="2.5" fill="rgb(229,229,229)" />
	<circle cx="241.816" cy="314.743" r="2.5" fill="rgb(229,229,229)" />
	<circle cx="235.922" cy="321.229" r="2.5" fill="rgb(229,229,229)" />
	<circle cx="232.921" cy="318.695" r="2.5" fill="rgb(229,229,229)" />
	<circle cx="239.635" cy="319.099" r="2.5" fill="rgb(229,229,229)" />
	<circle cx="254.472" cy="282.113" r="2.5" fill="rgb(229,229,229)" />
	<circle cx="245.058" cy="281.672" r="2.5" fill="rgb(229,229,229)" />
	<circle cx="256.626" cy="272.785" r="2.5" fill="rgb(229,229,229)" />
	<circle cx="262.344" cy="295.512" r="2.5" fill="rgb(229,229,229)" />
	<circle cx="255.485" cy="290.846" r="2.5" fill="rgb(229,229,229)" />
	<circle cx="250.274" cy="292.285" r="2.5" fill="rgb(229,229,229)" />
	<circle cx="240.136" cy="286.759" r="2.5" fill="rgb(229,229,229)" />
	<circle cx="235.039" cy="271.402" r="2.5" fill="rgb(229,229,229)" />
	<circle cx="227.605" cy="269.729" r="2.5" fill="rgb(229,229,229)" />
	<circle cx="237.618" cy="232.18" r="2.5" fill="rgb(229,229,229)" />
	<circle cx="229.41" cy="234.826" r="2.5" fill="rgb(229,229,229)" />
	<circle cx="238.359" cy="233.243" r="2.5" fill="rgb(229,229,229)" />
	<circle cx="237.158" cy="234.879" r="2.5" fill="rgb(229,229,229)" />
	<circle cx="248.606" cy="232.172" r="2.5" fill="rgb(229,229,229)" />
	<circle cx="252.056" cy="235.611" r="2.5" fill="rgb(229,229,229)" />
	<circle cx="243.413" cy="237.499" r="2.5" fill="rgb(229,229,229)" />
	<circle cx="244.396" cy="231.196" r="2.5" fill="rgb(229,229,229)" />
	<circle cx="257.427" cy="230.047" r="2.5" fill="rgb(229,229,229)" />
	<circle cx="249.265" cy="229.19" r="2.5" fill="rgb(229,229,229)" />
	<circle cx="263.532" cy="242.569" r="2.5" fill="rgb(229,229,229)" />
	<circle cx="260.13" cy="251.02" r="2.5" fill="rgb(229,229,229)" />
	<circle cx="254.405" cy="233.633" r="2.5" fill="rgb(229,229,229)" />
	<circle cx="248.457" cy="232.843" r="2.5" fill="rgb(229,229,229)" />
	<circle cx="253.139" cy="231.449" r="2.5" fill="rgb(229,229,229)" />
	<circle cx="228.315" cy="235.941" r="2.5" fill="rgb(229,229,229)" />
	<circle cx="234.135" cy="222.638" r="2.5" fill="rgb(229,229,229)" />
	<circle cx="231.106" cy="239.005" r="2.5" fill="rgb(229,229,229)" />
	<circle cx="228.618" cy="245.395" r="2.5" fill="rgb(229,229,229)" />
	<circle cx="227.882" cy="250.664" r="2.5" fill="rgb(229,229,229)" />
	<circle cx="222.123" cy="253.529" r="2.5" fill="rgb(229,229,229)" />
	<circle cx="218.033" cy="245.722" r="2.5" fill="rgb(229,229,229)" />
	<circle cx="220.217" cy="259.17" r="2.5" fill="rgb(229,229,229)" />
	<circle cx="215.79" cy="250.409" r="2.5" fill="rgb(229,229,229)" />
	<circle cx="217.31" cy="250.503" r="2.5" fill="rgb(229,229,229)" />
	<circle cx="207.974" cy="282.284" r="2.5" fill="rgb(229,229,229)" />
	<circle cx="200.009" cy="283.886" r="2.5" fill="rgb(229,229,229)" />
	<circle cx="207.675" cy="279.664" r="2.5" fill="rgb(229,229,229)" />
	<circle cx="212.332" cy="283.166" r="2.5" fill="rgb(229,229,229)" />
	<circle cx="212.269" cy="278.175" r="2.5" fill="rgb(229,229,229)" />
	<circle cx="202.789" cy="266.024" r="2.5" fill="rgb(229,229,229)" />
	<circle cx="203.387" cy="275.76" r="2.5" fill="rgb(229,229,229)" />
	<circle cx="202.373" cy="270.612" r="2.5" fill="rgb(229,229,229)" />
	<circle cx="193.738" cy="270.649" r="2.5" fill="rgb(229,229,229)" />
	<circle cx="200.579" cy="274.478" r="2.5" fill="rgb(229,229,229)" />
	<circle cx="193.489" cy="279.946" r="2.5" fill="rgb(229,229,229)" />
	<circle cx="220.863" cy="275.591" r="2.5" fill="rgb(229,229,229)" />
	<circle cx="202.381" cy="263.643" r="2.5" fill="rgb(229,229,229)" />
	<circle cx="203.551" cy="252.648" r="2.5" fill="rgb(229,229,229)" />
	<circle cx="208.067" cy="251.006" r="2.5" fill="rgb(229,229,229)" />
	<circle cx="199.535" cy="242.526" r="2.5" fill="rgb(229,229,229)" />
	<circle cx="200.463" cy="249.539" r="2.5" fill="rgb(229,229,229)" />
	<circle cx="195.264" cy="245.184" r="2.5" fill="rgb(229,229,229)" />
	<circle cx="207.97" cy="249.313" r="2.5" fill="rgb(229,229,229)" />
	<circle cx="206.012" cy="249.969" r="2.5" fill="rgb(229,229,229)" />
	<circle cx="220.431" cy="245.179" r="2.5" fill="rgb(229,229,229)" />
	<circle cx="215.572" cy="251.22" r="2.5" fill="rgb(229,229,229)" />
	<circle cx="210.537" cy="246.27" r="2.5" fill="rgb(229,229,229)" />
	<circle cx="217.479" cy="246.482" r="2.5" fill="rgb(229,229,229)" />
	<circle cx="217.421" cy="247.509" r="2.5" fill="rgb(229,229,229)" />
	<circle cx="220.73" cy="252.994" r="2.5" fill="rgb(229,229,229)" />
	<circle cx="223.794" cy="300.571" r="2.5" fill="rgb(229,229,229)" />
	<circle cx="219.229" cy="300.732" r="2.5" fill="rgb(229,229,229)" />
	<circle cx="222.533" cy="298.302" r="2.5" fill="rgb(229,229,229)" />
	<circle cx="231.213" cy="286.475" r="2.5" fill="rgb(229,229,229)" />
	<circle cx="246.748" cy="298.153" r="2.5" fill="rgb(229,229,229)" />
	<circle cx="250.482" cy="293.779" r="2.5" fill="rgb(229,229,229)" />
	<circle cx="238.625" cy="302.688" r="2.5" fill="rgb(229,229,229)" />
	<circle cx="240.509" cy="312.334" r="2.5" fill="rgb(229,229,229)" />
	<circle cx="238.274" cy="311.955" r="2.5" fill="rgb(229,229,229)" />
	<circle cx="234.66" cy="307.667" r="2.5" fill="rgb(229,229,229)" />
	<circle cx="235.984" cy="309.431" r="2.5" fill="rgb(229,229,229)" />
	<circle cx="238.346" cy="319.861" r="2.5" fill="rgb(229,229,229)" />
	<circle cx="241.13" cy="323.712" r="2.5" fill="rgb(229,229,229)" />
	<circle cx="261.667" cy="277.906" r="2.5" fill="rgb(229,229,229)" />
	<circle cx="255.862" cy="282.436" r="2.5" fill="rgb(229,229,229)" />
	<circle cx="191.735" cy="265.426" r="2.5" fill="rgb(204,204,204)" />
	<circle cx="195.019" cy="264.016" r="2.5" fill="rgb(204,204,204)" />
	<circle cx="194.99" cy="270.531" r="2.5" fill="rgb(204,204,204)" />
	<circle cx="198.763" cy="269.881" r="2.5" fill="rgb(204,204,204)" />
	<circle cx="260.242" cy="256.034" r="2.5" fill="rgb(204,204,204)" />
	<circle cx="259.017" cy="261.784" r="2.5" fill="rgb(204,204,204)" />
	<circle cx="250.654" cy="256.582" r="2.5" fill="rgb(204,204,204)" />
	<circle cx="228.847" cy="255.46" r="2.5" fill="rgb(204,204,204)" />
	<circle cx="226.297" cy="257.821" r="2.5" fill="rgb(204,204,204)" />
	<circle cx="255.061" cy="261.943" r="2.5" fill="rgb(204,204,204)" />
	<circle cx="210.201" cy="263.852" r="2.5" fill="rgb(204,204,204)" />
	<circle cx="229.68" cy="252.141" r="2.5" fill="rgb(204,204,204)" />
	<circle cx="227.404" cy="278.532" r="2.5" fill="rgb(204,204,204)" />
	<circle cx="210.869" cy="285.213" r="2.5" fill="rgb(204,204,204)" />
	<circle cx="213.812" cy="307.697" r="2.5" fill="rgb(204,204,204)" />
	<circle cx="210.754" cy="298.045" r="2.5" fill="rgb(204,204,204)" />
	<circle cx="214.033" cy="302.608" r="2.5" fill="rgb(204,204,204)" />
	<circle cx="219.986" cy="315.118" r="2.5" fill="rgb(204,204,204)" />
	<circle cx="243.906" cy="303.485" r="2.5" fill="rgb(204,204,204)" />
	<circle cx="227.977" cy="288.156" r="2.5" fill="rgb(204,204,204)" />
	<circle cx="245.444" cy="258.205" r="2.5" fill="rgb(204,204,204)" />
	<circle cx="217.205" cy="261.354" r="2.5" fill="rgb(204,204,204)" />
	<circle cx="221.165" cy="262.576" r="2.5" fill="rgb(204,204,204)" />
	<circle cx="197.424" cy="285.576" r="2.5" fill="rgb(204,204,204)" />
	<circle cx="211.95" cy="296.965" r="2.5" fill="rgb(204,204,204)" />
	<circle cx="224.076" cy="311.886" r="2.5" fill="rgb(204,204,204)" />
	<circle cx="221.817" cy="304.242" r="2.5" fill="rgb(204,204,204)" />
	<circle cx="216.516" cy="308.751" r="2.5" fill="rgb(204,204,204)" />
	<circle cx="218.486" cy="311.088" r="2.5" fill="rgb(204,204,204)" />
	<circle cx="238.202" cy="300.787" r="2.5" fill="rgb(204,204,204)" />
	<circle cx="249.611" cy="273.192" r="2.5" fill="rgb(204,204,204)" />
	<circle cx="240.139" cy="274.122" r="2.5" fill="rgb(204,204,204)" />
	<circle cx="239.288" cy="249.101" r="2.5" fill="rgb(204,204,204)" />
	<circle cx="240.465" cy="254.246" r="2.5" fill="rgb(204,204,204)" />
	<circle cx="238.093" cy="269.39" r="2.5" fill="rgb(204,204,204)" />
	<circle cx="232.053" cy="257.272" r="2.5" fill="rgb(204,204,204)" />
	<circle cx="220.872" cy="263.492" r="2.5" fill="rgb(204,204,204)" />
	<circle cx="234.719" cy="269.221" r="2.5" fill="rgb(204,204,204)" />
	<circle cx="225.571" cy="295.03" r="2.5" fill="rgb(204,204,204)" />
	<circle cx="218.624" cy="299.078" r="2.5" fill="rgb(204,204,204)" />
	<circle cx="242.966" cy="271.473" r="2.5" fill="rgb(204,204,204)" />
	<circle cx="265.383" cy="250.352" r="2.5" fill="rgb(204,204,204)" />
	<circle cx="240.199" cy="235.928" r="2.5" fill="rgb(204,204,204)" />
	<circle cx="238.395" cy="240.552" r="2.5" fill="rgb(204,204,204)" />
	<circle cx="235.407" cy="244.558" r="2.5" fill="rgb(204,204,204)" />
	<circle cx="223.167" cy="300.181" r="2.5" fill="rgb(204,204,204)" />
	<circle cx="237.662" cy="295.707" r="2.5" fill="rgb(204,204,204)" />
	<circle cx="235.983" cy="292.039" r="2.5" fill="rgb(204,204,204)" />
	<circle cx="230.758" cy="296.234" r="2.5" fill="rgb(204,204,204)" />
	<circle cx="236.88" cy="299.631" r="2.5" fill="rgb(204,204,204)" />
	<circle cx="242.21" cy="294.73" r="2.5" fill="rgb(204,204,204)" />
	<circle cx="235.831" cy="305.526" r="2.5" fill="rgb(204,204,204)" />
	<circle cx="236.711" cy="306.023" r="2.5" fill="rgb(204,204,204)" />
	<circle cx="230.055" cy="304.099" r="2.5" fill="rgb(204,204,204)" />
	<circle cx="235.738" cy="307.453" r="2.5" fill="rgb(204,204,204)" />
	<circle cx="246.457" cy="295.033" r="2.5" fill="rgb(204,204,204)" />
	<circle cx="238.432" cy="319.8" r="2.5" fill="rgb(204,204,204)" />
	<circle cx="238.159" cy="306.26" r="2.5" fill="rgb(204,204,204)" />
	<circle cx="249.939" cy="282.248" r="2.5" fill="rgb(204,204,204)" />
	<circle cx="251.49" cy="277.261" r="2.5" fill="rgb(204,204,204)" />
	<circle cx="255.679" cy="290.939" r="2.5" fill="rgb(204,204,204)" />
	<circle cx="244.37" cy="287.645" r="2.5" fill="rgb(204,204,204)" />
	<circle cx="258.49" cy="284.875" r="2.5" fill="rgb(204,204,204)" />
	<circle cx="256.21" cy="279.244" r="2.5" fill="rgb(204,204,204)" />
	<circle cx="234.433" cy="267.552" r="2.5" fill="rgb(204,204,204)" />
	<circle cx="235.752" cy="270.505" r="2.5" fill="rgb(204,204,204)" />
	<circle cx="257.152" cy="250.431" r="2.5" fill="rgb(204,204,204)" />
	<circle cx="236.204" cy="237.969" r="2.5" fill="rgb(204,204,204)" />
	<circle cx="241.941" cy="240.048" r="2.5" fill="rgb(204,204,204)" />
	<circle cx="243.797" cy="235.905" r="2.5" fill="rgb(204,204,204)" />
	<circle cx="251.488" cy="235.572" r="2.5" fill="rgb(204,204,204)" />
	<circle cx="257.883" cy="248.048" r="2.5" fill="rgb(204,204,204)" />
	<circle cx="258.998" cy="243.864" r="2.5" fill="rgb(204,204,204)" />
	<circle cx="253.066" cy="239.779" r="2.5" fill="rgb(204,204,204)" />
	<circle cx="257.219" cy="237.943" r="2.5" fill="rgb(204,204,204)" />
	<circle cx="245.198" cy="243.352" r="2.5" fill="rgb(204,204,204)" />
	<circle cx="228.738" cy="239.203" r="2.5" fill="rgb(204,204,204)" />
	<circle cx="232.281" cy="230.755" r="2.5" fill="rgb(204,204,204)" />
	<circle cx="230.906" cy="231.791" r="2.5" fill="rgb(204,204,204)" />
	<circle cx="234.853" cy="242.58" r="2.5" fill="rgb(204,204,204)" />
	<circle cx="232.208" cy="250.974" r="2.5" fill="rgb(204,204,204)" />
	<circle cx="220.776" cy="253.292" r="2.5" fill="rgb(204,204,204)" />
	<circle cx="216.335" cy="254.813" r="2.5" fill="rgb(204,204,204)" />
	<circle cx="224.764" cy="253.167" r="2.5" fill="rgb(204,204,204)" />
	<circle cx="235.161" cy="259.78" r="2.5" fill="rgb(204,204,204)" />
	<circle cx="207.197" cy="280.412" r="2.5" fill="rgb(204,204,204)" />
	<circle cx="205.022" cy="272.953" r="2.5" fill="rgb(204,204,204)" />
	<circle cx="198.708" cy="276.475" r="2.5" fill="rgb(204,204,204)" />
	<circle cx="213.99" cy="276.109" r="2.5" fill="rgb(204,204,204)" />
	<circle cx="225.681" cy="268.169" r="2.5" fill="rgb(204,204,204)" />
	<circle cx="205.767" cy="263.777" r="2.5" fill="rgb(204,204,204)" />
	<circle cx="207.278" cy="257.332" r="2.5" fill="rgb(204,204,204)" />
	<circle cx="208.382" cy="251.853" r="2.5" fill="rgb(204,204,204)" />
	<circle cx="201.15" cy="249.861" r="2.5" fill="rgb(204,204,204)" />
	<circle cx="207.843" cy="268.712" r="2.5" fill="rgb(204,204,204)" />
	<circle cx="207.612" cy="257.639" r="2.5" fill="rgb(204,204,204)" />
	<circle cx="216.527" cy="250.882" r="2.5" fill="rgb(204,204,204)" />
	<circle cx="217.412" cy="246.332" r="2.5" fill="rgb(204,204,204)" />
	<circle cx="214.379" cy="252.984" r="2.5" fill="rgb(204,204,204)" />
	<circle cx="211.928" cy="250.752" r="2.5" fill="rgb(204,204,204)" />
	<circle cx="261.679" cy="277.387" r="2.5" fill="rgb(204,204,204)" />
	<circle cx="251.07" cy="278.563" r="2.5" fill="rgb(204,204,204)" />
	<circle cx="197.335" cy="271.574" r="2.5" fill="rgb(178,178,178)" />
	<circle cx="200.873" cy="272.984" r="2.5" fill="rgb(178,178,178)" />
	<circle cx="207.457" cy="269.346" r="2.5" fill="rgb(178,178,178)" />
	<circle cx="244.993" cy="257.901" r="2.5" fill="rgb(178,178,178)" />
	<circle cx="252.25" cy="256.921" r="2.5" fill="rgb(178,178,178)" />
	<circle cx="247.826" cy="255.069" r="2.5" fill="rgb(178,178,178)" />
	<circle cx="242.712" cy="256.999" r="2.5" fill="rgb(178,178,178)" />
	<circle cx="232.32" cy="256.946" r="2.5" fill="rgb(178,178,178)" />
	<circle cx="229.746" cy="257.221" r="2.5" fill="rgb(178,178,178)" />
	<circle cx="232.003" cy="261.9" r="2.5" fill="rgb(178,178,178)" />
	<circle cx="242.509" cy="253.182" r="2.5" fill="rgb(178,178,178)" />
	<circle cx="254.351" cy="255.583" r="2.5" fill="rgb(178,178,178)" />
	<circle cx="245.102" cy="258.633" r="2.5" fill="rgb(178,178,178)" />
	<circle cx="216.224" cy="269.514" r="2.5" fill="rgb(178,178,178)" />
	<circle cx="220.971" cy="267.026" r="2.5" fill="rgb(178,178,178)" />
	<circle cx="220.077" cy="263.62" r="2.5" fill="rgb(178,178,178)" />
	<circle cx="234.766" cy="257.29" r="2.5" fill="rgb(178,178,178)" />
	<circle cx="223.047" cy="278.232" r="2.5" fill="rgb(178,178,178)" />
	<circle cx="205.566" cy="285.901" r="2.5" fill="rgb(178,178,178)" />
	<circle cx="209.543" cy="282.958" r="2.5" fill="rgb(178,178,178)" />
	<circle cx="216.187" cy="302.724" r="2.5" fill="rgb(178,178,178)" />
	<circle cx="223.377" cy="304.391" r="2.5" fill="rgb(178,178,178)" />
	<circle cx="220.947" cy="306.854" r="2.5" fill="rgb(178,178,178)" />
	<circle cx="238.143" cy="300.882" r="2.5" fill="rgb(178,178,178)" />
	<circle cx="244.863" cy="289.597" r="2.5" fill="rgb(178,178,178)" />
	<circle cx="236.033" cy="287.641" r="2.5" fill="rgb(178,178,178)" />
	<circle cx="242.514" cy="273.132" r="2.5" fill="rgb(178,178,178)" />
	<circle cx="247.5" cy="271.322" r="2.5" fill="rgb(178,178,178)" />
	<circle cx="242.545" cy="252.667" r="2.5" fill="rgb(178,178,178)" />
	<circle cx="238.617" cy="261.712" r="2.5" fill="rgb(178,178,178)" />
	<circle cx="224.214" cy="262.636" r="2.5" fill="rgb(178,178,178)" />
	<circle cx="227.566" cy="266.787" r="2.5" fill="rgb(178,178,178)" />
	<circle cx="223.797" cy="269.045" r="2.5" fill="rgb(178,178,178)" />
	<circle cx="229.777" cy="260.152" r="2.5" fill="rgb(178,178,178)" />
	<circle cx="222.212" cy="291.266" r="2.5" fill="rgb(178,178,178)" />
	<circle cx="212.293" cy="298.485" r="2.5" fill="rgb(178,178,178)" />
	<circle cx="219.4" cy="298.994" r="2.5" fill="rgb(178,178,178)" />
	<circle cx="212.09" cy="302.732" r="2.5" fill="rgb(178,178,178)" />
	<circle cx="217.631" cy="302.109" r="2.5" fill="rgb(178,178,178)" />
	<circle cx="230.116" cy="295.867" r="2.5" fill="rgb(178,178,178)" />
	<circle cx="235.566" cy="297.849" r="2.5" fill="rgb(178,178,178)" />
	<circle cx="229.941" cy="301.648" r="2.5" fill="rgb(178,178,178)" />
	<circle cx="231.7" cy="293.709" r="2.5" fill="rgb(178,178,178)" />
	<circle cx="242.235" cy="301.171" r="2.5" fill="rgb(178,178,178)" />
	<circle cx="236.256" cy="313.503" r="2.5" fill="rgb(178,178,178)" />
	<circle cx="238.719" cy="312.25" r="2.5" fill="rgb(178,178,178)" />
	<circle cx="251.064" cy="284.598" r="2.5" fill="rgb(178,178,178)" />
	<circle cx="250.64" cy="271.808" r="2.5" fill="rgb(178,178,178)" />
	<circle cx="241.434" cy="270.848" r="2.5" fill="rgb(178,178,178)" />
	<circle cx="259.574" cy="259.472" r="2.5" fill="rgb(178,178,178)" />
	<circle cx="250.972" cy="262.317" r="2.5" fill="rgb(178,178,178)" />
	<circle cx="249.009" cy="250.397" r="2.5" fill="rgb(178,178,178)" />
	<circle cx="244" cy="237.874" r="2.5" fill="rgb(178,178,178)" />
	<circle cx="255.24" cy="245.389" r="2.5" fill="rgb(178,178,178)" />
	<circle cx="245.98" cy="240.474" r="2.5" fill="rgb(178,178,178)" />
	<circle cx="258.574" cy="254.838" r="2.5" fill="rgb(178,178,178)" />
	<circle cx="250.256" cy="250.524" r="2.5" fill="rgb(178,178,178)" />
	<circle cx="236.855" cy="237.611" r="2.5" fill="rgb(178,178,178)" />
	<circle cx="243.083" cy="245.698" r="2.5" fill="rgb(178,178,178)" />
	<circle cx="235.265" cy="242.482" r="2.5" fill="rgb(178,178,178)" />
	<circle cx="239.323" cy="256.017" r="2.5" fill="rgb(178,178,178)" />
	<circle cx="220.983" cy="263.084" r="2.5" fill="rgb(178,178,178)" />
	<circle cx="224.594" cy="253.703" r="2.5" fill="rgb(178,178,178)" />
	<circle cx="224.296" cy="256.946" r="2.5" fill="rgb(178,178,178)" />
	<circle cx="235.881" cy="256.239" r="2.5" fill="rgb(178,178,178)" />
	<circle cx="215.028" cy="253.911" r="2.5" fill="rgb(178,178,178)" />
	<circle cx="206.301" cy="275.457" r="2.5" fill="rgb(178,178,178)" />
	<circle cx="227.476" cy="274.213" r="2.5" fill="rgb(178,178,178)" />
	<circle cx="220.303" cy="276.711" r="2.5" fill="rgb(178,178,178)" />
	<circle cx="215.181" cy="272.504" r="2.5" fill="rgb(178,178,178)" />
	<circle cx="219.639" cy="274.075" r="2.5" fill="rgb(178,178,178)" />
	<circle cx="212.365" cy="268.653" r="2.5" fill="rgb(178,178,178)" />
	<circle cx="210.42" cy="269.361" r="2.5" fill="rgb(178,178,178)" />
	<circle cx="218.526" cy="260.37" r="2.5" fill="rgb(178,178,178)" />
	<circle cx="202.559" cy="257.507" r="2.5" fill="rgb(178,178,178)" />
	<circle cx="207.436" cy="264.646" r="2.5" fill="rgb(178,178,178)" />
	<circle cx="212.001" cy="255.719" r="2.5" fill="rgb(178,178,178)" />
	<circle cx="214.423" cy="252.542" r="2.5" fill="rgb(178,178,178)" />
	<circle cx="213.43" cy="264.49" r="2.5" fill="rgb(178,178,178)" />
	<circle cx="214.483" cy="254.661" r="2.5" fill="rgb(178,178,178)" />
	<circle cx="210.036" cy="253.673" r="2.5" fill="rgb(178,178,178)" />
	<circle cx="204.249" cy="261.301" r="2.5" fill="rgb(178,178,178)" />
	<circle cx="257.109" cy="272.741" r="2.5" fill="rgb(178,178,178)" />
	<circle cx="249.793" cy="280.25" r="2.5" fill="rgb(178,178,178)" />
	<circle cx="201.794" cy="272.512" r="2.5" fill="rgb(153,153,153)" />
	<circle cx="219.179" cy="275.282" r="2.5" fill="rgb(153,153,153)" />
	<circle cx="250.059" cy="271.76" r="2.5" fill="rgb(153,153,153)" />
	<circle cx="244.182" cy="260.766" r="2.5" fill="rgb(153,153,153)" />
	<circle cx="245.638" cy="259.849" r="2.5" fill="rgb(153,153,153)" />
	<circle cx="237.143" cy="259.912" r="2.5" fill="rgb(153,153,153)" />
	<circle cx="237.281" cy="259.632" r="2.5" fill="rgb(153,153,153)" />
	<circle cx="248.251" cy="252.213" r="2.5" fill="rgb(153,153,153)" />
	<circle cx="222.66" cy="267.895" r="2.5" fill="rgb(153,153,153)" />
	<circle cx="223.738" cy="263.978" r="2.5" fill="rgb(153,153,153)" />
	<circle cx="223.63" cy="273.221" r="2.5" fill="rgb(153,153,153)" />
	<circle cx="232.53" cy="255.576" r="2.5" fill="rgb(153,153,153)" />
	<circle cx="224.643" cy="283.471" r="2.5" fill="rgb(153,153,153)" />
	<circle cx="212.035" cy="282.774" r="2.5" fill="rgb(153,153,153)" />
	<circle cx="220.238" cy="299.019" r="2.5" fill="rgb(153,153,153)" />
	<circle cx="239.194" cy="293.299" r="2.5" fill="rgb(153,153,153)" />
	<circle cx="218.038" cy="296.941" r="2.5" fill="rgb(153,153,153)" />
	<circle cx="238.162" cy="263.729" r="2.5" fill="rgb(153,153,153)" />
	<circle cx="213.897" cy="293.441" r="2.5" fill="rgb(153,153,153)" />
	<circle cx="233.633" cy="285.679" r="2.5" fill="rgb(153,153,153)" />
	<circle cx="228.537" cy="293.583" r="2.5" fill="rgb(153,153,153)" />
	<circle cx="223.489" cy="279.037" r="2.5" fill="rgb(153,153,153)" />
	<circle cx="231.905" cy="289.319" r="2.5" fill="rgb(153,153,153)" />
	<circle cx="235.258" cy="305.259" r="2.5" fill="rgb(153,153,153)" />
	<circle cx="232.168" cy="289.355" r="2.5" fill="rgb(153,153,153)" />
	<circle cx="231.224" cy="305.414" r="2.5" fill="rgb(153,153,153)" />
	<circle cx="243.963" cy="270.531" r="2.5" fill="rgb(153,153,153)" />
	<circle cx="246.915" cy="278.561" r="2.5" fill="rgb(153,153,153)" />
	<circle cx="242.741" cy="269.294" r="2.5" fill="rgb(153,153,153)" />
	<circle cx="243.479" cy="279.15" r="2.5" fill="rgb(153,153,153)" />
	<circle cx="230.943" cy="280.431" r="2.5" fill="rgb(153,153,153)" />
	<circle cx="256.178" cy="272.574" r="2.5" fill="rgb(153,153,153)" />
	<circle cx="253.678" cy="257.859" r="2.5" fill="rgb(153,153,153)" />
	<circle cx="253.566" cy="256.798" r="2.5" fill="rgb(153,153,153)" />
	<circle cx="248.026" cy="242.361" r="2.5" fill="rgb(153,153,153)" />
	<circle cx="253.248" cy="248.903" r="2.5" fill="rgb(153,153,153)" />
	<circle cx="256.404" cy="255.876" r="2.5" fill="rgb(153,153,153)" />
	<circle cx="247.111" cy="254.399" r="2.5" fill="rgb(153,153,153)" />
	<circle cx="242.568" cy="246.227" r="2.5" fill="rgb(153,153,153)" />
	<circle cx="240.963" cy="241.301" r="2.5" fill="rgb(153,153,153)" />
	<circle cx="241.964" cy="243.328" r="2.5" fill="rgb(153,153,153)" />
	<circle cx="234.31" cy="250.166" r="2.5" fill="rgb(153,153,153)" />
	<circle cx="242.743" cy="253.784" r="2.5" fill="rgb(153,153,153)" />
	<circle cx="228.011" cy="250.705" r="2.5" fill="rgb(153,153,153)" />
	<circle cx="225.057" cy="263.098" r="2.5" fill="rgb(153,153,153)" />
	<circle cx="227.876" cy="258.446" r="2.5" fill="rgb(153,153,153)" />
	<circle cx="232.514" cy="261.069" r="2.5" fill="rgb(153,153,153)" />
	<circle cx="216.572" cy="260.763" r="2.5" fill="rgb(153,153,153)" />
	<circle cx="221.942" cy="257.587" r="2.5" fill="rgb(153,153,153)" />
	<circle cx="221.036" cy="256.484" r="2.5" fill="rgb(153,153,153)" />
	<circle cx="218.802" cy="261.376" r="2.5" fill="rgb(153,153,153)" />
	<circle cx="212.253" cy="273.164" r="2.5" fill="rgb(153,153,153)" />
	<circle cx="219.537" cy="272.051" r="2.5" fill="rgb(153,153,153)" />
	<circle cx="215.846" cy="267.019" r="2.5" fill="rgb(153,153,153)" />
	<circle cx="210.708" cy="258.698" r="2.5" fill="rgb(153,153,153)" />
	<circle cx="250.784" cy="276.701" r="2.5" fill="rgb(153,153,153)" />
	<circle cx="207.328" cy="274.159" r="2.5" fill="rgb(127,127,127)" />
	<circle cx="211.643" cy="273.376" r="2.5" fill="rgb(127,127,127)" />
	<circle cx="242.568" cy="269.185" r="2.5" fill="rgb(127,127,127)" />
	<circle cx="245.211" cy="258.884" r="2.5" fill="rgb(127,127,127)" />
	<circle cx="245.824" cy="264.796" r="2.5" fill="rgb(127,127,127)" />
	<circle cx="243.708" cy="257.195" r="2.5" fill="rgb(127,127,127)" />
	<circle cx="248.955" cy="264.909" r="2.5" fill="rgb(127,127,127)" />
	<circle cx="242.254" cy="262.901" r="2.5" fill="rgb(127,127,127)" />
	<circle cx="223.227" cy="266.725" r="2.5" fill="rgb(127,127,127)" />
	<circle cx="226.5" cy="261.074" r="2.5" fill="rgb(127,127,127)" />
	<circle cx="219.898" cy="280.242" r="2.5" fill="rgb(127,127,127)" />
	<circle cx="230.73" cy="280.139" r="2.5" fill="rgb(127,127,127)" />
	<circle cx="224.602" cy="283.843" r="2.5" fill="rgb(127,127,127)" />
	<circle cx="221.718" cy="293.245" r="2.5" fill="rgb(127,127,127)" />
	<circle cx="232.108" cy="290.763" r="2.5" fill="rgb(127,127,127)" />
	<circle cx="220.645" cy="293.275" r="2.5" fill="rgb(127,127,127)" />
	<circle cx="228.833" cy="286.853" r="2.5" fill="rgb(127,127,127)" />
	<circle cx="229.095" cy="285.117" r="2.5" fill="rgb(127,127,127)" />
	<circle cx="230.767" cy="292.773" r="2.5" fill="rgb(127,127,127)" />
	<circle cx="228.741" cy="284.638" r="2.5" fill="rgb(127,127,127)" />
	<circle cx="235.502" cy="288.847" r="2.5" fill="rgb(127,127,127)" />
	<circle cx="224.104" cy="280.404" r="2.5" fill="rgb(127,127,127)" />
	<circle cx="232.855" cy="297.514" r="2.5" fill="rgb(127,127,127)" />
	<circle cx="233.077" cy="297.537" r="2.5" fill="rgb(127,127,127)" />
	<circle cx="245.46" cy="272.534" r="2.5" fill="rgb(127,127,127)" />
	<circle cx="244.943" cy="276.024" r="2.5" fill="rgb(127,127,127)" />
	<circle cx="237.325" cy="277.31" r="2.5" fill="rgb(127,127,127)" />
	<circle cx="236.219" cy="268.666" r="2.5" fill="rgb(127,127,127)" />
	<circle cx="247.282" cy="277.686" r="2.5" fill="rgb(127,127,127)" />
	<circle cx="238.175" cy="282.787" r="2.5" fill="rgb(127,127,127)" />
	<circle cx="237.842" cy="267.53" r="2.5" fill="rgb(127,127,127)" />
	<circle cx="240.964" cy="279.691" r="2.5" fill="rgb(127,127,127)" />
	<circle cx="238.489" cy="274.736" r="2.5" fill="rgb(127,127,127)" />
	<circle cx="248.045" cy="270.947" r="2.5" fill="rgb(127,127,127)" />
	<circle cx="251.878" cy="249.751" r="2.5" fill="rgb(127,127,127)" />
	<circle cx="243.77" cy="249.005" r="2.5" fill="rgb(127,127,127)" />
	<circle cx="247.835" cy="247.076" r="2.5" fill="rgb(127,127,127)" />
	<circle cx="245.044" cy="246.723" r="2.5" fill="rgb(127,127,127)" />
	<circle cx="241.848" cy="252.545" r="2.5" fill="rgb(127,127,127)" />
	<circle cx="235.317" cy="250.215" r="2.5" fill="rgb(127,127,127)" />
	<circle cx="232.029" cy="246.841" r="2.5" fill="rgb(127,127,127)" />
	<circle cx="242.286" cy="245.117" r="2.5" fill="rgb(127,127,127)" />
	<circle cx="224.494" cy="263.331" r="2.5" fill="rgb(127,127,127)" />
	<circle cx="216.231" cy="271.165" r="2.5" fill="rgb(127,127,127)" />
	<circle cx="214.775" cy="264.248" r="2.5" fill="rgb(127,127,127)" />
	<circle cx="229.612" cy="261.423" r="2.5" fill="rgb(127,127,127)" />
	<circle cx="216.733" cy="259.818" r="2.5" fill="rgb(127,127,127)" />
	<circle cx="247.605" cy="270.565" r="2.5" fill="rgb(127,127,127)" />
	<circle cx="213.4" cy="272.537" r="2.5" fill="rgb(102,102,102)" />
	<circle cx="206.723" cy="270.839" r="2.5" fill="rgb(102,102,102)" />
	<circle cx="235.525" cy="269.816" r="2.5" fill="rgb(102,102,102)" />
	<circle cx="242.955" cy="263.747" r="2.5" fill="rgb(102,102,102)" />
	<circle cx="243.413" cy="263.975" r="2.5" fill="rgb(102,102,102)" />
	<circle cx="233.658" cy="264.715" r="2.5" fill="rgb(102,102,102)" />
	<circle cx="222.854" cy="268.511" r="2.5" fill="rgb(102,102,102)" />
	<circle cx="226.481" cy="276.671" r="2.5" fill="rgb(102,102,102)" />
	<circle cx="230.59" cy="274.623" r="2.5" fill="rgb(102,102,102)" />
	<circle cx="234.385" cy="270.223" r="2.5" fill="rgb(102,102,102)" />
	<circle cx="233.75" cy="279.066" r="2.5" fill="rgb(102,102,102)" />
	<circle cx="231.844" cy="265.694" r="2.5" fill="rgb(102,102,102)" />
	<circle cx="228.584" cy="284.769" r="2.5" fill="rgb(102,102,102)" />
	<circle cx="227.088" cy="288.142" r="2.5" fill="rgb(102,102,102)" />
	<circle cx="228.016" cy="291.244" r="2.5" fill="rgb(102,102,102)" />
	<circle cx="231.906" cy="275.7" r="2.5" fill="rgb(102,102,102)" />
	<circle cx="226.723" cy="284.606" r="2.5" fill="rgb(102,102,102)" />
	<circle cx="223.771" cy="292.491" r="2.5" fill="rgb(102,102,102)" />
	<circle cx="240.182" cy="275.331" r="2.5" fill="rgb(102,102,102)" />
	<circle cx="244.871" cy="277.245" r="2.5" fill="rgb(102,102,102)" />
	<circle cx="245.265" cy="251.707" r="2.5" fill="rgb(102,102,102)" />
	<circle cx="236.82" cy="254.042" r="2.5" fill="rgb(102,102,102)" />
	<circle cx="240.281" cy="248.003" r="2.5" fill="rgb(102,102,102)" />
	<circle cx="245.557" cy="253.733" r="2.5" fill="rgb(102,102,102)" />
	<circle cx="242.802" cy="248.485" r="2.5" fill="rgb(102,102,102)" />
	<circle cx="222.407" cy="265.608" r="2.5" fill="rgb(102,102,102)" />
	<circle cx="215.485" cy="266.688" r="2.5" fill="rgb(102,102,102)" />
	<circle cx="223.011" cy="275.101" r="2.5" fill="rgb(102,102,102)" />
	<circle cx="232.537" cy="257.95" r="2.5" fill="rgb(102,102,102)" />
	<circle cx="239.617" cy="248.411" r="2.5" fill="rgb(102,102,102)" />
	<circle cx="244.301" cy="272.284" r="2.5" fill="rgb(102,102,102)" />
	<circle cx="240.229" cy="268.396" r="2.5" fill="rgb(102,102,102)" />
	<circle cx="213.975" cy="273.016" r="2.5" fill="rgb(76,76,76)" />
	<circle cx="235.663" cy="262.195" r="2.5" fill="rgb(76,76,76)" />
	<circle cx="228.403" cy="268.666" r="2.5" fill="rgb(76,76,76)" />
	<circle cx="236.934" cy="272.136" r="2.5" fill="rgb(76,76,76)" />
	<circle cx="226.768" cy="261.647" r="2.5" fill="rgb(76,76,76)" />
	<circle cx="227.941" cy="282.912" r="2.5" fill="rgb(76,76,76)" />
	<circle cx="232.419" cy="271.032" r="2.5" fill="rgb(76,76,76)" />
	<circle cx="225.314" cy="285.132" r="2.5" fill="rgb(76,76,76)" />
	<circle cx="218.697" cy="279.142" r="2.5" fill="rgb(76,76,76)" />
	<circle cx="239.787" cy="256.979" r="2.5" fill="rgb(76,76,76)" />
	<circle cx="245.025" cy="269.973" r="2.5" fill="rgb(76,76,76)" />
	<circle cx="239.979" cy="256.272" r="2.5" fill="rgb(76,76,76)" />
	<circle cx="231.683" cy="252.797" r="2.5" fill="rgb(76,76,76)" />
	<circle cx="226.004" cy="264.375" r="2.5" fill="rgb(76,76,76)" />
	<circle cx="234.079" cy="268.167" r="2.5" fill="rgb(76,76,76)" />
	<circle cx="222.962" cy="266.825" r="2.5" fill="rgb(76,76,76)" />
	<circle cx="227.434" cy="261.149" r="2.5" fill="rgb(76,76,76)" />
	<circle cx="229.547" cy="270.362" r="2.5" fill="rgb(76,76,76)" />
	<circle cx="246.133" cy="270.7" r="2.5" fill="rgb(76,76,76)" />
	<circle cx="229.812" cy="270.391" r="2.5" fill="rgb(76,76,76)" />
	<circle cx="243.768" cy="268.967" r="2.5" fill="rgb(76,76,76)" />
	<circle cx="233.168" cy="253.183" r="2.5" fill="rgb(76,76,76)" />
	<circle cx="241.991" cy="264.468" r="2.5" fill="rgb(76,76,76)" />
	<circle cx="229.87" cy="255.535" r="2.5" fill="rgb(76,76,76)" />
	<circle cx="220.765" cy="268.23" r="2.5" fill="rgb(51,51,51)" />
	<circle cx="230.548" cy="268.375" r="2.5" fill="rgb(51,51,51)" />
	<circle cx="226.559" cy="276.893" r="2.5" fill="rgb(51,51,51)" />
	<circle cx="230.485" cy="272.812" r="2.5" fill="rgb(51,51,51)" />
	<circle cx="224.718" cy="276.894" r="2.5" fill="rgb(51,51,51)" />
	<circle cx="235.517" cy="268.796" r="2.5" fill="rgb(51,51,51)" />
	<circle cx="243.088" cy="263.583" r="2.5" fill="rgb(51,51,51)" />
	<circle cx="233.097" cy="261.008" r="2.5" fill="rgb(51,51,51)" />
	<circle cx="232.769" cy="265.907" r="2.5" fill="rgb(51,51,51)" />
	<circle cx="240.433" cy="263.355" r="2.5" fill="rgb(51,51,51)" />
	<circle cx="246.163" cy="269.591" r="2.5" fill="rgb(51,51,51)" />
	<circle cx="226.148" cy="267.261" r="2.5" fill="rgb(51,51,51)" />
	<circle cx="226.509" cy="270.231" r="2.5" fill="rgb(51,51,51)" />
	<circle cx="237.932" cy="271.363" r="2.5" fill="rgb(51,51,51)" />
	<circle cx="231.149" cy="270.06" r="2.5" fill="rgb(51,51,51)" />
	<circle cx="240.918" cy="258.034" r="2.5" fill="rgb(51,51,51)" />
	<circle cx="235.572" cy="261.078" r="2.5" fill="rgb(51,51,51)" />
	<circle cx="241.994" cy="271.583" r="2.5" fill="rgb(51,51,51)" />
	<circle cx="227.373" cy="267.909" r="2.5" fill="rgb(25,25,25)" />
	<circle cx="240.599" cy="263.415" r="2.5" fill="rgb(25,25,25)" />
	<circle cx="228.151" cy="269.399" r="2.5" fill="rgb(25,25,25)" />
	<circle cx="235.935" cy="270.628" r="2.5" fill="rgb(25,25,25)" />
	<circle cx="235.35" cy="265.673" r="2.5" fill="rgb(25,25,25)" />
	<circle cx="233.83" cy="267.78" r="2.5" fill="rgb(25,25,25)" />
	<circle cx="233.296" cy="261.387" r="2.5" fill="rgb(25,25,25)" />
	<circle cx="227.256" cy="270.044" r="2.5" fill="rgb(25,25,25)" />
	<circle cx="233.333" cy="266.667" r="2" fill="rgb(255,0,0)" />
	<circle cx="266.667" cy="233.333" r="2" fill="rgb(0,255,0)" />
	<circle cx="233.333" cy="266.667" r="2" fill="rgb(0,255,0)" />
	<circle cx="240.599" cy="263.415" r="2" fill="rgb(0,255,0)" />
	<circle cx="243.088" cy="263.583" r="2" fill="rgb(0,255,0)" />
	<circle cx="239.979" cy="256.272" r="2" fill="rgb(0,255,0)" />
	<circle cx="245.265" cy="251.707" r="2" fill="rgb(0,255,0)" />
	<circle cx="251.878" cy="249.751" r="2" fill="rgb(0,255,0)" />
	<circle cx="248.026" cy="242.361" r="2" fill="rgb(0,255,0)" />
	<circle cx="255.24" cy="245.389" r="2" fill="rgb(0,255,0)" />
	<circle cx="257.883" cy="248.048" r="2" fill="rgb(0,255,0)" />
	<circle cx="263.532" cy="242.569" r="2" fill="rgb(0,255,0)" />
	<circle cx="263.212" cy="238.569" r="2" fill="rgb(0,255,0)" />
</svg>
